%TF.GenerationSoftware,KiCad,Pcbnew,8.0.0-rc3-2-g1717f39daf*%
%TF.CreationDate,2024-02-17T21:45:02+01:00*%
%TF.ProjectId,ACDC150V24,41434443-3135-4305-9632-342e6b696361,rev?*%
%TF.SameCoordinates,Original*%
%TF.FileFunction,Copper,L1,Top*%
%TF.FilePolarity,Positive*%
%FSLAX46Y46*%
G04 Gerber Fmt 4.6, Leading zero omitted, Abs format (unit mm)*
G04 Created by KiCad (PCBNEW 8.0.0-rc3-2-g1717f39daf) date 2024-02-17 21:45:02*
%MOMM*%
%LPD*%
G01*
G04 APERTURE LIST*
G04 Aperture macros list*
%AMRoundRect*
0 Rectangle with rounded corners*
0 $1 Rounding radius*
0 $2 $3 $4 $5 $6 $7 $8 $9 X,Y pos of 4 corners*
0 Add a 4 corners polygon primitive as box body*
4,1,4,$2,$3,$4,$5,$6,$7,$8,$9,$2,$3,0*
0 Add four circle primitives for the rounded corners*
1,1,$1+$1,$2,$3*
1,1,$1+$1,$4,$5*
1,1,$1+$1,$6,$7*
1,1,$1+$1,$8,$9*
0 Add four rect primitives between the rounded corners*
20,1,$1+$1,$2,$3,$4,$5,0*
20,1,$1+$1,$4,$5,$6,$7,0*
20,1,$1+$1,$6,$7,$8,$9,0*
20,1,$1+$1,$8,$9,$2,$3,0*%
G04 Aperture macros list end*
%TA.AperFunction,EtchedComponent*%
%ADD10C,0.000000*%
%TD*%
%TA.AperFunction,ComponentPad*%
%ADD11C,2.400000*%
%TD*%
%TA.AperFunction,ComponentPad*%
%ADD12O,2.400000X2.400000*%
%TD*%
%TA.AperFunction,ComponentPad*%
%ADD13O,2.000000X1.905000*%
%TD*%
%TA.AperFunction,ComponentPad*%
%ADD14R,2.000000X1.905000*%
%TD*%
%TA.AperFunction,SMDPad,CuDef*%
%ADD15RoundRect,0.200000X-0.275000X0.200000X-0.275000X-0.200000X0.275000X-0.200000X0.275000X0.200000X0*%
%TD*%
%TA.AperFunction,SMDPad,CuDef*%
%ADD16RoundRect,0.200000X-0.200000X-0.275000X0.200000X-0.275000X0.200000X0.275000X-0.200000X0.275000X0*%
%TD*%
%TA.AperFunction,SMDPad,CuDef*%
%ADD17RoundRect,0.200000X0.275000X-0.200000X0.275000X0.200000X-0.275000X0.200000X-0.275000X-0.200000X0*%
%TD*%
%TA.AperFunction,ComponentPad*%
%ADD18C,3.600000*%
%TD*%
%TA.AperFunction,ConnectorPad*%
%ADD19C,5.600000*%
%TD*%
%TA.AperFunction,SMDPad,CuDef*%
%ADD20RoundRect,0.250000X0.625000X-0.400000X0.625000X0.400000X-0.625000X0.400000X-0.625000X-0.400000X0*%
%TD*%
%TA.AperFunction,ComponentPad*%
%ADD21R,3.200000X3.200000*%
%TD*%
%TA.AperFunction,ComponentPad*%
%ADD22C,3.200000*%
%TD*%
%TA.AperFunction,ComponentPad*%
%ADD23C,1.800000*%
%TD*%
%TA.AperFunction,SMDPad,CuDef*%
%ADD24RoundRect,0.250000X-0.337500X-0.475000X0.337500X-0.475000X0.337500X0.475000X-0.337500X0.475000X0*%
%TD*%
%TA.AperFunction,SMDPad,CuDef*%
%ADD25RoundRect,0.225000X-0.250000X0.225000X-0.250000X-0.225000X0.250000X-0.225000X0.250000X0.225000X0*%
%TD*%
%TA.AperFunction,ComponentPad*%
%ADD26C,2.000000*%
%TD*%
%TA.AperFunction,SMDPad,CuDef*%
%ADD27RoundRect,0.225000X-0.225000X-0.250000X0.225000X-0.250000X0.225000X0.250000X-0.225000X0.250000X0*%
%TD*%
%TA.AperFunction,SMDPad,CuDef*%
%ADD28RoundRect,0.250000X0.337500X0.475000X-0.337500X0.475000X-0.337500X-0.475000X0.337500X-0.475000X0*%
%TD*%
%TA.AperFunction,SMDPad,CuDef*%
%ADD29RoundRect,0.225000X0.250000X-0.225000X0.250000X0.225000X-0.250000X0.225000X-0.250000X-0.225000X0*%
%TD*%
%TA.AperFunction,ComponentPad*%
%ADD30R,2.400000X2.400000*%
%TD*%
%TA.AperFunction,ComponentPad*%
%ADD31C,1.700000*%
%TD*%
%TA.AperFunction,SMDPad,CuDef*%
%ADD32RoundRect,0.200000X0.200000X0.275000X-0.200000X0.275000X-0.200000X-0.275000X0.200000X-0.275000X0*%
%TD*%
%TA.AperFunction,SMDPad,CuDef*%
%ADD33RoundRect,0.112500X-0.112500X0.187500X-0.112500X-0.187500X0.112500X-0.187500X0.112500X0.187500X0*%
%TD*%
%TA.AperFunction,SMDPad,CuDef*%
%ADD34RoundRect,0.249999X-0.450001X-1.425001X0.450001X-1.425001X0.450001X1.425001X-0.450001X1.425001X0*%
%TD*%
%TA.AperFunction,SMDPad,CuDef*%
%ADD35RoundRect,0.112500X0.112500X-0.187500X0.112500X0.187500X-0.112500X0.187500X-0.112500X-0.187500X0*%
%TD*%
%TA.AperFunction,ComponentPad*%
%ADD36R,2.400000X1.600000*%
%TD*%
%TA.AperFunction,ComponentPad*%
%ADD37O,2.400000X1.600000*%
%TD*%
%TA.AperFunction,SMDPad,CuDef*%
%ADD38RoundRect,0.112500X0.187500X0.112500X-0.187500X0.112500X-0.187500X-0.112500X0.187500X-0.112500X0*%
%TD*%
%TA.AperFunction,ComponentPad*%
%ADD39C,1.600000*%
%TD*%
%TA.AperFunction,SMDPad,CuDef*%
%ADD40RoundRect,0.150000X0.150000X-0.587500X0.150000X0.587500X-0.150000X0.587500X-0.150000X-0.587500X0*%
%TD*%
%TA.AperFunction,ComponentPad*%
%ADD41C,2.300000*%
%TD*%
%TA.AperFunction,SMDPad,CuDef*%
%ADD42RoundRect,0.250000X-0.400000X-0.625000X0.400000X-0.625000X0.400000X0.625000X-0.400000X0.625000X0*%
%TD*%
%TA.AperFunction,ComponentPad*%
%ADD43RoundRect,0.250001X-1.099999X1.099999X-1.099999X-1.099999X1.099999X-1.099999X1.099999X1.099999X0*%
%TD*%
%TA.AperFunction,ComponentPad*%
%ADD44C,2.700000*%
%TD*%
%TA.AperFunction,SMDPad,CuDef*%
%ADD45RoundRect,0.250000X-0.625000X0.400000X-0.625000X-0.400000X0.625000X-0.400000X0.625000X0.400000X0*%
%TD*%
%TA.AperFunction,ComponentPad*%
%ADD46RoundRect,0.250001X1.099999X1.099999X-1.099999X1.099999X-1.099999X-1.099999X1.099999X-1.099999X0*%
%TD*%
%TA.AperFunction,SMDPad,CuDef*%
%ADD47RoundRect,0.250000X0.300000X0.300000X-0.300000X0.300000X-0.300000X-0.300000X0.300000X-0.300000X0*%
%TD*%
%TA.AperFunction,SMDPad,CuDef*%
%ADD48C,2.000000*%
%TD*%
%TA.AperFunction,SMDPad,CuDef*%
%ADD49RoundRect,0.225000X0.225000X0.250000X-0.225000X0.250000X-0.225000X-0.250000X0.225000X-0.250000X0*%
%TD*%
%TA.AperFunction,WasherPad*%
%ADD50C,2.300000*%
%TD*%
%TA.AperFunction,SMDPad,CuDef*%
%ADD51RoundRect,0.250000X1.000000X0.900000X-1.000000X0.900000X-1.000000X-0.900000X1.000000X-0.900000X0*%
%TD*%
%TA.AperFunction,SMDPad,CuDef*%
%ADD52RoundRect,0.112500X-0.187500X-0.112500X0.187500X-0.112500X0.187500X0.112500X-0.187500X0.112500X0*%
%TD*%
%TA.AperFunction,SMDPad,CuDef*%
%ADD53RoundRect,0.150000X-0.825000X-0.150000X0.825000X-0.150000X0.825000X0.150000X-0.825000X0.150000X0*%
%TD*%
%TA.AperFunction,ViaPad*%
%ADD54C,0.800000*%
%TD*%
%TA.AperFunction,Conductor*%
%ADD55C,2.000000*%
%TD*%
%TA.AperFunction,Conductor*%
%ADD56C,0.300000*%
%TD*%
%TA.AperFunction,Conductor*%
%ADD57C,0.500000*%
%TD*%
%TA.AperFunction,Conductor*%
%ADD58C,0.200000*%
%TD*%
G04 APERTURE END LIST*
D10*
%TA.AperFunction,EtchedComponent*%
%TO.C,NT1*%
G36*
X112900000Y-80000000D02*
G01*
X110900000Y-80000000D01*
X110900000Y-76000000D01*
X112900000Y-76000000D01*
X112900000Y-80000000D01*
G37*
%TD.AperFunction*%
%TD*%
D11*
%TO.P,R22,1*%
%TO.N,Net-(D7-K)*%
X102400000Y-86540000D03*
D12*
%TO.P,R22,2*%
%TO.N,/PS/AC_R_O*%
X102400000Y-81460000D03*
%TD*%
D13*
%TO.P,Q1,3,S*%
%TO.N,Net-(Q1-S)*%
X73455000Y-102440000D03*
%TO.P,Q1,2,D*%
%TO.N,/PS/TR_SW*%
X73455000Y-99900000D03*
D14*
%TO.P,Q1,1,G*%
%TO.N,Net-(Q1-G)*%
X73455000Y-97360000D03*
%TD*%
D15*
%TO.P,R15,1*%
%TO.N,Net-(D5-K)*%
X112900000Y-115075000D03*
%TO.P,R15,2*%
%TO.N,/PS/24V_F*%
X112900000Y-116725000D03*
%TD*%
%TO.P,R17,1*%
%TO.N,Net-(U3-REF)*%
X114400000Y-112103000D03*
%TO.P,R17,2*%
%TO.N,Net-(R16-Pad1)*%
X114400000Y-113753000D03*
%TD*%
D16*
%TO.P,R12,1*%
%TO.N,Net-(R12-Pad1)*%
X107575000Y-111400000D03*
%TO.P,R12,2*%
%TO.N,Net-(D5-K)*%
X109225000Y-111400000D03*
%TD*%
D17*
%TO.P,R18,1*%
%TO.N,OUT_GND*%
X112900000Y-113753000D03*
%TO.P,R18,2*%
%TO.N,Net-(U3-REF)*%
X112900000Y-112103000D03*
%TD*%
D18*
%TO.P,H2,1,1*%
%TO.N,unconnected-(H2-Pad1)*%
X112900000Y-137900000D03*
D19*
%TO.N,unconnected-(H2-Pad1)_0*%
X112900000Y-137900000D03*
%TD*%
D20*
%TO.P,R6,1*%
%TO.N,Net-(R6-Pad1)*%
X86400000Y-83950000D03*
%TO.P,R6,2*%
%TO.N,/PS/AC_R_O*%
X86400000Y-80850000D03*
%TD*%
D21*
%TO.P,D6,1,+*%
%TO.N,/PS/AC_R_O*%
X104400000Y-54560000D03*
D22*
%TO.P,D6,2*%
%TO.N,/PS/AC_R_I_2*%
X104400000Y-49480000D03*
%TO.P,D6,3*%
%TO.N,/PS/AC_R_I_1*%
X104400000Y-44400000D03*
%TO.P,D6,4,-*%
%TO.N,DCR_GND*%
X104400000Y-39320000D03*
%TD*%
D23*
%TO.P,F1,1*%
%TO.N,/PS/AC_L*%
X40100000Y-58440000D03*
%TO.P,F1,2*%
%TO.N,Net-(F1-Pad2)*%
X40100000Y-53360000D03*
%TD*%
D24*
%TO.P,C17,1*%
%TO.N,/PS/24V_F*%
X98664500Y-125098500D03*
%TO.P,C17,2*%
%TO.N,OUT_GND*%
X100739500Y-125098500D03*
%TD*%
D23*
%TO.P,RV1,1*%
%TO.N,/PS/AC_L_SW*%
X49900000Y-55400000D03*
%TO.P,RV1,2*%
%TO.N,/PS/AC_N*%
X48600000Y-62900000D03*
%TD*%
D25*
%TO.P,C2,1*%
%TO.N,/PS/MOS_S*%
X56075000Y-86125000D03*
%TO.P,C2,2*%
%TO.N,GND_DC_S*%
X56075000Y-87675000D03*
%TD*%
D26*
%TO.P,SW1,1,1*%
%TO.N,Net-(F1-Pad2)*%
X42900000Y-37900000D03*
%TO.P,SW1,2,2*%
%TO.N,/PS/AC_L_SW*%
X48900000Y-36900000D03*
%TO.P,SW1,3,3*%
%TO.N,Net-(F1-Pad2)*%
X42900000Y-47900000D03*
%TO.P,SW1,4,4*%
%TO.N,/PS/AC_L_SW*%
X48900000Y-48900000D03*
%TD*%
D27*
%TO.P,C4,1*%
%TO.N,Net-(D3-K)*%
X66125000Y-85100000D03*
%TO.P,C4,2*%
%TO.N,GND_DC_P*%
X67675000Y-85100000D03*
%TD*%
D26*
%TO.P,C12,1*%
%TO.N,OUT_GND*%
X111081200Y-101895200D03*
%TO.P,C12,2*%
%TO.N,GND_DC_P*%
X111081200Y-94395200D03*
%TD*%
D28*
%TO.P,C20,1*%
%TO.N,OUT_GND*%
X100739500Y-129184000D03*
%TO.P,C20,2*%
%TO.N,/PS/24V_F*%
X98664500Y-129184000D03*
%TD*%
D26*
%TO.P,C28,1*%
%TO.N,Net-(C28-Pad1)*%
X74302000Y-122072000D03*
%TO.P,C28,2*%
%TO.N,Net-(D8A-A)*%
X74302000Y-114572000D03*
%TD*%
D29*
%TO.P,C10,1*%
%TO.N,GND_DC_S*%
X53100000Y-87675000D03*
%TO.P,C10,2*%
%TO.N,/PS/OPT_C*%
X53100000Y-86125000D03*
%TD*%
D30*
%TO.P,C25,1*%
%TO.N,/PS/24V_O*%
X52458000Y-133274541D03*
D11*
%TO.P,C25,2*%
%TO.N,OUT_GND*%
X52458000Y-138274541D03*
%TD*%
D31*
%TO.P,C7,1*%
%TO.N,/PS/AC_L_SW*%
X59400000Y-33400000D03*
%TO.P,C7,2*%
%TO.N,/PS/AC_N*%
X59400000Y-55900000D03*
%TD*%
D32*
%TO.P,R3,1*%
%TO.N,Net-(Q1-G)*%
X71025000Y-90000000D03*
%TO.P,R3,2*%
%TO.N,Net-(D2-K)*%
X69375000Y-90000000D03*
%TD*%
D27*
%TO.P,C5,1*%
%TO.N,Net-(D3-K)*%
X66125000Y-83600000D03*
%TO.P,C5,2*%
%TO.N,GND_DC_P*%
X67675000Y-83600000D03*
%TD*%
D32*
%TO.P,R2,1*%
%TO.N,Net-(Q1-G)*%
X71025000Y-88525000D03*
%TO.P,R2,2*%
%TO.N,Net-(D1-A)*%
X69375000Y-88525000D03*
%TD*%
D33*
%TO.P,D4,1,K*%
%TO.N,Net-(D4-K)*%
X44330000Y-86351000D03*
%TO.P,D4,2,A*%
%TO.N,/PS/AUX*%
X44330000Y-88451000D03*
%TD*%
D30*
%TO.P,C24,1*%
%TO.N,/PS/24V_O*%
X65920000Y-133274541D03*
D11*
%TO.P,C24,2*%
%TO.N,OUT_GND*%
X65920000Y-138274541D03*
%TD*%
D12*
%TO.P,R20,2*%
%TO.N,/PS/AC_R_O*%
X90900000Y-81460000D03*
D11*
%TO.P,R20,1*%
%TO.N,Net-(C21-Pad2)*%
X90900000Y-86540000D03*
%TD*%
D34*
%TO.P,R5,1*%
%TO.N,Net-(Q1-S)*%
X80100000Y-104900000D03*
%TO.P,R5,2*%
%TO.N,GND_DC_P*%
X86200000Y-104900000D03*
%TD*%
D35*
%TO.P,D3,1,K*%
%TO.N,Net-(D3-K)*%
X66100000Y-82250000D03*
%TO.P,D3,2,A*%
%TO.N,Net-(D3-A)*%
X66100000Y-80150000D03*
%TD*%
D36*
%TO.P,U2,1*%
%TO.N,Net-(R12-Pad1)*%
X105725000Y-106425000D03*
D37*
%TO.P,U2,2*%
%TO.N,Net-(U3-K)*%
X105725000Y-103885000D03*
%TO.P,U2,3,NC*%
%TO.N,unconnected-(U2-NC-Pad3)*%
X105725000Y-101345000D03*
%TO.P,U2,4*%
%TO.N,GND_DC_S*%
X98105000Y-101345000D03*
%TO.P,U2,5*%
%TO.N,/PS/OPT_C*%
X98105000Y-103885000D03*
%TO.P,U2,6*%
%TO.N,unconnected-(U2-Pad6)*%
X98105000Y-106425000D03*
%TD*%
D31*
%TO.P,C11,1*%
%TO.N,Net-(C11-Pad1)*%
X88400000Y-32900000D03*
%TO.P,C11,2*%
%TO.N,/PS/AC_R_I_2*%
X88400000Y-55400000D03*
%TD*%
D30*
%TO.P,C16,1*%
%TO.N,/PS/AC_R_O*%
X109400000Y-65900000D03*
D11*
%TO.P,C16,2*%
%TO.N,DCR_GND*%
X109400000Y-73400000D03*
%TD*%
D28*
%TO.P,C27,1*%
%TO.N,OUT_GND*%
X92865500Y-114960000D03*
%TO.P,C27,2*%
%TO.N,/PS/24V_O*%
X90790500Y-114960000D03*
%TD*%
D38*
%TO.P,D2,2,A*%
%TO.N,/PS/TR_GAT*%
X66050000Y-90200000D03*
%TO.P,D2,1,K*%
%TO.N,Net-(D2-K)*%
X68150000Y-90200000D03*
%TD*%
D39*
%TO.P,C6,1*%
%TO.N,Net-(D4-K)*%
X70766000Y-82900000D03*
%TO.P,C6,2*%
%TO.N,GND_DC_P*%
X73266000Y-82900000D03*
%TD*%
D11*
%TO.P,R19,1*%
%TO.N,Net-(D7-K)*%
X96650000Y-86540000D03*
D12*
%TO.P,R19,2*%
%TO.N,/PS/AC_R_O*%
X96650000Y-81460000D03*
%TD*%
D30*
%TO.P,C23,1*%
%TO.N,/PS/24V_F*%
X105824541Y-124003541D03*
D11*
%TO.P,C23,2*%
%TO.N,OUT_GND*%
X110824541Y-124003541D03*
%TD*%
D40*
%TO.P,U3,1,K*%
%TO.N,Net-(U3-K)*%
X109200000Y-108087500D03*
%TO.P,U3,2,REF*%
%TO.N,Net-(U3-REF)*%
X111100000Y-108087500D03*
%TO.P,U3,3,A*%
%TO.N,OUT_GND*%
X110150000Y-106212500D03*
%TD*%
D41*
%TO.P,FL1,1,1*%
%TO.N,/PS/AC_N*%
X68900000Y-52650000D03*
%TO.P,FL1,2,2*%
%TO.N,/PS/AC_R_I_2*%
X78900000Y-52650000D03*
%TO.P,FL1,3,3*%
%TO.N,/PS/AC_L_SW*%
X68900000Y-33900000D03*
%TO.P,FL1,4,4*%
%TO.N,Net-(C11-Pad1)*%
X78900000Y-33900000D03*
%TD*%
D27*
%TO.P,C14,1*%
%TO.N,Net-(U3-K)*%
X109375000Y-104150000D03*
%TO.P,C14,2*%
%TO.N,Net-(U3-REF)*%
X110925000Y-104150000D03*
%TD*%
D26*
%TO.P,C21,1*%
%TO.N,Net-(D7-K)*%
X87900000Y-94150000D03*
%TO.P,C21,2*%
%TO.N,Net-(C21-Pad2)*%
X80400000Y-94150000D03*
%TD*%
D42*
%TO.P,R8,1*%
%TO.N,Net-(D3-K)*%
X76850000Y-80900000D03*
%TO.P,R8,2*%
%TO.N,Net-(R7-Pad1)*%
X79950000Y-80900000D03*
%TD*%
D18*
%TO.P,H4,1,1*%
%TO.N,unconnected-(H4-Pad1)_1*%
X112900000Y-27700000D03*
D19*
%TO.N,unconnected-(H4-Pad1)_0*%
X112900000Y-27700000D03*
%TD*%
D26*
%TO.P,C9,1*%
%TO.N,/PS/AC_R_I_2*%
X45900000Y-31900000D03*
%TO.P,C9,2*%
%TO.N,EARTH*%
X45900000Y-26900000D03*
%TD*%
D24*
%TO.P,C26,1*%
%TO.N,/PS/24V_O*%
X90790500Y-116992000D03*
%TO.P,C26,2*%
%TO.N,OUT_GND*%
X92865500Y-116992000D03*
%TD*%
D27*
%TO.P,C1,1*%
%TO.N,Net-(U1-SS)*%
X57775000Y-81840000D03*
%TO.P,C1,2*%
%TO.N,GND_DC_S*%
X59325000Y-81840000D03*
%TD*%
D11*
%TO.P,R21,1*%
%TO.N,Net-(C28-Pad1)*%
X74317000Y-126136000D03*
D12*
%TO.P,R21,2*%
%TO.N,/PS/24V_O*%
X79397000Y-126136000D03*
%TD*%
D15*
%TO.P,R16,1*%
%TO.N,Net-(R16-Pad1)*%
X114400000Y-115075000D03*
%TO.P,R16,2*%
%TO.N,/PS/24V_F*%
X114400000Y-116725000D03*
%TD*%
D39*
%TO.P,TH1,1*%
%TO.N,/PS/AC_R_I_1*%
X97150000Y-44400000D03*
%TO.P,TH1,2*%
%TO.N,Net-(C11-Pad1)*%
X98650000Y-39400000D03*
%TD*%
D17*
%TO.P,R1,1*%
%TO.N,Net-(Q1-S)*%
X54600000Y-87725000D03*
%TO.P,R1,2*%
%TO.N,/PS/MOS_S*%
X54600000Y-86075000D03*
%TD*%
D43*
%TO.P,J1,1,Pin_1*%
%TO.N,/PS/AC_L*%
X40650000Y-63400000D03*
D44*
%TO.P,J1,2,Pin_2*%
%TO.N,/PS/AC_N*%
X40650000Y-71320000D03*
%TD*%
D27*
%TO.P,C15,1*%
%TO.N,Net-(C15-Pad1)*%
X112770000Y-110515000D03*
%TO.P,C15,2*%
%TO.N,Net-(U3-REF)*%
X114320000Y-110515000D03*
%TD*%
D41*
%TO.P,TR1,1,1*%
%TO.N,/PS/TR_SW*%
X67060000Y-94400000D03*
%TO.P,TR1,2,2*%
%TO.N,unconnected-(TR1-Pad2)*%
X61980000Y-94400000D03*
%TO.P,TR1,3,3*%
%TO.N,/PS/AC_R_O*%
X56900000Y-94400000D03*
%TO.P,TR1,4,4*%
%TO.N,DCR_GND*%
X49407000Y-94400000D03*
%TO.P,TR1,5,5*%
%TO.N,/PS/AUX*%
X44327000Y-94400000D03*
%TO.P,TR1,6*%
%TO.N,N/C*%
X39247000Y-94400000D03*
%TO.P,TR1,7*%
X39247000Y-124880000D03*
%TO.P,TR1,8,8*%
%TO.N,Net-(D8A-A)*%
X44327000Y-124880000D03*
%TO.P,TR1,9,9*%
%TO.N,Net-(TR1-Pad10)*%
X49407000Y-124880000D03*
%TO.P,TR1,10,10*%
X56900000Y-124880000D03*
%TO.P,TR1,11,11*%
%TO.N,OUT_GND*%
X61980000Y-124880000D03*
%TO.P,TR1,12*%
%TO.N,N/C*%
X67060000Y-124880000D03*
%TD*%
D45*
%TO.P,R7,1*%
%TO.N,Net-(R7-Pad1)*%
X82900000Y-80850000D03*
%TO.P,R7,2*%
%TO.N,Net-(R6-Pad1)*%
X82900000Y-83950000D03*
%TD*%
D24*
%TO.P,C19,1*%
%TO.N,/PS/24V_F*%
X98664500Y-131343000D03*
%TO.P,C19,2*%
%TO.N,OUT_GND*%
X100739500Y-131343000D03*
%TD*%
D26*
%TO.P,C8,1*%
%TO.N,Net-(C11-Pad1)*%
X56900000Y-26400000D03*
%TO.P,C8,2*%
%TO.N,EARTH*%
X51900000Y-26400000D03*
%TD*%
D17*
%TO.P,R4,2*%
%TO.N,GND_DC_P*%
X72600000Y-87575000D03*
%TO.P,R4,1*%
%TO.N,Net-(Q1-G)*%
X72600000Y-89225000D03*
%TD*%
D32*
%TO.P,R11,1*%
%TO.N,Net-(U1-OVP)*%
X63650000Y-81840000D03*
%TO.P,R11,2*%
%TO.N,GND_DC_S*%
X62000000Y-81840000D03*
%TD*%
D46*
%TO.P,J2,1,Pin_1*%
%TO.N,OUT_GND*%
X101860000Y-137900000D03*
D44*
%TO.P,J2,2,Pin_2*%
X97900000Y-137900000D03*
%TO.P,J2,3,Pin_3*%
%TO.N,/PS/24V_F*%
X93940000Y-137900000D03*
%TO.P,J2,4,Pin_4*%
X89980000Y-137900000D03*
%TD*%
D47*
%TO.P,D5,1,K*%
%TO.N,Net-(D5-K)*%
X110550000Y-114900000D03*
%TO.P,D5,2,A*%
%TO.N,OUT_GND*%
X107750000Y-114900000D03*
%TD*%
D48*
%TO.P,NT1,1,1*%
%TO.N,GND_DC_P*%
X111900000Y-80000000D03*
%TO.P,NT1,2,2*%
%TO.N,DCR_GND*%
X111900000Y-76000000D03*
%TD*%
D49*
%TO.P,C13,1*%
%TO.N,Net-(D5-K)*%
X109175000Y-112900000D03*
%TO.P,C13,2*%
%TO.N,OUT_GND*%
X107625000Y-112900000D03*
%TD*%
D32*
%TO.P,R13,1*%
%TO.N,Net-(U3-K)*%
X109225000Y-109900000D03*
%TO.P,R13,2*%
%TO.N,Net-(R12-Pad1)*%
X107575000Y-109900000D03*
%TD*%
D17*
%TO.P,R9,1*%
%TO.N,Net-(D4-K)*%
X67800000Y-81925000D03*
%TO.P,R9,2*%
%TO.N,Net-(D3-A)*%
X67800000Y-80275000D03*
%TD*%
D32*
%TO.P,R10,1*%
%TO.N,Net-(U1-OVP)*%
X63650000Y-80340000D03*
%TO.P,R10,2*%
%TO.N,/PS/AUX*%
X62000000Y-80340000D03*
%TD*%
D14*
%TO.P,D8,1,A*%
%TO.N,Net-(D8A-A)*%
X78714000Y-115558000D03*
D13*
%TO.P,D8,2,K*%
%TO.N,/PS/24V_O*%
X78714000Y-118098000D03*
%TO.P,D8,3,K*%
%TO.N,Net-(D8A-A)*%
X78714000Y-120638000D03*
%TD*%
D27*
%TO.P,C3,1*%
%TO.N,Net-(D3-K)*%
X66125000Y-86600000D03*
%TO.P,C3,2*%
%TO.N,GND_DC_P*%
X67675000Y-86600000D03*
%TD*%
D50*
%TO.P,HS2,*%
%TO.N,*%
X84462000Y-118135000D03*
%TD*%
D18*
%TO.P,H3,1,1*%
%TO.N,unconnected-(H3-Pad1)*%
X37900000Y-137900000D03*
D19*
%TO.N,unconnected-(H3-Pad1)_0*%
X37900000Y-137900000D03*
%TD*%
D28*
%TO.P,C18,1*%
%TO.N,OUT_GND*%
X100739500Y-127152000D03*
%TO.P,C18,2*%
%TO.N,/PS/24V_F*%
X98664500Y-127152000D03*
%TD*%
D30*
%TO.P,C22,1*%
%TO.N,/PS/24V_F*%
X81768459Y-135788000D03*
D11*
%TO.P,C22,2*%
%TO.N,OUT_GND*%
X76768459Y-135788000D03*
%TD*%
D17*
%TO.P,R14,1*%
%TO.N,Net-(C15-Pad1)*%
X110624000Y-111467000D03*
%TO.P,R14,2*%
%TO.N,Net-(U3-K)*%
X110624000Y-109817000D03*
%TD*%
D51*
%TO.P,D7,1,K*%
%TO.N,Net-(D7-K)*%
X84800000Y-99650000D03*
%TO.P,D7,2,A*%
%TO.N,/PS/TR_SW*%
X80500000Y-99650000D03*
%TD*%
D52*
%TO.P,D1,1,K*%
%TO.N,/PS/TR_GAT*%
X66050000Y-88300000D03*
%TO.P,D1,2,A*%
%TO.N,Net-(D1-A)*%
X68150000Y-88300000D03*
%TD*%
D26*
%TO.P,L1,1*%
%TO.N,/PS/24V_F*%
X96100000Y-127000000D03*
%TO.P,L1,2*%
%TO.N,/PS/24V_O*%
X88100000Y-127000000D03*
%TD*%
D53*
%TO.P,U1,1,SS*%
%TO.N,Net-(U1-SS)*%
X58300000Y-83590000D03*
%TO.P,U1,2,FB*%
%TO.N,/PS/OPT_C*%
X58300000Y-84860000D03*
%TO.P,U1,3,CS*%
%TO.N,/PS/MOS_S*%
X58300000Y-86130000D03*
%TO.P,U1,4,GND*%
%TO.N,GND_DC_S*%
X58300000Y-87400000D03*
%TO.P,U1,5,OUT*%
%TO.N,/PS/TR_GAT*%
X63250000Y-87400000D03*
%TO.P,U1,6,VDD*%
%TO.N,Net-(D3-K)*%
X63250000Y-86130000D03*
%TO.P,U1,7,OVP*%
%TO.N,Net-(U1-OVP)*%
X63250000Y-84860000D03*
%TO.P,U1,8,STATUS*%
%TO.N,unconnected-(U1-STATUS-Pad8)*%
X63250000Y-83590000D03*
%TD*%
D18*
%TO.P,H1,1,1*%
%TO.N,EARTH*%
X37900000Y-27900000D03*
D19*
X37900000Y-27900000D03*
%TD*%
D54*
%TO.N,/PS/TR_SW*%
X78500000Y-100100000D03*
X77200000Y-100100000D03*
X77200000Y-98800000D03*
X78500000Y-98900000D03*
%TO.N,GND_DC_P*%
X91600000Y-104900000D03*
X91600000Y-106400000D03*
X89800000Y-106400000D03*
X79600000Y-84900000D03*
X78600000Y-85800000D03*
X77800000Y-86600000D03*
X91600000Y-103400000D03*
X89800000Y-103400000D03*
X88000000Y-103400000D03*
X89800000Y-104900000D03*
X88000000Y-104900000D03*
X88000000Y-106400000D03*
%TO.N,/PS/OPT_C*%
X51500000Y-98900000D03*
%TO.N,Net-(Q1-S)*%
X53700000Y-88900000D03*
%TO.N,DCR_GND*%
X113800000Y-63600000D03*
X113900000Y-56600000D03*
X113800000Y-65600000D03*
X113800000Y-61500000D03*
X113800000Y-59400000D03*
%TO.N,OUT_GND*%
X110150000Y-107650000D03*
X111900000Y-113650000D03*
X107703000Y-115722000D03*
X93453000Y-116992000D03*
X93453000Y-114960000D03*
%TO.N,Net-(D4-K)*%
X72100000Y-79800000D03*
%TO.N,GND_DC_S*%
X61400000Y-88600000D03*
X61400000Y-89700000D03*
%TO.N,GND_DC_P*%
X112910000Y-83464000D03*
X112910000Y-85115000D03*
X110751000Y-84988000D03*
X110751000Y-81559000D03*
X112910000Y-81559000D03*
X110751000Y-83337000D03*
%TD*%
D55*
%TO.N,/PS/AC_R_O*%
X102400000Y-81460000D02*
X90900000Y-81460000D01*
%TO.N,Net-(D7-K)*%
X96650000Y-86540000D02*
X102400000Y-86540000D01*
X94545000Y-88645000D02*
X96650000Y-86540000D01*
X87900000Y-94150000D02*
X89040000Y-94150000D01*
X89040000Y-94150000D02*
X94545000Y-88645000D01*
D56*
%TO.N,GND_DC_S*%
X54400000Y-90150000D02*
X55575000Y-88975000D01*
X61200000Y-107900000D02*
X53150000Y-99850000D01*
X53150000Y-90150000D02*
X54400000Y-90150000D01*
X93200000Y-107900000D02*
X61200000Y-107900000D01*
X94400000Y-103000000D02*
X94400000Y-106700000D01*
X94400000Y-106700000D02*
X93200000Y-107900000D01*
X96055000Y-101345000D02*
X94400000Y-103000000D01*
X55575000Y-88975000D02*
X56075000Y-88975000D01*
X98105000Y-101345000D02*
X96055000Y-101345000D01*
X53150000Y-99850000D02*
X53150000Y-90150000D01*
D55*
%TO.N,Net-(D7-K)*%
X84800000Y-97250000D02*
X87900000Y-94150000D01*
X84800000Y-99650000D02*
X84800000Y-97250000D01*
%TO.N,Net-(C21-Pad2)*%
X88940000Y-88500000D02*
X90900000Y-86540000D01*
X84600000Y-88500000D02*
X88940000Y-88500000D01*
X80400000Y-92700000D02*
X84600000Y-88500000D01*
X80400000Y-94150000D02*
X80400000Y-92700000D01*
%TO.N,/PS/AC_R_O*%
X103893000Y-79967000D02*
X102400000Y-81460000D01*
X103893000Y-76400000D02*
X103893000Y-67081000D01*
X103893000Y-76400000D02*
X103893000Y-79967000D01*
D57*
%TO.N,Net-(R6-Pad1)*%
X82900000Y-83950000D02*
X86400000Y-83950000D01*
%TO.N,Net-(R7-Pad1)*%
X82850000Y-80900000D02*
X82900000Y-80850000D01*
X79950000Y-80900000D02*
X82850000Y-80900000D01*
%TO.N,/PS/AC_R_O*%
X86400000Y-71400000D02*
X92900000Y-64900000D01*
X92900000Y-64900000D02*
X100900000Y-64900000D01*
X86400000Y-80850000D02*
X86400000Y-71400000D01*
%TO.N,Net-(Q1-G)*%
X73455000Y-93455000D02*
X73455000Y-97360000D01*
X72600000Y-92600000D02*
X73455000Y-93455000D01*
X72600000Y-89225000D02*
X72600000Y-92600000D01*
X71050000Y-89225000D02*
X71025000Y-89200000D01*
X72600000Y-89225000D02*
X71050000Y-89225000D01*
X71025000Y-89200000D02*
X71025000Y-90000000D01*
X71025000Y-88525000D02*
X71025000Y-89200000D01*
D56*
%TO.N,Net-(D2-K)*%
X69175000Y-90200000D02*
X69375000Y-90000000D01*
X68150000Y-90200000D02*
X69175000Y-90200000D01*
%TO.N,Net-(D1-A)*%
X69150000Y-88300000D02*
X69375000Y-88525000D01*
X68150000Y-88300000D02*
X69150000Y-88300000D01*
D57*
%TO.N,/PS/TR_GAT*%
X64300000Y-87400000D02*
X65200000Y-88300000D01*
X65200000Y-88300000D02*
X66050000Y-88300000D01*
X63250000Y-87400000D02*
X64300000Y-87400000D01*
X66050000Y-90200000D02*
X66050000Y-88300000D01*
D58*
%TO.N,EARTH*%
X45900000Y-26900000D02*
X38900000Y-26900000D01*
X38900000Y-26900000D02*
X37900000Y-27900000D01*
X51900000Y-26900000D02*
X45900000Y-26900000D01*
D57*
%TO.N,/PS/AUX*%
X47549000Y-88451000D02*
X44330000Y-88451000D01*
X55660000Y-80340000D02*
X47549000Y-88451000D01*
X44330000Y-88451000D02*
X44330000Y-94397000D01*
X62000000Y-80340000D02*
X55660000Y-80340000D01*
X44330000Y-94397000D02*
X44327000Y-94400000D01*
%TO.N,Net-(U3-REF)*%
X111100000Y-108087500D02*
X111100000Y-104325000D01*
X111100000Y-108087500D02*
X113657500Y-108087500D01*
X114400000Y-110595000D02*
X114320000Y-110515000D01*
X111100000Y-104325000D02*
X110925000Y-104150000D01*
X113657500Y-108087500D02*
X114320000Y-108750000D01*
X114400000Y-112103000D02*
X112900000Y-112103000D01*
X114320000Y-108750000D02*
X114320000Y-110515000D01*
X114400000Y-112103000D02*
X114400000Y-110595000D01*
%TO.N,/PS/MOS_S*%
X56075000Y-86125000D02*
X54650000Y-86125000D01*
X58300000Y-86130000D02*
X56080000Y-86130000D01*
X56080000Y-86130000D02*
X56075000Y-86125000D01*
X54650000Y-86125000D02*
X54600000Y-86075000D01*
%TO.N,/PS/OPT_C*%
X51500000Y-98900000D02*
X51500000Y-86500000D01*
X58300000Y-84860000D02*
X53540000Y-84860000D01*
X51875000Y-86125000D02*
X53100000Y-86125000D01*
X51500000Y-86500000D02*
X51875000Y-86125000D01*
X53100000Y-85300000D02*
X53100000Y-86125000D01*
X53540000Y-84860000D02*
X53100000Y-85300000D01*
%TO.N,Net-(U3-K)*%
X106160000Y-104900000D02*
X105725000Y-104465000D01*
X109200000Y-104325000D02*
X109375000Y-104150000D01*
X109200000Y-108087500D02*
X109200000Y-109875000D01*
X109375000Y-104150000D02*
X106040000Y-104150000D01*
X109225000Y-109900000D02*
X110541000Y-109900000D01*
X109200000Y-109875000D02*
X109225000Y-109900000D01*
X110541000Y-109900000D02*
X110624000Y-109817000D01*
X106040000Y-104150000D02*
X105725000Y-104465000D01*
X109200000Y-108087500D02*
X109200000Y-104325000D01*
%TO.N,Net-(Q1-S)*%
X53700000Y-88900000D02*
X54600000Y-88000000D01*
X54600000Y-88000000D02*
X54600000Y-87725000D01*
D55*
%TO.N,OUT_GND*%
X100739500Y-125098500D02*
X100739500Y-136779500D01*
D57*
X112900000Y-113753000D02*
X112003000Y-113753000D01*
X112003000Y-113753000D02*
X111900000Y-113650000D01*
D55*
X100739500Y-136779500D02*
X101860000Y-137900000D01*
D57*
X110150000Y-107650000D02*
X110150000Y-106212500D01*
X107625000Y-114775000D02*
X107750000Y-114900000D01*
X107625000Y-112900000D02*
X107625000Y-114775000D01*
%TO.N,Net-(D5-K)*%
X110550000Y-114900000D02*
X110550000Y-113300000D01*
X112900000Y-115075000D02*
X110725000Y-115075000D01*
X110725000Y-115075000D02*
X110550000Y-114900000D01*
X110150000Y-112900000D02*
X109175000Y-112900000D01*
X109225000Y-112850000D02*
X109175000Y-112900000D01*
X110550000Y-113300000D02*
X110150000Y-112900000D01*
X109225000Y-111400000D02*
X109225000Y-112850000D01*
%TO.N,Net-(U1-SS)*%
X57775000Y-83590000D02*
X58300000Y-83590000D01*
X57775000Y-81840000D02*
X57775000Y-83590000D01*
%TO.N,Net-(D4-K)*%
X72100000Y-79800000D02*
X70500000Y-78200000D01*
X55600000Y-78200000D02*
X47449000Y-86351000D01*
X47449000Y-86351000D02*
X44330000Y-86351000D01*
X70500000Y-78200000D02*
X55600000Y-78200000D01*
X67800000Y-81925000D02*
X69791000Y-81925000D01*
X69791000Y-81925000D02*
X70766000Y-82900000D01*
D58*
%TO.N,Net-(C11-Pad1)*%
X78900000Y-28900000D02*
X78900000Y-33900000D01*
X56900000Y-26400000D02*
X76400000Y-26400000D01*
X76400000Y-26400000D02*
X78900000Y-28900000D01*
D57*
%TO.N,Net-(U1-OVP)*%
X63250000Y-84860000D02*
X64622500Y-84860000D01*
X64622500Y-84860000D02*
X64825000Y-84657500D01*
X64825000Y-84657500D02*
X64825000Y-82325000D01*
X64825000Y-82325000D02*
X64340000Y-81840000D01*
X63650000Y-81840000D02*
X63650000Y-80340000D01*
X64340000Y-81840000D02*
X63650000Y-81840000D01*
%TO.N,Net-(C15-Pad1)*%
X111450000Y-111467000D02*
X112402000Y-110515000D01*
X112402000Y-110515000D02*
X112770000Y-110515000D01*
X110624000Y-111467000D02*
X111450000Y-111467000D01*
D56*
%TO.N,/PS/24V_F*%
X108351000Y-116725000D02*
X106179000Y-118897000D01*
D57*
X114400000Y-116725000D02*
X112900000Y-116725000D01*
D56*
X112900000Y-116725000D02*
X108351000Y-116725000D01*
D57*
%TO.N,Net-(R12-Pad1)*%
X107575000Y-109900000D02*
X107575000Y-108575000D01*
X107575000Y-108575000D02*
X106005000Y-107005000D01*
X107575000Y-111400000D02*
X107575000Y-109900000D01*
X106005000Y-107005000D02*
X105725000Y-107005000D01*
D55*
%TO.N,Net-(C28-Pad1)*%
X74317000Y-126136000D02*
X74317000Y-122087000D01*
X74317000Y-122087000D02*
X74302000Y-122072000D01*
D56*
%TO.N,Net-(R16-Pad1)*%
X114400000Y-115075000D02*
X114400000Y-113753000D01*
D57*
%TO.N,Net-(D3-K)*%
X65100000Y-81250000D02*
X66100000Y-82250000D01*
X65100000Y-79600000D02*
X65100000Y-81250000D01*
X70500000Y-80900000D02*
X68700000Y-79100000D01*
X65600000Y-79100000D02*
X65100000Y-79600000D01*
X76300000Y-80900000D02*
X70500000Y-80900000D01*
X68700000Y-79100000D02*
X65600000Y-79100000D01*
%TO.N,Net-(D3-A)*%
X66100000Y-80150000D02*
X67675000Y-80150000D01*
X67675000Y-80150000D02*
X67800000Y-80275000D01*
%TD*%
%TA.AperFunction,Conductor*%
%TO.N,OUT_GND*%
G36*
X104361971Y-132172381D02*
G01*
X104440618Y-132188024D01*
X104485308Y-132206535D01*
X104541626Y-132244166D01*
X104575833Y-132278373D01*
X104613462Y-132334688D01*
X104631976Y-132379387D01*
X104647617Y-132458019D01*
X104650000Y-132482210D01*
X104650000Y-139263525D01*
X104647617Y-139287716D01*
X104631976Y-139366348D01*
X104613461Y-139411048D01*
X104568916Y-139477714D01*
X104553495Y-139496504D01*
X103746504Y-140303495D01*
X103727714Y-140318916D01*
X103661048Y-140363461D01*
X103616348Y-140381976D01*
X103537716Y-140397617D01*
X103513525Y-140400000D01*
X96712211Y-140400000D01*
X96688020Y-140397617D01*
X96609387Y-140381976D01*
X96564689Y-140363462D01*
X96508373Y-140325833D01*
X96474166Y-140291626D01*
X96436535Y-140235308D01*
X96418024Y-140190618D01*
X96402381Y-140111971D01*
X96400000Y-140087789D01*
X96400000Y-135929474D01*
X96402381Y-135905293D01*
X96418025Y-135826643D01*
X96436536Y-135781955D01*
X96481088Y-135715278D01*
X96496499Y-135696500D01*
X99926500Y-132266499D01*
X99945278Y-132251088D01*
X100011955Y-132206536D01*
X100056643Y-132188025D01*
X100135292Y-132172381D01*
X100159475Y-132170000D01*
X104337789Y-132170000D01*
X104361971Y-132172381D01*
G37*
%TD.AperFunction*%
%TD*%
%TA.AperFunction,Conductor*%
%TO.N,/PS/24V_F*%
G36*
X106193707Y-117629381D02*
G01*
X106272354Y-117645024D01*
X106317046Y-117663537D01*
X106383714Y-117708083D01*
X106402504Y-117723504D01*
X107352495Y-118673495D01*
X107367916Y-118692285D01*
X107412461Y-118758951D01*
X107430976Y-118803651D01*
X107446617Y-118882283D01*
X107449000Y-118906474D01*
X107449000Y-125823789D01*
X107446617Y-125847980D01*
X107430976Y-125926612D01*
X107412462Y-125971311D01*
X107374836Y-126027623D01*
X107340623Y-126061836D01*
X107284311Y-126099462D01*
X107239612Y-126117976D01*
X107160980Y-126133617D01*
X107136789Y-126136000D01*
X102725014Y-126136000D01*
X102700823Y-126133617D01*
X102654028Y-126124309D01*
X102609330Y-126105795D01*
X102580009Y-126086204D01*
X102545796Y-126051991D01*
X102526204Y-126022669D01*
X102507691Y-125977975D01*
X102498381Y-125931169D01*
X102496000Y-125906986D01*
X102496000Y-124022999D01*
X102495999Y-124022995D01*
X102473165Y-123908197D01*
X102473164Y-123908196D01*
X102473164Y-123908195D01*
X102408132Y-123810868D01*
X102310805Y-123745836D01*
X102310804Y-123745835D01*
X102310803Y-123745835D01*
X102310802Y-123745834D01*
X102196004Y-123723000D01*
X102196000Y-123723000D01*
X101392456Y-123723000D01*
X101336162Y-123709485D01*
X101318563Y-123700518D01*
X101318562Y-123700517D01*
X101318559Y-123700516D01*
X101092743Y-123627144D01*
X100858227Y-123590000D01*
X100858222Y-123590000D01*
X100620778Y-123590000D01*
X100620773Y-123590000D01*
X100386257Y-123627144D01*
X100386254Y-123627144D01*
X100160440Y-123700516D01*
X100150821Y-123705417D01*
X100142837Y-123709485D01*
X100086544Y-123723000D01*
X99366995Y-123723000D01*
X97505803Y-123723000D01*
X97422836Y-123739503D01*
X97352500Y-123786500D01*
X97305503Y-123856836D01*
X97289000Y-123939803D01*
X97289000Y-128549000D01*
X96989000Y-128549000D01*
X93476264Y-128549000D01*
X93352000Y-128549000D01*
X91828000Y-127025000D01*
X91828000Y-120557474D01*
X91830381Y-120533293D01*
X91846025Y-120454643D01*
X91864536Y-120409955D01*
X91909088Y-120343278D01*
X91924499Y-120324500D01*
X94525500Y-117723499D01*
X94544278Y-117708088D01*
X94610955Y-117663536D01*
X94655643Y-117645025D01*
X94734292Y-117629381D01*
X94758475Y-117627000D01*
X106169525Y-117627000D01*
X106193707Y-117629381D01*
G37*
%TD.AperFunction*%
%TD*%
%TA.AperFunction,Conductor*%
%TO.N,/PS/AC_R_O*%
G36*
X108287707Y-52902381D02*
G01*
X108366354Y-52918024D01*
X108411046Y-52936537D01*
X108477714Y-52981083D01*
X108496504Y-52996504D01*
X110858181Y-55358181D01*
X110891666Y-55419504D01*
X110894500Y-55445862D01*
X110894500Y-67776000D01*
X110874815Y-67843039D01*
X110822011Y-67888794D01*
X110770500Y-67900000D01*
X101036475Y-67900000D01*
X101012284Y-67897617D01*
X100933651Y-67881976D01*
X100888951Y-67863461D01*
X100822285Y-67818916D01*
X100803495Y-67803495D01*
X99496504Y-66496504D01*
X99481083Y-66477714D01*
X99436538Y-66411048D01*
X99418024Y-66366354D01*
X99402381Y-66287707D01*
X99400000Y-66263525D01*
X99400000Y-53212210D01*
X99402381Y-53188029D01*
X99418025Y-53109379D01*
X99436534Y-53064693D01*
X99474168Y-53008370D01*
X99508370Y-52974168D01*
X99564693Y-52936534D01*
X99609381Y-52918024D01*
X99660377Y-52907881D01*
X99684560Y-52905500D01*
X107087775Y-52905500D01*
X107087789Y-52905500D01*
X107196690Y-52900149D01*
X107202775Y-52900000D01*
X108263525Y-52900000D01*
X108287707Y-52902381D01*
G37*
%TD.AperFunction*%
%TD*%
%TA.AperFunction,Conductor*%
%TO.N,GND_DC_S*%
G36*
X61602678Y-81295614D02*
G01*
X61671351Y-81317013D01*
X61742735Y-81323500D01*
X61843150Y-81323499D01*
X61910187Y-81343183D01*
X61912001Y-81344371D01*
X61941623Y-81364164D01*
X61975834Y-81398375D01*
X62013461Y-81454687D01*
X62031976Y-81499387D01*
X62047617Y-81578019D01*
X62050000Y-81602210D01*
X62050000Y-82832377D01*
X62030315Y-82899416D01*
X62013681Y-82920058D01*
X61900551Y-83033187D01*
X61900544Y-83033196D01*
X61815855Y-83176398D01*
X61815853Y-83176403D01*
X61769438Y-83336164D01*
X61769437Y-83336170D01*
X61766500Y-83373492D01*
X61766500Y-83806507D01*
X61769437Y-83843829D01*
X61769438Y-83843835D01*
X61815853Y-84003596D01*
X61815855Y-84003601D01*
X61900547Y-84146808D01*
X61902249Y-84149002D01*
X61903047Y-84151034D01*
X61904518Y-84153522D01*
X61904116Y-84153759D01*
X61927783Y-84214039D01*
X61914101Y-84282556D01*
X61902249Y-84300998D01*
X61900547Y-84303191D01*
X61815855Y-84446398D01*
X61815853Y-84446403D01*
X61769438Y-84606164D01*
X61769437Y-84606170D01*
X61766500Y-84643492D01*
X61766500Y-85076507D01*
X61769437Y-85113829D01*
X61769438Y-85113835D01*
X61815853Y-85273596D01*
X61815856Y-85273604D01*
X61819412Y-85279616D01*
X61836593Y-85347340D01*
X61814433Y-85413602D01*
X61806394Y-85423936D01*
X61787702Y-85445507D01*
X61787701Y-85445509D01*
X61726987Y-85578451D01*
X61726986Y-85578455D01*
X61707301Y-85645494D01*
X61707300Y-85645498D01*
X61686500Y-85790168D01*
X61686500Y-86376000D01*
X61686501Y-86376009D01*
X61698235Y-86485151D01*
X61698237Y-86485163D01*
X61709443Y-86536673D01*
X61744106Y-86640820D01*
X61744109Y-86640826D01*
X61823128Y-86763781D01*
X61823134Y-86763788D01*
X61838588Y-86781624D01*
X61867612Y-86845180D01*
X61857667Y-86914338D01*
X61851607Y-86925945D01*
X61815854Y-86986400D01*
X61815853Y-86986403D01*
X61769438Y-87146164D01*
X61769437Y-87146170D01*
X61766500Y-87183492D01*
X61766500Y-87616507D01*
X61769437Y-87653829D01*
X61769438Y-87653835D01*
X61815853Y-87813596D01*
X61815855Y-87813601D01*
X61900544Y-87956803D01*
X61900546Y-87956806D01*
X61900547Y-87956807D01*
X62013682Y-88069942D01*
X62047166Y-88131263D01*
X62050000Y-88157622D01*
X62050000Y-90277789D01*
X62047617Y-90301980D01*
X62031976Y-90380612D01*
X62013462Y-90425311D01*
X61975836Y-90481623D01*
X61941623Y-90515836D01*
X61885311Y-90553462D01*
X61840612Y-90571976D01*
X61761980Y-90587617D01*
X61737789Y-90590000D01*
X52712211Y-90590000D01*
X52688020Y-90587617D01*
X52609387Y-90571976D01*
X52564689Y-90553462D01*
X52508373Y-90515833D01*
X52474166Y-90481626D01*
X52436535Y-90425308D01*
X52418024Y-90380618D01*
X52402381Y-90301971D01*
X52400000Y-90277789D01*
X52400000Y-87402210D01*
X52402381Y-87378029D01*
X52418025Y-87299379D01*
X52436534Y-87254693D01*
X52474168Y-87198370D01*
X52508370Y-87164168D01*
X52564693Y-87126534D01*
X52609379Y-87108025D01*
X52688028Y-87092381D01*
X52712211Y-87090000D01*
X53549928Y-87090000D01*
X53616967Y-87109685D01*
X53662722Y-87162489D01*
X53672666Y-87231647D01*
X53668314Y-87250889D01*
X53628697Y-87378029D01*
X53622987Y-87396352D01*
X53616500Y-87467737D01*
X53616500Y-87654383D01*
X53614347Y-87677391D01*
X53599384Y-87756632D01*
X53599018Y-87758491D01*
X53581235Y-87845366D01*
X53548506Y-87907096D01*
X53511439Y-87933214D01*
X53481542Y-87946922D01*
X53459666Y-87957586D01*
X53458765Y-87958052D01*
X53437046Y-87969953D01*
X53313309Y-88041677D01*
X53279770Y-88063214D01*
X53273978Y-88066934D01*
X53273170Y-88067506D01*
X53272231Y-88068171D01*
X53235267Y-88096980D01*
X53235228Y-88097012D01*
X53101834Y-88211141D01*
X53094122Y-88217227D01*
X53088752Y-88221129D01*
X53088739Y-88221141D01*
X53087274Y-88222768D01*
X53079180Y-88230919D01*
X53079198Y-88230938D01*
X53077727Y-88232295D01*
X53027077Y-88286337D01*
X53023067Y-88291663D01*
X53023060Y-88291657D01*
X53013148Y-88305094D01*
X52960961Y-88363054D01*
X52960957Y-88363059D01*
X52865473Y-88528443D01*
X52865470Y-88528450D01*
X52818748Y-88672247D01*
X52806458Y-88710072D01*
X52786496Y-88900000D01*
X52806458Y-89089928D01*
X52806459Y-89089931D01*
X52865470Y-89271549D01*
X52865473Y-89271556D01*
X52960960Y-89436944D01*
X53088747Y-89578866D01*
X53243248Y-89691118D01*
X53417712Y-89768794D01*
X53604513Y-89808500D01*
X53795487Y-89808500D01*
X53982288Y-89768794D01*
X54156752Y-89691118D01*
X54311253Y-89578866D01*
X54350897Y-89534836D01*
X54361255Y-89524608D01*
X54381229Y-89507081D01*
X54503012Y-89364736D01*
X54531831Y-89327758D01*
X54533063Y-89326019D01*
X54558320Y-89286688D01*
X54630048Y-89162943D01*
X54641808Y-89141493D01*
X54642321Y-89140502D01*
X54647850Y-89129164D01*
X54653069Y-89118466D01*
X54688970Y-89040166D01*
X54693324Y-89030669D01*
X54698742Y-89020200D01*
X54726807Y-88971779D01*
X54739857Y-88953365D01*
X54825609Y-88853138D01*
X54845272Y-88828500D01*
X54854495Y-88818184D01*
X55043077Y-88629602D01*
X55093864Y-88598900D01*
X55167913Y-88575827D01*
X55315155Y-88486816D01*
X55436816Y-88365155D01*
X55525827Y-88217913D01*
X55577013Y-88053649D01*
X55583500Y-87982265D01*
X55583499Y-87467736D01*
X55583499Y-87467735D01*
X55583499Y-87467727D01*
X55577014Y-87396354D01*
X55577011Y-87396344D01*
X55531687Y-87250890D01*
X55530536Y-87181030D01*
X55567336Y-87121637D01*
X55630405Y-87091570D01*
X55650072Y-87090000D01*
X59250001Y-87090000D01*
X59250002Y-87089999D01*
X59288612Y-87082319D01*
X59364802Y-87067165D01*
X59364802Y-87067164D01*
X59364805Y-87067164D01*
X59462132Y-87002132D01*
X59527164Y-86904805D01*
X59543591Y-86822220D01*
X59575974Y-86760313D01*
X59577471Y-86758788D01*
X59649453Y-86686807D01*
X59734145Y-86543601D01*
X59780562Y-86383831D01*
X59783500Y-86346502D01*
X59783500Y-85913498D01*
X59780562Y-85876169D01*
X59778039Y-85867485D01*
X59734146Y-85716403D01*
X59734145Y-85716399D01*
X59692212Y-85645494D01*
X59649456Y-85573197D01*
X59647755Y-85571005D01*
X59646956Y-85568970D01*
X59645482Y-85566478D01*
X59645883Y-85566240D01*
X59622217Y-85505970D01*
X59635894Y-85437452D01*
X59647755Y-85418995D01*
X59649449Y-85416810D01*
X59649453Y-85416807D01*
X59734145Y-85273601D01*
X59780562Y-85113831D01*
X59783500Y-85076502D01*
X59783500Y-84643498D01*
X59780562Y-84606169D01*
X59734145Y-84446399D01*
X59700967Y-84390298D01*
X59649456Y-84303197D01*
X59647755Y-84301005D01*
X59646956Y-84298970D01*
X59645482Y-84296478D01*
X59645883Y-84296240D01*
X59622217Y-84235970D01*
X59635894Y-84167452D01*
X59647755Y-84148995D01*
X59649449Y-84146810D01*
X59649453Y-84146807D01*
X59734145Y-84003601D01*
X59780562Y-83843831D01*
X59783500Y-83806502D01*
X59783500Y-83373498D01*
X59780562Y-83336169D01*
X59734145Y-83176399D01*
X59649453Y-83033193D01*
X59649451Y-83033191D01*
X59649448Y-83033187D01*
X59586319Y-82970058D01*
X59552834Y-82908735D01*
X59550000Y-82882377D01*
X59550000Y-81602210D01*
X59552381Y-81578029D01*
X59568025Y-81499379D01*
X59586534Y-81454693D01*
X59624168Y-81398370D01*
X59658370Y-81364168D01*
X59714693Y-81326534D01*
X59759379Y-81308025D01*
X59838028Y-81292381D01*
X59862211Y-81290000D01*
X61565789Y-81290000D01*
X61602678Y-81295614D01*
G37*
%TD.AperFunction*%
%TD*%
%TA.AperFunction,Conductor*%
%TO.N,/PS/24V_O*%
G36*
X90064707Y-112930381D02*
G01*
X90143354Y-112946024D01*
X90188046Y-112964537D01*
X90254714Y-113009083D01*
X90273504Y-113024504D01*
X91350495Y-114101495D01*
X91365916Y-114120285D01*
X91410461Y-114186951D01*
X91428976Y-114231651D01*
X91444617Y-114310283D01*
X91447000Y-114334474D01*
X91447000Y-120075978D01*
X91432358Y-120134432D01*
X91390125Y-120213441D01*
X91371617Y-120258121D01*
X91371615Y-120258129D01*
X91342391Y-120354467D01*
X91342390Y-120354471D01*
X91342390Y-120354472D01*
X91326742Y-120433144D01*
X91319356Y-120482944D01*
X91319347Y-120483015D01*
X91316973Y-120507131D01*
X91316970Y-120507164D01*
X91314500Y-120557484D01*
X91314500Y-130027137D01*
X91294815Y-130094176D01*
X91278181Y-130114818D01*
X88186819Y-133206180D01*
X88125496Y-133239665D01*
X88099138Y-133242499D01*
X79899487Y-133242499D01*
X79849151Y-133244971D01*
X79824969Y-133247352D01*
X79775150Y-133254741D01*
X79775129Y-133254744D01*
X79775115Y-133254747D01*
X79736151Y-133262497D01*
X79696473Y-133270389D01*
X79600119Y-133299618D01*
X79555441Y-133318125D01*
X79555434Y-133318128D01*
X79466681Y-133365569D01*
X79466668Y-133365577D01*
X79399998Y-133410124D01*
X79399992Y-133410128D01*
X79359526Y-133440139D01*
X79359503Y-133440157D01*
X79340754Y-133455544D01*
X79340725Y-133455569D01*
X79303396Y-133489403D01*
X79303392Y-133489408D01*
X78988408Y-133804392D01*
X78988403Y-133804396D01*
X78954569Y-133841725D01*
X78954544Y-133841754D01*
X78939157Y-133860503D01*
X78939139Y-133860526D01*
X78909128Y-133900992D01*
X78909124Y-133900998D01*
X78864577Y-133967668D01*
X78864569Y-133967681D01*
X78817128Y-134056434D01*
X78817125Y-134056441D01*
X78798617Y-134101121D01*
X78785396Y-134144703D01*
X78769391Y-134197467D01*
X78769390Y-134197471D01*
X78769390Y-134197472D01*
X78753742Y-134276144D01*
X78746356Y-134325944D01*
X78746347Y-134326015D01*
X78743973Y-134350131D01*
X78743970Y-134350164D01*
X78741500Y-134400484D01*
X78741500Y-134902000D01*
X78721815Y-134969039D01*
X78669011Y-135014794D01*
X78617500Y-135026000D01*
X78372915Y-135026000D01*
X78305876Y-135006315D01*
X78265528Y-134964000D01*
X78184046Y-134822869D01*
X78024390Y-134622666D01*
X78024389Y-134622665D01*
X78024386Y-134622661D01*
X77903448Y-134510448D01*
X77836678Y-134448495D01*
X77766259Y-134400484D01*
X77625108Y-134304248D01*
X77625097Y-134304241D01*
X77394399Y-134193144D01*
X77394380Y-134193137D01*
X77149707Y-134117666D01*
X77149697Y-134117663D01*
X76896500Y-134079500D01*
X76896493Y-134079500D01*
X76640425Y-134079500D01*
X76640417Y-134079500D01*
X76387220Y-134117663D01*
X76387214Y-134117665D01*
X76142520Y-134193143D01*
X75911821Y-134304241D01*
X75911820Y-134304242D01*
X75700239Y-134448495D01*
X75512531Y-134622661D01*
X75357857Y-134816618D01*
X75352872Y-134822869D01*
X75278415Y-134951833D01*
X75271390Y-134964000D01*
X75220823Y-135012216D01*
X75164003Y-135026000D01*
X47690211Y-135026000D01*
X47666020Y-135023617D01*
X47587387Y-135007976D01*
X47542689Y-134989462D01*
X47486373Y-134951833D01*
X47452166Y-134917626D01*
X47414535Y-134861308D01*
X47396024Y-134816618D01*
X47380381Y-134737971D01*
X47378000Y-134713789D01*
X47378000Y-130082474D01*
X47380381Y-130058293D01*
X47396025Y-129979643D01*
X47414536Y-129934955D01*
X47459088Y-129868278D01*
X47474499Y-129849500D01*
X48551500Y-128772499D01*
X48570278Y-128757088D01*
X48636955Y-128712536D01*
X48681643Y-128694025D01*
X48760292Y-128678381D01*
X48784475Y-128676000D01*
X75193737Y-128676000D01*
X75193738Y-128675999D01*
X75232348Y-128668319D01*
X75308538Y-128653165D01*
X75308539Y-128653164D01*
X75308541Y-128653164D01*
X75405868Y-128588132D01*
X76627132Y-127366868D01*
X76692164Y-127269541D01*
X76715000Y-127154736D01*
X76715000Y-125891474D01*
X76717381Y-125867293D01*
X76733025Y-125788643D01*
X76751536Y-125743955D01*
X76796088Y-125677278D01*
X76811499Y-125658500D01*
X79158500Y-123311499D01*
X79177278Y-123296088D01*
X79243955Y-123251536D01*
X79288643Y-123233025D01*
X79367292Y-123217381D01*
X79391475Y-123215000D01*
X80781737Y-123215000D01*
X80781738Y-123214999D01*
X80820348Y-123207319D01*
X80896538Y-123192165D01*
X80896539Y-123192164D01*
X80896541Y-123192164D01*
X80993868Y-123127132D01*
X81072132Y-123048868D01*
X81137164Y-122951541D01*
X81160000Y-122836736D01*
X81160000Y-119910264D01*
X81159794Y-119909230D01*
X81137165Y-119795461D01*
X81137163Y-119795457D01*
X81072135Y-119698136D01*
X81072129Y-119698128D01*
X80739871Y-119365870D01*
X80739863Y-119365864D01*
X80642542Y-119300836D01*
X80642538Y-119300834D01*
X80527740Y-119278000D01*
X80527736Y-119278000D01*
X79323386Y-119278000D01*
X79285068Y-119271931D01*
X79248274Y-119259976D01*
X79103618Y-119212973D01*
X78876488Y-119177000D01*
X78876483Y-119177000D01*
X78551517Y-119177000D01*
X78551512Y-119177000D01*
X78324381Y-119212973D01*
X78170850Y-119262859D01*
X78142931Y-119271931D01*
X78104614Y-119278000D01*
X77662211Y-119278000D01*
X77638020Y-119275617D01*
X77559387Y-119259976D01*
X77514689Y-119241462D01*
X77458373Y-119203833D01*
X77424166Y-119169626D01*
X77386535Y-119113308D01*
X77368024Y-119068618D01*
X77352381Y-118989971D01*
X77350000Y-118965789D01*
X77350000Y-118135000D01*
X82798372Y-118135000D01*
X82818854Y-118395249D01*
X82879796Y-118649089D01*
X82879797Y-118649091D01*
X82979696Y-118890271D01*
X83116095Y-119112853D01*
X83116098Y-119112858D01*
X83164583Y-119169626D01*
X83285637Y-119311363D01*
X83349450Y-119365864D01*
X83484141Y-119480901D01*
X83484146Y-119480904D01*
X83706728Y-119617303D01*
X83791998Y-119652622D01*
X83947911Y-119717204D01*
X84201751Y-119778146D01*
X84462000Y-119798628D01*
X84722249Y-119778146D01*
X84976089Y-119717204D01*
X85217271Y-119617303D01*
X85439856Y-119480903D01*
X85638363Y-119311363D01*
X85807903Y-119112856D01*
X85944303Y-118890271D01*
X86044204Y-118649089D01*
X86105146Y-118395249D01*
X86125628Y-118135000D01*
X86105146Y-117874751D01*
X86044204Y-117620911D01*
X85944303Y-117379729D01*
X85944303Y-117379728D01*
X85827503Y-117189128D01*
X85807903Y-117157144D01*
X85807902Y-117157143D01*
X85807901Y-117157141D01*
X85698465Y-117029008D01*
X85638363Y-116958637D01*
X85529839Y-116865949D01*
X85439858Y-116789098D01*
X85439853Y-116789095D01*
X85217271Y-116652696D01*
X84976091Y-116552797D01*
X84976089Y-116552796D01*
X84802445Y-116511107D01*
X84722250Y-116491854D01*
X84462000Y-116471372D01*
X84201749Y-116491854D01*
X84041357Y-116530361D01*
X83947911Y-116552796D01*
X83947909Y-116552796D01*
X83947908Y-116552797D01*
X83706728Y-116652696D01*
X83484146Y-116789095D01*
X83484141Y-116789098D01*
X83285637Y-116958637D01*
X83116098Y-117157141D01*
X83116095Y-117157146D01*
X82979696Y-117379728D01*
X82879797Y-117620908D01*
X82879796Y-117620911D01*
X82818854Y-117874751D01*
X82798372Y-118135000D01*
X77350000Y-118135000D01*
X77350000Y-117096047D01*
X77369685Y-117029008D01*
X77422489Y-116983253D01*
X77491647Y-116973309D01*
X77517332Y-116979865D01*
X77604799Y-117012489D01*
X77632050Y-117015418D01*
X77665345Y-117018999D01*
X77665362Y-117019000D01*
X79762638Y-117019000D01*
X79762654Y-117018999D01*
X79789692Y-117016091D01*
X79823201Y-117012489D01*
X79960204Y-116961389D01*
X80077261Y-116873761D01*
X80164889Y-116756704D01*
X80189148Y-116691662D01*
X80231018Y-116635733D01*
X80296482Y-116611316D01*
X80305328Y-116611000D01*
X80781737Y-116611000D01*
X80781738Y-116610999D01*
X80820348Y-116603319D01*
X80896538Y-116588165D01*
X80896539Y-116588164D01*
X80896541Y-116588164D01*
X80993868Y-116523132D01*
X81199132Y-116317868D01*
X81264164Y-116220541D01*
X81287000Y-116105736D01*
X81287000Y-113240210D01*
X81289381Y-113216029D01*
X81305025Y-113137379D01*
X81323534Y-113092693D01*
X81361168Y-113036370D01*
X81395370Y-113002168D01*
X81451693Y-112964534D01*
X81496379Y-112946025D01*
X81575028Y-112930381D01*
X81599211Y-112928000D01*
X90040525Y-112928000D01*
X90064707Y-112930381D01*
G37*
%TD.AperFunction*%
%TD*%
%TA.AperFunction,Conductor*%
%TO.N,/PS/24V_F*%
G36*
X99067000Y-124022995D02*
G01*
X99067000Y-131841525D01*
X99064617Y-131865716D01*
X99048976Y-131944348D01*
X99030461Y-131989048D01*
X98985916Y-132055714D01*
X98970495Y-132074504D01*
X95979870Y-135065128D01*
X95979864Y-135065136D01*
X95914836Y-135162457D01*
X95914834Y-135162461D01*
X95892000Y-135277259D01*
X95892000Y-135842303D01*
X95891403Y-135854453D01*
X95888973Y-135879131D01*
X95888970Y-135879164D01*
X95887656Y-135905930D01*
X95886500Y-135929474D01*
X95886500Y-140087789D01*
X95887982Y-140117979D01*
X95888971Y-140138114D01*
X95891403Y-140162809D01*
X95892000Y-140174958D01*
X95892000Y-140350525D01*
X95889617Y-140374716D01*
X95873976Y-140453348D01*
X95855461Y-140498048D01*
X95810916Y-140564714D01*
X95795495Y-140583504D01*
X95734504Y-140644495D01*
X95715714Y-140659916D01*
X95649048Y-140704461D01*
X95604348Y-140722976D01*
X95525716Y-140738617D01*
X95501525Y-140741000D01*
X79484014Y-140741000D01*
X79459823Y-140738617D01*
X79413028Y-140729309D01*
X79368330Y-140710795D01*
X79339009Y-140691204D01*
X79304796Y-140656991D01*
X79285204Y-140627669D01*
X79266691Y-140582975D01*
X79257381Y-140536169D01*
X79255000Y-140511986D01*
X79255000Y-134400474D01*
X79257381Y-134376293D01*
X79273025Y-134297643D01*
X79291536Y-134252955D01*
X79336088Y-134186278D01*
X79351499Y-134167500D01*
X79666500Y-133852499D01*
X79685278Y-133837088D01*
X79751955Y-133792536D01*
X79796643Y-133774025D01*
X79875292Y-133758381D01*
X79899475Y-133756000D01*
X88655737Y-133756000D01*
X88655738Y-133755999D01*
X88694348Y-133748319D01*
X88770538Y-133733165D01*
X88770539Y-133733164D01*
X88770541Y-133733164D01*
X88867868Y-133668132D01*
X91740132Y-130795868D01*
X91805164Y-130698541D01*
X91828000Y-130583736D01*
X91828000Y-127025000D01*
X93352000Y-128549000D01*
X97289000Y-128549000D01*
X97289000Y-123850000D01*
X97416000Y-123723000D01*
X99067000Y-123723000D01*
X99067000Y-124022995D01*
G37*
%TD.AperFunction*%
%TD*%
%TA.AperFunction,Conductor*%
%TO.N,GND_DC_P*%
G36*
X74611971Y-81802381D02*
G01*
X74690618Y-81818024D01*
X74735308Y-81836535D01*
X74791626Y-81874166D01*
X74825833Y-81908373D01*
X74863462Y-81964688D01*
X74881976Y-82009387D01*
X74897617Y-82088019D01*
X74900000Y-82112210D01*
X74900000Y-82800004D01*
X74922834Y-82914802D01*
X74922835Y-82914803D01*
X74922835Y-82914804D01*
X74922836Y-82914805D01*
X74987868Y-83012132D01*
X75085195Y-83077164D01*
X75085196Y-83077164D01*
X75085197Y-83077165D01*
X75199995Y-83099999D01*
X75199999Y-83100000D01*
X75200000Y-83100000D01*
X79951789Y-83100000D01*
X79975971Y-83102381D01*
X80054618Y-83118024D01*
X80099308Y-83136535D01*
X80155626Y-83174166D01*
X80189833Y-83208373D01*
X80227462Y-83264688D01*
X80245976Y-83309387D01*
X80261617Y-83388019D01*
X80264000Y-83412210D01*
X80264000Y-86695525D01*
X80261617Y-86719716D01*
X80245976Y-86798348D01*
X80227461Y-86843048D01*
X80182916Y-86909714D01*
X80167495Y-86928504D01*
X79233504Y-87862495D01*
X79214714Y-87877916D01*
X79148048Y-87922461D01*
X79103348Y-87940976D01*
X79024716Y-87956617D01*
X79000525Y-87959000D01*
X74548301Y-87959000D01*
X74453460Y-87978262D01*
X74373649Y-88033000D01*
X74373648Y-88033001D01*
X74314607Y-88073492D01*
X74269159Y-88092748D01*
X74211215Y-88104518D01*
X74186531Y-88107000D01*
X72013783Y-88107000D01*
X71946744Y-88087315D01*
X71900989Y-88034511D01*
X71895398Y-88019891D01*
X71876423Y-87959000D01*
X71875827Y-87957087D01*
X71786816Y-87809845D01*
X71786814Y-87809843D01*
X71786813Y-87809841D01*
X71665158Y-87688186D01*
X71580595Y-87637066D01*
X71517913Y-87599173D01*
X71353649Y-87547987D01*
X71353647Y-87547986D01*
X71353645Y-87547986D01*
X71303667Y-87543444D01*
X71282265Y-87541500D01*
X71282262Y-87541500D01*
X70767727Y-87541500D01*
X70696354Y-87547985D01*
X70696344Y-87547988D01*
X70532090Y-87599171D01*
X70384841Y-87688186D01*
X70384840Y-87688187D01*
X70287681Y-87785347D01*
X70226358Y-87818832D01*
X70156666Y-87813848D01*
X70112319Y-87785347D01*
X70015158Y-87688186D01*
X69930595Y-87637066D01*
X69867913Y-87599173D01*
X69703649Y-87547987D01*
X69703647Y-87547986D01*
X69703645Y-87547986D01*
X69653667Y-87543444D01*
X69632265Y-87541500D01*
X69632262Y-87541500D01*
X69117727Y-87541500D01*
X69046354Y-87547985D01*
X69046344Y-87547988D01*
X68882089Y-87599171D01*
X68841652Y-87623617D01*
X68777502Y-87641500D01*
X68735111Y-87641500D01*
X68708597Y-87638632D01*
X68701439Y-87637065D01*
X68701436Y-87637064D01*
X68677395Y-87635314D01*
X68668104Y-87634285D01*
X68656274Y-87632520D01*
X68647279Y-87630836D01*
X68633558Y-87627740D01*
X68624998Y-87625485D01*
X68608821Y-87620599D01*
X68600786Y-87617868D01*
X68569118Y-87605883D01*
X68569112Y-87605881D01*
X68530089Y-87594673D01*
X68472335Y-87558645D01*
X68465052Y-87550588D01*
X68459930Y-87545064D01*
X68454650Y-87539649D01*
X68085871Y-87170870D01*
X68085863Y-87170864D01*
X67988542Y-87105836D01*
X67988538Y-87105834D01*
X67873740Y-87083000D01*
X67873736Y-87083000D01*
X67502211Y-87083000D01*
X67478020Y-87080617D01*
X67399387Y-87064976D01*
X67354689Y-87046462D01*
X67298373Y-87008833D01*
X67264166Y-86974626D01*
X67226535Y-86918308D01*
X67208024Y-86873618D01*
X67192381Y-86794971D01*
X67190000Y-86770789D01*
X67190000Y-83412210D01*
X67192381Y-83388029D01*
X67208025Y-83309379D01*
X67226534Y-83264693D01*
X67264168Y-83208370D01*
X67298370Y-83174168D01*
X67354693Y-83136534D01*
X67399379Y-83118025D01*
X67478028Y-83102381D01*
X67502211Y-83100000D01*
X68987789Y-83100000D01*
X69011971Y-83102381D01*
X69090618Y-83118024D01*
X69135308Y-83136535D01*
X69191626Y-83174166D01*
X69225833Y-83208373D01*
X69263462Y-83264688D01*
X69281976Y-83309387D01*
X69298810Y-83394018D01*
X69298811Y-83394027D01*
X69322834Y-83514804D01*
X69322835Y-83514805D01*
X69322835Y-83514806D01*
X69322836Y-83514807D01*
X69387868Y-83612134D01*
X69485195Y-83677166D01*
X69485196Y-83677166D01*
X69485197Y-83677167D01*
X69553952Y-83690842D01*
X69600000Y-83700002D01*
X69664809Y-83700001D01*
X69731846Y-83719685D01*
X69755730Y-83740714D01*
X69755973Y-83740472D01*
X69759788Y-83744287D01*
X69759797Y-83744295D01*
X69759802Y-83744301D01*
X69914374Y-83898872D01*
X69921700Y-83906198D01*
X70109251Y-84037523D01*
X70234091Y-84095736D01*
X70316750Y-84134281D01*
X70316752Y-84134281D01*
X70316757Y-84134284D01*
X70537913Y-84193543D01*
X70700832Y-84207796D01*
X70765998Y-84213498D01*
X70766000Y-84213498D01*
X70766002Y-84213498D01*
X70823021Y-84208509D01*
X70994087Y-84193543D01*
X71215243Y-84134284D01*
X71422749Y-84037523D01*
X71610300Y-83906198D01*
X71772198Y-83744300D01*
X71775177Y-83740044D01*
X71829750Y-83696416D01*
X71852558Y-83689545D01*
X71914805Y-83677164D01*
X72012132Y-83612132D01*
X72077164Y-83514805D01*
X72100000Y-83400000D01*
X72100000Y-82112210D01*
X72102381Y-82088029D01*
X72118025Y-82009379D01*
X72136534Y-81964693D01*
X72174168Y-81908370D01*
X72208370Y-81874168D01*
X72264693Y-81836534D01*
X72309379Y-81818025D01*
X72388028Y-81802381D01*
X72412211Y-81800000D01*
X74587789Y-81800000D01*
X74611971Y-81802381D01*
G37*
%TD.AperFunction*%
%TD*%
%TA.AperFunction,Conductor*%
%TO.N,DCR_GND*%
G36*
X112150000Y-71400000D02*
G01*
X107650000Y-71400000D01*
X107650000Y-75950000D01*
X115100000Y-75950000D01*
X115600000Y-75450000D01*
X115600000Y-75574259D01*
X115600000Y-77206525D01*
X115597617Y-77230716D01*
X115581976Y-77309348D01*
X115563461Y-77354048D01*
X115518916Y-77420714D01*
X115503495Y-77439504D01*
X115177504Y-77765495D01*
X115158714Y-77780916D01*
X115092048Y-77825461D01*
X115047348Y-77843976D01*
X114968716Y-77859617D01*
X114944525Y-77862000D01*
X107812211Y-77862000D01*
X107788020Y-77859617D01*
X107709387Y-77843976D01*
X107664689Y-77825462D01*
X107608373Y-77787833D01*
X107574166Y-77753626D01*
X107536535Y-77697308D01*
X107518024Y-77652618D01*
X107502381Y-77573971D01*
X107500000Y-77549789D01*
X107500000Y-71612210D01*
X107502381Y-71588029D01*
X107518025Y-71509379D01*
X107536534Y-71464693D01*
X107574168Y-71408370D01*
X107608370Y-71374168D01*
X107664693Y-71336534D01*
X107709379Y-71318025D01*
X107788028Y-71302381D01*
X107812211Y-71300000D01*
X111850001Y-71300000D01*
X112150000Y-71300000D01*
X112150000Y-71400000D01*
G37*
%TD.AperFunction*%
%TD*%
%TA.AperFunction,Conductor*%
%TO.N,Net-(TR1-Pad10)*%
G36*
X58265971Y-121902381D02*
G01*
X58344618Y-121918024D01*
X58389308Y-121936535D01*
X58445626Y-121974166D01*
X58479833Y-122008373D01*
X58517462Y-122064688D01*
X58535976Y-122109387D01*
X58551617Y-122188019D01*
X58554000Y-122212210D01*
X58554000Y-127337789D01*
X58551617Y-127361980D01*
X58535976Y-127440612D01*
X58517462Y-127485311D01*
X58479836Y-127541623D01*
X58445623Y-127575836D01*
X58389311Y-127613462D01*
X58344612Y-127631976D01*
X58265980Y-127647617D01*
X58241789Y-127650000D01*
X48112211Y-127650000D01*
X48088020Y-127647617D01*
X48009387Y-127631976D01*
X47964689Y-127613462D01*
X47908373Y-127575833D01*
X47874166Y-127541626D01*
X47836535Y-127485308D01*
X47818024Y-127440618D01*
X47802381Y-127361971D01*
X47800000Y-127337789D01*
X47800000Y-122212210D01*
X47802381Y-122188029D01*
X47818025Y-122109379D01*
X47836534Y-122064693D01*
X47874168Y-122008370D01*
X47908370Y-121974168D01*
X47964693Y-121936534D01*
X48009379Y-121918025D01*
X48088028Y-121902381D01*
X48112211Y-121900000D01*
X58241789Y-121900000D01*
X58265971Y-121902381D01*
G37*
%TD.AperFunction*%
%TD*%
%TA.AperFunction,Conductor*%
%TO.N,/PS/AC_R_I_1*%
G36*
X104028134Y-42401752D02*
G01*
X104031837Y-42402381D01*
X104052307Y-42405859D01*
X104400000Y-42425385D01*
X104747693Y-42405859D01*
X104768554Y-42402314D01*
X104771866Y-42401752D01*
X104792637Y-42400000D01*
X107087789Y-42400000D01*
X107111971Y-42402381D01*
X107190618Y-42418024D01*
X107235308Y-42436535D01*
X107291626Y-42474166D01*
X107325833Y-42508373D01*
X107363462Y-42564688D01*
X107381976Y-42609387D01*
X107397617Y-42688019D01*
X107400000Y-42712210D01*
X107400000Y-46587789D01*
X107397617Y-46611980D01*
X107381976Y-46690612D01*
X107363462Y-46735311D01*
X107325836Y-46791623D01*
X107291623Y-46825836D01*
X107235311Y-46863462D01*
X107190612Y-46881976D01*
X107111980Y-46897617D01*
X107087789Y-46900000D01*
X106161317Y-46900000D01*
X106094278Y-46880315D01*
X106089562Y-46877130D01*
X106052164Y-46850595D01*
X105747374Y-46682144D01*
X105680741Y-46654544D01*
X105425644Y-46548879D01*
X105258328Y-46500676D01*
X105091017Y-46452474D01*
X105091009Y-46452472D01*
X104747700Y-46394142D01*
X104747688Y-46394140D01*
X104400000Y-46374615D01*
X104052311Y-46394140D01*
X104052299Y-46394142D01*
X103708990Y-46452472D01*
X103708982Y-46452474D01*
X103374359Y-46548878D01*
X103374356Y-46548879D01*
X103280419Y-46587789D01*
X103052625Y-46682144D01*
X102747835Y-46850595D01*
X102710438Y-46877130D01*
X102644372Y-46899869D01*
X102638683Y-46900000D01*
X95212211Y-46900000D01*
X95188020Y-46897617D01*
X95109387Y-46881976D01*
X95064689Y-46863462D01*
X95008373Y-46825833D01*
X94974166Y-46791626D01*
X94936535Y-46735308D01*
X94918024Y-46690618D01*
X94902381Y-46611971D01*
X94900000Y-46587789D01*
X94900000Y-42712210D01*
X94902381Y-42688029D01*
X94918025Y-42609379D01*
X94936534Y-42564693D01*
X94974168Y-42508370D01*
X95008370Y-42474168D01*
X95064693Y-42436534D01*
X95109379Y-42418025D01*
X95188028Y-42402381D01*
X95212211Y-42400000D01*
X104007363Y-42400000D01*
X104028134Y-42401752D01*
G37*
%TD.AperFunction*%
%TD*%
%TA.AperFunction,Conductor*%
%TO.N,/PS/AC_R_I_2*%
G36*
X93743967Y-47669685D02*
G01*
X93771380Y-47693659D01*
X93909601Y-47856157D01*
X93909609Y-47856166D01*
X93909617Y-47856175D01*
X93909625Y-47856183D01*
X93943818Y-47890377D01*
X93981987Y-47927224D01*
X93981992Y-47927229D01*
X94129576Y-48044057D01*
X94171964Y-48077612D01*
X94228280Y-48115241D01*
X94272916Y-48143941D01*
X94488573Y-48254368D01*
X94533271Y-48272882D01*
X94582624Y-48292313D01*
X94815680Y-48358549D01*
X94815695Y-48358552D01*
X94815699Y-48358553D01*
X94894308Y-48374189D01*
X94894313Y-48374190D01*
X95040431Y-48395865D01*
X95064622Y-48398248D01*
X95212211Y-48405500D01*
X95212225Y-48405500D01*
X102638667Y-48405500D01*
X102638683Y-48405500D01*
X102673341Y-48405101D01*
X102679030Y-48404970D01*
X102899638Y-48383570D01*
X103134335Y-48323409D01*
X103200401Y-48300670D01*
X103373399Y-48228801D01*
X103409007Y-48207622D01*
X103462272Y-48175943D01*
X103465678Y-48173989D01*
X103476071Y-48168244D01*
X103476072Y-48168245D01*
X103700785Y-48044049D01*
X103713292Y-48038027D01*
X103865940Y-47974799D01*
X103879065Y-47970206D01*
X104037826Y-47924468D01*
X104051377Y-47921374D01*
X104214280Y-47893695D01*
X104228077Y-47892141D01*
X104393051Y-47882877D01*
X104406941Y-47882877D01*
X104571924Y-47892141D01*
X104585723Y-47893695D01*
X104728333Y-47917926D01*
X104748602Y-47921370D01*
X104762158Y-47924464D01*
X104831622Y-47944476D01*
X104920942Y-47970209D01*
X104934045Y-47974794D01*
X105086708Y-48038028D01*
X105099221Y-48044054D01*
X105269481Y-48138154D01*
X105271145Y-48139090D01*
X105443895Y-48238082D01*
X105670118Y-48324828D01*
X105737157Y-48344513D01*
X105919818Y-48386004D01*
X106161317Y-48405500D01*
X106161326Y-48405500D01*
X107087775Y-48405500D01*
X107087789Y-48405500D01*
X107235378Y-48398248D01*
X107259569Y-48395865D01*
X107259635Y-48395855D01*
X107260757Y-48395717D01*
X107260876Y-48395736D01*
X107261085Y-48395716D01*
X107261090Y-48395771D01*
X107329708Y-48407012D01*
X107381607Y-48453791D01*
X107400000Y-48518777D01*
X107400000Y-51087789D01*
X107397617Y-51111980D01*
X107381976Y-51190612D01*
X107363462Y-51235311D01*
X107325836Y-51291623D01*
X107291623Y-51325836D01*
X107235311Y-51363462D01*
X107190612Y-51381976D01*
X107111980Y-51397617D01*
X107087789Y-51400000D01*
X96199995Y-51400000D01*
X96085197Y-51422834D01*
X96085196Y-51422835D01*
X95987868Y-51487868D01*
X95922835Y-51585196D01*
X95922834Y-51585197D01*
X95900000Y-51699995D01*
X95900000Y-57337789D01*
X95897617Y-57361980D01*
X95881976Y-57440612D01*
X95863462Y-57485311D01*
X95825836Y-57541623D01*
X95791623Y-57575836D01*
X95735311Y-57613462D01*
X95690612Y-57631976D01*
X95611980Y-57647617D01*
X95587789Y-57650000D01*
X75712211Y-57650000D01*
X75688020Y-57647617D01*
X75609387Y-57631976D01*
X75564689Y-57613462D01*
X75508373Y-57575833D01*
X75474166Y-57541626D01*
X75436535Y-57485308D01*
X75418024Y-57440618D01*
X75402381Y-57361971D01*
X75400000Y-57337789D01*
X75400000Y-47962210D01*
X75402381Y-47938029D01*
X75418025Y-47859379D01*
X75436534Y-47814693D01*
X75474168Y-47758370D01*
X75508370Y-47724168D01*
X75564693Y-47686534D01*
X75609379Y-47668025D01*
X75688028Y-47652381D01*
X75712211Y-47650000D01*
X93676928Y-47650000D01*
X93743967Y-47669685D01*
G37*
%TD.AperFunction*%
%TD*%
%TA.AperFunction,Conductor*%
%TO.N,Net-(C11-Pad1)*%
G36*
X100111971Y-29902381D02*
G01*
X100190618Y-29918024D01*
X100235308Y-29936535D01*
X100291626Y-29974166D01*
X100325833Y-30008373D01*
X100363462Y-30064688D01*
X100381976Y-30109387D01*
X100397617Y-30188019D01*
X100400000Y-30212210D01*
X100400000Y-40587789D01*
X100397617Y-40611980D01*
X100381976Y-40690612D01*
X100363462Y-40735311D01*
X100325836Y-40791623D01*
X100291623Y-40825836D01*
X100235311Y-40863462D01*
X100190612Y-40881976D01*
X100139629Y-40892117D01*
X100115440Y-40894500D01*
X95212211Y-40894500D01*
X95108679Y-40899584D01*
X95103244Y-40899851D01*
X95097163Y-40900000D01*
X76712211Y-40900000D01*
X76688020Y-40897617D01*
X76609387Y-40881976D01*
X76564689Y-40863462D01*
X76508373Y-40825833D01*
X76474166Y-40791626D01*
X76436535Y-40735308D01*
X76418024Y-40690618D01*
X76402381Y-40611971D01*
X76400000Y-40587789D01*
X76400000Y-30212210D01*
X76402381Y-30188029D01*
X76418025Y-30109379D01*
X76436534Y-30064693D01*
X76474168Y-30008370D01*
X76508370Y-29974168D01*
X76564693Y-29936534D01*
X76609379Y-29918025D01*
X76688028Y-29902381D01*
X76712211Y-29900000D01*
X100087789Y-29900000D01*
X100111971Y-29902381D01*
G37*
%TD.AperFunction*%
%TD*%
%TA.AperFunction,Conductor*%
%TO.N,/PS/AC_N*%
G36*
X71611971Y-49902381D02*
G01*
X71690618Y-49918024D01*
X71735308Y-49936535D01*
X71791626Y-49974166D01*
X71825833Y-50008373D01*
X71863462Y-50064688D01*
X71881976Y-50109387D01*
X71897617Y-50188019D01*
X71900000Y-50212210D01*
X71900000Y-56013525D01*
X71897617Y-56037716D01*
X71881976Y-56116348D01*
X71863461Y-56161048D01*
X71818916Y-56227714D01*
X71803495Y-56246504D01*
X53746504Y-74303495D01*
X53727714Y-74318916D01*
X53661048Y-74363461D01*
X53616348Y-74381976D01*
X53537716Y-74397617D01*
X53513525Y-74400000D01*
X35212211Y-74400000D01*
X35188020Y-74397617D01*
X35109387Y-74381976D01*
X35064689Y-74363462D01*
X35008373Y-74325833D01*
X34974166Y-74291626D01*
X34936535Y-74235308D01*
X34918024Y-74190618D01*
X34902381Y-74111971D01*
X34900000Y-74087789D01*
X34900000Y-68212210D01*
X34902381Y-68188029D01*
X34918025Y-68109379D01*
X34936534Y-68064693D01*
X34974168Y-68008370D01*
X35008370Y-67974168D01*
X35064693Y-67936534D01*
X35109379Y-67918025D01*
X35188028Y-67902381D01*
X35212211Y-67900000D01*
X45350001Y-67900000D01*
X45350002Y-67899999D01*
X45388612Y-67892319D01*
X45464802Y-67877165D01*
X45464802Y-67877164D01*
X45464805Y-67877164D01*
X45562132Y-67812132D01*
X45627164Y-67714805D01*
X45650000Y-67600000D01*
X45650000Y-60462210D01*
X45652381Y-60438029D01*
X45668025Y-60359379D01*
X45686534Y-60314693D01*
X45724168Y-60258370D01*
X45758370Y-60224168D01*
X45814693Y-60186534D01*
X45859379Y-60168025D01*
X45938028Y-60152381D01*
X45962211Y-60150000D01*
X55600001Y-60150000D01*
X55600002Y-60149999D01*
X55638612Y-60142319D01*
X55714802Y-60127165D01*
X55714802Y-60127164D01*
X55714805Y-60127164D01*
X55812132Y-60062132D01*
X55877164Y-59964805D01*
X55900000Y-59850000D01*
X55900000Y-50212210D01*
X55902381Y-50188029D01*
X55918025Y-50109379D01*
X55936534Y-50064693D01*
X55974168Y-50008370D01*
X56008370Y-49974168D01*
X56064693Y-49936534D01*
X56109379Y-49918025D01*
X56188028Y-49902381D01*
X56212211Y-49900000D01*
X71587789Y-49900000D01*
X71611971Y-49902381D01*
G37*
%TD.AperFunction*%
%TD*%
%TA.AperFunction,Conductor*%
%TO.N,Net-(D8A-A)*%
G36*
X80772886Y-112820685D02*
G01*
X80818641Y-112873489D01*
X80828585Y-112942647D01*
X80824508Y-112960994D01*
X80801391Y-113037203D01*
X80801390Y-113037206D01*
X80785742Y-113115880D01*
X80778356Y-113165680D01*
X80778347Y-113165751D01*
X80775973Y-113189867D01*
X80775970Y-113189900D01*
X80773500Y-113240220D01*
X80773500Y-115965938D01*
X80753815Y-116032977D01*
X80737181Y-116053619D01*
X80729620Y-116061180D01*
X80668297Y-116094665D01*
X80641939Y-116097499D01*
X80305307Y-116097499D01*
X80287040Y-116097825D01*
X80281431Y-116098025D01*
X80278150Y-116098143D01*
X80262135Y-116099001D01*
X80259847Y-116099124D01*
X80117036Y-116130191D01*
X80051567Y-116154610D01*
X80051565Y-116154610D01*
X79923299Y-116224647D01*
X79819947Y-116327994D01*
X79819940Y-116328002D01*
X79778142Y-116383836D01*
X79778074Y-116383927D01*
X79778069Y-116383932D01*
X79746949Y-116440926D01*
X79697544Y-116490331D01*
X79638117Y-116505499D01*
X77737159Y-116505499D01*
X77698430Y-116499043D01*
X77698369Y-116499238D01*
X77696967Y-116498799D01*
X77696936Y-116498794D01*
X77696778Y-116498740D01*
X77644323Y-116482315D01*
X77644313Y-116482313D01*
X77618665Y-116475765D01*
X77618645Y-116475761D01*
X77564722Y-116465035D01*
X77418566Y-116465035D01*
X77368968Y-116472167D01*
X77349406Y-116474980D01*
X77349404Y-116474980D01*
X77349401Y-116474981D01*
X77209173Y-116516157D01*
X77209169Y-116516159D01*
X77086218Y-116595175D01*
X77086211Y-116595181D01*
X77033418Y-116640926D01*
X77033415Y-116640929D01*
X76937705Y-116751382D01*
X76937701Y-116751388D01*
X76876987Y-116884330D01*
X76876986Y-116884334D01*
X76857301Y-116951373D01*
X76857300Y-116951377D01*
X76836500Y-117096047D01*
X76836500Y-118135000D01*
X76836500Y-118965789D01*
X76837982Y-118995979D01*
X76838971Y-119016114D01*
X76841347Y-119040242D01*
X76841352Y-119040288D01*
X76841354Y-119040306D01*
X76841356Y-119040317D01*
X76848743Y-119090127D01*
X76848745Y-119090137D01*
X76864390Y-119168795D01*
X76882145Y-119227325D01*
X76893611Y-119265124D01*
X76893613Y-119265129D01*
X76893614Y-119265132D01*
X76912120Y-119309809D01*
X76912125Y-119309821D01*
X76959570Y-119398584D01*
X76959581Y-119398602D01*
X76997209Y-119454916D01*
X76997213Y-119454921D01*
X77047177Y-119515801D01*
X77061067Y-119532725D01*
X77061072Y-119532730D01*
X77095269Y-119566928D01*
X77095274Y-119566932D01*
X77173088Y-119630793D01*
X77227959Y-119667456D01*
X77229398Y-119668418D01*
X77229400Y-119668420D01*
X77229404Y-119668422D01*
X77318186Y-119715876D01*
X77362884Y-119734390D01*
X77459209Y-119763609D01*
X77537842Y-119779250D01*
X77587673Y-119786643D01*
X77587675Y-119786643D01*
X77587680Y-119786644D01*
X77595266Y-119787391D01*
X77611846Y-119789025D01*
X77611856Y-119789025D01*
X77611871Y-119789027D01*
X77662211Y-119791500D01*
X77662223Y-119791500D01*
X78104606Y-119791500D01*
X78104614Y-119791500D01*
X78184945Y-119785178D01*
X78223262Y-119779109D01*
X78287820Y-119763609D01*
X78301594Y-119760302D01*
X78301596Y-119760301D01*
X78301614Y-119760297D01*
X78435354Y-119716841D01*
X78454248Y-119712304D01*
X78582292Y-119692025D01*
X78601678Y-119690500D01*
X78826308Y-119690500D01*
X78845703Y-119692025D01*
X78973740Y-119712303D01*
X78992661Y-119716845D01*
X79126385Y-119760297D01*
X79204739Y-119779109D01*
X79243057Y-119785178D01*
X79323386Y-119791500D01*
X80387938Y-119791500D01*
X80454977Y-119811185D01*
X80475619Y-119827818D01*
X80610181Y-119962378D01*
X80643666Y-120023701D01*
X80646500Y-120050060D01*
X80646500Y-122577499D01*
X80626815Y-122644538D01*
X80574011Y-122690293D01*
X80522500Y-122701499D01*
X79391487Y-122701499D01*
X79341151Y-122703971D01*
X79316456Y-122706403D01*
X79304307Y-122707000D01*
X75949500Y-122707000D01*
X75882461Y-122687315D01*
X75836706Y-122634511D01*
X75825500Y-122583000D01*
X75825500Y-121968272D01*
X75788356Y-121733758D01*
X75714980Y-121507932D01*
X75607183Y-121296370D01*
X75593182Y-121277100D01*
X75571881Y-121228406D01*
X75549164Y-121114195D01*
X75484132Y-121016868D01*
X75386805Y-120951836D01*
X75386803Y-120951835D01*
X75386800Y-120951834D01*
X75330640Y-120940663D01*
X75281945Y-120919363D01*
X75240563Y-120889296D01*
X75232919Y-120883270D01*
X75191417Y-120847824D01*
X75162387Y-120830035D01*
X75144876Y-120819304D01*
X75136786Y-120813899D01*
X75092623Y-120781812D01*
X75043999Y-120757037D01*
X75035506Y-120752281D01*
X74988965Y-120723761D01*
X74938527Y-120702868D01*
X74929688Y-120698793D01*
X74881070Y-120674021D01*
X74881064Y-120674018D01*
X74881063Y-120674018D01*
X74881060Y-120674017D01*
X74881055Y-120674015D01*
X74829146Y-120657148D01*
X74820018Y-120653780D01*
X74803657Y-120647004D01*
X74769600Y-120632897D01*
X74769595Y-120632895D01*
X74769594Y-120632895D01*
X74769590Y-120632894D01*
X74716516Y-120620151D01*
X74707148Y-120617509D01*
X74655243Y-120600644D01*
X74615431Y-120594338D01*
X74601322Y-120592103D01*
X74591783Y-120590206D01*
X74574586Y-120586077D01*
X74538717Y-120577466D01*
X74538699Y-120577463D01*
X74484298Y-120573181D01*
X74474635Y-120572038D01*
X74420722Y-120563499D01*
X74420716Y-120563499D01*
X74366135Y-120563499D01*
X74356406Y-120563117D01*
X74302000Y-120558835D01*
X74247594Y-120563117D01*
X74237865Y-120563499D01*
X74183278Y-120563499D01*
X74141803Y-120570068D01*
X74129364Y-120572038D01*
X74119701Y-120573181D01*
X74065299Y-120577464D01*
X74065287Y-120577465D01*
X74012220Y-120590205D01*
X74002677Y-120592103D01*
X73948760Y-120600643D01*
X73948748Y-120600646D01*
X73896853Y-120617508D01*
X73887487Y-120620150D01*
X73845630Y-120630200D01*
X73834406Y-120632895D01*
X73834404Y-120632895D01*
X73834395Y-120632898D01*
X73783976Y-120653782D01*
X73774847Y-120657150D01*
X73722941Y-120674016D01*
X73722928Y-120674022D01*
X73674298Y-120698799D01*
X73665474Y-120702867D01*
X73634538Y-120715681D01*
X73615036Y-120723760D01*
X73568494Y-120752280D01*
X73560007Y-120757033D01*
X73511371Y-120781816D01*
X73467221Y-120813893D01*
X73459128Y-120819300D01*
X73412591Y-120847818D01*
X73412577Y-120847829D01*
X73371073Y-120883275D01*
X73363434Y-120889297D01*
X73341389Y-120905315D01*
X73275584Y-120928797D01*
X73268500Y-120929000D01*
X46705798Y-120929000D01*
X46622838Y-120945501D01*
X46622837Y-120945502D01*
X46552500Y-120992500D01*
X46505502Y-121062837D01*
X46505501Y-121062838D01*
X46489000Y-121145798D01*
X46489000Y-127347789D01*
X46486617Y-127371980D01*
X46470976Y-127450612D01*
X46452462Y-127495311D01*
X46414836Y-127551623D01*
X46380623Y-127585836D01*
X46324311Y-127623462D01*
X46279612Y-127641976D01*
X46200980Y-127657617D01*
X46176789Y-127660000D01*
X41213211Y-127660000D01*
X41189020Y-127657617D01*
X41110387Y-127641976D01*
X41065689Y-127623462D01*
X41009373Y-127585833D01*
X40975166Y-127551626D01*
X40937535Y-127495308D01*
X40919024Y-127450618D01*
X40903381Y-127371971D01*
X40901000Y-127347789D01*
X40901000Y-125007210D01*
X40901382Y-124997481D01*
X40910628Y-124880000D01*
X40901382Y-124762517D01*
X40901000Y-124752788D01*
X40901000Y-117382474D01*
X40903381Y-117358293D01*
X40919025Y-117279643D01*
X40937536Y-117234955D01*
X40982088Y-117168278D01*
X40997499Y-117149500D01*
X45249500Y-112897499D01*
X45268278Y-112882088D01*
X45334955Y-112837536D01*
X45379643Y-112819025D01*
X45458292Y-112803381D01*
X45482475Y-112801000D01*
X80705847Y-112801000D01*
X80772886Y-112820685D01*
G37*
%TD.AperFunction*%
%TD*%
%TA.AperFunction,Conductor*%
%TO.N,Net-(F1-Pad2)*%
G36*
X45111971Y-35902381D02*
G01*
X45190618Y-35918024D01*
X45235308Y-35936535D01*
X45291626Y-35974166D01*
X45325833Y-36008373D01*
X45363462Y-36064688D01*
X45381976Y-36109387D01*
X45397617Y-36188019D01*
X45400000Y-36212210D01*
X45400000Y-50747525D01*
X45397617Y-50771716D01*
X45381976Y-50850348D01*
X45363461Y-50895048D01*
X45318916Y-50961714D01*
X45303495Y-50980504D01*
X41980504Y-54303495D01*
X41961714Y-54318916D01*
X41895048Y-54363461D01*
X41850348Y-54381976D01*
X41771716Y-54397617D01*
X41747525Y-54400000D01*
X35212211Y-54400000D01*
X35188020Y-54397617D01*
X35109387Y-54381976D01*
X35064689Y-54363462D01*
X35008373Y-54325833D01*
X34974166Y-54291626D01*
X34936535Y-54235308D01*
X34918024Y-54190618D01*
X34902381Y-54111971D01*
X34900000Y-54087789D01*
X34900000Y-36212210D01*
X34902381Y-36188029D01*
X34918025Y-36109379D01*
X34936534Y-36064693D01*
X34974168Y-36008370D01*
X35008370Y-35974168D01*
X35064693Y-35936534D01*
X35109379Y-35918025D01*
X35188028Y-35902381D01*
X35212211Y-35900000D01*
X45087789Y-35900000D01*
X45111971Y-35902381D01*
G37*
%TD.AperFunction*%
%TD*%
%TA.AperFunction,Conductor*%
%TO.N,/PS/AC_L_SW*%
G36*
X72103971Y-30910381D02*
G01*
X72182618Y-30926024D01*
X72227308Y-30944535D01*
X72283626Y-30982166D01*
X72317833Y-31016373D01*
X72355462Y-31072688D01*
X72373976Y-31117387D01*
X72389617Y-31196019D01*
X72392000Y-31220210D01*
X72392000Y-39587789D01*
X72389617Y-39611980D01*
X72373976Y-39690612D01*
X72355462Y-39735311D01*
X72317836Y-39791623D01*
X72283623Y-39825836D01*
X72227311Y-39863462D01*
X72182612Y-39881976D01*
X72103980Y-39897617D01*
X72079789Y-39900000D01*
X53699995Y-39900000D01*
X53585197Y-39922834D01*
X53585196Y-39922835D01*
X53487868Y-39987868D01*
X53422835Y-40085196D01*
X53422834Y-40085197D01*
X53400000Y-40199995D01*
X53400000Y-58087789D01*
X53397617Y-58111980D01*
X53381976Y-58190612D01*
X53363462Y-58235311D01*
X53325836Y-58291623D01*
X53291623Y-58325836D01*
X53235311Y-58363462D01*
X53190612Y-58381976D01*
X53111980Y-58397617D01*
X53087789Y-58400000D01*
X47212211Y-58400000D01*
X47188020Y-58397617D01*
X47109387Y-58381976D01*
X47064689Y-58363462D01*
X47008373Y-58325833D01*
X46974166Y-58291626D01*
X46936535Y-58235308D01*
X46918024Y-58190618D01*
X46902381Y-58111971D01*
X46900000Y-58087789D01*
X46900000Y-35059602D01*
X46901478Y-35040514D01*
X46911244Y-34977827D01*
X46922856Y-34941463D01*
X46946885Y-34893405D01*
X46969008Y-34862299D01*
X47013300Y-34816872D01*
X47027677Y-34804242D01*
X52134672Y-30973995D01*
X52151518Y-30963362D01*
X52153450Y-30962349D01*
X52209975Y-30932733D01*
X52247659Y-30920171D01*
X52289184Y-30913433D01*
X52312802Y-30909601D01*
X52332663Y-30908000D01*
X72079789Y-30908000D01*
X72103971Y-30910381D01*
G37*
%TD.AperFunction*%
%TD*%
%TA.AperFunction,Conductor*%
%TO.N,DCR_GND*%
G36*
X107037707Y-35402381D02*
G01*
X107116354Y-35418024D01*
X107161046Y-35436537D01*
X107227714Y-35481083D01*
X107246504Y-35496504D01*
X116303495Y-44553495D01*
X116318916Y-44572285D01*
X116363461Y-44638951D01*
X116381976Y-44683651D01*
X116397617Y-44762283D01*
X116400000Y-44786474D01*
X116400000Y-74513525D01*
X116397617Y-74537716D01*
X116381976Y-74616348D01*
X116363461Y-74661048D01*
X116318916Y-74727714D01*
X116303495Y-74746504D01*
X115687870Y-75362128D01*
X115687864Y-75362136D01*
X115100000Y-75950000D01*
X114975736Y-75950000D01*
X107950000Y-75950000D01*
X107650000Y-75950000D01*
X107650000Y-71400000D01*
X111850000Y-71400000D01*
X111964805Y-71377164D01*
X112062132Y-71312132D01*
X112127164Y-71214805D01*
X112150000Y-71100000D01*
X112150000Y-45024264D01*
X112149794Y-45023230D01*
X112127165Y-44909461D01*
X112127163Y-44909457D01*
X112062135Y-44812136D01*
X112062129Y-44812128D01*
X108737871Y-41487870D01*
X108737863Y-41487864D01*
X108640542Y-41422836D01*
X108640538Y-41422834D01*
X108525740Y-41400000D01*
X108525736Y-41400000D01*
X108395544Y-41400000D01*
X108328505Y-41380315D01*
X108318580Y-41373224D01*
X108128049Y-41222397D01*
X108128045Y-41222394D01*
X108071727Y-41184763D01*
X108053468Y-41173023D01*
X108027091Y-41156062D01*
X107811447Y-41045639D01*
X107811440Y-41045636D01*
X107811432Y-41045632D01*
X107766742Y-41027121D01*
X107766741Y-41027120D01*
X107766713Y-41027109D01*
X107717371Y-41007683D01*
X107717360Y-41007680D01*
X107484312Y-40941449D01*
X107405682Y-40925808D01*
X107405668Y-40925806D01*
X107259508Y-40904127D01*
X107259489Y-40904125D01*
X107235317Y-40901745D01*
X107180960Y-40899075D01*
X107087789Y-40894500D01*
X104792637Y-40894500D01*
X104792630Y-40894500D01*
X104666106Y-40899825D01*
X104645319Y-40901579D01*
X104619158Y-40904898D01*
X104610508Y-40905689D01*
X104406952Y-40917121D01*
X104393046Y-40917121D01*
X104189490Y-40905689D01*
X104180839Y-40904898D01*
X104154676Y-40901579D01*
X104133893Y-40899825D01*
X104007370Y-40894500D01*
X104007363Y-40894500D01*
X102274000Y-40894500D01*
X102206961Y-40874815D01*
X102161206Y-40822011D01*
X102150000Y-40770500D01*
X102150000Y-35786474D01*
X102152381Y-35762293D01*
X102168025Y-35683643D01*
X102186536Y-35638955D01*
X102231088Y-35572278D01*
X102246499Y-35553500D01*
X102303500Y-35496499D01*
X102322278Y-35481088D01*
X102388955Y-35436536D01*
X102433643Y-35418025D01*
X102512292Y-35402381D01*
X102536475Y-35400000D01*
X107013525Y-35400000D01*
X107037707Y-35402381D01*
G37*
%TD.AperFunction*%
%TD*%
%TA.AperFunction,Conductor*%
%TO.N,/PS/AC_L*%
G36*
X44111971Y-57402381D02*
G01*
X44190618Y-57418024D01*
X44235308Y-57436535D01*
X44291626Y-57474166D01*
X44325833Y-57508373D01*
X44363462Y-57564688D01*
X44381976Y-57609387D01*
X44397617Y-57688019D01*
X44400000Y-57712210D01*
X44400000Y-59504843D01*
X44386372Y-59561359D01*
X44295622Y-59738586D01*
X44277130Y-59783232D01*
X44257688Y-59832614D01*
X44191452Y-60065676D01*
X44191451Y-60065680D01*
X44175803Y-60144348D01*
X44154127Y-60290494D01*
X44151746Y-60314675D01*
X44151746Y-60314683D01*
X44144500Y-60462210D01*
X44144500Y-60462223D01*
X44144500Y-65776000D01*
X44124815Y-65843039D01*
X44072011Y-65888794D01*
X44020500Y-65900000D01*
X35212211Y-65900000D01*
X35188020Y-65897617D01*
X35109387Y-65881976D01*
X35064689Y-65863462D01*
X35008373Y-65825833D01*
X34974166Y-65791626D01*
X34936535Y-65735308D01*
X34918024Y-65690618D01*
X34902381Y-65611971D01*
X34900000Y-65587789D01*
X34900000Y-57712210D01*
X34902381Y-57688029D01*
X34918025Y-57609379D01*
X34936534Y-57564693D01*
X34974168Y-57508370D01*
X35008370Y-57474168D01*
X35064693Y-57436534D01*
X35109379Y-57418025D01*
X35188028Y-57402381D01*
X35212211Y-57400000D01*
X44087789Y-57400000D01*
X44111971Y-57402381D01*
G37*
%TD.AperFunction*%
%TD*%
%TA.AperFunction,Conductor*%
%TO.N,/PS/TR_SW*%
G36*
X65611718Y-91652255D02*
G01*
X65717588Y-91672731D01*
X65766318Y-91675319D01*
X65769813Y-91675505D01*
X65782622Y-91676855D01*
X65858852Y-91688929D01*
X65931904Y-91700500D01*
X65931908Y-91700500D01*
X66168096Y-91700500D01*
X66233183Y-91690190D01*
X66317379Y-91676855D01*
X66330186Y-91675505D01*
X66330280Y-91675500D01*
X66382412Y-91672731D01*
X66488281Y-91652255D01*
X66511825Y-91650000D01*
X67688175Y-91650000D01*
X67711718Y-91652255D01*
X67817588Y-91672731D01*
X67869720Y-91675500D01*
X67869728Y-91675500D01*
X68430272Y-91675500D01*
X68430280Y-91675500D01*
X68482412Y-91672731D01*
X68542002Y-91661206D01*
X68588279Y-91652256D01*
X68611825Y-91650000D01*
X68685205Y-91650000D01*
X68730280Y-91658483D01*
X68759693Y-91669960D01*
X68759701Y-91669963D01*
X68994969Y-91719294D01*
X69094931Y-91725500D01*
X69655068Y-91725499D01*
X69755031Y-91719294D01*
X69990299Y-91669963D01*
X70019720Y-91658482D01*
X70064795Y-91650000D01*
X70335205Y-91650000D01*
X70380279Y-91658482D01*
X70409701Y-91669963D01*
X70551449Y-91699684D01*
X70613020Y-91732706D01*
X70646965Y-91793776D01*
X70650000Y-91821044D01*
X70650000Y-97400000D01*
X71168181Y-97918181D01*
X71201666Y-97979504D01*
X71204500Y-98005862D01*
X71204500Y-98376708D01*
X71204501Y-98376723D01*
X71214904Y-98508913D01*
X71214905Y-98508920D01*
X71269902Y-98727178D01*
X71269903Y-98727181D01*
X71362991Y-98932122D01*
X71362997Y-98932132D01*
X71491174Y-99117145D01*
X71491178Y-99117150D01*
X71491181Y-99117154D01*
X71650346Y-99276319D01*
X71650350Y-99276322D01*
X71650354Y-99276325D01*
X71789603Y-99372797D01*
X71835374Y-99404507D01*
X72040317Y-99497596D01*
X72040321Y-99497597D01*
X72258579Y-99552594D01*
X72258581Y-99552594D01*
X72258588Y-99552596D01*
X72390783Y-99563000D01*
X74519216Y-99562999D01*
X74651412Y-99552596D01*
X74869683Y-99497596D01*
X75074626Y-99404507D01*
X75259654Y-99276319D01*
X75418819Y-99117154D01*
X75547007Y-98932126D01*
X75640096Y-98727183D01*
X75640097Y-98727181D01*
X75642124Y-98722719D01*
X75687771Y-98669822D01*
X75754770Y-98650000D01*
X75900000Y-98650000D01*
X76863681Y-97686319D01*
X76925004Y-97652834D01*
X76951362Y-97650000D01*
X82026000Y-97650000D01*
X82093039Y-97669685D01*
X82138794Y-97722489D01*
X82150000Y-97774000D01*
X82150000Y-100592460D01*
X82130315Y-100659499D01*
X82077511Y-100705254D01*
X82025587Y-100716459D01*
X81942169Y-100716181D01*
X81942166Y-100716181D01*
X81872561Y-100722212D01*
X81872558Y-100722212D01*
X81872551Y-100722213D01*
X81740698Y-100740724D01*
X81688940Y-100755734D01*
X81631512Y-100772390D01*
X81622421Y-100774658D01*
X81537997Y-100792361D01*
X81512549Y-100795000D01*
X79487449Y-100795000D01*
X79462003Y-100792361D01*
X79439903Y-100787727D01*
X79420279Y-100781884D01*
X79310138Y-100738907D01*
X79302433Y-100735929D01*
X79085870Y-100674644D01*
X79085865Y-100674643D01*
X79060871Y-100669939D01*
X79040789Y-100666160D01*
X79040579Y-100666121D01*
X79032767Y-100664676D01*
X78898254Y-100652570D01*
X78808583Y-100644500D01*
X78808579Y-100644500D01*
X74823474Y-100644500D01*
X74756435Y-100624815D01*
X74747987Y-100618875D01*
X74729057Y-100604349D01*
X74729039Y-100604337D01*
X74478960Y-100459953D01*
X74478949Y-100459948D01*
X74212153Y-100349437D01*
X73933204Y-100274693D01*
X73646901Y-100237001D01*
X73646898Y-100237000D01*
X73646892Y-100237000D01*
X73263108Y-100237000D01*
X73263102Y-100237000D01*
X73263098Y-100237001D01*
X72976795Y-100274693D01*
X72697846Y-100349437D01*
X72431050Y-100459948D01*
X72431039Y-100459953D01*
X72180960Y-100604337D01*
X72180942Y-100604349D01*
X72162013Y-100618875D01*
X72096844Y-100644070D01*
X72086526Y-100644500D01*
X71773978Y-100644500D01*
X71730470Y-100645254D01*
X71730457Y-100645255D01*
X71507119Y-100673192D01*
X71507118Y-100673192D01*
X71455602Y-100684400D01*
X71286137Y-100733972D01*
X71082947Y-100830805D01*
X71082944Y-100830807D01*
X70900314Y-100962360D01*
X70847482Y-101008139D01*
X70816990Y-101035443D01*
X70816984Y-101035450D01*
X70666152Y-101202506D01*
X70666147Y-101202511D01*
X70547561Y-101393825D01*
X70477565Y-101571460D01*
X70434674Y-101626615D01*
X70368772Y-101649826D01*
X70362199Y-101650000D01*
X64451362Y-101650000D01*
X64384323Y-101630315D01*
X64363681Y-101613681D01*
X63436319Y-100686319D01*
X63402834Y-100624996D01*
X63400000Y-100598638D01*
X63400000Y-96398672D01*
X63419685Y-96331633D01*
X63451113Y-96298354D01*
X63513162Y-96253274D01*
X63733349Y-96046504D01*
X63925885Y-95813768D01*
X64087733Y-95558736D01*
X64216341Y-95285430D01*
X64309681Y-94998160D01*
X64366280Y-94701457D01*
X64366281Y-94701446D01*
X64385246Y-94400005D01*
X64385246Y-94399994D01*
X64366281Y-94098553D01*
X64366280Y-94098546D01*
X64366280Y-94098543D01*
X64309681Y-93801840D01*
X64216341Y-93514570D01*
X64087733Y-93241264D01*
X63925885Y-92986232D01*
X63733349Y-92753496D01*
X63513162Y-92546726D01*
X63513160Y-92546724D01*
X63451114Y-92501645D01*
X63408449Y-92446315D01*
X63400000Y-92401327D01*
X63400000Y-91774000D01*
X63419685Y-91706961D01*
X63472489Y-91661206D01*
X63524000Y-91650000D01*
X65588175Y-91650000D01*
X65611718Y-91652255D01*
G37*
%TD.AperFunction*%
%TD*%
%TA.AperFunction,Conductor*%
%TO.N,Net-(Q1-S)*%
G36*
X72501997Y-101909438D02*
G01*
X72697849Y-101990563D01*
X72976794Y-102065306D01*
X73263108Y-102103000D01*
X73263115Y-102103000D01*
X73646885Y-102103000D01*
X73646892Y-102103000D01*
X73933206Y-102065306D01*
X74212151Y-101990563D01*
X74408002Y-101909438D01*
X74455454Y-101900000D01*
X78808583Y-101900000D01*
X78853658Y-101908483D01*
X79070374Y-101993046D01*
X79070381Y-101993048D01*
X79070386Y-101993050D01*
X79313763Y-102044081D01*
X79417158Y-102050500D01*
X79417169Y-102050500D01*
X81582831Y-102050500D01*
X81582842Y-102050500D01*
X81686237Y-102044081D01*
X81929614Y-101993050D01*
X81980926Y-101973027D01*
X82050533Y-101966996D01*
X82112353Y-101999555D01*
X82146756Y-102060368D01*
X82150000Y-102088545D01*
X82150000Y-107026000D01*
X82130315Y-107093039D01*
X82077511Y-107138794D01*
X82026000Y-107150000D01*
X73751362Y-107150000D01*
X73684323Y-107130315D01*
X73663681Y-107113681D01*
X71686319Y-105136319D01*
X71652834Y-105074996D01*
X71650000Y-105048638D01*
X71650000Y-102024000D01*
X71669685Y-101956961D01*
X71722489Y-101911206D01*
X71774000Y-101900000D01*
X72454546Y-101900000D01*
X72501997Y-101909438D01*
G37*
%TD.AperFunction*%
%TD*%
%TA.AperFunction,Conductor*%
%TO.N,Net-(D3-K)*%
G36*
X66515677Y-82919685D02*
G01*
X66536319Y-82936319D01*
X66563681Y-82963681D01*
X66597166Y-83025004D01*
X66600000Y-83051362D01*
X66600000Y-87076000D01*
X66580315Y-87143039D01*
X66527511Y-87188794D01*
X66476000Y-87200000D01*
X65351362Y-87200000D01*
X65284323Y-87180315D01*
X65263681Y-87163681D01*
X64600000Y-86500000D01*
X62324000Y-86500000D01*
X62256961Y-86480315D01*
X62211206Y-86427511D01*
X62200000Y-86376000D01*
X62200000Y-85790168D01*
X62219685Y-85723129D01*
X62272489Y-85677374D01*
X62333728Y-85666550D01*
X62358498Y-85668500D01*
X64005200Y-85668500D01*
X64023944Y-85669925D01*
X64027843Y-85670521D01*
X64027847Y-85670521D01*
X64027850Y-85670522D01*
X64033892Y-85671044D01*
X64087745Y-85668624D01*
X64093309Y-85668500D01*
X64141496Y-85668500D01*
X64141502Y-85668500D01*
X64178831Y-85665562D01*
X64194394Y-85661040D01*
X64207264Y-85658035D01*
X64244724Y-85651374D01*
X64248543Y-85650759D01*
X64318122Y-85640709D01*
X64322061Y-85640206D01*
X64391235Y-85632520D01*
X64395289Y-85632138D01*
X64464305Y-85626770D01*
X64468367Y-85626522D01*
X64536618Y-85623490D01*
X64536626Y-85623489D01*
X64536632Y-85623489D01*
X64585758Y-85619211D01*
X64585790Y-85619585D01*
X64597855Y-85618500D01*
X64697206Y-85618500D01*
X64770476Y-85603925D01*
X64778231Y-85602383D01*
X64802423Y-85600000D01*
X65000000Y-85600000D01*
X65500000Y-85100000D01*
X65500000Y-85034626D01*
X65509439Y-84987173D01*
X65554351Y-84878746D01*
X65583500Y-84732206D01*
X65583500Y-83024000D01*
X65603185Y-82956961D01*
X65655989Y-82911206D01*
X65707500Y-82900000D01*
X66448638Y-82900000D01*
X66515677Y-82919685D01*
G37*
%TD.AperFunction*%
%TD*%
%TA.AperFunction,Conductor*%
%TO.N,GND_DC_P*%
G36*
X115843039Y-79219685D02*
G01*
X115888794Y-79272489D01*
X115900000Y-79324000D01*
X115900000Y-94848638D01*
X115880315Y-94915677D01*
X115863681Y-94936319D01*
X113936319Y-96863681D01*
X113874996Y-96897166D01*
X113848638Y-96900000D01*
X102799999Y-96900000D01*
X100836319Y-98863681D01*
X100774996Y-98897166D01*
X100748638Y-98900000D01*
X96799999Y-98900000D01*
X93600000Y-102099999D01*
X93600000Y-105848638D01*
X93580315Y-105915677D01*
X93563681Y-105936319D01*
X92294819Y-107205181D01*
X92233496Y-107238666D01*
X92207138Y-107241500D01*
X84324000Y-107241500D01*
X84256961Y-107221815D01*
X84211206Y-107169011D01*
X84200000Y-107117500D01*
X84200000Y-103551362D01*
X84219685Y-103484323D01*
X84236319Y-103463681D01*
X85563681Y-102136319D01*
X85625004Y-102102834D01*
X85651362Y-102100000D01*
X86400000Y-102100000D01*
X87300000Y-101200000D01*
X87300000Y-100644744D01*
X87300238Y-100637061D01*
X87300500Y-100632842D01*
X87300500Y-99950862D01*
X87320185Y-99883823D01*
X87336819Y-99863181D01*
X96663681Y-90536319D01*
X96725004Y-90502834D01*
X96751362Y-90500000D01*
X106700000Y-90500000D01*
X107400000Y-89800000D01*
X107400000Y-79351362D01*
X107419685Y-79284323D01*
X107436319Y-79263681D01*
X107463681Y-79236319D01*
X107525004Y-79202834D01*
X107551362Y-79200000D01*
X115776000Y-79200000D01*
X115843039Y-79219685D01*
G37*
%TD.AperFunction*%
%TD*%
%TA.AperFunction,Conductor*%
%TO.N,GND_DC_S*%
G36*
X97267752Y-100685495D02*
G01*
X98094312Y-101335805D01*
X98098696Y-101343614D01*
X98096273Y-101352234D01*
X98094312Y-101354195D01*
X97267752Y-102004504D01*
X97259132Y-102006927D01*
X97253316Y-102004530D01*
X97032510Y-101832072D01*
X97032511Y-101832072D01*
X97032509Y-101832071D01*
X96804475Y-101691501D01*
X96804474Y-101691500D01*
X96804470Y-101691498D01*
X96576444Y-101588468D01*
X96576446Y-101588468D01*
X96576440Y-101588466D01*
X96576430Y-101588463D01*
X96348409Y-101522965D01*
X96130648Y-101496260D01*
X96122853Y-101491852D01*
X96120372Y-101484647D01*
X96120372Y-101205352D01*
X96123799Y-101197079D01*
X96130645Y-101193740D01*
X96348406Y-101167034D01*
X96576440Y-101101533D01*
X96804475Y-100998498D01*
X97032509Y-100857928D01*
X97253316Y-100685468D01*
X97261946Y-100683077D01*
X97267752Y-100685495D01*
G37*
%TD.AperFunction*%
%TD*%
%TA.AperFunction,Conductor*%
%TO.N,Net-(R6-Pad1)*%
G36*
X85686568Y-83325359D02*
G01*
X86390925Y-83941192D01*
X86394898Y-83949217D01*
X86392032Y-83957701D01*
X86390925Y-83958808D01*
X85686568Y-84574640D01*
X85678084Y-84577506D01*
X85671717Y-84575093D01*
X85518463Y-84456776D01*
X85357600Y-84356583D01*
X85196732Y-84280388D01*
X85196726Y-84280386D01*
X85035869Y-84228194D01*
X84884680Y-84201696D01*
X84877123Y-84196893D01*
X84875000Y-84190172D01*
X84875000Y-83709827D01*
X84878427Y-83701554D01*
X84884678Y-83698303D01*
X85035865Y-83671806D01*
X85035867Y-83671805D01*
X85035869Y-83671805D01*
X85087936Y-83654911D01*
X85196731Y-83619612D01*
X85357597Y-83543418D01*
X85518463Y-83443224D01*
X85671718Y-83324905D01*
X85680360Y-83322563D01*
X85686568Y-83325359D01*
G37*
%TD.AperFunction*%
%TD*%
%TA.AperFunction,Conductor*%
%TO.N,Net-(R6-Pad1)*%
G36*
X83628282Y-83324906D02*
G01*
X83781536Y-83443224D01*
X83851390Y-83486732D01*
X83942398Y-83543416D01*
X83942401Y-83543417D01*
X83942402Y-83543418D01*
X84103268Y-83619612D01*
X84155339Y-83636506D01*
X84264129Y-83671805D01*
X84264133Y-83671805D01*
X84264134Y-83671806D01*
X84415320Y-83698303D01*
X84422877Y-83703106D01*
X84425000Y-83709827D01*
X84425000Y-84190172D01*
X84421573Y-84198445D01*
X84415320Y-84201696D01*
X84264129Y-84228194D01*
X84103272Y-84280386D01*
X84103266Y-84280388D01*
X83942398Y-84356583D01*
X83781535Y-84456776D01*
X83628282Y-84575093D01*
X83619639Y-84577436D01*
X83613431Y-84574640D01*
X83364029Y-84356583D01*
X82909073Y-83958807D01*
X82905101Y-83950783D01*
X82907967Y-83942299D01*
X82909074Y-83941192D01*
X83613432Y-83325358D01*
X83621915Y-83322493D01*
X83628282Y-83324906D01*
G37*
%TD.AperFunction*%
%TD*%
%TA.AperFunction,Conductor*%
%TO.N,Net-(R7-Pad1)*%
G36*
X80603320Y-80257980D02*
G01*
X80726021Y-80376047D01*
X80857016Y-80479070D01*
X80857023Y-80479074D01*
X80857024Y-80479075D01*
X80988004Y-80559068D01*
X80988007Y-80559069D01*
X80988010Y-80559071D01*
X81119005Y-80616047D01*
X81241236Y-80647728D01*
X81248384Y-80653121D01*
X81250000Y-80659054D01*
X81250000Y-81140945D01*
X81246573Y-81149218D01*
X81241236Y-81152271D01*
X81119004Y-81183952D01*
X80988004Y-81240930D01*
X80857024Y-81320923D01*
X80857019Y-81320927D01*
X80726016Y-81423956D01*
X80603322Y-81542018D01*
X80594985Y-81545285D01*
X80586912Y-81541835D01*
X80197472Y-81150000D01*
X79957196Y-80908246D01*
X79953795Y-80899964D01*
X79957196Y-80891753D01*
X80586913Y-80258163D01*
X80595174Y-80254712D01*
X80603320Y-80257980D01*
G37*
%TD.AperFunction*%
%TD*%
%TA.AperFunction,Conductor*%
%TO.N,Net-(R7-Pad1)*%
G36*
X82180132Y-80229984D02*
G01*
X82890771Y-80841202D01*
X82894809Y-80849194D01*
X82892012Y-80857701D01*
X82890843Y-80858880D01*
X82186277Y-81474894D01*
X82177793Y-81477760D01*
X82171803Y-81475627D01*
X82087250Y-81415606D01*
X82018463Y-81366776D01*
X81998354Y-81355501D01*
X81857611Y-81276589D01*
X81857603Y-81276585D01*
X81857597Y-81276582D01*
X81789932Y-81248738D01*
X81696735Y-81210388D01*
X81696720Y-81210383D01*
X81535863Y-81168192D01*
X81535866Y-81168192D01*
X81385385Y-81151174D01*
X81377550Y-81146839D01*
X81375000Y-81139548D01*
X81375000Y-80659280D01*
X81378427Y-80651007D01*
X81384034Y-80647887D01*
X81534522Y-80612703D01*
X81694045Y-80551406D01*
X81853567Y-80466110D01*
X82013090Y-80356813D01*
X82165003Y-80229875D01*
X82173547Y-80227201D01*
X82180132Y-80229984D01*
G37*
%TD.AperFunction*%
%TD*%
%TA.AperFunction,Conductor*%
%TO.N,/PS/AC_R_O*%
G36*
X86650721Y-79553427D02*
G01*
X86653110Y-79556882D01*
X86730000Y-79727045D01*
X86809997Y-79881057D01*
X86889992Y-80012041D01*
X86889996Y-80012046D01*
X86890000Y-80012053D01*
X86931004Y-80067393D01*
X86970003Y-80120029D01*
X86970005Y-80120031D01*
X87042191Y-80196680D01*
X87045369Y-80205052D01*
X87041922Y-80212999D01*
X86408248Y-80842802D01*
X86399964Y-80846204D01*
X86391752Y-80842802D01*
X85758077Y-80213000D01*
X85754625Y-80204738D01*
X85757808Y-80196681D01*
X85829993Y-80120031D01*
X85829995Y-80120029D01*
X85829999Y-80120024D01*
X85909999Y-80012053D01*
X85990000Y-79881059D01*
X86070000Y-79727041D01*
X86146890Y-79556881D01*
X86153420Y-79550754D01*
X86157552Y-79550000D01*
X86642448Y-79550000D01*
X86650721Y-79553427D01*
G37*
%TD.AperFunction*%
%TD*%
%TA.AperFunction,Conductor*%
%TO.N,Net-(Q1-G)*%
G36*
X72607747Y-89230844D02*
G01*
X72993711Y-89571837D01*
X72997642Y-89579883D01*
X72996753Y-89585130D01*
X72970007Y-89648895D01*
X72939997Y-89729439D01*
X72910002Y-89818949D01*
X72879999Y-89917477D01*
X72852387Y-90016444D01*
X72846862Y-90023492D01*
X72841117Y-90025000D01*
X72358883Y-90025000D01*
X72350610Y-90021573D01*
X72347613Y-90016444D01*
X72320000Y-89917477D01*
X72312500Y-89892847D01*
X72290000Y-89818957D01*
X72260000Y-89729435D01*
X72230000Y-89648914D01*
X72203246Y-89585131D01*
X72203206Y-89576176D01*
X72206286Y-89571838D01*
X72592253Y-89230843D01*
X72600722Y-89227934D01*
X72607747Y-89230844D01*
G37*
%TD.AperFunction*%
%TD*%
%TA.AperFunction,Conductor*%
%TO.N,Net-(Q1-G)*%
G36*
X72254074Y-88846348D02*
G01*
X72593758Y-89217096D01*
X72596820Y-89225511D01*
X72593758Y-89232904D01*
X72254074Y-89603651D01*
X72245958Y-89607436D01*
X72240831Y-89606498D01*
X72143765Y-89564818D01*
X72039081Y-89528866D01*
X72039059Y-89528859D01*
X71934396Y-89501912D01*
X71934388Y-89501910D01*
X71859046Y-89488989D01*
X71829692Y-89483955D01*
X71829689Y-89483954D01*
X71829685Y-89483954D01*
X71829677Y-89483953D01*
X71735703Y-89475915D01*
X71727752Y-89471796D01*
X71725000Y-89464258D01*
X71725000Y-88985741D01*
X71728427Y-88977468D01*
X71735701Y-88974084D01*
X71829692Y-88966044D01*
X71934385Y-88948089D01*
X71967329Y-88939606D01*
X72039059Y-88921139D01*
X72039065Y-88921137D01*
X72039077Y-88921134D01*
X72143770Y-88885179D01*
X72240831Y-88843500D01*
X72249785Y-88843386D01*
X72254074Y-88846348D01*
G37*
%TD.AperFunction*%
%TD*%
%TA.AperFunction,Conductor*%
%TO.N,Net-(Q1-G)*%
G36*
X71273865Y-89128427D02*
G01*
X71277019Y-89134190D01*
X71301952Y-89247682D01*
X71328899Y-89361340D01*
X71328910Y-89361385D01*
X71340043Y-89404628D01*
X71355867Y-89466088D01*
X71382825Y-89561788D01*
X71407572Y-89641375D01*
X71406756Y-89650293D01*
X71404304Y-89653476D01*
X71032904Y-89993758D01*
X71024489Y-89996820D01*
X71017096Y-89993758D01*
X70645695Y-89653476D01*
X70641910Y-89645360D01*
X70642426Y-89641379D01*
X70667179Y-89561770D01*
X70694134Y-89466077D01*
X70721089Y-89361385D01*
X70748044Y-89247692D01*
X70772981Y-89134188D01*
X70778103Y-89126844D01*
X70784408Y-89125000D01*
X71265592Y-89125000D01*
X71273865Y-89128427D01*
G37*
%TD.AperFunction*%
%TD*%
%TA.AperFunction,Conductor*%
%TO.N,Net-(D2-K)*%
G36*
X68991915Y-89693203D02*
G01*
X69367982Y-89993595D01*
X69372307Y-90001436D01*
X69370697Y-90008783D01*
X69104030Y-90450552D01*
X69096820Y-90455864D01*
X69088812Y-90454986D01*
X68993769Y-90407819D01*
X68889080Y-90370865D01*
X68784386Y-90348910D01*
X68784376Y-90348909D01*
X68679694Y-90341954D01*
X68679692Y-90341954D01*
X68587596Y-90349032D01*
X68579085Y-90346249D01*
X68575034Y-90338262D01*
X68575000Y-90337366D01*
X68575000Y-90057071D01*
X68578427Y-90048798D01*
X68581257Y-90046714D01*
X68656555Y-90007180D01*
X68738110Y-89949361D01*
X68819665Y-89876541D01*
X68901220Y-89788722D01*
X68975482Y-89695098D01*
X68983305Y-89690748D01*
X68991915Y-89693203D01*
G37*
%TD.AperFunction*%
%TD*%
%TA.AperFunction,Conductor*%
%TO.N,Net-(D1-A)*%
G36*
X68387361Y-88086141D02*
G01*
X68439441Y-88105851D01*
X68439446Y-88105852D01*
X68439450Y-88105854D01*
X68498319Y-88123635D01*
X68498327Y-88123637D01*
X68557209Y-88136923D01*
X68557208Y-88136923D01*
X68557217Y-88136924D01*
X68557220Y-88136925D01*
X68616110Y-88145712D01*
X68664151Y-88149210D01*
X68672152Y-88153227D01*
X68675000Y-88160878D01*
X68675000Y-88439120D01*
X68671573Y-88447393D01*
X68664150Y-88450789D01*
X68616119Y-88454286D01*
X68616114Y-88454286D01*
X68616110Y-88454287D01*
X68595595Y-88457348D01*
X68557209Y-88463075D01*
X68498327Y-88476361D01*
X68498319Y-88476363D01*
X68439450Y-88494144D01*
X68387361Y-88513858D01*
X68378411Y-88513581D01*
X68375231Y-88511462D01*
X68297836Y-88439120D01*
X68158142Y-88308545D01*
X68154439Y-88300395D01*
X68157585Y-88292011D01*
X68158129Y-88291466D01*
X68375232Y-88088536D01*
X68383615Y-88085391D01*
X68387361Y-88086141D01*
G37*
%TD.AperFunction*%
%TD*%
%TA.AperFunction,Conductor*%
%TO.N,/PS/TR_GAT*%
G36*
X64223315Y-87226400D02*
G01*
X64303182Y-87262392D01*
X64386355Y-87296875D01*
X64469528Y-87328357D01*
X64552701Y-87356840D01*
X64617269Y-87376622D01*
X64624176Y-87382322D01*
X64625029Y-87391236D01*
X64622115Y-87396082D01*
X64286058Y-87732139D01*
X64277785Y-87735566D01*
X64277051Y-87735543D01*
X64121080Y-87725733D01*
X64072841Y-87722700D01*
X64072831Y-87722699D01*
X64072823Y-87722699D01*
X63863364Y-87712525D01*
X63653909Y-87705349D01*
X63495489Y-87702192D01*
X63444396Y-87701174D01*
X63419577Y-87701034D01*
X63247118Y-87700068D01*
X63238865Y-87696595D01*
X63235484Y-87688302D01*
X63235495Y-87687850D01*
X63248848Y-87408599D01*
X63252665Y-87400502D01*
X63258464Y-87397645D01*
X64216440Y-87225551D01*
X64223315Y-87226400D01*
G37*
%TD.AperFunction*%
%TD*%
%TA.AperFunction,Conductor*%
%TO.N,EARTH*%
G36*
X45521773Y-25987014D02*
G01*
X45522298Y-25988114D01*
X45899136Y-26895513D01*
X45899145Y-26904467D01*
X45899136Y-26904487D01*
X45522298Y-27811885D01*
X45515960Y-27818212D01*
X45507006Y-27818203D01*
X45505906Y-27817678D01*
X45115268Y-27605374D01*
X45113396Y-27604108D01*
X44847235Y-27383887D01*
X44847102Y-27383775D01*
X44619879Y-27189985D01*
X44619871Y-27189980D01*
X44336205Y-27052342D01*
X43910306Y-27001236D01*
X43902500Y-26996848D01*
X43900000Y-26989619D01*
X43900000Y-26810380D01*
X43903427Y-26802107D01*
X43910305Y-26798763D01*
X44336203Y-26747657D01*
X44619876Y-26610016D01*
X44847179Y-26416158D01*
X45113401Y-26195885D01*
X45115262Y-26194626D01*
X45505907Y-25982320D01*
X45514811Y-25981381D01*
X45521773Y-25987014D01*
G37*
%TD.AperFunction*%
%TD*%
%TA.AperFunction,Conductor*%
%TO.N,EARTH*%
G36*
X38905704Y-26428032D02*
G01*
X39106300Y-26548340D01*
X39106305Y-26548342D01*
X39106309Y-26548344D01*
X39345081Y-26652844D01*
X39628286Y-26732108D01*
X39628290Y-26732109D01*
X39971676Y-26782405D01*
X40379785Y-26799529D01*
X40387906Y-26803300D01*
X40390993Y-26811219D01*
X40390993Y-26991062D01*
X40387566Y-26999335D01*
X40382370Y-27002350D01*
X40037565Y-27096327D01*
X40037564Y-27096327D01*
X39833011Y-27340042D01*
X39730660Y-27663246D01*
X39683838Y-27998016D01*
X39683839Y-27998017D01*
X39647570Y-28264001D01*
X39643057Y-28271735D01*
X39634396Y-28274013D01*
X39633512Y-28273857D01*
X37915908Y-27903644D01*
X37908542Y-27898551D01*
X37906936Y-27889742D01*
X37908673Y-27885665D01*
X38889991Y-26431520D01*
X38897457Y-26426581D01*
X38905704Y-26428032D01*
G37*
%TD.AperFunction*%
%TD*%
%TA.AperFunction,Conductor*%
%TO.N,EARTH*%
G36*
X40139292Y-26248260D02*
G01*
X40258905Y-26374004D01*
X40258911Y-26374010D01*
X40394445Y-26472725D01*
X40462214Y-26522085D01*
X40738279Y-26659463D01*
X41083311Y-26760610D01*
X41482935Y-26798984D01*
X41490842Y-26803185D01*
X41493516Y-26810629D01*
X41493516Y-26991089D01*
X41490089Y-26999362D01*
X41484927Y-27002368D01*
X41234525Y-27071425D01*
X41135161Y-27098828D01*
X41015415Y-27223449D01*
X40900353Y-27343195D01*
X40762119Y-27654927D01*
X40693486Y-27955847D01*
X40668873Y-28156461D01*
X40664464Y-28164255D01*
X40656134Y-28166682D01*
X37929230Y-27902923D01*
X37921325Y-27898715D01*
X37918710Y-27890151D01*
X37922918Y-27882246D01*
X37923352Y-27881905D01*
X40123838Y-26246932D01*
X40132522Y-26244749D01*
X40139292Y-26248260D01*
G37*
%TD.AperFunction*%
%TD*%
%TA.AperFunction,Conductor*%
%TO.N,EARTH*%
G36*
X46292993Y-25981796D02*
G01*
X46294093Y-25982321D01*
X46684729Y-26194623D01*
X46686601Y-26195889D01*
X46952763Y-26416111D01*
X46952896Y-26416223D01*
X47180123Y-26610016D01*
X47180126Y-26610017D01*
X47180127Y-26610018D01*
X47463793Y-26747656D01*
X47463794Y-26747656D01*
X47463796Y-26747657D01*
X47889694Y-26798763D01*
X47897500Y-26803151D01*
X47900000Y-26810380D01*
X47900000Y-26989619D01*
X47896573Y-26997892D01*
X47889694Y-27001236D01*
X47463793Y-27052342D01*
X47180127Y-27189980D01*
X47180119Y-27189985D01*
X46952896Y-27383775D01*
X46952763Y-27383887D01*
X46686601Y-27604108D01*
X46684729Y-27605374D01*
X46294093Y-27817678D01*
X46285188Y-27818618D01*
X46278226Y-27812985D01*
X46277705Y-27811893D01*
X45900862Y-26904485D01*
X45900854Y-26895535D01*
X46277702Y-25988112D01*
X46284039Y-25981787D01*
X46292993Y-25981796D01*
G37*
%TD.AperFunction*%
%TD*%
%TA.AperFunction,Conductor*%
%TO.N,EARTH*%
G36*
X51201179Y-25701292D02*
G01*
X51202254Y-25702241D01*
X51895458Y-26394466D01*
X51898891Y-26402737D01*
X51897996Y-26407232D01*
X51521805Y-27313072D01*
X51515467Y-27319399D01*
X51506513Y-27319390D01*
X51506510Y-27319389D01*
X51171342Y-27180115D01*
X50919173Y-27086031D01*
X50919153Y-27086026D01*
X50693716Y-27031443D01*
X50693710Y-27031442D01*
X50427854Y-27006161D01*
X50066016Y-27000189D01*
X50057800Y-26996626D01*
X50054509Y-26988491D01*
X50054509Y-26809919D01*
X50057936Y-26801646D01*
X50064293Y-26798377D01*
X50242791Y-26768783D01*
X50423888Y-26738758D01*
X50423890Y-26738757D01*
X50423891Y-26738757D01*
X50423891Y-26738756D01*
X50423893Y-26738756D01*
X50636523Y-26571991D01*
X50636526Y-26571989D01*
X50778310Y-26325131D01*
X50934646Y-26024558D01*
X50935787Y-26022781D01*
X51184761Y-25703326D01*
X51192547Y-25698909D01*
X51201179Y-25701292D01*
G37*
%TD.AperFunction*%
%TD*%
%TA.AperFunction,Conductor*%
%TO.N,/PS/AUX*%
G36*
X44577701Y-92270898D02*
G01*
X44581068Y-92277990D01*
X44625088Y-92711686D01*
X44625088Y-92711688D01*
X44625089Y-92711689D01*
X44745178Y-93028093D01*
X44916643Y-93281210D01*
X44917504Y-93282480D01*
X44917507Y-93282484D01*
X45118924Y-93540156D01*
X45119578Y-93541081D01*
X45320963Y-93857623D01*
X45322512Y-93866442D01*
X45317371Y-93873775D01*
X45316589Y-93874231D01*
X44332515Y-94398064D01*
X44323601Y-94398926D01*
X44321492Y-94398049D01*
X43342843Y-93873775D01*
X43338901Y-93871663D01*
X43333228Y-93864737D01*
X43334114Y-93855826D01*
X43334567Y-93855053D01*
X43536997Y-93539152D01*
X43537647Y-93538239D01*
X43740268Y-93281205D01*
X43913692Y-93027404D01*
X44034594Y-92711440D01*
X44078925Y-92277980D01*
X44083175Y-92270099D01*
X44090564Y-92267471D01*
X44569428Y-92267471D01*
X44577701Y-92270898D01*
G37*
%TD.AperFunction*%
%TD*%
%TA.AperFunction,Conductor*%
%TO.N,/PS/AUX*%
G36*
X61653739Y-79946941D02*
G01*
X61994155Y-80332253D01*
X61997065Y-80340722D01*
X61994155Y-80347747D01*
X61653739Y-80733058D01*
X61645693Y-80736989D01*
X61639442Y-80735622D01*
X61558096Y-80692005D01*
X61558081Y-80691998D01*
X61468582Y-80653007D01*
X61468575Y-80653004D01*
X61468567Y-80653001D01*
X61468564Y-80653000D01*
X61379042Y-80623000D01*
X61379038Y-80622999D01*
X61379035Y-80622998D01*
X61289513Y-80601998D01*
X61210146Y-80591359D01*
X61202401Y-80586864D01*
X61200000Y-80579763D01*
X61200000Y-80100236D01*
X61203427Y-80091963D01*
X61210146Y-80088640D01*
X61237671Y-80084950D01*
X61289521Y-80078000D01*
X61379042Y-80057000D01*
X61468564Y-80027000D01*
X61558085Y-79988000D01*
X61639444Y-79944376D01*
X61648353Y-79943487D01*
X61653739Y-79946941D01*
G37*
%TD.AperFunction*%
%TD*%
%TA.AperFunction,Conductor*%
%TO.N,Net-(U3-REF)*%
G36*
X110933058Y-104153494D02*
G01*
X111047799Y-104217494D01*
X111368685Y-104396478D01*
X111374241Y-104403501D01*
X111374674Y-104407222D01*
X111369999Y-104511025D01*
X111365000Y-104633978D01*
X111365001Y-104633979D01*
X111359998Y-104769018D01*
X111354998Y-104916015D01*
X111350356Y-105063668D01*
X111346671Y-105071829D01*
X111338662Y-105075000D01*
X110857351Y-105075000D01*
X110849078Y-105071573D01*
X110846810Y-105068377D01*
X110789014Y-104948380D01*
X110789012Y-104948375D01*
X110728024Y-104833751D01*
X110667037Y-104731127D01*
X110606049Y-104640503D01*
X110551124Y-104569694D01*
X110548761Y-104561057D01*
X110551760Y-104554600D01*
X110918752Y-104155789D01*
X110926874Y-104152023D01*
X110933058Y-104153494D01*
G37*
%TD.AperFunction*%
%TD*%
%TA.AperFunction,Conductor*%
%TO.N,Net-(U3-REF)*%
G36*
X111347728Y-107053427D02*
G01*
X111351092Y-107060488D01*
X111359998Y-107145981D01*
X111370002Y-107239020D01*
X111379996Y-107328978D01*
X111389996Y-107415977D01*
X111399579Y-107496469D01*
X111398385Y-107503166D01*
X111110424Y-108068051D01*
X111103613Y-108073865D01*
X111094686Y-108073161D01*
X111089576Y-108068051D01*
X110801614Y-107503166D01*
X110800420Y-107496469D01*
X110810003Y-107415977D01*
X110820003Y-107328978D01*
X110829997Y-107239020D01*
X110840001Y-107145981D01*
X110848907Y-107060488D01*
X110853173Y-107052614D01*
X110860544Y-107050000D01*
X111339455Y-107050000D01*
X111347728Y-107053427D01*
G37*
%TD.AperFunction*%
%TD*%
%TA.AperFunction,Conductor*%
%TO.N,Net-(U3-REF)*%
G36*
X111406500Y-107789233D02*
G01*
X111460000Y-107803500D01*
X111520000Y-107816500D01*
X111580000Y-107826499D01*
X111580013Y-107826500D01*
X111580016Y-107826501D01*
X111580024Y-107826502D01*
X111635370Y-107832958D01*
X111640000Y-107833499D01*
X111689079Y-107836771D01*
X111697105Y-107840741D01*
X111700000Y-107848445D01*
X111700000Y-108326554D01*
X111696573Y-108334827D01*
X111689078Y-108338228D01*
X111639996Y-108341500D01*
X111639983Y-108341501D01*
X111580024Y-108348496D01*
X111580016Y-108348497D01*
X111520001Y-108358498D01*
X111481878Y-108366758D01*
X111460000Y-108371499D01*
X111459991Y-108371501D01*
X111459979Y-108371504D01*
X111406505Y-108385765D01*
X111397628Y-108384586D01*
X111395231Y-108382747D01*
X111383951Y-108371504D01*
X111107313Y-108095785D01*
X111103873Y-108087519D01*
X111107285Y-108079241D01*
X111395232Y-107792251D01*
X111403509Y-107788839D01*
X111406500Y-107789233D01*
G37*
%TD.AperFunction*%
%TD*%
%TA.AperFunction,Conductor*%
%TO.N,Net-(U3-REF)*%
G36*
X114054074Y-111724348D02*
G01*
X114393758Y-112095096D01*
X114396820Y-112103511D01*
X114393758Y-112110904D01*
X114054074Y-112481651D01*
X114045958Y-112485436D01*
X114040831Y-112484498D01*
X113943765Y-112442818D01*
X113839081Y-112406866D01*
X113839059Y-112406859D01*
X113734396Y-112379912D01*
X113734388Y-112379910D01*
X113659046Y-112366989D01*
X113629692Y-112361955D01*
X113629689Y-112361954D01*
X113629685Y-112361954D01*
X113629677Y-112361953D01*
X113535703Y-112353915D01*
X113527752Y-112349796D01*
X113525000Y-112342258D01*
X113525000Y-111863741D01*
X113528427Y-111855468D01*
X113535701Y-111852084D01*
X113629692Y-111844044D01*
X113734385Y-111826089D01*
X113767329Y-111817606D01*
X113839059Y-111799139D01*
X113839065Y-111799137D01*
X113839077Y-111799134D01*
X113943770Y-111763179D01*
X114040831Y-111721500D01*
X114049785Y-111721386D01*
X114054074Y-111724348D01*
G37*
%TD.AperFunction*%
%TD*%
%TA.AperFunction,Conductor*%
%TO.N,Net-(U3-REF)*%
G36*
X113259168Y-111721501D02*
G01*
X113282727Y-111731617D01*
X113356229Y-111763179D01*
X113460922Y-111799134D01*
X113460928Y-111799135D01*
X113460939Y-111799139D01*
X113565602Y-111826086D01*
X113565614Y-111826089D01*
X113670307Y-111844044D01*
X113670317Y-111844044D01*
X113670318Y-111844045D01*
X113682190Y-111845060D01*
X113764297Y-111852084D01*
X113772248Y-111856203D01*
X113775000Y-111863741D01*
X113775000Y-112342258D01*
X113771573Y-112350531D01*
X113764297Y-112353915D01*
X113670321Y-112361953D01*
X113670313Y-112361954D01*
X113565610Y-112379910D01*
X113565602Y-112379912D01*
X113460939Y-112406859D01*
X113460917Y-112406866D01*
X113356233Y-112442818D01*
X113259168Y-112484498D01*
X113250214Y-112484613D01*
X113245925Y-112481651D01*
X112906240Y-112110902D01*
X112903179Y-112102489D01*
X112906240Y-112095097D01*
X113245926Y-111724347D01*
X113254041Y-111720563D01*
X113259168Y-111721501D01*
G37*
%TD.AperFunction*%
%TD*%
%TA.AperFunction,Conductor*%
%TO.N,Net-(U3-REF)*%
G36*
X114569208Y-109593427D02*
G01*
X114572264Y-109598777D01*
X114606576Y-109731789D01*
X114643142Y-109861534D01*
X114679725Y-109979342D01*
X114716303Y-110085130D01*
X114749704Y-110170771D01*
X114749518Y-110179724D01*
X114745993Y-110184253D01*
X114327189Y-110510401D01*
X114318556Y-110512781D01*
X114312811Y-110510401D01*
X113894006Y-110184253D01*
X113889584Y-110176466D01*
X113890294Y-110170773D01*
X113923701Y-110085116D01*
X113960276Y-109979337D01*
X113996850Y-109861558D01*
X114033425Y-109731779D01*
X114067736Y-109598777D01*
X114073121Y-109591623D01*
X114079065Y-109590000D01*
X114560935Y-109590000D01*
X114569208Y-109593427D01*
G37*
%TD.AperFunction*%
%TD*%
%TA.AperFunction,Conductor*%
%TO.N,Net-(U3-REF)*%
G36*
X114649390Y-111306427D02*
G01*
X114652387Y-111311556D01*
X114679999Y-111410520D01*
X114709999Y-111509038D01*
X114740001Y-111598567D01*
X114770007Y-111679102D01*
X114796753Y-111742868D01*
X114796793Y-111751822D01*
X114793711Y-111756161D01*
X114407747Y-112097155D01*
X114399278Y-112100065D01*
X114392253Y-112097155D01*
X114006288Y-111756161D01*
X114002357Y-111748115D01*
X114003246Y-111742867D01*
X114029996Y-111679093D01*
X114030000Y-111679084D01*
X114060000Y-111598563D01*
X114090000Y-111509042D01*
X114120000Y-111410521D01*
X114147613Y-111311556D01*
X114153138Y-111304508D01*
X114158883Y-111303000D01*
X114641117Y-111303000D01*
X114649390Y-111306427D01*
G37*
%TD.AperFunction*%
%TD*%
%TA.AperFunction,Conductor*%
%TO.N,Net-(U3-REF)*%
G36*
X114327058Y-110517937D02*
G01*
X114762431Y-110760778D01*
X114767987Y-110767801D01*
X114768168Y-110773468D01*
X114745994Y-110876023D01*
X114722000Y-110998999D01*
X114698001Y-111133985D01*
X114674002Y-111280986D01*
X114674000Y-111281000D01*
X114651502Y-111430047D01*
X114646880Y-111437715D01*
X114639934Y-111440000D01*
X114158198Y-111440000D01*
X114149925Y-111436573D01*
X114147201Y-111432294D01*
X114099800Y-111301782D01*
X114099795Y-111301768D01*
X114049591Y-111175536D01*
X113999387Y-111061305D01*
X113949183Y-110959073D01*
X113903664Y-110877263D01*
X113902637Y-110868369D01*
X113906348Y-110862631D01*
X114313819Y-110519208D01*
X114322353Y-110516497D01*
X114327058Y-110517937D01*
G37*
%TD.AperFunction*%
%TD*%
%TA.AperFunction,Conductor*%
%TO.N,/PS/MOS_S*%
G36*
X55744854Y-85699778D02*
G01*
X56070401Y-86117811D01*
X56072781Y-86126444D01*
X56070401Y-86132189D01*
X55744854Y-86550221D01*
X55737067Y-86554643D01*
X55730272Y-86553437D01*
X55621115Y-86497297D01*
X55621102Y-86497291D01*
X55503341Y-86448724D01*
X55479043Y-86441179D01*
X55385558Y-86412149D01*
X55385549Y-86412147D01*
X55385543Y-86412145D01*
X55267790Y-86387575D01*
X55267780Y-86387574D01*
X55160458Y-86376116D01*
X55152595Y-86371830D01*
X55150000Y-86364482D01*
X55150000Y-85885517D01*
X55153427Y-85877244D01*
X55160456Y-85873883D01*
X55267779Y-85862425D01*
X55267787Y-85862423D01*
X55267790Y-85862423D01*
X55349578Y-85845357D01*
X55385558Y-85837850D01*
X55503337Y-85801276D01*
X55574914Y-85771755D01*
X55621102Y-85752707D01*
X55621106Y-85752704D01*
X55621116Y-85752701D01*
X55730272Y-85696561D01*
X55739196Y-85695826D01*
X55744854Y-85699778D01*
G37*
%TD.AperFunction*%
%TD*%
%TA.AperFunction,Conductor*%
%TO.N,/PS/MOS_S*%
G36*
X54966327Y-85698968D02*
G01*
X55061780Y-85748889D01*
X55061807Y-85748902D01*
X55165086Y-85793918D01*
X55165096Y-85793922D01*
X55216742Y-85811933D01*
X55268394Y-85829946D01*
X55371697Y-85856973D01*
X55465311Y-85873309D01*
X55472872Y-85878107D01*
X55475000Y-85884835D01*
X55475000Y-86363493D01*
X55471573Y-86371766D01*
X55463495Y-86375191D01*
X55355008Y-86376998D01*
X55238647Y-86387664D01*
X55235000Y-86387999D01*
X55234994Y-86387999D01*
X55234994Y-86388000D01*
X55114997Y-86408000D01*
X54994990Y-86437002D01*
X54883248Y-86472387D01*
X54874326Y-86471618D01*
X54870086Y-86467878D01*
X54604381Y-86082799D01*
X54602503Y-86074043D01*
X54605508Y-86068117D01*
X54952406Y-85701296D01*
X54960579Y-85697641D01*
X54966327Y-85698968D01*
G37*
%TD.AperFunction*%
%TD*%
%TA.AperFunction,Conductor*%
%TO.N,/PS/MOS_S*%
G36*
X56419755Y-85696649D02*
G01*
X56528883Y-85753701D01*
X56646662Y-85803276D01*
X56764441Y-85840850D01*
X56882220Y-85866425D01*
X56882227Y-85866425D01*
X56882228Y-85866426D01*
X56890494Y-85867378D01*
X56989642Y-85878806D01*
X56997466Y-85883156D01*
X57000000Y-85890428D01*
X57000000Y-86369393D01*
X56996573Y-86377666D01*
X56989444Y-86381037D01*
X56882208Y-86391575D01*
X56882203Y-86391576D01*
X56764456Y-86415145D01*
X56764425Y-86415153D01*
X56646674Y-86450718D01*
X56646650Y-86450726D01*
X56528887Y-86498295D01*
X56528874Y-86498301D01*
X56419698Y-86553525D01*
X56410769Y-86554202D01*
X56405186Y-86550274D01*
X56079597Y-86132188D01*
X56077218Y-86123556D01*
X56079597Y-86117812D01*
X56405106Y-85699828D01*
X56412891Y-85695408D01*
X56419755Y-85696649D01*
G37*
%TD.AperFunction*%
%TD*%
%TA.AperFunction,Conductor*%
%TO.N,/PS/MOS_S*%
G36*
X57477948Y-85831070D02*
G01*
X58005470Y-86022664D01*
X58270721Y-86119003D01*
X58277327Y-86125048D01*
X58277724Y-86133994D01*
X58271679Y-86140600D01*
X58270721Y-86140997D01*
X57477950Y-86428928D01*
X57471908Y-86429450D01*
X57385017Y-86414001D01*
X57294980Y-86400996D01*
X57205019Y-86391001D01*
X57114980Y-86383998D01*
X57036180Y-86380496D01*
X57028068Y-86376706D01*
X57025000Y-86368808D01*
X57025000Y-85891191D01*
X57028427Y-85882918D01*
X57036180Y-85879503D01*
X57114980Y-85876000D01*
X57114983Y-85875999D01*
X57115000Y-85875999D01*
X57205000Y-85868999D01*
X57205015Y-85868997D01*
X57205019Y-85868997D01*
X57234987Y-85865667D01*
X57295000Y-85859000D01*
X57385000Y-85846000D01*
X57471910Y-85830549D01*
X57477948Y-85831070D01*
G37*
%TD.AperFunction*%
%TD*%
%TA.AperFunction,Conductor*%
%TO.N,/PS/OPT_C*%
G36*
X51747448Y-98103427D02*
G01*
X51750840Y-98110792D01*
X51765600Y-98300407D01*
X51765601Y-98300409D01*
X51802803Y-98440213D01*
X51802803Y-98440214D01*
X51847001Y-98559261D01*
X51847340Y-98560324D01*
X51884125Y-98698559D01*
X51884483Y-98700660D01*
X51899021Y-98887423D01*
X51896246Y-98895937D01*
X51888264Y-98899996D01*
X51887385Y-98900031D01*
X51500029Y-98900999D01*
X51499971Y-98900999D01*
X51112614Y-98900031D01*
X51104349Y-98896583D01*
X51100943Y-98888302D01*
X51100976Y-98887449D01*
X51115517Y-98700650D01*
X51115872Y-98698568D01*
X51152660Y-98560319D01*
X51152998Y-98559261D01*
X51197196Y-98440214D01*
X51197196Y-98440213D01*
X51197200Y-98440203D01*
X51234400Y-98300407D01*
X51249160Y-98110792D01*
X51253219Y-98102810D01*
X51260825Y-98100000D01*
X51739175Y-98100000D01*
X51747448Y-98103427D01*
G37*
%TD.AperFunction*%
%TD*%
%TA.AperFunction,Conductor*%
%TO.N,/PS/OPT_C*%
G36*
X57477948Y-84561070D02*
G01*
X58005470Y-84752664D01*
X58270721Y-84849003D01*
X58277327Y-84855048D01*
X58277724Y-84863994D01*
X58271679Y-84870600D01*
X58270721Y-84870997D01*
X57477950Y-85158928D01*
X57471908Y-85159450D01*
X57385017Y-85144001D01*
X57294980Y-85130996D01*
X57205019Y-85121001D01*
X57114980Y-85113998D01*
X57036180Y-85110496D01*
X57028068Y-85106706D01*
X57025000Y-85098808D01*
X57025000Y-84621191D01*
X57028427Y-84612918D01*
X57036180Y-84609503D01*
X57114980Y-84606000D01*
X57114983Y-84605999D01*
X57115000Y-84605999D01*
X57205000Y-84598999D01*
X57205015Y-84598997D01*
X57205019Y-84598997D01*
X57234987Y-84595667D01*
X57295000Y-84589000D01*
X57385000Y-84576000D01*
X57471910Y-84560549D01*
X57477948Y-84561070D01*
G37*
%TD.AperFunction*%
%TD*%
%TA.AperFunction,Conductor*%
%TO.N,/PS/OPT_C*%
G36*
X52769854Y-85699778D02*
G01*
X53095401Y-86117811D01*
X53097781Y-86126444D01*
X53095401Y-86132189D01*
X52769854Y-86550221D01*
X52762067Y-86554643D01*
X52755272Y-86553437D01*
X52646115Y-86497297D01*
X52646102Y-86497291D01*
X52528341Y-86448724D01*
X52504043Y-86441179D01*
X52410558Y-86412149D01*
X52410549Y-86412147D01*
X52410543Y-86412145D01*
X52292790Y-86387575D01*
X52292780Y-86387574D01*
X52185458Y-86376116D01*
X52177595Y-86371830D01*
X52175000Y-86364482D01*
X52175000Y-85885517D01*
X52178427Y-85877244D01*
X52185456Y-85873883D01*
X52292779Y-85862425D01*
X52292787Y-85862423D01*
X52292790Y-85862423D01*
X52374578Y-85845357D01*
X52410558Y-85837850D01*
X52528337Y-85801276D01*
X52599914Y-85771755D01*
X52646102Y-85752707D01*
X52646106Y-85752704D01*
X52646116Y-85752701D01*
X52755272Y-85696561D01*
X52764196Y-85695826D01*
X52769854Y-85699778D01*
G37*
%TD.AperFunction*%
%TD*%
%TA.AperFunction,Conductor*%
%TO.N,/PS/OPT_C*%
G36*
X52989135Y-85083069D02*
G01*
X53328282Y-85422216D01*
X53330690Y-85425714D01*
X53375421Y-85525773D01*
X53421034Y-85615804D01*
X53466647Y-85693834D01*
X53512259Y-85759863D01*
X53512274Y-85759883D01*
X53549497Y-85803974D01*
X53552215Y-85812506D01*
X53548104Y-85820461D01*
X53547136Y-85821196D01*
X53106544Y-86120776D01*
X53097775Y-86122594D01*
X53092525Y-86120131D01*
X52677425Y-85778115D01*
X52673219Y-85770209D01*
X52674510Y-85763640D01*
X52731314Y-85655687D01*
X52792550Y-85527313D01*
X52853785Y-85386939D01*
X52915021Y-85234565D01*
X52969899Y-85087256D01*
X52975997Y-85080701D01*
X52984946Y-85080378D01*
X52989135Y-85083069D01*
G37*
%TD.AperFunction*%
%TD*%
%TA.AperFunction,Conductor*%
%TO.N,Net-(U3-K)*%
G36*
X105733491Y-103891578D02*
G01*
X105734170Y-103892075D01*
X106553056Y-104537255D01*
X106557434Y-104545066D01*
X106555005Y-104553685D01*
X106549874Y-104557417D01*
X106522919Y-104567387D01*
X106476378Y-104593299D01*
X106429857Y-104627899D01*
X106429848Y-104627906D01*
X106429845Y-104627909D01*
X106383308Y-104671217D01*
X106336988Y-104722984D01*
X106336542Y-104723455D01*
X105990844Y-105069153D01*
X105982571Y-105072580D01*
X105975001Y-105069801D01*
X105974237Y-105069153D01*
X105824904Y-104942445D01*
X105824903Y-104942444D01*
X105824899Y-104942441D01*
X105666584Y-104834787D01*
X105666584Y-104834786D01*
X105508279Y-104753810D01*
X105508263Y-104753804D01*
X105349961Y-104699499D01*
X105209443Y-104674972D01*
X105201882Y-104670173D01*
X105199929Y-104661434D01*
X105201762Y-104656893D01*
X105717244Y-103894714D01*
X105724718Y-103889782D01*
X105733491Y-103891578D01*
G37*
%TD.AperFunction*%
%TD*%
%TA.AperFunction,Conductor*%
%TO.N,Net-(U3-K)*%
G36*
X109205314Y-108101838D02*
G01*
X109210424Y-108106948D01*
X109498385Y-108671833D01*
X109499579Y-108678530D01*
X109489996Y-108759023D01*
X109479996Y-108846022D01*
X109470001Y-108935979D01*
X109470002Y-108935980D01*
X109459998Y-109029019D01*
X109451092Y-109114512D01*
X109446826Y-109122386D01*
X109439455Y-109125000D01*
X108960544Y-109125000D01*
X108952271Y-109121573D01*
X108948907Y-109114512D01*
X108940001Y-109029019D01*
X108929997Y-108935980D01*
X108929997Y-108935979D01*
X108920003Y-108846022D01*
X108910003Y-108759023D01*
X108900420Y-108678530D01*
X108901614Y-108671833D01*
X109189576Y-108106948D01*
X109196387Y-108101134D01*
X109205314Y-108101838D01*
G37*
%TD.AperFunction*%
%TD*%
%TA.AperFunction,Conductor*%
%TO.N,Net-(U3-K)*%
G36*
X109449230Y-109028427D02*
G01*
X109452279Y-109033751D01*
X109481955Y-109147692D01*
X109513910Y-109261385D01*
X109513913Y-109261394D01*
X109513919Y-109261414D01*
X109545857Y-109366053D01*
X109577826Y-109461787D01*
X109607059Y-109541095D01*
X109606705Y-109550042D01*
X109603985Y-109553768D01*
X109232904Y-109893758D01*
X109224489Y-109896820D01*
X109217096Y-109893758D01*
X108845378Y-109553185D01*
X108841593Y-109545069D01*
X108841940Y-109541686D01*
X108842090Y-109541095D01*
X108862179Y-109461770D01*
X108884134Y-109366077D01*
X108906089Y-109261385D01*
X108928044Y-109147692D01*
X108948275Y-109034638D01*
X108953106Y-109027099D01*
X108959792Y-109025000D01*
X109440957Y-109025000D01*
X109449230Y-109028427D01*
G37*
%TD.AperFunction*%
%TD*%
%TA.AperFunction,Conductor*%
%TO.N,Net-(U3-K)*%
G36*
X109058187Y-103708440D02*
G01*
X109371080Y-104143165D01*
X109373132Y-104151882D01*
X109371080Y-104156835D01*
X109058187Y-104591559D01*
X109050573Y-104596272D01*
X109043017Y-104594956D01*
X108936688Y-104535998D01*
X108936678Y-104535993D01*
X108821270Y-104484000D01*
X108705853Y-104444002D01*
X108705845Y-104444000D01*
X108590422Y-104416000D01*
X108590419Y-104415999D01*
X108485093Y-104401399D01*
X108477369Y-104396869D01*
X108475000Y-104389810D01*
X108475000Y-103910189D01*
X108478427Y-103901916D01*
X108485090Y-103898601D01*
X108590422Y-103883999D01*
X108705845Y-103855999D01*
X108821267Y-103816000D01*
X108936690Y-103764000D01*
X109043018Y-103705042D01*
X109051914Y-103704028D01*
X109058187Y-103708440D01*
G37*
%TD.AperFunction*%
%TD*%
%TA.AperFunction,Conductor*%
%TO.N,Net-(U3-K)*%
G36*
X106576785Y-103226585D02*
G01*
X106788466Y-103421859D01*
X106893392Y-103502842D01*
X107007473Y-103590892D01*
X107226482Y-103726926D01*
X107226487Y-103726929D01*
X107445498Y-103829964D01*
X107656373Y-103897398D01*
X107663209Y-103903182D01*
X107664509Y-103908542D01*
X107664509Y-104387778D01*
X107661082Y-104396051D01*
X107652809Y-104399478D01*
X107652299Y-104399467D01*
X107387825Y-104387925D01*
X107387817Y-104387925D01*
X107111137Y-104408850D01*
X107111136Y-104408850D01*
X107111134Y-104408851D01*
X106834446Y-104462776D01*
X106557760Y-104549701D01*
X106557750Y-104549705D01*
X106289774Y-104665856D01*
X106280820Y-104666002D01*
X106275581Y-104661894D01*
X105736909Y-103903182D01*
X105730446Y-103894080D01*
X105728452Y-103885352D01*
X105732752Y-103878113D01*
X106561619Y-103225989D01*
X106570238Y-103223567D01*
X106576785Y-103226585D01*
G37*
%TD.AperFunction*%
%TD*%
%TA.AperFunction,Conductor*%
%TO.N,Net-(U3-K)*%
G36*
X110250256Y-109457429D02*
G01*
X110617816Y-109810107D01*
X110621414Y-109818307D01*
X110619346Y-109825194D01*
X110353657Y-110210249D01*
X110346138Y-110215112D01*
X110341065Y-110214923D01*
X110228998Y-110185599D01*
X110109011Y-110163201D01*
X109988996Y-110149798D01*
X109873942Y-110145580D01*
X109869000Y-110145399D01*
X109868999Y-110145399D01*
X109868984Y-110145399D01*
X109761148Y-110149534D01*
X109752750Y-110146427D01*
X109749009Y-110138291D01*
X109749000Y-110137843D01*
X109749000Y-109659409D01*
X109752427Y-109651136D01*
X109758187Y-109647982D01*
X109847977Y-109628263D01*
X109946954Y-109597527D01*
X110045932Y-109557790D01*
X110144909Y-109509054D01*
X110236264Y-109455764D01*
X110245134Y-109454556D01*
X110250256Y-109457429D01*
G37*
%TD.AperFunction*%
%TD*%
%TA.AperFunction,Conductor*%
%TO.N,Net-(U3-K)*%
G36*
X109585555Y-109504376D02*
G01*
X109626076Y-109526103D01*
X109666902Y-109547994D01*
X109666908Y-109547996D01*
X109666914Y-109548000D01*
X109713930Y-109568482D01*
X109756416Y-109586992D01*
X109756423Y-109586995D01*
X109756425Y-109586995D01*
X109756435Y-109587000D01*
X109845957Y-109617000D01*
X109935478Y-109638000D01*
X109935484Y-109638000D01*
X109935485Y-109638001D01*
X110014854Y-109648640D01*
X110022599Y-109653135D01*
X110025000Y-109660236D01*
X110025000Y-110139763D01*
X110021573Y-110148036D01*
X110014854Y-110151359D01*
X109935485Y-110161998D01*
X109845963Y-110182998D01*
X109756423Y-110213004D01*
X109756416Y-110213007D01*
X109666917Y-110251998D01*
X109666902Y-110252005D01*
X109585557Y-110295622D01*
X109576646Y-110296512D01*
X109571260Y-110293058D01*
X109230844Y-109907747D01*
X109227934Y-109899278D01*
X109230844Y-109892253D01*
X109435827Y-109660236D01*
X109571261Y-109506940D01*
X109579306Y-109503010D01*
X109585555Y-109504376D01*
G37*
%TD.AperFunction*%
%TD*%
%TA.AperFunction,Conductor*%
%TO.N,Net-(U3-K)*%
G36*
X109447728Y-107053427D02*
G01*
X109451092Y-107060488D01*
X109459998Y-107145981D01*
X109470002Y-107239020D01*
X109479996Y-107328978D01*
X109489996Y-107415977D01*
X109499579Y-107496469D01*
X109498385Y-107503166D01*
X109210424Y-108068051D01*
X109203613Y-108073865D01*
X109194686Y-108073161D01*
X109189576Y-108068051D01*
X108901614Y-107503166D01*
X108900420Y-107496469D01*
X108910003Y-107415977D01*
X108920003Y-107328978D01*
X108929997Y-107239020D01*
X108940001Y-107145981D01*
X108948907Y-107060488D01*
X108953173Y-107052614D01*
X108960544Y-107050000D01*
X109439455Y-107050000D01*
X109447728Y-107053427D01*
G37*
%TD.AperFunction*%
%TD*%
%TA.AperFunction,Conductor*%
%TO.N,Net-(U3-K)*%
G36*
X109381248Y-104155790D02*
G01*
X109748238Y-104554600D01*
X109751319Y-104563009D01*
X109748874Y-104569694D01*
X109693946Y-104640506D01*
X109632959Y-104731131D01*
X109571977Y-104833745D01*
X109510984Y-104948380D01*
X109453190Y-105068377D01*
X109446513Y-105074344D01*
X109442649Y-105075000D01*
X108961338Y-105075000D01*
X108953065Y-105071573D01*
X108949644Y-105063668D01*
X108945001Y-104916015D01*
X108940001Y-104769018D01*
X108934998Y-104633979D01*
X108934998Y-104633978D01*
X108930000Y-104511025D01*
X108925325Y-104407222D01*
X108928376Y-104398803D01*
X108931314Y-104396478D01*
X109366941Y-104153494D01*
X109375834Y-104152458D01*
X109381248Y-104155790D01*
G37*
%TD.AperFunction*%
%TD*%
%TA.AperFunction,Conductor*%
%TO.N,Net-(Q1-S)*%
G36*
X54602000Y-87727677D02*
G01*
X54604199Y-87730471D01*
X54822328Y-88116363D01*
X54823416Y-88125251D01*
X54819488Y-88131227D01*
X54735557Y-88198920D01*
X54643886Y-88281859D01*
X54552248Y-88373766D01*
X54552230Y-88373785D01*
X54460592Y-88474689D01*
X54377136Y-88574782D01*
X54369206Y-88578941D01*
X54360657Y-88576275D01*
X54359877Y-88575562D01*
X54020186Y-88235871D01*
X54016759Y-88227598D01*
X54017172Y-88224519D01*
X54037304Y-88150959D01*
X54059228Y-88061852D01*
X54081152Y-87963745D01*
X54103076Y-87856638D01*
X54123262Y-87749733D01*
X54128165Y-87742240D01*
X54134358Y-87740212D01*
X54593615Y-87724535D01*
X54602000Y-87727677D01*
G37*
%TD.AperFunction*%
%TD*%
%TA.AperFunction,Conductor*%
%TO.N,Net-(Q1-S)*%
G36*
X54096562Y-88165191D02*
G01*
X54434807Y-88503436D01*
X54438234Y-88511709D01*
X54435424Y-88519315D01*
X54311785Y-88663827D01*
X54311778Y-88663837D01*
X54239239Y-88788979D01*
X54239231Y-88788995D01*
X54186299Y-88904438D01*
X54185786Y-88905429D01*
X54114058Y-89029174D01*
X54112826Y-89030913D01*
X53991043Y-89173258D01*
X53983061Y-89177317D01*
X53974547Y-89174542D01*
X53973901Y-89173946D01*
X53830151Y-89030913D01*
X53699293Y-88900707D01*
X53426052Y-88626097D01*
X53422647Y-88617817D01*
X53426095Y-88609552D01*
X53426722Y-88608973D01*
X53569085Y-88487171D01*
X53570817Y-88485944D01*
X53694584Y-88414202D01*
X53695551Y-88413702D01*
X53811012Y-88360762D01*
X53936168Y-88288216D01*
X54080686Y-88164572D01*
X54089197Y-88161799D01*
X54096562Y-88165191D01*
G37*
%TD.AperFunction*%
%TD*%
%TA.AperFunction,Conductor*%
%TO.N,OUT_GND*%
G36*
X112554074Y-113374348D02*
G01*
X112893758Y-113745096D01*
X112896820Y-113753511D01*
X112893758Y-113760904D01*
X112554074Y-114131651D01*
X112545958Y-114135436D01*
X112540831Y-114134498D01*
X112443765Y-114092818D01*
X112339081Y-114056866D01*
X112339059Y-114056859D01*
X112234396Y-114029912D01*
X112234388Y-114029910D01*
X112159046Y-114016989D01*
X112129692Y-114011955D01*
X112129689Y-114011954D01*
X112129685Y-114011954D01*
X112129677Y-114011953D01*
X112035703Y-114003915D01*
X112027752Y-113999796D01*
X112025000Y-113992258D01*
X112025000Y-113513741D01*
X112028427Y-113505468D01*
X112035701Y-113502084D01*
X112129692Y-113494044D01*
X112234385Y-113476089D01*
X112267329Y-113467606D01*
X112339059Y-113449139D01*
X112339065Y-113449137D01*
X112339077Y-113449134D01*
X112443770Y-113413179D01*
X112540831Y-113371500D01*
X112549785Y-113371386D01*
X112554074Y-113374348D01*
G37*
%TD.AperFunction*%
%TD*%
%TA.AperFunction,Conductor*%
%TO.N,OUT_GND*%
G36*
X112063643Y-113285497D02*
G01*
X112064144Y-113285720D01*
X112203827Y-113352243D01*
X112204625Y-113352662D01*
X112310514Y-113413738D01*
X112403852Y-113461296D01*
X112403858Y-113461297D01*
X112403859Y-113461298D01*
X112516197Y-113492065D01*
X112516199Y-113492065D01*
X112516202Y-113492066D01*
X112668594Y-113502269D01*
X112676619Y-113506241D01*
X112679512Y-113513943D01*
X112679512Y-113991592D01*
X112676085Y-113999865D01*
X112668107Y-114003288D01*
X112486009Y-114007887D01*
X112485992Y-114007887D01*
X112485989Y-114007888D01*
X112485985Y-114007888D01*
X112485973Y-114007889D01*
X112348898Y-114019543D01*
X112230799Y-114033434D01*
X112230423Y-114033472D01*
X112093863Y-114045082D01*
X112093167Y-114045120D01*
X111911965Y-114049697D01*
X111903608Y-114046480D01*
X111899974Y-114038296D01*
X111899970Y-114038030D01*
X111899854Y-113991592D01*
X111899005Y-113652350D01*
X111899904Y-113647829D01*
X112048343Y-113291792D01*
X112054689Y-113285476D01*
X112063643Y-113285497D01*
G37*
%TD.AperFunction*%
%TD*%
%TA.AperFunction,Conductor*%
%TO.N,OUT_GND*%
G36*
X110155314Y-106226838D02*
G01*
X110160424Y-106231948D01*
X110448385Y-106796833D01*
X110449579Y-106803530D01*
X110439996Y-106884023D01*
X110429996Y-106971022D01*
X110420001Y-107060979D01*
X110420002Y-107060980D01*
X110409998Y-107154019D01*
X110401092Y-107239512D01*
X110396826Y-107247386D01*
X110389455Y-107250000D01*
X109910544Y-107250000D01*
X109902271Y-107246573D01*
X109898907Y-107239512D01*
X109890001Y-107154019D01*
X109879997Y-107060980D01*
X109879997Y-107060979D01*
X109870003Y-106971022D01*
X109860003Y-106884023D01*
X109850420Y-106803530D01*
X109851614Y-106796833D01*
X110139576Y-106231948D01*
X110146387Y-106226134D01*
X110155314Y-106226838D01*
G37*
%TD.AperFunction*%
%TD*%
%TA.AperFunction,Conductor*%
%TO.N,OUT_GND*%
G36*
X110397448Y-106853427D02*
G01*
X110400840Y-106860792D01*
X110415600Y-107050407D01*
X110415601Y-107050409D01*
X110452803Y-107190213D01*
X110452803Y-107190214D01*
X110497001Y-107309261D01*
X110497340Y-107310324D01*
X110534125Y-107448559D01*
X110534483Y-107450660D01*
X110549021Y-107637423D01*
X110546246Y-107645937D01*
X110538264Y-107649996D01*
X110537385Y-107650031D01*
X110150029Y-107650999D01*
X110149971Y-107650999D01*
X109762614Y-107650031D01*
X109754349Y-107646583D01*
X109750943Y-107638302D01*
X109750976Y-107637449D01*
X109765517Y-107450650D01*
X109765872Y-107448568D01*
X109802660Y-107310319D01*
X109802998Y-107309261D01*
X109847196Y-107190214D01*
X109847196Y-107190213D01*
X109847200Y-107190203D01*
X109884400Y-107050407D01*
X109899160Y-106860792D01*
X109903219Y-106852810D01*
X109910825Y-106850000D01*
X110389175Y-106850000D01*
X110397448Y-106853427D01*
G37*
%TD.AperFunction*%
%TD*%
%TA.AperFunction,Conductor*%
%TO.N,OUT_GND*%
G36*
X107632187Y-112904597D02*
G01*
X108050993Y-113230746D01*
X108055415Y-113238533D01*
X108054704Y-113244228D01*
X108021303Y-113329868D01*
X107984725Y-113435656D01*
X107948142Y-113553464D01*
X107911573Y-113683220D01*
X107877264Y-113816222D01*
X107871879Y-113823377D01*
X107865935Y-113825000D01*
X107384065Y-113825000D01*
X107375792Y-113821573D01*
X107372736Y-113816223D01*
X107338422Y-113683208D01*
X107301856Y-113553464D01*
X107301850Y-113553441D01*
X107265276Y-113435662D01*
X107228701Y-113329883D01*
X107195295Y-113244227D01*
X107195481Y-113235275D01*
X107199004Y-113230748D01*
X107617811Y-112904597D01*
X107626444Y-112902218D01*
X107632187Y-112904597D01*
G37*
%TD.AperFunction*%
%TD*%
%TA.AperFunction,Conductor*%
%TO.N,OUT_GND*%
G36*
X107875701Y-113803427D02*
G01*
X107878101Y-113806907D01*
X107950776Y-113968757D01*
X108026562Y-114119532D01*
X108026563Y-114119534D01*
X108102334Y-114252281D01*
X108102347Y-114252302D01*
X108178105Y-114367031D01*
X108178117Y-114367049D01*
X108178125Y-114367059D01*
X108178132Y-114367069D01*
X108247036Y-114455052D01*
X108249439Y-114463678D01*
X108245492Y-114471103D01*
X107757118Y-114894823D01*
X107748624Y-114897657D01*
X107742449Y-114895359D01*
X107225569Y-114509214D01*
X107220992Y-114501517D01*
X107221357Y-114496505D01*
X107250224Y-114399463D01*
X107281417Y-114276597D01*
X107312612Y-114135731D01*
X107343806Y-113976865D01*
X107373295Y-113809668D01*
X107378107Y-113802116D01*
X107384817Y-113800000D01*
X107867428Y-113800000D01*
X107875701Y-113803427D01*
G37*
%TD.AperFunction*%
%TD*%
%TA.AperFunction,Conductor*%
%TO.N,Net-(D5-K)*%
G36*
X110799714Y-113803427D02*
G01*
X110802591Y-113808155D01*
X110856194Y-113976865D01*
X110856199Y-113976878D01*
X110912388Y-114135733D01*
X110968574Y-114276581D01*
X110968582Y-114276599D01*
X111024777Y-114399467D01*
X111076215Y-114495455D01*
X111077102Y-114504365D01*
X111072904Y-114510354D01*
X110557002Y-114895769D01*
X110548324Y-114897975D01*
X110542998Y-114895769D01*
X110027095Y-114510354D01*
X110022518Y-114502657D01*
X110023783Y-114495458D01*
X110075224Y-114399463D01*
X110131418Y-114276597D01*
X110187611Y-114135731D01*
X110243805Y-113976865D01*
X110297408Y-113808156D01*
X110303180Y-113801310D01*
X110308559Y-113800000D01*
X110791441Y-113800000D01*
X110799714Y-113803427D01*
G37*
%TD.AperFunction*%
%TD*%
%TA.AperFunction,Conductor*%
%TO.N,Net-(D5-K)*%
G36*
X112554074Y-114696348D02*
G01*
X112893758Y-115067096D01*
X112896820Y-115075511D01*
X112893758Y-115082904D01*
X112554074Y-115453651D01*
X112545958Y-115457436D01*
X112540831Y-115456498D01*
X112443765Y-115414818D01*
X112339081Y-115378866D01*
X112339059Y-115378859D01*
X112234396Y-115351912D01*
X112234388Y-115351910D01*
X112159046Y-115338989D01*
X112129692Y-115333955D01*
X112129689Y-115333954D01*
X112129685Y-115333954D01*
X112129677Y-115333953D01*
X112035703Y-115325915D01*
X112027752Y-115321796D01*
X112025000Y-115314258D01*
X112025000Y-114835741D01*
X112028427Y-114827468D01*
X112035701Y-114824084D01*
X112129692Y-114816044D01*
X112234385Y-114798089D01*
X112267329Y-114789606D01*
X112339059Y-114771139D01*
X112339065Y-114771137D01*
X112339077Y-114771134D01*
X112443770Y-114735179D01*
X112540831Y-114693500D01*
X112549785Y-114693386D01*
X112554074Y-114696348D01*
G37*
%TD.AperFunction*%
%TD*%
%TA.AperFunction,Conductor*%
%TO.N,Net-(D5-K)*%
G36*
X111026929Y-114425518D02*
G01*
X111144832Y-114535173D01*
X111144844Y-114535184D01*
X111271133Y-114634638D01*
X111397422Y-114716091D01*
X111523711Y-114779545D01*
X111642263Y-114822215D01*
X111648886Y-114828240D01*
X111650000Y-114833223D01*
X111650000Y-115312468D01*
X111646573Y-115320741D01*
X111638300Y-115324168D01*
X111637498Y-115324140D01*
X111490006Y-115314000D01*
X111490005Y-115314000D01*
X111490001Y-115314000D01*
X111489999Y-115314000D01*
X111443978Y-115316013D01*
X111330007Y-115320999D01*
X111329998Y-115321000D01*
X111169994Y-115346000D01*
X111169993Y-115346000D01*
X111010006Y-115388997D01*
X111009995Y-115389000D01*
X110859533Y-115446365D01*
X110850582Y-115446111D01*
X110845102Y-115441051D01*
X110553149Y-114907582D01*
X110552185Y-114898681D01*
X110555029Y-114893806D01*
X111010579Y-114425922D01*
X111018805Y-114422386D01*
X111026929Y-114425518D01*
G37*
%TD.AperFunction*%
%TD*%
%TA.AperFunction,Conductor*%
%TO.N,Net-(D5-K)*%
G36*
X109506981Y-112455042D02*
G01*
X109613309Y-112514000D01*
X109728732Y-112566000D01*
X109844154Y-112605999D01*
X109959577Y-112633999D01*
X110064907Y-112648600D01*
X110072631Y-112653130D01*
X110075000Y-112660189D01*
X110075000Y-113139810D01*
X110071573Y-113148083D01*
X110064906Y-113151399D01*
X109959581Y-113165999D01*
X109844153Y-113194000D01*
X109844145Y-113194002D01*
X109728728Y-113234000D01*
X109613320Y-113285993D01*
X109613310Y-113285998D01*
X109506982Y-113344956D01*
X109498085Y-113345971D01*
X109491812Y-113341559D01*
X109178919Y-112906835D01*
X109176867Y-112898118D01*
X109178919Y-112893165D01*
X109346604Y-112660189D01*
X109491812Y-112458439D01*
X109499426Y-112453727D01*
X109506981Y-112455042D01*
G37*
%TD.AperFunction*%
%TD*%
%TA.AperFunction,Conductor*%
%TO.N,Net-(D5-K)*%
G36*
X109232902Y-111406240D02*
G01*
X109604304Y-111746523D01*
X109608089Y-111754639D01*
X109607572Y-111758624D01*
X109582825Y-111838210D01*
X109555867Y-111933910D01*
X109528899Y-112038658D01*
X109501952Y-112152316D01*
X109477019Y-112265810D01*
X109471897Y-112273156D01*
X109465592Y-112275000D01*
X108984408Y-112275000D01*
X108976135Y-112271573D01*
X108972981Y-112265811D01*
X108948043Y-112152303D01*
X108921099Y-112038658D01*
X108921089Y-112038614D01*
X108894134Y-111933922D01*
X108867179Y-111838229D01*
X108842427Y-111758622D01*
X108843243Y-111749706D01*
X108845691Y-111746527D01*
X109217097Y-111406240D01*
X109225511Y-111403179D01*
X109232902Y-111406240D01*
G37*
%TD.AperFunction*%
%TD*%
%TA.AperFunction,Conductor*%
%TO.N,Net-(D5-K)*%
G36*
X109473562Y-111978427D02*
G01*
X109476789Y-111984545D01*
X109501552Y-112116663D01*
X109501577Y-112116793D01*
X109528148Y-112246554D01*
X109554724Y-112364344D01*
X109581292Y-112470097D01*
X109605724Y-112556315D01*
X109604682Y-112565209D01*
X109601656Y-112568736D01*
X109182200Y-112895392D01*
X109173567Y-112897772D01*
X109167808Y-112895381D01*
X108889128Y-112677687D01*
X108750101Y-112569085D01*
X108745692Y-112561293D01*
X108746824Y-112554667D01*
X108789066Y-112469569D01*
X108835549Y-112363927D01*
X108882033Y-112246284D01*
X108928516Y-112116642D01*
X108972357Y-111983051D01*
X108978193Y-111976260D01*
X108983474Y-111975000D01*
X109465289Y-111975000D01*
X109473562Y-111978427D01*
G37*
%TD.AperFunction*%
%TD*%
%TA.AperFunction,Conductor*%
%TO.N,Net-(U1-SS)*%
G36*
X57782187Y-81844597D02*
G01*
X58200993Y-82170746D01*
X58205415Y-82178533D01*
X58204704Y-82184228D01*
X58171303Y-82269868D01*
X58134725Y-82375656D01*
X58098142Y-82493464D01*
X58061573Y-82623220D01*
X58027264Y-82756222D01*
X58021879Y-82763377D01*
X58015935Y-82765000D01*
X57534065Y-82765000D01*
X57525792Y-82761573D01*
X57522736Y-82756223D01*
X57488422Y-82623208D01*
X57451856Y-82493464D01*
X57451850Y-82493441D01*
X57415276Y-82375662D01*
X57378701Y-82269883D01*
X57345295Y-82184227D01*
X57345481Y-82175275D01*
X57349004Y-82170748D01*
X57767811Y-81844597D01*
X57776444Y-81842218D01*
X57782187Y-81844597D01*
G37*
%TD.AperFunction*%
%TD*%
%TA.AperFunction,Conductor*%
%TO.N,Net-(D4-K)*%
G36*
X71719314Y-79064573D02*
G01*
X71863831Y-79188216D01*
X71988986Y-79260762D01*
X71988995Y-79260766D01*
X72104438Y-79313698D01*
X72105429Y-79314211D01*
X72229174Y-79385940D01*
X72230913Y-79387172D01*
X72258870Y-79411091D01*
X72373258Y-79508956D01*
X72377317Y-79516938D01*
X72374542Y-79525452D01*
X72373946Y-79526098D01*
X72100749Y-79800665D01*
X72100707Y-79800707D01*
X71826098Y-80073946D01*
X71817817Y-80077352D01*
X71809552Y-80073904D01*
X71808956Y-80073258D01*
X71687172Y-79930913D01*
X71685940Y-79929174D01*
X71614211Y-79805429D01*
X71613698Y-79804438D01*
X71560766Y-79688995D01*
X71560758Y-79688979D01*
X71488219Y-79563836D01*
X71488218Y-79563834D01*
X71488217Y-79563833D01*
X71488216Y-79563831D01*
X71364573Y-79419314D01*
X71361799Y-79410802D01*
X71365190Y-79403438D01*
X71703438Y-79065190D01*
X71711710Y-79061764D01*
X71719314Y-79064573D01*
G37*
%TD.AperFunction*%
%TD*%
%TA.AperFunction,Conductor*%
%TO.N,Net-(D4-K)*%
G36*
X68159168Y-81543501D02*
G01*
X68182727Y-81553617D01*
X68256229Y-81585179D01*
X68360922Y-81621134D01*
X68360928Y-81621135D01*
X68360939Y-81621139D01*
X68465602Y-81648086D01*
X68465614Y-81648089D01*
X68570307Y-81666044D01*
X68570317Y-81666044D01*
X68570318Y-81666045D01*
X68582190Y-81667060D01*
X68664297Y-81674084D01*
X68672248Y-81678203D01*
X68675000Y-81685741D01*
X68675000Y-82164258D01*
X68671573Y-82172531D01*
X68664297Y-82175915D01*
X68570321Y-82183953D01*
X68570313Y-82183954D01*
X68465610Y-82201910D01*
X68465602Y-82201912D01*
X68360939Y-82228859D01*
X68360917Y-82228866D01*
X68256233Y-82264818D01*
X68159168Y-82306498D01*
X68150214Y-82306613D01*
X68145925Y-82303651D01*
X67806240Y-81932902D01*
X67803179Y-81924489D01*
X67806240Y-81917097D01*
X68145926Y-81546347D01*
X68154041Y-81542563D01*
X68159168Y-81543501D01*
G37*
%TD.AperFunction*%
%TD*%
%TA.AperFunction,Conductor*%
%TO.N,Net-(D4-K)*%
G36*
X69582179Y-81675681D02*
G01*
X69958219Y-81696474D01*
X69960205Y-81696755D01*
X70228561Y-81758774D01*
X70230669Y-81759478D01*
X70455272Y-81859193D01*
X70455969Y-81859531D01*
X70711620Y-81994351D01*
X71061954Y-82156187D01*
X71068027Y-82162767D01*
X71067862Y-82171273D01*
X70768853Y-82895509D01*
X70762528Y-82901848D01*
X70762510Y-82901856D01*
X70039451Y-83200953D01*
X70030496Y-83200948D01*
X70024167Y-83194613D01*
X70023623Y-83192959D01*
X69950895Y-82899904D01*
X69950569Y-82897728D01*
X69935203Y-82618109D01*
X69935203Y-82618102D01*
X69912206Y-82387909D01*
X69813227Y-82232221D01*
X69813226Y-82232220D01*
X69578880Y-82177121D01*
X69571611Y-82171892D01*
X69569858Y-82165732D01*
X69569858Y-81687364D01*
X69573285Y-81679091D01*
X69581558Y-81675664D01*
X69582179Y-81675681D01*
G37*
%TD.AperFunction*%
%TD*%
%TA.AperFunction,Conductor*%
%TO.N,Net-(C11-Pad1)*%
G36*
X79058601Y-32220544D02*
G01*
X79211804Y-32529950D01*
X79425707Y-32772771D01*
X79666406Y-33026090D01*
X79900000Y-33366992D01*
X78900000Y-33901000D01*
X77900000Y-33366992D01*
X78133592Y-33026090D01*
X78374292Y-32772771D01*
X78588194Y-32529950D01*
X78741398Y-32220544D01*
X78800000Y-31767471D01*
X79000000Y-31767471D01*
X79058601Y-32220544D01*
G37*
%TD.AperFunction*%
%TD*%
%TA.AperFunction,Conductor*%
%TO.N,Net-(C11-Pad1)*%
G36*
X57292993Y-25481796D02*
G01*
X57294093Y-25482321D01*
X57684729Y-25694623D01*
X57686601Y-25695889D01*
X57952763Y-25916111D01*
X57952896Y-25916223D01*
X58180123Y-26110016D01*
X58180126Y-26110017D01*
X58180127Y-26110018D01*
X58463793Y-26247656D01*
X58463794Y-26247656D01*
X58463796Y-26247657D01*
X58889694Y-26298763D01*
X58897500Y-26303151D01*
X58900000Y-26310380D01*
X58900000Y-26489619D01*
X58896573Y-26497892D01*
X58889694Y-26501236D01*
X58463793Y-26552342D01*
X58180127Y-26689980D01*
X58180119Y-26689985D01*
X57952896Y-26883775D01*
X57952763Y-26883887D01*
X57686601Y-27104108D01*
X57684729Y-27105374D01*
X57294093Y-27317678D01*
X57285188Y-27318618D01*
X57278226Y-27312985D01*
X57277705Y-27311893D01*
X56900862Y-26404485D01*
X56900854Y-26395535D01*
X57277702Y-25488112D01*
X57284039Y-25481787D01*
X57292993Y-25481796D01*
G37*
%TD.AperFunction*%
%TD*%
%TA.AperFunction,Conductor*%
%TO.N,Net-(U1-OVP)*%
G36*
X64140543Y-84571652D02*
G01*
X64164982Y-84575997D01*
X64164987Y-84575997D01*
X64165000Y-84576000D01*
X64255000Y-84589000D01*
X64284987Y-84592331D01*
X64344980Y-84598997D01*
X64344986Y-84598997D01*
X64345000Y-84598999D01*
X64435000Y-84605999D01*
X64435014Y-84605999D01*
X64435019Y-84606000D01*
X64513820Y-84609503D01*
X64521932Y-84613293D01*
X64525000Y-84621191D01*
X64525000Y-85098808D01*
X64521573Y-85107081D01*
X64513820Y-85110496D01*
X64435019Y-85113998D01*
X64344980Y-85121001D01*
X64255019Y-85130996D01*
X64164982Y-85144001D01*
X64078091Y-85159450D01*
X64072049Y-85158928D01*
X63279278Y-84870997D01*
X63272672Y-84864952D01*
X63272275Y-84856006D01*
X63278320Y-84849400D01*
X63279278Y-84849003D01*
X64072051Y-84561070D01*
X64078089Y-84560549D01*
X64140543Y-84571652D01*
G37*
%TD.AperFunction*%
%TD*%
%TA.AperFunction,Conductor*%
%TO.N,Net-(U1-OVP)*%
G36*
X63898865Y-80968427D02*
G01*
X63902019Y-80974190D01*
X63926952Y-81087682D01*
X63953899Y-81201340D01*
X63953910Y-81201385D01*
X63965043Y-81244628D01*
X63980867Y-81306088D01*
X64007825Y-81401788D01*
X64032572Y-81481375D01*
X64031756Y-81490293D01*
X64029304Y-81493476D01*
X63657904Y-81833758D01*
X63649489Y-81836820D01*
X63642096Y-81833758D01*
X63270695Y-81493476D01*
X63266910Y-81485360D01*
X63267426Y-81481379D01*
X63292179Y-81401770D01*
X63319134Y-81306077D01*
X63346089Y-81201385D01*
X63373044Y-81087692D01*
X63397981Y-80974188D01*
X63403103Y-80966844D01*
X63409408Y-80965000D01*
X63890592Y-80965000D01*
X63898865Y-80968427D01*
G37*
%TD.AperFunction*%
%TD*%
%TA.AperFunction,Conductor*%
%TO.N,Net-(U1-OVP)*%
G36*
X63657902Y-80346240D02*
G01*
X64029304Y-80686523D01*
X64033089Y-80694639D01*
X64032572Y-80698624D01*
X64007825Y-80778210D01*
X63980867Y-80873910D01*
X63953899Y-80978658D01*
X63926952Y-81092316D01*
X63902019Y-81205810D01*
X63896897Y-81213156D01*
X63890592Y-81215000D01*
X63409408Y-81215000D01*
X63401135Y-81211573D01*
X63397981Y-81205811D01*
X63373043Y-81092303D01*
X63346099Y-80978658D01*
X63346089Y-80978614D01*
X63319134Y-80873922D01*
X63292179Y-80778229D01*
X63267427Y-80698622D01*
X63268243Y-80689706D01*
X63270691Y-80686527D01*
X63642097Y-80346240D01*
X63650511Y-80343179D01*
X63657902Y-80346240D01*
G37*
%TD.AperFunction*%
%TD*%
%TA.AperFunction,Conductor*%
%TO.N,Net-(U1-OVP)*%
G36*
X64034002Y-81480554D02*
G01*
X64139916Y-81546770D01*
X64253576Y-81608829D01*
X64367237Y-81661888D01*
X64480897Y-81705947D01*
X64576004Y-81735283D01*
X64582899Y-81740995D01*
X64583735Y-81749910D01*
X64580828Y-81754735D01*
X64242998Y-82092565D01*
X64238327Y-82095424D01*
X64185916Y-82112384D01*
X64130839Y-82139206D01*
X64075761Y-82175026D01*
X64075750Y-82175034D01*
X64020670Y-82219856D01*
X63975266Y-82264225D01*
X63966954Y-82267556D01*
X63958721Y-82264034D01*
X63957631Y-82262744D01*
X63926400Y-82219853D01*
X63655288Y-81847527D01*
X63653189Y-81838823D01*
X63656623Y-81832222D01*
X64019679Y-81482054D01*
X64028012Y-81478778D01*
X64034002Y-81480554D01*
G37*
%TD.AperFunction*%
%TD*%
%TA.AperFunction,Conductor*%
%TO.N,Net-(C15-Pad1)*%
G36*
X112333921Y-110244527D02*
G01*
X112765959Y-110511361D01*
X112771197Y-110518622D01*
X112771416Y-110519827D01*
X112829935Y-110976439D01*
X112827588Y-110985080D01*
X112819817Y-110989531D01*
X112818007Y-110989622D01*
X112713077Y-110986725D01*
X112701054Y-110986394D01*
X112701053Y-110986394D01*
X112701051Y-110986394D01*
X112570434Y-110994789D01*
X112439814Y-111015184D01*
X112309197Y-111047579D01*
X112185469Y-111089631D01*
X112176533Y-111089048D01*
X112173431Y-111086826D01*
X111834513Y-110747908D01*
X111831086Y-110739635D01*
X111834513Y-110731362D01*
X111835716Y-110730313D01*
X111925050Y-110662558D01*
X112025075Y-110574696D01*
X112125099Y-110474834D01*
X112225124Y-110362972D01*
X112318672Y-110247130D01*
X112326535Y-110242848D01*
X112333921Y-110244527D01*
G37*
%TD.AperFunction*%
%TD*%
%TA.AperFunction,Conductor*%
%TO.N,Net-(C15-Pad1)*%
G36*
X110984083Y-111088997D02*
G01*
X111042003Y-111134894D01*
X111042008Y-111134898D01*
X111108463Y-111178560D01*
X111108468Y-111178563D01*
X111108470Y-111178564D01*
X111174938Y-111213235D01*
X111174943Y-111213236D01*
X111174947Y-111213239D01*
X111241394Y-111238901D01*
X111241398Y-111238903D01*
X111241403Y-111238904D01*
X111241405Y-111238905D01*
X111304736Y-111254789D01*
X111310159Y-111257863D01*
X111646358Y-111594062D01*
X111649785Y-111602335D01*
X111646358Y-111610608D01*
X111640627Y-111613756D01*
X111524246Y-111639657D01*
X111387059Y-111679190D01*
X111387052Y-111679192D01*
X111249892Y-111727715D01*
X111112718Y-111785244D01*
X111112694Y-111785255D01*
X110983376Y-111847973D01*
X110974436Y-111848500D01*
X110969647Y-111845354D01*
X110630532Y-111475600D01*
X110627466Y-111467187D01*
X110630518Y-111459800D01*
X110815043Y-111257863D01*
X110968180Y-111090274D01*
X110976290Y-111086479D01*
X110984083Y-111088997D01*
G37*
%TD.AperFunction*%
%TD*%
%TA.AperFunction,Conductor*%
%TO.N,/PS/24V_F*%
G36*
X113259168Y-116343501D02*
G01*
X113282727Y-116353617D01*
X113356229Y-116385179D01*
X113460922Y-116421134D01*
X113460928Y-116421135D01*
X113460939Y-116421139D01*
X113565602Y-116448086D01*
X113565614Y-116448089D01*
X113670307Y-116466044D01*
X113670317Y-116466044D01*
X113670318Y-116466045D01*
X113682190Y-116467060D01*
X113764297Y-116474084D01*
X113772248Y-116478203D01*
X113775000Y-116485741D01*
X113775000Y-116964258D01*
X113771573Y-116972531D01*
X113764297Y-116975915D01*
X113670321Y-116983953D01*
X113670313Y-116983954D01*
X113565610Y-117001910D01*
X113565602Y-117001912D01*
X113460939Y-117028859D01*
X113460917Y-117028866D01*
X113356233Y-117064818D01*
X113259168Y-117106498D01*
X113250214Y-117106613D01*
X113245925Y-117103651D01*
X112906240Y-116732902D01*
X112903179Y-116724489D01*
X112906240Y-116717097D01*
X113245926Y-116346347D01*
X113254041Y-116342563D01*
X113259168Y-116343501D01*
G37*
%TD.AperFunction*%
%TD*%
%TA.AperFunction,Conductor*%
%TO.N,/PS/24V_F*%
G36*
X114054074Y-116346348D02*
G01*
X114393758Y-116717096D01*
X114396820Y-116725511D01*
X114393758Y-116732904D01*
X114054074Y-117103651D01*
X114045958Y-117107436D01*
X114040831Y-117106498D01*
X113943765Y-117064818D01*
X113839081Y-117028866D01*
X113839059Y-117028859D01*
X113734396Y-117001912D01*
X113734388Y-117001910D01*
X113659046Y-116988989D01*
X113629692Y-116983955D01*
X113629689Y-116983954D01*
X113629685Y-116983954D01*
X113629677Y-116983953D01*
X113535703Y-116975915D01*
X113527752Y-116971796D01*
X113525000Y-116964258D01*
X113525000Y-116485741D01*
X113528427Y-116477468D01*
X113535701Y-116474084D01*
X113629692Y-116466044D01*
X113734385Y-116448089D01*
X113767329Y-116439606D01*
X113839059Y-116421139D01*
X113839065Y-116421137D01*
X113839077Y-116421134D01*
X113943770Y-116385179D01*
X114040831Y-116343500D01*
X114049785Y-116343386D01*
X114054074Y-116346348D01*
G37*
%TD.AperFunction*%
%TD*%
%TA.AperFunction,Conductor*%
%TO.N,/PS/24V_F*%
G36*
X112555555Y-116347965D02*
G01*
X112718755Y-116526089D01*
X112893758Y-116717096D01*
X112896820Y-116725511D01*
X112893758Y-116732904D01*
X112555557Y-117102032D01*
X112547441Y-117105817D01*
X112540000Y-117103555D01*
X112443772Y-117032821D01*
X112339080Y-116970867D01*
X112339077Y-116970865D01*
X112339073Y-116970863D01*
X112339071Y-116970862D01*
X112234391Y-116923912D01*
X112234386Y-116923910D01*
X112234385Y-116923910D01*
X112129695Y-116891956D01*
X112129698Y-116891956D01*
X112129692Y-116891955D01*
X112034828Y-116876591D01*
X112027211Y-116871886D01*
X112025000Y-116865042D01*
X112025000Y-116584958D01*
X112028427Y-116576685D01*
X112034829Y-116573409D01*
X112106473Y-116561804D01*
X112129692Y-116558044D01*
X112234385Y-116526089D01*
X112339077Y-116479134D01*
X112443770Y-116417179D01*
X112540003Y-116346442D01*
X112548696Y-116344304D01*
X112555555Y-116347965D01*
G37*
%TD.AperFunction*%
%TD*%
%TA.AperFunction,Conductor*%
%TO.N,Net-(R12-Pad1)*%
G36*
X107823865Y-109028427D02*
G01*
X107827019Y-109034190D01*
X107851952Y-109147682D01*
X107878899Y-109261340D01*
X107878910Y-109261385D01*
X107890043Y-109304628D01*
X107905867Y-109366088D01*
X107932825Y-109461788D01*
X107957572Y-109541375D01*
X107956756Y-109550293D01*
X107954304Y-109553476D01*
X107582904Y-109893758D01*
X107574489Y-109896820D01*
X107567096Y-109893758D01*
X107195695Y-109553476D01*
X107191910Y-109545360D01*
X107192426Y-109541379D01*
X107217179Y-109461770D01*
X107244134Y-109366077D01*
X107271089Y-109261385D01*
X107298044Y-109147692D01*
X107322981Y-109034188D01*
X107328103Y-109026844D01*
X107334408Y-109025000D01*
X107815592Y-109025000D01*
X107823865Y-109028427D01*
G37*
%TD.AperFunction*%
%TD*%
%TA.AperFunction,Conductor*%
%TO.N,Net-(R12-Pad1)*%
G36*
X106915902Y-106660695D02*
G01*
X106923350Y-106665666D01*
X106925318Y-106671770D01*
X106933491Y-106909895D01*
X106941982Y-107128740D01*
X106949632Y-107300127D01*
X106950477Y-107319056D01*
X106955935Y-107422984D01*
X106958971Y-107480800D01*
X106967125Y-107608629D01*
X106964232Y-107617104D01*
X106963722Y-107617647D01*
X106621485Y-107959884D01*
X106613212Y-107963311D01*
X106605696Y-107960578D01*
X106455903Y-107835025D01*
X106358006Y-107752969D01*
X106358001Y-107752966D01*
X106357997Y-107752962D01*
X106357989Y-107752956D01*
X106102120Y-107571487D01*
X106102103Y-107571476D01*
X105945838Y-107480800D01*
X105846203Y-107422984D01*
X105846198Y-107422981D01*
X105846195Y-107422980D01*
X105590304Y-107307493D01*
X105347231Y-107229136D01*
X105340409Y-107223336D01*
X105339685Y-107214410D01*
X105340298Y-107212885D01*
X105720344Y-106432401D01*
X105727047Y-106426464D01*
X105733139Y-106426048D01*
X106915902Y-106660695D01*
G37*
%TD.AperFunction*%
%TD*%
%TA.AperFunction,Conductor*%
%TO.N,Net-(R12-Pad1)*%
G36*
X107823865Y-110528427D02*
G01*
X107827019Y-110534190D01*
X107851952Y-110647682D01*
X107878899Y-110761340D01*
X107878910Y-110761385D01*
X107890043Y-110804628D01*
X107905867Y-110866088D01*
X107932825Y-110961788D01*
X107957572Y-111041375D01*
X107956756Y-111050293D01*
X107954304Y-111053476D01*
X107582904Y-111393758D01*
X107574489Y-111396820D01*
X107567096Y-111393758D01*
X107195695Y-111053476D01*
X107191910Y-111045360D01*
X107192426Y-111041379D01*
X107217179Y-110961770D01*
X107244134Y-110866077D01*
X107271089Y-110761385D01*
X107298044Y-110647692D01*
X107322981Y-110534188D01*
X107328103Y-110526844D01*
X107334408Y-110525000D01*
X107815592Y-110525000D01*
X107823865Y-110528427D01*
G37*
%TD.AperFunction*%
%TD*%
%TA.AperFunction,Conductor*%
%TO.N,Net-(R12-Pad1)*%
G36*
X107582902Y-109906240D02*
G01*
X107954304Y-110246523D01*
X107958089Y-110254639D01*
X107957572Y-110258624D01*
X107932825Y-110338210D01*
X107905867Y-110433910D01*
X107878899Y-110538658D01*
X107851952Y-110652316D01*
X107827019Y-110765810D01*
X107821897Y-110773156D01*
X107815592Y-110775000D01*
X107334408Y-110775000D01*
X107326135Y-110771573D01*
X107322981Y-110765811D01*
X107298043Y-110652303D01*
X107271099Y-110538658D01*
X107271089Y-110538614D01*
X107244134Y-110433922D01*
X107217179Y-110338229D01*
X107192427Y-110258622D01*
X107193243Y-110249706D01*
X107195691Y-110246527D01*
X107567097Y-109906240D01*
X107575511Y-109903179D01*
X107582902Y-109906240D01*
G37*
%TD.AperFunction*%
%TD*%
%TA.AperFunction,Conductor*%
%TO.N,Net-(R16-Pad1)*%
G36*
X114407747Y-113758844D02*
G01*
X114791447Y-114097837D01*
X114795378Y-114105883D01*
X114792659Y-114114130D01*
X114750002Y-114164911D01*
X114700002Y-114239431D01*
X114650000Y-114328953D01*
X114649999Y-114328956D01*
X114600002Y-114433471D01*
X114600002Y-114433472D01*
X114553006Y-114545815D01*
X114546651Y-114552125D01*
X114542212Y-114553000D01*
X114257788Y-114553000D01*
X114249515Y-114549573D01*
X114246994Y-114545815D01*
X114199997Y-114433472D01*
X114150000Y-114328957D01*
X114099999Y-114239435D01*
X114049999Y-114164914D01*
X114007338Y-114114129D01*
X114004642Y-114105592D01*
X114008549Y-114097839D01*
X114392253Y-113758843D01*
X114400722Y-113755934D01*
X114407747Y-113758844D01*
G37*
%TD.AperFunction*%
%TD*%
%TA.AperFunction,Conductor*%
%TO.N,Net-(R16-Pad1)*%
G36*
X114550485Y-114278427D02*
G01*
X114553005Y-114282183D01*
X114599999Y-114394521D01*
X114600002Y-114394527D01*
X114649999Y-114499042D01*
X114650000Y-114499045D01*
X114683782Y-114559527D01*
X114700000Y-114588563D01*
X114750000Y-114663084D01*
X114750002Y-114663086D01*
X114792660Y-114713868D01*
X114795357Y-114722406D01*
X114791448Y-114730161D01*
X114407747Y-115069155D01*
X114399278Y-115072065D01*
X114392253Y-115069155D01*
X114008551Y-114730161D01*
X114004620Y-114722115D01*
X114007338Y-114713869D01*
X114049999Y-114663084D01*
X114099999Y-114588563D01*
X114150000Y-114499042D01*
X114200000Y-114394521D01*
X114246994Y-114282184D01*
X114253349Y-114275875D01*
X114257788Y-114275000D01*
X114542212Y-114275000D01*
X114550485Y-114278427D01*
G37*
%TD.AperFunction*%
%TD*%
%TA.AperFunction,Conductor*%
%TO.N,Net-(D3-K)*%
G36*
X76213087Y-80258164D02*
G01*
X76842802Y-80891752D01*
X76846204Y-80900036D01*
X76842802Y-80908248D01*
X76213087Y-81541835D01*
X76204825Y-81545287D01*
X76196678Y-81542018D01*
X76073978Y-81423952D01*
X75942983Y-81320929D01*
X75942976Y-81320925D01*
X75942974Y-81320923D01*
X75811994Y-81240930D01*
X75680994Y-81183952D01*
X75558764Y-81152271D01*
X75551616Y-81146878D01*
X75550000Y-81140945D01*
X75550000Y-80659054D01*
X75553427Y-80650781D01*
X75558762Y-80647728D01*
X75680994Y-80616047D01*
X75811989Y-80559071D01*
X75942983Y-80479070D01*
X76073978Y-80376047D01*
X76196679Y-80257979D01*
X76205014Y-80254714D01*
X76213087Y-80258164D01*
G37*
%TD.AperFunction*%
%TD*%
%TA.AperFunction,Conductor*%
%TO.N,Net-(D3-A)*%
G36*
X67526273Y-79878244D02*
G01*
X67529333Y-79881280D01*
X67553980Y-79917000D01*
X67794952Y-80266235D01*
X67796830Y-80274991D01*
X67792842Y-80281843D01*
X67396139Y-80614680D01*
X67387599Y-80617372D01*
X67382119Y-80615445D01*
X67296543Y-80558263D01*
X67296534Y-80558257D01*
X67265638Y-80540606D01*
X67203649Y-80505192D01*
X67163093Y-80485952D01*
X67110776Y-80461132D01*
X67110757Y-80461124D01*
X67017880Y-80426063D01*
X66933539Y-80402396D01*
X66926499Y-80396861D01*
X66925000Y-80391131D01*
X66925000Y-79913035D01*
X66928427Y-79904762D01*
X66936700Y-79901335D01*
X66937941Y-79901402D01*
X67045000Y-79913000D01*
X67165000Y-79917000D01*
X67285000Y-79911999D01*
X67405000Y-79897999D01*
X67517505Y-79876436D01*
X67526273Y-79878244D01*
G37*
%TD.AperFunction*%
%TD*%
M02*
