%TF.GenerationSoftware,KiCad,Pcbnew,8.99.0-984-gafcdfd85a7*%
%TF.CreationDate,2024-06-08T13:09:11+02:00*%
%TF.ProjectId,ACDC120V24,41434443-3132-4305-9632-342e6b696361,rev?*%
%TF.SameCoordinates,Original*%
%TF.FileFunction,Legend,Top*%
%TF.FilePolarity,Positive*%
%FSLAX46Y46*%
G04 Gerber Fmt 4.6, Leading zero omitted, Abs format (unit mm)*
G04 Created by KiCad (PCBNEW 8.99.0-984-gafcdfd85a7) date 2024-06-08 13:09:11*
%MOMM*%
%LPD*%
G01*
G04 APERTURE LIST*
%ADD10C,0.150000*%
%ADD11C,0.360000*%
%ADD12C,0.200000*%
%ADD13C,0.300000*%
%ADD14C,0.120000*%
G04 APERTURE END LIST*
D10*
X68035000Y-106711000D02*
X68035000Y-107711000D01*
D11*
G36*
X116772535Y-117572127D02*
G01*
X114648024Y-117572127D01*
X114648024Y-116474756D01*
X114848024Y-116474756D01*
X114848024Y-116544988D01*
X114874900Y-116609875D01*
X114924562Y-116659537D01*
X114989449Y-116686413D01*
X115024565Y-116689872D01*
X115532405Y-116688623D01*
X115533739Y-117230702D01*
X115560615Y-117295589D01*
X115610277Y-117345251D01*
X115675164Y-117372127D01*
X115745396Y-117372127D01*
X115810283Y-117345251D01*
X115859945Y-117295589D01*
X115886821Y-117230702D01*
X115890280Y-117195586D01*
X115889031Y-116687746D01*
X116431110Y-116686413D01*
X116495997Y-116659537D01*
X116545659Y-116609875D01*
X116572535Y-116544988D01*
X116572535Y-116474756D01*
X116545659Y-116409869D01*
X116495997Y-116360207D01*
X116431110Y-116333331D01*
X116395994Y-116329872D01*
X115888154Y-116331120D01*
X115886821Y-115789042D01*
X115859945Y-115724155D01*
X115810283Y-115674493D01*
X115745396Y-115647617D01*
X115675164Y-115647617D01*
X115610277Y-115674493D01*
X115560615Y-115724155D01*
X115533739Y-115789042D01*
X115530280Y-115824158D01*
X115531528Y-116331997D01*
X114989449Y-116333331D01*
X114924562Y-116360207D01*
X114874900Y-116409869D01*
X114848024Y-116474756D01*
X114648024Y-116474756D01*
X114648024Y-115447617D01*
X116772535Y-115447617D01*
X116772535Y-117572127D01*
G37*
D12*
X36348673Y-44184409D02*
X36682006Y-44184409D01*
X36824863Y-44708219D02*
X36348673Y-44708219D01*
X36348673Y-44708219D02*
X36348673Y-43708219D01*
X36348673Y-43708219D02*
X36824863Y-43708219D01*
X37205816Y-44422504D02*
X37682006Y-44422504D01*
X37110578Y-44708219D02*
X37443911Y-43708219D01*
X37443911Y-43708219D02*
X37777244Y-44708219D01*
X38682006Y-44708219D02*
X38348673Y-44232028D01*
X38110578Y-44708219D02*
X38110578Y-43708219D01*
X38110578Y-43708219D02*
X38491530Y-43708219D01*
X38491530Y-43708219D02*
X38586768Y-43755838D01*
X38586768Y-43755838D02*
X38634387Y-43803457D01*
X38634387Y-43803457D02*
X38682006Y-43898695D01*
X38682006Y-43898695D02*
X38682006Y-44041552D01*
X38682006Y-44041552D02*
X38634387Y-44136790D01*
X38634387Y-44136790D02*
X38586768Y-44184409D01*
X38586768Y-44184409D02*
X38491530Y-44232028D01*
X38491530Y-44232028D02*
X38110578Y-44232028D01*
X38967721Y-43708219D02*
X39539149Y-43708219D01*
X39253435Y-44708219D02*
X39253435Y-43708219D01*
X39872483Y-44708219D02*
X39872483Y-43708219D01*
X39872483Y-44184409D02*
X40443911Y-44184409D01*
X40443911Y-44708219D02*
X40443911Y-43708219D01*
D11*
G36*
X36008984Y-84701555D02*
G01*
X34220413Y-84701555D01*
X34220413Y-82521994D01*
X34420413Y-82521994D01*
X34423872Y-84357110D01*
X34450748Y-84421997D01*
X34500410Y-84471659D01*
X34565297Y-84498535D01*
X34635529Y-84498535D01*
X34700416Y-84471659D01*
X34750078Y-84421997D01*
X34776954Y-84357110D01*
X34780413Y-84321994D01*
X34778286Y-83193853D01*
X35470383Y-84400423D01*
X35479319Y-84421997D01*
X35487384Y-84430062D01*
X35493126Y-84440072D01*
X35512049Y-84454727D01*
X35528981Y-84471659D01*
X35539581Y-84476049D01*
X35548654Y-84483076D01*
X35571756Y-84489376D01*
X35593868Y-84498535D01*
X35605338Y-84498535D01*
X35616412Y-84501555D01*
X35640166Y-84498535D01*
X35664100Y-84498535D01*
X35674700Y-84494144D01*
X35686084Y-84492697D01*
X35706865Y-84480821D01*
X35728987Y-84471659D01*
X35737103Y-84463542D01*
X35747062Y-84457852D01*
X35761717Y-84438928D01*
X35778649Y-84421997D01*
X35783039Y-84411396D01*
X35790066Y-84402324D01*
X35796366Y-84379220D01*
X35805525Y-84357110D01*
X35807293Y-84339155D01*
X35808545Y-84334567D01*
X35808094Y-84331023D01*
X35808984Y-84321994D01*
X35805525Y-82486878D01*
X35778649Y-82421991D01*
X35728987Y-82372329D01*
X35664100Y-82345453D01*
X35593868Y-82345453D01*
X35528981Y-82372329D01*
X35479319Y-82421991D01*
X35452443Y-82486878D01*
X35448984Y-82521994D01*
X35451110Y-83650134D01*
X34759013Y-82443564D01*
X34750078Y-82421991D01*
X34742012Y-82413925D01*
X34736271Y-82403916D01*
X34717347Y-82389260D01*
X34700416Y-82372329D01*
X34689815Y-82367938D01*
X34680743Y-82360912D01*
X34657640Y-82354611D01*
X34635529Y-82345453D01*
X34624059Y-82345453D01*
X34612985Y-82342433D01*
X34589231Y-82345453D01*
X34565297Y-82345453D01*
X34554696Y-82349843D01*
X34543313Y-82351291D01*
X34522531Y-82363166D01*
X34500410Y-82372329D01*
X34492293Y-82380445D01*
X34482335Y-82386136D01*
X34467679Y-82405059D01*
X34450748Y-82421991D01*
X34446357Y-82432591D01*
X34439331Y-82441664D01*
X34433030Y-82464766D01*
X34423872Y-82486878D01*
X34422103Y-82504833D01*
X34420852Y-82509422D01*
X34421302Y-82512964D01*
X34420413Y-82521994D01*
X34220413Y-82521994D01*
X34220413Y-73828297D01*
X34420413Y-73828297D01*
X34423872Y-75663413D01*
X34450748Y-75728300D01*
X34500410Y-75777962D01*
X34565297Y-75804838D01*
X34600413Y-75808297D01*
X35492672Y-75804838D01*
X35557559Y-75777962D01*
X35607221Y-75728300D01*
X35634097Y-75663413D01*
X35634097Y-75593181D01*
X35607221Y-75528294D01*
X35557559Y-75478632D01*
X35492672Y-75451756D01*
X35457556Y-75448297D01*
X34780078Y-75450923D01*
X34776954Y-73793181D01*
X34750078Y-73728294D01*
X34700416Y-73678632D01*
X34635529Y-73651756D01*
X34565297Y-73651756D01*
X34500410Y-73678632D01*
X34450748Y-73728294D01*
X34423872Y-73793181D01*
X34420413Y-73828297D01*
X34220413Y-73828297D01*
X34220413Y-73451756D01*
X36008984Y-73451756D01*
X36008984Y-84701555D01*
G37*
D13*
X62790653Y-39815828D02*
X62290653Y-39101542D01*
X61933510Y-39815828D02*
X61933510Y-38315828D01*
X61933510Y-38315828D02*
X62504939Y-38315828D01*
X62504939Y-38315828D02*
X62647796Y-38387257D01*
X62647796Y-38387257D02*
X62719225Y-38458685D01*
X62719225Y-38458685D02*
X62790653Y-38601542D01*
X62790653Y-38601542D02*
X62790653Y-38815828D01*
X62790653Y-38815828D02*
X62719225Y-38958685D01*
X62719225Y-38958685D02*
X62647796Y-39030114D01*
X62647796Y-39030114D02*
X62504939Y-39101542D01*
X62504939Y-39101542D02*
X61933510Y-39101542D01*
X64219225Y-39815828D02*
X63362082Y-39815828D01*
X63790653Y-39815828D02*
X63790653Y-38315828D01*
X63790653Y-38315828D02*
X63647796Y-38530114D01*
X63647796Y-38530114D02*
X63504939Y-38672971D01*
X63504939Y-38672971D02*
X63362082Y-38744400D01*
X64862081Y-39672971D02*
X64933510Y-39744400D01*
X64933510Y-39744400D02*
X64862081Y-39815828D01*
X64862081Y-39815828D02*
X64790653Y-39744400D01*
X64790653Y-39744400D02*
X64862081Y-39672971D01*
X64862081Y-39672971D02*
X64862081Y-39815828D01*
X65862082Y-38315828D02*
X66004939Y-38315828D01*
X66004939Y-38315828D02*
X66147796Y-38387257D01*
X66147796Y-38387257D02*
X66219225Y-38458685D01*
X66219225Y-38458685D02*
X66290653Y-38601542D01*
X66290653Y-38601542D02*
X66362082Y-38887257D01*
X66362082Y-38887257D02*
X66362082Y-39244400D01*
X66362082Y-39244400D02*
X66290653Y-39530114D01*
X66290653Y-39530114D02*
X66219225Y-39672971D01*
X66219225Y-39672971D02*
X66147796Y-39744400D01*
X66147796Y-39744400D02*
X66004939Y-39815828D01*
X66004939Y-39815828D02*
X65862082Y-39815828D01*
X65862082Y-39815828D02*
X65719225Y-39744400D01*
X65719225Y-39744400D02*
X65647796Y-39672971D01*
X65647796Y-39672971D02*
X65576367Y-39530114D01*
X65576367Y-39530114D02*
X65504939Y-39244400D01*
X65504939Y-39244400D02*
X65504939Y-38887257D01*
X65504939Y-38887257D02*
X65576367Y-38601542D01*
X65576367Y-38601542D02*
X65647796Y-38458685D01*
X65647796Y-38458685D02*
X65719225Y-38387257D01*
X65719225Y-38387257D02*
X65862082Y-38315828D01*
X61862082Y-37101257D02*
X62576368Y-37101257D01*
X61719225Y-37529828D02*
X62219225Y-36029828D01*
X62219225Y-36029828D02*
X62719225Y-37529828D01*
X64076367Y-37386971D02*
X64004939Y-37458400D01*
X64004939Y-37458400D02*
X63790653Y-37529828D01*
X63790653Y-37529828D02*
X63647796Y-37529828D01*
X63647796Y-37529828D02*
X63433510Y-37458400D01*
X63433510Y-37458400D02*
X63290653Y-37315542D01*
X63290653Y-37315542D02*
X63219224Y-37172685D01*
X63219224Y-37172685D02*
X63147796Y-36886971D01*
X63147796Y-36886971D02*
X63147796Y-36672685D01*
X63147796Y-36672685D02*
X63219224Y-36386971D01*
X63219224Y-36386971D02*
X63290653Y-36244114D01*
X63290653Y-36244114D02*
X63433510Y-36101257D01*
X63433510Y-36101257D02*
X63647796Y-36029828D01*
X63647796Y-36029828D02*
X63790653Y-36029828D01*
X63790653Y-36029828D02*
X64004939Y-36101257D01*
X64004939Y-36101257D02*
X64076367Y-36172685D01*
X64719224Y-37529828D02*
X64719224Y-36029828D01*
X64719224Y-36029828D02*
X65076367Y-36029828D01*
X65076367Y-36029828D02*
X65290653Y-36101257D01*
X65290653Y-36101257D02*
X65433510Y-36244114D01*
X65433510Y-36244114D02*
X65504939Y-36386971D01*
X65504939Y-36386971D02*
X65576367Y-36672685D01*
X65576367Y-36672685D02*
X65576367Y-36886971D01*
X65576367Y-36886971D02*
X65504939Y-37172685D01*
X65504939Y-37172685D02*
X65433510Y-37315542D01*
X65433510Y-37315542D02*
X65290653Y-37458400D01*
X65290653Y-37458400D02*
X65076367Y-37529828D01*
X65076367Y-37529828D02*
X64719224Y-37529828D01*
X67076367Y-37386971D02*
X67004939Y-37458400D01*
X67004939Y-37458400D02*
X66790653Y-37529828D01*
X66790653Y-37529828D02*
X66647796Y-37529828D01*
X66647796Y-37529828D02*
X66433510Y-37458400D01*
X66433510Y-37458400D02*
X66290653Y-37315542D01*
X66290653Y-37315542D02*
X66219224Y-37172685D01*
X66219224Y-37172685D02*
X66147796Y-36886971D01*
X66147796Y-36886971D02*
X66147796Y-36672685D01*
X66147796Y-36672685D02*
X66219224Y-36386971D01*
X66219224Y-36386971D02*
X66290653Y-36244114D01*
X66290653Y-36244114D02*
X66433510Y-36101257D01*
X66433510Y-36101257D02*
X66647796Y-36029828D01*
X66647796Y-36029828D02*
X66790653Y-36029828D01*
X66790653Y-36029828D02*
X67004939Y-36101257D01*
X67004939Y-36101257D02*
X67076367Y-36172685D01*
X67719224Y-36958400D02*
X68862082Y-36958400D01*
X70362082Y-37529828D02*
X69504939Y-37529828D01*
X69933510Y-37529828D02*
X69933510Y-36029828D01*
X69933510Y-36029828D02*
X69790653Y-36244114D01*
X69790653Y-36244114D02*
X69647796Y-36386971D01*
X69647796Y-36386971D02*
X69504939Y-36458400D01*
X70933510Y-36172685D02*
X71004938Y-36101257D01*
X71004938Y-36101257D02*
X71147796Y-36029828D01*
X71147796Y-36029828D02*
X71504938Y-36029828D01*
X71504938Y-36029828D02*
X71647796Y-36101257D01*
X71647796Y-36101257D02*
X71719224Y-36172685D01*
X71719224Y-36172685D02*
X71790653Y-36315542D01*
X71790653Y-36315542D02*
X71790653Y-36458400D01*
X71790653Y-36458400D02*
X71719224Y-36672685D01*
X71719224Y-36672685D02*
X70862081Y-37529828D01*
X70862081Y-37529828D02*
X71790653Y-37529828D01*
X72719224Y-36029828D02*
X72862081Y-36029828D01*
X72862081Y-36029828D02*
X73004938Y-36101257D01*
X73004938Y-36101257D02*
X73076367Y-36172685D01*
X73076367Y-36172685D02*
X73147795Y-36315542D01*
X73147795Y-36315542D02*
X73219224Y-36601257D01*
X73219224Y-36601257D02*
X73219224Y-36958400D01*
X73219224Y-36958400D02*
X73147795Y-37244114D01*
X73147795Y-37244114D02*
X73076367Y-37386971D01*
X73076367Y-37386971D02*
X73004938Y-37458400D01*
X73004938Y-37458400D02*
X72862081Y-37529828D01*
X72862081Y-37529828D02*
X72719224Y-37529828D01*
X72719224Y-37529828D02*
X72576367Y-37458400D01*
X72576367Y-37458400D02*
X72504938Y-37386971D01*
X72504938Y-37386971D02*
X72433509Y-37244114D01*
X72433509Y-37244114D02*
X72362081Y-36958400D01*
X72362081Y-36958400D02*
X72362081Y-36601257D01*
X72362081Y-36601257D02*
X72433509Y-36315542D01*
X72433509Y-36315542D02*
X72504938Y-36172685D01*
X72504938Y-36172685D02*
X72576367Y-36101257D01*
X72576367Y-36101257D02*
X72719224Y-36029828D01*
X73862080Y-36958400D02*
X75004938Y-36958400D01*
X75647795Y-36172685D02*
X75719223Y-36101257D01*
X75719223Y-36101257D02*
X75862081Y-36029828D01*
X75862081Y-36029828D02*
X76219223Y-36029828D01*
X76219223Y-36029828D02*
X76362081Y-36101257D01*
X76362081Y-36101257D02*
X76433509Y-36172685D01*
X76433509Y-36172685D02*
X76504938Y-36315542D01*
X76504938Y-36315542D02*
X76504938Y-36458400D01*
X76504938Y-36458400D02*
X76433509Y-36672685D01*
X76433509Y-36672685D02*
X75576366Y-37529828D01*
X75576366Y-37529828D02*
X76504938Y-37529828D01*
X77790652Y-36529828D02*
X77790652Y-37529828D01*
X77433509Y-35958400D02*
X77076366Y-37029828D01*
X77076366Y-37029828D02*
X78004937Y-37029828D01*
D10*
X100631819Y-117642057D02*
X100155628Y-117975390D01*
X100631819Y-118213485D02*
X99631819Y-118213485D01*
X99631819Y-118213485D02*
X99631819Y-117832533D01*
X99631819Y-117832533D02*
X99679438Y-117737295D01*
X99679438Y-117737295D02*
X99727057Y-117689676D01*
X99727057Y-117689676D02*
X99822295Y-117642057D01*
X99822295Y-117642057D02*
X99965152Y-117642057D01*
X99965152Y-117642057D02*
X100060390Y-117689676D01*
X100060390Y-117689676D02*
X100108009Y-117737295D01*
X100108009Y-117737295D02*
X100155628Y-117832533D01*
X100155628Y-117832533D02*
X100155628Y-118213485D01*
X100631819Y-116689676D02*
X100631819Y-117261104D01*
X100631819Y-116975390D02*
X99631819Y-116975390D01*
X99631819Y-116975390D02*
X99774676Y-117070628D01*
X99774676Y-117070628D02*
X99869914Y-117165866D01*
X99869914Y-117165866D02*
X99917533Y-117261104D01*
X99631819Y-115784914D02*
X99631819Y-116261104D01*
X99631819Y-116261104D02*
X100108009Y-116308723D01*
X100108009Y-116308723D02*
X100060390Y-116261104D01*
X100060390Y-116261104D02*
X100012771Y-116165866D01*
X100012771Y-116165866D02*
X100012771Y-115927771D01*
X100012771Y-115927771D02*
X100060390Y-115832533D01*
X100060390Y-115832533D02*
X100108009Y-115784914D01*
X100108009Y-115784914D02*
X100203247Y-115737295D01*
X100203247Y-115737295D02*
X100441342Y-115737295D01*
X100441342Y-115737295D02*
X100536580Y-115784914D01*
X100536580Y-115784914D02*
X100584200Y-115832533D01*
X100584200Y-115832533D02*
X100631819Y-115927771D01*
X100631819Y-115927771D02*
X100631819Y-116165866D01*
X100631819Y-116165866D02*
X100584200Y-116261104D01*
X100584200Y-116261104D02*
X100536580Y-116308723D01*
X101901819Y-114848057D02*
X101425628Y-115181390D01*
X101901819Y-115419485D02*
X100901819Y-115419485D01*
X100901819Y-115419485D02*
X100901819Y-115038533D01*
X100901819Y-115038533D02*
X100949438Y-114943295D01*
X100949438Y-114943295D02*
X100997057Y-114895676D01*
X100997057Y-114895676D02*
X101092295Y-114848057D01*
X101092295Y-114848057D02*
X101235152Y-114848057D01*
X101235152Y-114848057D02*
X101330390Y-114895676D01*
X101330390Y-114895676D02*
X101378009Y-114943295D01*
X101378009Y-114943295D02*
X101425628Y-115038533D01*
X101425628Y-115038533D02*
X101425628Y-115419485D01*
X101901819Y-113895676D02*
X101901819Y-114467104D01*
X101901819Y-114181390D02*
X100901819Y-114181390D01*
X100901819Y-114181390D02*
X101044676Y-114276628D01*
X101044676Y-114276628D02*
X101139914Y-114371866D01*
X101139914Y-114371866D02*
X101187533Y-114467104D01*
X100901819Y-113562342D02*
X100901819Y-112895676D01*
X100901819Y-112895676D02*
X101901819Y-113324247D01*
X60042142Y-95515819D02*
X59708809Y-95039628D01*
X59470714Y-95515819D02*
X59470714Y-94515819D01*
X59470714Y-94515819D02*
X59851666Y-94515819D01*
X59851666Y-94515819D02*
X59946904Y-94563438D01*
X59946904Y-94563438D02*
X59994523Y-94611057D01*
X59994523Y-94611057D02*
X60042142Y-94706295D01*
X60042142Y-94706295D02*
X60042142Y-94849152D01*
X60042142Y-94849152D02*
X59994523Y-94944390D01*
X59994523Y-94944390D02*
X59946904Y-94992009D01*
X59946904Y-94992009D02*
X59851666Y-95039628D01*
X59851666Y-95039628D02*
X59470714Y-95039628D01*
X60423095Y-94611057D02*
X60470714Y-94563438D01*
X60470714Y-94563438D02*
X60565952Y-94515819D01*
X60565952Y-94515819D02*
X60804047Y-94515819D01*
X60804047Y-94515819D02*
X60899285Y-94563438D01*
X60899285Y-94563438D02*
X60946904Y-94611057D01*
X60946904Y-94611057D02*
X60994523Y-94706295D01*
X60994523Y-94706295D02*
X60994523Y-94801533D01*
X60994523Y-94801533D02*
X60946904Y-94944390D01*
X60946904Y-94944390D02*
X60375476Y-95515819D01*
X60375476Y-95515819D02*
X60994523Y-95515819D01*
X61327857Y-94515819D02*
X61946904Y-94515819D01*
X61946904Y-94515819D02*
X61613571Y-94896771D01*
X61613571Y-94896771D02*
X61756428Y-94896771D01*
X61756428Y-94896771D02*
X61851666Y-94944390D01*
X61851666Y-94944390D02*
X61899285Y-94992009D01*
X61899285Y-94992009D02*
X61946904Y-95087247D01*
X61946904Y-95087247D02*
X61946904Y-95325342D01*
X61946904Y-95325342D02*
X61899285Y-95420580D01*
X61899285Y-95420580D02*
X61851666Y-95468200D01*
X61851666Y-95468200D02*
X61756428Y-95515819D01*
X61756428Y-95515819D02*
X61470714Y-95515819D01*
X61470714Y-95515819D02*
X61375476Y-95468200D01*
X61375476Y-95468200D02*
X61327857Y-95420580D01*
X86542142Y-116515819D02*
X86208809Y-116039628D01*
X85970714Y-116515819D02*
X85970714Y-115515819D01*
X85970714Y-115515819D02*
X86351666Y-115515819D01*
X86351666Y-115515819D02*
X86446904Y-115563438D01*
X86446904Y-115563438D02*
X86494523Y-115611057D01*
X86494523Y-115611057D02*
X86542142Y-115706295D01*
X86542142Y-115706295D02*
X86542142Y-115849152D01*
X86542142Y-115849152D02*
X86494523Y-115944390D01*
X86494523Y-115944390D02*
X86446904Y-115992009D01*
X86446904Y-115992009D02*
X86351666Y-116039628D01*
X86351666Y-116039628D02*
X85970714Y-116039628D01*
X87494523Y-116515819D02*
X86923095Y-116515819D01*
X87208809Y-116515819D02*
X87208809Y-115515819D01*
X87208809Y-115515819D02*
X87113571Y-115658676D01*
X87113571Y-115658676D02*
X87018333Y-115753914D01*
X87018333Y-115753914D02*
X86923095Y-115801533D01*
X87875476Y-115611057D02*
X87923095Y-115563438D01*
X87923095Y-115563438D02*
X88018333Y-115515819D01*
X88018333Y-115515819D02*
X88256428Y-115515819D01*
X88256428Y-115515819D02*
X88351666Y-115563438D01*
X88351666Y-115563438D02*
X88399285Y-115611057D01*
X88399285Y-115611057D02*
X88446904Y-115706295D01*
X88446904Y-115706295D02*
X88446904Y-115801533D01*
X88446904Y-115801533D02*
X88399285Y-115944390D01*
X88399285Y-115944390D02*
X87827857Y-116515819D01*
X87827857Y-116515819D02*
X88446904Y-116515819D01*
X100504819Y-114848057D02*
X100028628Y-115181390D01*
X100504819Y-115419485D02*
X99504819Y-115419485D01*
X99504819Y-115419485D02*
X99504819Y-115038533D01*
X99504819Y-115038533D02*
X99552438Y-114943295D01*
X99552438Y-114943295D02*
X99600057Y-114895676D01*
X99600057Y-114895676D02*
X99695295Y-114848057D01*
X99695295Y-114848057D02*
X99838152Y-114848057D01*
X99838152Y-114848057D02*
X99933390Y-114895676D01*
X99933390Y-114895676D02*
X99981009Y-114943295D01*
X99981009Y-114943295D02*
X100028628Y-115038533D01*
X100028628Y-115038533D02*
X100028628Y-115419485D01*
X100504819Y-113895676D02*
X100504819Y-114467104D01*
X100504819Y-114181390D02*
X99504819Y-114181390D01*
X99504819Y-114181390D02*
X99647676Y-114276628D01*
X99647676Y-114276628D02*
X99742914Y-114371866D01*
X99742914Y-114371866D02*
X99790533Y-114467104D01*
X99933390Y-113324247D02*
X99885771Y-113419485D01*
X99885771Y-113419485D02*
X99838152Y-113467104D01*
X99838152Y-113467104D02*
X99742914Y-113514723D01*
X99742914Y-113514723D02*
X99695295Y-113514723D01*
X99695295Y-113514723D02*
X99600057Y-113467104D01*
X99600057Y-113467104D02*
X99552438Y-113419485D01*
X99552438Y-113419485D02*
X99504819Y-113324247D01*
X99504819Y-113324247D02*
X99504819Y-113133771D01*
X99504819Y-113133771D02*
X99552438Y-113038533D01*
X99552438Y-113038533D02*
X99600057Y-112990914D01*
X99600057Y-112990914D02*
X99695295Y-112943295D01*
X99695295Y-112943295D02*
X99742914Y-112943295D01*
X99742914Y-112943295D02*
X99838152Y-112990914D01*
X99838152Y-112990914D02*
X99885771Y-113038533D01*
X99885771Y-113038533D02*
X99933390Y-113133771D01*
X99933390Y-113133771D02*
X99933390Y-113324247D01*
X99933390Y-113324247D02*
X99981009Y-113419485D01*
X99981009Y-113419485D02*
X100028628Y-113467104D01*
X100028628Y-113467104D02*
X100123866Y-113514723D01*
X100123866Y-113514723D02*
X100314342Y-113514723D01*
X100314342Y-113514723D02*
X100409580Y-113467104D01*
X100409580Y-113467104D02*
X100457200Y-113419485D01*
X100457200Y-113419485D02*
X100504819Y-113324247D01*
X100504819Y-113324247D02*
X100504819Y-113133771D01*
X100504819Y-113133771D02*
X100457200Y-113038533D01*
X100457200Y-113038533D02*
X100409580Y-112990914D01*
X100409580Y-112990914D02*
X100314342Y-112943295D01*
X100314342Y-112943295D02*
X100123866Y-112943295D01*
X100123866Y-112943295D02*
X100028628Y-112990914D01*
X100028628Y-112990914D02*
X99981009Y-113038533D01*
X99981009Y-113038533D02*
X99933390Y-113133771D01*
X95259333Y-95067819D02*
X94926000Y-94591628D01*
X94687905Y-95067819D02*
X94687905Y-94067819D01*
X94687905Y-94067819D02*
X95068857Y-94067819D01*
X95068857Y-94067819D02*
X95164095Y-94115438D01*
X95164095Y-94115438D02*
X95211714Y-94163057D01*
X95211714Y-94163057D02*
X95259333Y-94258295D01*
X95259333Y-94258295D02*
X95259333Y-94401152D01*
X95259333Y-94401152D02*
X95211714Y-94496390D01*
X95211714Y-94496390D02*
X95164095Y-94544009D01*
X95164095Y-94544009D02*
X95068857Y-94591628D01*
X95068857Y-94591628D02*
X94687905Y-94591628D01*
X96116476Y-94067819D02*
X95926000Y-94067819D01*
X95926000Y-94067819D02*
X95830762Y-94115438D01*
X95830762Y-94115438D02*
X95783143Y-94163057D01*
X95783143Y-94163057D02*
X95687905Y-94305914D01*
X95687905Y-94305914D02*
X95640286Y-94496390D01*
X95640286Y-94496390D02*
X95640286Y-94877342D01*
X95640286Y-94877342D02*
X95687905Y-94972580D01*
X95687905Y-94972580D02*
X95735524Y-95020200D01*
X95735524Y-95020200D02*
X95830762Y-95067819D01*
X95830762Y-95067819D02*
X96021238Y-95067819D01*
X96021238Y-95067819D02*
X96116476Y-95020200D01*
X96116476Y-95020200D02*
X96164095Y-94972580D01*
X96164095Y-94972580D02*
X96211714Y-94877342D01*
X96211714Y-94877342D02*
X96211714Y-94639247D01*
X96211714Y-94639247D02*
X96164095Y-94544009D01*
X96164095Y-94544009D02*
X96116476Y-94496390D01*
X96116476Y-94496390D02*
X96021238Y-94448771D01*
X96021238Y-94448771D02*
X95830762Y-94448771D01*
X95830762Y-94448771D02*
X95735524Y-94496390D01*
X95735524Y-94496390D02*
X95687905Y-94544009D01*
X95687905Y-94544009D02*
X95640286Y-94639247D01*
X102804905Y-46438819D02*
X102804905Y-45438819D01*
X102804905Y-45438819D02*
X103043000Y-45438819D01*
X103043000Y-45438819D02*
X103185857Y-45486438D01*
X103185857Y-45486438D02*
X103281095Y-45581676D01*
X103281095Y-45581676D02*
X103328714Y-45676914D01*
X103328714Y-45676914D02*
X103376333Y-45867390D01*
X103376333Y-45867390D02*
X103376333Y-46010247D01*
X103376333Y-46010247D02*
X103328714Y-46200723D01*
X103328714Y-46200723D02*
X103281095Y-46295961D01*
X103281095Y-46295961D02*
X103185857Y-46391200D01*
X103185857Y-46391200D02*
X103043000Y-46438819D01*
X103043000Y-46438819D02*
X102804905Y-46438819D01*
X104233476Y-45438819D02*
X104043000Y-45438819D01*
X104043000Y-45438819D02*
X103947762Y-45486438D01*
X103947762Y-45486438D02*
X103900143Y-45534057D01*
X103900143Y-45534057D02*
X103804905Y-45676914D01*
X103804905Y-45676914D02*
X103757286Y-45867390D01*
X103757286Y-45867390D02*
X103757286Y-46248342D01*
X103757286Y-46248342D02*
X103804905Y-46343580D01*
X103804905Y-46343580D02*
X103852524Y-46391200D01*
X103852524Y-46391200D02*
X103947762Y-46438819D01*
X103947762Y-46438819D02*
X104138238Y-46438819D01*
X104138238Y-46438819D02*
X104233476Y-46391200D01*
X104233476Y-46391200D02*
X104281095Y-46343580D01*
X104281095Y-46343580D02*
X104328714Y-46248342D01*
X104328714Y-46248342D02*
X104328714Y-46010247D01*
X104328714Y-46010247D02*
X104281095Y-45915009D01*
X104281095Y-45915009D02*
X104233476Y-45867390D01*
X104233476Y-45867390D02*
X104138238Y-45819771D01*
X104138238Y-45819771D02*
X103947762Y-45819771D01*
X103947762Y-45819771D02*
X103852524Y-45867390D01*
X103852524Y-45867390D02*
X103804905Y-45915009D01*
X103804905Y-45915009D02*
X103757286Y-46010247D01*
X78325095Y-111803819D02*
X78896523Y-111803819D01*
X78610809Y-112803819D02*
X78610809Y-111803819D01*
X79801285Y-112803819D02*
X79467952Y-112327628D01*
X79229857Y-112803819D02*
X79229857Y-111803819D01*
X79229857Y-111803819D02*
X79610809Y-111803819D01*
X79610809Y-111803819D02*
X79706047Y-111851438D01*
X79706047Y-111851438D02*
X79753666Y-111899057D01*
X79753666Y-111899057D02*
X79801285Y-111994295D01*
X79801285Y-111994295D02*
X79801285Y-112137152D01*
X79801285Y-112137152D02*
X79753666Y-112232390D01*
X79753666Y-112232390D02*
X79706047Y-112280009D01*
X79706047Y-112280009D02*
X79610809Y-112327628D01*
X79610809Y-112327628D02*
X79229857Y-112327628D01*
X80753666Y-112803819D02*
X80182238Y-112803819D01*
X80467952Y-112803819D02*
X80467952Y-111803819D01*
X80467952Y-111803819D02*
X80372714Y-111946676D01*
X80372714Y-111946676D02*
X80277476Y-112041914D01*
X80277476Y-112041914D02*
X80182238Y-112089533D01*
X35645666Y-70807009D02*
X35312333Y-70807009D01*
X35312333Y-71330819D02*
X35312333Y-70330819D01*
X35312333Y-70330819D02*
X35788523Y-70330819D01*
X36693285Y-71330819D02*
X36121857Y-71330819D01*
X36407571Y-71330819D02*
X36407571Y-70330819D01*
X36407571Y-70330819D02*
X36312333Y-70473676D01*
X36312333Y-70473676D02*
X36217095Y-70568914D01*
X36217095Y-70568914D02*
X36121857Y-70616533D01*
X102544580Y-105203857D02*
X102592200Y-105251476D01*
X102592200Y-105251476D02*
X102639819Y-105394333D01*
X102639819Y-105394333D02*
X102639819Y-105489571D01*
X102639819Y-105489571D02*
X102592200Y-105632428D01*
X102592200Y-105632428D02*
X102496961Y-105727666D01*
X102496961Y-105727666D02*
X102401723Y-105775285D01*
X102401723Y-105775285D02*
X102211247Y-105822904D01*
X102211247Y-105822904D02*
X102068390Y-105822904D01*
X102068390Y-105822904D02*
X101877914Y-105775285D01*
X101877914Y-105775285D02*
X101782676Y-105727666D01*
X101782676Y-105727666D02*
X101687438Y-105632428D01*
X101687438Y-105632428D02*
X101639819Y-105489571D01*
X101639819Y-105489571D02*
X101639819Y-105394333D01*
X101639819Y-105394333D02*
X101687438Y-105251476D01*
X101687438Y-105251476D02*
X101735057Y-105203857D01*
X102639819Y-104251476D02*
X102639819Y-104822904D01*
X102639819Y-104537190D02*
X101639819Y-104537190D01*
X101639819Y-104537190D02*
X101782676Y-104632428D01*
X101782676Y-104632428D02*
X101877914Y-104727666D01*
X101877914Y-104727666D02*
X101925533Y-104822904D01*
X101639819Y-103918142D02*
X101639819Y-103251476D01*
X101639819Y-103251476D02*
X102639819Y-103680047D01*
X46559761Y-80220819D02*
X46226428Y-79744628D01*
X45988333Y-80220819D02*
X45988333Y-79220819D01*
X45988333Y-79220819D02*
X46369285Y-79220819D01*
X46369285Y-79220819D02*
X46464523Y-79268438D01*
X46464523Y-79268438D02*
X46512142Y-79316057D01*
X46512142Y-79316057D02*
X46559761Y-79411295D01*
X46559761Y-79411295D02*
X46559761Y-79554152D01*
X46559761Y-79554152D02*
X46512142Y-79649390D01*
X46512142Y-79649390D02*
X46464523Y-79697009D01*
X46464523Y-79697009D02*
X46369285Y-79744628D01*
X46369285Y-79744628D02*
X45988333Y-79744628D01*
X46845476Y-79220819D02*
X47178809Y-80220819D01*
X47178809Y-80220819D02*
X47512142Y-79220819D01*
X48369285Y-80220819D02*
X47797857Y-80220819D01*
X48083571Y-80220819D02*
X48083571Y-79220819D01*
X48083571Y-79220819D02*
X47988333Y-79363676D01*
X47988333Y-79363676D02*
X47893095Y-79458914D01*
X47893095Y-79458914D02*
X47797857Y-79506533D01*
X76544580Y-94727666D02*
X76592200Y-94775285D01*
X76592200Y-94775285D02*
X76639819Y-94918142D01*
X76639819Y-94918142D02*
X76639819Y-95013380D01*
X76639819Y-95013380D02*
X76592200Y-95156237D01*
X76592200Y-95156237D02*
X76496961Y-95251475D01*
X76496961Y-95251475D02*
X76401723Y-95299094D01*
X76401723Y-95299094D02*
X76211247Y-95346713D01*
X76211247Y-95346713D02*
X76068390Y-95346713D01*
X76068390Y-95346713D02*
X75877914Y-95299094D01*
X75877914Y-95299094D02*
X75782676Y-95251475D01*
X75782676Y-95251475D02*
X75687438Y-95156237D01*
X75687438Y-95156237D02*
X75639819Y-95013380D01*
X75639819Y-95013380D02*
X75639819Y-94918142D01*
X75639819Y-94918142D02*
X75687438Y-94775285D01*
X75687438Y-94775285D02*
X75735057Y-94727666D01*
X75735057Y-94346713D02*
X75687438Y-94299094D01*
X75687438Y-94299094D02*
X75639819Y-94203856D01*
X75639819Y-94203856D02*
X75639819Y-93965761D01*
X75639819Y-93965761D02*
X75687438Y-93870523D01*
X75687438Y-93870523D02*
X75735057Y-93822904D01*
X75735057Y-93822904D02*
X75830295Y-93775285D01*
X75830295Y-93775285D02*
X75925533Y-93775285D01*
X75925533Y-93775285D02*
X76068390Y-93822904D01*
X76068390Y-93822904D02*
X76639819Y-94394332D01*
X76639819Y-94394332D02*
X76639819Y-93775285D01*
X50520667Y-46137200D02*
X50663524Y-46184819D01*
X50663524Y-46184819D02*
X50901619Y-46184819D01*
X50901619Y-46184819D02*
X50996857Y-46137200D01*
X50996857Y-46137200D02*
X51044476Y-46089580D01*
X51044476Y-46089580D02*
X51092095Y-45994342D01*
X51092095Y-45994342D02*
X51092095Y-45899104D01*
X51092095Y-45899104D02*
X51044476Y-45803866D01*
X51044476Y-45803866D02*
X50996857Y-45756247D01*
X50996857Y-45756247D02*
X50901619Y-45708628D01*
X50901619Y-45708628D02*
X50711143Y-45661009D01*
X50711143Y-45661009D02*
X50615905Y-45613390D01*
X50615905Y-45613390D02*
X50568286Y-45565771D01*
X50568286Y-45565771D02*
X50520667Y-45470533D01*
X50520667Y-45470533D02*
X50520667Y-45375295D01*
X50520667Y-45375295D02*
X50568286Y-45280057D01*
X50568286Y-45280057D02*
X50615905Y-45232438D01*
X50615905Y-45232438D02*
X50711143Y-45184819D01*
X50711143Y-45184819D02*
X50949238Y-45184819D01*
X50949238Y-45184819D02*
X51092095Y-45232438D01*
X51425429Y-45184819D02*
X51663524Y-46184819D01*
X51663524Y-46184819D02*
X51854000Y-45470533D01*
X51854000Y-45470533D02*
X52044476Y-46184819D01*
X52044476Y-46184819D02*
X52282572Y-45184819D01*
X53187333Y-46184819D02*
X52615905Y-46184819D01*
X52901619Y-46184819D02*
X52901619Y-45184819D01*
X52901619Y-45184819D02*
X52806381Y-45327676D01*
X52806381Y-45327676D02*
X52711143Y-45422914D01*
X52711143Y-45422914D02*
X52615905Y-45470533D01*
X77406580Y-101727666D02*
X77454200Y-101775285D01*
X77454200Y-101775285D02*
X77501819Y-101918142D01*
X77501819Y-101918142D02*
X77501819Y-102013380D01*
X77501819Y-102013380D02*
X77454200Y-102156237D01*
X77454200Y-102156237D02*
X77358961Y-102251475D01*
X77358961Y-102251475D02*
X77263723Y-102299094D01*
X77263723Y-102299094D02*
X77073247Y-102346713D01*
X77073247Y-102346713D02*
X76930390Y-102346713D01*
X76930390Y-102346713D02*
X76739914Y-102299094D01*
X76739914Y-102299094D02*
X76644676Y-102251475D01*
X76644676Y-102251475D02*
X76549438Y-102156237D01*
X76549438Y-102156237D02*
X76501819Y-102013380D01*
X76501819Y-102013380D02*
X76501819Y-101918142D01*
X76501819Y-101918142D02*
X76549438Y-101775285D01*
X76549438Y-101775285D02*
X76597057Y-101727666D01*
X76835152Y-100870523D02*
X77501819Y-100870523D01*
X76454200Y-101108618D02*
X77168485Y-101346713D01*
X77168485Y-101346713D02*
X77168485Y-100727666D01*
X100865580Y-93816857D02*
X100913200Y-93864476D01*
X100913200Y-93864476D02*
X100960819Y-94007333D01*
X100960819Y-94007333D02*
X100960819Y-94102571D01*
X100960819Y-94102571D02*
X100913200Y-94245428D01*
X100913200Y-94245428D02*
X100817961Y-94340666D01*
X100817961Y-94340666D02*
X100722723Y-94388285D01*
X100722723Y-94388285D02*
X100532247Y-94435904D01*
X100532247Y-94435904D02*
X100389390Y-94435904D01*
X100389390Y-94435904D02*
X100198914Y-94388285D01*
X100198914Y-94388285D02*
X100103676Y-94340666D01*
X100103676Y-94340666D02*
X100008438Y-94245428D01*
X100008438Y-94245428D02*
X99960819Y-94102571D01*
X99960819Y-94102571D02*
X99960819Y-94007333D01*
X99960819Y-94007333D02*
X100008438Y-93864476D01*
X100008438Y-93864476D02*
X100056057Y-93816857D01*
X100960819Y-92864476D02*
X100960819Y-93435904D01*
X100960819Y-93150190D02*
X99960819Y-93150190D01*
X99960819Y-93150190D02*
X100103676Y-93245428D01*
X100103676Y-93245428D02*
X100198914Y-93340666D01*
X100198914Y-93340666D02*
X100246533Y-93435904D01*
X100056057Y-92483523D02*
X100008438Y-92435904D01*
X100008438Y-92435904D02*
X99960819Y-92340666D01*
X99960819Y-92340666D02*
X99960819Y-92102571D01*
X99960819Y-92102571D02*
X100008438Y-92007333D01*
X100008438Y-92007333D02*
X100056057Y-91959714D01*
X100056057Y-91959714D02*
X100151295Y-91912095D01*
X100151295Y-91912095D02*
X100246533Y-91912095D01*
X100246533Y-91912095D02*
X100389390Y-91959714D01*
X100389390Y-91959714D02*
X100960819Y-92531142D01*
X100960819Y-92531142D02*
X100960819Y-91912095D01*
X105544580Y-105203857D02*
X105592200Y-105251476D01*
X105592200Y-105251476D02*
X105639819Y-105394333D01*
X105639819Y-105394333D02*
X105639819Y-105489571D01*
X105639819Y-105489571D02*
X105592200Y-105632428D01*
X105592200Y-105632428D02*
X105496961Y-105727666D01*
X105496961Y-105727666D02*
X105401723Y-105775285D01*
X105401723Y-105775285D02*
X105211247Y-105822904D01*
X105211247Y-105822904D02*
X105068390Y-105822904D01*
X105068390Y-105822904D02*
X104877914Y-105775285D01*
X104877914Y-105775285D02*
X104782676Y-105727666D01*
X104782676Y-105727666D02*
X104687438Y-105632428D01*
X104687438Y-105632428D02*
X104639819Y-105489571D01*
X104639819Y-105489571D02*
X104639819Y-105394333D01*
X104639819Y-105394333D02*
X104687438Y-105251476D01*
X104687438Y-105251476D02*
X104735057Y-105203857D01*
X104735057Y-104822904D02*
X104687438Y-104775285D01*
X104687438Y-104775285D02*
X104639819Y-104680047D01*
X104639819Y-104680047D02*
X104639819Y-104441952D01*
X104639819Y-104441952D02*
X104687438Y-104346714D01*
X104687438Y-104346714D02*
X104735057Y-104299095D01*
X104735057Y-104299095D02*
X104830295Y-104251476D01*
X104830295Y-104251476D02*
X104925533Y-104251476D01*
X104925533Y-104251476D02*
X105068390Y-104299095D01*
X105068390Y-104299095D02*
X105639819Y-104870523D01*
X105639819Y-104870523D02*
X105639819Y-104251476D01*
X105639819Y-103299095D02*
X105639819Y-103870523D01*
X105639819Y-103584809D02*
X104639819Y-103584809D01*
X104639819Y-103584809D02*
X104782676Y-103680047D01*
X104782676Y-103680047D02*
X104877914Y-103775285D01*
X104877914Y-103775285D02*
X104925533Y-103870523D01*
X80708580Y-158457857D02*
X80756200Y-158505476D01*
X80756200Y-158505476D02*
X80803819Y-158648333D01*
X80803819Y-158648333D02*
X80803819Y-158743571D01*
X80803819Y-158743571D02*
X80756200Y-158886428D01*
X80756200Y-158886428D02*
X80660961Y-158981666D01*
X80660961Y-158981666D02*
X80565723Y-159029285D01*
X80565723Y-159029285D02*
X80375247Y-159076904D01*
X80375247Y-159076904D02*
X80232390Y-159076904D01*
X80232390Y-159076904D02*
X80041914Y-159029285D01*
X80041914Y-159029285D02*
X79946676Y-158981666D01*
X79946676Y-158981666D02*
X79851438Y-158886428D01*
X79851438Y-158886428D02*
X79803819Y-158743571D01*
X79803819Y-158743571D02*
X79803819Y-158648333D01*
X79803819Y-158648333D02*
X79851438Y-158505476D01*
X79851438Y-158505476D02*
X79899057Y-158457857D01*
X79899057Y-158076904D02*
X79851438Y-158029285D01*
X79851438Y-158029285D02*
X79803819Y-157934047D01*
X79803819Y-157934047D02*
X79803819Y-157695952D01*
X79803819Y-157695952D02*
X79851438Y-157600714D01*
X79851438Y-157600714D02*
X79899057Y-157553095D01*
X79899057Y-157553095D02*
X79994295Y-157505476D01*
X79994295Y-157505476D02*
X80089533Y-157505476D01*
X80089533Y-157505476D02*
X80232390Y-157553095D01*
X80232390Y-157553095D02*
X80803819Y-158124523D01*
X80803819Y-158124523D02*
X80803819Y-157505476D01*
X80803819Y-157029285D02*
X80803819Y-156838809D01*
X80803819Y-156838809D02*
X80756200Y-156743571D01*
X80756200Y-156743571D02*
X80708580Y-156695952D01*
X80708580Y-156695952D02*
X80565723Y-156600714D01*
X80565723Y-156600714D02*
X80375247Y-156553095D01*
X80375247Y-156553095D02*
X79994295Y-156553095D01*
X79994295Y-156553095D02*
X79899057Y-156600714D01*
X79899057Y-156600714D02*
X79851438Y-156648333D01*
X79851438Y-156648333D02*
X79803819Y-156743571D01*
X79803819Y-156743571D02*
X79803819Y-156934047D01*
X79803819Y-156934047D02*
X79851438Y-157029285D01*
X79851438Y-157029285D02*
X79899057Y-157076904D01*
X79899057Y-157076904D02*
X79994295Y-157124523D01*
X79994295Y-157124523D02*
X80232390Y-157124523D01*
X80232390Y-157124523D02*
X80327628Y-157076904D01*
X80327628Y-157076904D02*
X80375247Y-157029285D01*
X80375247Y-157029285D02*
X80422866Y-156934047D01*
X80422866Y-156934047D02*
X80422866Y-156743571D01*
X80422866Y-156743571D02*
X80375247Y-156648333D01*
X80375247Y-156648333D02*
X80327628Y-156600714D01*
X80327628Y-156600714D02*
X80232390Y-156553095D01*
X78044580Y-94703857D02*
X78092200Y-94751476D01*
X78092200Y-94751476D02*
X78139819Y-94894333D01*
X78139819Y-94894333D02*
X78139819Y-94989571D01*
X78139819Y-94989571D02*
X78092200Y-95132428D01*
X78092200Y-95132428D02*
X77996961Y-95227666D01*
X77996961Y-95227666D02*
X77901723Y-95275285D01*
X77901723Y-95275285D02*
X77711247Y-95322904D01*
X77711247Y-95322904D02*
X77568390Y-95322904D01*
X77568390Y-95322904D02*
X77377914Y-95275285D01*
X77377914Y-95275285D02*
X77282676Y-95227666D01*
X77282676Y-95227666D02*
X77187438Y-95132428D01*
X77187438Y-95132428D02*
X77139819Y-94989571D01*
X77139819Y-94989571D02*
X77139819Y-94894333D01*
X77139819Y-94894333D02*
X77187438Y-94751476D01*
X77187438Y-94751476D02*
X77235057Y-94703857D01*
X78139819Y-93751476D02*
X78139819Y-94322904D01*
X78139819Y-94037190D02*
X77139819Y-94037190D01*
X77139819Y-94037190D02*
X77282676Y-94132428D01*
X77282676Y-94132428D02*
X77377914Y-94227666D01*
X77377914Y-94227666D02*
X77425533Y-94322904D01*
X77139819Y-93132428D02*
X77139819Y-93037190D01*
X77139819Y-93037190D02*
X77187438Y-92941952D01*
X77187438Y-92941952D02*
X77235057Y-92894333D01*
X77235057Y-92894333D02*
X77330295Y-92846714D01*
X77330295Y-92846714D02*
X77520771Y-92799095D01*
X77520771Y-92799095D02*
X77758866Y-92799095D01*
X77758866Y-92799095D02*
X77949342Y-92846714D01*
X77949342Y-92846714D02*
X78044580Y-92894333D01*
X78044580Y-92894333D02*
X78092200Y-92941952D01*
X78092200Y-92941952D02*
X78139819Y-93037190D01*
X78139819Y-93037190D02*
X78139819Y-93132428D01*
X78139819Y-93132428D02*
X78092200Y-93227666D01*
X78092200Y-93227666D02*
X78044580Y-93275285D01*
X78044580Y-93275285D02*
X77949342Y-93322904D01*
X77949342Y-93322904D02*
X77758866Y-93370523D01*
X77758866Y-93370523D02*
X77520771Y-93370523D01*
X77520771Y-93370523D02*
X77330295Y-93322904D01*
X77330295Y-93322904D02*
X77235057Y-93275285D01*
X77235057Y-93275285D02*
X77187438Y-93227666D01*
X77187438Y-93227666D02*
X77139819Y-93132428D01*
X98542142Y-146920580D02*
X98494523Y-146968200D01*
X98494523Y-146968200D02*
X98351666Y-147015819D01*
X98351666Y-147015819D02*
X98256428Y-147015819D01*
X98256428Y-147015819D02*
X98113571Y-146968200D01*
X98113571Y-146968200D02*
X98018333Y-146872961D01*
X98018333Y-146872961D02*
X97970714Y-146777723D01*
X97970714Y-146777723D02*
X97923095Y-146587247D01*
X97923095Y-146587247D02*
X97923095Y-146444390D01*
X97923095Y-146444390D02*
X97970714Y-146253914D01*
X97970714Y-146253914D02*
X98018333Y-146158676D01*
X98018333Y-146158676D02*
X98113571Y-146063438D01*
X98113571Y-146063438D02*
X98256428Y-146015819D01*
X98256428Y-146015819D02*
X98351666Y-146015819D01*
X98351666Y-146015819D02*
X98494523Y-146063438D01*
X98494523Y-146063438D02*
X98542142Y-146111057D01*
X98923095Y-146111057D02*
X98970714Y-146063438D01*
X98970714Y-146063438D02*
X99065952Y-146015819D01*
X99065952Y-146015819D02*
X99304047Y-146015819D01*
X99304047Y-146015819D02*
X99399285Y-146063438D01*
X99399285Y-146063438D02*
X99446904Y-146111057D01*
X99446904Y-146111057D02*
X99494523Y-146206295D01*
X99494523Y-146206295D02*
X99494523Y-146301533D01*
X99494523Y-146301533D02*
X99446904Y-146444390D01*
X99446904Y-146444390D02*
X98875476Y-147015819D01*
X98875476Y-147015819D02*
X99494523Y-147015819D01*
X100351666Y-146015819D02*
X100161190Y-146015819D01*
X100161190Y-146015819D02*
X100065952Y-146063438D01*
X100065952Y-146063438D02*
X100018333Y-146111057D01*
X100018333Y-146111057D02*
X99923095Y-146253914D01*
X99923095Y-146253914D02*
X99875476Y-146444390D01*
X99875476Y-146444390D02*
X99875476Y-146825342D01*
X99875476Y-146825342D02*
X99923095Y-146920580D01*
X99923095Y-146920580D02*
X99970714Y-146968200D01*
X99970714Y-146968200D02*
X100065952Y-147015819D01*
X100065952Y-147015819D02*
X100256428Y-147015819D01*
X100256428Y-147015819D02*
X100351666Y-146968200D01*
X100351666Y-146968200D02*
X100399285Y-146920580D01*
X100399285Y-146920580D02*
X100446904Y-146825342D01*
X100446904Y-146825342D02*
X100446904Y-146587247D01*
X100446904Y-146587247D02*
X100399285Y-146492009D01*
X100399285Y-146492009D02*
X100351666Y-146444390D01*
X100351666Y-146444390D02*
X100256428Y-146396771D01*
X100256428Y-146396771D02*
X100065952Y-146396771D01*
X100065952Y-146396771D02*
X99970714Y-146444390D01*
X99970714Y-146444390D02*
X99923095Y-146492009D01*
X99923095Y-146492009D02*
X99875476Y-146587247D01*
X54608333Y-70092580D02*
X54560714Y-70140200D01*
X54560714Y-70140200D02*
X54417857Y-70187819D01*
X54417857Y-70187819D02*
X54322619Y-70187819D01*
X54322619Y-70187819D02*
X54179762Y-70140200D01*
X54179762Y-70140200D02*
X54084524Y-70044961D01*
X54084524Y-70044961D02*
X54036905Y-69949723D01*
X54036905Y-69949723D02*
X53989286Y-69759247D01*
X53989286Y-69759247D02*
X53989286Y-69616390D01*
X53989286Y-69616390D02*
X54036905Y-69425914D01*
X54036905Y-69425914D02*
X54084524Y-69330676D01*
X54084524Y-69330676D02*
X54179762Y-69235438D01*
X54179762Y-69235438D02*
X54322619Y-69187819D01*
X54322619Y-69187819D02*
X54417857Y-69187819D01*
X54417857Y-69187819D02*
X54560714Y-69235438D01*
X54560714Y-69235438D02*
X54608333Y-69283057D01*
X54941667Y-69187819D02*
X55608333Y-69187819D01*
X55608333Y-69187819D02*
X55179762Y-70187819D01*
X62018333Y-101015819D02*
X61685000Y-100539628D01*
X61446905Y-101015819D02*
X61446905Y-100015819D01*
X61446905Y-100015819D02*
X61827857Y-100015819D01*
X61827857Y-100015819D02*
X61923095Y-100063438D01*
X61923095Y-100063438D02*
X61970714Y-100111057D01*
X61970714Y-100111057D02*
X62018333Y-100206295D01*
X62018333Y-100206295D02*
X62018333Y-100349152D01*
X62018333Y-100349152D02*
X61970714Y-100444390D01*
X61970714Y-100444390D02*
X61923095Y-100492009D01*
X61923095Y-100492009D02*
X61827857Y-100539628D01*
X61827857Y-100539628D02*
X61446905Y-100539628D01*
X62351667Y-100015819D02*
X62970714Y-100015819D01*
X62970714Y-100015819D02*
X62637381Y-100396771D01*
X62637381Y-100396771D02*
X62780238Y-100396771D01*
X62780238Y-100396771D02*
X62875476Y-100444390D01*
X62875476Y-100444390D02*
X62923095Y-100492009D01*
X62923095Y-100492009D02*
X62970714Y-100587247D01*
X62970714Y-100587247D02*
X62970714Y-100825342D01*
X62970714Y-100825342D02*
X62923095Y-100920580D01*
X62923095Y-100920580D02*
X62875476Y-100968200D01*
X62875476Y-100968200D02*
X62780238Y-101015819D01*
X62780238Y-101015819D02*
X62494524Y-101015819D01*
X62494524Y-101015819D02*
X62399286Y-100968200D01*
X62399286Y-100968200D02*
X62351667Y-100920580D01*
X78676580Y-101727666D02*
X78724200Y-101775285D01*
X78724200Y-101775285D02*
X78771819Y-101918142D01*
X78771819Y-101918142D02*
X78771819Y-102013380D01*
X78771819Y-102013380D02*
X78724200Y-102156237D01*
X78724200Y-102156237D02*
X78628961Y-102251475D01*
X78628961Y-102251475D02*
X78533723Y-102299094D01*
X78533723Y-102299094D02*
X78343247Y-102346713D01*
X78343247Y-102346713D02*
X78200390Y-102346713D01*
X78200390Y-102346713D02*
X78009914Y-102299094D01*
X78009914Y-102299094D02*
X77914676Y-102251475D01*
X77914676Y-102251475D02*
X77819438Y-102156237D01*
X77819438Y-102156237D02*
X77771819Y-102013380D01*
X77771819Y-102013380D02*
X77771819Y-101918142D01*
X77771819Y-101918142D02*
X77819438Y-101775285D01*
X77819438Y-101775285D02*
X77867057Y-101727666D01*
X77771819Y-100822904D02*
X77771819Y-101299094D01*
X77771819Y-101299094D02*
X78248009Y-101346713D01*
X78248009Y-101346713D02*
X78200390Y-101299094D01*
X78200390Y-101299094D02*
X78152771Y-101203856D01*
X78152771Y-101203856D02*
X78152771Y-100965761D01*
X78152771Y-100965761D02*
X78200390Y-100870523D01*
X78200390Y-100870523D02*
X78248009Y-100822904D01*
X78248009Y-100822904D02*
X78343247Y-100775285D01*
X78343247Y-100775285D02*
X78581342Y-100775285D01*
X78581342Y-100775285D02*
X78676580Y-100822904D01*
X78676580Y-100822904D02*
X78724200Y-100870523D01*
X78724200Y-100870523D02*
X78771819Y-100965761D01*
X78771819Y-100965761D02*
X78771819Y-101203856D01*
X78771819Y-101203856D02*
X78724200Y-101299094D01*
X78724200Y-101299094D02*
X78676580Y-101346713D01*
X62018333Y-102515819D02*
X61685000Y-102039628D01*
X61446905Y-102515819D02*
X61446905Y-101515819D01*
X61446905Y-101515819D02*
X61827857Y-101515819D01*
X61827857Y-101515819D02*
X61923095Y-101563438D01*
X61923095Y-101563438D02*
X61970714Y-101611057D01*
X61970714Y-101611057D02*
X62018333Y-101706295D01*
X62018333Y-101706295D02*
X62018333Y-101849152D01*
X62018333Y-101849152D02*
X61970714Y-101944390D01*
X61970714Y-101944390D02*
X61923095Y-101992009D01*
X61923095Y-101992009D02*
X61827857Y-102039628D01*
X61827857Y-102039628D02*
X61446905Y-102039628D01*
X62399286Y-101611057D02*
X62446905Y-101563438D01*
X62446905Y-101563438D02*
X62542143Y-101515819D01*
X62542143Y-101515819D02*
X62780238Y-101515819D01*
X62780238Y-101515819D02*
X62875476Y-101563438D01*
X62875476Y-101563438D02*
X62923095Y-101611057D01*
X62923095Y-101611057D02*
X62970714Y-101706295D01*
X62970714Y-101706295D02*
X62970714Y-101801533D01*
X62970714Y-101801533D02*
X62923095Y-101944390D01*
X62923095Y-101944390D02*
X62351667Y-102515819D01*
X62351667Y-102515819D02*
X62970714Y-102515819D01*
X66946905Y-101515819D02*
X66946905Y-100515819D01*
X66946905Y-100515819D02*
X67185000Y-100515819D01*
X67185000Y-100515819D02*
X67327857Y-100563438D01*
X67327857Y-100563438D02*
X67423095Y-100658676D01*
X67423095Y-100658676D02*
X67470714Y-100753914D01*
X67470714Y-100753914D02*
X67518333Y-100944390D01*
X67518333Y-100944390D02*
X67518333Y-101087247D01*
X67518333Y-101087247D02*
X67470714Y-101277723D01*
X67470714Y-101277723D02*
X67423095Y-101372961D01*
X67423095Y-101372961D02*
X67327857Y-101468200D01*
X67327857Y-101468200D02*
X67185000Y-101515819D01*
X67185000Y-101515819D02*
X66946905Y-101515819D01*
X68375476Y-100849152D02*
X68375476Y-101515819D01*
X68137381Y-100468200D02*
X67899286Y-101182485D01*
X67899286Y-101182485D02*
X68518333Y-101182485D01*
X109542142Y-135420580D02*
X109494523Y-135468200D01*
X109494523Y-135468200D02*
X109351666Y-135515819D01*
X109351666Y-135515819D02*
X109256428Y-135515819D01*
X109256428Y-135515819D02*
X109113571Y-135468200D01*
X109113571Y-135468200D02*
X109018333Y-135372961D01*
X109018333Y-135372961D02*
X108970714Y-135277723D01*
X108970714Y-135277723D02*
X108923095Y-135087247D01*
X108923095Y-135087247D02*
X108923095Y-134944390D01*
X108923095Y-134944390D02*
X108970714Y-134753914D01*
X108970714Y-134753914D02*
X109018333Y-134658676D01*
X109018333Y-134658676D02*
X109113571Y-134563438D01*
X109113571Y-134563438D02*
X109256428Y-134515819D01*
X109256428Y-134515819D02*
X109351666Y-134515819D01*
X109351666Y-134515819D02*
X109494523Y-134563438D01*
X109494523Y-134563438D02*
X109542142Y-134611057D01*
X109923095Y-134611057D02*
X109970714Y-134563438D01*
X109970714Y-134563438D02*
X110065952Y-134515819D01*
X110065952Y-134515819D02*
X110304047Y-134515819D01*
X110304047Y-134515819D02*
X110399285Y-134563438D01*
X110399285Y-134563438D02*
X110446904Y-134611057D01*
X110446904Y-134611057D02*
X110494523Y-134706295D01*
X110494523Y-134706295D02*
X110494523Y-134801533D01*
X110494523Y-134801533D02*
X110446904Y-134944390D01*
X110446904Y-134944390D02*
X109875476Y-135515819D01*
X109875476Y-135515819D02*
X110494523Y-135515819D01*
X111399285Y-134515819D02*
X110923095Y-134515819D01*
X110923095Y-134515819D02*
X110875476Y-134992009D01*
X110875476Y-134992009D02*
X110923095Y-134944390D01*
X110923095Y-134944390D02*
X111018333Y-134896771D01*
X111018333Y-134896771D02*
X111256428Y-134896771D01*
X111256428Y-134896771D02*
X111351666Y-134944390D01*
X111351666Y-134944390D02*
X111399285Y-134992009D01*
X111399285Y-134992009D02*
X111446904Y-135087247D01*
X111446904Y-135087247D02*
X111446904Y-135325342D01*
X111446904Y-135325342D02*
X111399285Y-135420580D01*
X111399285Y-135420580D02*
X111351666Y-135468200D01*
X111351666Y-135468200D02*
X111256428Y-135515819D01*
X111256428Y-135515819D02*
X111018333Y-135515819D01*
X111018333Y-135515819D02*
X110923095Y-135468200D01*
X110923095Y-135468200D02*
X110875476Y-135420580D01*
X48518333Y-87515819D02*
X48185000Y-87039628D01*
X47946905Y-87515819D02*
X47946905Y-86515819D01*
X47946905Y-86515819D02*
X48327857Y-86515819D01*
X48327857Y-86515819D02*
X48423095Y-86563438D01*
X48423095Y-86563438D02*
X48470714Y-86611057D01*
X48470714Y-86611057D02*
X48518333Y-86706295D01*
X48518333Y-86706295D02*
X48518333Y-86849152D01*
X48518333Y-86849152D02*
X48470714Y-86944390D01*
X48470714Y-86944390D02*
X48423095Y-86992009D01*
X48423095Y-86992009D02*
X48327857Y-87039628D01*
X48327857Y-87039628D02*
X47946905Y-87039628D01*
X49423095Y-86515819D02*
X48946905Y-86515819D01*
X48946905Y-86515819D02*
X48899286Y-86992009D01*
X48899286Y-86992009D02*
X48946905Y-86944390D01*
X48946905Y-86944390D02*
X49042143Y-86896771D01*
X49042143Y-86896771D02*
X49280238Y-86896771D01*
X49280238Y-86896771D02*
X49375476Y-86944390D01*
X49375476Y-86944390D02*
X49423095Y-86992009D01*
X49423095Y-86992009D02*
X49470714Y-87087247D01*
X49470714Y-87087247D02*
X49470714Y-87325342D01*
X49470714Y-87325342D02*
X49423095Y-87420580D01*
X49423095Y-87420580D02*
X49375476Y-87468200D01*
X49375476Y-87468200D02*
X49280238Y-87515819D01*
X49280238Y-87515819D02*
X49042143Y-87515819D01*
X49042143Y-87515819D02*
X48946905Y-87468200D01*
X48946905Y-87468200D02*
X48899286Y-87420580D01*
X66946905Y-98515819D02*
X66946905Y-97515819D01*
X66946905Y-97515819D02*
X67185000Y-97515819D01*
X67185000Y-97515819D02*
X67327857Y-97563438D01*
X67327857Y-97563438D02*
X67423095Y-97658676D01*
X67423095Y-97658676D02*
X67470714Y-97753914D01*
X67470714Y-97753914D02*
X67518333Y-97944390D01*
X67518333Y-97944390D02*
X67518333Y-98087247D01*
X67518333Y-98087247D02*
X67470714Y-98277723D01*
X67470714Y-98277723D02*
X67423095Y-98372961D01*
X67423095Y-98372961D02*
X67327857Y-98468200D01*
X67327857Y-98468200D02*
X67185000Y-98515819D01*
X67185000Y-98515819D02*
X66946905Y-98515819D01*
X67851667Y-97515819D02*
X68470714Y-97515819D01*
X68470714Y-97515819D02*
X68137381Y-97896771D01*
X68137381Y-97896771D02*
X68280238Y-97896771D01*
X68280238Y-97896771D02*
X68375476Y-97944390D01*
X68375476Y-97944390D02*
X68423095Y-97992009D01*
X68423095Y-97992009D02*
X68470714Y-98087247D01*
X68470714Y-98087247D02*
X68470714Y-98325342D01*
X68470714Y-98325342D02*
X68423095Y-98420580D01*
X68423095Y-98420580D02*
X68375476Y-98468200D01*
X68375476Y-98468200D02*
X68280238Y-98515819D01*
X68280238Y-98515819D02*
X67994524Y-98515819D01*
X67994524Y-98515819D02*
X67899286Y-98468200D01*
X67899286Y-98468200D02*
X67851667Y-98420580D01*
X86059095Y-112015819D02*
X86059095Y-112825342D01*
X86059095Y-112825342D02*
X86106714Y-112920580D01*
X86106714Y-112920580D02*
X86154333Y-112968200D01*
X86154333Y-112968200D02*
X86249571Y-113015819D01*
X86249571Y-113015819D02*
X86440047Y-113015819D01*
X86440047Y-113015819D02*
X86535285Y-112968200D01*
X86535285Y-112968200D02*
X86582904Y-112920580D01*
X86582904Y-112920580D02*
X86630523Y-112825342D01*
X86630523Y-112825342D02*
X86630523Y-112015819D01*
X87059095Y-112111057D02*
X87106714Y-112063438D01*
X87106714Y-112063438D02*
X87201952Y-112015819D01*
X87201952Y-112015819D02*
X87440047Y-112015819D01*
X87440047Y-112015819D02*
X87535285Y-112063438D01*
X87535285Y-112063438D02*
X87582904Y-112111057D01*
X87582904Y-112111057D02*
X87630523Y-112206295D01*
X87630523Y-112206295D02*
X87630523Y-112301533D01*
X87630523Y-112301533D02*
X87582904Y-112444390D01*
X87582904Y-112444390D02*
X87011476Y-113015819D01*
X87011476Y-113015819D02*
X87630523Y-113015819D01*
X83596142Y-69457580D02*
X83548523Y-69505200D01*
X83548523Y-69505200D02*
X83405666Y-69552819D01*
X83405666Y-69552819D02*
X83310428Y-69552819D01*
X83310428Y-69552819D02*
X83167571Y-69505200D01*
X83167571Y-69505200D02*
X83072333Y-69409961D01*
X83072333Y-69409961D02*
X83024714Y-69314723D01*
X83024714Y-69314723D02*
X82977095Y-69124247D01*
X82977095Y-69124247D02*
X82977095Y-68981390D01*
X82977095Y-68981390D02*
X83024714Y-68790914D01*
X83024714Y-68790914D02*
X83072333Y-68695676D01*
X83072333Y-68695676D02*
X83167571Y-68600438D01*
X83167571Y-68600438D02*
X83310428Y-68552819D01*
X83310428Y-68552819D02*
X83405666Y-68552819D01*
X83405666Y-68552819D02*
X83548523Y-68600438D01*
X83548523Y-68600438D02*
X83596142Y-68648057D01*
X84548523Y-69552819D02*
X83977095Y-69552819D01*
X84262809Y-69552819D02*
X84262809Y-68552819D01*
X84262809Y-68552819D02*
X84167571Y-68695676D01*
X84167571Y-68695676D02*
X84072333Y-68790914D01*
X84072333Y-68790914D02*
X83977095Y-68838533D01*
X85500904Y-69552819D02*
X84929476Y-69552819D01*
X85215190Y-69552819D02*
X85215190Y-68552819D01*
X85215190Y-68552819D02*
X85119952Y-68695676D01*
X85119952Y-68695676D02*
X85024714Y-68790914D01*
X85024714Y-68790914D02*
X84929476Y-68838533D01*
X86544580Y-136801357D02*
X86592200Y-136848976D01*
X86592200Y-136848976D02*
X86639819Y-136991833D01*
X86639819Y-136991833D02*
X86639819Y-137087071D01*
X86639819Y-137087071D02*
X86592200Y-137229928D01*
X86592200Y-137229928D02*
X86496961Y-137325166D01*
X86496961Y-137325166D02*
X86401723Y-137372785D01*
X86401723Y-137372785D02*
X86211247Y-137420404D01*
X86211247Y-137420404D02*
X86068390Y-137420404D01*
X86068390Y-137420404D02*
X85877914Y-137372785D01*
X85877914Y-137372785D02*
X85782676Y-137325166D01*
X85782676Y-137325166D02*
X85687438Y-137229928D01*
X85687438Y-137229928D02*
X85639819Y-137087071D01*
X85639819Y-137087071D02*
X85639819Y-136991833D01*
X85639819Y-136991833D02*
X85687438Y-136848976D01*
X85687438Y-136848976D02*
X85735057Y-136801357D01*
X85735057Y-136420404D02*
X85687438Y-136372785D01*
X85687438Y-136372785D02*
X85639819Y-136277547D01*
X85639819Y-136277547D02*
X85639819Y-136039452D01*
X85639819Y-136039452D02*
X85687438Y-135944214D01*
X85687438Y-135944214D02*
X85735057Y-135896595D01*
X85735057Y-135896595D02*
X85830295Y-135848976D01*
X85830295Y-135848976D02*
X85925533Y-135848976D01*
X85925533Y-135848976D02*
X86068390Y-135896595D01*
X86068390Y-135896595D02*
X86639819Y-136468023D01*
X86639819Y-136468023D02*
X86639819Y-135848976D01*
X86068390Y-135277547D02*
X86020771Y-135372785D01*
X86020771Y-135372785D02*
X85973152Y-135420404D01*
X85973152Y-135420404D02*
X85877914Y-135468023D01*
X85877914Y-135468023D02*
X85830295Y-135468023D01*
X85830295Y-135468023D02*
X85735057Y-135420404D01*
X85735057Y-135420404D02*
X85687438Y-135372785D01*
X85687438Y-135372785D02*
X85639819Y-135277547D01*
X85639819Y-135277547D02*
X85639819Y-135087071D01*
X85639819Y-135087071D02*
X85687438Y-134991833D01*
X85687438Y-134991833D02*
X85735057Y-134944214D01*
X85735057Y-134944214D02*
X85830295Y-134896595D01*
X85830295Y-134896595D02*
X85877914Y-134896595D01*
X85877914Y-134896595D02*
X85973152Y-134944214D01*
X85973152Y-134944214D02*
X86020771Y-134991833D01*
X86020771Y-134991833D02*
X86068390Y-135087071D01*
X86068390Y-135087071D02*
X86068390Y-135277547D01*
X86068390Y-135277547D02*
X86116009Y-135372785D01*
X86116009Y-135372785D02*
X86163628Y-135420404D01*
X86163628Y-135420404D02*
X86258866Y-135468023D01*
X86258866Y-135468023D02*
X86449342Y-135468023D01*
X86449342Y-135468023D02*
X86544580Y-135420404D01*
X86544580Y-135420404D02*
X86592200Y-135372785D01*
X86592200Y-135372785D02*
X86639819Y-135277547D01*
X86639819Y-135277547D02*
X86639819Y-135087071D01*
X86639819Y-135087071D02*
X86592200Y-134991833D01*
X86592200Y-134991833D02*
X86544580Y-134944214D01*
X86544580Y-134944214D02*
X86449342Y-134896595D01*
X86449342Y-134896595D02*
X86258866Y-134896595D01*
X86258866Y-134896595D02*
X86163628Y-134944214D01*
X86163628Y-134944214D02*
X86116009Y-134991833D01*
X86116009Y-134991833D02*
X86068390Y-135087071D01*
X63446905Y-102515819D02*
X63446905Y-101515819D01*
X63446905Y-101515819D02*
X63685000Y-101515819D01*
X63685000Y-101515819D02*
X63827857Y-101563438D01*
X63827857Y-101563438D02*
X63923095Y-101658676D01*
X63923095Y-101658676D02*
X63970714Y-101753914D01*
X63970714Y-101753914D02*
X64018333Y-101944390D01*
X64018333Y-101944390D02*
X64018333Y-102087247D01*
X64018333Y-102087247D02*
X63970714Y-102277723D01*
X63970714Y-102277723D02*
X63923095Y-102372961D01*
X63923095Y-102372961D02*
X63827857Y-102468200D01*
X63827857Y-102468200D02*
X63685000Y-102515819D01*
X63685000Y-102515819D02*
X63446905Y-102515819D01*
X64399286Y-101611057D02*
X64446905Y-101563438D01*
X64446905Y-101563438D02*
X64542143Y-101515819D01*
X64542143Y-101515819D02*
X64780238Y-101515819D01*
X64780238Y-101515819D02*
X64875476Y-101563438D01*
X64875476Y-101563438D02*
X64923095Y-101611057D01*
X64923095Y-101611057D02*
X64970714Y-101706295D01*
X64970714Y-101706295D02*
X64970714Y-101801533D01*
X64970714Y-101801533D02*
X64923095Y-101944390D01*
X64923095Y-101944390D02*
X64351667Y-102515819D01*
X64351667Y-102515819D02*
X64970714Y-102515819D01*
X75402334Y-111970579D02*
X75354715Y-112018199D01*
X75354715Y-112018199D02*
X75211858Y-112065818D01*
X75211858Y-112065818D02*
X75116620Y-112065818D01*
X75116620Y-112065818D02*
X74973763Y-112018199D01*
X74973763Y-112018199D02*
X74878525Y-111922960D01*
X74878525Y-111922960D02*
X74830906Y-111827722D01*
X74830906Y-111827722D02*
X74783287Y-111637246D01*
X74783287Y-111637246D02*
X74783287Y-111494389D01*
X74783287Y-111494389D02*
X74830906Y-111303913D01*
X74830906Y-111303913D02*
X74878525Y-111208675D01*
X74878525Y-111208675D02*
X74973763Y-111113437D01*
X74973763Y-111113437D02*
X75116620Y-111065818D01*
X75116620Y-111065818D02*
X75211858Y-111065818D01*
X75211858Y-111065818D02*
X75354715Y-111113437D01*
X75354715Y-111113437D02*
X75402334Y-111161056D01*
X76259477Y-111065818D02*
X76069001Y-111065818D01*
X76069001Y-111065818D02*
X75973763Y-111113437D01*
X75973763Y-111113437D02*
X75926144Y-111161056D01*
X75926144Y-111161056D02*
X75830906Y-111303913D01*
X75830906Y-111303913D02*
X75783287Y-111494389D01*
X75783287Y-111494389D02*
X75783287Y-111875341D01*
X75783287Y-111875341D02*
X75830906Y-111970579D01*
X75830906Y-111970579D02*
X75878525Y-112018199D01*
X75878525Y-112018199D02*
X75973763Y-112065818D01*
X75973763Y-112065818D02*
X76164239Y-112065818D01*
X76164239Y-112065818D02*
X76259477Y-112018199D01*
X76259477Y-112018199D02*
X76307096Y-111970579D01*
X76307096Y-111970579D02*
X76354715Y-111875341D01*
X76354715Y-111875341D02*
X76354715Y-111637246D01*
X76354715Y-111637246D02*
X76307096Y-111542008D01*
X76307096Y-111542008D02*
X76259477Y-111494389D01*
X76259477Y-111494389D02*
X76164239Y-111446770D01*
X76164239Y-111446770D02*
X75973763Y-111446770D01*
X75973763Y-111446770D02*
X75878525Y-111494389D01*
X75878525Y-111494389D02*
X75830906Y-111542008D01*
X75830906Y-111542008D02*
X75783287Y-111637246D01*
X61418142Y-106515819D02*
X61084809Y-106039628D01*
X60846714Y-106515819D02*
X60846714Y-105515819D01*
X60846714Y-105515819D02*
X61227666Y-105515819D01*
X61227666Y-105515819D02*
X61322904Y-105563438D01*
X61322904Y-105563438D02*
X61370523Y-105611057D01*
X61370523Y-105611057D02*
X61418142Y-105706295D01*
X61418142Y-105706295D02*
X61418142Y-105849152D01*
X61418142Y-105849152D02*
X61370523Y-105944390D01*
X61370523Y-105944390D02*
X61322904Y-105992009D01*
X61322904Y-105992009D02*
X61227666Y-106039628D01*
X61227666Y-106039628D02*
X60846714Y-106039628D01*
X61799095Y-105611057D02*
X61846714Y-105563438D01*
X61846714Y-105563438D02*
X61941952Y-105515819D01*
X61941952Y-105515819D02*
X62180047Y-105515819D01*
X62180047Y-105515819D02*
X62275285Y-105563438D01*
X62275285Y-105563438D02*
X62322904Y-105611057D01*
X62322904Y-105611057D02*
X62370523Y-105706295D01*
X62370523Y-105706295D02*
X62370523Y-105801533D01*
X62370523Y-105801533D02*
X62322904Y-105944390D01*
X62322904Y-105944390D02*
X61751476Y-106515819D01*
X61751476Y-106515819D02*
X62370523Y-106515819D01*
X62751476Y-105611057D02*
X62799095Y-105563438D01*
X62799095Y-105563438D02*
X62894333Y-105515819D01*
X62894333Y-105515819D02*
X63132428Y-105515819D01*
X63132428Y-105515819D02*
X63227666Y-105563438D01*
X63227666Y-105563438D02*
X63275285Y-105611057D01*
X63275285Y-105611057D02*
X63322904Y-105706295D01*
X63322904Y-105706295D02*
X63322904Y-105801533D01*
X63322904Y-105801533D02*
X63275285Y-105944390D01*
X63275285Y-105944390D02*
X62703857Y-106515819D01*
X62703857Y-106515819D02*
X63322904Y-106515819D01*
X94542142Y-118920580D02*
X94494523Y-118968200D01*
X94494523Y-118968200D02*
X94351666Y-119015819D01*
X94351666Y-119015819D02*
X94256428Y-119015819D01*
X94256428Y-119015819D02*
X94113571Y-118968200D01*
X94113571Y-118968200D02*
X94018333Y-118872961D01*
X94018333Y-118872961D02*
X93970714Y-118777723D01*
X93970714Y-118777723D02*
X93923095Y-118587247D01*
X93923095Y-118587247D02*
X93923095Y-118444390D01*
X93923095Y-118444390D02*
X93970714Y-118253914D01*
X93970714Y-118253914D02*
X94018333Y-118158676D01*
X94018333Y-118158676D02*
X94113571Y-118063438D01*
X94113571Y-118063438D02*
X94256428Y-118015819D01*
X94256428Y-118015819D02*
X94351666Y-118015819D01*
X94351666Y-118015819D02*
X94494523Y-118063438D01*
X94494523Y-118063438D02*
X94542142Y-118111057D01*
X94923095Y-118111057D02*
X94970714Y-118063438D01*
X94970714Y-118063438D02*
X95065952Y-118015819D01*
X95065952Y-118015819D02*
X95304047Y-118015819D01*
X95304047Y-118015819D02*
X95399285Y-118063438D01*
X95399285Y-118063438D02*
X95446904Y-118111057D01*
X95446904Y-118111057D02*
X95494523Y-118206295D01*
X95494523Y-118206295D02*
X95494523Y-118301533D01*
X95494523Y-118301533D02*
X95446904Y-118444390D01*
X95446904Y-118444390D02*
X94875476Y-119015819D01*
X94875476Y-119015819D02*
X95494523Y-119015819D01*
X96351666Y-118349152D02*
X96351666Y-119015819D01*
X96113571Y-117968200D02*
X95875476Y-118682485D01*
X95875476Y-118682485D02*
X96494523Y-118682485D01*
X94508095Y-105135819D02*
X94508095Y-105945342D01*
X94508095Y-105945342D02*
X94555714Y-106040580D01*
X94555714Y-106040580D02*
X94603333Y-106088200D01*
X94603333Y-106088200D02*
X94698571Y-106135819D01*
X94698571Y-106135819D02*
X94889047Y-106135819D01*
X94889047Y-106135819D02*
X94984285Y-106088200D01*
X94984285Y-106088200D02*
X95031904Y-106040580D01*
X95031904Y-106040580D02*
X95079523Y-105945342D01*
X95079523Y-105945342D02*
X95079523Y-105135819D01*
X95460476Y-105135819D02*
X96079523Y-105135819D01*
X96079523Y-105135819D02*
X95746190Y-105516771D01*
X95746190Y-105516771D02*
X95889047Y-105516771D01*
X95889047Y-105516771D02*
X95984285Y-105564390D01*
X95984285Y-105564390D02*
X96031904Y-105612009D01*
X96031904Y-105612009D02*
X96079523Y-105707247D01*
X96079523Y-105707247D02*
X96079523Y-105945342D01*
X96079523Y-105945342D02*
X96031904Y-106040580D01*
X96031904Y-106040580D02*
X95984285Y-106088200D01*
X95984285Y-106088200D02*
X95889047Y-106135819D01*
X95889047Y-106135819D02*
X95603333Y-106135819D01*
X95603333Y-106135819D02*
X95508095Y-106088200D01*
X95508095Y-106088200D02*
X95460476Y-106040580D01*
X66736904Y-67378009D02*
X66403571Y-67378009D01*
X66403571Y-67901819D02*
X66403571Y-66901819D01*
X66403571Y-66901819D02*
X66879761Y-66901819D01*
X67736904Y-67901819D02*
X67260714Y-67901819D01*
X67260714Y-67901819D02*
X67260714Y-66901819D01*
X68594047Y-67901819D02*
X68022619Y-67901819D01*
X68308333Y-67901819D02*
X68308333Y-66901819D01*
X68308333Y-66901819D02*
X68213095Y-67044676D01*
X68213095Y-67044676D02*
X68117857Y-67139914D01*
X68117857Y-67139914D02*
X68022619Y-67187533D01*
X94881142Y-104135580D02*
X94833523Y-104183200D01*
X94833523Y-104183200D02*
X94690666Y-104230819D01*
X94690666Y-104230819D02*
X94595428Y-104230819D01*
X94595428Y-104230819D02*
X94452571Y-104183200D01*
X94452571Y-104183200D02*
X94357333Y-104087961D01*
X94357333Y-104087961D02*
X94309714Y-103992723D01*
X94309714Y-103992723D02*
X94262095Y-103802247D01*
X94262095Y-103802247D02*
X94262095Y-103659390D01*
X94262095Y-103659390D02*
X94309714Y-103468914D01*
X94309714Y-103468914D02*
X94357333Y-103373676D01*
X94357333Y-103373676D02*
X94452571Y-103278438D01*
X94452571Y-103278438D02*
X94595428Y-103230819D01*
X94595428Y-103230819D02*
X94690666Y-103230819D01*
X94690666Y-103230819D02*
X94833523Y-103278438D01*
X94833523Y-103278438D02*
X94881142Y-103326057D01*
X95833523Y-104230819D02*
X95262095Y-104230819D01*
X95547809Y-104230819D02*
X95547809Y-103230819D01*
X95547809Y-103230819D02*
X95452571Y-103373676D01*
X95452571Y-103373676D02*
X95357333Y-103468914D01*
X95357333Y-103468914D02*
X95262095Y-103516533D01*
X96690666Y-103564152D02*
X96690666Y-104230819D01*
X96452571Y-103183200D02*
X96214476Y-103897485D01*
X96214476Y-103897485D02*
X96833523Y-103897485D01*
X83259333Y-95067819D02*
X82926000Y-94591628D01*
X82687905Y-95067819D02*
X82687905Y-94067819D01*
X82687905Y-94067819D02*
X83068857Y-94067819D01*
X83068857Y-94067819D02*
X83164095Y-94115438D01*
X83164095Y-94115438D02*
X83211714Y-94163057D01*
X83211714Y-94163057D02*
X83259333Y-94258295D01*
X83259333Y-94258295D02*
X83259333Y-94401152D01*
X83259333Y-94401152D02*
X83211714Y-94496390D01*
X83211714Y-94496390D02*
X83164095Y-94544009D01*
X83164095Y-94544009D02*
X83068857Y-94591628D01*
X83068857Y-94591628D02*
X82687905Y-94591628D01*
X83830762Y-94496390D02*
X83735524Y-94448771D01*
X83735524Y-94448771D02*
X83687905Y-94401152D01*
X83687905Y-94401152D02*
X83640286Y-94305914D01*
X83640286Y-94305914D02*
X83640286Y-94258295D01*
X83640286Y-94258295D02*
X83687905Y-94163057D01*
X83687905Y-94163057D02*
X83735524Y-94115438D01*
X83735524Y-94115438D02*
X83830762Y-94067819D01*
X83830762Y-94067819D02*
X84021238Y-94067819D01*
X84021238Y-94067819D02*
X84116476Y-94115438D01*
X84116476Y-94115438D02*
X84164095Y-94163057D01*
X84164095Y-94163057D02*
X84211714Y-94258295D01*
X84211714Y-94258295D02*
X84211714Y-94305914D01*
X84211714Y-94305914D02*
X84164095Y-94401152D01*
X84164095Y-94401152D02*
X84116476Y-94448771D01*
X84116476Y-94448771D02*
X84021238Y-94496390D01*
X84021238Y-94496390D02*
X83830762Y-94496390D01*
X83830762Y-94496390D02*
X83735524Y-94544009D01*
X83735524Y-94544009D02*
X83687905Y-94591628D01*
X83687905Y-94591628D02*
X83640286Y-94686866D01*
X83640286Y-94686866D02*
X83640286Y-94877342D01*
X83640286Y-94877342D02*
X83687905Y-94972580D01*
X83687905Y-94972580D02*
X83735524Y-95020200D01*
X83735524Y-95020200D02*
X83830762Y-95067819D01*
X83830762Y-95067819D02*
X84021238Y-95067819D01*
X84021238Y-95067819D02*
X84116476Y-95020200D01*
X84116476Y-95020200D02*
X84164095Y-94972580D01*
X84164095Y-94972580D02*
X84211714Y-94877342D01*
X84211714Y-94877342D02*
X84211714Y-94686866D01*
X84211714Y-94686866D02*
X84164095Y-94591628D01*
X84164095Y-94591628D02*
X84116476Y-94544009D01*
X84116476Y-94544009D02*
X84021238Y-94496390D01*
X42162334Y-35929579D02*
X42114715Y-35977199D01*
X42114715Y-35977199D02*
X41971858Y-36024818D01*
X41971858Y-36024818D02*
X41876620Y-36024818D01*
X41876620Y-36024818D02*
X41733763Y-35977199D01*
X41733763Y-35977199D02*
X41638525Y-35881960D01*
X41638525Y-35881960D02*
X41590906Y-35786722D01*
X41590906Y-35786722D02*
X41543287Y-35596246D01*
X41543287Y-35596246D02*
X41543287Y-35453389D01*
X41543287Y-35453389D02*
X41590906Y-35262913D01*
X41590906Y-35262913D02*
X41638525Y-35167675D01*
X41638525Y-35167675D02*
X41733763Y-35072437D01*
X41733763Y-35072437D02*
X41876620Y-35024818D01*
X41876620Y-35024818D02*
X41971858Y-35024818D01*
X41971858Y-35024818D02*
X42114715Y-35072437D01*
X42114715Y-35072437D02*
X42162334Y-35120056D01*
X42638525Y-36024818D02*
X42829001Y-36024818D01*
X42829001Y-36024818D02*
X42924239Y-35977199D01*
X42924239Y-35977199D02*
X42971858Y-35929579D01*
X42971858Y-35929579D02*
X43067096Y-35786722D01*
X43067096Y-35786722D02*
X43114715Y-35596246D01*
X43114715Y-35596246D02*
X43114715Y-35215294D01*
X43114715Y-35215294D02*
X43067096Y-35120056D01*
X43067096Y-35120056D02*
X43019477Y-35072437D01*
X43019477Y-35072437D02*
X42924239Y-35024818D01*
X42924239Y-35024818D02*
X42733763Y-35024818D01*
X42733763Y-35024818D02*
X42638525Y-35072437D01*
X42638525Y-35072437D02*
X42590906Y-35120056D01*
X42590906Y-35120056D02*
X42543287Y-35215294D01*
X42543287Y-35215294D02*
X42543287Y-35453389D01*
X42543287Y-35453389D02*
X42590906Y-35548627D01*
X42590906Y-35548627D02*
X42638525Y-35596246D01*
X42638525Y-35596246D02*
X42733763Y-35643865D01*
X42733763Y-35643865D02*
X42924239Y-35643865D01*
X42924239Y-35643865D02*
X43019477Y-35596246D01*
X43019477Y-35596246D02*
X43067096Y-35548627D01*
X43067096Y-35548627D02*
X43114715Y-35453389D01*
X85044580Y-136703857D02*
X85092200Y-136751476D01*
X85092200Y-136751476D02*
X85139819Y-136894333D01*
X85139819Y-136894333D02*
X85139819Y-136989571D01*
X85139819Y-136989571D02*
X85092200Y-137132428D01*
X85092200Y-137132428D02*
X84996961Y-137227666D01*
X84996961Y-137227666D02*
X84901723Y-137275285D01*
X84901723Y-137275285D02*
X84711247Y-137322904D01*
X84711247Y-137322904D02*
X84568390Y-137322904D01*
X84568390Y-137322904D02*
X84377914Y-137275285D01*
X84377914Y-137275285D02*
X84282676Y-137227666D01*
X84282676Y-137227666D02*
X84187438Y-137132428D01*
X84187438Y-137132428D02*
X84139819Y-136989571D01*
X84139819Y-136989571D02*
X84139819Y-136894333D01*
X84139819Y-136894333D02*
X84187438Y-136751476D01*
X84187438Y-136751476D02*
X84235057Y-136703857D01*
X84235057Y-136322904D02*
X84187438Y-136275285D01*
X84187438Y-136275285D02*
X84139819Y-136180047D01*
X84139819Y-136180047D02*
X84139819Y-135941952D01*
X84139819Y-135941952D02*
X84187438Y-135846714D01*
X84187438Y-135846714D02*
X84235057Y-135799095D01*
X84235057Y-135799095D02*
X84330295Y-135751476D01*
X84330295Y-135751476D02*
X84425533Y-135751476D01*
X84425533Y-135751476D02*
X84568390Y-135799095D01*
X84568390Y-135799095D02*
X85139819Y-136370523D01*
X85139819Y-136370523D02*
X85139819Y-135751476D01*
X84139819Y-135418142D02*
X84139819Y-134751476D01*
X84139819Y-134751476D02*
X85139819Y-135180047D01*
X79544580Y-94727666D02*
X79592200Y-94775285D01*
X79592200Y-94775285D02*
X79639819Y-94918142D01*
X79639819Y-94918142D02*
X79639819Y-95013380D01*
X79639819Y-95013380D02*
X79592200Y-95156237D01*
X79592200Y-95156237D02*
X79496961Y-95251475D01*
X79496961Y-95251475D02*
X79401723Y-95299094D01*
X79401723Y-95299094D02*
X79211247Y-95346713D01*
X79211247Y-95346713D02*
X79068390Y-95346713D01*
X79068390Y-95346713D02*
X78877914Y-95299094D01*
X78877914Y-95299094D02*
X78782676Y-95251475D01*
X78782676Y-95251475D02*
X78687438Y-95156237D01*
X78687438Y-95156237D02*
X78639819Y-95013380D01*
X78639819Y-95013380D02*
X78639819Y-94918142D01*
X78639819Y-94918142D02*
X78687438Y-94775285D01*
X78687438Y-94775285D02*
X78735057Y-94727666D01*
X79639819Y-93775285D02*
X79639819Y-94346713D01*
X79639819Y-94060999D02*
X78639819Y-94060999D01*
X78639819Y-94060999D02*
X78782676Y-94156237D01*
X78782676Y-94156237D02*
X78877914Y-94251475D01*
X78877914Y-94251475D02*
X78925533Y-94346713D01*
X92139819Y-153703857D02*
X91663628Y-154037190D01*
X92139819Y-154275285D02*
X91139819Y-154275285D01*
X91139819Y-154275285D02*
X91139819Y-153894333D01*
X91139819Y-153894333D02*
X91187438Y-153799095D01*
X91187438Y-153799095D02*
X91235057Y-153751476D01*
X91235057Y-153751476D02*
X91330295Y-153703857D01*
X91330295Y-153703857D02*
X91473152Y-153703857D01*
X91473152Y-153703857D02*
X91568390Y-153751476D01*
X91568390Y-153751476D02*
X91616009Y-153799095D01*
X91616009Y-153799095D02*
X91663628Y-153894333D01*
X91663628Y-153894333D02*
X91663628Y-154275285D01*
X91235057Y-153322904D02*
X91187438Y-153275285D01*
X91187438Y-153275285D02*
X91139819Y-153180047D01*
X91139819Y-153180047D02*
X91139819Y-152941952D01*
X91139819Y-152941952D02*
X91187438Y-152846714D01*
X91187438Y-152846714D02*
X91235057Y-152799095D01*
X91235057Y-152799095D02*
X91330295Y-152751476D01*
X91330295Y-152751476D02*
X91425533Y-152751476D01*
X91425533Y-152751476D02*
X91568390Y-152799095D01*
X91568390Y-152799095D02*
X92139819Y-153370523D01*
X92139819Y-153370523D02*
X92139819Y-152751476D01*
X91473152Y-151894333D02*
X92139819Y-151894333D01*
X91092200Y-152132428D02*
X91806485Y-152370523D01*
X91806485Y-152370523D02*
X91806485Y-151751476D01*
X101901819Y-117642057D02*
X101425628Y-117975390D01*
X101901819Y-118213485D02*
X100901819Y-118213485D01*
X100901819Y-118213485D02*
X100901819Y-117832533D01*
X100901819Y-117832533D02*
X100949438Y-117737295D01*
X100949438Y-117737295D02*
X100997057Y-117689676D01*
X100997057Y-117689676D02*
X101092295Y-117642057D01*
X101092295Y-117642057D02*
X101235152Y-117642057D01*
X101235152Y-117642057D02*
X101330390Y-117689676D01*
X101330390Y-117689676D02*
X101378009Y-117737295D01*
X101378009Y-117737295D02*
X101425628Y-117832533D01*
X101425628Y-117832533D02*
X101425628Y-118213485D01*
X101901819Y-116689676D02*
X101901819Y-117261104D01*
X101901819Y-116975390D02*
X100901819Y-116975390D01*
X100901819Y-116975390D02*
X101044676Y-117070628D01*
X101044676Y-117070628D02*
X101139914Y-117165866D01*
X101139914Y-117165866D02*
X101187533Y-117261104D01*
X100901819Y-115832533D02*
X100901819Y-116023009D01*
X100901819Y-116023009D02*
X100949438Y-116118247D01*
X100949438Y-116118247D02*
X100997057Y-116165866D01*
X100997057Y-116165866D02*
X101139914Y-116261104D01*
X101139914Y-116261104D02*
X101330390Y-116308723D01*
X101330390Y-116308723D02*
X101711342Y-116308723D01*
X101711342Y-116308723D02*
X101806580Y-116261104D01*
X101806580Y-116261104D02*
X101854200Y-116213485D01*
X101854200Y-116213485D02*
X101901819Y-116118247D01*
X101901819Y-116118247D02*
X101901819Y-115927771D01*
X101901819Y-115927771D02*
X101854200Y-115832533D01*
X101854200Y-115832533D02*
X101806580Y-115784914D01*
X101806580Y-115784914D02*
X101711342Y-115737295D01*
X101711342Y-115737295D02*
X101473247Y-115737295D01*
X101473247Y-115737295D02*
X101378009Y-115784914D01*
X101378009Y-115784914D02*
X101330390Y-115832533D01*
X101330390Y-115832533D02*
X101282771Y-115927771D01*
X101282771Y-115927771D02*
X101282771Y-116118247D01*
X101282771Y-116118247D02*
X101330390Y-116213485D01*
X101330390Y-116213485D02*
X101378009Y-116261104D01*
X101378009Y-116261104D02*
X101473247Y-116308723D01*
X94891287Y-46962818D02*
X95462715Y-46962818D01*
X95177001Y-47962818D02*
X95177001Y-46962818D01*
X95796049Y-47962818D02*
X95796049Y-46962818D01*
X95796049Y-47439008D02*
X96367477Y-47439008D01*
X96367477Y-47962818D02*
X96367477Y-46962818D01*
X97367477Y-47962818D02*
X96796049Y-47962818D01*
X97081763Y-47962818D02*
X97081763Y-46962818D01*
X97081763Y-46962818D02*
X96986525Y-47105675D01*
X96986525Y-47105675D02*
X96891287Y-47200913D01*
X96891287Y-47200913D02*
X96796049Y-47248532D01*
X68018333Y-93015819D02*
X67685000Y-92539628D01*
X67446905Y-93015819D02*
X67446905Y-92015819D01*
X67446905Y-92015819D02*
X67827857Y-92015819D01*
X67827857Y-92015819D02*
X67923095Y-92063438D01*
X67923095Y-92063438D02*
X67970714Y-92111057D01*
X67970714Y-92111057D02*
X68018333Y-92206295D01*
X68018333Y-92206295D02*
X68018333Y-92349152D01*
X68018333Y-92349152D02*
X67970714Y-92444390D01*
X67970714Y-92444390D02*
X67923095Y-92492009D01*
X67923095Y-92492009D02*
X67827857Y-92539628D01*
X67827857Y-92539628D02*
X67446905Y-92539628D01*
X68970714Y-93015819D02*
X68399286Y-93015819D01*
X68685000Y-93015819D02*
X68685000Y-92015819D01*
X68685000Y-92015819D02*
X68589762Y-92158676D01*
X68589762Y-92158676D02*
X68494524Y-92253914D01*
X68494524Y-92253914D02*
X68399286Y-92301533D01*
X35645666Y-85316819D02*
X35645666Y-86031104D01*
X35645666Y-86031104D02*
X35598047Y-86173961D01*
X35598047Y-86173961D02*
X35502809Y-86269200D01*
X35502809Y-86269200D02*
X35359952Y-86316819D01*
X35359952Y-86316819D02*
X35264714Y-86316819D01*
X36645666Y-86316819D02*
X36074238Y-86316819D01*
X36359952Y-86316819D02*
X36359952Y-85316819D01*
X36359952Y-85316819D02*
X36264714Y-85459676D01*
X36264714Y-85459676D02*
X36169476Y-85554914D01*
X36169476Y-85554914D02*
X36074238Y-85602533D01*
X100042142Y-112532780D02*
X99994523Y-112580400D01*
X99994523Y-112580400D02*
X99851666Y-112628019D01*
X99851666Y-112628019D02*
X99756428Y-112628019D01*
X99756428Y-112628019D02*
X99613571Y-112580400D01*
X99613571Y-112580400D02*
X99518333Y-112485161D01*
X99518333Y-112485161D02*
X99470714Y-112389923D01*
X99470714Y-112389923D02*
X99423095Y-112199447D01*
X99423095Y-112199447D02*
X99423095Y-112056590D01*
X99423095Y-112056590D02*
X99470714Y-111866114D01*
X99470714Y-111866114D02*
X99518333Y-111770876D01*
X99518333Y-111770876D02*
X99613571Y-111675638D01*
X99613571Y-111675638D02*
X99756428Y-111628019D01*
X99756428Y-111628019D02*
X99851666Y-111628019D01*
X99851666Y-111628019D02*
X99994523Y-111675638D01*
X99994523Y-111675638D02*
X100042142Y-111723257D01*
X100994523Y-112628019D02*
X100423095Y-112628019D01*
X100708809Y-112628019D02*
X100708809Y-111628019D01*
X100708809Y-111628019D02*
X100613571Y-111770876D01*
X100613571Y-111770876D02*
X100518333Y-111866114D01*
X100518333Y-111866114D02*
X100423095Y-111913733D01*
X101899285Y-111628019D02*
X101423095Y-111628019D01*
X101423095Y-111628019D02*
X101375476Y-112104209D01*
X101375476Y-112104209D02*
X101423095Y-112056590D01*
X101423095Y-112056590D02*
X101518333Y-112008971D01*
X101518333Y-112008971D02*
X101756428Y-112008971D01*
X101756428Y-112008971D02*
X101851666Y-112056590D01*
X101851666Y-112056590D02*
X101899285Y-112104209D01*
X101899285Y-112104209D02*
X101946904Y-112199447D01*
X101946904Y-112199447D02*
X101946904Y-112437542D01*
X101946904Y-112437542D02*
X101899285Y-112532780D01*
X101899285Y-112532780D02*
X101851666Y-112580400D01*
X101851666Y-112580400D02*
X101756428Y-112628019D01*
X101756428Y-112628019D02*
X101518333Y-112628019D01*
X101518333Y-112628019D02*
X101423095Y-112580400D01*
X101423095Y-112580400D02*
X101375476Y-112532780D01*
X89259333Y-95067819D02*
X88926000Y-94591628D01*
X88687905Y-95067819D02*
X88687905Y-94067819D01*
X88687905Y-94067819D02*
X89068857Y-94067819D01*
X89068857Y-94067819D02*
X89164095Y-94115438D01*
X89164095Y-94115438D02*
X89211714Y-94163057D01*
X89211714Y-94163057D02*
X89259333Y-94258295D01*
X89259333Y-94258295D02*
X89259333Y-94401152D01*
X89259333Y-94401152D02*
X89211714Y-94496390D01*
X89211714Y-94496390D02*
X89164095Y-94544009D01*
X89164095Y-94544009D02*
X89068857Y-94591628D01*
X89068857Y-94591628D02*
X88687905Y-94591628D01*
X89592667Y-94067819D02*
X90259333Y-94067819D01*
X90259333Y-94067819D02*
X89830762Y-95067819D01*
X107044580Y-105203857D02*
X107092200Y-105251476D01*
X107092200Y-105251476D02*
X107139819Y-105394333D01*
X107139819Y-105394333D02*
X107139819Y-105489571D01*
X107139819Y-105489571D02*
X107092200Y-105632428D01*
X107092200Y-105632428D02*
X106996961Y-105727666D01*
X106996961Y-105727666D02*
X106901723Y-105775285D01*
X106901723Y-105775285D02*
X106711247Y-105822904D01*
X106711247Y-105822904D02*
X106568390Y-105822904D01*
X106568390Y-105822904D02*
X106377914Y-105775285D01*
X106377914Y-105775285D02*
X106282676Y-105727666D01*
X106282676Y-105727666D02*
X106187438Y-105632428D01*
X106187438Y-105632428D02*
X106139819Y-105489571D01*
X106139819Y-105489571D02*
X106139819Y-105394333D01*
X106139819Y-105394333D02*
X106187438Y-105251476D01*
X106187438Y-105251476D02*
X106235057Y-105203857D01*
X106235057Y-104822904D02*
X106187438Y-104775285D01*
X106187438Y-104775285D02*
X106139819Y-104680047D01*
X106139819Y-104680047D02*
X106139819Y-104441952D01*
X106139819Y-104441952D02*
X106187438Y-104346714D01*
X106187438Y-104346714D02*
X106235057Y-104299095D01*
X106235057Y-104299095D02*
X106330295Y-104251476D01*
X106330295Y-104251476D02*
X106425533Y-104251476D01*
X106425533Y-104251476D02*
X106568390Y-104299095D01*
X106568390Y-104299095D02*
X107139819Y-104870523D01*
X107139819Y-104870523D02*
X107139819Y-104251476D01*
X106139819Y-103632428D02*
X106139819Y-103537190D01*
X106139819Y-103537190D02*
X106187438Y-103441952D01*
X106187438Y-103441952D02*
X106235057Y-103394333D01*
X106235057Y-103394333D02*
X106330295Y-103346714D01*
X106330295Y-103346714D02*
X106520771Y-103299095D01*
X106520771Y-103299095D02*
X106758866Y-103299095D01*
X106758866Y-103299095D02*
X106949342Y-103346714D01*
X106949342Y-103346714D02*
X107044580Y-103394333D01*
X107044580Y-103394333D02*
X107092200Y-103441952D01*
X107092200Y-103441952D02*
X107139819Y-103537190D01*
X107139819Y-103537190D02*
X107139819Y-103632428D01*
X107139819Y-103632428D02*
X107092200Y-103727666D01*
X107092200Y-103727666D02*
X107044580Y-103775285D01*
X107044580Y-103775285D02*
X106949342Y-103822904D01*
X106949342Y-103822904D02*
X106758866Y-103870523D01*
X106758866Y-103870523D02*
X106520771Y-103870523D01*
X106520771Y-103870523D02*
X106330295Y-103822904D01*
X106330295Y-103822904D02*
X106235057Y-103775285D01*
X106235057Y-103775285D02*
X106187438Y-103727666D01*
X106187438Y-103727666D02*
X106139819Y-103632428D01*
X49782333Y-41517580D02*
X49734714Y-41565200D01*
X49734714Y-41565200D02*
X49591857Y-41612819D01*
X49591857Y-41612819D02*
X49496619Y-41612819D01*
X49496619Y-41612819D02*
X49353762Y-41565200D01*
X49353762Y-41565200D02*
X49258524Y-41469961D01*
X49258524Y-41469961D02*
X49210905Y-41374723D01*
X49210905Y-41374723D02*
X49163286Y-41184247D01*
X49163286Y-41184247D02*
X49163286Y-41041390D01*
X49163286Y-41041390D02*
X49210905Y-40850914D01*
X49210905Y-40850914D02*
X49258524Y-40755676D01*
X49258524Y-40755676D02*
X49353762Y-40660438D01*
X49353762Y-40660438D02*
X49496619Y-40612819D01*
X49496619Y-40612819D02*
X49591857Y-40612819D01*
X49591857Y-40612819D02*
X49734714Y-40660438D01*
X49734714Y-40660438D02*
X49782333Y-40708057D01*
X50353762Y-41041390D02*
X50258524Y-40993771D01*
X50258524Y-40993771D02*
X50210905Y-40946152D01*
X50210905Y-40946152D02*
X50163286Y-40850914D01*
X50163286Y-40850914D02*
X50163286Y-40803295D01*
X50163286Y-40803295D02*
X50210905Y-40708057D01*
X50210905Y-40708057D02*
X50258524Y-40660438D01*
X50258524Y-40660438D02*
X50353762Y-40612819D01*
X50353762Y-40612819D02*
X50544238Y-40612819D01*
X50544238Y-40612819D02*
X50639476Y-40660438D01*
X50639476Y-40660438D02*
X50687095Y-40708057D01*
X50687095Y-40708057D02*
X50734714Y-40803295D01*
X50734714Y-40803295D02*
X50734714Y-40850914D01*
X50734714Y-40850914D02*
X50687095Y-40946152D01*
X50687095Y-40946152D02*
X50639476Y-40993771D01*
X50639476Y-40993771D02*
X50544238Y-41041390D01*
X50544238Y-41041390D02*
X50353762Y-41041390D01*
X50353762Y-41041390D02*
X50258524Y-41089009D01*
X50258524Y-41089009D02*
X50210905Y-41136628D01*
X50210905Y-41136628D02*
X50163286Y-41231866D01*
X50163286Y-41231866D02*
X50163286Y-41422342D01*
X50163286Y-41422342D02*
X50210905Y-41517580D01*
X50210905Y-41517580D02*
X50258524Y-41565200D01*
X50258524Y-41565200D02*
X50353762Y-41612819D01*
X50353762Y-41612819D02*
X50544238Y-41612819D01*
X50544238Y-41612819D02*
X50639476Y-41565200D01*
X50639476Y-41565200D02*
X50687095Y-41517580D01*
X50687095Y-41517580D02*
X50734714Y-41422342D01*
X50734714Y-41422342D02*
X50734714Y-41231866D01*
X50734714Y-41231866D02*
X50687095Y-41136628D01*
X50687095Y-41136628D02*
X50639476Y-41089009D01*
X50639476Y-41089009D02*
X50544238Y-41041390D01*
X62018333Y-104015819D02*
X61685000Y-103539628D01*
X61446905Y-104015819D02*
X61446905Y-103015819D01*
X61446905Y-103015819D02*
X61827857Y-103015819D01*
X61827857Y-103015819D02*
X61923095Y-103063438D01*
X61923095Y-103063438D02*
X61970714Y-103111057D01*
X61970714Y-103111057D02*
X62018333Y-103206295D01*
X62018333Y-103206295D02*
X62018333Y-103349152D01*
X62018333Y-103349152D02*
X61970714Y-103444390D01*
X61970714Y-103444390D02*
X61923095Y-103492009D01*
X61923095Y-103492009D02*
X61827857Y-103539628D01*
X61827857Y-103539628D02*
X61446905Y-103539628D01*
X62875476Y-103349152D02*
X62875476Y-104015819D01*
X62637381Y-102968200D02*
X62399286Y-103682485D01*
X62399286Y-103682485D02*
X63018333Y-103682485D01*
X81311819Y-101703857D02*
X80835628Y-102037190D01*
X81311819Y-102275285D02*
X80311819Y-102275285D01*
X80311819Y-102275285D02*
X80311819Y-101894333D01*
X80311819Y-101894333D02*
X80359438Y-101799095D01*
X80359438Y-101799095D02*
X80407057Y-101751476D01*
X80407057Y-101751476D02*
X80502295Y-101703857D01*
X80502295Y-101703857D02*
X80645152Y-101703857D01*
X80645152Y-101703857D02*
X80740390Y-101751476D01*
X80740390Y-101751476D02*
X80788009Y-101799095D01*
X80788009Y-101799095D02*
X80835628Y-101894333D01*
X80835628Y-101894333D02*
X80835628Y-102275285D01*
X81311819Y-100751476D02*
X81311819Y-101322904D01*
X81311819Y-101037190D02*
X80311819Y-101037190D01*
X80311819Y-101037190D02*
X80454676Y-101132428D01*
X80454676Y-101132428D02*
X80549914Y-101227666D01*
X80549914Y-101227666D02*
X80597533Y-101322904D01*
X81311819Y-99799095D02*
X81311819Y-100370523D01*
X81311819Y-100084809D02*
X80311819Y-100084809D01*
X80311819Y-100084809D02*
X80454676Y-100180047D01*
X80454676Y-100180047D02*
X80549914Y-100275285D01*
X80549914Y-100275285D02*
X80597533Y-100370523D01*
X115260219Y-101372433D02*
X115974504Y-101372433D01*
X115974504Y-101372433D02*
X116117361Y-101420052D01*
X116117361Y-101420052D02*
X116212600Y-101515290D01*
X116212600Y-101515290D02*
X116260219Y-101658147D01*
X116260219Y-101658147D02*
X116260219Y-101753385D01*
X115355457Y-100943861D02*
X115307838Y-100896242D01*
X115307838Y-100896242D02*
X115260219Y-100801004D01*
X115260219Y-100801004D02*
X115260219Y-100562909D01*
X115260219Y-100562909D02*
X115307838Y-100467671D01*
X115307838Y-100467671D02*
X115355457Y-100420052D01*
X115355457Y-100420052D02*
X115450695Y-100372433D01*
X115450695Y-100372433D02*
X115545933Y-100372433D01*
X115545933Y-100372433D02*
X115688790Y-100420052D01*
X115688790Y-100420052D02*
X116260219Y-100991480D01*
X116260219Y-100991480D02*
X116260219Y-100372433D01*
X85920105Y-119515819D02*
X85920105Y-118515819D01*
X85920105Y-118515819D02*
X86158200Y-118515819D01*
X86158200Y-118515819D02*
X86301057Y-118563438D01*
X86301057Y-118563438D02*
X86396295Y-118658676D01*
X86396295Y-118658676D02*
X86443914Y-118753914D01*
X86443914Y-118753914D02*
X86491533Y-118944390D01*
X86491533Y-118944390D02*
X86491533Y-119087247D01*
X86491533Y-119087247D02*
X86443914Y-119277723D01*
X86443914Y-119277723D02*
X86396295Y-119372961D01*
X86396295Y-119372961D02*
X86301057Y-119468200D01*
X86301057Y-119468200D02*
X86158200Y-119515819D01*
X86158200Y-119515819D02*
X85920105Y-119515819D01*
X87396295Y-118515819D02*
X86920105Y-118515819D01*
X86920105Y-118515819D02*
X86872486Y-118992009D01*
X86872486Y-118992009D02*
X86920105Y-118944390D01*
X86920105Y-118944390D02*
X87015343Y-118896771D01*
X87015343Y-118896771D02*
X87253438Y-118896771D01*
X87253438Y-118896771D02*
X87348676Y-118944390D01*
X87348676Y-118944390D02*
X87396295Y-118992009D01*
X87396295Y-118992009D02*
X87443914Y-119087247D01*
X87443914Y-119087247D02*
X87443914Y-119325342D01*
X87443914Y-119325342D02*
X87396295Y-119420580D01*
X87396295Y-119420580D02*
X87348676Y-119468200D01*
X87348676Y-119468200D02*
X87253438Y-119515819D01*
X87253438Y-119515819D02*
X87015343Y-119515819D01*
X87015343Y-119515819D02*
X86920105Y-119468200D01*
X86920105Y-119468200D02*
X86872486Y-119420580D01*
X49042142Y-95920580D02*
X48994523Y-95968200D01*
X48994523Y-95968200D02*
X48851666Y-96015819D01*
X48851666Y-96015819D02*
X48756428Y-96015819D01*
X48756428Y-96015819D02*
X48613571Y-95968200D01*
X48613571Y-95968200D02*
X48518333Y-95872961D01*
X48518333Y-95872961D02*
X48470714Y-95777723D01*
X48470714Y-95777723D02*
X48423095Y-95587247D01*
X48423095Y-95587247D02*
X48423095Y-95444390D01*
X48423095Y-95444390D02*
X48470714Y-95253914D01*
X48470714Y-95253914D02*
X48518333Y-95158676D01*
X48518333Y-95158676D02*
X48613571Y-95063438D01*
X48613571Y-95063438D02*
X48756428Y-95015819D01*
X48756428Y-95015819D02*
X48851666Y-95015819D01*
X48851666Y-95015819D02*
X48994523Y-95063438D01*
X48994523Y-95063438D02*
X49042142Y-95111057D01*
X49423095Y-95111057D02*
X49470714Y-95063438D01*
X49470714Y-95063438D02*
X49565952Y-95015819D01*
X49565952Y-95015819D02*
X49804047Y-95015819D01*
X49804047Y-95015819D02*
X49899285Y-95063438D01*
X49899285Y-95063438D02*
X49946904Y-95111057D01*
X49946904Y-95111057D02*
X49994523Y-95206295D01*
X49994523Y-95206295D02*
X49994523Y-95301533D01*
X49994523Y-95301533D02*
X49946904Y-95444390D01*
X49946904Y-95444390D02*
X49375476Y-96015819D01*
X49375476Y-96015819D02*
X49994523Y-96015819D01*
X50375476Y-95111057D02*
X50423095Y-95063438D01*
X50423095Y-95063438D02*
X50518333Y-95015819D01*
X50518333Y-95015819D02*
X50756428Y-95015819D01*
X50756428Y-95015819D02*
X50851666Y-95063438D01*
X50851666Y-95063438D02*
X50899285Y-95111057D01*
X50899285Y-95111057D02*
X50946904Y-95206295D01*
X50946904Y-95206295D02*
X50946904Y-95301533D01*
X50946904Y-95301533D02*
X50899285Y-95444390D01*
X50899285Y-95444390D02*
X50327857Y-96015819D01*
X50327857Y-96015819D02*
X50946904Y-96015819D01*
X86542142Y-117920580D02*
X86494523Y-117968200D01*
X86494523Y-117968200D02*
X86351666Y-118015819D01*
X86351666Y-118015819D02*
X86256428Y-118015819D01*
X86256428Y-118015819D02*
X86113571Y-117968200D01*
X86113571Y-117968200D02*
X86018333Y-117872961D01*
X86018333Y-117872961D02*
X85970714Y-117777723D01*
X85970714Y-117777723D02*
X85923095Y-117587247D01*
X85923095Y-117587247D02*
X85923095Y-117444390D01*
X85923095Y-117444390D02*
X85970714Y-117253914D01*
X85970714Y-117253914D02*
X86018333Y-117158676D01*
X86018333Y-117158676D02*
X86113571Y-117063438D01*
X86113571Y-117063438D02*
X86256428Y-117015819D01*
X86256428Y-117015819D02*
X86351666Y-117015819D01*
X86351666Y-117015819D02*
X86494523Y-117063438D01*
X86494523Y-117063438D02*
X86542142Y-117111057D01*
X87494523Y-118015819D02*
X86923095Y-118015819D01*
X87208809Y-118015819D02*
X87208809Y-117015819D01*
X87208809Y-117015819D02*
X87113571Y-117158676D01*
X87113571Y-117158676D02*
X87018333Y-117253914D01*
X87018333Y-117253914D02*
X86923095Y-117301533D01*
X87827857Y-117015819D02*
X88446904Y-117015819D01*
X88446904Y-117015819D02*
X88113571Y-117396771D01*
X88113571Y-117396771D02*
X88256428Y-117396771D01*
X88256428Y-117396771D02*
X88351666Y-117444390D01*
X88351666Y-117444390D02*
X88399285Y-117492009D01*
X88399285Y-117492009D02*
X88446904Y-117587247D01*
X88446904Y-117587247D02*
X88446904Y-117825342D01*
X88446904Y-117825342D02*
X88399285Y-117920580D01*
X88399285Y-117920580D02*
X88351666Y-117968200D01*
X88351666Y-117968200D02*
X88256428Y-118015819D01*
X88256428Y-118015819D02*
X87970714Y-118015819D01*
X87970714Y-118015819D02*
X87875476Y-117968200D01*
X87875476Y-117968200D02*
X87827857Y-117920580D01*
X86542142Y-115015819D02*
X86208809Y-114539628D01*
X85970714Y-115015819D02*
X85970714Y-114015819D01*
X85970714Y-114015819D02*
X86351666Y-114015819D01*
X86351666Y-114015819D02*
X86446904Y-114063438D01*
X86446904Y-114063438D02*
X86494523Y-114111057D01*
X86494523Y-114111057D02*
X86542142Y-114206295D01*
X86542142Y-114206295D02*
X86542142Y-114349152D01*
X86542142Y-114349152D02*
X86494523Y-114444390D01*
X86494523Y-114444390D02*
X86446904Y-114492009D01*
X86446904Y-114492009D02*
X86351666Y-114539628D01*
X86351666Y-114539628D02*
X85970714Y-114539628D01*
X87494523Y-115015819D02*
X86923095Y-115015819D01*
X87208809Y-115015819D02*
X87208809Y-114015819D01*
X87208809Y-114015819D02*
X87113571Y-114158676D01*
X87113571Y-114158676D02*
X87018333Y-114253914D01*
X87018333Y-114253914D02*
X86923095Y-114301533D01*
X87827857Y-114015819D02*
X88446904Y-114015819D01*
X88446904Y-114015819D02*
X88113571Y-114396771D01*
X88113571Y-114396771D02*
X88256428Y-114396771D01*
X88256428Y-114396771D02*
X88351666Y-114444390D01*
X88351666Y-114444390D02*
X88399285Y-114492009D01*
X88399285Y-114492009D02*
X88446904Y-114587247D01*
X88446904Y-114587247D02*
X88446904Y-114825342D01*
X88446904Y-114825342D02*
X88399285Y-114920580D01*
X88399285Y-114920580D02*
X88351666Y-114968200D01*
X88351666Y-114968200D02*
X88256428Y-115015819D01*
X88256428Y-115015819D02*
X87970714Y-115015819D01*
X87970714Y-115015819D02*
X87875476Y-114968200D01*
X87875476Y-114968200D02*
X87827857Y-114920580D01*
X67518333Y-100015819D02*
X67185000Y-99539628D01*
X66946905Y-100015819D02*
X66946905Y-99015819D01*
X66946905Y-99015819D02*
X67327857Y-99015819D01*
X67327857Y-99015819D02*
X67423095Y-99063438D01*
X67423095Y-99063438D02*
X67470714Y-99111057D01*
X67470714Y-99111057D02*
X67518333Y-99206295D01*
X67518333Y-99206295D02*
X67518333Y-99349152D01*
X67518333Y-99349152D02*
X67470714Y-99444390D01*
X67470714Y-99444390D02*
X67423095Y-99492009D01*
X67423095Y-99492009D02*
X67327857Y-99539628D01*
X67327857Y-99539628D02*
X66946905Y-99539628D01*
X67994524Y-100015819D02*
X68185000Y-100015819D01*
X68185000Y-100015819D02*
X68280238Y-99968200D01*
X68280238Y-99968200D02*
X68327857Y-99920580D01*
X68327857Y-99920580D02*
X68423095Y-99777723D01*
X68423095Y-99777723D02*
X68470714Y-99587247D01*
X68470714Y-99587247D02*
X68470714Y-99206295D01*
X68470714Y-99206295D02*
X68423095Y-99111057D01*
X68423095Y-99111057D02*
X68375476Y-99063438D01*
X68375476Y-99063438D02*
X68280238Y-99015819D01*
X68280238Y-99015819D02*
X68089762Y-99015819D01*
X68089762Y-99015819D02*
X67994524Y-99063438D01*
X67994524Y-99063438D02*
X67946905Y-99111057D01*
X67946905Y-99111057D02*
X67899286Y-99206295D01*
X67899286Y-99206295D02*
X67899286Y-99444390D01*
X67899286Y-99444390D02*
X67946905Y-99539628D01*
X67946905Y-99539628D02*
X67994524Y-99587247D01*
X67994524Y-99587247D02*
X68089762Y-99634866D01*
X68089762Y-99634866D02*
X68280238Y-99634866D01*
X68280238Y-99634866D02*
X68375476Y-99587247D01*
X68375476Y-99587247D02*
X68423095Y-99539628D01*
X68423095Y-99539628D02*
X68470714Y-99444390D01*
X80041819Y-101703857D02*
X79565628Y-102037190D01*
X80041819Y-102275285D02*
X79041819Y-102275285D01*
X79041819Y-102275285D02*
X79041819Y-101894333D01*
X79041819Y-101894333D02*
X79089438Y-101799095D01*
X79089438Y-101799095D02*
X79137057Y-101751476D01*
X79137057Y-101751476D02*
X79232295Y-101703857D01*
X79232295Y-101703857D02*
X79375152Y-101703857D01*
X79375152Y-101703857D02*
X79470390Y-101751476D01*
X79470390Y-101751476D02*
X79518009Y-101799095D01*
X79518009Y-101799095D02*
X79565628Y-101894333D01*
X79565628Y-101894333D02*
X79565628Y-102275285D01*
X80041819Y-100751476D02*
X80041819Y-101322904D01*
X80041819Y-101037190D02*
X79041819Y-101037190D01*
X79041819Y-101037190D02*
X79184676Y-101132428D01*
X79184676Y-101132428D02*
X79279914Y-101227666D01*
X79279914Y-101227666D02*
X79327533Y-101322904D01*
X79041819Y-100132428D02*
X79041819Y-100037190D01*
X79041819Y-100037190D02*
X79089438Y-99941952D01*
X79089438Y-99941952D02*
X79137057Y-99894333D01*
X79137057Y-99894333D02*
X79232295Y-99846714D01*
X79232295Y-99846714D02*
X79422771Y-99799095D01*
X79422771Y-99799095D02*
X79660866Y-99799095D01*
X79660866Y-99799095D02*
X79851342Y-99846714D01*
X79851342Y-99846714D02*
X79946580Y-99894333D01*
X79946580Y-99894333D02*
X79994200Y-99941952D01*
X79994200Y-99941952D02*
X80041819Y-100037190D01*
X80041819Y-100037190D02*
X80041819Y-100132428D01*
X80041819Y-100132428D02*
X79994200Y-100227666D01*
X79994200Y-100227666D02*
X79946580Y-100275285D01*
X79946580Y-100275285D02*
X79851342Y-100322904D01*
X79851342Y-100322904D02*
X79660866Y-100370523D01*
X79660866Y-100370523D02*
X79422771Y-100370523D01*
X79422771Y-100370523D02*
X79232295Y-100322904D01*
X79232295Y-100322904D02*
X79137057Y-100275285D01*
X79137057Y-100275285D02*
X79089438Y-100227666D01*
X79089438Y-100227666D02*
X79041819Y-100132428D01*
X81946905Y-138515819D02*
X81946905Y-137515819D01*
X81946905Y-137515819D02*
X82185000Y-137515819D01*
X82185000Y-137515819D02*
X82327857Y-137563438D01*
X82327857Y-137563438D02*
X82423095Y-137658676D01*
X82423095Y-137658676D02*
X82470714Y-137753914D01*
X82470714Y-137753914D02*
X82518333Y-137944390D01*
X82518333Y-137944390D02*
X82518333Y-138087247D01*
X82518333Y-138087247D02*
X82470714Y-138277723D01*
X82470714Y-138277723D02*
X82423095Y-138372961D01*
X82423095Y-138372961D02*
X82327857Y-138468200D01*
X82327857Y-138468200D02*
X82185000Y-138515819D01*
X82185000Y-138515819D02*
X81946905Y-138515819D01*
X83089762Y-137944390D02*
X82994524Y-137896771D01*
X82994524Y-137896771D02*
X82946905Y-137849152D01*
X82946905Y-137849152D02*
X82899286Y-137753914D01*
X82899286Y-137753914D02*
X82899286Y-137706295D01*
X82899286Y-137706295D02*
X82946905Y-137611057D01*
X82946905Y-137611057D02*
X82994524Y-137563438D01*
X82994524Y-137563438D02*
X83089762Y-137515819D01*
X83089762Y-137515819D02*
X83280238Y-137515819D01*
X83280238Y-137515819D02*
X83375476Y-137563438D01*
X83375476Y-137563438D02*
X83423095Y-137611057D01*
X83423095Y-137611057D02*
X83470714Y-137706295D01*
X83470714Y-137706295D02*
X83470714Y-137753914D01*
X83470714Y-137753914D02*
X83423095Y-137849152D01*
X83423095Y-137849152D02*
X83375476Y-137896771D01*
X83375476Y-137896771D02*
X83280238Y-137944390D01*
X83280238Y-137944390D02*
X83089762Y-137944390D01*
X83089762Y-137944390D02*
X82994524Y-137992009D01*
X82994524Y-137992009D02*
X82946905Y-138039628D01*
X82946905Y-138039628D02*
X82899286Y-138134866D01*
X82899286Y-138134866D02*
X82899286Y-138325342D01*
X82899286Y-138325342D02*
X82946905Y-138420580D01*
X82946905Y-138420580D02*
X82994524Y-138468200D01*
X82994524Y-138468200D02*
X83089762Y-138515819D01*
X83089762Y-138515819D02*
X83280238Y-138515819D01*
X83280238Y-138515819D02*
X83375476Y-138468200D01*
X83375476Y-138468200D02*
X83423095Y-138420580D01*
X83423095Y-138420580D02*
X83470714Y-138325342D01*
X83470714Y-138325342D02*
X83470714Y-138134866D01*
X83470714Y-138134866D02*
X83423095Y-138039628D01*
X83423095Y-138039628D02*
X83375476Y-137992009D01*
X83375476Y-137992009D02*
X83280238Y-137944390D01*
X76044580Y-101727666D02*
X76092200Y-101775285D01*
X76092200Y-101775285D02*
X76139819Y-101918142D01*
X76139819Y-101918142D02*
X76139819Y-102013380D01*
X76139819Y-102013380D02*
X76092200Y-102156237D01*
X76092200Y-102156237D02*
X75996961Y-102251475D01*
X75996961Y-102251475D02*
X75901723Y-102299094D01*
X75901723Y-102299094D02*
X75711247Y-102346713D01*
X75711247Y-102346713D02*
X75568390Y-102346713D01*
X75568390Y-102346713D02*
X75377914Y-102299094D01*
X75377914Y-102299094D02*
X75282676Y-102251475D01*
X75282676Y-102251475D02*
X75187438Y-102156237D01*
X75187438Y-102156237D02*
X75139819Y-102013380D01*
X75139819Y-102013380D02*
X75139819Y-101918142D01*
X75139819Y-101918142D02*
X75187438Y-101775285D01*
X75187438Y-101775285D02*
X75235057Y-101727666D01*
X75139819Y-101394332D02*
X75139819Y-100775285D01*
X75139819Y-100775285D02*
X75520771Y-101108618D01*
X75520771Y-101108618D02*
X75520771Y-100965761D01*
X75520771Y-100965761D02*
X75568390Y-100870523D01*
X75568390Y-100870523D02*
X75616009Y-100822904D01*
X75616009Y-100822904D02*
X75711247Y-100775285D01*
X75711247Y-100775285D02*
X75949342Y-100775285D01*
X75949342Y-100775285D02*
X76044580Y-100822904D01*
X76044580Y-100822904D02*
X76092200Y-100870523D01*
X76092200Y-100870523D02*
X76139819Y-100965761D01*
X76139819Y-100965761D02*
X76139819Y-101251475D01*
X76139819Y-101251475D02*
X76092200Y-101346713D01*
X76092200Y-101346713D02*
X76044580Y-101394332D01*
X91639819Y-149799094D02*
X90639819Y-149799094D01*
X91116009Y-149799094D02*
X91116009Y-149227666D01*
X91639819Y-149227666D02*
X90639819Y-149227666D01*
X91592200Y-148799094D02*
X91639819Y-148656237D01*
X91639819Y-148656237D02*
X91639819Y-148418142D01*
X91639819Y-148418142D02*
X91592200Y-148322904D01*
X91592200Y-148322904D02*
X91544580Y-148275285D01*
X91544580Y-148275285D02*
X91449342Y-148227666D01*
X91449342Y-148227666D02*
X91354104Y-148227666D01*
X91354104Y-148227666D02*
X91258866Y-148275285D01*
X91258866Y-148275285D02*
X91211247Y-148322904D01*
X91211247Y-148322904D02*
X91163628Y-148418142D01*
X91163628Y-148418142D02*
X91116009Y-148608618D01*
X91116009Y-148608618D02*
X91068390Y-148703856D01*
X91068390Y-148703856D02*
X91020771Y-148751475D01*
X91020771Y-148751475D02*
X90925533Y-148799094D01*
X90925533Y-148799094D02*
X90830295Y-148799094D01*
X90830295Y-148799094D02*
X90735057Y-148751475D01*
X90735057Y-148751475D02*
X90687438Y-148703856D01*
X90687438Y-148703856D02*
X90639819Y-148608618D01*
X90639819Y-148608618D02*
X90639819Y-148370523D01*
X90639819Y-148370523D02*
X90687438Y-148227666D01*
X90735057Y-147846713D02*
X90687438Y-147799094D01*
X90687438Y-147799094D02*
X90639819Y-147703856D01*
X90639819Y-147703856D02*
X90639819Y-147465761D01*
X90639819Y-147465761D02*
X90687438Y-147370523D01*
X90687438Y-147370523D02*
X90735057Y-147322904D01*
X90735057Y-147322904D02*
X90830295Y-147275285D01*
X90830295Y-147275285D02*
X90925533Y-147275285D01*
X90925533Y-147275285D02*
X91068390Y-147322904D01*
X91068390Y-147322904D02*
X91639819Y-147894332D01*
X91639819Y-147894332D02*
X91639819Y-147275285D01*
X104044580Y-105203857D02*
X104092200Y-105251476D01*
X104092200Y-105251476D02*
X104139819Y-105394333D01*
X104139819Y-105394333D02*
X104139819Y-105489571D01*
X104139819Y-105489571D02*
X104092200Y-105632428D01*
X104092200Y-105632428D02*
X103996961Y-105727666D01*
X103996961Y-105727666D02*
X103901723Y-105775285D01*
X103901723Y-105775285D02*
X103711247Y-105822904D01*
X103711247Y-105822904D02*
X103568390Y-105822904D01*
X103568390Y-105822904D02*
X103377914Y-105775285D01*
X103377914Y-105775285D02*
X103282676Y-105727666D01*
X103282676Y-105727666D02*
X103187438Y-105632428D01*
X103187438Y-105632428D02*
X103139819Y-105489571D01*
X103139819Y-105489571D02*
X103139819Y-105394333D01*
X103139819Y-105394333D02*
X103187438Y-105251476D01*
X103187438Y-105251476D02*
X103235057Y-105203857D01*
X104139819Y-104251476D02*
X104139819Y-104822904D01*
X104139819Y-104537190D02*
X103139819Y-104537190D01*
X103139819Y-104537190D02*
X103282676Y-104632428D01*
X103282676Y-104632428D02*
X103377914Y-104727666D01*
X103377914Y-104727666D02*
X103425533Y-104822904D01*
X103568390Y-103680047D02*
X103520771Y-103775285D01*
X103520771Y-103775285D02*
X103473152Y-103822904D01*
X103473152Y-103822904D02*
X103377914Y-103870523D01*
X103377914Y-103870523D02*
X103330295Y-103870523D01*
X103330295Y-103870523D02*
X103235057Y-103822904D01*
X103235057Y-103822904D02*
X103187438Y-103775285D01*
X103187438Y-103775285D02*
X103139819Y-103680047D01*
X103139819Y-103680047D02*
X103139819Y-103489571D01*
X103139819Y-103489571D02*
X103187438Y-103394333D01*
X103187438Y-103394333D02*
X103235057Y-103346714D01*
X103235057Y-103346714D02*
X103330295Y-103299095D01*
X103330295Y-103299095D02*
X103377914Y-103299095D01*
X103377914Y-103299095D02*
X103473152Y-103346714D01*
X103473152Y-103346714D02*
X103520771Y-103394333D01*
X103520771Y-103394333D02*
X103568390Y-103489571D01*
X103568390Y-103489571D02*
X103568390Y-103680047D01*
X103568390Y-103680047D02*
X103616009Y-103775285D01*
X103616009Y-103775285D02*
X103663628Y-103822904D01*
X103663628Y-103822904D02*
X103758866Y-103870523D01*
X103758866Y-103870523D02*
X103949342Y-103870523D01*
X103949342Y-103870523D02*
X104044580Y-103822904D01*
X104044580Y-103822904D02*
X104092200Y-103775285D01*
X104092200Y-103775285D02*
X104139819Y-103680047D01*
X104139819Y-103680047D02*
X104139819Y-103489571D01*
X104139819Y-103489571D02*
X104092200Y-103394333D01*
X104092200Y-103394333D02*
X104044580Y-103346714D01*
X104044580Y-103346714D02*
X103949342Y-103299095D01*
X103949342Y-103299095D02*
X103758866Y-103299095D01*
X103758866Y-103299095D02*
X103663628Y-103346714D01*
X103663628Y-103346714D02*
X103616009Y-103394333D01*
X103616009Y-103394333D02*
X103568390Y-103489571D01*
X109542142Y-120420580D02*
X109494523Y-120468200D01*
X109494523Y-120468200D02*
X109351666Y-120515819D01*
X109351666Y-120515819D02*
X109256428Y-120515819D01*
X109256428Y-120515819D02*
X109113571Y-120468200D01*
X109113571Y-120468200D02*
X109018333Y-120372961D01*
X109018333Y-120372961D02*
X108970714Y-120277723D01*
X108970714Y-120277723D02*
X108923095Y-120087247D01*
X108923095Y-120087247D02*
X108923095Y-119944390D01*
X108923095Y-119944390D02*
X108970714Y-119753914D01*
X108970714Y-119753914D02*
X109018333Y-119658676D01*
X109018333Y-119658676D02*
X109113571Y-119563438D01*
X109113571Y-119563438D02*
X109256428Y-119515819D01*
X109256428Y-119515819D02*
X109351666Y-119515819D01*
X109351666Y-119515819D02*
X109494523Y-119563438D01*
X109494523Y-119563438D02*
X109542142Y-119611057D01*
X109923095Y-119611057D02*
X109970714Y-119563438D01*
X109970714Y-119563438D02*
X110065952Y-119515819D01*
X110065952Y-119515819D02*
X110304047Y-119515819D01*
X110304047Y-119515819D02*
X110399285Y-119563438D01*
X110399285Y-119563438D02*
X110446904Y-119611057D01*
X110446904Y-119611057D02*
X110494523Y-119706295D01*
X110494523Y-119706295D02*
X110494523Y-119801533D01*
X110494523Y-119801533D02*
X110446904Y-119944390D01*
X110446904Y-119944390D02*
X109875476Y-120515819D01*
X109875476Y-120515819D02*
X110494523Y-120515819D01*
X110827857Y-119515819D02*
X111446904Y-119515819D01*
X111446904Y-119515819D02*
X111113571Y-119896771D01*
X111113571Y-119896771D02*
X111256428Y-119896771D01*
X111256428Y-119896771D02*
X111351666Y-119944390D01*
X111351666Y-119944390D02*
X111399285Y-119992009D01*
X111399285Y-119992009D02*
X111446904Y-120087247D01*
X111446904Y-120087247D02*
X111446904Y-120325342D01*
X111446904Y-120325342D02*
X111399285Y-120420580D01*
X111399285Y-120420580D02*
X111351666Y-120468200D01*
X111351666Y-120468200D02*
X111256428Y-120515819D01*
X111256428Y-120515819D02*
X110970714Y-120515819D01*
X110970714Y-120515819D02*
X110875476Y-120468200D01*
X110875476Y-120468200D02*
X110827857Y-120420580D01*
X93042142Y-111515819D02*
X92708809Y-111039628D01*
X92470714Y-111515819D02*
X92470714Y-110515819D01*
X92470714Y-110515819D02*
X92851666Y-110515819D01*
X92851666Y-110515819D02*
X92946904Y-110563438D01*
X92946904Y-110563438D02*
X92994523Y-110611057D01*
X92994523Y-110611057D02*
X93042142Y-110706295D01*
X93042142Y-110706295D02*
X93042142Y-110849152D01*
X93042142Y-110849152D02*
X92994523Y-110944390D01*
X92994523Y-110944390D02*
X92946904Y-110992009D01*
X92946904Y-110992009D02*
X92851666Y-111039628D01*
X92851666Y-111039628D02*
X92470714Y-111039628D01*
X93994523Y-111515819D02*
X93423095Y-111515819D01*
X93708809Y-111515819D02*
X93708809Y-110515819D01*
X93708809Y-110515819D02*
X93613571Y-110658676D01*
X93613571Y-110658676D02*
X93518333Y-110753914D01*
X93518333Y-110753914D02*
X93423095Y-110801533D01*
X94851666Y-110849152D02*
X94851666Y-111515819D01*
X94613571Y-110468200D02*
X94375476Y-111182485D01*
X94375476Y-111182485D02*
X94994523Y-111182485D01*
X45946905Y-111015819D02*
X45946905Y-110015819D01*
X45946905Y-110015819D02*
X46185000Y-110015819D01*
X46185000Y-110015819D02*
X46327857Y-110063438D01*
X46327857Y-110063438D02*
X46423095Y-110158676D01*
X46423095Y-110158676D02*
X46470714Y-110253914D01*
X46470714Y-110253914D02*
X46518333Y-110444390D01*
X46518333Y-110444390D02*
X46518333Y-110587247D01*
X46518333Y-110587247D02*
X46470714Y-110777723D01*
X46470714Y-110777723D02*
X46423095Y-110872961D01*
X46423095Y-110872961D02*
X46327857Y-110968200D01*
X46327857Y-110968200D02*
X46185000Y-111015819D01*
X46185000Y-111015819D02*
X45946905Y-111015819D01*
X46851667Y-110015819D02*
X47518333Y-110015819D01*
X47518333Y-110015819D02*
X47089762Y-111015819D01*
X63446905Y-101015819D02*
X63446905Y-100015819D01*
X63446905Y-100015819D02*
X63685000Y-100015819D01*
X63685000Y-100015819D02*
X63827857Y-100063438D01*
X63827857Y-100063438D02*
X63923095Y-100158676D01*
X63923095Y-100158676D02*
X63970714Y-100253914D01*
X63970714Y-100253914D02*
X64018333Y-100444390D01*
X64018333Y-100444390D02*
X64018333Y-100587247D01*
X64018333Y-100587247D02*
X63970714Y-100777723D01*
X63970714Y-100777723D02*
X63923095Y-100872961D01*
X63923095Y-100872961D02*
X63827857Y-100968200D01*
X63827857Y-100968200D02*
X63685000Y-101015819D01*
X63685000Y-101015819D02*
X63446905Y-101015819D01*
X64970714Y-101015819D02*
X64399286Y-101015819D01*
X64685000Y-101015819D02*
X64685000Y-100015819D01*
X64685000Y-100015819D02*
X64589762Y-100158676D01*
X64589762Y-100158676D02*
X64494524Y-100253914D01*
X64494524Y-100253914D02*
X64399286Y-100301533D01*
X94518333Y-144515819D02*
X94042143Y-144515819D01*
X94042143Y-144515819D02*
X94042143Y-143515819D01*
X95375476Y-144515819D02*
X94804048Y-144515819D01*
X95089762Y-144515819D02*
X95089762Y-143515819D01*
X95089762Y-143515819D02*
X94994524Y-143658676D01*
X94994524Y-143658676D02*
X94899286Y-143753914D01*
X94899286Y-143753914D02*
X94804048Y-143801533D01*
X68139819Y-96822904D02*
X68949342Y-96822904D01*
X68949342Y-96822904D02*
X69044580Y-96775285D01*
X69044580Y-96775285D02*
X69092200Y-96727666D01*
X69092200Y-96727666D02*
X69139819Y-96632428D01*
X69139819Y-96632428D02*
X69139819Y-96441952D01*
X69139819Y-96441952D02*
X69092200Y-96346714D01*
X69092200Y-96346714D02*
X69044580Y-96299095D01*
X69044580Y-96299095D02*
X68949342Y-96251476D01*
X68949342Y-96251476D02*
X68139819Y-96251476D01*
X69139819Y-95251476D02*
X69139819Y-95822904D01*
X69139819Y-95537190D02*
X68139819Y-95537190D01*
X68139819Y-95537190D02*
X68282676Y-95632428D01*
X68282676Y-95632428D02*
X68377914Y-95727666D01*
X68377914Y-95727666D02*
X68425533Y-95822904D01*
X43589761Y-109611057D02*
X43494523Y-109563438D01*
X43494523Y-109563438D02*
X43399285Y-109468200D01*
X43399285Y-109468200D02*
X43256428Y-109325342D01*
X43256428Y-109325342D02*
X43161190Y-109277723D01*
X43161190Y-109277723D02*
X43065952Y-109277723D01*
X43113571Y-109515819D02*
X43018333Y-109468200D01*
X43018333Y-109468200D02*
X42923095Y-109372961D01*
X42923095Y-109372961D02*
X42875476Y-109182485D01*
X42875476Y-109182485D02*
X42875476Y-108849152D01*
X42875476Y-108849152D02*
X42923095Y-108658676D01*
X42923095Y-108658676D02*
X43018333Y-108563438D01*
X43018333Y-108563438D02*
X43113571Y-108515819D01*
X43113571Y-108515819D02*
X43304047Y-108515819D01*
X43304047Y-108515819D02*
X43399285Y-108563438D01*
X43399285Y-108563438D02*
X43494523Y-108658676D01*
X43494523Y-108658676D02*
X43542142Y-108849152D01*
X43542142Y-108849152D02*
X43542142Y-109182485D01*
X43542142Y-109182485D02*
X43494523Y-109372961D01*
X43494523Y-109372961D02*
X43399285Y-109468200D01*
X43399285Y-109468200D02*
X43304047Y-109515819D01*
X43304047Y-109515819D02*
X43113571Y-109515819D01*
X44494523Y-109515819D02*
X43923095Y-109515819D01*
X44208809Y-109515819D02*
X44208809Y-108515819D01*
X44208809Y-108515819D02*
X44113571Y-108658676D01*
X44113571Y-108658676D02*
X44018333Y-108753914D01*
X44018333Y-108753914D02*
X43923095Y-108801533D01*
D14*
%TO.C,R15*%
X95648700Y-114653942D02*
X95648700Y-115128458D01*
X96693700Y-114653942D02*
X96693700Y-115128458D01*
%TO.C,R17*%
X97148700Y-111681942D02*
X97148700Y-112156458D01*
X98193700Y-111681942D02*
X98193700Y-112156458D01*
%TO.C,R23*%
X59315000Y-96961000D02*
X60275000Y-96961000D01*
X59315000Y-96961000D02*
G75*
G02*
X54075000Y-96961000I-2620000J0D01*
G01*
X54075000Y-96961000D02*
G75*
G02*
X59315000Y-96961000I2620000J0D01*
G01*
%TO.C,R12*%
X90522742Y-110488500D02*
X90997258Y-110488500D01*
X90522742Y-111533500D02*
X90997258Y-111533500D01*
%TO.C,R18*%
X95648700Y-112156458D02*
X95648700Y-111681942D01*
X96693700Y-112156458D02*
X96693700Y-111681942D01*
%TO.C,R6*%
X94707936Y-91901000D02*
X96162064Y-91901000D01*
X94707936Y-93721000D02*
X96162064Y-93721000D01*
%TO.C,D6*%
X103485000Y-46921000D02*
X107085000Y-46921000D01*
X103485000Y-48921000D02*
X103485000Y-46921000D01*
X103485000Y-54021000D02*
X103485000Y-52021000D01*
X103485000Y-59021000D02*
X103485000Y-57121000D01*
X103485000Y-63721000D02*
X103485000Y-62221000D01*
X103485000Y-69221000D02*
X103485000Y-67721000D01*
X107085000Y-46921000D02*
X107085000Y-69221000D01*
X107085000Y-66021000D02*
X106585000Y-66021000D01*
X107085000Y-69221000D02*
X103485000Y-69221000D01*
%TO.C,TR1*%
D12*
X80722000Y-113237000D02*
X35002000Y-113237000D01*
X35002000Y-153877000D01*
X80722000Y-153877000D01*
X80722000Y-113237000D01*
D14*
X73102000Y-118317000D02*
X70562000Y-113237000D01*
X75642000Y-113237000D01*
X73102000Y-118317000D01*
G36*
X73102000Y-118317000D02*
G01*
X70562000Y-113237000D01*
X75642000Y-113237000D01*
X73102000Y-118317000D01*
G37*
%TO.C,F1*%
X44885000Y-67061000D02*
G75*
G02*
X35885000Y-67061000I-4500000J0D01*
G01*
X35885000Y-67061000D02*
G75*
G02*
X44885000Y-67061000I4500000J0D01*
G01*
%TO.C,C17*%
X99450000Y-108522252D02*
X99450000Y-107999748D01*
X100920000Y-108522252D02*
X100920000Y-107999748D01*
D10*
%TO.C,RV1*%
X46035000Y-61911000D02*
X46035000Y-78711000D01*
X53035000Y-61911000D02*
X46035000Y-61911000D01*
X53035000Y-61911000D02*
X53035000Y-78711000D01*
X53035000Y-78711000D02*
X46035000Y-78711000D01*
D14*
%TO.C,C2*%
X71175000Y-93726580D02*
X71175000Y-93445420D01*
X72195000Y-93726580D02*
X72195000Y-93445420D01*
%TO.C,SW1*%
X53185000Y-46661000D02*
X21685000Y-46661000D01*
X21685000Y-61461000D01*
X53185000Y-61461000D01*
X53185000Y-46661000D01*
%TO.C,C4*%
X69705000Y-104070420D02*
X69705000Y-104351580D01*
X70725000Y-104070420D02*
X70725000Y-104351580D01*
%TO.C,C12*%
X101315000Y-93191000D02*
X102679000Y-93191000D01*
X101315000Y-100931000D02*
X101315000Y-93191000D01*
X101315000Y-100931000D02*
X102679000Y-100931000D01*
X105191000Y-93191000D02*
X106555000Y-93191000D01*
X105191000Y-100931000D02*
X106555000Y-100931000D01*
X106555000Y-100931000D02*
X106555000Y-93191000D01*
%TO.C,C21*%
X103500000Y-107999748D02*
X103500000Y-108522252D01*
X104970000Y-107999748D02*
X104970000Y-108522252D01*
%TO.C,C29*%
X81215000Y-151391000D02*
X82579000Y-151391000D01*
X81215000Y-159131000D02*
X81215000Y-151391000D01*
X81215000Y-159131000D02*
X82579000Y-159131000D01*
X85091000Y-151391000D02*
X86455000Y-151391000D01*
X85091000Y-159131000D02*
X86455000Y-159131000D01*
X86455000Y-159131000D02*
X86455000Y-151391000D01*
%TO.C,C10*%
X72675000Y-93445420D02*
X72675000Y-93726580D01*
X73695000Y-93445420D02*
X73695000Y-93726580D01*
%TO.C,C26*%
X92281459Y-149486000D02*
X93531459Y-149486000D01*
X92906459Y-148861000D02*
X92906459Y-150111000D01*
X99098541Y-147531000D02*
X99098541Y-160191000D01*
X99138541Y-147531000D02*
X99138541Y-160191000D01*
X99178541Y-147531000D02*
X99178541Y-160191000D01*
X99218541Y-147532000D02*
X99218541Y-160190000D01*
X99258541Y-147533000D02*
X99258541Y-160189000D01*
X99298541Y-147534000D02*
X99298541Y-160188000D01*
X99338541Y-147535000D02*
X99338541Y-160187000D01*
X99378541Y-147537000D02*
X99378541Y-160185000D01*
X99418541Y-147539000D02*
X99418541Y-160183000D01*
X99458541Y-147541000D02*
X99458541Y-160181000D01*
X99498541Y-147543000D02*
X99498541Y-160179000D01*
X99538541Y-147546000D02*
X99538541Y-160176000D01*
X99578541Y-147549000D02*
X99578541Y-160173000D01*
X99618541Y-147552000D02*
X99618541Y-160170000D01*
X99658541Y-147555000D02*
X99658541Y-160167000D01*
X99698541Y-147559000D02*
X99698541Y-160163000D01*
X99738541Y-147563000D02*
X99738541Y-160159000D01*
X99778541Y-147567000D02*
X99778541Y-160155000D01*
X99819541Y-147571000D02*
X99819541Y-160151000D01*
X99859541Y-147576000D02*
X99859541Y-160146000D01*
X99899541Y-147581000D02*
X99899541Y-160141000D01*
X99939541Y-147586000D02*
X99939541Y-160136000D01*
X99979541Y-147592000D02*
X99979541Y-160130000D01*
X100019541Y-147597000D02*
X100019541Y-160125000D01*
X100059541Y-147603000D02*
X100059541Y-160119000D01*
X100099541Y-147609000D02*
X100099541Y-160113000D01*
X100139541Y-147616000D02*
X100139541Y-160106000D01*
X100179541Y-147623000D02*
X100179541Y-152421000D01*
X100179541Y-155301000D02*
X100179541Y-160099000D01*
X100219541Y-147630000D02*
X100219541Y-152421000D01*
X100219541Y-155301000D02*
X100219541Y-160092000D01*
X100259541Y-147637000D02*
X100259541Y-152421000D01*
X100259541Y-155301000D02*
X100259541Y-160085000D01*
X100299541Y-147645000D02*
X100299541Y-152421000D01*
X100299541Y-155301000D02*
X100299541Y-160077000D01*
X100339541Y-147652000D02*
X100339541Y-152421000D01*
X100339541Y-155301000D02*
X100339541Y-160070000D01*
X100379541Y-147660000D02*
X100379541Y-152421000D01*
X100379541Y-155301000D02*
X100379541Y-160062000D01*
X100419541Y-147669000D02*
X100419541Y-152421000D01*
X100419541Y-155301000D02*
X100419541Y-160053000D01*
X100459541Y-147677000D02*
X100459541Y-152421000D01*
X100459541Y-155301000D02*
X100459541Y-160045000D01*
X100499541Y-147686000D02*
X100499541Y-152421000D01*
X100499541Y-155301000D02*
X100499541Y-160036000D01*
X100539541Y-147695000D02*
X100539541Y-152421000D01*
X100539541Y-155301000D02*
X100539541Y-160027000D01*
X100579541Y-147705000D02*
X100579541Y-152421000D01*
X100579541Y-155301000D02*
X100579541Y-160017000D01*
X100619541Y-147715000D02*
X100619541Y-152421000D01*
X100619541Y-155301000D02*
X100619541Y-160007000D01*
X100659541Y-147724000D02*
X100659541Y-152421000D01*
X100659541Y-155301000D02*
X100659541Y-159998000D01*
X100699541Y-147735000D02*
X100699541Y-152421000D01*
X100699541Y-155301000D02*
X100699541Y-159987000D01*
X100739541Y-147745000D02*
X100739541Y-152421000D01*
X100739541Y-155301000D02*
X100739541Y-159977000D01*
X100779541Y-147756000D02*
X100779541Y-152421000D01*
X100779541Y-155301000D02*
X100779541Y-159966000D01*
X100819541Y-147767000D02*
X100819541Y-152421000D01*
X100819541Y-155301000D02*
X100819541Y-159955000D01*
X100859541Y-147778000D02*
X100859541Y-152421000D01*
X100859541Y-155301000D02*
X100859541Y-159944000D01*
X100899541Y-147790000D02*
X100899541Y-152421000D01*
X100899541Y-155301000D02*
X100899541Y-159932000D01*
X100939541Y-147802000D02*
X100939541Y-152421000D01*
X100939541Y-155301000D02*
X100939541Y-159920000D01*
X100979541Y-147814000D02*
X100979541Y-152421000D01*
X100979541Y-155301000D02*
X100979541Y-159908000D01*
X101019541Y-147827000D02*
X101019541Y-152421000D01*
X101019541Y-155301000D02*
X101019541Y-159895000D01*
X101059541Y-147840000D02*
X101059541Y-152421000D01*
X101059541Y-155301000D02*
X101059541Y-159882000D01*
X101099541Y-147853000D02*
X101099541Y-152421000D01*
X101099541Y-155301000D02*
X101099541Y-159869000D01*
X101139541Y-147866000D02*
X101139541Y-152421000D01*
X101139541Y-155301000D02*
X101139541Y-159856000D01*
X101179541Y-147880000D02*
X101179541Y-152421000D01*
X101179541Y-155301000D02*
X101179541Y-159842000D01*
X101219541Y-147894000D02*
X101219541Y-152421000D01*
X101219541Y-155301000D02*
X101219541Y-159828000D01*
X101259541Y-147908000D02*
X101259541Y-152421000D01*
X101259541Y-155301000D02*
X101259541Y-159814000D01*
X101299541Y-147922000D02*
X101299541Y-152421000D01*
X101299541Y-155301000D02*
X101299541Y-159800000D01*
X101339541Y-147937000D02*
X101339541Y-152421000D01*
X101339541Y-155301000D02*
X101339541Y-159785000D01*
X101379541Y-147953000D02*
X101379541Y-152421000D01*
X101379541Y-155301000D02*
X101379541Y-159769000D01*
X101419541Y-147968000D02*
X101419541Y-152421000D01*
X101419541Y-155301000D02*
X101419541Y-159754000D01*
X101459541Y-147984000D02*
X101459541Y-152421000D01*
X101459541Y-155301000D02*
X101459541Y-159738000D01*
X101499541Y-148000000D02*
X101499541Y-152421000D01*
X101499541Y-155301000D02*
X101499541Y-159722000D01*
X101539541Y-148016000D02*
X101539541Y-152421000D01*
X101539541Y-155301000D02*
X101539541Y-159706000D01*
X101579541Y-148033000D02*
X101579541Y-152421000D01*
X101579541Y-155301000D02*
X101579541Y-159689000D01*
X101619541Y-148050000D02*
X101619541Y-152421000D01*
X101619541Y-155301000D02*
X101619541Y-159672000D01*
X101659541Y-148068000D02*
X101659541Y-152421000D01*
X101659541Y-155301000D02*
X101659541Y-159654000D01*
X101699541Y-148085000D02*
X101699541Y-152421000D01*
X101699541Y-155301000D02*
X101699541Y-159637000D01*
X101739541Y-148103000D02*
X101739541Y-152421000D01*
X101739541Y-155301000D02*
X101739541Y-159619000D01*
X101779541Y-148122000D02*
X101779541Y-152421000D01*
X101779541Y-155301000D02*
X101779541Y-159600000D01*
X101819541Y-148140000D02*
X101819541Y-152421000D01*
X101819541Y-155301000D02*
X101819541Y-159582000D01*
X101859541Y-148159000D02*
X101859541Y-152421000D01*
X101859541Y-155301000D02*
X101859541Y-159563000D01*
X101899541Y-148179000D02*
X101899541Y-152421000D01*
X101899541Y-155301000D02*
X101899541Y-159543000D01*
X101939541Y-148199000D02*
X101939541Y-152421000D01*
X101939541Y-155301000D02*
X101939541Y-159523000D01*
X101979541Y-148219000D02*
X101979541Y-152421000D01*
X101979541Y-155301000D02*
X101979541Y-159503000D01*
X102019541Y-148239000D02*
X102019541Y-152421000D01*
X102019541Y-155301000D02*
X102019541Y-159483000D01*
X102059541Y-148260000D02*
X102059541Y-152421000D01*
X102059541Y-155301000D02*
X102059541Y-159462000D01*
X102099541Y-148281000D02*
X102099541Y-152421000D01*
X102099541Y-155301000D02*
X102099541Y-159441000D01*
X102139541Y-148303000D02*
X102139541Y-152421000D01*
X102139541Y-155301000D02*
X102139541Y-159419000D01*
X102179541Y-148325000D02*
X102179541Y-152421000D01*
X102179541Y-155301000D02*
X102179541Y-159397000D01*
X102219541Y-148347000D02*
X102219541Y-152421000D01*
X102219541Y-155301000D02*
X102219541Y-159375000D01*
X102259541Y-148370000D02*
X102259541Y-152421000D01*
X102259541Y-155301000D02*
X102259541Y-159352000D01*
X102299541Y-148393000D02*
X102299541Y-152421000D01*
X102299541Y-155301000D02*
X102299541Y-159329000D01*
X102339541Y-148416000D02*
X102339541Y-152421000D01*
X102339541Y-155301000D02*
X102339541Y-159306000D01*
X102379541Y-148440000D02*
X102379541Y-152421000D01*
X102379541Y-155301000D02*
X102379541Y-159282000D01*
X102419541Y-148464000D02*
X102419541Y-152421000D01*
X102419541Y-155301000D02*
X102419541Y-159258000D01*
X102459541Y-148489000D02*
X102459541Y-152421000D01*
X102459541Y-155301000D02*
X102459541Y-159233000D01*
X102499541Y-148514000D02*
X102499541Y-152421000D01*
X102499541Y-155301000D02*
X102499541Y-159208000D01*
X102539541Y-148539000D02*
X102539541Y-152421000D01*
X102539541Y-155301000D02*
X102539541Y-159183000D01*
X102579541Y-148565000D02*
X102579541Y-152421000D01*
X102579541Y-155301000D02*
X102579541Y-159157000D01*
X102619541Y-148591000D02*
X102619541Y-152421000D01*
X102619541Y-155301000D02*
X102619541Y-159131000D01*
X102659541Y-148618000D02*
X102659541Y-152421000D01*
X102659541Y-155301000D02*
X102659541Y-159104000D01*
X102699541Y-148645000D02*
X102699541Y-152421000D01*
X102699541Y-155301000D02*
X102699541Y-159077000D01*
X102739541Y-148673000D02*
X102739541Y-152421000D01*
X102739541Y-155301000D02*
X102739541Y-159049000D01*
X102779541Y-148701000D02*
X102779541Y-152421000D01*
X102779541Y-155301000D02*
X102779541Y-159021000D01*
X102819541Y-148730000D02*
X102819541Y-152421000D01*
X102819541Y-155301000D02*
X102819541Y-158992000D01*
X102859541Y-148759000D02*
X102859541Y-152421000D01*
X102859541Y-155301000D02*
X102859541Y-158963000D01*
X102899541Y-148788000D02*
X102899541Y-152421000D01*
X102899541Y-155301000D02*
X102899541Y-158934000D01*
X102939541Y-148818000D02*
X102939541Y-152421000D01*
X102939541Y-155301000D02*
X102939541Y-158904000D01*
X102979541Y-148849000D02*
X102979541Y-152421000D01*
X102979541Y-155301000D02*
X102979541Y-158873000D01*
X103019541Y-148879000D02*
X103019541Y-152421000D01*
X103019541Y-155301000D02*
X103019541Y-158843000D01*
X103059541Y-148911000D02*
X103059541Y-158811000D01*
X103099541Y-148943000D02*
X103099541Y-158779000D01*
X103139541Y-148976000D02*
X103139541Y-158746000D01*
X103179541Y-149009000D02*
X103179541Y-158713000D01*
X103219541Y-149042000D02*
X103219541Y-158680000D01*
X103259541Y-149076000D02*
X103259541Y-158646000D01*
X103299541Y-149111000D02*
X103299541Y-158611000D01*
X103339541Y-149147000D02*
X103339541Y-158575000D01*
X103379541Y-149183000D02*
X103379541Y-158539000D01*
X103419541Y-149219000D02*
X103419541Y-158503000D01*
X103459541Y-149256000D02*
X103459541Y-158466000D01*
X103499541Y-149294000D02*
X103499541Y-158428000D01*
X103539541Y-149333000D02*
X103539541Y-158389000D01*
X103579541Y-149372000D02*
X103579541Y-158350000D01*
X103619541Y-149412000D02*
X103619541Y-158310000D01*
X103659541Y-149453000D02*
X103659541Y-158269000D01*
X103699541Y-149494000D02*
X103699541Y-158228000D01*
X103739541Y-149536000D02*
X103739541Y-158186000D01*
X103779541Y-149579000D02*
X103779541Y-158143000D01*
X103819541Y-149623000D02*
X103819541Y-158099000D01*
X103859541Y-149667000D02*
X103859541Y-158055000D01*
X103899541Y-149713000D02*
X103899541Y-158009000D01*
X103939541Y-149759000D02*
X103939541Y-157963000D01*
X103979541Y-149806000D02*
X103979541Y-157916000D01*
X104019541Y-149854000D02*
X104019541Y-157868000D01*
X104059541Y-149904000D02*
X104059541Y-157818000D01*
X104099541Y-149954000D02*
X104099541Y-157768000D01*
X104139541Y-150005000D02*
X104139541Y-157717000D01*
X104179541Y-150057000D02*
X104179541Y-157665000D01*
X104219541Y-150111000D02*
X104219541Y-157611000D01*
X104259541Y-150165000D02*
X104259541Y-157557000D01*
X104299541Y-150221000D02*
X104299541Y-157501000D01*
X104339541Y-150278000D02*
X104339541Y-157444000D01*
X104379541Y-150337000D02*
X104379541Y-157385000D01*
X104419541Y-150397000D02*
X104419541Y-157325000D01*
X104459541Y-150459000D02*
X104459541Y-157263000D01*
X104499541Y-150522000D02*
X104499541Y-157200000D01*
X104539541Y-150586000D02*
X104539541Y-157136000D01*
X104579541Y-150653000D02*
X104579541Y-157069000D01*
X104619541Y-150721000D02*
X104619541Y-157001000D01*
X104659541Y-150792000D02*
X104659541Y-156930000D01*
X104699541Y-150865000D02*
X104699541Y-156857000D01*
X104739541Y-150940000D02*
X104739541Y-156782000D01*
X104779541Y-151017000D02*
X104779541Y-156705000D01*
X104819541Y-151097000D02*
X104819541Y-156625000D01*
X104859541Y-151180000D02*
X104859541Y-156542000D01*
X104899541Y-151267000D02*
X104899541Y-156455000D01*
X104939541Y-151357000D02*
X104939541Y-156365000D01*
X104979541Y-151451000D02*
X104979541Y-156271000D01*
X105019541Y-151549000D02*
X105019541Y-156173000D01*
X105059541Y-151652000D02*
X105059541Y-156070000D01*
X105099541Y-151761000D02*
X105099541Y-155961000D01*
X105139541Y-151877000D02*
X105139541Y-155845000D01*
X105179541Y-152000000D02*
X105179541Y-155722000D01*
X105219541Y-152133000D02*
X105219541Y-155589000D01*
X105259541Y-152278000D02*
X105259541Y-155444000D01*
X105299541Y-152439000D02*
X105299541Y-155283000D01*
X105339541Y-152620000D02*
X105339541Y-155102000D01*
X105379541Y-152833000D02*
X105379541Y-154889000D01*
X105419541Y-153104000D02*
X105419541Y-154618000D01*
X105459541Y-153544000D02*
X105459541Y-154178000D01*
D13*
X105598541Y-153861000D02*
G75*
G02*
X92598541Y-153861000I-6500000J0D01*
G01*
X92598541Y-153861000D02*
G75*
G02*
X105598541Y-153861000I6500000J0D01*
G01*
%TO.C,C7*%
D14*
X65185000Y-42811000D02*
X54185000Y-42811000D01*
X54185000Y-68811000D01*
X65185000Y-68811000D01*
X65185000Y-42811000D01*
%TO.C,R3*%
X55947742Y-100563500D02*
X56422258Y-100563500D01*
X55947742Y-101608500D02*
X56422258Y-101608500D01*
%TO.C,C5*%
X71205000Y-104070420D02*
X71205000Y-104351580D01*
X72225000Y-104070420D02*
X72225000Y-104351580D01*
%TO.C,R2*%
X55947742Y-102038500D02*
X56422258Y-102038500D01*
X55947742Y-103083500D02*
X56422258Y-103083500D01*
%TO.C,D4*%
X66085000Y-109201000D02*
X66085000Y-111861000D01*
X67785000Y-109201000D02*
X66085000Y-109201000D01*
X67785000Y-109201000D02*
X67785000Y-111861000D01*
%TO.C,C25*%
X103481459Y-138186000D02*
X104731459Y-138186000D01*
X104106459Y-137561000D02*
X104106459Y-138811000D01*
X110298541Y-136231000D02*
X110298541Y-148891000D01*
X110338541Y-136231000D02*
X110338541Y-148891000D01*
X110378541Y-136231000D02*
X110378541Y-148891000D01*
X110418541Y-136232000D02*
X110418541Y-148890000D01*
X110458541Y-136233000D02*
X110458541Y-148889000D01*
X110498541Y-136234000D02*
X110498541Y-148888000D01*
X110538541Y-136235000D02*
X110538541Y-148887000D01*
X110578541Y-136237000D02*
X110578541Y-148885000D01*
X110618541Y-136239000D02*
X110618541Y-148883000D01*
X110658541Y-136241000D02*
X110658541Y-148881000D01*
X110698541Y-136243000D02*
X110698541Y-148879000D01*
X110738541Y-136246000D02*
X110738541Y-148876000D01*
X110778541Y-136249000D02*
X110778541Y-148873000D01*
X110818541Y-136252000D02*
X110818541Y-148870000D01*
X110858541Y-136255000D02*
X110858541Y-148867000D01*
X110898541Y-136259000D02*
X110898541Y-148863000D01*
X110938541Y-136263000D02*
X110938541Y-148859000D01*
X110978541Y-136267000D02*
X110978541Y-148855000D01*
X111019541Y-136271000D02*
X111019541Y-148851000D01*
X111059541Y-136276000D02*
X111059541Y-148846000D01*
X111099541Y-136281000D02*
X111099541Y-148841000D01*
X111139541Y-136286000D02*
X111139541Y-148836000D01*
X111179541Y-136292000D02*
X111179541Y-148830000D01*
X111219541Y-136297000D02*
X111219541Y-148825000D01*
X111259541Y-136303000D02*
X111259541Y-148819000D01*
X111299541Y-136309000D02*
X111299541Y-148813000D01*
X111339541Y-136316000D02*
X111339541Y-148806000D01*
X111379541Y-136323000D02*
X111379541Y-141121000D01*
X111379541Y-144001000D02*
X111379541Y-148799000D01*
X111419541Y-136330000D02*
X111419541Y-141121000D01*
X111419541Y-144001000D02*
X111419541Y-148792000D01*
X111459541Y-136337000D02*
X111459541Y-141121000D01*
X111459541Y-144001000D02*
X111459541Y-148785000D01*
X111499541Y-136345000D02*
X111499541Y-141121000D01*
X111499541Y-144001000D02*
X111499541Y-148777000D01*
X111539541Y-136352000D02*
X111539541Y-141121000D01*
X111539541Y-144001000D02*
X111539541Y-148770000D01*
X111579541Y-136360000D02*
X111579541Y-141121000D01*
X111579541Y-144001000D02*
X111579541Y-148762000D01*
X111619541Y-136369000D02*
X111619541Y-141121000D01*
X111619541Y-144001000D02*
X111619541Y-148753000D01*
X111659541Y-136377000D02*
X111659541Y-141121000D01*
X111659541Y-144001000D02*
X111659541Y-148745000D01*
X111699541Y-136386000D02*
X111699541Y-141121000D01*
X111699541Y-144001000D02*
X111699541Y-148736000D01*
X111739541Y-136395000D02*
X111739541Y-141121000D01*
X111739541Y-144001000D02*
X111739541Y-148727000D01*
X111779541Y-136405000D02*
X111779541Y-141121000D01*
X111779541Y-144001000D02*
X111779541Y-148717000D01*
X111819541Y-136415000D02*
X111819541Y-141121000D01*
X111819541Y-144001000D02*
X111819541Y-148707000D01*
X111859541Y-136424000D02*
X111859541Y-141121000D01*
X111859541Y-144001000D02*
X111859541Y-148698000D01*
X111899541Y-136435000D02*
X111899541Y-141121000D01*
X111899541Y-144001000D02*
X111899541Y-148687000D01*
X111939541Y-136445000D02*
X111939541Y-141121000D01*
X111939541Y-144001000D02*
X111939541Y-148677000D01*
X111979541Y-136456000D02*
X111979541Y-141121000D01*
X111979541Y-144001000D02*
X111979541Y-148666000D01*
X112019541Y-136467000D02*
X112019541Y-141121000D01*
X112019541Y-144001000D02*
X112019541Y-148655000D01*
X112059541Y-136478000D02*
X112059541Y-141121000D01*
X112059541Y-144001000D02*
X112059541Y-148644000D01*
X112099541Y-136490000D02*
X112099541Y-141121000D01*
X112099541Y-144001000D02*
X112099541Y-148632000D01*
X112139541Y-136502000D02*
X112139541Y-141121000D01*
X112139541Y-144001000D02*
X112139541Y-148620000D01*
X112179541Y-136514000D02*
X112179541Y-141121000D01*
X112179541Y-144001000D02*
X112179541Y-148608000D01*
X112219541Y-136527000D02*
X112219541Y-141121000D01*
X112219541Y-144001000D02*
X112219541Y-148595000D01*
X112259541Y-136540000D02*
X112259541Y-141121000D01*
X112259541Y-144001000D02*
X112259541Y-148582000D01*
X112299541Y-136553000D02*
X112299541Y-141121000D01*
X112299541Y-144001000D02*
X112299541Y-148569000D01*
X112339541Y-136566000D02*
X112339541Y-141121000D01*
X112339541Y-144001000D02*
X112339541Y-148556000D01*
X112379541Y-136580000D02*
X112379541Y-141121000D01*
X112379541Y-144001000D02*
X112379541Y-148542000D01*
X112419541Y-136594000D02*
X112419541Y-141121000D01*
X112419541Y-144001000D02*
X112419541Y-148528000D01*
X112459541Y-136608000D02*
X112459541Y-141121000D01*
X112459541Y-144001000D02*
X112459541Y-148514000D01*
X112499541Y-136622000D02*
X112499541Y-141121000D01*
X112499541Y-144001000D02*
X112499541Y-148500000D01*
X112539541Y-136637000D02*
X112539541Y-141121000D01*
X112539541Y-144001000D02*
X112539541Y-148485000D01*
X112579541Y-136653000D02*
X112579541Y-141121000D01*
X112579541Y-144001000D02*
X112579541Y-148469000D01*
X112619541Y-136668000D02*
X112619541Y-141121000D01*
X112619541Y-144001000D02*
X112619541Y-148454000D01*
X112659541Y-136684000D02*
X112659541Y-141121000D01*
X112659541Y-144001000D02*
X112659541Y-148438000D01*
X112699541Y-136700000D02*
X112699541Y-141121000D01*
X112699541Y-144001000D02*
X112699541Y-148422000D01*
X112739541Y-136716000D02*
X112739541Y-141121000D01*
X112739541Y-144001000D02*
X112739541Y-148406000D01*
X112779541Y-136733000D02*
X112779541Y-141121000D01*
X112779541Y-144001000D02*
X112779541Y-148389000D01*
X112819541Y-136750000D02*
X112819541Y-141121000D01*
X112819541Y-144001000D02*
X112819541Y-148372000D01*
X112859541Y-136768000D02*
X112859541Y-141121000D01*
X112859541Y-144001000D02*
X112859541Y-148354000D01*
X112899541Y-136785000D02*
X112899541Y-141121000D01*
X112899541Y-144001000D02*
X112899541Y-148337000D01*
X112939541Y-136803000D02*
X112939541Y-141121000D01*
X112939541Y-144001000D02*
X112939541Y-148319000D01*
X112979541Y-136822000D02*
X112979541Y-141121000D01*
X112979541Y-144001000D02*
X112979541Y-148300000D01*
X113019541Y-136840000D02*
X113019541Y-141121000D01*
X113019541Y-144001000D02*
X113019541Y-148282000D01*
X113059541Y-136859000D02*
X113059541Y-141121000D01*
X113059541Y-144001000D02*
X113059541Y-148263000D01*
X113099541Y-136879000D02*
X113099541Y-141121000D01*
X113099541Y-144001000D02*
X113099541Y-148243000D01*
X113139541Y-136899000D02*
X113139541Y-141121000D01*
X113139541Y-144001000D02*
X113139541Y-148223000D01*
X113179541Y-136919000D02*
X113179541Y-141121000D01*
X113179541Y-144001000D02*
X113179541Y-148203000D01*
X113219541Y-136939000D02*
X113219541Y-141121000D01*
X113219541Y-144001000D02*
X113219541Y-148183000D01*
X113259541Y-136960000D02*
X113259541Y-141121000D01*
X113259541Y-144001000D02*
X113259541Y-148162000D01*
X113299541Y-136981000D02*
X113299541Y-141121000D01*
X113299541Y-144001000D02*
X113299541Y-148141000D01*
X113339541Y-137003000D02*
X113339541Y-141121000D01*
X113339541Y-144001000D02*
X113339541Y-148119000D01*
X113379541Y-137025000D02*
X113379541Y-141121000D01*
X113379541Y-144001000D02*
X113379541Y-148097000D01*
X113419541Y-137047000D02*
X113419541Y-141121000D01*
X113419541Y-144001000D02*
X113419541Y-148075000D01*
X113459541Y-137070000D02*
X113459541Y-141121000D01*
X113459541Y-144001000D02*
X113459541Y-148052000D01*
X113499541Y-137093000D02*
X113499541Y-141121000D01*
X113499541Y-144001000D02*
X113499541Y-148029000D01*
X113539541Y-137116000D02*
X113539541Y-141121000D01*
X113539541Y-144001000D02*
X113539541Y-148006000D01*
X113579541Y-137140000D02*
X113579541Y-141121000D01*
X113579541Y-144001000D02*
X113579541Y-147982000D01*
X113619541Y-137164000D02*
X113619541Y-141121000D01*
X113619541Y-144001000D02*
X113619541Y-147958000D01*
X113659541Y-137189000D02*
X113659541Y-141121000D01*
X113659541Y-144001000D02*
X113659541Y-147933000D01*
X113699541Y-137214000D02*
X113699541Y-141121000D01*
X113699541Y-144001000D02*
X113699541Y-147908000D01*
X113739541Y-137239000D02*
X113739541Y-141121000D01*
X113739541Y-144001000D02*
X113739541Y-147883000D01*
X113779541Y-137265000D02*
X113779541Y-141121000D01*
X113779541Y-144001000D02*
X113779541Y-147857000D01*
X113819541Y-137291000D02*
X113819541Y-141121000D01*
X113819541Y-144001000D02*
X113819541Y-147831000D01*
X113859541Y-137318000D02*
X113859541Y-141121000D01*
X113859541Y-144001000D02*
X113859541Y-147804000D01*
X113899541Y-137345000D02*
X113899541Y-141121000D01*
X113899541Y-144001000D02*
X113899541Y-147777000D01*
X113939541Y-137373000D02*
X113939541Y-141121000D01*
X113939541Y-144001000D02*
X113939541Y-147749000D01*
X113979541Y-137401000D02*
X113979541Y-141121000D01*
X113979541Y-144001000D02*
X113979541Y-147721000D01*
X114019541Y-137430000D02*
X114019541Y-141121000D01*
X114019541Y-144001000D02*
X114019541Y-147692000D01*
X114059541Y-137459000D02*
X114059541Y-141121000D01*
X114059541Y-144001000D02*
X114059541Y-147663000D01*
X114099541Y-137488000D02*
X114099541Y-141121000D01*
X114099541Y-144001000D02*
X114099541Y-147634000D01*
X114139541Y-137518000D02*
X114139541Y-141121000D01*
X114139541Y-144001000D02*
X114139541Y-147604000D01*
X114179541Y-137549000D02*
X114179541Y-141121000D01*
X114179541Y-144001000D02*
X114179541Y-147573000D01*
X114219541Y-137579000D02*
X114219541Y-141121000D01*
X114219541Y-144001000D02*
X114219541Y-147543000D01*
X114259541Y-137611000D02*
X114259541Y-147511000D01*
X114299541Y-137643000D02*
X114299541Y-147479000D01*
X114339541Y-137676000D02*
X114339541Y-147446000D01*
X114379541Y-137709000D02*
X114379541Y-147413000D01*
X114419541Y-137742000D02*
X114419541Y-147380000D01*
X114459541Y-137776000D02*
X114459541Y-147346000D01*
X114499541Y-137811000D02*
X114499541Y-147311000D01*
X114539541Y-137847000D02*
X114539541Y-147275000D01*
X114579541Y-137883000D02*
X114579541Y-147239000D01*
X114619541Y-137919000D02*
X114619541Y-147203000D01*
X114659541Y-137956000D02*
X114659541Y-147166000D01*
X114699541Y-137994000D02*
X114699541Y-147128000D01*
X114739541Y-138033000D02*
X114739541Y-147089000D01*
X114779541Y-138072000D02*
X114779541Y-147050000D01*
X114819541Y-138112000D02*
X114819541Y-147010000D01*
X114859541Y-138153000D02*
X114859541Y-146969000D01*
X114899541Y-138194000D02*
X114899541Y-146928000D01*
X114939541Y-138236000D02*
X114939541Y-146886000D01*
X114979541Y-138279000D02*
X114979541Y-146843000D01*
X115019541Y-138323000D02*
X115019541Y-146799000D01*
X115059541Y-138367000D02*
X115059541Y-146755000D01*
X115099541Y-138413000D02*
X115099541Y-146709000D01*
X115139541Y-138459000D02*
X115139541Y-146663000D01*
X115179541Y-138506000D02*
X115179541Y-146616000D01*
X115219541Y-138554000D02*
X115219541Y-146568000D01*
X115259541Y-138604000D02*
X115259541Y-146518000D01*
X115299541Y-138654000D02*
X115299541Y-146468000D01*
X115339541Y-138705000D02*
X115339541Y-146417000D01*
X115379541Y-138757000D02*
X115379541Y-146365000D01*
X115419541Y-138811000D02*
X115419541Y-146311000D01*
X115459541Y-138865000D02*
X115459541Y-146257000D01*
X115499541Y-138921000D02*
X115499541Y-146201000D01*
X115539541Y-138978000D02*
X115539541Y-146144000D01*
X115579541Y-139037000D02*
X115579541Y-146085000D01*
X115619541Y-139097000D02*
X115619541Y-146025000D01*
X115659541Y-139159000D02*
X115659541Y-145963000D01*
X115699541Y-139222000D02*
X115699541Y-145900000D01*
X115739541Y-139286000D02*
X115739541Y-145836000D01*
X115779541Y-139353000D02*
X115779541Y-145769000D01*
X115819541Y-139421000D02*
X115819541Y-145701000D01*
X115859541Y-139492000D02*
X115859541Y-145630000D01*
X115899541Y-139565000D02*
X115899541Y-145557000D01*
X115939541Y-139640000D02*
X115939541Y-145482000D01*
X115979541Y-139717000D02*
X115979541Y-145405000D01*
X116019541Y-139797000D02*
X116019541Y-145325000D01*
X116059541Y-139880000D02*
X116059541Y-145242000D01*
X116099541Y-139967000D02*
X116099541Y-145155000D01*
X116139541Y-140057000D02*
X116139541Y-145065000D01*
X116179541Y-140151000D02*
X116179541Y-144971000D01*
X116219541Y-140249000D02*
X116219541Y-144873000D01*
X116259541Y-140352000D02*
X116259541Y-144770000D01*
X116299541Y-140461000D02*
X116299541Y-144661000D01*
X116339541Y-140577000D02*
X116339541Y-144545000D01*
X116379541Y-140700000D02*
X116379541Y-144422000D01*
X116419541Y-140833000D02*
X116419541Y-144289000D01*
X116459541Y-140978000D02*
X116459541Y-144144000D01*
X116499541Y-141139000D02*
X116499541Y-143983000D01*
X116539541Y-141320000D02*
X116539541Y-143802000D01*
X116579541Y-141533000D02*
X116579541Y-143589000D01*
X116619541Y-141804000D02*
X116619541Y-143318000D01*
X116659541Y-142244000D02*
X116659541Y-142878000D01*
D13*
X116798541Y-142561000D02*
G75*
G02*
X103798541Y-142561000I-6500000J0D01*
G01*
X103798541Y-142561000D02*
G75*
G02*
X116798541Y-142561000I6500000J0D01*
G01*
D14*
%TO.C,R5*%
X46507936Y-87851000D02*
X50862064Y-87851000D01*
X46507936Y-91271000D02*
X50862064Y-91271000D01*
%TO.C,D3*%
X66115000Y-102576000D02*
X66115000Y-105236000D01*
X67815000Y-102576000D02*
X66115000Y-102576000D01*
X67815000Y-102576000D02*
X67815000Y-105236000D01*
%TO.C,U2*%
X81450000Y-103776000D02*
X81450000Y-111516000D01*
X81450000Y-111516000D02*
X82700000Y-111516000D01*
X84700000Y-111516000D02*
X85950000Y-111516000D01*
X85950000Y-103776000D02*
X81450000Y-103776000D01*
X85950000Y-111516000D02*
X85950000Y-103776000D01*
X82700000Y-111516000D02*
G75*
G02*
X84700000Y-111516000I1000000J0D01*
G01*
%TO.C,C11*%
X94185000Y-42311000D02*
X83185000Y-42311000D01*
X83185000Y-68311000D01*
X94185000Y-68311000D01*
X94185000Y-42311000D01*
%TO.C,C16*%
X105035000Y-75061000D02*
X106835000Y-75061000D01*
X105935000Y-75961000D02*
X105935000Y-74161000D01*
D13*
X107185000Y-77061000D02*
X104185000Y-77061000D01*
X107185000Y-84561000D02*
X104185000Y-84561000D01*
X54185000Y-89811000D02*
X104185000Y-89811000D01*
X104185000Y-71811000D01*
X54185000Y-71811000D01*
X54185000Y-89811000D01*
D14*
%TO.C,C28*%
X87450000Y-135262248D02*
X87450000Y-135784752D01*
X88920000Y-135262248D02*
X88920000Y-135784752D01*
%TO.C,D2*%
X57675000Y-100036000D02*
X57675000Y-101736000D01*
X57675000Y-100036000D02*
X60335000Y-100036000D01*
X57675000Y-101736000D02*
X60335000Y-101736000D01*
%TO.C,C6*%
X74955000Y-109311000D02*
G75*
G02*
X68415000Y-109311000I-3270000J0D01*
G01*
X68415000Y-109311000D02*
G75*
G02*
X74955000Y-109311000I3270000J0D01*
G01*
%TO.C,R22*%
X61305000Y-108561000D02*
X62265000Y-108561000D01*
X61305000Y-108561000D02*
G75*
G02*
X56065000Y-108561000I-2620000J0D01*
G01*
X56065000Y-108561000D02*
G75*
G02*
X61305000Y-108561000I2620000J0D01*
G01*
%TO.C,C24*%
X88710459Y-126491541D02*
X88710459Y-125857541D01*
X88750459Y-126931541D02*
X88750459Y-125417541D01*
X88790459Y-127202541D02*
X88790459Y-125146541D01*
X88830459Y-127415541D02*
X88830459Y-124933541D01*
X88870459Y-127596541D02*
X88870459Y-124752541D01*
X88910459Y-127757541D02*
X88910459Y-124591541D01*
X88950459Y-127902541D02*
X88950459Y-124446541D01*
X88990459Y-128035541D02*
X88990459Y-124313541D01*
X89030459Y-128158541D02*
X89030459Y-124190541D01*
X89070459Y-128274541D02*
X89070459Y-124074541D01*
X89110459Y-128383541D02*
X89110459Y-123965541D01*
X89150459Y-128486541D02*
X89150459Y-123862541D01*
X89190459Y-128584541D02*
X89190459Y-123764541D01*
X89230459Y-128678541D02*
X89230459Y-123670541D01*
X89270459Y-128768541D02*
X89270459Y-123580541D01*
X89310459Y-128855541D02*
X89310459Y-123493541D01*
X89350459Y-128938541D02*
X89350459Y-123410541D01*
X89390459Y-129018541D02*
X89390459Y-123330541D01*
X89430459Y-129095541D02*
X89430459Y-123253541D01*
X89470459Y-129170541D02*
X89470459Y-123178541D01*
X89510459Y-129243541D02*
X89510459Y-123105541D01*
X89550459Y-129314541D02*
X89550459Y-123034541D01*
X89590459Y-129382541D02*
X89590459Y-122966541D01*
X89630459Y-129449541D02*
X89630459Y-122899541D01*
X89670459Y-129513541D02*
X89670459Y-122835541D01*
X89710459Y-129576541D02*
X89710459Y-122772541D01*
X89750459Y-129638541D02*
X89750459Y-122710541D01*
X89790459Y-129698541D02*
X89790459Y-122650541D01*
X89830459Y-129757541D02*
X89830459Y-122591541D01*
X89870459Y-129814541D02*
X89870459Y-122534541D01*
X89910459Y-129870541D02*
X89910459Y-122478541D01*
X89950459Y-129924541D02*
X89950459Y-122424541D01*
X89990459Y-129978541D02*
X89990459Y-122370541D01*
X90030459Y-130030541D02*
X90030459Y-122318541D01*
X90070459Y-130081541D02*
X90070459Y-122267541D01*
X90110459Y-130131541D02*
X90110459Y-122217541D01*
X90150459Y-130181541D02*
X90150459Y-122167541D01*
X90190459Y-130229541D02*
X90190459Y-122119541D01*
X90230459Y-130276541D02*
X90230459Y-122072541D01*
X90270459Y-130322541D02*
X90270459Y-122026541D01*
X90310459Y-130368541D02*
X90310459Y-121980541D01*
X90350459Y-130412541D02*
X90350459Y-121936541D01*
X90390459Y-130456541D02*
X90390459Y-121892541D01*
X90430459Y-130499541D02*
X90430459Y-121849541D01*
X90470459Y-130541541D02*
X90470459Y-121807541D01*
X90510459Y-130582541D02*
X90510459Y-121766541D01*
X90550459Y-130623541D02*
X90550459Y-121725541D01*
X90590459Y-130663541D02*
X90590459Y-121685541D01*
X90630459Y-130702541D02*
X90630459Y-121646541D01*
X90670459Y-130741541D02*
X90670459Y-121607541D01*
X90710459Y-130779541D02*
X90710459Y-121569541D01*
X90750459Y-130816541D02*
X90750459Y-121532541D01*
X90790459Y-130852541D02*
X90790459Y-121496541D01*
X90830459Y-130888541D02*
X90830459Y-121460541D01*
X90870459Y-130924541D02*
X90870459Y-121424541D01*
X90910459Y-130959541D02*
X90910459Y-121389541D01*
X90950459Y-130993541D02*
X90950459Y-121355541D01*
X90990459Y-131026541D02*
X90990459Y-121322541D01*
X91030459Y-131059541D02*
X91030459Y-121289541D01*
X91070459Y-131092541D02*
X91070459Y-121256541D01*
X91110459Y-131124541D02*
X91110459Y-121224541D01*
X91150459Y-124734541D02*
X91150459Y-121192541D01*
X91150459Y-131156541D02*
X91150459Y-127614541D01*
X91190459Y-124734541D02*
X91190459Y-121162541D01*
X91190459Y-131186541D02*
X91190459Y-127614541D01*
X91230459Y-124734541D02*
X91230459Y-121131541D01*
X91230459Y-131217541D02*
X91230459Y-127614541D01*
X91270459Y-124734541D02*
X91270459Y-121101541D01*
X91270459Y-131247541D02*
X91270459Y-127614541D01*
X91310459Y-124734541D02*
X91310459Y-121072541D01*
X91310459Y-131276541D02*
X91310459Y-127614541D01*
X91350459Y-124734541D02*
X91350459Y-121043541D01*
X91350459Y-131305541D02*
X91350459Y-127614541D01*
X91390459Y-124734541D02*
X91390459Y-121014541D01*
X91390459Y-131334541D02*
X91390459Y-127614541D01*
X91430459Y-124734541D02*
X91430459Y-120986541D01*
X91430459Y-131362541D02*
X91430459Y-127614541D01*
X91470459Y-124734541D02*
X91470459Y-120958541D01*
X91470459Y-131390541D02*
X91470459Y-127614541D01*
X91510459Y-124734541D02*
X91510459Y-120931541D01*
X91510459Y-131417541D02*
X91510459Y-127614541D01*
X91550459Y-124734541D02*
X91550459Y-120904541D01*
X91550459Y-131444541D02*
X91550459Y-127614541D01*
X91590459Y-124734541D02*
X91590459Y-120878541D01*
X91590459Y-131470541D02*
X91590459Y-127614541D01*
X91630459Y-124734541D02*
X91630459Y-120852541D01*
X91630459Y-131496541D02*
X91630459Y-127614541D01*
X91670459Y-124734541D02*
X91670459Y-120827541D01*
X91670459Y-131521541D02*
X91670459Y-127614541D01*
X91710459Y-124734541D02*
X91710459Y-120802541D01*
X91710459Y-131546541D02*
X91710459Y-127614541D01*
X91750459Y-124734541D02*
X91750459Y-120777541D01*
X91750459Y-131571541D02*
X91750459Y-127614541D01*
X91790459Y-124734541D02*
X91790459Y-120753541D01*
X91790459Y-131595541D02*
X91790459Y-127614541D01*
X91830459Y-124734541D02*
X91830459Y-120729541D01*
X91830459Y-131619541D02*
X91830459Y-127614541D01*
X91870459Y-124734541D02*
X91870459Y-120706541D01*
X91870459Y-131642541D02*
X91870459Y-127614541D01*
X91910459Y-124734541D02*
X91910459Y-120683541D01*
X91910459Y-131665541D02*
X91910459Y-127614541D01*
X91950459Y-124734541D02*
X91950459Y-120660541D01*
X91950459Y-131688541D02*
X91950459Y-127614541D01*
X91990459Y-124734541D02*
X91990459Y-120638541D01*
X91990459Y-131710541D02*
X91990459Y-127614541D01*
X92030459Y-124734541D02*
X92030459Y-120616541D01*
X92030459Y-131732541D02*
X92030459Y-127614541D01*
X92070459Y-124734541D02*
X92070459Y-120594541D01*
X92070459Y-131754541D02*
X92070459Y-127614541D01*
X92110459Y-124734541D02*
X92110459Y-120573541D01*
X92110459Y-131775541D02*
X92110459Y-127614541D01*
X92150459Y-124734541D02*
X92150459Y-120552541D01*
X92150459Y-131796541D02*
X92150459Y-127614541D01*
X92190459Y-124734541D02*
X92190459Y-120532541D01*
X92190459Y-131816541D02*
X92190459Y-127614541D01*
X92230459Y-124734541D02*
X92230459Y-120512541D01*
X92230459Y-131836541D02*
X92230459Y-127614541D01*
X92270459Y-124734541D02*
X92270459Y-120492541D01*
X92270459Y-131856541D02*
X92270459Y-127614541D01*
X92310459Y-124734541D02*
X92310459Y-120472541D01*
X92310459Y-131876541D02*
X92310459Y-127614541D01*
X92350459Y-124734541D02*
X92350459Y-120453541D01*
X92350459Y-131895541D02*
X92350459Y-127614541D01*
X92390459Y-124734541D02*
X92390459Y-120435541D01*
X92390459Y-131913541D02*
X92390459Y-127614541D01*
X92430459Y-124734541D02*
X92430459Y-120416541D01*
X92430459Y-131932541D02*
X92430459Y-127614541D01*
X92470459Y-124734541D02*
X92470459Y-120398541D01*
X92470459Y-131950541D02*
X92470459Y-127614541D01*
X92510459Y-124734541D02*
X92510459Y-120381541D01*
X92510459Y-131967541D02*
X92510459Y-127614541D01*
X92550459Y-124734541D02*
X92550459Y-120363541D01*
X92550459Y-131985541D02*
X92550459Y-127614541D01*
X92590459Y-124734541D02*
X92590459Y-120346541D01*
X92590459Y-132002541D02*
X92590459Y-127614541D01*
X92630459Y-124734541D02*
X92630459Y-120329541D01*
X92630459Y-132019541D02*
X92630459Y-127614541D01*
X92670459Y-124734541D02*
X92670459Y-120313541D01*
X92670459Y-132035541D02*
X92670459Y-127614541D01*
X92710459Y-124734541D02*
X92710459Y-120297541D01*
X92710459Y-132051541D02*
X92710459Y-127614541D01*
X92750459Y-124734541D02*
X92750459Y-120281541D01*
X92750459Y-132067541D02*
X92750459Y-127614541D01*
X92790459Y-124734541D02*
X92790459Y-120266541D01*
X92790459Y-132082541D02*
X92790459Y-127614541D01*
X92830459Y-124734541D02*
X92830459Y-120250541D01*
X92830459Y-132098541D02*
X92830459Y-127614541D01*
X92870459Y-124734541D02*
X92870459Y-120235541D01*
X92870459Y-132113541D02*
X92870459Y-127614541D01*
X92910459Y-124734541D02*
X92910459Y-120221541D01*
X92910459Y-132127541D02*
X92910459Y-127614541D01*
X92950459Y-124734541D02*
X92950459Y-120207541D01*
X92950459Y-132141541D02*
X92950459Y-127614541D01*
X92990459Y-124734541D02*
X92990459Y-120193541D01*
X92990459Y-132155541D02*
X92990459Y-127614541D01*
X93030459Y-124734541D02*
X93030459Y-120179541D01*
X93030459Y-132169541D02*
X93030459Y-127614541D01*
X93070459Y-124734541D02*
X93070459Y-120166541D01*
X93070459Y-132182541D02*
X93070459Y-127614541D01*
X93110459Y-124734541D02*
X93110459Y-120153541D01*
X93110459Y-132195541D02*
X93110459Y-127614541D01*
X93150459Y-124734541D02*
X93150459Y-120140541D01*
X93150459Y-132208541D02*
X93150459Y-127614541D01*
X93190459Y-124734541D02*
X93190459Y-120127541D01*
X93190459Y-132221541D02*
X93190459Y-127614541D01*
X93230459Y-124734541D02*
X93230459Y-120115541D01*
X93230459Y-132233541D02*
X93230459Y-127614541D01*
X93270459Y-124734541D02*
X93270459Y-120103541D01*
X93270459Y-132245541D02*
X93270459Y-127614541D01*
X93310459Y-124734541D02*
X93310459Y-120091541D01*
X93310459Y-132257541D02*
X93310459Y-127614541D01*
X93350459Y-124734541D02*
X93350459Y-120080541D01*
X93350459Y-132268541D02*
X93350459Y-127614541D01*
X93390459Y-124734541D02*
X93390459Y-120069541D01*
X93390459Y-132279541D02*
X93390459Y-127614541D01*
X93430459Y-124734541D02*
X93430459Y-120058541D01*
X93430459Y-132290541D02*
X93430459Y-127614541D01*
X93470459Y-124734541D02*
X93470459Y-120048541D01*
X93470459Y-132300541D02*
X93470459Y-127614541D01*
X93510459Y-124734541D02*
X93510459Y-120037541D01*
X93510459Y-132311541D02*
X93510459Y-127614541D01*
X93550459Y-124734541D02*
X93550459Y-120028541D01*
X93550459Y-132320541D02*
X93550459Y-127614541D01*
X93590459Y-124734541D02*
X93590459Y-120018541D01*
X93590459Y-132330541D02*
X93590459Y-127614541D01*
X93630459Y-124734541D02*
X93630459Y-120008541D01*
X93630459Y-132340541D02*
X93630459Y-127614541D01*
X93670459Y-124734541D02*
X93670459Y-119999541D01*
X93670459Y-132349541D02*
X93670459Y-127614541D01*
X93710459Y-124734541D02*
X93710459Y-119990541D01*
X93710459Y-132358541D02*
X93710459Y-127614541D01*
X93750459Y-124734541D02*
X93750459Y-119982541D01*
X93750459Y-132366541D02*
X93750459Y-127614541D01*
X93790459Y-124734541D02*
X93790459Y-119973541D01*
X93790459Y-132375541D02*
X93790459Y-127614541D01*
X93830459Y-124734541D02*
X93830459Y-119965541D01*
X93830459Y-132383541D02*
X93830459Y-127614541D01*
X93870459Y-124734541D02*
X93870459Y-119958541D01*
X93870459Y-132390541D02*
X93870459Y-127614541D01*
X93910459Y-124734541D02*
X93910459Y-119950541D01*
X93910459Y-132398541D02*
X93910459Y-127614541D01*
X93950459Y-124734541D02*
X93950459Y-119943541D01*
X93950459Y-132405541D02*
X93950459Y-127614541D01*
X93990459Y-124734541D02*
X93990459Y-119936541D01*
X93990459Y-132412541D02*
X93990459Y-127614541D01*
X94030459Y-132419541D02*
X94030459Y-119929541D01*
X94070459Y-132426541D02*
X94070459Y-119922541D01*
X94110459Y-132432541D02*
X94110459Y-119916541D01*
X94150459Y-132438541D02*
X94150459Y-119910541D01*
X94190459Y-132443541D02*
X94190459Y-119905541D01*
X94230459Y-132449541D02*
X94230459Y-119899541D01*
X94270459Y-132454541D02*
X94270459Y-119894541D01*
X94310459Y-132459541D02*
X94310459Y-119889541D01*
X94350459Y-132464541D02*
X94350459Y-119884541D01*
X94391459Y-132468541D02*
X94391459Y-119880541D01*
X94431459Y-132472541D02*
X94431459Y-119876541D01*
X94471459Y-132476541D02*
X94471459Y-119872541D01*
X94511459Y-132480541D02*
X94511459Y-119868541D01*
X94551459Y-132483541D02*
X94551459Y-119865541D01*
X94591459Y-132486541D02*
X94591459Y-119862541D01*
X94631459Y-132489541D02*
X94631459Y-119859541D01*
X94671459Y-132492541D02*
X94671459Y-119856541D01*
X94711459Y-132494541D02*
X94711459Y-119854541D01*
X94751459Y-132496541D02*
X94751459Y-119852541D01*
X94791459Y-132498541D02*
X94791459Y-119850541D01*
X94831459Y-132500541D02*
X94831459Y-119848541D01*
X94871459Y-132501541D02*
X94871459Y-119847541D01*
X94911459Y-132502541D02*
X94911459Y-119846541D01*
X94951459Y-132503541D02*
X94951459Y-119845541D01*
X94991459Y-132504541D02*
X94991459Y-119844541D01*
X95031459Y-132504541D02*
X95031459Y-119844541D01*
X95071459Y-132504541D02*
X95071459Y-119844541D01*
X101263541Y-131174541D02*
X101263541Y-129924541D01*
X101888541Y-130549541D02*
X100638541Y-130549541D01*
D13*
X101571459Y-126174541D02*
G75*
G02*
X88571459Y-126174541I-6500000J0D01*
G01*
X88571459Y-126174541D02*
G75*
G02*
X101571459Y-126174541I6500000J0D01*
G01*
D14*
%TO.C,U3*%
X90950000Y-106761000D02*
X90950000Y-106111000D01*
X90950000Y-106761000D02*
X90950000Y-107411000D01*
X94070000Y-106761000D02*
X94070000Y-106111000D01*
X94070000Y-106761000D02*
X94070000Y-107411000D01*
X91000000Y-107923500D02*
X90670000Y-108163500D01*
X90670000Y-107683500D01*
X91000000Y-107923500D01*
G36*
X91000000Y-107923500D02*
G01*
X90670000Y-108163500D01*
X90670000Y-107683500D01*
X91000000Y-107923500D01*
G37*
%TO.C,FL1*%
X68685000Y-48061000D02*
X69185000Y-47561000D01*
X68935000Y-61311000D02*
X69435000Y-61311000D01*
X69185000Y-47561000D02*
X69185000Y-48561000D01*
X69185000Y-47561000D02*
X69685000Y-48061000D01*
X69185000Y-48561000D02*
X79185000Y-48561000D01*
X69185000Y-60311000D02*
X69185000Y-61311000D01*
X69185000Y-61811000D02*
X68935000Y-61311000D01*
X69435000Y-61311000D02*
X69185000Y-61811000D01*
X69685000Y-48061000D02*
X68685000Y-48061000D01*
X79185000Y-48561000D02*
X79185000Y-47561000D01*
X79185000Y-60311000D02*
X69185000Y-60311000D01*
X79185000Y-61311000D02*
X79185000Y-60311000D01*
X81935000Y-42061000D02*
X66435000Y-42061000D01*
X66435000Y-66561000D01*
X81935000Y-66561000D01*
X81935000Y-42061000D01*
%TO.C,C14*%
X92369420Y-103251000D02*
X92650580Y-103251000D01*
X92369420Y-104271000D02*
X92650580Y-104271000D01*
%TO.C,R8*%
X82707936Y-91901000D02*
X84162064Y-91901000D01*
X82707936Y-93721000D02*
X84162064Y-93721000D01*
%TO.C,C9*%
X43565000Y-35191000D02*
X48805000Y-35191000D01*
X43565000Y-45931000D02*
X43565000Y-35191000D01*
X43565000Y-45931000D02*
X48805000Y-45931000D01*
X48805000Y-45931000D02*
X48805000Y-35191000D01*
%TO.C,C27*%
X89482000Y-135784752D02*
X89482000Y-135262248D01*
X90952000Y-135784752D02*
X90952000Y-135262248D01*
%TO.C,C1*%
X74175000Y-93726580D02*
X74175000Y-93445420D01*
X75195000Y-93726580D02*
X75195000Y-93445420D01*
%TO.C,R24*%
X89435000Y-154171000D02*
X89435000Y-153211000D01*
X92055000Y-156791000D02*
G75*
G02*
X86815000Y-156791000I-2620000J0D01*
G01*
X86815000Y-156791000D02*
G75*
G02*
X92055000Y-156791000I2620000J0D01*
G01*
%TO.C,R16*%
X97148700Y-114653942D02*
X97148700Y-115128458D01*
X98193700Y-114653942D02*
X98193700Y-115128458D01*
D10*
%TO.C,TH1*%
X94985000Y-48411000D02*
X101385000Y-48411000D01*
X94985000Y-57711000D02*
X94985000Y-48411000D01*
X94985000Y-57711000D02*
X101385000Y-57711000D01*
X101385000Y-57711000D02*
X101385000Y-48411000D01*
D14*
%TO.C,R1*%
X68547742Y-93638500D02*
X69022258Y-93638500D01*
X68547742Y-94683500D02*
X69022258Y-94683500D01*
%TO.C,J1*%
X36025000Y-72501000D02*
X43045000Y-72501000D01*
X36025000Y-84541000D02*
X36025000Y-72501000D01*
X40635000Y-71701000D02*
X41235000Y-71701000D01*
X40935000Y-72301000D02*
X40635000Y-71701000D01*
X41235000Y-71701000D02*
X40935000Y-72301000D01*
X43045000Y-72501000D02*
X43045000Y-73701000D01*
X43045000Y-73701000D02*
X44745000Y-73701000D01*
X43045000Y-83341000D02*
X43045000Y-84541000D01*
X43045000Y-84541000D02*
X36025000Y-84541000D01*
X44745000Y-73701000D02*
X44745000Y-83341000D01*
X44745000Y-83341000D02*
X43045000Y-83341000D01*
%TO.C,C15*%
X96675620Y-108996200D02*
X96956780Y-108996200D01*
X96675620Y-110016200D02*
X96956780Y-110016200D01*
%TO.C,R7*%
X88707936Y-91901000D02*
X90162064Y-91901000D01*
X88707936Y-93721000D02*
X90162064Y-93721000D01*
%TO.C,C20*%
X105500000Y-108522252D02*
X105500000Y-107999748D01*
X106970000Y-108522252D02*
X106970000Y-107999748D01*
%TO.C,C8*%
X49315000Y-40181000D02*
X49315000Y-34941000D01*
X60055000Y-34941000D02*
X49315000Y-34941000D01*
X60055000Y-40181000D02*
X49315000Y-40181000D01*
X60055000Y-40181000D02*
X60055000Y-34941000D01*
%TO.C,R4*%
X55922742Y-103563500D02*
X56397258Y-103563500D01*
X55922742Y-104608500D02*
X56397258Y-104608500D01*
%TO.C,R11*%
X74162500Y-103998742D02*
X74162500Y-104473258D01*
X75207500Y-103998742D02*
X75207500Y-104473258D01*
%TO.C,J2*%
X107775000Y-100783500D02*
X114795000Y-100783500D01*
X107775000Y-116783500D02*
X107775000Y-100783500D01*
X112385000Y-99983500D02*
X112985000Y-99983500D01*
X112685000Y-100583500D02*
X112385000Y-99983500D01*
X112985000Y-99983500D02*
X112685000Y-100583500D01*
X114795000Y-100783500D02*
X114795000Y-101983500D01*
X114795000Y-101983500D02*
X116495000Y-101983500D01*
X114795000Y-115583500D02*
X114795000Y-116783500D01*
X114795000Y-116783500D02*
X107775000Y-116783500D01*
X116495000Y-101983500D02*
X116495000Y-115583500D01*
X116495000Y-115583500D02*
X114795000Y-115583500D01*
%TO.C,D5*%
X93701200Y-113406200D02*
X89841200Y-113406200D01*
X93701200Y-115406200D02*
X89841200Y-115406200D01*
X93701200Y-115406200D02*
X93701200Y-113406200D01*
%TO.C,C22*%
X48565000Y-97191000D02*
X49929000Y-97191000D01*
X48565000Y-104931000D02*
X48565000Y-97191000D01*
X48565000Y-104931000D02*
X49929000Y-104931000D01*
X52441000Y-97191000D02*
X53805000Y-97191000D01*
X52441000Y-104931000D02*
X53805000Y-104931000D01*
X53805000Y-104931000D02*
X53805000Y-97191000D01*
%TO.C,C13*%
X90900580Y-112001000D02*
X90619420Y-112001000D01*
X90900580Y-113021000D02*
X90619420Y-113021000D01*
%TO.C,R13*%
X90997258Y-108988500D02*
X90522742Y-108988500D01*
X90997258Y-110033500D02*
X90522742Y-110033500D01*
%TO.C,R9*%
X66442500Y-107673258D02*
X66442500Y-107198742D01*
X67487500Y-107673258D02*
X67487500Y-107198742D01*
%TO.C,R10*%
X72662500Y-103973742D02*
X72662500Y-104448258D01*
X73707500Y-103973742D02*
X73707500Y-104448258D01*
%TO.C,D8*%
X82066000Y-138904000D02*
X82066000Y-149144000D01*
X85197000Y-138904000D02*
X85197000Y-149144000D01*
X86707000Y-138904000D02*
X82066000Y-138904000D01*
X86707000Y-138904000D02*
X86707000Y-149144000D01*
X86707000Y-142174000D02*
X85197000Y-142174000D01*
X86707000Y-145875000D02*
X85197000Y-145875000D01*
X86707000Y-149144000D02*
X82066000Y-149144000D01*
%TO.C,C3*%
X68205000Y-104070420D02*
X68205000Y-104351580D01*
X69225000Y-104070420D02*
X69225000Y-104351580D01*
%TO.C,HS2*%
X91885000Y-138061000D02*
X85285000Y-138061000D01*
X85285000Y-150061000D01*
X91885000Y-150061000D01*
X91885000Y-138061000D01*
%TO.C,C18*%
X101500000Y-107999748D02*
X101500000Y-108522252D01*
X102970000Y-107999748D02*
X102970000Y-108522252D01*
%TO.C,C23*%
X103481459Y-123186000D02*
X104731459Y-123186000D01*
X104106459Y-122561000D02*
X104106459Y-123811000D01*
X110298541Y-121231000D02*
X110298541Y-133891000D01*
X110338541Y-121231000D02*
X110338541Y-133891000D01*
X110378541Y-121231000D02*
X110378541Y-133891000D01*
X110418541Y-121232000D02*
X110418541Y-133890000D01*
X110458541Y-121233000D02*
X110458541Y-133889000D01*
X110498541Y-121234000D02*
X110498541Y-133888000D01*
X110538541Y-121235000D02*
X110538541Y-133887000D01*
X110578541Y-121237000D02*
X110578541Y-133885000D01*
X110618541Y-121239000D02*
X110618541Y-133883000D01*
X110658541Y-121241000D02*
X110658541Y-133881000D01*
X110698541Y-121243000D02*
X110698541Y-133879000D01*
X110738541Y-121246000D02*
X110738541Y-133876000D01*
X110778541Y-121249000D02*
X110778541Y-133873000D01*
X110818541Y-121252000D02*
X110818541Y-133870000D01*
X110858541Y-121255000D02*
X110858541Y-133867000D01*
X110898541Y-121259000D02*
X110898541Y-133863000D01*
X110938541Y-121263000D02*
X110938541Y-133859000D01*
X110978541Y-121267000D02*
X110978541Y-133855000D01*
X111019541Y-121271000D02*
X111019541Y-133851000D01*
X111059541Y-121276000D02*
X111059541Y-133846000D01*
X111099541Y-121281000D02*
X111099541Y-133841000D01*
X111139541Y-121286000D02*
X111139541Y-133836000D01*
X111179541Y-121292000D02*
X111179541Y-133830000D01*
X111219541Y-121297000D02*
X111219541Y-133825000D01*
X111259541Y-121303000D02*
X111259541Y-133819000D01*
X111299541Y-121309000D02*
X111299541Y-133813000D01*
X111339541Y-121316000D02*
X111339541Y-133806000D01*
X111379541Y-121323000D02*
X111379541Y-126121000D01*
X111379541Y-129001000D02*
X111379541Y-133799000D01*
X111419541Y-121330000D02*
X111419541Y-126121000D01*
X111419541Y-129001000D02*
X111419541Y-133792000D01*
X111459541Y-121337000D02*
X111459541Y-126121000D01*
X111459541Y-129001000D02*
X111459541Y-133785000D01*
X111499541Y-121345000D02*
X111499541Y-126121000D01*
X111499541Y-129001000D02*
X111499541Y-133777000D01*
X111539541Y-121352000D02*
X111539541Y-126121000D01*
X111539541Y-129001000D02*
X111539541Y-133770000D01*
X111579541Y-121360000D02*
X111579541Y-126121000D01*
X111579541Y-129001000D02*
X111579541Y-133762000D01*
X111619541Y-121369000D02*
X111619541Y-126121000D01*
X111619541Y-129001000D02*
X111619541Y-133753000D01*
X111659541Y-121377000D02*
X111659541Y-126121000D01*
X111659541Y-129001000D02*
X111659541Y-133745000D01*
X111699541Y-121386000D02*
X111699541Y-126121000D01*
X111699541Y-129001000D02*
X111699541Y-133736000D01*
X111739541Y-121395000D02*
X111739541Y-126121000D01*
X111739541Y-129001000D02*
X111739541Y-133727000D01*
X111779541Y-121405000D02*
X111779541Y-126121000D01*
X111779541Y-129001000D02*
X111779541Y-133717000D01*
X111819541Y-121415000D02*
X111819541Y-126121000D01*
X111819541Y-129001000D02*
X111819541Y-133707000D01*
X111859541Y-121424000D02*
X111859541Y-126121000D01*
X111859541Y-129001000D02*
X111859541Y-133698000D01*
X111899541Y-121435000D02*
X111899541Y-126121000D01*
X111899541Y-129001000D02*
X111899541Y-133687000D01*
X111939541Y-121445000D02*
X111939541Y-126121000D01*
X111939541Y-129001000D02*
X111939541Y-133677000D01*
X111979541Y-121456000D02*
X111979541Y-126121000D01*
X111979541Y-129001000D02*
X111979541Y-133666000D01*
X112019541Y-121467000D02*
X112019541Y-126121000D01*
X112019541Y-129001000D02*
X112019541Y-133655000D01*
X112059541Y-121478000D02*
X112059541Y-126121000D01*
X112059541Y-129001000D02*
X112059541Y-133644000D01*
X112099541Y-121490000D02*
X112099541Y-126121000D01*
X112099541Y-129001000D02*
X112099541Y-133632000D01*
X112139541Y-121502000D02*
X112139541Y-126121000D01*
X112139541Y-129001000D02*
X112139541Y-133620000D01*
X112179541Y-121514000D02*
X112179541Y-126121000D01*
X112179541Y-129001000D02*
X112179541Y-133608000D01*
X112219541Y-121527000D02*
X112219541Y-126121000D01*
X112219541Y-129001000D02*
X112219541Y-133595000D01*
X112259541Y-121540000D02*
X112259541Y-126121000D01*
X112259541Y-129001000D02*
X112259541Y-133582000D01*
X112299541Y-121553000D02*
X112299541Y-126121000D01*
X112299541Y-129001000D02*
X112299541Y-133569000D01*
X112339541Y-121566000D02*
X112339541Y-126121000D01*
X112339541Y-129001000D02*
X112339541Y-133556000D01*
X112379541Y-121580000D02*
X112379541Y-126121000D01*
X112379541Y-129001000D02*
X112379541Y-133542000D01*
X112419541Y-121594000D02*
X112419541Y-126121000D01*
X112419541Y-129001000D02*
X112419541Y-133528000D01*
X112459541Y-121608000D02*
X112459541Y-126121000D01*
X112459541Y-129001000D02*
X112459541Y-133514000D01*
X112499541Y-121622000D02*
X112499541Y-126121000D01*
X112499541Y-129001000D02*
X112499541Y-133500000D01*
X112539541Y-121637000D02*
X112539541Y-126121000D01*
X112539541Y-129001000D02*
X112539541Y-133485000D01*
X112579541Y-121653000D02*
X112579541Y-126121000D01*
X112579541Y-129001000D02*
X112579541Y-133469000D01*
X112619541Y-121668000D02*
X112619541Y-126121000D01*
X112619541Y-129001000D02*
X112619541Y-133454000D01*
X112659541Y-121684000D02*
X112659541Y-126121000D01*
X112659541Y-129001000D02*
X112659541Y-133438000D01*
X112699541Y-121700000D02*
X112699541Y-126121000D01*
X112699541Y-129001000D02*
X112699541Y-133422000D01*
X112739541Y-121716000D02*
X112739541Y-126121000D01*
X112739541Y-129001000D02*
X112739541Y-133406000D01*
X112779541Y-121733000D02*
X112779541Y-126121000D01*
X112779541Y-129001000D02*
X112779541Y-133389000D01*
X112819541Y-121750000D02*
X112819541Y-126121000D01*
X112819541Y-129001000D02*
X112819541Y-133372000D01*
X112859541Y-121768000D02*
X112859541Y-126121000D01*
X112859541Y-129001000D02*
X112859541Y-133354000D01*
X112899541Y-121785000D02*
X112899541Y-126121000D01*
X112899541Y-129001000D02*
X112899541Y-133337000D01*
X112939541Y-121803000D02*
X112939541Y-126121000D01*
X112939541Y-129001000D02*
X112939541Y-133319000D01*
X112979541Y-121822000D02*
X112979541Y-126121000D01*
X112979541Y-129001000D02*
X112979541Y-133300000D01*
X113019541Y-121840000D02*
X113019541Y-126121000D01*
X113019541Y-129001000D02*
X113019541Y-133282000D01*
X113059541Y-121859000D02*
X113059541Y-126121000D01*
X113059541Y-129001000D02*
X113059541Y-133263000D01*
X113099541Y-121879000D02*
X113099541Y-126121000D01*
X113099541Y-129001000D02*
X113099541Y-133243000D01*
X113139541Y-121899000D02*
X113139541Y-126121000D01*
X113139541Y-129001000D02*
X113139541Y-133223000D01*
X113179541Y-121919000D02*
X113179541Y-126121000D01*
X113179541Y-129001000D02*
X113179541Y-133203000D01*
X113219541Y-121939000D02*
X113219541Y-126121000D01*
X113219541Y-129001000D02*
X113219541Y-133183000D01*
X113259541Y-121960000D02*
X113259541Y-126121000D01*
X113259541Y-129001000D02*
X113259541Y-133162000D01*
X113299541Y-121981000D02*
X113299541Y-126121000D01*
X113299541Y-129001000D02*
X113299541Y-133141000D01*
X113339541Y-122003000D02*
X113339541Y-126121000D01*
X113339541Y-129001000D02*
X113339541Y-133119000D01*
X113379541Y-122025000D02*
X113379541Y-126121000D01*
X113379541Y-129001000D02*
X113379541Y-133097000D01*
X113419541Y-122047000D02*
X113419541Y-126121000D01*
X113419541Y-129001000D02*
X113419541Y-133075000D01*
X113459541Y-122070000D02*
X113459541Y-126121000D01*
X113459541Y-129001000D02*
X113459541Y-133052000D01*
X113499541Y-122093000D02*
X113499541Y-126121000D01*
X113499541Y-129001000D02*
X113499541Y-133029000D01*
X113539541Y-122116000D02*
X113539541Y-126121000D01*
X113539541Y-129001000D02*
X113539541Y-133006000D01*
X113579541Y-122140000D02*
X113579541Y-126121000D01*
X113579541Y-129001000D02*
X113579541Y-132982000D01*
X113619541Y-122164000D02*
X113619541Y-126121000D01*
X113619541Y-129001000D02*
X113619541Y-132958000D01*
X113659541Y-122189000D02*
X113659541Y-126121000D01*
X113659541Y-129001000D02*
X113659541Y-132933000D01*
X113699541Y-122214000D02*
X113699541Y-126121000D01*
X113699541Y-129001000D02*
X113699541Y-132908000D01*
X113739541Y-122239000D02*
X113739541Y-126121000D01*
X113739541Y-129001000D02*
X113739541Y-132883000D01*
X113779541Y-122265000D02*
X113779541Y-126121000D01*
X113779541Y-129001000D02*
X113779541Y-132857000D01*
X113819541Y-122291000D02*
X113819541Y-126121000D01*
X113819541Y-129001000D02*
X113819541Y-132831000D01*
X113859541Y-122318000D02*
X113859541Y-126121000D01*
X113859541Y-129001000D02*
X113859541Y-132804000D01*
X113899541Y-122345000D02*
X113899541Y-126121000D01*
X113899541Y-129001000D02*
X113899541Y-132777000D01*
X113939541Y-122373000D02*
X113939541Y-126121000D01*
X113939541Y-129001000D02*
X113939541Y-132749000D01*
X113979541Y-122401000D02*
X113979541Y-126121000D01*
X113979541Y-129001000D02*
X113979541Y-132721000D01*
X114019541Y-122430000D02*
X114019541Y-126121000D01*
X114019541Y-129001000D02*
X114019541Y-132692000D01*
X114059541Y-122459000D02*
X114059541Y-126121000D01*
X114059541Y-129001000D02*
X114059541Y-132663000D01*
X114099541Y-122488000D02*
X114099541Y-126121000D01*
X114099541Y-129001000D02*
X114099541Y-132634000D01*
X114139541Y-122518000D02*
X114139541Y-126121000D01*
X114139541Y-129001000D02*
X114139541Y-132604000D01*
X114179541Y-122549000D02*
X114179541Y-126121000D01*
X114179541Y-129001000D02*
X114179541Y-132573000D01*
X114219541Y-122579000D02*
X114219541Y-126121000D01*
X114219541Y-129001000D02*
X114219541Y-132543000D01*
X114259541Y-122611000D02*
X114259541Y-132511000D01*
X114299541Y-122643000D02*
X114299541Y-132479000D01*
X114339541Y-122676000D02*
X114339541Y-132446000D01*
X114379541Y-122709000D02*
X114379541Y-132413000D01*
X114419541Y-122742000D02*
X114419541Y-132380000D01*
X114459541Y-122776000D02*
X114459541Y-132346000D01*
X114499541Y-122811000D02*
X114499541Y-132311000D01*
X114539541Y-122847000D02*
X114539541Y-132275000D01*
X114579541Y-122883000D02*
X114579541Y-132239000D01*
X114619541Y-122919000D02*
X114619541Y-132203000D01*
X114659541Y-122956000D02*
X114659541Y-132166000D01*
X114699541Y-122994000D02*
X114699541Y-132128000D01*
X114739541Y-123033000D02*
X114739541Y-132089000D01*
X114779541Y-123072000D02*
X114779541Y-132050000D01*
X114819541Y-123112000D02*
X114819541Y-132010000D01*
X114859541Y-123153000D02*
X114859541Y-131969000D01*
X114899541Y-123194000D02*
X114899541Y-131928000D01*
X114939541Y-123236000D02*
X114939541Y-131886000D01*
X114979541Y-123279000D02*
X114979541Y-131843000D01*
X115019541Y-123323000D02*
X115019541Y-131799000D01*
X115059541Y-123367000D02*
X115059541Y-131755000D01*
X115099541Y-123413000D02*
X115099541Y-131709000D01*
X115139541Y-123459000D02*
X115139541Y-131663000D01*
X115179541Y-123506000D02*
X115179541Y-131616000D01*
X115219541Y-123554000D02*
X115219541Y-131568000D01*
X115259541Y-123604000D02*
X115259541Y-131518000D01*
X115299541Y-123654000D02*
X115299541Y-131468000D01*
X115339541Y-123705000D02*
X115339541Y-131417000D01*
X115379541Y-123757000D02*
X115379541Y-131365000D01*
X115419541Y-123811000D02*
X115419541Y-131311000D01*
X115459541Y-123865000D02*
X115459541Y-131257000D01*
X115499541Y-123921000D02*
X115499541Y-131201000D01*
X115539541Y-123978000D02*
X115539541Y-131144000D01*
X115579541Y-124037000D02*
X115579541Y-131085000D01*
X115619541Y-124097000D02*
X115619541Y-131025000D01*
X115659541Y-124159000D02*
X115659541Y-130963000D01*
X115699541Y-124222000D02*
X115699541Y-130900000D01*
X115739541Y-124286000D02*
X115739541Y-130836000D01*
X115779541Y-124353000D02*
X115779541Y-130769000D01*
X115819541Y-124421000D02*
X115819541Y-130701000D01*
X115859541Y-124492000D02*
X115859541Y-130630000D01*
X115899541Y-124565000D02*
X115899541Y-130557000D01*
X115939541Y-124640000D02*
X115939541Y-130482000D01*
X115979541Y-124717000D02*
X115979541Y-130405000D01*
X116019541Y-124797000D02*
X116019541Y-130325000D01*
X116059541Y-124880000D02*
X116059541Y-130242000D01*
X116099541Y-124967000D02*
X116099541Y-130155000D01*
X116139541Y-125057000D02*
X116139541Y-130065000D01*
X116179541Y-125151000D02*
X116179541Y-129971000D01*
X116219541Y-125249000D02*
X116219541Y-129873000D01*
X116259541Y-125352000D02*
X116259541Y-129770000D01*
X116299541Y-125461000D02*
X116299541Y-129661000D01*
X116339541Y-125577000D02*
X116339541Y-129545000D01*
X116379541Y-125700000D02*
X116379541Y-129422000D01*
X116419541Y-125833000D02*
X116419541Y-129289000D01*
X116459541Y-125978000D02*
X116459541Y-129144000D01*
X116499541Y-126139000D02*
X116499541Y-128983000D01*
X116539541Y-126320000D02*
X116539541Y-128802000D01*
X116579541Y-126533000D02*
X116579541Y-128589000D01*
X116619541Y-126804000D02*
X116619541Y-128318000D01*
X116659541Y-127244000D02*
X116659541Y-127878000D01*
D13*
X116798541Y-127561000D02*
G75*
G02*
X103798541Y-127561000I-6500000J0D01*
G01*
X103798541Y-127561000D02*
G75*
G02*
X116798541Y-127561000I6500000J0D01*
G01*
D14*
%TO.C,R14*%
X94028458Y-108983700D02*
X93553942Y-108983700D01*
X94028458Y-110028700D02*
X93553942Y-110028700D01*
%TO.C,D7*%
X55095000Y-106911000D02*
X49285000Y-106911000D01*
X55095000Y-111211000D02*
X49285000Y-111211000D01*
X55095000Y-111211000D02*
X55095000Y-106911000D01*
%TO.C,D1*%
X60895000Y-101936000D02*
X58235000Y-101936000D01*
X60895000Y-103636000D02*
X58235000Y-103636000D01*
X60895000Y-103636000D02*
X60895000Y-101936000D01*
%TO.C,L1*%
X103685000Y-138561000D02*
G75*
G02*
X92685000Y-138561000I-5500000J0D01*
G01*
X92685000Y-138561000D02*
G75*
G02*
X103685000Y-138561000I5500000J0D01*
G01*
%TO.C,U1*%
X69655000Y-98936000D02*
X69655000Y-96986000D01*
X69655000Y-98936000D02*
X69655000Y-100886000D01*
X74775000Y-98936000D02*
X74775000Y-96986000D01*
X74775000Y-98936000D02*
X74775000Y-100886000D01*
X75010000Y-96476000D02*
X74680000Y-96236000D01*
X75010000Y-95996000D01*
X75010000Y-96476000D01*
G36*
X75010000Y-96476000D02*
G01*
X74680000Y-96236000D01*
X75010000Y-95996000D01*
X75010000Y-96476000D01*
G37*
D12*
%TO.C,Q1*%
X41395000Y-93856000D02*
X41395000Y-111266000D01*
X42415000Y-93676000D02*
X62995000Y-93676000D01*
X42415000Y-93676000D02*
X62995000Y-93676000D01*
X42415000Y-97542242D02*
X42415000Y-107579758D01*
X42415000Y-107579758D02*
X43115000Y-107641000D01*
D14*
X42415000Y-107681000D02*
X42415000Y-97441000D01*
D12*
X42415000Y-111446000D02*
X42415000Y-93676000D01*
X42415000Y-111446000D02*
X42415000Y-93676000D01*
X42595000Y-112466000D02*
X62995000Y-112466000D01*
X42595000Y-112466000D02*
X62995000Y-112466000D01*
X43115000Y-97481000D02*
X42415000Y-97542242D01*
X43115000Y-97481000D02*
X44955000Y-97641979D01*
X44955000Y-97641979D02*
X46215000Y-97752215D01*
X44955000Y-107480021D02*
X43115000Y-107641000D01*
X46215000Y-97752215D02*
X47215000Y-97839704D01*
X46215000Y-107369785D02*
X44955000Y-107480021D01*
X47215000Y-97839704D02*
X47215000Y-107282296D01*
X47215000Y-107282296D02*
X46215000Y-107369785D01*
X62995000Y-92656000D02*
X42595000Y-92656000D01*
X62995000Y-92656000D02*
X42595000Y-92656000D01*
X62995000Y-93676000D02*
X62995000Y-92656000D01*
X62995000Y-93676000D02*
X62995000Y-92656000D01*
X62995000Y-111446000D02*
X42415000Y-111446000D01*
X62995000Y-111446000D02*
X42415000Y-111446000D01*
X62995000Y-112466000D02*
X62995000Y-111446000D01*
X62995000Y-112466000D02*
X62995000Y-111446000D01*
X41395000Y-93856000D02*
G75*
G02*
X42595000Y-92656000I1200000J0D01*
G01*
X41395000Y-93856000D02*
G75*
G02*
X42595000Y-92656000I1200000J0D01*
G01*
X42595000Y-112466000D02*
G75*
G02*
X41395000Y-111266000I0J1200000D01*
G01*
X42595000Y-112466000D02*
G75*
G02*
X41395000Y-111266000I0J1200000D01*
G01*
%TD*%
M02*
