%TF.GenerationSoftware,KiCad,Pcbnew,8.0.0-rc3-2-g1717f39daf*%
%TF.CreationDate,2024-02-17T21:45:03+01:00*%
%TF.ProjectId,ACDC150V24,41434443-3135-4305-9632-342e6b696361,rev?*%
%TF.SameCoordinates,Original*%
%TF.FileFunction,Soldermask,Top*%
%TF.FilePolarity,Negative*%
%FSLAX46Y46*%
G04 Gerber Fmt 4.6, Leading zero omitted, Abs format (unit mm)*
G04 Created by KiCad (PCBNEW 8.0.0-rc3-2-g1717f39daf) date 2024-02-17 21:45:03*
%MOMM*%
%LPD*%
G01*
G04 APERTURE LIST*
G04 Aperture macros list*
%AMRoundRect*
0 Rectangle with rounded corners*
0 $1 Rounding radius*
0 $2 $3 $4 $5 $6 $7 $8 $9 X,Y pos of 4 corners*
0 Add a 4 corners polygon primitive as box body*
4,1,4,$2,$3,$4,$5,$6,$7,$8,$9,$2,$3,0*
0 Add four circle primitives for the rounded corners*
1,1,$1+$1,$2,$3*
1,1,$1+$1,$4,$5*
1,1,$1+$1,$6,$7*
1,1,$1+$1,$8,$9*
0 Add four rect primitives between the rounded corners*
20,1,$1+$1,$2,$3,$4,$5,0*
20,1,$1+$1,$4,$5,$6,$7,0*
20,1,$1+$1,$6,$7,$8,$9,0*
20,1,$1+$1,$8,$9,$2,$3,0*%
G04 Aperture macros list end*
%ADD10C,1.000000*%
%ADD11C,3.000000*%
%ADD12C,2.000000*%
%ADD13C,2.400000*%
%ADD14O,2.400000X2.400000*%
%ADD15O,2.000000X1.905000*%
%ADD16R,2.000000X1.905000*%
%ADD17RoundRect,0.200000X-0.275000X0.200000X-0.275000X-0.200000X0.275000X-0.200000X0.275000X0.200000X0*%
%ADD18RoundRect,0.200000X-0.200000X-0.275000X0.200000X-0.275000X0.200000X0.275000X-0.200000X0.275000X0*%
%ADD19RoundRect,0.200000X0.275000X-0.200000X0.275000X0.200000X-0.275000X0.200000X-0.275000X-0.200000X0*%
%ADD20C,3.600000*%
%ADD21C,5.600000*%
%ADD22RoundRect,0.250000X0.625000X-0.400000X0.625000X0.400000X-0.625000X0.400000X-0.625000X-0.400000X0*%
%ADD23R,3.200000X3.200000*%
%ADD24C,3.200000*%
%ADD25C,1.800000*%
%ADD26RoundRect,0.250000X-0.337500X-0.475000X0.337500X-0.475000X0.337500X0.475000X-0.337500X0.475000X0*%
%ADD27RoundRect,0.225000X-0.250000X0.225000X-0.250000X-0.225000X0.250000X-0.225000X0.250000X0.225000X0*%
%ADD28C,2.000000*%
%ADD29RoundRect,0.225000X-0.225000X-0.250000X0.225000X-0.250000X0.225000X0.250000X-0.225000X0.250000X0*%
%ADD30RoundRect,0.250000X0.337500X0.475000X-0.337500X0.475000X-0.337500X-0.475000X0.337500X-0.475000X0*%
%ADD31RoundRect,0.225000X0.250000X-0.225000X0.250000X0.225000X-0.250000X0.225000X-0.250000X-0.225000X0*%
%ADD32R,2.400000X2.400000*%
%ADD33C,1.700000*%
%ADD34RoundRect,0.200000X0.200000X0.275000X-0.200000X0.275000X-0.200000X-0.275000X0.200000X-0.275000X0*%
%ADD35RoundRect,0.112500X-0.112500X0.187500X-0.112500X-0.187500X0.112500X-0.187500X0.112500X0.187500X0*%
%ADD36RoundRect,0.249999X-0.450001X-1.425001X0.450001X-1.425001X0.450001X1.425001X-0.450001X1.425001X0*%
%ADD37RoundRect,0.112500X0.112500X-0.187500X0.112500X0.187500X-0.112500X0.187500X-0.112500X-0.187500X0*%
%ADD38R,2.400000X1.600000*%
%ADD39O,2.400000X1.600000*%
%ADD40RoundRect,0.112500X0.187500X0.112500X-0.187500X0.112500X-0.187500X-0.112500X0.187500X-0.112500X0*%
%ADD41C,1.600000*%
%ADD42RoundRect,0.150000X0.150000X-0.587500X0.150000X0.587500X-0.150000X0.587500X-0.150000X-0.587500X0*%
%ADD43C,2.300000*%
%ADD44RoundRect,0.250000X-0.400000X-0.625000X0.400000X-0.625000X0.400000X0.625000X-0.400000X0.625000X0*%
%ADD45RoundRect,0.250001X-1.099999X1.099999X-1.099999X-1.099999X1.099999X-1.099999X1.099999X1.099999X0*%
%ADD46C,2.700000*%
%ADD47RoundRect,0.250000X-0.625000X0.400000X-0.625000X-0.400000X0.625000X-0.400000X0.625000X0.400000X0*%
%ADD48RoundRect,0.250001X1.099999X1.099999X-1.099999X1.099999X-1.099999X-1.099999X1.099999X-1.099999X0*%
%ADD49RoundRect,0.250000X0.300000X0.300000X-0.300000X0.300000X-0.300000X-0.300000X0.300000X-0.300000X0*%
%ADD50RoundRect,0.225000X0.225000X0.250000X-0.225000X0.250000X-0.225000X-0.250000X0.225000X-0.250000X0*%
%ADD51RoundRect,0.250000X1.000000X0.900000X-1.000000X0.900000X-1.000000X-0.900000X1.000000X-0.900000X0*%
%ADD52RoundRect,0.112500X-0.187500X-0.112500X0.187500X-0.112500X0.187500X0.112500X-0.187500X0.112500X0*%
%ADD53RoundRect,0.150000X-0.825000X-0.150000X0.825000X-0.150000X0.825000X0.150000X-0.825000X0.150000X0*%
G04 APERTURE END LIST*
D10*
X109607107Y-131192893D02*
X106192893Y-134607107D01*
X32900000Y-24900000D02*
G75*
G02*
X34900000Y-22900000I2000000J0D01*
G01*
X109607107Y-131192893D02*
G75*
G02*
X110314214Y-130900039I707093J-707207D01*
G01*
X107900000Y-138900000D02*
X107900000Y-136314214D01*
X44607107Y-134607107D02*
G75*
G02*
X44899961Y-135314214I-707207J-707093D01*
G01*
X113900000Y-32900000D02*
G75*
G02*
X114900000Y-33900000I0J-1000000D01*
G01*
D11*
X101900000Y-101400000D02*
G75*
G02*
X104900000Y-98400000I3000000J0D01*
G01*
D10*
X40192893Y-133192893D02*
X42607107Y-135607107D01*
X110314214Y-34900000D02*
X113900000Y-34900000D01*
X114900000Y-131900000D02*
X114900000Y-131900000D01*
D12*
X35900000Y-55900000D02*
X43900000Y-55900000D01*
D10*
X117900000Y-24900000D02*
X117900000Y-140900000D01*
X114900000Y-33900000D02*
X114900000Y-33900000D01*
X106900000Y-139900000D02*
G75*
G02*
X105900000Y-138900000I0J1000000D01*
G01*
X44900000Y-138900000D02*
G75*
G02*
X43900000Y-139900000I-1000000J0D01*
G01*
X106900000Y-139900000D02*
X106900000Y-139900000D01*
X117900000Y-140900000D02*
G75*
G02*
X115900000Y-142900000I-2000000J0D01*
G01*
D11*
X117736000Y-98400000D02*
X104900000Y-98400000D01*
D10*
X107900000Y-136314214D02*
G75*
G02*
X108192886Y-135607100I1000000J14D01*
G01*
X105900000Y-26900000D02*
X105900000Y-30485786D01*
X107900000Y-138900000D02*
G75*
G02*
X106900000Y-139900000I-1000000J0D01*
G01*
X110607107Y-133192893D02*
G75*
G02*
X111314214Y-132900010I707093J-707107D01*
G01*
X105900000Y-135314214D02*
G75*
G02*
X106192907Y-134607121I999900J14D01*
G01*
X39485786Y-132900000D02*
G75*
G02*
X40192900Y-133192886I14J-1000000D01*
G01*
X44900000Y-138900000D02*
X44900000Y-135314214D01*
X36900000Y-132900000D02*
G75*
G02*
X35900000Y-131900000I0J1000000D01*
G01*
X110314214Y-34900000D02*
G75*
G02*
X109607100Y-34607114I-14J1000000D01*
G01*
X105900000Y-26900000D02*
G75*
G02*
X106900000Y-25900000I1000000J0D01*
G01*
X35900000Y-131900000D02*
G75*
G02*
X36900000Y-130900000I1000000J0D01*
G01*
X114900000Y-33900000D02*
G75*
G02*
X113900000Y-34900000I-1000000J0D01*
G01*
X110607107Y-32607107D02*
X108192893Y-30192893D01*
D11*
X98900000Y-110874000D02*
X32900000Y-110874000D01*
D10*
X107900000Y-29485786D02*
X107900000Y-26900000D01*
X34900000Y-142900000D02*
G75*
G02*
X32900000Y-140900000I0J2000000D01*
G01*
X106192893Y-31192893D02*
G75*
G02*
X105900039Y-30485786I707207J707093D01*
G01*
X36900000Y-132900000D02*
X39485786Y-132900000D01*
X42607107Y-135607107D02*
G75*
G02*
X42899990Y-136314214I-707107J-707093D01*
G01*
X111314214Y-132900000D02*
X113900000Y-132900000D01*
X40485786Y-130900000D02*
X36900000Y-130900000D01*
X106900000Y-25900000D02*
X106900000Y-25900000D01*
X44607107Y-134607107D02*
X41192893Y-131192893D01*
X43900000Y-139900000D02*
X43900000Y-139900000D01*
X105900000Y-135314214D02*
X105900000Y-138900000D01*
X115900000Y-142900000D02*
X34900000Y-142900000D01*
X113900000Y-130900000D02*
X110314214Y-130900000D01*
X114900000Y-131900000D02*
G75*
G02*
X113900000Y-132900000I-1000000J0D01*
G01*
X32900000Y-140900000D02*
X32900000Y-24900000D01*
X113900000Y-130900000D02*
G75*
G02*
X114900000Y-131900000I0J-1000000D01*
G01*
X43900000Y-139900000D02*
G75*
G02*
X42900000Y-138900000I0J1000000D01*
G01*
X106900000Y-25900000D02*
G75*
G02*
X107900000Y-26900000I0J-1000000D01*
G01*
X111314214Y-32900000D02*
G75*
G02*
X110607121Y-32607093I-14J999900D01*
G01*
X40485786Y-130900000D02*
G75*
G02*
X41192879Y-131192907I14J-999900D01*
G01*
X106192893Y-31192893D02*
X109607107Y-34607107D01*
D11*
X101900000Y-101400000D02*
X101900000Y-107874000D01*
D10*
X108192893Y-135607107D02*
X110607107Y-133192893D01*
X35900000Y-131900000D02*
X35900000Y-131900000D01*
D11*
X101900000Y-107874000D02*
G75*
G02*
X98900000Y-110874000I-3000000J0D01*
G01*
D10*
X113900000Y-32900000D02*
X111314214Y-32900000D01*
X108192893Y-30192893D02*
G75*
G02*
X107900010Y-29485786I707107J707093D01*
G01*
X115900000Y-22900000D02*
G75*
G02*
X117900000Y-24900000I0J-2000000D01*
G01*
X42900000Y-136314214D02*
X42900000Y-138900000D01*
X34900000Y-22900000D02*
X115900000Y-22900000D01*
D13*
%TO.C,R22*%
X102400000Y-86540000D03*
D14*
X102400000Y-81460000D03*
%TD*%
D15*
%TO.C,Q1*%
X73455000Y-102440000D03*
X73455000Y-99900000D03*
D16*
X73455000Y-97360000D03*
%TD*%
D17*
%TO.C,R15*%
X112900000Y-115075000D03*
X112900000Y-116725000D03*
%TD*%
%TO.C,R17*%
X114400000Y-112103000D03*
X114400000Y-113753000D03*
%TD*%
D18*
%TO.C,R12*%
X107575000Y-111400000D03*
X109225000Y-111400000D03*
%TD*%
D19*
%TO.C,R18*%
X112900000Y-113753000D03*
X112900000Y-112103000D03*
%TD*%
D20*
%TO.C,H2*%
X112900000Y-137900000D03*
D21*
X112900000Y-137900000D03*
%TD*%
D22*
%TO.C,R6*%
X86400000Y-83950000D03*
X86400000Y-80850000D03*
%TD*%
D23*
%TO.C,D6*%
X104400000Y-54560000D03*
D24*
X104400000Y-49480000D03*
X104400000Y-44400000D03*
X104400000Y-39320000D03*
%TD*%
D25*
%TO.C,F1*%
X40100000Y-58440000D03*
X40100000Y-53360000D03*
%TD*%
D26*
%TO.C,C17*%
X98664500Y-125098500D03*
X100739500Y-125098500D03*
%TD*%
D25*
%TO.C,RV1*%
X49900000Y-55400000D03*
X48600000Y-62900000D03*
%TD*%
D27*
%TO.C,C2*%
X56075000Y-86125000D03*
X56075000Y-87675000D03*
%TD*%
D28*
%TO.C,SW1*%
X42900000Y-37900000D03*
X48900000Y-36900000D03*
X42900000Y-47900000D03*
X48900000Y-48900000D03*
%TD*%
D29*
%TO.C,C4*%
X66125000Y-85100000D03*
X67675000Y-85100000D03*
%TD*%
D28*
%TO.C,C12*%
X111081200Y-101895200D03*
X111081200Y-94395200D03*
%TD*%
D30*
%TO.C,C20*%
X100739500Y-129184000D03*
X98664500Y-129184000D03*
%TD*%
D28*
%TO.C,C28*%
X74302000Y-122072000D03*
X74302000Y-114572000D03*
%TD*%
D31*
%TO.C,C10*%
X53100000Y-87675000D03*
X53100000Y-86125000D03*
%TD*%
D32*
%TO.C,C25*%
X52458000Y-133274541D03*
D13*
X52458000Y-138274541D03*
%TD*%
D33*
%TO.C,C7*%
X59400000Y-33400000D03*
X59400000Y-55900000D03*
%TD*%
D34*
%TO.C,R3*%
X71025000Y-90000000D03*
X69375000Y-90000000D03*
%TD*%
D29*
%TO.C,C5*%
X66125000Y-83600000D03*
X67675000Y-83600000D03*
%TD*%
D34*
%TO.C,R2*%
X71025000Y-88525000D03*
X69375000Y-88525000D03*
%TD*%
D35*
%TO.C,D4*%
X44330000Y-86351000D03*
X44330000Y-88451000D03*
%TD*%
D32*
%TO.C,C24*%
X65920000Y-133274541D03*
D13*
X65920000Y-138274541D03*
%TD*%
D14*
%TO.C,R20*%
X90900000Y-81460000D03*
D13*
X90900000Y-86540000D03*
%TD*%
D36*
%TO.C,R5*%
X80100000Y-104900000D03*
X86200000Y-104900000D03*
%TD*%
D37*
%TO.C,D3*%
X66100000Y-82250000D03*
X66100000Y-80150000D03*
%TD*%
D38*
%TO.C,U2*%
X105725000Y-106425000D03*
D39*
X105725000Y-103885000D03*
X105725000Y-101345000D03*
X98105000Y-101345000D03*
X98105000Y-103885000D03*
X98105000Y-106425000D03*
%TD*%
D33*
%TO.C,C11*%
X88400000Y-32900000D03*
X88400000Y-55400000D03*
%TD*%
D32*
%TO.C,C16*%
X109400000Y-65900000D03*
D13*
X109400000Y-73400000D03*
%TD*%
D30*
%TO.C,C27*%
X92865500Y-114960000D03*
X90790500Y-114960000D03*
%TD*%
D40*
%TO.C,D2*%
X66050000Y-90200000D03*
X68150000Y-90200000D03*
%TD*%
D41*
%TO.C,C6*%
X70766000Y-82900000D03*
X73266000Y-82900000D03*
%TD*%
D13*
%TO.C,R19*%
X96650000Y-86540000D03*
D14*
X96650000Y-81460000D03*
%TD*%
D32*
%TO.C,C23*%
X105824541Y-124003541D03*
D13*
X110824541Y-124003541D03*
%TD*%
D42*
%TO.C,U3*%
X109200000Y-108087500D03*
X111100000Y-108087500D03*
X110150000Y-106212500D03*
%TD*%
D43*
%TO.C,FL1*%
X68900000Y-52650000D03*
X78900000Y-52650000D03*
X68900000Y-33900000D03*
X78900000Y-33900000D03*
%TD*%
D29*
%TO.C,C14*%
X109375000Y-104150000D03*
X110925000Y-104150000D03*
%TD*%
D28*
%TO.C,C21*%
X87900000Y-94150000D03*
X80400000Y-94150000D03*
%TD*%
D44*
%TO.C,R8*%
X76850000Y-80900000D03*
X79950000Y-80900000D03*
%TD*%
D20*
%TO.C,H4*%
X112900000Y-27700000D03*
D21*
X112900000Y-27700000D03*
%TD*%
D28*
%TO.C,C9*%
X45900000Y-31900000D03*
X45900000Y-26900000D03*
%TD*%
D26*
%TO.C,C26*%
X90790500Y-116992000D03*
X92865500Y-116992000D03*
%TD*%
D29*
%TO.C,C1*%
X57775000Y-81840000D03*
X59325000Y-81840000D03*
%TD*%
D13*
%TO.C,R21*%
X74317000Y-126136000D03*
D14*
X79397000Y-126136000D03*
%TD*%
D17*
%TO.C,R16*%
X114400000Y-115075000D03*
X114400000Y-116725000D03*
%TD*%
D41*
%TO.C,TH1*%
X97150000Y-44400000D03*
X98650000Y-39400000D03*
%TD*%
D19*
%TO.C,R1*%
X54600000Y-87725000D03*
X54600000Y-86075000D03*
%TD*%
D45*
%TO.C,J1*%
X40650000Y-63400000D03*
D46*
X40650000Y-71320000D03*
%TD*%
D29*
%TO.C,C15*%
X112770000Y-110515000D03*
X114320000Y-110515000D03*
%TD*%
D43*
%TO.C,TR1*%
X67060000Y-94400000D03*
X61980000Y-94400000D03*
X56900000Y-94400000D03*
X49407000Y-94400000D03*
X44327000Y-94400000D03*
X39247000Y-94400000D03*
X39247000Y-124880000D03*
X44327000Y-124880000D03*
X49407000Y-124880000D03*
X56900000Y-124880000D03*
X61980000Y-124880000D03*
X67060000Y-124880000D03*
%TD*%
D47*
%TO.C,R7*%
X82900000Y-80850000D03*
X82900000Y-83950000D03*
%TD*%
D26*
%TO.C,C19*%
X98664500Y-131343000D03*
X100739500Y-131343000D03*
%TD*%
D28*
%TO.C,C8*%
X56900000Y-26400000D03*
X51900000Y-26400000D03*
%TD*%
D19*
%TO.C,R4*%
X72600000Y-87575000D03*
X72600000Y-89225000D03*
%TD*%
D34*
%TO.C,R11*%
X63650000Y-81840000D03*
X62000000Y-81840000D03*
%TD*%
D48*
%TO.C,J2*%
X101860000Y-137900000D03*
D46*
X97900000Y-137900000D03*
X93940000Y-137900000D03*
X89980000Y-137900000D03*
%TD*%
D49*
%TO.C,D5*%
X110550000Y-114900000D03*
X107750000Y-114900000D03*
%TD*%
D50*
%TO.C,C13*%
X109175000Y-112900000D03*
X107625000Y-112900000D03*
%TD*%
D34*
%TO.C,R13*%
X109225000Y-109900000D03*
X107575000Y-109900000D03*
%TD*%
D19*
%TO.C,R9*%
X67800000Y-81925000D03*
X67800000Y-80275000D03*
%TD*%
D34*
%TO.C,R10*%
X63650000Y-80340000D03*
X62000000Y-80340000D03*
%TD*%
D16*
%TO.C,D8*%
X78714000Y-115558000D03*
D15*
X78714000Y-118098000D03*
X78714000Y-120638000D03*
%TD*%
D29*
%TO.C,C3*%
X66125000Y-86600000D03*
X67675000Y-86600000D03*
%TD*%
D43*
%TO.C,HS2*%
X84462000Y-118135000D03*
%TD*%
D20*
%TO.C,H3*%
X37900000Y-137900000D03*
D21*
X37900000Y-137900000D03*
%TD*%
D30*
%TO.C,C18*%
X100739500Y-127152000D03*
X98664500Y-127152000D03*
%TD*%
D32*
%TO.C,C22*%
X81768459Y-135788000D03*
D13*
X76768459Y-135788000D03*
%TD*%
D19*
%TO.C,R14*%
X110624000Y-111467000D03*
X110624000Y-109817000D03*
%TD*%
D51*
%TO.C,D7*%
X84800000Y-99650000D03*
X80500000Y-99650000D03*
%TD*%
D52*
%TO.C,D1*%
X66050000Y-88300000D03*
X68150000Y-88300000D03*
%TD*%
D28*
%TO.C,L1*%
X96100000Y-127000000D03*
X88100000Y-127000000D03*
%TD*%
D53*
%TO.C,U1*%
X58300000Y-83590000D03*
X58300000Y-84860000D03*
X58300000Y-86130000D03*
X58300000Y-87400000D03*
X63250000Y-87400000D03*
X63250000Y-86130000D03*
X63250000Y-84860000D03*
X63250000Y-83590000D03*
%TD*%
D20*
%TO.C,H1*%
X37900000Y-27900000D03*
D21*
X37900000Y-27900000D03*
%TD*%
M02*
