M48
; DRILL file {KiCad 8.0.0-rc3-2-g1717f39daf} date 2024-02-17T21:45:10+0100
; FORMAT={-:-/ absolute / inch / decimal}
; #@! TF.CreationDate,2024-02-17T21:45:10+01:00
; #@! TF.GenerationSoftware,Kicad,Pcbnew,8.0.0-rc3-2-g1717f39daf
; #@! TF.FileFunction,Plated,1,2,PTH
FMAT,2
INCH
; #@! TA.AperFunction,Plated,PTH,ViaDrill
T1C0.0157
; #@! TA.AperFunction,Plated,PTH,ComponentDrill
T2C0.0276
; #@! TA.AperFunction,Plated,PTH,ComponentDrill
T3C0.0315
; #@! TA.AperFunction,Plated,PTH,ComponentDrill
T4C0.0354
; #@! TA.AperFunction,Plated,PTH,ComponentDrill
T5C0.0394
; #@! TA.AperFunction,Plated,PTH,ComponentDrill
T6C0.0433
; #@! TA.AperFunction,Plated,PTH,ComponentDrill
T7C0.0472
; #@! TA.AperFunction,Plated,PTH,ComponentDrill
T8C0.0512
; #@! TA.AperFunction,Plated,PTH,ComponentDrill
T9C0.0630
; #@! TA.AperFunction,Plated,PTH,ComponentDrill
T10C0.0669
; #@! TA.AperFunction,Plated,PTH,ComponentDrill
T11C0.1260
%
G90
G05
T1
X2.0276Y-3.8937
X2.1142Y-3.5
X2.4173Y-3.4882
X2.4173Y-3.5315
X2.8386Y-3.1417
X3.0394Y-3.8898
X3.0394Y-3.9409
X3.063Y-3.4094
X3.0906Y-3.8937
X3.0906Y-3.9409
X3.0945Y-3.378
X3.1339Y-3.3425
X3.4646Y-4.0709
X3.4646Y-4.1299
X3.4646Y-4.189
X3.5354Y-4.0709
X3.5354Y-4.1299
X3.5354Y-4.189
X3.6063Y-4.0709
X3.6063Y-4.1299
X3.6063Y-4.189
X3.6793Y-4.526
X3.6793Y-4.606
X4.2403Y-4.556
X4.3366Y-4.2382
X4.3603Y-3.211
X4.3603Y-3.281
X4.3603Y-3.346
X4.4055Y-4.4744
X4.4453Y-3.211
X4.4453Y-3.286
X4.4453Y-3.351
X4.4803Y-2.3386
X4.4803Y-2.4213
X4.4803Y-2.5039
X4.4803Y-2.5827
X4.4843Y-2.2283
T2
X3.8248Y-1.748
X3.8839Y-1.5512
T3
X2.7861Y-3.2638
X2.8845Y-3.2638
X3.8624Y-3.99
X3.8624Y-4.09
X3.8624Y-4.19
X4.1624Y-3.99
X4.1624Y-4.09
X4.1624Y-4.19
T4
X1.9134Y-2.4764
X1.9646Y-2.1811
T5
X1.8071Y-1.0591
X1.8071Y-1.2559
X2.0433Y-1.0394
X2.2402Y-1.0394
X2.3386Y-1.315
X2.3386Y-2.2008
X2.9253Y-4.5107
X2.9253Y-4.806
X3.1654Y-3.7067
X3.4606Y-3.7067
X3.4803Y-1.2953
X3.4803Y-2.1811
X4.3733Y-3.7163
X4.3733Y-4.0116
T6
X1.5787Y-2.1008
X1.5787Y-2.3008
X2.8919Y-3.8331
X2.8919Y-3.9331
X2.8919Y-4.0331
X3.099Y-4.5495
X3.099Y-4.6495
X3.099Y-4.7495
T7
X1.689Y-1.4921
X1.689Y-1.8858
X1.9252Y-1.4528
X1.9252Y-1.9252
X2.0653Y-5.247
X2.0653Y-5.4439
X2.5953Y-5.247
X2.5953Y-5.4439
X2.9259Y-4.966
X3.0224Y-5.346
X3.1259Y-4.966
X3.2192Y-5.346
X3.5787Y-3.2071
X3.5787Y-3.4071
X3.8051Y-3.2071
X3.8051Y-3.4071
X4.0315Y-3.2071
X4.0315Y-3.4071
X4.1663Y-4.882
X4.3071Y-2.5945
X4.3071Y-2.8898
X4.3632Y-4.882
T8
X3.4685Y-5.0
X3.7835Y-5.0
T9
X1.5452Y-3.7165
X1.5452Y-4.9165
X1.7452Y-3.7165
X1.7452Y-4.9165
X1.9452Y-3.7165
X1.9452Y-4.9165
X2.2402Y-3.7165
X2.2402Y-4.9165
X2.4402Y-3.7165
X2.4402Y-4.9165
X2.6402Y-3.7165
X2.6402Y-4.9165
X2.7126Y-1.3346
X2.7126Y-2.0728
X3.1063Y-1.3346
X3.1063Y-2.0728
X4.1102Y-1.548
X4.1102Y-1.748
X4.1102Y-1.948
X4.1102Y-2.148
T10
X1.6004Y-2.4961
X1.6004Y-2.8079
X3.5425Y-5.4291
X3.6984Y-5.4291
X3.8543Y-5.4291
X4.0102Y-5.4291
T11
X1.4921Y-1.0984
X1.4921Y-5.4291
X4.4449Y-1.0906
X4.4449Y-5.4291
M30
