%TF.GenerationSoftware,KiCad,Pcbnew,8.0.0-rc3-2-g1717f39daf*%
%TF.CreationDate,2024-02-17T21:45:02+01:00*%
%TF.ProjectId,ACDC150V24,41434443-3135-4305-9632-342e6b696361,rev?*%
%TF.SameCoordinates,Original*%
%TF.FileFunction,Copper,L2,Bot*%
%TF.FilePolarity,Positive*%
%FSLAX46Y46*%
G04 Gerber Fmt 4.6, Leading zero omitted, Abs format (unit mm)*
G04 Created by KiCad (PCBNEW 8.0.0-rc3-2-g1717f39daf) date 2024-02-17 21:45:02*
%MOMM*%
%LPD*%
G01*
G04 APERTURE LIST*
G04 Aperture macros list*
%AMRoundRect*
0 Rectangle with rounded corners*
0 $1 Rounding radius*
0 $2 $3 $4 $5 $6 $7 $8 $9 X,Y pos of 4 corners*
0 Add a 4 corners polygon primitive as box body*
4,1,4,$2,$3,$4,$5,$6,$7,$8,$9,$2,$3,0*
0 Add four circle primitives for the rounded corners*
1,1,$1+$1,$2,$3*
1,1,$1+$1,$4,$5*
1,1,$1+$1,$6,$7*
1,1,$1+$1,$8,$9*
0 Add four rect primitives between the rounded corners*
20,1,$1+$1,$2,$3,$4,$5,0*
20,1,$1+$1,$4,$5,$6,$7,0*
20,1,$1+$1,$6,$7,$8,$9,0*
20,1,$1+$1,$8,$9,$2,$3,0*%
G04 Aperture macros list end*
%TA.AperFunction,EtchedComponent*%
%ADD10C,0.000000*%
%TD*%
%TA.AperFunction,ComponentPad*%
%ADD11C,2.400000*%
%TD*%
%TA.AperFunction,ComponentPad*%
%ADD12O,2.400000X2.400000*%
%TD*%
%TA.AperFunction,ComponentPad*%
%ADD13O,2.000000X1.905000*%
%TD*%
%TA.AperFunction,ComponentPad*%
%ADD14R,2.000000X1.905000*%
%TD*%
%TA.AperFunction,ComponentPad*%
%ADD15C,3.600000*%
%TD*%
%TA.AperFunction,ConnectorPad*%
%ADD16C,5.600000*%
%TD*%
%TA.AperFunction,ComponentPad*%
%ADD17R,3.200000X3.200000*%
%TD*%
%TA.AperFunction,ComponentPad*%
%ADD18C,3.200000*%
%TD*%
%TA.AperFunction,ComponentPad*%
%ADD19C,1.800000*%
%TD*%
%TA.AperFunction,ComponentPad*%
%ADD20C,2.000000*%
%TD*%
%TA.AperFunction,ComponentPad*%
%ADD21R,2.400000X2.400000*%
%TD*%
%TA.AperFunction,ComponentPad*%
%ADD22C,1.700000*%
%TD*%
%TA.AperFunction,ComponentPad*%
%ADD23R,2.400000X1.600000*%
%TD*%
%TA.AperFunction,ComponentPad*%
%ADD24O,2.400000X1.600000*%
%TD*%
%TA.AperFunction,ComponentPad*%
%ADD25C,1.600000*%
%TD*%
%TA.AperFunction,ComponentPad*%
%ADD26C,2.300000*%
%TD*%
%TA.AperFunction,ComponentPad*%
%ADD27RoundRect,0.250001X-1.099999X1.099999X-1.099999X-1.099999X1.099999X-1.099999X1.099999X1.099999X0*%
%TD*%
%TA.AperFunction,ComponentPad*%
%ADD28C,2.700000*%
%TD*%
%TA.AperFunction,ComponentPad*%
%ADD29RoundRect,0.250001X1.099999X1.099999X-1.099999X1.099999X-1.099999X-1.099999X1.099999X-1.099999X0*%
%TD*%
%TA.AperFunction,WasherPad*%
%ADD30C,2.300000*%
%TD*%
%TA.AperFunction,SMDPad,CuDef*%
%ADD31C,0.500000*%
%TD*%
%TA.AperFunction,ViaPad*%
%ADD32C,0.800000*%
%TD*%
%TA.AperFunction,Conductor*%
%ADD33C,0.500000*%
%TD*%
%TA.AperFunction,Conductor*%
%ADD34C,2.000000*%
%TD*%
%TA.AperFunction,Conductor*%
%ADD35C,0.300000*%
%TD*%
%TA.AperFunction,Conductor*%
%ADD36C,0.200000*%
%TD*%
G04 APERTURE END LIST*
D10*
%TA.AperFunction,EtchedComponent*%
%TO.C,NT2*%
G36*
X107700000Y-74350000D02*
G01*
X106700000Y-74350000D01*
X106700000Y-73850000D01*
X107700000Y-73850000D01*
X107700000Y-74350000D01*
G37*
%TD.AperFunction*%
%TD*%
D11*
%TO.P,R22,1*%
%TO.N,Net-(D7-K)*%
X102400000Y-86540000D03*
D12*
%TO.P,R22,2*%
%TO.N,/PS/AC_R_O*%
X102400000Y-81460000D03*
%TD*%
D13*
%TO.P,Q1,3,S*%
%TO.N,Net-(Q1-S)*%
X73455000Y-102440000D03*
%TO.P,Q1,2,D*%
%TO.N,/PS/TR_SW*%
X73455000Y-99900000D03*
D14*
%TO.P,Q1,1,G*%
%TO.N,Net-(Q1-G)*%
X73455000Y-97360000D03*
%TD*%
D15*
%TO.P,H2,1,1*%
%TO.N,unconnected-(H2-Pad1)*%
X112900000Y-137900000D03*
D16*
%TO.N,unconnected-(H2-Pad1)_1*%
X112900000Y-137900000D03*
%TD*%
D17*
%TO.P,D6,1,+*%
%TO.N,/PS/AC_R_O*%
X104400000Y-54560000D03*
D18*
%TO.P,D6,2*%
%TO.N,/PS/AC_R_I_2*%
X104400000Y-49480000D03*
%TO.P,D6,3*%
%TO.N,/PS/AC_R_I_1*%
X104400000Y-44400000D03*
%TO.P,D6,4,-*%
%TO.N,DCR_GND*%
X104400000Y-39320000D03*
%TD*%
D19*
%TO.P,F1,1*%
%TO.N,/PS/AC_L*%
X40100000Y-58440000D03*
%TO.P,F1,2*%
%TO.N,Net-(F1-Pad2)*%
X40100000Y-53360000D03*
%TD*%
%TO.P,RV1,1*%
%TO.N,/PS/AC_L_SW*%
X49900000Y-55400000D03*
%TO.P,RV1,2*%
%TO.N,/PS/AC_N*%
X48600000Y-62900000D03*
%TD*%
D20*
%TO.P,SW1,1,1*%
%TO.N,Net-(F1-Pad2)*%
X42900000Y-37900000D03*
%TO.P,SW1,2,2*%
%TO.N,/PS/AC_L_SW*%
X48900000Y-36900000D03*
%TO.P,SW1,3,3*%
%TO.N,Net-(F1-Pad2)*%
X42900000Y-47900000D03*
%TO.P,SW1,4,4*%
%TO.N,/PS/AC_L_SW*%
X48900000Y-48900000D03*
%TD*%
%TO.P,C12,1*%
%TO.N,OUT_GND*%
X111081200Y-101895200D03*
%TO.P,C12,2*%
%TO.N,GND_DC_P*%
X111081200Y-94395200D03*
%TD*%
%TO.P,C28,1*%
%TO.N,Net-(C28-Pad1)*%
X74302000Y-122072000D03*
%TO.P,C28,2*%
%TO.N,Net-(D8A-A)*%
X74302000Y-114572000D03*
%TD*%
D21*
%TO.P,C25,1*%
%TO.N,/PS/24V_O*%
X52458000Y-133274541D03*
D11*
%TO.P,C25,2*%
%TO.N,OUT_GND*%
X52458000Y-138274541D03*
%TD*%
D22*
%TO.P,C7,1*%
%TO.N,/PS/AC_L_SW*%
X59400000Y-33400000D03*
%TO.P,C7,2*%
%TO.N,/PS/AC_N*%
X59400000Y-55900000D03*
%TD*%
D21*
%TO.P,C24,1*%
%TO.N,/PS/24V_O*%
X65920000Y-133274541D03*
D11*
%TO.P,C24,2*%
%TO.N,OUT_GND*%
X65920000Y-138274541D03*
%TD*%
D12*
%TO.P,R20,2*%
%TO.N,/PS/AC_R_O*%
X90900000Y-81460000D03*
D11*
%TO.P,R20,1*%
%TO.N,Net-(C21-Pad2)*%
X90900000Y-86540000D03*
%TD*%
D23*
%TO.P,U2,1*%
%TO.N,Net-(R12-Pad1)*%
X105725000Y-106425000D03*
D24*
%TO.P,U2,2*%
%TO.N,Net-(U3-K)*%
X105725000Y-103885000D03*
%TO.P,U2,3,NC*%
%TO.N,unconnected-(U2-NC-Pad3)*%
X105725000Y-101345000D03*
%TO.P,U2,4*%
%TO.N,GND_DC_S*%
X98105000Y-101345000D03*
%TO.P,U2,5*%
%TO.N,/PS/OPT_C*%
X98105000Y-103885000D03*
%TO.P,U2,6*%
%TO.N,unconnected-(U2-Pad6)*%
X98105000Y-106425000D03*
%TD*%
D22*
%TO.P,C11,1*%
%TO.N,Net-(C11-Pad1)*%
X88400000Y-32900000D03*
%TO.P,C11,2*%
%TO.N,/PS/AC_R_I_2*%
X88400000Y-55400000D03*
%TD*%
D21*
%TO.P,C16,1*%
%TO.N,/PS/AC_R_O*%
X109400000Y-65900000D03*
D11*
%TO.P,C16,2*%
%TO.N,DCR_GND*%
X109400000Y-73400000D03*
%TD*%
D25*
%TO.P,C6,1*%
%TO.N,Net-(D4-K)*%
X70766000Y-82900000D03*
%TO.P,C6,2*%
%TO.N,GND_DC_P*%
X73266000Y-82900000D03*
%TD*%
D11*
%TO.P,R19,1*%
%TO.N,Net-(D7-K)*%
X96650000Y-86540000D03*
D12*
%TO.P,R19,2*%
%TO.N,/PS/AC_R_O*%
X96650000Y-81460000D03*
%TD*%
D21*
%TO.P,C23,1*%
%TO.N,/PS/24V_F*%
X105824541Y-124003541D03*
D11*
%TO.P,C23,2*%
%TO.N,OUT_GND*%
X110824541Y-124003541D03*
%TD*%
D26*
%TO.P,FL1,1,1*%
%TO.N,/PS/AC_N*%
X68900000Y-52650000D03*
%TO.P,FL1,2,2*%
%TO.N,/PS/AC_R_I_2*%
X78900000Y-52650000D03*
%TO.P,FL1,3,3*%
%TO.N,/PS/AC_L_SW*%
X68900000Y-33900000D03*
%TO.P,FL1,4,4*%
%TO.N,Net-(C11-Pad1)*%
X78900000Y-33900000D03*
%TD*%
D20*
%TO.P,C21,1*%
%TO.N,Net-(D7-K)*%
X87900000Y-94150000D03*
%TO.P,C21,2*%
%TO.N,Net-(C21-Pad2)*%
X80400000Y-94150000D03*
%TD*%
D15*
%TO.P,H4,1,1*%
%TO.N,unconnected-(H4-Pad1)_1*%
X112900000Y-27700000D03*
D16*
%TO.N,unconnected-(H4-Pad1)*%
X112900000Y-27700000D03*
%TD*%
D20*
%TO.P,C9,1*%
%TO.N,/PS/AC_R_I_2*%
X45900000Y-31900000D03*
%TO.P,C9,2*%
%TO.N,EARTH*%
X45900000Y-26900000D03*
%TD*%
D11*
%TO.P,R21,1*%
%TO.N,Net-(C28-Pad1)*%
X74317000Y-126136000D03*
D12*
%TO.P,R21,2*%
%TO.N,/PS/24V_O*%
X79397000Y-126136000D03*
%TD*%
D25*
%TO.P,TH1,1*%
%TO.N,/PS/AC_R_I_1*%
X97150000Y-44400000D03*
%TO.P,TH1,2*%
%TO.N,Net-(C11-Pad1)*%
X98650000Y-39400000D03*
%TD*%
D27*
%TO.P,J1,1,Pin_1*%
%TO.N,/PS/AC_L*%
X40650000Y-63400000D03*
D28*
%TO.P,J1,2,Pin_2*%
%TO.N,/PS/AC_N*%
X40650000Y-71320000D03*
%TD*%
D26*
%TO.P,TR1,1,1*%
%TO.N,/PS/TR_SW*%
X67060000Y-94400000D03*
%TO.P,TR1,2,2*%
%TO.N,unconnected-(TR1-Pad2)*%
X61980000Y-94400000D03*
%TO.P,TR1,3,3*%
%TO.N,/PS/AC_R_O*%
X56900000Y-94400000D03*
%TO.P,TR1,4,4*%
%TO.N,DCR_GND*%
X49407000Y-94400000D03*
%TO.P,TR1,5,5*%
%TO.N,/PS/AUX*%
X44327000Y-94400000D03*
%TO.P,TR1,6*%
%TO.N,N/C*%
X39247000Y-94400000D03*
%TO.P,TR1,7*%
X39247000Y-124880000D03*
%TO.P,TR1,8,8*%
%TO.N,Net-(D8A-A)*%
X44327000Y-124880000D03*
%TO.P,TR1,9,9*%
%TO.N,Net-(TR1-Pad10)*%
X49407000Y-124880000D03*
%TO.P,TR1,10,10*%
X56900000Y-124880000D03*
%TO.P,TR1,11,11*%
%TO.N,OUT_GND*%
X61980000Y-124880000D03*
%TO.P,TR1,12*%
%TO.N,N/C*%
X67060000Y-124880000D03*
%TD*%
D20*
%TO.P,C8,1*%
%TO.N,Net-(C11-Pad1)*%
X56900000Y-26400000D03*
%TO.P,C8,2*%
%TO.N,EARTH*%
X51900000Y-26400000D03*
%TD*%
D29*
%TO.P,J2,1,Pin_1*%
%TO.N,OUT_GND*%
X101860000Y-137900000D03*
D28*
%TO.P,J2,2,Pin_2*%
X97900000Y-137900000D03*
%TO.P,J2,3,Pin_3*%
%TO.N,/PS/24V_F*%
X93940000Y-137900000D03*
%TO.P,J2,4,Pin_4*%
X89980000Y-137900000D03*
%TD*%
D14*
%TO.P,D8,1,A*%
%TO.N,Net-(D8A-A)*%
X78714000Y-115558000D03*
D13*
%TO.P,D8,2,K*%
%TO.N,/PS/24V_O*%
X78714000Y-118098000D03*
%TO.P,D8,3,K*%
%TO.N,Net-(D8A-A)*%
X78714000Y-120638000D03*
%TD*%
D30*
%TO.P,HS2,*%
%TO.N,*%
X84462000Y-118135000D03*
%TD*%
D15*
%TO.P,H3,1,1*%
%TO.N,unconnected-(H3-Pad1)*%
X37900000Y-137900000D03*
D16*
%TO.N,unconnected-(H3-Pad1)_1*%
X37900000Y-137900000D03*
%TD*%
D21*
%TO.P,C22,1*%
%TO.N,/PS/24V_F*%
X81768459Y-135788000D03*
D11*
%TO.P,C22,2*%
%TO.N,OUT_GND*%
X76768459Y-135788000D03*
%TD*%
D20*
%TO.P,L1,1*%
%TO.N,/PS/24V_F*%
X96100000Y-127000000D03*
%TO.P,L1,2*%
%TO.N,/PS/24V_O*%
X88100000Y-127000000D03*
%TD*%
D31*
%TO.P,NT2,1,1*%
%TO.N,GND_DC_S*%
X106700000Y-74100000D03*
%TO.P,NT2,2,2*%
%TO.N,DCR_GND*%
X107700000Y-74100000D03*
%TD*%
D15*
%TO.P,H1,1,1*%
%TO.N,EARTH*%
X37900000Y-27900000D03*
D16*
X37900000Y-27900000D03*
%TD*%
D32*
%TO.N,/PS/TR_SW*%
X78500000Y-100100000D03*
X77200000Y-100100000D03*
X77200000Y-98800000D03*
X78500000Y-98900000D03*
%TO.N,GND_DC_P*%
X91600000Y-104900000D03*
X91600000Y-106400000D03*
X89800000Y-106400000D03*
X79600000Y-84900000D03*
X78600000Y-85800000D03*
X77800000Y-86600000D03*
X91600000Y-103400000D03*
X89800000Y-103400000D03*
X88000000Y-103400000D03*
X89800000Y-104900000D03*
X88000000Y-104900000D03*
X88000000Y-106400000D03*
%TO.N,/PS/OPT_C*%
X51500000Y-98900000D03*
%TO.N,Net-(Q1-S)*%
X53700000Y-88900000D03*
%TO.N,DCR_GND*%
X113800000Y-63600000D03*
X113900000Y-56600000D03*
X113800000Y-65600000D03*
X113800000Y-61500000D03*
X113800000Y-59400000D03*
%TO.N,OUT_GND*%
X110150000Y-107650000D03*
X111900000Y-113650000D03*
X107703000Y-115722000D03*
X93453000Y-116992000D03*
X93453000Y-114960000D03*
%TO.N,Net-(D4-K)*%
X72100000Y-79800000D03*
%TO.N,GND_DC_S*%
X61400000Y-88600000D03*
X61400000Y-89700000D03*
%TO.N,GND_DC_P*%
X112910000Y-83464000D03*
X112910000Y-85115000D03*
X110751000Y-84988000D03*
X110751000Y-81559000D03*
X112910000Y-81559000D03*
X110751000Y-83337000D03*
%TD*%
D33*
%TO.N,Net-(Q1-S)*%
X53100000Y-89500000D02*
X53700000Y-88900000D01*
X53100000Y-95350000D02*
X53100000Y-89500000D01*
X60190000Y-102440000D02*
X53100000Y-95350000D01*
X73455000Y-102440000D02*
X60190000Y-102440000D01*
%TO.N,/PS/OPT_C*%
X94400000Y-104985000D02*
X95500000Y-103885000D01*
X95500000Y-103885000D02*
X98105000Y-103885000D01*
X94400000Y-106300000D02*
X94400000Y-104985000D01*
X92700000Y-108000000D02*
X94400000Y-106300000D01*
X60600000Y-108000000D02*
X92700000Y-108000000D01*
X51500000Y-98900000D02*
X60600000Y-108000000D01*
D34*
%TO.N,GND_DC_P*%
X82400000Y-84150000D02*
X80246194Y-84150000D01*
X89150000Y-77400000D02*
X82400000Y-84150000D01*
X105700000Y-77400000D02*
X89150000Y-77400000D01*
X109859000Y-81559000D02*
X105700000Y-77400000D01*
X110751000Y-81559000D02*
X109859000Y-81559000D01*
X80246194Y-84150000D02*
X77448097Y-86948097D01*
D35*
%TO.N,Net-(C21-Pad2)*%
X90900000Y-87400000D02*
X90900000Y-86540000D01*
D34*
%TO.N,GND_DC_S*%
X85700000Y-74100000D02*
X106150000Y-74100000D01*
X61400000Y-88600000D02*
X71200000Y-88600000D01*
X71200000Y-88600000D02*
X85700000Y-74100000D01*
D36*
%TO.N,/PS/AC_R_I_2*%
X74400000Y-30984000D02*
X74400000Y-41900000D01*
X78900000Y-46400000D02*
X78900000Y-52650000D01*
X48692000Y-29108000D02*
X72524000Y-29108000D01*
X45900000Y-31900000D02*
X48692000Y-29108000D01*
X74400000Y-41900000D02*
X78900000Y-46400000D01*
X72524000Y-29108000D02*
X74400000Y-30984000D01*
D33*
%TO.N,Net-(D4-K)*%
X72100000Y-81566000D02*
X70766000Y-82900000D01*
X72100000Y-79800000D02*
X72100000Y-81566000D01*
D34*
%TO.N,GND_DC_S*%
X61400000Y-89700000D02*
X61400000Y-88600000D01*
%TD*%
%TA.AperFunction,Conductor*%
%TO.N,/PS/AC_R_I_1*%
G36*
X104028134Y-42401752D02*
G01*
X104031837Y-42402381D01*
X104052307Y-42405859D01*
X104400000Y-42425385D01*
X104747693Y-42405859D01*
X104768554Y-42402314D01*
X104771866Y-42401752D01*
X104792637Y-42400000D01*
X107087789Y-42400000D01*
X107111971Y-42402381D01*
X107190618Y-42418024D01*
X107235308Y-42436535D01*
X107291626Y-42474166D01*
X107325833Y-42508373D01*
X107363462Y-42564688D01*
X107381976Y-42609387D01*
X107397617Y-42688019D01*
X107400000Y-42712210D01*
X107400000Y-46587789D01*
X107397617Y-46611980D01*
X107381976Y-46690612D01*
X107363462Y-46735311D01*
X107325836Y-46791623D01*
X107291623Y-46825836D01*
X107235311Y-46863462D01*
X107190612Y-46881976D01*
X107111980Y-46897617D01*
X107087789Y-46900000D01*
X106161317Y-46900000D01*
X106094278Y-46880315D01*
X106089562Y-46877130D01*
X106052164Y-46850595D01*
X105747374Y-46682144D01*
X105680741Y-46654544D01*
X105425644Y-46548879D01*
X105258328Y-46500676D01*
X105091017Y-46452474D01*
X105091009Y-46452472D01*
X104747700Y-46394142D01*
X104747688Y-46394140D01*
X104400000Y-46374615D01*
X104052311Y-46394140D01*
X104052299Y-46394142D01*
X103708990Y-46452472D01*
X103708982Y-46452474D01*
X103374359Y-46548878D01*
X103374356Y-46548879D01*
X103280419Y-46587789D01*
X103052625Y-46682144D01*
X102747835Y-46850595D01*
X102710438Y-46877130D01*
X102644372Y-46899869D01*
X102638683Y-46900000D01*
X95212211Y-46900000D01*
X95188020Y-46897617D01*
X95109387Y-46881976D01*
X95064689Y-46863462D01*
X95008373Y-46825833D01*
X94974166Y-46791626D01*
X94936535Y-46735308D01*
X94918024Y-46690618D01*
X94902381Y-46611971D01*
X94900000Y-46587789D01*
X94900000Y-42712210D01*
X94902381Y-42688029D01*
X94918025Y-42609379D01*
X94936534Y-42564693D01*
X94974168Y-42508370D01*
X95008370Y-42474168D01*
X95064693Y-42436534D01*
X95109379Y-42418025D01*
X95188028Y-42402381D01*
X95212211Y-42400000D01*
X104007363Y-42400000D01*
X104028134Y-42401752D01*
G37*
%TD.AperFunction*%
%TD*%
%TA.AperFunction,Conductor*%
%TO.N,/PS/AC_R_I_2*%
G36*
X93743967Y-47669685D02*
G01*
X93771380Y-47693659D01*
X93909601Y-47856157D01*
X93909609Y-47856166D01*
X93909617Y-47856175D01*
X93909625Y-47856183D01*
X93943818Y-47890377D01*
X93981987Y-47927224D01*
X93981992Y-47927229D01*
X94129576Y-48044057D01*
X94171964Y-48077612D01*
X94228280Y-48115241D01*
X94272916Y-48143941D01*
X94488573Y-48254368D01*
X94533271Y-48272882D01*
X94582624Y-48292313D01*
X94815680Y-48358549D01*
X94815695Y-48358552D01*
X94815699Y-48358553D01*
X94894308Y-48374189D01*
X94894313Y-48374190D01*
X95040431Y-48395865D01*
X95064622Y-48398248D01*
X95212211Y-48405500D01*
X95212225Y-48405500D01*
X102638667Y-48405500D01*
X102638683Y-48405500D01*
X102673341Y-48405101D01*
X102679030Y-48404970D01*
X102899638Y-48383570D01*
X103134335Y-48323409D01*
X103200401Y-48300670D01*
X103373399Y-48228801D01*
X103409007Y-48207622D01*
X103462272Y-48175943D01*
X103465678Y-48173989D01*
X103476071Y-48168244D01*
X103476072Y-48168245D01*
X103700785Y-48044049D01*
X103713292Y-48038027D01*
X103865940Y-47974799D01*
X103879065Y-47970206D01*
X104037826Y-47924468D01*
X104051377Y-47921374D01*
X104214280Y-47893695D01*
X104228077Y-47892141D01*
X104393051Y-47882877D01*
X104406941Y-47882877D01*
X104571924Y-47892141D01*
X104585723Y-47893695D01*
X104728333Y-47917926D01*
X104748602Y-47921370D01*
X104762158Y-47924464D01*
X104831622Y-47944476D01*
X104920942Y-47970209D01*
X104934045Y-47974794D01*
X105086708Y-48038028D01*
X105099221Y-48044054D01*
X105269481Y-48138154D01*
X105271145Y-48139090D01*
X105443895Y-48238082D01*
X105670118Y-48324828D01*
X105737157Y-48344513D01*
X105919818Y-48386004D01*
X106161317Y-48405500D01*
X106161326Y-48405500D01*
X107087775Y-48405500D01*
X107087789Y-48405500D01*
X107235378Y-48398248D01*
X107259569Y-48395865D01*
X107259635Y-48395855D01*
X107260757Y-48395717D01*
X107260876Y-48395736D01*
X107261085Y-48395716D01*
X107261090Y-48395771D01*
X107329708Y-48407012D01*
X107381607Y-48453791D01*
X107400000Y-48518777D01*
X107400000Y-51087789D01*
X107397617Y-51111980D01*
X107381976Y-51190612D01*
X107363462Y-51235311D01*
X107325836Y-51291623D01*
X107291623Y-51325836D01*
X107235311Y-51363462D01*
X107190612Y-51381976D01*
X107111980Y-51397617D01*
X107087789Y-51400000D01*
X96199995Y-51400000D01*
X96085197Y-51422834D01*
X96085196Y-51422835D01*
X95987868Y-51487868D01*
X95922835Y-51585196D01*
X95922834Y-51585197D01*
X95900000Y-51699995D01*
X95900000Y-57337789D01*
X95897617Y-57361980D01*
X95881976Y-57440612D01*
X95863462Y-57485311D01*
X95825836Y-57541623D01*
X95791623Y-57575836D01*
X95735311Y-57613462D01*
X95690612Y-57631976D01*
X95611980Y-57647617D01*
X95587789Y-57650000D01*
X75712211Y-57650000D01*
X75688020Y-57647617D01*
X75609387Y-57631976D01*
X75564689Y-57613462D01*
X75508373Y-57575833D01*
X75474166Y-57541626D01*
X75436535Y-57485308D01*
X75418024Y-57440618D01*
X75402381Y-57361971D01*
X75400000Y-57337789D01*
X75400000Y-47962210D01*
X75402381Y-47938029D01*
X75418025Y-47859379D01*
X75436534Y-47814693D01*
X75474168Y-47758370D01*
X75508370Y-47724168D01*
X75564693Y-47686534D01*
X75609379Y-47668025D01*
X75688028Y-47652381D01*
X75712211Y-47650000D01*
X93676928Y-47650000D01*
X93743967Y-47669685D01*
G37*
%TD.AperFunction*%
%TD*%
%TA.AperFunction,Conductor*%
%TO.N,Net-(C11-Pad1)*%
G36*
X100111971Y-29902381D02*
G01*
X100190618Y-29918024D01*
X100235308Y-29936535D01*
X100291626Y-29974166D01*
X100325833Y-30008373D01*
X100363462Y-30064688D01*
X100381976Y-30109387D01*
X100397617Y-30188019D01*
X100400000Y-30212210D01*
X100400000Y-40587789D01*
X100397617Y-40611980D01*
X100381976Y-40690612D01*
X100363462Y-40735311D01*
X100325836Y-40791623D01*
X100291623Y-40825836D01*
X100235311Y-40863462D01*
X100190612Y-40881976D01*
X100111980Y-40897617D01*
X100087789Y-40900000D01*
X76712211Y-40900000D01*
X76688020Y-40897617D01*
X76609387Y-40881976D01*
X76564689Y-40863462D01*
X76508373Y-40825833D01*
X76474166Y-40791626D01*
X76436535Y-40735308D01*
X76418024Y-40690618D01*
X76402381Y-40611971D01*
X76400000Y-40587789D01*
X76400000Y-30212210D01*
X76402381Y-30188029D01*
X76418025Y-30109379D01*
X76436534Y-30064693D01*
X76474168Y-30008370D01*
X76508370Y-29974168D01*
X76564693Y-29936534D01*
X76609379Y-29918025D01*
X76688028Y-29902381D01*
X76712211Y-29900000D01*
X100087789Y-29900000D01*
X100111971Y-29902381D01*
G37*
%TD.AperFunction*%
%TD*%
%TA.AperFunction,Conductor*%
%TO.N,/PS/AC_N*%
G36*
X71611971Y-49902381D02*
G01*
X71690618Y-49918024D01*
X71735308Y-49936535D01*
X71791626Y-49974166D01*
X71825833Y-50008373D01*
X71863462Y-50064688D01*
X71881976Y-50109387D01*
X71897617Y-50188019D01*
X71900000Y-50212210D01*
X71900000Y-56013525D01*
X71897617Y-56037716D01*
X71881976Y-56116348D01*
X71863461Y-56161048D01*
X71818916Y-56227714D01*
X71803495Y-56246504D01*
X53746504Y-74303495D01*
X53727714Y-74318916D01*
X53661048Y-74363461D01*
X53616348Y-74381976D01*
X53537716Y-74397617D01*
X53513525Y-74400000D01*
X35212211Y-74400000D01*
X35188020Y-74397617D01*
X35109387Y-74381976D01*
X35064689Y-74363462D01*
X35008373Y-74325833D01*
X34974166Y-74291626D01*
X34936535Y-74235308D01*
X34918024Y-74190618D01*
X34902381Y-74111971D01*
X34900000Y-74087789D01*
X34900000Y-68212210D01*
X34902381Y-68188029D01*
X34918025Y-68109379D01*
X34936534Y-68064693D01*
X34974168Y-68008370D01*
X35008370Y-67974168D01*
X35064693Y-67936534D01*
X35109379Y-67918025D01*
X35188028Y-67902381D01*
X35212211Y-67900000D01*
X45350001Y-67900000D01*
X45350002Y-67899999D01*
X45388612Y-67892319D01*
X45464802Y-67877165D01*
X45464802Y-67877164D01*
X45464805Y-67877164D01*
X45562132Y-67812132D01*
X45627164Y-67714805D01*
X45650000Y-67600000D01*
X45650000Y-60462210D01*
X45652381Y-60438029D01*
X45668025Y-60359379D01*
X45686534Y-60314693D01*
X45724168Y-60258370D01*
X45758370Y-60224168D01*
X45814693Y-60186534D01*
X45859379Y-60168025D01*
X45938028Y-60152381D01*
X45962211Y-60150000D01*
X55600001Y-60150000D01*
X55600002Y-60149999D01*
X55638612Y-60142319D01*
X55714802Y-60127165D01*
X55714802Y-60127164D01*
X55714805Y-60127164D01*
X55812132Y-60062132D01*
X55877164Y-59964805D01*
X55900000Y-59850000D01*
X55900000Y-50212210D01*
X55902381Y-50188029D01*
X55918025Y-50109379D01*
X55936534Y-50064693D01*
X55974168Y-50008370D01*
X56008370Y-49974168D01*
X56064693Y-49936534D01*
X56109379Y-49918025D01*
X56188028Y-49902381D01*
X56212211Y-49900000D01*
X71587789Y-49900000D01*
X71611971Y-49902381D01*
G37*
%TD.AperFunction*%
%TD*%
%TA.AperFunction,Conductor*%
%TO.N,Net-(D8A-A)*%
G36*
X80744971Y-112803381D02*
G01*
X80823618Y-112819024D01*
X80868308Y-112837535D01*
X80924626Y-112875166D01*
X80958833Y-112909373D01*
X80996462Y-112965688D01*
X81014976Y-113010387D01*
X81030617Y-113089019D01*
X81033000Y-113113210D01*
X81033000Y-113928438D01*
X81013315Y-113995477D01*
X80996681Y-114016119D01*
X80764663Y-114248136D01*
X80730805Y-114285494D01*
X80730797Y-114285504D01*
X80718506Y-114300481D01*
X80718500Y-114300489D01*
X80688500Y-114340939D01*
X80639813Y-114413804D01*
X80639809Y-114413811D01*
X80592364Y-114502575D01*
X80592355Y-114502594D01*
X80577585Y-114538253D01*
X80577578Y-114538270D01*
X80548359Y-114634599D01*
X80548358Y-114634600D01*
X80531263Y-114720548D01*
X80523875Y-114770364D01*
X80523871Y-114770400D01*
X80521973Y-114789669D01*
X80521972Y-114789686D01*
X80521972Y-114789690D01*
X80519500Y-114840015D01*
X80519500Y-114840027D01*
X80519500Y-122577500D01*
X80499815Y-122644539D01*
X80447011Y-122690294D01*
X80395500Y-122701500D01*
X75859170Y-122701500D01*
X75792131Y-122681815D01*
X75746376Y-122629011D01*
X75736432Y-122559853D01*
X75740038Y-122544348D01*
X75739968Y-122544332D01*
X75796534Y-122308714D01*
X75796535Y-122308711D01*
X75815165Y-122072000D01*
X75796535Y-121835289D01*
X75741105Y-121604406D01*
X75741104Y-121604403D01*
X75741104Y-121604402D01*
X75650242Y-121385040D01*
X75650240Y-121385037D01*
X75590212Y-121287080D01*
X75572536Y-121234442D01*
X75572000Y-121229006D01*
X75572000Y-121229000D01*
X75566213Y-121199908D01*
X75549165Y-121114197D01*
X75549164Y-121114196D01*
X75549164Y-121114195D01*
X75484132Y-121016868D01*
X75386805Y-120951836D01*
X75386803Y-120951835D01*
X75386800Y-120951834D01*
X75322586Y-120939061D01*
X75266247Y-120911734D01*
X75191425Y-120847830D01*
X75191413Y-120847821D01*
X74988962Y-120723759D01*
X74988959Y-120723757D01*
X74769596Y-120632895D01*
X74538714Y-120577465D01*
X74302000Y-120558835D01*
X74065285Y-120577465D01*
X73834404Y-120632895D01*
X73834402Y-120632895D01*
X73615040Y-120723757D01*
X73615037Y-120723759D01*
X73412589Y-120847820D01*
X73412587Y-120847821D01*
X73352324Y-120899291D01*
X73288563Y-120927861D01*
X73271793Y-120929000D01*
X46705798Y-120929000D01*
X46622838Y-120945501D01*
X46622837Y-120945502D01*
X46552500Y-120992500D01*
X46505502Y-121062837D01*
X46505501Y-121062838D01*
X46489000Y-121145798D01*
X46489000Y-127347789D01*
X46486617Y-127371980D01*
X46470976Y-127450612D01*
X46452462Y-127495311D01*
X46414836Y-127551623D01*
X46380623Y-127585836D01*
X46324311Y-127623462D01*
X46279612Y-127641976D01*
X46200980Y-127657617D01*
X46176789Y-127660000D01*
X41213211Y-127660000D01*
X41189020Y-127657617D01*
X41110387Y-127641976D01*
X41065689Y-127623462D01*
X41009373Y-127585833D01*
X40975166Y-127551626D01*
X40937535Y-127495308D01*
X40919024Y-127450618D01*
X40903381Y-127371971D01*
X40901000Y-127347789D01*
X40901000Y-125007210D01*
X40901382Y-124997481D01*
X40910628Y-124880000D01*
X40901382Y-124762517D01*
X40901000Y-124752788D01*
X40901000Y-118212988D01*
X77205500Y-118212988D01*
X77241473Y-118440118D01*
X77312539Y-118658833D01*
X77389614Y-118810100D01*
X77416940Y-118863731D01*
X77552111Y-119049778D01*
X77714722Y-119212389D01*
X77900769Y-119347560D01*
X77997578Y-119396886D01*
X78105666Y-119451960D01*
X78105668Y-119451960D01*
X78105671Y-119451962D01*
X78222904Y-119490053D01*
X78324381Y-119523026D01*
X78551512Y-119559000D01*
X78551517Y-119559000D01*
X78876488Y-119559000D01*
X79103618Y-119523026D01*
X79322329Y-119451962D01*
X79527231Y-119347560D01*
X79713278Y-119212389D01*
X79875889Y-119049778D01*
X80011060Y-118863731D01*
X80115462Y-118658829D01*
X80186526Y-118440118D01*
X80206395Y-118314669D01*
X80222500Y-118212988D01*
X80222500Y-117983011D01*
X80186526Y-117755881D01*
X80115460Y-117537166D01*
X80060386Y-117429078D01*
X80011060Y-117332269D01*
X79875889Y-117146222D01*
X79713278Y-116983611D01*
X79527231Y-116848440D01*
X79322333Y-116744039D01*
X79103618Y-116672973D01*
X78876488Y-116637000D01*
X78876483Y-116637000D01*
X78551517Y-116637000D01*
X78551512Y-116637000D01*
X78324381Y-116672973D01*
X78105666Y-116744039D01*
X77900768Y-116848440D01*
X77714719Y-116983613D01*
X77552113Y-117146219D01*
X77416940Y-117332268D01*
X77312539Y-117537166D01*
X77241473Y-117755881D01*
X77205500Y-117983011D01*
X77205500Y-118212988D01*
X40901000Y-118212988D01*
X40901000Y-117382474D01*
X40903381Y-117358293D01*
X40919025Y-117279643D01*
X40937536Y-117234955D01*
X40982088Y-117168278D01*
X40997499Y-117149500D01*
X45249500Y-112897499D01*
X45268278Y-112882088D01*
X45334955Y-112837536D01*
X45379643Y-112819025D01*
X45458292Y-112803381D01*
X45482475Y-112801000D01*
X80720789Y-112801000D01*
X80744971Y-112803381D01*
G37*
%TD.AperFunction*%
%TD*%
%TA.AperFunction,Conductor*%
%TO.N,Net-(F1-Pad2)*%
G36*
X45111971Y-35902381D02*
G01*
X45190618Y-35918024D01*
X45235308Y-35936535D01*
X45291626Y-35974166D01*
X45325833Y-36008373D01*
X45363462Y-36064688D01*
X45381976Y-36109386D01*
X45392117Y-36160367D01*
X45394500Y-36184559D01*
X45394500Y-50775175D01*
X45392117Y-50799366D01*
X45381976Y-50850348D01*
X45363461Y-50895048D01*
X45318916Y-50961714D01*
X45303495Y-50980504D01*
X41980504Y-54303495D01*
X41961714Y-54318916D01*
X41895048Y-54363461D01*
X41850348Y-54381976D01*
X41771716Y-54397617D01*
X41747525Y-54400000D01*
X35212211Y-54400000D01*
X35188020Y-54397617D01*
X35109387Y-54381976D01*
X35064689Y-54363462D01*
X35008373Y-54325833D01*
X34974166Y-54291626D01*
X34936535Y-54235308D01*
X34918024Y-54190618D01*
X34902381Y-54111971D01*
X34900000Y-54087789D01*
X34900000Y-36212210D01*
X34902381Y-36188029D01*
X34918025Y-36109379D01*
X34936534Y-36064693D01*
X34974168Y-36008370D01*
X35008370Y-35974168D01*
X35064693Y-35936534D01*
X35109379Y-35918025D01*
X35188028Y-35902381D01*
X35212211Y-35900000D01*
X45087789Y-35900000D01*
X45111971Y-35902381D01*
G37*
%TD.AperFunction*%
%TD*%
%TA.AperFunction,Conductor*%
%TO.N,/PS/AC_L_SW*%
G36*
X72076228Y-30927685D02*
G01*
X72096870Y-30944319D01*
X72355681Y-31203130D01*
X72389166Y-31264453D01*
X72392000Y-31290811D01*
X72392000Y-39587789D01*
X72389617Y-39611980D01*
X72373976Y-39690612D01*
X72355462Y-39735311D01*
X72317836Y-39791623D01*
X72283623Y-39825836D01*
X72227311Y-39863462D01*
X72182612Y-39881976D01*
X72103980Y-39897617D01*
X72079789Y-39900000D01*
X53699995Y-39900000D01*
X53585197Y-39922834D01*
X53585196Y-39922835D01*
X53487868Y-39987868D01*
X53422835Y-40085196D01*
X53422834Y-40085197D01*
X53400000Y-40199995D01*
X53400000Y-58087789D01*
X53397617Y-58111980D01*
X53381976Y-58190612D01*
X53363462Y-58235311D01*
X53325836Y-58291623D01*
X53291623Y-58325836D01*
X53235311Y-58363462D01*
X53190612Y-58381976D01*
X53111980Y-58397617D01*
X53087789Y-58400000D01*
X47212211Y-58400000D01*
X47188020Y-58397617D01*
X47109387Y-58381976D01*
X47064689Y-58363462D01*
X47008373Y-58325833D01*
X46974166Y-58291626D01*
X46936535Y-58235308D01*
X46918024Y-58190618D01*
X46902381Y-58111971D01*
X46900000Y-58087789D01*
X46900000Y-35059602D01*
X46901478Y-35040514D01*
X46911244Y-34977827D01*
X46922856Y-34941463D01*
X46946885Y-34893405D01*
X46969008Y-34862299D01*
X47013300Y-34816872D01*
X47027677Y-34804242D01*
X52134672Y-30973995D01*
X52151518Y-30963362D01*
X52153450Y-30962349D01*
X52209975Y-30932733D01*
X52247659Y-30920171D01*
X52289184Y-30913433D01*
X52312802Y-30909601D01*
X52332663Y-30908000D01*
X72009189Y-30908000D01*
X72076228Y-30927685D01*
G37*
%TD.AperFunction*%
%TD*%
%TA.AperFunction,Conductor*%
%TO.N,DCR_GND*%
G36*
X107037707Y-35402381D02*
G01*
X107116354Y-35418024D01*
X107161046Y-35436537D01*
X107227714Y-35481083D01*
X107246504Y-35496504D01*
X116303495Y-44553495D01*
X116318916Y-44572285D01*
X116363461Y-44638951D01*
X116381976Y-44683651D01*
X116397617Y-44762283D01*
X116400000Y-44786474D01*
X116400000Y-74513525D01*
X116397617Y-74537716D01*
X116381976Y-74616348D01*
X116363461Y-74661048D01*
X116318916Y-74727714D01*
X116303495Y-74746504D01*
X115196504Y-75853495D01*
X115177714Y-75868916D01*
X115111048Y-75913461D01*
X115066348Y-75931976D01*
X114987716Y-75947617D01*
X114963525Y-75950000D01*
X107962211Y-75950000D01*
X107938020Y-75947617D01*
X107859387Y-75931976D01*
X107814689Y-75913462D01*
X107758373Y-75875833D01*
X107724166Y-75841626D01*
X107686535Y-75785308D01*
X107668024Y-75740618D01*
X107652381Y-75661971D01*
X107650000Y-75637789D01*
X107650000Y-74282146D01*
X107651527Y-74262746D01*
X107658500Y-74218724D01*
X107658500Y-73981274D01*
X107651527Y-73937252D01*
X107650000Y-73917853D01*
X107650000Y-71712210D01*
X107652381Y-71688029D01*
X107668025Y-71609379D01*
X107686534Y-71564693D01*
X107724168Y-71508370D01*
X107758370Y-71474168D01*
X107814693Y-71436534D01*
X107859379Y-71418025D01*
X107938028Y-71402381D01*
X107962211Y-71400000D01*
X111850001Y-71400000D01*
X111850002Y-71399999D01*
X111888612Y-71392319D01*
X111964802Y-71377165D01*
X111964802Y-71377164D01*
X111964805Y-71377164D01*
X112062132Y-71312132D01*
X112127164Y-71214805D01*
X112150000Y-71100000D01*
X112150000Y-69098723D01*
X112168606Y-69033393D01*
X112202437Y-68978814D01*
X112284956Y-68769402D01*
X112304641Y-68702363D01*
X112335324Y-68572816D01*
X112355500Y-68348638D01*
X112355500Y-64024000D01*
X112354745Y-63980457D01*
X112326806Y-63757114D01*
X112315600Y-63705603D01*
X112266027Y-63536136D01*
X112169194Y-63332946D01*
X112169191Y-63332942D01*
X112169188Y-63332935D01*
X112167292Y-63329732D01*
X112150000Y-63266571D01*
X112150000Y-62899999D01*
X112150000Y-62600000D01*
X113800000Y-62600000D01*
X113800000Y-62100000D01*
X113800000Y-59400000D01*
X112150000Y-59400000D01*
X112150000Y-45024264D01*
X112149794Y-45023230D01*
X112127165Y-44909461D01*
X112127163Y-44909457D01*
X112062135Y-44812136D01*
X112062129Y-44812128D01*
X108737871Y-41487870D01*
X108737863Y-41487864D01*
X108640542Y-41422836D01*
X108640538Y-41422834D01*
X108525740Y-41400000D01*
X108525736Y-41400000D01*
X108395544Y-41400000D01*
X108328505Y-41380315D01*
X108318580Y-41373224D01*
X108128049Y-41222397D01*
X108128045Y-41222394D01*
X108071727Y-41184763D01*
X108053468Y-41173023D01*
X108027091Y-41156062D01*
X107811447Y-41045639D01*
X107811440Y-41045636D01*
X107811432Y-41045632D01*
X107766742Y-41027121D01*
X107766741Y-41027120D01*
X107766713Y-41027109D01*
X107717371Y-41007683D01*
X107717360Y-41007680D01*
X107484312Y-40941449D01*
X107405682Y-40925808D01*
X107405668Y-40925806D01*
X107259508Y-40904127D01*
X107259489Y-40904125D01*
X107235317Y-40901745D01*
X107180960Y-40899075D01*
X107087789Y-40894500D01*
X104792637Y-40894500D01*
X104792630Y-40894500D01*
X104666106Y-40899825D01*
X104645319Y-40901579D01*
X104619158Y-40904898D01*
X104610508Y-40905689D01*
X104406952Y-40917121D01*
X104393046Y-40917121D01*
X104189490Y-40905689D01*
X104180839Y-40904898D01*
X104154676Y-40901579D01*
X104133893Y-40899825D01*
X104007370Y-40894500D01*
X104007363Y-40894500D01*
X102274000Y-40894500D01*
X102206961Y-40874815D01*
X102161206Y-40822011D01*
X102150000Y-40770500D01*
X102150000Y-35786474D01*
X102152381Y-35762293D01*
X102168025Y-35683643D01*
X102186536Y-35638955D01*
X102231088Y-35572278D01*
X102246499Y-35553500D01*
X102303500Y-35496499D01*
X102322278Y-35481088D01*
X102388955Y-35436536D01*
X102433643Y-35418025D01*
X102512292Y-35402381D01*
X102536475Y-35400000D01*
X107013525Y-35400000D01*
X107037707Y-35402381D01*
G37*
%TD.AperFunction*%
%TD*%
%TA.AperFunction,Conductor*%
%TO.N,/PS/AC_L*%
G36*
X44111971Y-57402381D02*
G01*
X44190618Y-57418024D01*
X44235308Y-57436535D01*
X44291626Y-57474166D01*
X44325833Y-57508373D01*
X44363462Y-57564688D01*
X44381976Y-57609387D01*
X44397617Y-57688019D01*
X44400000Y-57712210D01*
X44400000Y-59504843D01*
X44386372Y-59561359D01*
X44295622Y-59738586D01*
X44277130Y-59783232D01*
X44257688Y-59832614D01*
X44191452Y-60065676D01*
X44191451Y-60065680D01*
X44175803Y-60144348D01*
X44154127Y-60290494D01*
X44151746Y-60314675D01*
X44151746Y-60314683D01*
X44144500Y-60462210D01*
X44144500Y-60462223D01*
X44144500Y-65776000D01*
X44124815Y-65843039D01*
X44072011Y-65888794D01*
X44020500Y-65900000D01*
X35212211Y-65900000D01*
X35188020Y-65897617D01*
X35109387Y-65881976D01*
X35064689Y-65863462D01*
X35008373Y-65825833D01*
X34974166Y-65791626D01*
X34936535Y-65735308D01*
X34918024Y-65690618D01*
X34902381Y-65611971D01*
X34900000Y-65587789D01*
X34900000Y-57712210D01*
X34902381Y-57688029D01*
X34918025Y-57609379D01*
X34936534Y-57564693D01*
X34974168Y-57508370D01*
X35008370Y-57474168D01*
X35064693Y-57436534D01*
X35109379Y-57418025D01*
X35188028Y-57402381D01*
X35212211Y-57400000D01*
X44087789Y-57400000D01*
X44111971Y-57402381D01*
G37*
%TD.AperFunction*%
%TD*%
%TA.AperFunction,Conductor*%
%TO.N,DCR_GND*%
G36*
X113800000Y-62100000D02*
G01*
X113800000Y-62600000D01*
X76300000Y-62600000D01*
X76299999Y-62600000D01*
X51400000Y-87499999D01*
X51400000Y-95448638D01*
X51380315Y-95515677D01*
X51363681Y-95536319D01*
X48936319Y-97963681D01*
X48874996Y-97997166D01*
X48848638Y-98000000D01*
X35724000Y-98000000D01*
X35656961Y-97980315D01*
X35611206Y-97927511D01*
X35600000Y-97876000D01*
X35600000Y-94400000D01*
X37583372Y-94400000D01*
X37603854Y-94660249D01*
X37664796Y-94914089D01*
X37664797Y-94914091D01*
X37764696Y-95155271D01*
X37901095Y-95377853D01*
X37901098Y-95377858D01*
X37961550Y-95448638D01*
X38070637Y-95576363D01*
X38150457Y-95644535D01*
X38269141Y-95745901D01*
X38269146Y-95745904D01*
X38491728Y-95882303D01*
X38509671Y-95889735D01*
X38732911Y-95982204D01*
X38986751Y-96043146D01*
X39247000Y-96063628D01*
X39507249Y-96043146D01*
X39761089Y-95982204D01*
X40002271Y-95882303D01*
X40224856Y-95745903D01*
X40423363Y-95576363D01*
X40592903Y-95377856D01*
X40729303Y-95155271D01*
X40829204Y-94914089D01*
X40890146Y-94660249D01*
X40910628Y-94400000D01*
X42663372Y-94400000D01*
X42683854Y-94660249D01*
X42744796Y-94914089D01*
X42744797Y-94914091D01*
X42844696Y-95155271D01*
X42981095Y-95377853D01*
X42981098Y-95377858D01*
X43041550Y-95448638D01*
X43150637Y-95576363D01*
X43230457Y-95644535D01*
X43349141Y-95745901D01*
X43349146Y-95745904D01*
X43571728Y-95882303D01*
X43589671Y-95889735D01*
X43812911Y-95982204D01*
X44066751Y-96043146D01*
X44327000Y-96063628D01*
X44587249Y-96043146D01*
X44841089Y-95982204D01*
X45082271Y-95882303D01*
X45304856Y-95745903D01*
X45503363Y-95576363D01*
X45672903Y-95377856D01*
X45809303Y-95155271D01*
X45909204Y-94914089D01*
X45970146Y-94660249D01*
X45990628Y-94400000D01*
X45970146Y-94139751D01*
X45909204Y-93885911D01*
X45835609Y-93708237D01*
X45809303Y-93644728D01*
X45672904Y-93422146D01*
X45672901Y-93422141D01*
X45557414Y-93286923D01*
X45503363Y-93223637D01*
X45394839Y-93130949D01*
X45304858Y-93054098D01*
X45304853Y-93054095D01*
X45082271Y-92917696D01*
X44841091Y-92817797D01*
X44841089Y-92817796D01*
X44667445Y-92776107D01*
X44587250Y-92756854D01*
X44327000Y-92736372D01*
X44066749Y-92756854D01*
X43906357Y-92795361D01*
X43812911Y-92817796D01*
X43812909Y-92817796D01*
X43812908Y-92817797D01*
X43571728Y-92917696D01*
X43349146Y-93054095D01*
X43349141Y-93054098D01*
X43150637Y-93223637D01*
X42981098Y-93422141D01*
X42981095Y-93422146D01*
X42844696Y-93644728D01*
X42779619Y-93801840D01*
X42744796Y-93885911D01*
X42683854Y-94139751D01*
X42663372Y-94400000D01*
X40910628Y-94400000D01*
X40890146Y-94139751D01*
X40829204Y-93885911D01*
X40755609Y-93708237D01*
X40729303Y-93644728D01*
X40592904Y-93422146D01*
X40592901Y-93422141D01*
X40477414Y-93286923D01*
X40423363Y-93223637D01*
X40314839Y-93130949D01*
X40224858Y-93054098D01*
X40224853Y-93054095D01*
X40002271Y-92917696D01*
X39761091Y-92817797D01*
X39761089Y-92817796D01*
X39587445Y-92776107D01*
X39507250Y-92756854D01*
X39247000Y-92736372D01*
X38986749Y-92756854D01*
X38826357Y-92795361D01*
X38732911Y-92817796D01*
X38732909Y-92817796D01*
X38732908Y-92817797D01*
X38491728Y-92917696D01*
X38269146Y-93054095D01*
X38269141Y-93054098D01*
X38070637Y-93223637D01*
X37901098Y-93422141D01*
X37901095Y-93422146D01*
X37764696Y-93644728D01*
X37699619Y-93801840D01*
X37664796Y-93885911D01*
X37603854Y-94139751D01*
X37583372Y-94400000D01*
X35600000Y-94400000D01*
X35600000Y-84251362D01*
X35619685Y-84184323D01*
X35636319Y-84163681D01*
X40463681Y-79336319D01*
X40525004Y-79302834D01*
X40551362Y-79300000D01*
X53200000Y-79300000D01*
X73063681Y-59436319D01*
X73125004Y-59402834D01*
X73151362Y-59400000D01*
X112150000Y-59400000D01*
X113800000Y-59400000D01*
X113800000Y-62100000D01*
G37*
%TD.AperFunction*%
%TD*%
%TA.AperFunction,Conductor*%
%TO.N,/PS/AC_R_O*%
G36*
X111043039Y-63919685D02*
G01*
X111088794Y-63972489D01*
X111100000Y-64024000D01*
X111100000Y-68348638D01*
X111080315Y-68415677D01*
X111063681Y-68436319D01*
X110236319Y-69263681D01*
X110174996Y-69297166D01*
X110148638Y-69300000D01*
X106399999Y-69300000D01*
X104536319Y-71163681D01*
X104474996Y-71197166D01*
X104448638Y-71200000D01*
X83058672Y-71200000D01*
X73939343Y-80258934D01*
X73877909Y-80292215D01*
X73808235Y-80286999D01*
X73752441Y-80244942D01*
X73728241Y-80179397D01*
X73728893Y-80155733D01*
X73736196Y-80096774D01*
X73750734Y-79910012D01*
X73753527Y-79862528D01*
X73753562Y-79861649D01*
X73753704Y-79828469D01*
X73754086Y-79819274D01*
X73755604Y-79800000D01*
X73754321Y-79783717D01*
X73753941Y-79773463D01*
X73753946Y-79772566D01*
X73752838Y-79763456D01*
X73752321Y-79758296D01*
X73735221Y-79541006D01*
X73674573Y-79288390D01*
X73575154Y-79048372D01*
X73439412Y-78826860D01*
X73270689Y-78629311D01*
X73073140Y-78460588D01*
X72851628Y-78324846D01*
X72851627Y-78324845D01*
X72851623Y-78324843D01*
X72685627Y-78256086D01*
X72611610Y-78225427D01*
X72611611Y-78225427D01*
X72473921Y-78192370D01*
X72358994Y-78164779D01*
X72358992Y-78164778D01*
X72358991Y-78164778D01*
X72100000Y-78144396D01*
X71841009Y-78164778D01*
X71588389Y-78225427D01*
X71348376Y-78324843D01*
X71126859Y-78460588D01*
X70929311Y-78629311D01*
X70760588Y-78826859D01*
X70624843Y-79048376D01*
X70525427Y-79288389D01*
X70525427Y-79288390D01*
X70464779Y-79541006D01*
X70464779Y-79541009D01*
X70455004Y-79665202D01*
X70453119Y-79679075D01*
X70451981Y-79684941D01*
X70451764Y-79702873D01*
X70451391Y-79711095D01*
X70444396Y-79799999D01*
X70449327Y-79862667D01*
X70449700Y-79873889D01*
X70449264Y-79910004D01*
X70449264Y-79910008D01*
X70463801Y-80096759D01*
X70463804Y-80096790D01*
X70477810Y-80209970D01*
X70478170Y-80212085D01*
X70502598Y-80324308D01*
X70539382Y-80462536D01*
X70556467Y-80520993D01*
X70556804Y-80522049D01*
X70575995Y-80577709D01*
X70586375Y-80605668D01*
X70593753Y-80639198D01*
X70597448Y-80686661D01*
X70597723Y-80688916D01*
X70597655Y-80689321D01*
X70597657Y-80689337D01*
X70597653Y-80689337D01*
X70586280Y-80757843D01*
X70539390Y-80809641D01*
X70503609Y-80824460D01*
X70496636Y-80826135D01*
X70437005Y-80842021D01*
X70435950Y-80842330D01*
X70378836Y-80860551D01*
X70099810Y-80956963D01*
X70092774Y-80959162D01*
X70077736Y-80963375D01*
X70077726Y-80963379D01*
X70068131Y-80967546D01*
X70061001Y-80970383D01*
X70025992Y-80983072D01*
X70025428Y-80983286D01*
X69952980Y-81013405D01*
X69927069Y-81028070D01*
X69915399Y-81033887D01*
X69820432Y-81075138D01*
X69820430Y-81075138D01*
X69820428Y-81075140D01*
X69580757Y-81220886D01*
X69363154Y-81397919D01*
X69171692Y-81602925D01*
X69171692Y-81602926D01*
X69009919Y-81832103D01*
X68880863Y-82081171D01*
X68786926Y-82345483D01*
X68786921Y-82345500D01*
X68729852Y-82620135D01*
X68729851Y-82620137D01*
X68710709Y-82900000D01*
X68729851Y-83179862D01*
X68729852Y-83179864D01*
X68786921Y-83454499D01*
X68786926Y-83454516D01*
X68872817Y-83696189D01*
X68880864Y-83718830D01*
X69009919Y-83967896D01*
X69171688Y-84197069D01*
X69171692Y-84197073D01*
X69171692Y-84197074D01*
X69363154Y-84402080D01*
X69479098Y-84496408D01*
X69518678Y-84553985D01*
X69520847Y-84623821D01*
X69488232Y-84680568D01*
X67994940Y-86163972D01*
X67933506Y-86197253D01*
X67907551Y-86200000D01*
X61000000Y-86200000D01*
X60890655Y-86309344D01*
X60781310Y-86418689D01*
X60725725Y-86450781D01*
X60675051Y-86464359D01*
X60402499Y-86577254D01*
X60402489Y-86577258D01*
X60147006Y-86724761D01*
X59912959Y-86904352D01*
X59912952Y-86904358D01*
X59704358Y-87112952D01*
X59704352Y-87112959D01*
X59524761Y-87347006D01*
X59377258Y-87602489D01*
X59377254Y-87602499D01*
X59264364Y-87875038D01*
X59264361Y-87875048D01*
X59191124Y-88148376D01*
X59188008Y-88160004D01*
X59188006Y-88160015D01*
X59149500Y-88452486D01*
X59149500Y-89847513D01*
X59178882Y-90070686D01*
X59188007Y-90139993D01*
X59264361Y-90424951D01*
X59264364Y-90424961D01*
X59377254Y-90697500D01*
X59377258Y-90697510D01*
X59524761Y-90952993D01*
X59704351Y-91187039D01*
X59704353Y-91187041D01*
X59704354Y-91187042D01*
X59863682Y-91346370D01*
X59897166Y-91407692D01*
X59900000Y-91434050D01*
X59900000Y-93161538D01*
X59880697Y-93227980D01*
X59872271Y-93241256D01*
X59872265Y-93241267D01*
X59743661Y-93514563D01*
X59743659Y-93514568D01*
X59650320Y-93801835D01*
X59593719Y-94098546D01*
X59593718Y-94098553D01*
X59574754Y-94399994D01*
X59574754Y-94400005D01*
X59593718Y-94701446D01*
X59593719Y-94701453D01*
X59650320Y-94998164D01*
X59713043Y-95191206D01*
X59715038Y-95261047D01*
X59682793Y-95317205D01*
X58936319Y-96063681D01*
X58874996Y-96097166D01*
X58848638Y-96100000D01*
X56023389Y-96100000D01*
X55956350Y-96080315D01*
X55935708Y-96063681D01*
X54636819Y-94764792D01*
X54603334Y-94703469D01*
X54600500Y-94677111D01*
X54600500Y-90363714D01*
X54620185Y-90296675D01*
X54646057Y-90267679D01*
X54647073Y-90266848D01*
X54647104Y-90266824D01*
X54789449Y-90145041D01*
X54824601Y-90113808D01*
X54825247Y-90113212D01*
X54849115Y-90089559D01*
X54855853Y-90083358D01*
X54870689Y-90070689D01*
X54881265Y-90058305D01*
X54888283Y-90050746D01*
X54888878Y-90050158D01*
X54894523Y-90042949D01*
X54897799Y-90038945D01*
X55039412Y-89873140D01*
X55175154Y-89651628D01*
X55274573Y-89411610D01*
X55335221Y-89158994D01*
X55355604Y-88900000D01*
X55335221Y-88641006D01*
X55274573Y-88388390D01*
X55179977Y-88160015D01*
X55175156Y-88148376D01*
X55073946Y-87983216D01*
X55039412Y-87926860D01*
X54870689Y-87729311D01*
X54740079Y-87617759D01*
X54673137Y-87560585D01*
X54673134Y-87560584D01*
X54559210Y-87490771D01*
X54512335Y-87438959D01*
X54500000Y-87385044D01*
X54500000Y-86226906D01*
X54519685Y-86159867D01*
X54536319Y-86139225D01*
X65115974Y-75559571D01*
X76739226Y-63936319D01*
X76800549Y-63902834D01*
X76826907Y-63900000D01*
X110976000Y-63900000D01*
X111043039Y-63919685D01*
G37*
%TD.AperFunction*%
%TD*%
%TA.AperFunction,Conductor*%
%TO.N,OUT_GND*%
G36*
X115843298Y-100483902D02*
G01*
X115929228Y-100500994D01*
X115964913Y-100515775D01*
X116037759Y-100564450D01*
X116052760Y-100576760D01*
X116117239Y-100641239D01*
X116129551Y-100656242D01*
X116178223Y-100729085D01*
X116193005Y-100764771D01*
X116210098Y-100850700D01*
X116212000Y-100870015D01*
X116212000Y-121302984D01*
X116210098Y-121322299D01*
X116193005Y-121408228D01*
X116178223Y-121443914D01*
X116129551Y-121516757D01*
X116117239Y-121531760D01*
X104615871Y-133033128D01*
X104615868Y-133033132D01*
X104550835Y-133130458D01*
X104528000Y-133245261D01*
X104528000Y-139209984D01*
X104526098Y-139229299D01*
X104509005Y-139315228D01*
X104494223Y-139350914D01*
X104445551Y-139423757D01*
X104433239Y-139438760D01*
X103225760Y-140646239D01*
X103210757Y-140658551D01*
X103137914Y-140707223D01*
X103102228Y-140722005D01*
X103037537Y-140734873D01*
X103016297Y-140739098D01*
X102996984Y-140741000D01*
X47687752Y-140741000D01*
X47668438Y-140739098D01*
X47582508Y-140722005D01*
X47546821Y-140707223D01*
X47534246Y-140698821D01*
X47482238Y-140664070D01*
X47454929Y-140636761D01*
X47411775Y-140572177D01*
X47396994Y-140536491D01*
X47379902Y-140450562D01*
X47378000Y-140431248D01*
X47378000Y-137900000D01*
X88116753Y-137900000D01*
X88135717Y-138165169D01*
X88192225Y-138424929D01*
X88192229Y-138424940D01*
X88285131Y-138674022D01*
X88285132Y-138674024D01*
X88376140Y-138840691D01*
X88412537Y-138907347D01*
X88571852Y-139120167D01*
X88759833Y-139308148D01*
X88972653Y-139467463D01*
X89205979Y-139594869D01*
X89455063Y-139687772D01*
X89455066Y-139687772D01*
X89455070Y-139687774D01*
X89714831Y-139744282D01*
X89714830Y-139744282D01*
X89748013Y-139746655D01*
X89980000Y-139763247D01*
X90227469Y-139745547D01*
X90245169Y-139744282D01*
X90504929Y-139687774D01*
X90504930Y-139687773D01*
X90504937Y-139687772D01*
X90754021Y-139594869D01*
X90987347Y-139467463D01*
X91200167Y-139308148D01*
X91388148Y-139120167D01*
X91547463Y-138907347D01*
X91674869Y-138674021D01*
X91767772Y-138424937D01*
X91824282Y-138165168D01*
X91843247Y-137900000D01*
X92076753Y-137900000D01*
X92095717Y-138165169D01*
X92152225Y-138424929D01*
X92152229Y-138424940D01*
X92245131Y-138674022D01*
X92245132Y-138674024D01*
X92336140Y-138840691D01*
X92372537Y-138907347D01*
X92531852Y-139120167D01*
X92719833Y-139308148D01*
X92932653Y-139467463D01*
X93165979Y-139594869D01*
X93415063Y-139687772D01*
X93415066Y-139687772D01*
X93415070Y-139687774D01*
X93674831Y-139744282D01*
X93674830Y-139744282D01*
X93708013Y-139746655D01*
X93940000Y-139763247D01*
X94187469Y-139745547D01*
X94205169Y-139744282D01*
X94464929Y-139687774D01*
X94464930Y-139687773D01*
X94464937Y-139687772D01*
X94714021Y-139594869D01*
X94947347Y-139467463D01*
X95160167Y-139308148D01*
X95348148Y-139120167D01*
X95507463Y-138907347D01*
X95634869Y-138674021D01*
X95727772Y-138424937D01*
X95784282Y-138165168D01*
X95803247Y-137900000D01*
X95784282Y-137634832D01*
X95764036Y-137541763D01*
X95727774Y-137375070D01*
X95727772Y-137375066D01*
X95727772Y-137375063D01*
X95634869Y-137125979D01*
X95507463Y-136892653D01*
X95348148Y-136679833D01*
X95160167Y-136491852D01*
X94947347Y-136332537D01*
X94947342Y-136332534D01*
X94714024Y-136205132D01*
X94714022Y-136205131D01*
X94464940Y-136112229D01*
X94464929Y-136112225D01*
X94205168Y-136055717D01*
X94205169Y-136055717D01*
X93940000Y-136036753D01*
X93674830Y-136055717D01*
X93415070Y-136112225D01*
X93415059Y-136112229D01*
X93165977Y-136205131D01*
X93165975Y-136205132D01*
X92932657Y-136332534D01*
X92719837Y-136491848D01*
X92531848Y-136679837D01*
X92372534Y-136892657D01*
X92245132Y-137125975D01*
X92245131Y-137125977D01*
X92152229Y-137375059D01*
X92152225Y-137375070D01*
X92095717Y-137634830D01*
X92076753Y-137900000D01*
X91843247Y-137900000D01*
X91824282Y-137634832D01*
X91804036Y-137541763D01*
X91767774Y-137375070D01*
X91767772Y-137375066D01*
X91767772Y-137375063D01*
X91674869Y-137125979D01*
X91547463Y-136892653D01*
X91388148Y-136679833D01*
X91200167Y-136491852D01*
X90987347Y-136332537D01*
X90987342Y-136332534D01*
X90754024Y-136205132D01*
X90754022Y-136205131D01*
X90504940Y-136112229D01*
X90504929Y-136112225D01*
X90245168Y-136055717D01*
X90245169Y-136055717D01*
X89980000Y-136036753D01*
X89714830Y-136055717D01*
X89455070Y-136112225D01*
X89455059Y-136112229D01*
X89205977Y-136205131D01*
X89205975Y-136205132D01*
X88972657Y-136332534D01*
X88759837Y-136491848D01*
X88571848Y-136679837D01*
X88412534Y-136892657D01*
X88285132Y-137125975D01*
X88285131Y-137125977D01*
X88192229Y-137375059D01*
X88192225Y-137375070D01*
X88135717Y-137634830D01*
X88116753Y-137900000D01*
X47378000Y-137900000D01*
X47378000Y-137036634D01*
X80059959Y-137036634D01*
X80066469Y-137097199D01*
X80066470Y-137097201D01*
X80117570Y-137234204D01*
X80205198Y-137351261D01*
X80322255Y-137438889D01*
X80459258Y-137489989D01*
X80519821Y-137496500D01*
X80519824Y-137496500D01*
X83017094Y-137496500D01*
X83017097Y-137496500D01*
X83077660Y-137489989D01*
X83214663Y-137438889D01*
X83331720Y-137351261D01*
X83419348Y-137234204D01*
X83470448Y-137097201D01*
X83476959Y-137036638D01*
X83476959Y-134539362D01*
X83470448Y-134478799D01*
X83419348Y-134341796D01*
X83331720Y-134224739D01*
X83214663Y-134137111D01*
X83077660Y-134086011D01*
X83077659Y-134086010D01*
X83036786Y-134081616D01*
X83017097Y-134079500D01*
X80519821Y-134079500D01*
X80503747Y-134081228D01*
X80459259Y-134086010D01*
X80383575Y-134114239D01*
X80322255Y-134137111D01*
X80322253Y-134137112D01*
X80322251Y-134137113D01*
X80205202Y-134224735D01*
X80205194Y-134224743D01*
X80117572Y-134341792D01*
X80117571Y-134341794D01*
X80117570Y-134341796D01*
X80112355Y-134355778D01*
X80066469Y-134478800D01*
X80059959Y-134539365D01*
X80059959Y-137036634D01*
X47378000Y-137036634D01*
X47378000Y-134523175D01*
X50749500Y-134523175D01*
X50756010Y-134583740D01*
X50767446Y-134614402D01*
X50807111Y-134720745D01*
X50894739Y-134837802D01*
X51011796Y-134925430D01*
X51148799Y-134976530D01*
X51209362Y-134983041D01*
X51209365Y-134983041D01*
X53706635Y-134983041D01*
X53706638Y-134983041D01*
X53767201Y-134976530D01*
X53904204Y-134925430D01*
X54021261Y-134837802D01*
X54108889Y-134720745D01*
X54159989Y-134583742D01*
X54166500Y-134523179D01*
X54166500Y-134523175D01*
X64211500Y-134523175D01*
X64218010Y-134583740D01*
X64229446Y-134614402D01*
X64269111Y-134720745D01*
X64356739Y-134837802D01*
X64473796Y-134925430D01*
X64610799Y-134976530D01*
X64671362Y-134983041D01*
X64671365Y-134983041D01*
X67168635Y-134983041D01*
X67168638Y-134983041D01*
X67229201Y-134976530D01*
X67366204Y-134925430D01*
X67483261Y-134837802D01*
X67570889Y-134720745D01*
X67621989Y-134583742D01*
X67628500Y-134523179D01*
X67628500Y-132025903D01*
X67621989Y-131965340D01*
X67570889Y-131828337D01*
X67483261Y-131711280D01*
X67366204Y-131623652D01*
X67229201Y-131572552D01*
X67229200Y-131572551D01*
X67188327Y-131568157D01*
X67168638Y-131566041D01*
X64671362Y-131566041D01*
X64655288Y-131567769D01*
X64610800Y-131572551D01*
X64535116Y-131600780D01*
X64473796Y-131623652D01*
X64473794Y-131623653D01*
X64473792Y-131623654D01*
X64356743Y-131711276D01*
X64356735Y-131711284D01*
X64269113Y-131828333D01*
X64269112Y-131828335D01*
X64269111Y-131828337D01*
X64246239Y-131889657D01*
X64218010Y-131965341D01*
X64211500Y-132025906D01*
X64211500Y-134523175D01*
X54166500Y-134523175D01*
X54166500Y-132025903D01*
X54159989Y-131965340D01*
X54108889Y-131828337D01*
X54021261Y-131711280D01*
X53904204Y-131623652D01*
X53767201Y-131572552D01*
X53767200Y-131572551D01*
X53726327Y-131568157D01*
X53706638Y-131566041D01*
X51209362Y-131566041D01*
X51193288Y-131567769D01*
X51148800Y-131572551D01*
X51073116Y-131600780D01*
X51011796Y-131623652D01*
X51011794Y-131623653D01*
X51011792Y-131623654D01*
X50894743Y-131711276D01*
X50894735Y-131711284D01*
X50807113Y-131828333D01*
X50807112Y-131828335D01*
X50807111Y-131828337D01*
X50784239Y-131889657D01*
X50756010Y-131965341D01*
X50749500Y-132025906D01*
X50749500Y-134523175D01*
X47378000Y-134523175D01*
X47378000Y-130080015D01*
X47379902Y-130060701D01*
X47396994Y-129974772D01*
X47411774Y-129939088D01*
X47460453Y-129866235D01*
X47472755Y-129851244D01*
X52444000Y-124880000D01*
X55236372Y-124880000D01*
X55256853Y-125140247D01*
X55317796Y-125394090D01*
X55417695Y-125635268D01*
X55417701Y-125635280D01*
X55554094Y-125857853D01*
X55554098Y-125857858D01*
X55723628Y-126056353D01*
X55723637Y-126056363D01*
X55723643Y-126056368D01*
X55723646Y-126056371D01*
X55922141Y-126225901D01*
X55922146Y-126225905D01*
X56144719Y-126362298D01*
X56144731Y-126362304D01*
X56385909Y-126462203D01*
X56385911Y-126462204D01*
X56639751Y-126523146D01*
X56900000Y-126543628D01*
X57160249Y-126523146D01*
X57414089Y-126462204D01*
X57655271Y-126362303D01*
X57655275Y-126362300D01*
X57655280Y-126362298D01*
X57877853Y-126225905D01*
X57877853Y-126225904D01*
X57877856Y-126225903D01*
X58076363Y-126056363D01*
X58245903Y-125857856D01*
X58296172Y-125775824D01*
X58382298Y-125635280D01*
X58382300Y-125635275D01*
X58382303Y-125635271D01*
X58482204Y-125394089D01*
X58543146Y-125140249D01*
X58563628Y-124880000D01*
X65396372Y-124880000D01*
X65416853Y-125140247D01*
X65477796Y-125394090D01*
X65577695Y-125635268D01*
X65577701Y-125635280D01*
X65714094Y-125857853D01*
X65714098Y-125857858D01*
X65883628Y-126056353D01*
X65883637Y-126056363D01*
X65883643Y-126056368D01*
X65883646Y-126056371D01*
X66082141Y-126225901D01*
X66082146Y-126225905D01*
X66304719Y-126362298D01*
X66304731Y-126362304D01*
X66545909Y-126462203D01*
X66545911Y-126462204D01*
X66799751Y-126523146D01*
X67060000Y-126543628D01*
X67320249Y-126523146D01*
X67574089Y-126462204D01*
X67815271Y-126362303D01*
X67815275Y-126362300D01*
X67815280Y-126362298D01*
X68037853Y-126225905D01*
X68037853Y-126225904D01*
X68037856Y-126225903D01*
X68143117Y-126136002D01*
X72603709Y-126136002D01*
X72622844Y-126391347D01*
X72622845Y-126391354D01*
X72679824Y-126640996D01*
X72773380Y-126879373D01*
X72773384Y-126879381D01*
X72901409Y-127101124D01*
X72901413Y-127101131D01*
X73061071Y-127301337D01*
X73248774Y-127475499D01*
X73248776Y-127475500D01*
X73248781Y-127475505D01*
X73460355Y-127619754D01*
X73691065Y-127730858D01*
X73935757Y-127806335D01*
X74188966Y-127844500D01*
X74188971Y-127844500D01*
X74445029Y-127844500D01*
X74445034Y-127844500D01*
X74698243Y-127806335D01*
X74942935Y-127730858D01*
X75173646Y-127619754D01*
X75385219Y-127475505D01*
X75572931Y-127301334D01*
X75732587Y-127101131D01*
X75860622Y-126879369D01*
X75954174Y-126641001D01*
X76011155Y-126391353D01*
X76030291Y-126136002D01*
X77683709Y-126136002D01*
X77702844Y-126391347D01*
X77702845Y-126391354D01*
X77759824Y-126640996D01*
X77853380Y-126879373D01*
X77853384Y-126879381D01*
X77981409Y-127101124D01*
X77981413Y-127101131D01*
X78141071Y-127301337D01*
X78328774Y-127475499D01*
X78328776Y-127475500D01*
X78328781Y-127475505D01*
X78540355Y-127619754D01*
X78771065Y-127730858D01*
X79015757Y-127806335D01*
X79268966Y-127844500D01*
X79268971Y-127844500D01*
X79525029Y-127844500D01*
X79525034Y-127844500D01*
X79778243Y-127806335D01*
X80022935Y-127730858D01*
X80253646Y-127619754D01*
X80465219Y-127475505D01*
X80652931Y-127301334D01*
X80812587Y-127101131D01*
X80870975Y-127000000D01*
X86586835Y-127000000D01*
X86605464Y-127236709D01*
X86660895Y-127467596D01*
X86660896Y-127467600D01*
X86751756Y-127686955D01*
X86751761Y-127686966D01*
X86848299Y-127844500D01*
X86875824Y-127889416D01*
X87030031Y-128069969D01*
X87210584Y-128224176D01*
X87210586Y-128224177D01*
X87413033Y-128348238D01*
X87413044Y-128348243D01*
X87632399Y-128439103D01*
X87632403Y-128439104D01*
X87632404Y-128439104D01*
X87632406Y-128439105D01*
X87863289Y-128494535D01*
X88100000Y-128513165D01*
X88336711Y-128494535D01*
X88567594Y-128439105D01*
X88567597Y-128439103D01*
X88567600Y-128439103D01*
X88700831Y-128383916D01*
X88786963Y-128348240D01*
X88989416Y-128224176D01*
X89169969Y-128069969D01*
X89324176Y-127889416D01*
X89448240Y-127686963D01*
X89483916Y-127600831D01*
X89539103Y-127467600D01*
X89539104Y-127467596D01*
X89539103Y-127467596D01*
X89539105Y-127467594D01*
X89594535Y-127236711D01*
X89613165Y-127000000D01*
X94586835Y-127000000D01*
X94605464Y-127236709D01*
X94660895Y-127467596D01*
X94660896Y-127467600D01*
X94751756Y-127686955D01*
X94751761Y-127686966D01*
X94848299Y-127844500D01*
X94875824Y-127889416D01*
X95030031Y-128069969D01*
X95210584Y-128224176D01*
X95210586Y-128224177D01*
X95413033Y-128348238D01*
X95413044Y-128348243D01*
X95632399Y-128439103D01*
X95632403Y-128439104D01*
X95632404Y-128439104D01*
X95632406Y-128439105D01*
X95863289Y-128494535D01*
X96100000Y-128513165D01*
X96336711Y-128494535D01*
X96567594Y-128439105D01*
X96567597Y-128439103D01*
X96567600Y-128439103D01*
X96700831Y-128383916D01*
X96786963Y-128348240D01*
X96989416Y-128224176D01*
X97169969Y-128069969D01*
X97324176Y-127889416D01*
X97448240Y-127686963D01*
X97483916Y-127600831D01*
X97539103Y-127467600D01*
X97539104Y-127467596D01*
X97539103Y-127467596D01*
X97539105Y-127467594D01*
X97594535Y-127236711D01*
X97613165Y-127000000D01*
X97594535Y-126763289D01*
X97539105Y-126532406D01*
X97539104Y-126532403D01*
X97539103Y-126532399D01*
X97448243Y-126313044D01*
X97448238Y-126313033D01*
X97324177Y-126110586D01*
X97324176Y-126110584D01*
X97169969Y-125930031D01*
X97169962Y-125930025D01*
X97169959Y-125930022D01*
X96989421Y-125775828D01*
X96989413Y-125775822D01*
X96786966Y-125651761D01*
X96786955Y-125651756D01*
X96567600Y-125560896D01*
X96567596Y-125560895D01*
X96336709Y-125505464D01*
X96100000Y-125486835D01*
X95863290Y-125505464D01*
X95632403Y-125560895D01*
X95632399Y-125560896D01*
X95413044Y-125651756D01*
X95413033Y-125651761D01*
X95210586Y-125775822D01*
X95210578Y-125775828D01*
X95030040Y-125930022D01*
X95030022Y-125930040D01*
X94875828Y-126110578D01*
X94875822Y-126110586D01*
X94751761Y-126313033D01*
X94751756Y-126313044D01*
X94660896Y-126532399D01*
X94660895Y-126532403D01*
X94605464Y-126763290D01*
X94586835Y-127000000D01*
X89613165Y-127000000D01*
X89594535Y-126763289D01*
X89539105Y-126532406D01*
X89539104Y-126532403D01*
X89539103Y-126532399D01*
X89448243Y-126313044D01*
X89448238Y-126313033D01*
X89324177Y-126110586D01*
X89324176Y-126110584D01*
X89169969Y-125930031D01*
X89169962Y-125930025D01*
X89169959Y-125930022D01*
X88989421Y-125775828D01*
X88989413Y-125775822D01*
X88786966Y-125651761D01*
X88786955Y-125651756D01*
X88567600Y-125560896D01*
X88567596Y-125560895D01*
X88336709Y-125505464D01*
X88100000Y-125486835D01*
X87863290Y-125505464D01*
X87632403Y-125560895D01*
X87632399Y-125560896D01*
X87413044Y-125651756D01*
X87413033Y-125651761D01*
X87210586Y-125775822D01*
X87210578Y-125775828D01*
X87030040Y-125930022D01*
X87030022Y-125930040D01*
X86875828Y-126110578D01*
X86875822Y-126110586D01*
X86751761Y-126313033D01*
X86751756Y-126313044D01*
X86660896Y-126532399D01*
X86660895Y-126532403D01*
X86605464Y-126763290D01*
X86586835Y-127000000D01*
X80870975Y-127000000D01*
X80940622Y-126879369D01*
X81034174Y-126641001D01*
X81091155Y-126391353D01*
X81110291Y-126136000D01*
X81108386Y-126110586D01*
X81091155Y-125880652D01*
X81091155Y-125880647D01*
X81034174Y-125630999D01*
X80940622Y-125392631D01*
X80940618Y-125392624D01*
X80940615Y-125392618D01*
X80873864Y-125277004D01*
X80859529Y-125252175D01*
X104116041Y-125252175D01*
X104122551Y-125312740D01*
X104122552Y-125312742D01*
X104173652Y-125449745D01*
X104173653Y-125449747D01*
X104173654Y-125449748D01*
X104215363Y-125505465D01*
X104261280Y-125566802D01*
X104378337Y-125654430D01*
X104515340Y-125705530D01*
X104575903Y-125712041D01*
X104575906Y-125712041D01*
X107073176Y-125712041D01*
X107073179Y-125712041D01*
X107133742Y-125705530D01*
X107270745Y-125654430D01*
X107387802Y-125566802D01*
X107475430Y-125449745D01*
X107526530Y-125312742D01*
X107533041Y-125252179D01*
X107533041Y-122754903D01*
X107526530Y-122694340D01*
X107475430Y-122557337D01*
X107387802Y-122440280D01*
X107338680Y-122403508D01*
X107270748Y-122352654D01*
X107270747Y-122352653D01*
X107270745Y-122352652D01*
X107133742Y-122301552D01*
X107133741Y-122301551D01*
X107092868Y-122297157D01*
X107073179Y-122295041D01*
X104575903Y-122295041D01*
X104559829Y-122296769D01*
X104515341Y-122301551D01*
X104439657Y-122329780D01*
X104378337Y-122352652D01*
X104378335Y-122352653D01*
X104378333Y-122352654D01*
X104261284Y-122440276D01*
X104261276Y-122440284D01*
X104173654Y-122557333D01*
X104173653Y-122557335D01*
X104173652Y-122557337D01*
X104150780Y-122618657D01*
X104122551Y-122694341D01*
X104116041Y-122754906D01*
X104116041Y-125252175D01*
X80859529Y-125252175D01*
X80812587Y-125170869D01*
X80652931Y-124970666D01*
X80652928Y-124970662D01*
X80465222Y-124796497D01*
X80458819Y-124792132D01*
X80253646Y-124652246D01*
X80022935Y-124541142D01*
X79849796Y-124487736D01*
X79778247Y-124465666D01*
X79778244Y-124465665D01*
X79778243Y-124465665D01*
X79778238Y-124465664D01*
X79778237Y-124465664D01*
X79525037Y-124427500D01*
X79525034Y-124427500D01*
X79268966Y-124427500D01*
X79268962Y-124427500D01*
X79015762Y-124465664D01*
X79015752Y-124465666D01*
X78771062Y-124541143D01*
X78540362Y-124652242D01*
X78540358Y-124652244D01*
X78540355Y-124652246D01*
X78328781Y-124796495D01*
X78328774Y-124796500D01*
X78141071Y-124970662D01*
X77981413Y-125170868D01*
X77981409Y-125170875D01*
X77853384Y-125392618D01*
X77853380Y-125392626D01*
X77759824Y-125631003D01*
X77702845Y-125880645D01*
X77702844Y-125880652D01*
X77683709Y-126135997D01*
X77683709Y-126136002D01*
X76030291Y-126136002D01*
X76030291Y-126136000D01*
X76028386Y-126110586D01*
X76011155Y-125880652D01*
X76011155Y-125880647D01*
X75954174Y-125630999D01*
X75860622Y-125392631D01*
X75860618Y-125392624D01*
X75860615Y-125392618D01*
X75793864Y-125277004D01*
X75732587Y-125170869D01*
X75572931Y-124970666D01*
X75572928Y-124970662D01*
X75385222Y-124796497D01*
X75378819Y-124792132D01*
X75173646Y-124652246D01*
X74942935Y-124541142D01*
X74769796Y-124487736D01*
X74698247Y-124465666D01*
X74698244Y-124465665D01*
X74698243Y-124465665D01*
X74698238Y-124465664D01*
X74698237Y-124465664D01*
X74445037Y-124427500D01*
X74445034Y-124427500D01*
X74188966Y-124427500D01*
X74188962Y-124427500D01*
X73935762Y-124465664D01*
X73935752Y-124465666D01*
X73691062Y-124541143D01*
X73460362Y-124652242D01*
X73460358Y-124652244D01*
X73460355Y-124652246D01*
X73248781Y-124796495D01*
X73248774Y-124796500D01*
X73061071Y-124970662D01*
X72901413Y-125170868D01*
X72901409Y-125170875D01*
X72773384Y-125392618D01*
X72773380Y-125392626D01*
X72679824Y-125631003D01*
X72622845Y-125880645D01*
X72622844Y-125880652D01*
X72603709Y-126135997D01*
X72603709Y-126136002D01*
X68143117Y-126136002D01*
X68236363Y-126056363D01*
X68405903Y-125857856D01*
X68456172Y-125775824D01*
X68542298Y-125635280D01*
X68542300Y-125635275D01*
X68542303Y-125635271D01*
X68642204Y-125394089D01*
X68703146Y-125140249D01*
X68723628Y-124880000D01*
X68703146Y-124619751D01*
X68642204Y-124365911D01*
X68542303Y-124124729D01*
X68542298Y-124124719D01*
X68405905Y-123902146D01*
X68405901Y-123902141D01*
X68236371Y-123703646D01*
X68236368Y-123703643D01*
X68236363Y-123703637D01*
X68236356Y-123703631D01*
X68236353Y-123703628D01*
X68037858Y-123534098D01*
X68037853Y-123534094D01*
X67815280Y-123397701D01*
X67815268Y-123397695D01*
X67574090Y-123297796D01*
X67574091Y-123297796D01*
X67320247Y-123236853D01*
X67060000Y-123216372D01*
X66799752Y-123236853D01*
X66545909Y-123297796D01*
X66304731Y-123397695D01*
X66304719Y-123397701D01*
X66082146Y-123534094D01*
X66082141Y-123534098D01*
X65883646Y-123703628D01*
X65883628Y-123703646D01*
X65714098Y-123902141D01*
X65714094Y-123902146D01*
X65577701Y-124124719D01*
X65577695Y-124124731D01*
X65477796Y-124365909D01*
X65416853Y-124619752D01*
X65396372Y-124880000D01*
X58563628Y-124880000D01*
X58543146Y-124619751D01*
X58482204Y-124365911D01*
X58382303Y-124124729D01*
X58382298Y-124124719D01*
X58245905Y-123902146D01*
X58245901Y-123902141D01*
X58076371Y-123703646D01*
X58076368Y-123703643D01*
X58076363Y-123703637D01*
X58076356Y-123703631D01*
X58076353Y-123703628D01*
X57877858Y-123534098D01*
X57877853Y-123534094D01*
X57655280Y-123397701D01*
X57655268Y-123397695D01*
X57414090Y-123297796D01*
X57414091Y-123297796D01*
X57160247Y-123236853D01*
X56900000Y-123216372D01*
X56639752Y-123236853D01*
X56385909Y-123297796D01*
X56144731Y-123397695D01*
X56144719Y-123397701D01*
X55922146Y-123534094D01*
X55922141Y-123534098D01*
X55723646Y-123703628D01*
X55723628Y-123703646D01*
X55554098Y-123902141D01*
X55554094Y-123902146D01*
X55417701Y-124124719D01*
X55417695Y-124124731D01*
X55317796Y-124365909D01*
X55256853Y-124619752D01*
X55236372Y-124880000D01*
X52444000Y-124880000D01*
X52624132Y-124699868D01*
X52689164Y-124602541D01*
X52712000Y-124487736D01*
X52712000Y-122508751D01*
X52713902Y-122489437D01*
X52730994Y-122403508D01*
X52745774Y-122367824D01*
X52788931Y-122303235D01*
X52816235Y-122275931D01*
X52880824Y-122232774D01*
X52916507Y-122217994D01*
X52961341Y-122209076D01*
X53002439Y-122200902D01*
X53021752Y-122199000D01*
X69849984Y-122199000D01*
X69869298Y-122200902D01*
X69955228Y-122217994D01*
X69990913Y-122232775D01*
X70063759Y-122281450D01*
X70078760Y-122293760D01*
X70912132Y-123127132D01*
X70970474Y-123166115D01*
X71009458Y-123192164D01*
X71047379Y-123199706D01*
X71124264Y-123215000D01*
X71124265Y-123215000D01*
X73281016Y-123215000D01*
X73339207Y-123233907D01*
X73345311Y-123238720D01*
X73412578Y-123296171D01*
X73412584Y-123296176D01*
X73412586Y-123296177D01*
X73615033Y-123420238D01*
X73615044Y-123420243D01*
X73834399Y-123511103D01*
X73834403Y-123511104D01*
X73834404Y-123511104D01*
X73834406Y-123511105D01*
X74065289Y-123566535D01*
X74302000Y-123585165D01*
X74538711Y-123566535D01*
X74769594Y-123511105D01*
X74769597Y-123511103D01*
X74769600Y-123511103D01*
X74902831Y-123455916D01*
X74988963Y-123420240D01*
X75191416Y-123296176D01*
X75227431Y-123265415D01*
X75258689Y-123238720D01*
X75315217Y-123215305D01*
X75322984Y-123215000D01*
X80732999Y-123215000D01*
X80733000Y-123215000D01*
X80847805Y-123192164D01*
X80945132Y-123127132D01*
X81010164Y-123029805D01*
X81033000Y-122915000D01*
X81033000Y-118135000D01*
X82798372Y-118135000D01*
X82818853Y-118395247D01*
X82879796Y-118649090D01*
X82979695Y-118890268D01*
X82979701Y-118890280D01*
X83116094Y-119112853D01*
X83116098Y-119112858D01*
X83285628Y-119311353D01*
X83285637Y-119311363D01*
X83285643Y-119311368D01*
X83285646Y-119311371D01*
X83484141Y-119480901D01*
X83484146Y-119480905D01*
X83706719Y-119617298D01*
X83706731Y-119617304D01*
X83947909Y-119717203D01*
X83947911Y-119717204D01*
X84201751Y-119778146D01*
X84462000Y-119798628D01*
X84722249Y-119778146D01*
X84976089Y-119717204D01*
X85217271Y-119617303D01*
X85217275Y-119617300D01*
X85217280Y-119617298D01*
X85439853Y-119480905D01*
X85439853Y-119480904D01*
X85439856Y-119480903D01*
X85638363Y-119311363D01*
X85807903Y-119112856D01*
X85846557Y-119049778D01*
X85944298Y-118890280D01*
X85944300Y-118890275D01*
X85944303Y-118890271D01*
X86044204Y-118649089D01*
X86105146Y-118395249D01*
X86125628Y-118135000D01*
X86105146Y-117874751D01*
X86044204Y-117620911D01*
X85944303Y-117379729D01*
X85944298Y-117379719D01*
X85807905Y-117157146D01*
X85807901Y-117157141D01*
X85638371Y-116958646D01*
X85638368Y-116958643D01*
X85638363Y-116958637D01*
X85638356Y-116958631D01*
X85638353Y-116958628D01*
X85439858Y-116789098D01*
X85439853Y-116789094D01*
X85217280Y-116652701D01*
X85217268Y-116652695D01*
X84976090Y-116552796D01*
X84976091Y-116552796D01*
X84722247Y-116491853D01*
X84462000Y-116471372D01*
X84201752Y-116491853D01*
X83947909Y-116552796D01*
X83706731Y-116652695D01*
X83706719Y-116652701D01*
X83484146Y-116789094D01*
X83484141Y-116789098D01*
X83285646Y-116958628D01*
X83285628Y-116958646D01*
X83116098Y-117157141D01*
X83116094Y-117157146D01*
X82979701Y-117379719D01*
X82979695Y-117379731D01*
X82879796Y-117620909D01*
X82818853Y-117874752D01*
X82798372Y-118135000D01*
X81033000Y-118135000D01*
X81033000Y-114840015D01*
X81034902Y-114820701D01*
X81051994Y-114734772D01*
X81066774Y-114699088D01*
X81115453Y-114626235D01*
X81127755Y-114611244D01*
X82462244Y-113276755D01*
X82477235Y-113264453D01*
X82550088Y-113215774D01*
X82585771Y-113200994D01*
X82630605Y-113192076D01*
X82671703Y-113183902D01*
X82691016Y-113182000D01*
X102752735Y-113182000D01*
X102752736Y-113182000D01*
X102867541Y-113159164D01*
X102964868Y-113094132D01*
X107361132Y-108697868D01*
X107426164Y-108600541D01*
X107449000Y-108485736D01*
X107449000Y-100870015D01*
X107450902Y-100850701D01*
X107467994Y-100764772D01*
X107467995Y-100764771D01*
X107467994Y-100764770D01*
X107482774Y-100729088D01*
X107531453Y-100656235D01*
X107543755Y-100641244D01*
X107608244Y-100576755D01*
X107623235Y-100564453D01*
X107696088Y-100515774D01*
X107731771Y-100500994D01*
X107776605Y-100492076D01*
X107817703Y-100483902D01*
X107837016Y-100482000D01*
X115823984Y-100482000D01*
X115843298Y-100483902D01*
G37*
%TD.AperFunction*%
%TD*%
%TA.AperFunction,Conductor*%
%TO.N,/PS/TR_SW*%
G36*
X70593039Y-91669685D02*
G01*
X70638794Y-91722489D01*
X70650000Y-91774000D01*
X70650000Y-97400000D01*
X71168181Y-97918181D01*
X71201666Y-97979504D01*
X71204500Y-98005862D01*
X71204500Y-98376708D01*
X71204501Y-98376723D01*
X71214904Y-98508913D01*
X71214905Y-98508920D01*
X71269902Y-98727178D01*
X71269903Y-98727181D01*
X71362991Y-98932122D01*
X71362997Y-98932132D01*
X71491174Y-99117145D01*
X71491178Y-99117150D01*
X71491181Y-99117154D01*
X71650346Y-99276319D01*
X71650350Y-99276322D01*
X71650354Y-99276325D01*
X71789603Y-99372797D01*
X71835374Y-99404507D01*
X72040317Y-99497596D01*
X72040321Y-99497597D01*
X72258579Y-99552594D01*
X72258581Y-99552594D01*
X72258588Y-99552596D01*
X72390783Y-99563000D01*
X74519216Y-99562999D01*
X74651412Y-99552596D01*
X74869683Y-99497596D01*
X75074626Y-99404507D01*
X75259654Y-99276319D01*
X75418819Y-99117154D01*
X75547007Y-98932126D01*
X75640096Y-98727183D01*
X75640097Y-98727181D01*
X75642124Y-98722719D01*
X75687771Y-98669822D01*
X75754770Y-98650000D01*
X75900000Y-98650000D01*
X76863681Y-97686319D01*
X76925004Y-97652834D01*
X76951362Y-97650000D01*
X82026000Y-97650000D01*
X82093039Y-97669685D01*
X82138794Y-97722489D01*
X82150000Y-97774000D01*
X82150000Y-101526000D01*
X82130315Y-101593039D01*
X82077511Y-101638794D01*
X82026000Y-101650000D01*
X75642635Y-101650000D01*
X75575596Y-101630315D01*
X75529841Y-101577511D01*
X75528074Y-101573452D01*
X75482554Y-101463555D01*
X75482546Y-101463539D01*
X75385518Y-101295483D01*
X75338158Y-101213453D01*
X75162357Y-100984344D01*
X75162352Y-100984338D01*
X74958161Y-100780147D01*
X74958154Y-100780141D01*
X74729051Y-100604345D01*
X74729050Y-100604344D01*
X74729047Y-100604342D01*
X74629335Y-100546773D01*
X74478960Y-100459953D01*
X74478949Y-100459948D01*
X74212153Y-100349437D01*
X73933204Y-100274693D01*
X73646901Y-100237001D01*
X73646898Y-100237000D01*
X73646892Y-100237000D01*
X73263108Y-100237000D01*
X73263102Y-100237000D01*
X73263098Y-100237001D01*
X72976795Y-100274693D01*
X72697846Y-100349437D01*
X72431050Y-100459948D01*
X72431039Y-100459953D01*
X72180948Y-100604345D01*
X71951846Y-100780140D01*
X71890326Y-100841660D01*
X71828804Y-100903182D01*
X71767484Y-100936666D01*
X71741125Y-100939500D01*
X63740862Y-100939500D01*
X63673823Y-100919815D01*
X63653181Y-100903181D01*
X63436319Y-100686319D01*
X63402834Y-100624996D01*
X63400000Y-100598638D01*
X63400000Y-96398672D01*
X63419685Y-96331633D01*
X63451113Y-96298354D01*
X63513162Y-96253274D01*
X63733349Y-96046504D01*
X63925885Y-95813768D01*
X64087733Y-95558736D01*
X64216341Y-95285430D01*
X64309681Y-94998160D01*
X64366280Y-94701457D01*
X64385246Y-94400000D01*
X64369517Y-94150000D01*
X64366281Y-94098553D01*
X64366280Y-94098546D01*
X64366280Y-94098543D01*
X64309681Y-93801840D01*
X64216341Y-93514570D01*
X64087733Y-93241264D01*
X64059828Y-93197293D01*
X63925888Y-92986236D01*
X63925885Y-92986232D01*
X63733349Y-92753496D01*
X63513162Y-92546726D01*
X63513160Y-92546724D01*
X63451114Y-92501645D01*
X63408449Y-92446315D01*
X63400000Y-92401327D01*
X63400000Y-91774000D01*
X63419685Y-91706961D01*
X63472489Y-91661206D01*
X63524000Y-91650000D01*
X70526000Y-91650000D01*
X70593039Y-91669685D01*
G37*
%TD.AperFunction*%
%TD*%
%TA.AperFunction,Conductor*%
%TO.N,GND_DC_P*%
G36*
X115843039Y-79219685D02*
G01*
X115888794Y-79272489D01*
X115900000Y-79324000D01*
X115900000Y-94848638D01*
X115880315Y-94915677D01*
X115863681Y-94936319D01*
X113936319Y-96863681D01*
X113874996Y-96897166D01*
X113848638Y-96900000D01*
X102799999Y-96900000D01*
X100836319Y-98863681D01*
X100774996Y-98897166D01*
X100748638Y-98900000D01*
X96799999Y-98900000D01*
X93600000Y-102099999D01*
X93600000Y-105848638D01*
X93580315Y-105915677D01*
X93563681Y-105936319D01*
X92294819Y-107205181D01*
X92233496Y-107238666D01*
X92207138Y-107241500D01*
X84324000Y-107241500D01*
X84256961Y-107221815D01*
X84211206Y-107169011D01*
X84200000Y-107117500D01*
X84200000Y-103551362D01*
X84219685Y-103484323D01*
X84236319Y-103463681D01*
X85563681Y-102136319D01*
X85625004Y-102102834D01*
X85651362Y-102100000D01*
X86400000Y-102100000D01*
X87300000Y-101200000D01*
X87300000Y-99951362D01*
X87319685Y-99884323D01*
X87336319Y-99863681D01*
X96663681Y-90536319D01*
X96725004Y-90502834D01*
X96751362Y-90500000D01*
X106700000Y-90500000D01*
X107400000Y-89800000D01*
X107400000Y-79351362D01*
X107419685Y-79284323D01*
X107436319Y-79263681D01*
X107463681Y-79236319D01*
X107525004Y-79202834D01*
X107551362Y-79200000D01*
X115776000Y-79200000D01*
X115843039Y-79219685D01*
G37*
%TD.AperFunction*%
%TD*%
%TA.AperFunction,Conductor*%
%TO.N,Net-(Q1-S)*%
G36*
X53425452Y-88625457D02*
G01*
X53426092Y-88626047D01*
X53571591Y-88770821D01*
X53700707Y-88899293D01*
X53700749Y-88899335D01*
X53973946Y-89173901D01*
X53977352Y-89182182D01*
X53973904Y-89190447D01*
X53973258Y-89191043D01*
X53830913Y-89312826D01*
X53829174Y-89314058D01*
X53705429Y-89385786D01*
X53704438Y-89386299D01*
X53588995Y-89439231D01*
X53588979Y-89439239D01*
X53463837Y-89511778D01*
X53463827Y-89511785D01*
X53319315Y-89635424D01*
X53310801Y-89638199D01*
X53303436Y-89634807D01*
X52965191Y-89296562D01*
X52961764Y-89288289D01*
X52964572Y-89280686D01*
X53088216Y-89136168D01*
X53160762Y-89011012D01*
X53213702Y-88895551D01*
X53214202Y-88894584D01*
X53285944Y-88770817D01*
X53287174Y-88769083D01*
X53408958Y-88626739D01*
X53416938Y-88622682D01*
X53425452Y-88625457D01*
G37*
%TD.AperFunction*%
%TD*%
%TA.AperFunction,Conductor*%
%TO.N,/PS/OPT_C*%
G36*
X97555222Y-103109237D02*
G01*
X97671702Y-103273297D01*
X98101191Y-103878227D01*
X98103186Y-103886956D01*
X98101191Y-103891773D01*
X97555223Y-104660761D01*
X97547639Y-104665523D01*
X97539625Y-104663997D01*
X97263231Y-104496710D01*
X97263226Y-104496707D01*
X96977508Y-104356777D01*
X96977502Y-104356775D01*
X96691794Y-104249851D01*
X96691791Y-104249850D01*
X96691788Y-104249849D01*
X96406084Y-104175925D01*
X96406078Y-104175924D01*
X96130413Y-104136438D01*
X96122709Y-104131872D01*
X96120372Y-104124856D01*
X96120372Y-103645143D01*
X96123799Y-103636870D01*
X96130411Y-103633561D01*
X96406083Y-103594074D01*
X96691794Y-103520148D01*
X96977505Y-103413223D01*
X97263216Y-103273297D01*
X97539626Y-103106001D01*
X97548477Y-103104649D01*
X97555222Y-103109237D01*
G37*
%TD.AperFunction*%
%TD*%
%TA.AperFunction,Conductor*%
%TO.N,/PS/OPT_C*%
G36*
X51790447Y-98626095D02*
G01*
X51791043Y-98626741D01*
X51912826Y-98769085D01*
X51914058Y-98770824D01*
X51985786Y-98894568D01*
X51986299Y-98895559D01*
X52039231Y-99011002D01*
X52039239Y-99011018D01*
X52111779Y-99136162D01*
X52111780Y-99136164D01*
X52111782Y-99136166D01*
X52111783Y-99136168D01*
X52235425Y-99280684D01*
X52238200Y-99289197D01*
X52234808Y-99296562D01*
X51896562Y-99634808D01*
X51888289Y-99638235D01*
X51880684Y-99635425D01*
X51736168Y-99511783D01*
X51736166Y-99511782D01*
X51736164Y-99511780D01*
X51736162Y-99511779D01*
X51611018Y-99439239D01*
X51611002Y-99439231D01*
X51495559Y-99386299D01*
X51494568Y-99385786D01*
X51370824Y-99314058D01*
X51369085Y-99312826D01*
X51226741Y-99191043D01*
X51222682Y-99183061D01*
X51225457Y-99174547D01*
X51226035Y-99173920D01*
X51499293Y-98899293D01*
X51773903Y-98626052D01*
X51782182Y-98622647D01*
X51790447Y-98626095D01*
G37*
%TD.AperFunction*%
%TD*%
%TA.AperFunction,Conductor*%
%TO.N,/PS/AC_R_I_2*%
G36*
X79058601Y-50970544D02*
G01*
X79211804Y-51279950D01*
X79425707Y-51522771D01*
X79666406Y-51776090D01*
X79900000Y-52116992D01*
X78900000Y-52651000D01*
X77900000Y-52116992D01*
X78133592Y-51776090D01*
X78374292Y-51522771D01*
X78588194Y-51279950D01*
X78741398Y-50970544D01*
X78800000Y-50517471D01*
X79000000Y-50517471D01*
X79058601Y-50970544D01*
G37*
%TD.AperFunction*%
%TD*%
%TA.AperFunction,Conductor*%
%TO.N,/PS/AC_R_I_2*%
G36*
X47250842Y-30422415D02*
G01*
X47377583Y-30549156D01*
X47381010Y-30557429D01*
X47378510Y-30564658D01*
X47113492Y-30901951D01*
X47010232Y-31199864D01*
X46986590Y-31497573D01*
X46986575Y-31497747D01*
X46954091Y-31841665D01*
X46953663Y-31843883D01*
X46827563Y-32270228D01*
X46821930Y-32277190D01*
X46813025Y-32278130D01*
X46811879Y-32277725D01*
X46465473Y-32134613D01*
X45903784Y-31902562D01*
X45897446Y-31896235D01*
X45897437Y-31896215D01*
X45874901Y-31841665D01*
X45522275Y-30988121D01*
X45522284Y-30979169D01*
X45528622Y-30972842D01*
X45529763Y-30972438D01*
X45956117Y-30846334D01*
X45958332Y-30845907D01*
X46302306Y-30813417D01*
X46302356Y-30813412D01*
X46600135Y-30789766D01*
X46898048Y-30686505D01*
X47235343Y-30421487D01*
X47243963Y-30419071D01*
X47250842Y-30422415D01*
G37*
%TD.AperFunction*%
%TD*%
%TA.AperFunction,Conductor*%
%TO.N,Net-(D4-K)*%
G36*
X71728267Y-81599527D02*
G01*
X72066472Y-81937732D01*
X72069899Y-81946005D01*
X72067069Y-81953635D01*
X71852582Y-82202975D01*
X71738801Y-82416432D01*
X71678897Y-82627181D01*
X71619100Y-82876065D01*
X71618782Y-82877153D01*
X71509156Y-83194417D01*
X71503216Y-83201117D01*
X71494277Y-83201654D01*
X71493633Y-83201411D01*
X70769787Y-82902562D01*
X70763448Y-82896237D01*
X70763437Y-82896212D01*
X70464588Y-82172365D01*
X70464599Y-82163410D01*
X70470938Y-82157085D01*
X70471544Y-82156855D01*
X70788860Y-82047211D01*
X70789915Y-82046902D01*
X71038820Y-81987099D01*
X71249568Y-81927196D01*
X71463025Y-81813416D01*
X71712367Y-81598928D01*
X71720871Y-81596133D01*
X71728267Y-81599527D01*
G37*
%TD.AperFunction*%
%TD*%
%TA.AperFunction,Conductor*%
%TO.N,Net-(D4-K)*%
G36*
X72487386Y-79799968D02*
G01*
X72495650Y-79803416D01*
X72499056Y-79811697D01*
X72499021Y-79812576D01*
X72484483Y-79999338D01*
X72484125Y-80001439D01*
X72447342Y-80139664D01*
X72447004Y-80140727D01*
X72402800Y-80259793D01*
X72365601Y-80399589D01*
X72365600Y-80399591D01*
X72350840Y-80589208D01*
X72346781Y-80597190D01*
X72339175Y-80600000D01*
X71860825Y-80600000D01*
X71852552Y-80596573D01*
X71849160Y-80589208D01*
X71848226Y-80577213D01*
X71834400Y-80399592D01*
X71797200Y-80259795D01*
X71752995Y-80140727D01*
X71752659Y-80139673D01*
X71750734Y-80132440D01*
X71715872Y-80001432D01*
X71715517Y-79999346D01*
X71700978Y-79812573D01*
X71703753Y-79804062D01*
X71711735Y-79800003D01*
X71712601Y-79799968D01*
X72100000Y-79799000D01*
X72487386Y-79799968D01*
G37*
%TD.AperFunction*%
%TD*%
M02*
