%TF.GenerationSoftware,KiCad,Pcbnew,8.99.0-984-gafcdfd85a7*%
%TF.CreationDate,2024-06-08T13:09:11+02:00*%
%TF.ProjectId,ACDC120V24,41434443-3132-4305-9632-342e6b696361,rev?*%
%TF.SameCoordinates,Original*%
%TF.FileFunction,Copper,L1,Top*%
%TF.FilePolarity,Positive*%
%FSLAX46Y46*%
G04 Gerber Fmt 4.6, Leading zero omitted, Abs format (unit mm)*
G04 Created by KiCad (PCBNEW 8.99.0-984-gafcdfd85a7) date 2024-06-08 13:09:11*
%MOMM*%
%LPD*%
G01*
G04 APERTURE LIST*
G04 Aperture macros list*
%AMRoundRect*
0 Rectangle with rounded corners*
0 $1 Rounding radius*
0 $2 $3 $4 $5 $6 $7 $8 $9 X,Y pos of 4 corners*
0 Add a 4 corners polygon primitive as box body*
4,1,4,$2,$3,$4,$5,$6,$7,$8,$9,$2,$3,0*
0 Add four circle primitives for the rounded corners*
1,1,$1+$1,$2,$3*
1,1,$1+$1,$4,$5*
1,1,$1+$1,$6,$7*
1,1,$1+$1,$8,$9*
0 Add four rect primitives between the rounded corners*
20,1,$1+$1,$2,$3,$4,$5,0*
20,1,$1+$1,$4,$5,$6,$7,0*
20,1,$1+$1,$6,$7,$8,$9,0*
20,1,$1+$1,$8,$9,$2,$3,0*%
G04 Aperture macros list end*
%TA.AperFunction,SMDPad,CuDef*%
%ADD10RoundRect,0.200000X-0.275000X0.200000X-0.275000X-0.200000X0.275000X-0.200000X0.275000X0.200000X0*%
%TD*%
%TA.AperFunction,ComponentPad*%
%ADD11C,2.400000*%
%TD*%
%TA.AperFunction,ComponentPad*%
%ADD12O,2.400000X2.400000*%
%TD*%
%TA.AperFunction,SMDPad,CuDef*%
%ADD13RoundRect,0.200000X-0.200000X-0.275000X0.200000X-0.275000X0.200000X0.275000X-0.200000X0.275000X0*%
%TD*%
%TA.AperFunction,SMDPad,CuDef*%
%ADD14RoundRect,0.200000X0.275000X-0.200000X0.275000X0.200000X-0.275000X0.200000X-0.275000X-0.200000X0*%
%TD*%
%TA.AperFunction,ComponentPad*%
%ADD15C,3.600000*%
%TD*%
%TA.AperFunction,ConnectorPad*%
%ADD16C,5.600000*%
%TD*%
%TA.AperFunction,SMDPad,CuDef*%
%ADD17RoundRect,0.250000X-0.400000X-0.625000X0.400000X-0.625000X0.400000X0.625000X-0.400000X0.625000X0*%
%TD*%
%TA.AperFunction,ComponentPad*%
%ADD18R,3.200000X3.200000*%
%TD*%
%TA.AperFunction,ComponentPad*%
%ADD19C,3.200000*%
%TD*%
%TA.AperFunction,ComponentPad*%
%ADD20C,2.550000*%
%TD*%
%TA.AperFunction,ComponentPad*%
%ADD21C,1.800000*%
%TD*%
%TA.AperFunction,SMDPad,CuDef*%
%ADD22RoundRect,0.250000X0.475000X-0.337500X0.475000X0.337500X-0.475000X0.337500X-0.475000X-0.337500X0*%
%TD*%
%TA.AperFunction,SMDPad,CuDef*%
%ADD23RoundRect,0.225000X0.250000X-0.225000X0.250000X0.225000X-0.250000X0.225000X-0.250000X-0.225000X0*%
%TD*%
%TA.AperFunction,ComponentPad*%
%ADD24C,2.000000*%
%TD*%
%TA.AperFunction,SMDPad,CuDef*%
%ADD25RoundRect,0.225000X-0.250000X0.225000X-0.250000X-0.225000X0.250000X-0.225000X0.250000X0.225000X0*%
%TD*%
%TA.AperFunction,SMDPad,CuDef*%
%ADD26RoundRect,0.250000X-0.475000X0.337500X-0.475000X-0.337500X0.475000X-0.337500X0.475000X0.337500X0*%
%TD*%
%TA.AperFunction,ComponentPad*%
%ADD27R,2.400000X2.400000*%
%TD*%
%TA.AperFunction,ComponentPad*%
%ADD28C,1.700000*%
%TD*%
%TA.AperFunction,SMDPad,CuDef*%
%ADD29RoundRect,0.112500X-0.112500X0.187500X-0.112500X-0.187500X0.112500X-0.187500X0.112500X0.187500X0*%
%TD*%
%TA.AperFunction,SMDPad,CuDef*%
%ADD30RoundRect,0.249999X-0.450001X-1.425001X0.450001X-1.425001X0.450001X1.425001X-0.450001X1.425001X0*%
%TD*%
%TA.AperFunction,ComponentPad*%
%ADD31R,2.400000X1.600000*%
%TD*%
%TA.AperFunction,ComponentPad*%
%ADD32O,2.400000X1.600000*%
%TD*%
%TA.AperFunction,SMDPad,CuDef*%
%ADD33RoundRect,0.112500X-0.187500X-0.112500X0.187500X-0.112500X0.187500X0.112500X-0.187500X0.112500X0*%
%TD*%
%TA.AperFunction,ComponentPad*%
%ADD34C,1.600000*%
%TD*%
%TA.AperFunction,SMDPad,CuDef*%
%ADD35RoundRect,0.150000X0.150000X-0.587500X0.150000X0.587500X-0.150000X0.587500X-0.150000X-0.587500X0*%
%TD*%
%TA.AperFunction,ComponentPad*%
%ADD36C,2.300000*%
%TD*%
%TA.AperFunction,SMDPad,CuDef*%
%ADD37RoundRect,0.225000X-0.225000X-0.250000X0.225000X-0.250000X0.225000X0.250000X-0.225000X0.250000X0*%
%TD*%
%TA.AperFunction,ComponentPad*%
%ADD38RoundRect,0.250001X-1.099999X1.099999X-1.099999X-1.099999X1.099999X-1.099999X1.099999X1.099999X0*%
%TD*%
%TA.AperFunction,ComponentPad*%
%ADD39C,2.700000*%
%TD*%
%TA.AperFunction,SMDPad,CuDef*%
%ADD40RoundRect,0.250000X0.300000X0.300000X-0.300000X0.300000X-0.300000X-0.300000X0.300000X-0.300000X0*%
%TD*%
%TA.AperFunction,SMDPad,CuDef*%
%ADD41RoundRect,0.225000X0.225000X0.250000X-0.225000X0.250000X-0.225000X-0.250000X0.225000X-0.250000X0*%
%TD*%
%TA.AperFunction,SMDPad,CuDef*%
%ADD42RoundRect,0.200000X0.200000X0.275000X-0.200000X0.275000X-0.200000X-0.275000X0.200000X-0.275000X0*%
%TD*%
%TA.AperFunction,ComponentPad*%
%ADD43R,2.000000X1.905000*%
%TD*%
%TA.AperFunction,ComponentPad*%
%ADD44O,2.000000X1.905000*%
%TD*%
%TA.AperFunction,WasherPad*%
%ADD45C,2.300000*%
%TD*%
%TA.AperFunction,SMDPad,CuDef*%
%ADD46RoundRect,0.250000X1.000000X0.900000X-1.000000X0.900000X-1.000000X-0.900000X1.000000X-0.900000X0*%
%TD*%
%TA.AperFunction,SMDPad,CuDef*%
%ADD47RoundRect,0.112500X0.187500X0.112500X-0.187500X0.112500X-0.187500X-0.112500X0.187500X-0.112500X0*%
%TD*%
%TA.AperFunction,SMDPad,CuDef*%
%ADD48RoundRect,0.150000X-0.150000X0.825000X-0.150000X-0.825000X0.150000X-0.825000X0.150000X0.825000X0*%
%TD*%
%TA.AperFunction,ViaPad*%
%ADD49C,0.800000*%
%TD*%
%TA.AperFunction,Conductor*%
%ADD50C,0.200000*%
%TD*%
%TA.AperFunction,Conductor*%
%ADD51C,0.500000*%
%TD*%
%TA.AperFunction,Conductor*%
%ADD52C,0.300000*%
%TD*%
%TA.AperFunction,Conductor*%
%ADD53C,2.000000*%
%TD*%
G04 APERTURE END LIST*
D10*
%TO.P,R15,1*%
%TO.N,Net-(D5-K)*%
X96171200Y-114066200D03*
%TO.P,R15,2*%
%TO.N,/PS/24V_F*%
X96171200Y-115716200D03*
%TD*%
%TO.P,R17,1*%
%TO.N,Net-(U3-REF)*%
X97671200Y-111094200D03*
%TO.P,R17,2*%
%TO.N,Net-(R16-Pad1)*%
X97671200Y-112744200D03*
%TD*%
D11*
%TO.P,R23,1*%
%TO.N,Net-(C22-Pad2)*%
X56695000Y-96961000D03*
D12*
%TO.P,R23,2*%
%TO.N,/PS/AC_R_O*%
X61775000Y-96961000D03*
%TD*%
D13*
%TO.P,R12,1*%
%TO.N,Net-(R12-Pad1)*%
X89935000Y-111011000D03*
%TO.P,R12,2*%
%TO.N,Net-(D5-K)*%
X91585000Y-111011000D03*
%TD*%
D14*
%TO.P,R18,1*%
%TO.N,OUT_GND*%
X96171200Y-112744200D03*
%TO.P,R18,2*%
%TO.N,Net-(U3-REF)*%
X96171200Y-111094200D03*
%TD*%
D15*
%TO.P,H2,1,1*%
%TO.N,unconnected-(H2-Pad1)_2*%
X113185000Y-157561000D03*
D16*
%TO.N,unconnected-(H2-Pad1)*%
X113185000Y-157561000D03*
%TD*%
D17*
%TO.P,R6,1*%
%TO.N,Net-(R6-Pad1)*%
X93885000Y-92811000D03*
%TO.P,R6,2*%
%TO.N,/PS/AC_R_O*%
X96985000Y-92811000D03*
%TD*%
D18*
%TO.P,D6,1,+*%
%TO.N,/PS/AC_R_O*%
X104685000Y-65721000D03*
D19*
%TO.P,D6,2*%
%TO.N,/PS/AC_R_I_2*%
X104685000Y-60641000D03*
%TO.P,D6,3*%
%TO.N,/PS/AC_R_I_1*%
X104685000Y-55561000D03*
%TO.P,D6,4,-*%
%TO.N,DCR_GND*%
X104685000Y-50481000D03*
%TD*%
D20*
%TO.P,TR1,1,1*%
%TO.N,DCR_GND*%
X73102000Y-120857000D03*
%TO.P,TR1,2*%
%TO.N,N/C*%
X68022000Y-120857000D03*
%TO.P,TR1,3*%
X62942000Y-120857000D03*
%TO.P,TR1,4,4*%
%TO.N,/PS/AC_R_O*%
X57862000Y-120857000D03*
%TO.P,TR1,5*%
%TO.N,N/C*%
X52782000Y-120857000D03*
%TO.P,TR1,6,6*%
%TO.N,/PS/TR_SW*%
X47702000Y-120857000D03*
%TO.P,TR1,7,7*%
%TO.N,/PS/AUX*%
X42622000Y-120857000D03*
%TO.P,TR1,8,8*%
%TO.N,OUT_GND*%
X42622000Y-146257000D03*
%TO.P,TR1,9,9*%
X47702000Y-146257000D03*
%TO.P,TR1,10*%
%TO.N,N/C*%
X52782000Y-146257000D03*
%TO.P,TR1,11*%
X57862000Y-146257000D03*
%TO.P,TR1,12*%
X62942000Y-146257000D03*
%TO.P,TR1,13,13*%
%TO.N,Net-(D8A-A)*%
X68022000Y-146257000D03*
%TO.P,TR1,14,14*%
X73102000Y-146257000D03*
%TD*%
D21*
%TO.P,F1,1*%
%TO.N,/PS/AC_L*%
X40385000Y-69601000D03*
%TO.P,F1,2*%
%TO.N,Net-(F1-Pad2)*%
X40385000Y-64521000D03*
%TD*%
D22*
%TO.P,C17,1*%
%TO.N,/PS/24V_F*%
X100185000Y-109298500D03*
%TO.P,C17,2*%
%TO.N,OUT_GND*%
X100185000Y-107223500D03*
%TD*%
D21*
%TO.P,RV1,1*%
%TO.N,/PS/AC_L_SW*%
X50185000Y-66561000D03*
%TO.P,RV1,2*%
%TO.N,/PS/AC_N*%
X48885000Y-74061000D03*
%TD*%
D23*
%TO.P,C2,1*%
%TO.N,/PS/MOS_S*%
X71685000Y-94361000D03*
%TO.P,C2,2*%
%TO.N,GND_DC_S*%
X71685000Y-92811000D03*
%TD*%
D24*
%TO.P,SW1,1,1*%
%TO.N,Net-(F1-Pad2)*%
X43185000Y-49061000D03*
%TO.P,SW1,2,2*%
%TO.N,/PS/AC_L_SW*%
X49185000Y-48061000D03*
%TO.P,SW1,3,3*%
%TO.N,Net-(F1-Pad2)*%
X43185000Y-59061000D03*
%TO.P,SW1,4,4*%
%TO.N,/PS/AC_L_SW*%
X49185000Y-60061000D03*
%TD*%
D25*
%TO.P,C4,1*%
%TO.N,Net-(D3-K)*%
X70215000Y-103436000D03*
%TO.P,C4,2*%
%TO.N,GND_DC_P*%
X70215000Y-104986000D03*
%TD*%
D24*
%TO.P,C12,1*%
%TO.N,OUT_GND*%
X103935000Y-100811000D03*
%TO.P,C12,2*%
%TO.N,DCR_GND*%
X103935000Y-93311000D03*
%TD*%
D26*
%TO.P,C21,1*%
%TO.N,OUT_GND*%
X104235000Y-107223500D03*
%TO.P,C21,2*%
%TO.N,/PS/24V_F*%
X104235000Y-109298500D03*
%TD*%
D24*
%TO.P,C29,1*%
%TO.N,Net-(C29-Pad1)*%
X83835000Y-159011000D03*
%TO.P,C29,2*%
%TO.N,Net-(D8A-A)*%
X83835000Y-151511000D03*
%TD*%
D25*
%TO.P,C10,1*%
%TO.N,GND_DC_S*%
X73185000Y-92811000D03*
%TO.P,C10,2*%
%TO.N,/PS/OPT_C*%
X73185000Y-94361000D03*
%TD*%
D27*
%TO.P,C26,1*%
%TO.N,/PS/24V_O*%
X96598541Y-153861000D03*
D11*
%TO.P,C26,2*%
%TO.N,OUT_GND*%
X101598541Y-153861000D03*
%TD*%
D28*
%TO.P,C7,1*%
%TO.N,/PS/AC_L_SW*%
X59685000Y-44561000D03*
%TO.P,C7,2*%
%TO.N,/PS/AC_N*%
X59685000Y-67061000D03*
%TD*%
D13*
%TO.P,R3,1*%
%TO.N,Net-(Q1-G)*%
X55360000Y-101086000D03*
%TO.P,R3,2*%
%TO.N,Net-(D2-K)*%
X57010000Y-101086000D03*
%TD*%
D25*
%TO.P,C5,1*%
%TO.N,Net-(D3-K)*%
X71715000Y-103436000D03*
%TO.P,C5,2*%
%TO.N,GND_DC_P*%
X71715000Y-104986000D03*
%TD*%
D13*
%TO.P,R2,1*%
%TO.N,Net-(Q1-G)*%
X55360000Y-102561000D03*
%TO.P,R2,2*%
%TO.N,Net-(D1-A)*%
X57010000Y-102561000D03*
%TD*%
D29*
%TO.P,D4,1,K*%
%TO.N,Net-(D4-K)*%
X66935000Y-109761000D03*
%TO.P,D4,2,A*%
%TO.N,/PS/AUX*%
X66935000Y-111861000D03*
%TD*%
D27*
%TO.P,C25,1*%
%TO.N,/PS/24V_O*%
X107798541Y-142561000D03*
D11*
%TO.P,C25,2*%
%TO.N,OUT_GND*%
X112798541Y-142561000D03*
%TD*%
D30*
%TO.P,R5,1*%
%TO.N,Net-(Q1-S)*%
X45635000Y-89561000D03*
%TO.P,R5,2*%
%TO.N,GND_DC_P*%
X51735000Y-89561000D03*
%TD*%
D29*
%TO.P,D3,1,K*%
%TO.N,Net-(D3-K)*%
X66965000Y-103136000D03*
%TO.P,D3,2,A*%
%TO.N,Net-(D3-A)*%
X66965000Y-105236000D03*
%TD*%
D31*
%TO.P,U2,1*%
%TO.N,Net-(R12-Pad1)*%
X87510000Y-110186000D03*
D32*
%TO.P,U2,2*%
%TO.N,Net-(U3-K)*%
X87510000Y-107646000D03*
%TO.P,U2,3,NC*%
%TO.N,unconnected-(U2-NC-Pad3)*%
X87510000Y-105106000D03*
%TO.P,U2,4*%
%TO.N,GND_DC_S*%
X79890000Y-105106000D03*
%TO.P,U2,5*%
%TO.N,/PS/OPT_C*%
X79890000Y-107646000D03*
%TO.P,U2,6*%
%TO.N,unconnected-(U2-Pad6)*%
X79890000Y-110186000D03*
%TD*%
D28*
%TO.P,C11,1*%
%TO.N,Net-(C11-Pad1)*%
X88685000Y-44061000D03*
%TO.P,C11,2*%
%TO.N,/PS/AC_R_I_2*%
X88685000Y-66561000D03*
%TD*%
D27*
%TO.P,C16,1*%
%TO.N,/PS/AC_R_O*%
X109685000Y-77061000D03*
D11*
%TO.P,C16,2*%
%TO.N,DCR_GND*%
X109685000Y-84561000D03*
%TD*%
D26*
%TO.P,C28,1*%
%TO.N,OUT_GND*%
X88185000Y-134486000D03*
%TO.P,C28,2*%
%TO.N,/PS/24V_O*%
X88185000Y-136561000D03*
%TD*%
D33*
%TO.P,D2,1,K*%
%TO.N,Net-(D2-K)*%
X58235000Y-100886000D03*
%TO.P,D2,2,A*%
%TO.N,/PS/TR_GAT*%
X60335000Y-100886000D03*
%TD*%
D34*
%TO.P,C6,1*%
%TO.N,Net-(D4-K)*%
X70435000Y-109311000D03*
%TO.P,C6,2*%
%TO.N,GND_DC_P*%
X72935000Y-109311000D03*
%TD*%
D11*
%TO.P,R22,1*%
%TO.N,Net-(D7-K)*%
X58685000Y-108561000D03*
D12*
%TO.P,R22,2*%
%TO.N,/PS/AC_R_O*%
X63765000Y-108561000D03*
%TD*%
D27*
%TO.P,C24,1*%
%TO.N,/PS/24V_F*%
X97571459Y-126174541D03*
D11*
%TO.P,C24,2*%
%TO.N,OUT_GND*%
X92571459Y-126174541D03*
%TD*%
D35*
%TO.P,U3,1,K*%
%TO.N,Net-(U3-K)*%
X91560000Y-107698500D03*
%TO.P,U3,2,REF*%
%TO.N,Net-(U3-REF)*%
X93460000Y-107698500D03*
%TO.P,U3,3,A*%
%TO.N,OUT_GND*%
X92510000Y-105823500D03*
%TD*%
D36*
%TO.P,FL1,1,1*%
%TO.N,/PS/AC_N*%
X69185000Y-63811000D03*
%TO.P,FL1,2,2*%
%TO.N,/PS/AC_R_I_2*%
X79185000Y-63811000D03*
%TO.P,FL1,3,3*%
%TO.N,/PS/AC_L_SW*%
X69185000Y-45061000D03*
%TO.P,FL1,4,4*%
%TO.N,Net-(C11-Pad1)*%
X79185000Y-45061000D03*
%TD*%
D37*
%TO.P,C14,1*%
%TO.N,Net-(U3-K)*%
X91735000Y-103761000D03*
%TO.P,C14,2*%
%TO.N,Net-(U3-REF)*%
X93285000Y-103761000D03*
%TD*%
D17*
%TO.P,R8,1*%
%TO.N,Net-(D3-K)*%
X81885000Y-92811000D03*
%TO.P,R8,2*%
%TO.N,Net-(R7-Pad1)*%
X84985000Y-92811000D03*
%TD*%
D15*
%TO.P,H4,1,1*%
%TO.N,unconnected-(H4-Pad1)*%
X113185000Y-39061000D03*
D16*
%TO.N,unconnected-(H4-Pad1)_2*%
X113185000Y-39061000D03*
%TD*%
D24*
%TO.P,C9,1*%
%TO.N,/PS/AC_R_I_2*%
X46185000Y-43061000D03*
%TO.P,C9,2*%
%TO.N,EARTH*%
X46185000Y-38061000D03*
%TD*%
D22*
%TO.P,C27,1*%
%TO.N,/PS/24V_O*%
X90217000Y-136561000D03*
%TO.P,C27,2*%
%TO.N,OUT_GND*%
X90217000Y-134486000D03*
%TD*%
D23*
%TO.P,C1,1*%
%TO.N,Net-(U1-SS)*%
X74685000Y-94361000D03*
%TO.P,C1,2*%
%TO.N,GND_DC_S*%
X74685000Y-92811000D03*
%TD*%
D11*
%TO.P,R24,1*%
%TO.N,Net-(C29-Pad1)*%
X89435000Y-156791000D03*
D12*
%TO.P,R24,2*%
%TO.N,/PS/24V_O*%
X89435000Y-151711000D03*
%TD*%
D10*
%TO.P,R16,1*%
%TO.N,Net-(R16-Pad1)*%
X97671200Y-114066200D03*
%TO.P,R16,2*%
%TO.N,/PS/24V_F*%
X97671200Y-115716200D03*
%TD*%
D34*
%TO.P,TH1,1*%
%TO.N,/PS/AC_R_I_1*%
X97435000Y-55561000D03*
%TO.P,TH1,2*%
%TO.N,Net-(C11-Pad1)*%
X98935000Y-50561000D03*
%TD*%
D13*
%TO.P,R1,1*%
%TO.N,Net-(Q1-S)*%
X67960000Y-94161000D03*
%TO.P,R1,2*%
%TO.N,/PS/MOS_S*%
X69610000Y-94161000D03*
%TD*%
D38*
%TO.P,J1,1,Pin_1*%
%TO.N,/PS/AC_L*%
X40935000Y-74561000D03*
D39*
%TO.P,J1,2,Pin_2*%
%TO.N,/PS/AC_N*%
X40935000Y-82481000D03*
%TD*%
D37*
%TO.P,C15,1*%
%TO.N,Net-(C15-Pad1)*%
X96041200Y-109506200D03*
%TO.P,C15,2*%
%TO.N,Net-(U3-REF)*%
X97591200Y-109506200D03*
%TD*%
D17*
%TO.P,R7,1*%
%TO.N,Net-(R7-Pad1)*%
X87885000Y-92811000D03*
%TO.P,R7,2*%
%TO.N,Net-(R6-Pad1)*%
X90985000Y-92811000D03*
%TD*%
D22*
%TO.P,C20,1*%
%TO.N,/PS/24V_F*%
X106235000Y-109298500D03*
%TO.P,C20,2*%
%TO.N,OUT_GND*%
X106235000Y-107223500D03*
%TD*%
D24*
%TO.P,C8,1*%
%TO.N,Net-(C11-Pad1)*%
X57185000Y-37561000D03*
%TO.P,C8,2*%
%TO.N,EARTH*%
X52185000Y-37561000D03*
%TD*%
D13*
%TO.P,R4,1*%
%TO.N,Net-(Q1-G)*%
X55335000Y-104086000D03*
%TO.P,R4,2*%
%TO.N,GND_DC_P*%
X56985000Y-104086000D03*
%TD*%
D10*
%TO.P,R11,1*%
%TO.N,Net-(U1-OVP)*%
X74685000Y-103411000D03*
%TO.P,R11,2*%
%TO.N,GND_DC_S*%
X74685000Y-105061000D03*
%TD*%
D38*
%TO.P,J2,1,Pin_1*%
%TO.N,OUT_GND*%
X112685000Y-102843500D03*
D39*
%TO.P,J2,2,Pin_2*%
X112685000Y-106803500D03*
%TO.P,J2,3,Pin_3*%
%TO.N,/PS/24V_F*%
X112685000Y-110763500D03*
%TO.P,J2,4,Pin_4*%
X112685000Y-114723500D03*
%TD*%
D40*
%TO.P,D5,1,K*%
%TO.N,Net-(D5-K)*%
X92891200Y-114406200D03*
%TO.P,D5,2,A*%
%TO.N,OUT_GND*%
X90091200Y-114406200D03*
%TD*%
D24*
%TO.P,C22,1*%
%TO.N,Net-(D7-K)*%
X51185000Y-104811000D03*
%TO.P,C22,2*%
%TO.N,Net-(C22-Pad2)*%
X51185000Y-97311000D03*
%TD*%
D41*
%TO.P,C13,1*%
%TO.N,Net-(D5-K)*%
X91535000Y-112511000D03*
%TO.P,C13,2*%
%TO.N,OUT_GND*%
X89985000Y-112511000D03*
%TD*%
D42*
%TO.P,R13,1*%
%TO.N,Net-(U3-K)*%
X91585000Y-109511000D03*
%TO.P,R13,2*%
%TO.N,Net-(R12-Pad1)*%
X89935000Y-109511000D03*
%TD*%
D14*
%TO.P,R9,1*%
%TO.N,Net-(D4-K)*%
X66965000Y-108261000D03*
%TO.P,R9,2*%
%TO.N,Net-(D3-A)*%
X66965000Y-106611000D03*
%TD*%
D10*
%TO.P,R10,1*%
%TO.N,Net-(U1-OVP)*%
X73185000Y-103386000D03*
%TO.P,R10,2*%
%TO.N,/PS/AUX*%
X73185000Y-105036000D03*
%TD*%
D43*
%TO.P,D8,1,A*%
%TO.N,Net-(D8A-A)*%
X83437000Y-141484000D03*
D44*
%TO.P,D8,2,K*%
%TO.N,/PS/24V_O*%
X83437000Y-144024000D03*
%TO.P,D8,3,K*%
%TO.N,Net-(D8A-A)*%
X83437000Y-146564000D03*
%TD*%
D25*
%TO.P,C3,1*%
%TO.N,Net-(D3-K)*%
X68715000Y-103436000D03*
%TO.P,C3,2*%
%TO.N,GND_DC_P*%
X68715000Y-104986000D03*
%TD*%
D45*
%TO.P,HS2,*%
%TO.N,*%
X89185000Y-144061000D03*
%TD*%
D15*
%TO.P,H3,1,1*%
%TO.N,unconnected-(H3-Pad1)_1*%
X38185000Y-157561000D03*
D16*
%TO.N,unconnected-(H3-Pad1)*%
X38185000Y-157561000D03*
%TD*%
D26*
%TO.P,C18,1*%
%TO.N,OUT_GND*%
X102235000Y-107223500D03*
%TO.P,C18,2*%
%TO.N,/PS/24V_F*%
X102235000Y-109298500D03*
%TD*%
D27*
%TO.P,C23,1*%
%TO.N,/PS/24V_F*%
X107798541Y-127561000D03*
D11*
%TO.P,C23,2*%
%TO.N,OUT_GND*%
X112798541Y-127561000D03*
%TD*%
D42*
%TO.P,R14,1*%
%TO.N,Net-(C15-Pad1)*%
X94616200Y-109506200D03*
%TO.P,R14,2*%
%TO.N,Net-(U3-K)*%
X92966200Y-109506200D03*
%TD*%
D46*
%TO.P,D7,1,K*%
%TO.N,Net-(D7-K)*%
X53585000Y-109061000D03*
%TO.P,D7,2,A*%
%TO.N,/PS/TR_SW*%
X49285000Y-109061000D03*
%TD*%
D47*
%TO.P,D1,1,K*%
%TO.N,/PS/TR_GAT*%
X60335000Y-102786000D03*
%TO.P,D1,2,A*%
%TO.N,Net-(D1-A)*%
X58235000Y-102786000D03*
%TD*%
D24*
%TO.P,L1,1*%
%TO.N,/PS/24V_F*%
X98185000Y-134561000D03*
%TO.P,L1,2*%
%TO.N,/PS/24V_O*%
X98185000Y-142561000D03*
%TD*%
D48*
%TO.P,U1,1,SS*%
%TO.N,Net-(U1-SS)*%
X74120000Y-96461000D03*
%TO.P,U1,2,FB*%
%TO.N,/PS/OPT_C*%
X72850000Y-96461000D03*
%TO.P,U1,3,CS*%
%TO.N,/PS/MOS_S*%
X71580000Y-96461000D03*
%TO.P,U1,4,GND*%
%TO.N,GND_DC_S*%
X70310000Y-96461000D03*
%TO.P,U1,5,OUT*%
%TO.N,/PS/TR_GAT*%
X70310000Y-101411000D03*
%TO.P,U1,6,VDD*%
%TO.N,Net-(D3-K)*%
X71580000Y-101411000D03*
%TO.P,U1,7,OVP*%
%TO.N,Net-(U1-OVP)*%
X72850000Y-101411000D03*
%TO.P,U1,8,STATUS*%
%TO.N,unconnected-(U1-STATUS-Pad8)*%
X74120000Y-101411000D03*
%TD*%
D43*
%TO.P,Q1,1,G*%
%TO.N,Net-(Q1-G)*%
X45685000Y-105101000D03*
D44*
%TO.P,Q1,2,D*%
%TO.N,/PS/TR_SW*%
X45685000Y-102561000D03*
%TO.P,Q1,3,S*%
%TO.N,Net-(Q1-S)*%
X45685000Y-100021000D03*
%TD*%
D15*
%TO.P,H1,1,1*%
%TO.N,EARTH*%
X38185000Y-39061000D03*
D16*
X38185000Y-39061000D03*
%TD*%
D49*
%TO.N,/PS/TR_GAT*%
X66185000Y-101411000D03*
X60335000Y-101886000D03*
%TO.N,Net-(Q1-S)*%
X66633000Y-94161000D03*
X58685000Y-94761000D03*
%TO.N,DCR_GND*%
X114085000Y-74761000D03*
X114185000Y-67761000D03*
X114085000Y-76761000D03*
X114085000Y-72661000D03*
X114085000Y-70561000D03*
%TO.N,OUT_GND*%
X90685000Y-132961000D03*
X88941200Y-112506200D03*
X89185000Y-132961000D03*
X92491200Y-106906200D03*
X87535000Y-132961000D03*
X89091200Y-114506200D03*
X95291200Y-112756200D03*
%TO.N,GND_DC_S*%
X71685000Y-91561000D03*
X73185000Y-91561000D03*
X70685000Y-98061000D03*
%TO.N,GND_DC_P*%
X71785000Y-105961000D03*
X53585000Y-91361000D03*
X70185000Y-105961000D03*
X52785000Y-92961000D03*
X56985000Y-92961000D03*
X55585000Y-92961000D03*
X58160000Y-104086000D03*
X55385000Y-91361000D03*
X51385000Y-92961000D03*
X68785000Y-105961000D03*
X56985000Y-91361000D03*
X54185000Y-92961000D03*
%TD*%
D50*
%TO.N,EARTH*%
X46185000Y-38061000D02*
X39185000Y-38061000D01*
X52185000Y-38061000D02*
X46185000Y-38061000D01*
D51*
%TO.N,/PS/AC_R_O*%
X96985000Y-78461000D02*
X98135000Y-77311000D01*
X96985000Y-92811000D02*
X96985000Y-78461000D01*
X98135000Y-77311000D02*
X101435000Y-77311000D01*
%TO.N,/PS/AUX*%
X71685000Y-110661000D02*
X70485000Y-111861000D01*
X42622000Y-124898000D02*
X43585000Y-125861000D01*
X66935000Y-116311000D02*
X66935000Y-111861000D01*
X65585000Y-117661000D02*
X66935000Y-116311000D01*
X70485000Y-111861000D02*
X66935000Y-111861000D01*
X73185000Y-106361000D02*
X71685000Y-107861000D01*
X63585000Y-125861000D02*
X65585000Y-123861000D01*
X42622000Y-120857000D02*
X42622000Y-124898000D01*
X71685000Y-107861000D02*
X71685000Y-110661000D01*
X73185000Y-105036000D02*
X73185000Y-106361000D01*
X43585000Y-125861000D02*
X63585000Y-125861000D01*
X65585000Y-123861000D02*
X65585000Y-117661000D01*
%TO.N,/PS/TR_GAT*%
X66185000Y-101411000D02*
X70310000Y-101411000D01*
X60335000Y-102786000D02*
X60335000Y-100886000D01*
X60335000Y-101886000D02*
X60335000Y-100886000D01*
%TO.N,Net-(U3-REF)*%
X93460000Y-103936000D02*
X93285000Y-103761000D01*
X96983500Y-107698500D02*
X97591200Y-108306200D01*
X97591200Y-108306200D02*
X97591200Y-109506200D01*
X97671200Y-111094200D02*
X96171200Y-111094200D01*
X97671200Y-111094200D02*
X97671200Y-109586200D01*
X93460000Y-107698500D02*
X93460000Y-103936000D01*
X93460000Y-107698500D02*
X96983500Y-107698500D01*
%TO.N,/PS/MOS_S*%
X71580000Y-96461000D02*
X71580000Y-94466000D01*
D52*
X69810000Y-94361000D02*
X69610000Y-94161000D01*
X71685000Y-94361000D02*
X69810000Y-94361000D01*
%TO.N,/PS/OPT_C*%
X76785000Y-106761000D02*
X77670000Y-107646000D01*
X76785000Y-99761000D02*
X76785000Y-106761000D01*
X72850000Y-96461000D02*
X72850000Y-94696000D01*
X75585000Y-98561000D02*
X76785000Y-99761000D01*
X72850000Y-96461000D02*
X72850000Y-97826000D01*
X72850000Y-97826000D02*
X73585000Y-98561000D01*
X77670000Y-107646000D02*
X79890000Y-107646000D01*
X73585000Y-98561000D02*
X75585000Y-98561000D01*
D51*
%TO.N,Net-(U3-K)*%
X91585000Y-107723500D02*
X91560000Y-107698500D01*
X91560000Y-107698500D02*
X91560000Y-103936000D01*
X87562500Y-107698500D02*
X91560000Y-107698500D01*
X91589800Y-109506200D02*
X91585000Y-109511000D01*
X92966200Y-109506200D02*
X91589800Y-109506200D01*
X91585000Y-109511000D02*
X91585000Y-107723500D01*
X91560000Y-103936000D02*
X91735000Y-103761000D01*
X87510000Y-107646000D02*
X87562500Y-107698500D01*
D50*
%TO.N,Net-(Q1-S)*%
X66633000Y-94161000D02*
X67960000Y-94161000D01*
X47385000Y-94761000D02*
X46785000Y-94161000D01*
X58685000Y-94761000D02*
X47385000Y-94761000D01*
D51*
%TO.N,OUT_GND*%
X88946000Y-112511000D02*
X88941200Y-112506200D01*
X89985000Y-112511000D02*
X88946000Y-112511000D01*
X92510000Y-106887400D02*
X92491200Y-106906200D01*
X90110000Y-114511000D02*
X89096000Y-114511000D01*
X92510000Y-105823500D02*
X92510000Y-106887400D01*
X89991200Y-114506200D02*
X90091200Y-114406200D01*
X95303200Y-112744200D02*
X95291200Y-112756200D01*
X96171200Y-112744200D02*
X95303200Y-112744200D01*
X89096000Y-114511000D02*
X89091200Y-114506200D01*
X89091200Y-114506200D02*
X89991200Y-114506200D01*
%TO.N,Net-(D5-K)*%
X91585000Y-111011000D02*
X91585000Y-112461000D01*
X91535000Y-112511000D02*
X92096000Y-112511000D01*
X92910000Y-114511000D02*
X94286400Y-114511000D01*
X94286400Y-114511000D02*
X94731200Y-114066200D01*
X92910000Y-113325000D02*
X92910000Y-114511000D01*
X94731200Y-114066200D02*
X96171200Y-114066200D01*
X91585000Y-112461000D02*
X91535000Y-112511000D01*
X92096000Y-112511000D02*
X92910000Y-113325000D01*
%TO.N,Net-(U1-SS)*%
X74120000Y-94926000D02*
X74685000Y-94361000D01*
X74120000Y-96461000D02*
X74120000Y-94926000D01*
%TO.N,Net-(D4-K)*%
X66965000Y-109731000D02*
X66935000Y-109761000D01*
X66965000Y-108261000D02*
X66965000Y-109731000D01*
X66935000Y-109761000D02*
X69985000Y-109761000D01*
X69985000Y-109761000D02*
X70435000Y-109311000D01*
D52*
%TO.N,Net-(D2-K)*%
X58235000Y-100886000D02*
X57210000Y-100886000D01*
D50*
%TO.N,Net-(C11-Pad1)*%
X79185000Y-40061000D02*
X79185000Y-45061000D01*
X57185000Y-37561000D02*
X76685000Y-37561000D01*
X76685000Y-37561000D02*
X79185000Y-40061000D01*
D53*
%TO.N,Net-(D7-K)*%
X53585000Y-106961000D02*
X51435000Y-104811000D01*
X53585000Y-109061000D02*
X53585000Y-106961000D01*
X58685000Y-108561000D02*
X54085000Y-108561000D01*
X54085000Y-108561000D02*
X53585000Y-109061000D01*
D52*
%TO.N,Net-(D1-A)*%
X58235000Y-102786000D02*
X57235000Y-102786000D01*
D51*
%TO.N,Net-(U1-OVP)*%
X72850000Y-103051000D02*
X73185000Y-103386000D01*
X72850000Y-101411000D02*
X72850000Y-103051000D01*
X73185000Y-103386000D02*
X74660000Y-103386000D01*
%TO.N,Net-(C15-Pad1)*%
X94616200Y-109506200D02*
X96041200Y-109506200D01*
%TO.N,Net-(R6-Pad1)*%
X93885000Y-92811000D02*
X90985000Y-92811000D01*
%TO.N,Net-(Q1-G)*%
X46848554Y-105101000D02*
X45685000Y-105101000D01*
X50863554Y-101086000D02*
X46848554Y-105101000D01*
X55335000Y-102586000D02*
X55360000Y-102561000D01*
X55360000Y-102561000D02*
X55360000Y-101086000D01*
X55335000Y-104086000D02*
X55335000Y-102586000D01*
X55360000Y-101086000D02*
X50863554Y-101086000D01*
D52*
%TO.N,GND_DC_S*%
X72185000Y-99561000D02*
X70685000Y-98061000D01*
X74685000Y-105061000D02*
X75435000Y-105061000D01*
X75435000Y-105061000D02*
X75935000Y-104561000D01*
X70310000Y-97686000D02*
X70685000Y-98061000D01*
X75185000Y-99561000D02*
X72185000Y-99561000D01*
X70310000Y-96461000D02*
X70310000Y-97686000D01*
X75935000Y-104561000D02*
X75935000Y-100311000D01*
X75935000Y-100311000D02*
X75185000Y-99561000D01*
%TO.N,GND_DC_P*%
X71785000Y-105961000D02*
X71785000Y-105056000D01*
X68715000Y-105891000D02*
X68785000Y-105961000D01*
D51*
X56985000Y-104086000D02*
X58160000Y-104086000D01*
D52*
X68715000Y-104986000D02*
X68715000Y-105891000D01*
X70185000Y-105961000D02*
X70185000Y-105016000D01*
D51*
X68715000Y-104986000D02*
X71715000Y-104986000D01*
%TO.N,/PS/24V_F*%
X97671200Y-115716200D02*
X96171200Y-115716200D01*
X97671200Y-115716200D02*
X100429800Y-115716200D01*
X100429800Y-115716200D02*
X100435000Y-115711000D01*
%TO.N,Net-(R7-Pad1)*%
X87885000Y-92811000D02*
X84985000Y-92811000D01*
D53*
%TO.N,Net-(C22-Pad2)*%
X51785000Y-96961000D02*
X51435000Y-97311000D01*
X56695000Y-96961000D02*
X51785000Y-96961000D01*
%TO.N,Net-(C29-Pad1)*%
X89435000Y-156791000D02*
X86055000Y-156791000D01*
X86055000Y-156791000D02*
X83835000Y-159011000D01*
D51*
%TO.N,Net-(R12-Pad1)*%
X89935000Y-111011000D02*
X89935000Y-109511000D01*
X87510000Y-110186000D02*
X88035000Y-109661000D01*
X88035000Y-109661000D02*
X89785000Y-109661000D01*
X89785000Y-109661000D02*
X89935000Y-109511000D01*
%TO.N,Net-(R16-Pad1)*%
X97671200Y-114066200D02*
X97671200Y-112744200D01*
D52*
%TO.N,Net-(D3-K)*%
X68785000Y-91461000D02*
X68785000Y-97641001D01*
D51*
X68715000Y-103436000D02*
X70215000Y-103436000D01*
D52*
X77985000Y-90361000D02*
X69885000Y-90361000D01*
D51*
X70215000Y-103436000D02*
X71715000Y-103436000D01*
X71580000Y-101411000D02*
X71580000Y-103301000D01*
X66965000Y-103136000D02*
X68415000Y-103136000D01*
D52*
X68785000Y-97641001D02*
X71580000Y-100436001D01*
D51*
X68415000Y-103136000D02*
X68715000Y-103436000D01*
X71580000Y-103301000D02*
X71715000Y-103436000D01*
D52*
X69885000Y-90361000D02*
X68785000Y-91461000D01*
X81885000Y-92811000D02*
X80435000Y-92811000D01*
X80435000Y-92811000D02*
X77985000Y-90361000D01*
X71580000Y-100436001D02*
X71580000Y-101411000D01*
%TO.N,Net-(D3-A)*%
X66965000Y-106611000D02*
X66965000Y-105236000D01*
%TD*%
%TA.AperFunction,Conductor*%
%TO.N,Net-(Q1-S)*%
G36*
X47193059Y-87312061D02*
G01*
X47298223Y-87325906D01*
X47329491Y-87334284D01*
X47419918Y-87371740D01*
X47447952Y-87387925D01*
X47525602Y-87447509D01*
X47548491Y-87470398D01*
X47608074Y-87548048D01*
X47624259Y-87576081D01*
X47661715Y-87666508D01*
X47670093Y-87697775D01*
X47683939Y-87802939D01*
X47685000Y-87819125D01*
X47685000Y-99652874D01*
X47683939Y-99669060D01*
X47670093Y-99774224D01*
X47661715Y-99805491D01*
X47624259Y-99895918D01*
X47608074Y-99923951D01*
X47548491Y-100001601D01*
X47525601Y-100024491D01*
X47447951Y-100084074D01*
X47419918Y-100100259D01*
X47329491Y-100137715D01*
X47298224Y-100146093D01*
X47204398Y-100158446D01*
X47193058Y-100159939D01*
X47176874Y-100161000D01*
X40693126Y-100161000D01*
X40676941Y-100159939D01*
X40663917Y-100158224D01*
X40571775Y-100146093D01*
X40540508Y-100137715D01*
X40450081Y-100100259D01*
X40422048Y-100084074D01*
X40344398Y-100024491D01*
X40321508Y-100001601D01*
X40261925Y-99923951D01*
X40245740Y-99895918D01*
X40208284Y-99805491D01*
X40199906Y-99774223D01*
X40186061Y-99669059D01*
X40185000Y-99652874D01*
X40185000Y-87819125D01*
X40186061Y-87802940D01*
X40199906Y-87697776D01*
X40208284Y-87666508D01*
X40245740Y-87576081D01*
X40261923Y-87548050D01*
X40321513Y-87470392D01*
X40344392Y-87447513D01*
X40422050Y-87387923D01*
X40450079Y-87371740D01*
X40540509Y-87334283D01*
X40571775Y-87325906D01*
X40676941Y-87312061D01*
X40693126Y-87311000D01*
X47176874Y-87311000D01*
X47193059Y-87312061D01*
G37*
%TD.AperFunction*%
%TD*%
%TA.AperFunction,Conductor*%
%TO.N,Net-(D8A-A)*%
G36*
X84693059Y-137562061D02*
G01*
X84798223Y-137575906D01*
X84829491Y-137584284D01*
X84919918Y-137621740D01*
X84947952Y-137637925D01*
X85025602Y-137697509D01*
X85048491Y-137720398D01*
X85108074Y-137798048D01*
X85124259Y-137826081D01*
X85161715Y-137916508D01*
X85170093Y-137947775D01*
X85183939Y-138052939D01*
X85185000Y-138069125D01*
X85185000Y-141923500D01*
X85165315Y-141990539D01*
X85112511Y-142036294D01*
X85061000Y-142047500D01*
X85019357Y-142047500D01*
X85001089Y-142047825D01*
X84995480Y-142048025D01*
X84992199Y-142048143D01*
X84976184Y-142049001D01*
X84973896Y-142049124D01*
X84831085Y-142080191D01*
X84765616Y-142104610D01*
X84765614Y-142104610D01*
X84637343Y-142174650D01*
X84533998Y-142277992D01*
X84533984Y-142278008D01*
X84492817Y-142332999D01*
X84492209Y-142333796D01*
X84492116Y-142333937D01*
X84474103Y-142366927D01*
X84424698Y-142416332D01*
X84365271Y-142431500D01*
X82499645Y-142431500D01*
X82432606Y-142411815D01*
X82405454Y-142388148D01*
X82396670Y-142377888D01*
X82374000Y-142353100D01*
X82276138Y-142278008D01*
X82258047Y-142264126D01*
X82258043Y-142264123D01*
X82222335Y-142244070D01*
X82213976Y-142236425D01*
X82060805Y-142177212D01*
X82060800Y-142177210D01*
X82060797Y-142177209D01*
X82060795Y-142177209D01*
X81915154Y-142165050D01*
X81915151Y-142165050D01*
X81915149Y-142165050D01*
X81880276Y-142167127D01*
X81845398Y-142169205D01*
X81702235Y-142198569D01*
X81702226Y-142198572D01*
X81573135Y-142267078D01*
X81573124Y-142267085D01*
X81516707Y-142308279D01*
X81516700Y-142308285D01*
X81412131Y-142410392D01*
X81386769Y-142443444D01*
X81354539Y-142485447D01*
X81354532Y-142485456D01*
X81354530Y-142485460D01*
X81317221Y-142541296D01*
X81301043Y-142569316D01*
X81301028Y-142569344D01*
X81271323Y-142629580D01*
X81245933Y-142690879D01*
X81233879Y-142719979D01*
X81233867Y-142720010D01*
X81212285Y-142783590D01*
X81212275Y-142783621D01*
X81203901Y-142814877D01*
X81190798Y-142880755D01*
X81176955Y-142985904D01*
X81173661Y-143019342D01*
X81172600Y-143035533D01*
X81171500Y-143069138D01*
X81171500Y-145052860D01*
X81172600Y-145086465D01*
X81173661Y-145102656D01*
X81176955Y-145136094D01*
X81190798Y-145241243D01*
X81203901Y-145307121D01*
X81212280Y-145338392D01*
X81233871Y-145401996D01*
X81233875Y-145402007D01*
X81271329Y-145492429D01*
X81301035Y-145552668D01*
X81317225Y-145580709D01*
X81354529Y-145636539D01*
X81354540Y-145636554D01*
X81414121Y-145714200D01*
X81414136Y-145714217D01*
X81458412Y-145764704D01*
X81481294Y-145787586D01*
X81531781Y-145831862D01*
X81531798Y-145831877D01*
X81609444Y-145891458D01*
X81609459Y-145891469D01*
X81665289Y-145928773D01*
X81693330Y-145944963D01*
X81750477Y-145973144D01*
X81753573Y-145974671D01*
X81844000Y-146012127D01*
X81905924Y-146033147D01*
X81907601Y-146033717D01*
X81907621Y-146033723D01*
X81929306Y-146039533D01*
X81938871Y-146042096D01*
X82004746Y-146055199D01*
X82096444Y-146067272D01*
X82096443Y-146067272D01*
X82096451Y-146067273D01*
X82109919Y-146069046D01*
X82143351Y-146072339D01*
X82159536Y-146073400D01*
X82193126Y-146074500D01*
X82193140Y-146074500D01*
X82274972Y-146074500D01*
X82281317Y-146074159D01*
X82329866Y-146071557D01*
X82329873Y-146071556D01*
X82329877Y-146071556D01*
X82336870Y-146070803D01*
X82356224Y-146068723D01*
X82356243Y-146068720D01*
X82410477Y-146059932D01*
X82410479Y-146059931D01*
X82410482Y-146059931D01*
X82547424Y-146008854D01*
X82547430Y-146008850D01*
X82547434Y-146008849D01*
X82606780Y-145976443D01*
X82608266Y-145975665D01*
X82608743Y-145975371D01*
X82608742Y-145975371D01*
X82608747Y-145975369D01*
X82608749Y-145975368D01*
X82725754Y-145887778D01*
X82765344Y-145848186D01*
X82780140Y-145835549D01*
X82885000Y-145759364D01*
X82901590Y-145749198D01*
X83017090Y-145690347D01*
X83035054Y-145682904D01*
X83158365Y-145642838D01*
X83177251Y-145638304D01*
X83305291Y-145618025D01*
X83324678Y-145616500D01*
X83549321Y-145616500D01*
X83568706Y-145618025D01*
X83696746Y-145638304D01*
X83715635Y-145642839D01*
X83838939Y-145682903D01*
X83856904Y-145690344D01*
X83934399Y-145729830D01*
X83972405Y-145749195D01*
X83988996Y-145759362D01*
X84093865Y-145835554D01*
X84108660Y-145848191D01*
X84148249Y-145887780D01*
X84189147Y-145924517D01*
X84209789Y-145941151D01*
X84254368Y-145973297D01*
X84387316Y-146034014D01*
X84454355Y-146053699D01*
X84454359Y-146053700D01*
X84599029Y-146074500D01*
X85061000Y-146074500D01*
X85128039Y-146094185D01*
X85173794Y-146146989D01*
X85185000Y-146198500D01*
X85185000Y-153252874D01*
X85183939Y-153269060D01*
X85170093Y-153374224D01*
X85161715Y-153405491D01*
X85124259Y-153495918D01*
X85108074Y-153523951D01*
X85048491Y-153601601D01*
X85025601Y-153624491D01*
X84947951Y-153684074D01*
X84919918Y-153700259D01*
X84829491Y-153737715D01*
X84798224Y-153746093D01*
X84704398Y-153758446D01*
X84693058Y-153759939D01*
X84676874Y-153761000D01*
X65693126Y-153761000D01*
X65676941Y-153759939D01*
X65663917Y-153758224D01*
X65571775Y-153746093D01*
X65540508Y-153737715D01*
X65450081Y-153700259D01*
X65422048Y-153684074D01*
X65344398Y-153624491D01*
X65321508Y-153601601D01*
X65261925Y-153523951D01*
X65245740Y-153495918D01*
X65208284Y-153405491D01*
X65199906Y-153374223D01*
X65186061Y-153269059D01*
X65185000Y-153252874D01*
X65185000Y-138069125D01*
X65186061Y-138052940D01*
X65199906Y-137947776D01*
X65208284Y-137916508D01*
X65245740Y-137826081D01*
X65261923Y-137798050D01*
X65321513Y-137720392D01*
X65344392Y-137697513D01*
X65422050Y-137637923D01*
X65450079Y-137621740D01*
X65540509Y-137584283D01*
X65571775Y-137575906D01*
X65676941Y-137562061D01*
X65693126Y-137561000D01*
X84676874Y-137561000D01*
X84693059Y-137562061D01*
G37*
%TD.AperFunction*%
%TD*%
%TA.AperFunction,Conductor*%
%TO.N,/PS/AC_R_O*%
G36*
X108572707Y-64063381D02*
G01*
X108651354Y-64079024D01*
X108696046Y-64097537D01*
X108762714Y-64142083D01*
X108781504Y-64157504D01*
X111106495Y-66482495D01*
X111121916Y-66501285D01*
X111158602Y-66556189D01*
X111179480Y-66622866D01*
X111179500Y-66625080D01*
X111179500Y-70846638D01*
X111187830Y-70991021D01*
X111187834Y-70991064D01*
X111191110Y-71019361D01*
X111201151Y-71076853D01*
X111203000Y-71098186D01*
X111203000Y-71161000D01*
X99685000Y-71161000D01*
X99685000Y-64373210D01*
X99687381Y-64349029D01*
X99703025Y-64270379D01*
X99721534Y-64225693D01*
X99759168Y-64169370D01*
X99793370Y-64135168D01*
X99849693Y-64097534D01*
X99894381Y-64079024D01*
X99945377Y-64068881D01*
X99969560Y-64066500D01*
X107372775Y-64066500D01*
X107372789Y-64066500D01*
X107481690Y-64061149D01*
X107487775Y-64061000D01*
X108548525Y-64061000D01*
X108572707Y-64063381D01*
G37*
%TD.AperFunction*%
%TD*%
%TA.AperFunction,Conductor*%
%TO.N,OUT_GND*%
G36*
X92128039Y-132330685D02*
G01*
X92173794Y-132383489D01*
X92185000Y-132435000D01*
X92185000Y-134987000D01*
X92165315Y-135054039D01*
X92112511Y-135099794D01*
X92061000Y-135111000D01*
X86309000Y-135111000D01*
X86241961Y-135091315D01*
X86196206Y-135038511D01*
X86185000Y-134987000D01*
X86185000Y-132512362D01*
X86204685Y-132445323D01*
X86221319Y-132424681D01*
X86298681Y-132347319D01*
X86360004Y-132313834D01*
X86386362Y-132311000D01*
X92061000Y-132311000D01*
X92128039Y-132330685D01*
G37*
%TD.AperFunction*%
%TD*%
%TA.AperFunction,Conductor*%
%TO.N,GND_DC_S*%
G36*
X70458980Y-97419756D02*
G01*
X70462103Y-97425380D01*
X70491650Y-97552515D01*
X70491652Y-97552518D01*
X70575266Y-97614887D01*
X70631272Y-97629273D01*
X70693644Y-97645295D01*
X70694030Y-97645401D01*
X70828654Y-97685291D01*
X70831854Y-97686797D01*
X70956060Y-97770241D01*
X70961016Y-97777699D01*
X70959247Y-97786478D01*
X70957823Y-97788212D01*
X70688441Y-98058546D01*
X70680174Y-98061987D01*
X70680124Y-98061987D01*
X70295769Y-98061026D01*
X70287504Y-98057578D01*
X70284136Y-98050264D01*
X70272000Y-97899392D01*
X70271999Y-97899388D01*
X70241003Y-97786804D01*
X70241000Y-97786795D01*
X70241000Y-97786794D01*
X70204201Y-97691056D01*
X70203849Y-97689988D01*
X70173292Y-97578998D01*
X70172911Y-97576833D01*
X70161017Y-97428967D01*
X70163769Y-97420446D01*
X70171741Y-97416367D01*
X70172679Y-97416329D01*
X70450707Y-97416329D01*
X70458980Y-97419756D01*
G37*
%TD.AperFunction*%
%TD*%
%TA.AperFunction,Conductor*%
%TO.N,GND_DC_S*%
G36*
X71052203Y-97912599D02*
G01*
X71058521Y-97918946D01*
X71058705Y-97919422D01*
X71112858Y-98069284D01*
X71113095Y-98070015D01*
X71147829Y-98190352D01*
X71183678Y-98291494D01*
X71183679Y-98291495D01*
X71245121Y-98394444D01*
X71349458Y-98512376D01*
X71352373Y-98520842D01*
X71348968Y-98528401D01*
X71152401Y-98724968D01*
X71144128Y-98728395D01*
X71136376Y-98725458D01*
X71018444Y-98621121D01*
X70957001Y-98584450D01*
X70915494Y-98559678D01*
X70814352Y-98523829D01*
X70694015Y-98489095D01*
X70693284Y-98488858D01*
X70543422Y-98434705D01*
X70536806Y-98428670D01*
X70536394Y-98419725D01*
X70536578Y-98419249D01*
X70546786Y-98394443D01*
X70682437Y-98064802D01*
X70688753Y-98058457D01*
X71043249Y-97912578D01*
X71052203Y-97912599D01*
G37*
%TD.AperFunction*%
%TD*%
%TA.AperFunction,Conductor*%
%TO.N,/PS/AC_R_O*%
G36*
X111217124Y-71179103D02*
G01*
X111216241Y-71179468D01*
X111232166Y-71208633D01*
X111235000Y-71234991D01*
X111235000Y-79348789D01*
X111232617Y-79372982D01*
X111224588Y-79413344D01*
X111206072Y-79458043D01*
X111190122Y-79481913D01*
X111155913Y-79516122D01*
X111132043Y-79532072D01*
X111087344Y-79550588D01*
X111070841Y-79553870D01*
X111046978Y-79558617D01*
X111022789Y-79561000D01*
X93267838Y-79561000D01*
X93191308Y-79576222D01*
X93191304Y-79576224D01*
X93126425Y-79619575D01*
X93126417Y-79619581D01*
X84452215Y-88293784D01*
X84433425Y-88309205D01*
X84399201Y-88332073D01*
X84354501Y-88350588D01*
X84314137Y-88358617D01*
X84289946Y-88361000D01*
X68467838Y-88361000D01*
X68391308Y-88376222D01*
X68391304Y-88376224D01*
X68326425Y-88419575D01*
X68326417Y-88419581D01*
X66263581Y-90482417D01*
X66263575Y-90482425D01*
X66220224Y-90547304D01*
X66220222Y-90547308D01*
X66205000Y-90623838D01*
X66205000Y-92469169D01*
X66185315Y-92536208D01*
X66132511Y-92581963D01*
X66125883Y-92584544D01*
X66125891Y-92584563D01*
X66121392Y-92586426D01*
X66121390Y-92586427D01*
X66071894Y-92606928D01*
X65881376Y-92685843D01*
X65659859Y-92821588D01*
X65462311Y-92990311D01*
X65293588Y-93187859D01*
X65157843Y-93409376D01*
X65058427Y-93649389D01*
X64997778Y-93902009D01*
X64977396Y-94161000D01*
X64997778Y-94419990D01*
X65058427Y-94672610D01*
X65157843Y-94912623D01*
X65157845Y-94912627D01*
X65157846Y-94912628D01*
X65293588Y-95134140D01*
X65462311Y-95331689D01*
X65659860Y-95500412D01*
X65881372Y-95636154D01*
X65881374Y-95636154D01*
X65881376Y-95636156D01*
X65997294Y-95684171D01*
X66121390Y-95735573D01*
X66121392Y-95735573D01*
X66125891Y-95737437D01*
X66125257Y-95738965D01*
X66176981Y-95774321D01*
X66204190Y-95838676D01*
X66205000Y-95852830D01*
X66205000Y-99639197D01*
X66185315Y-99706236D01*
X66132511Y-99751991D01*
X66090729Y-99762815D01*
X65926009Y-99775778D01*
X65673389Y-99836427D01*
X65433376Y-99935843D01*
X65211859Y-100071588D01*
X65014311Y-100240311D01*
X64845588Y-100437859D01*
X64709843Y-100659376D01*
X64610427Y-100899389D01*
X64549778Y-101152009D01*
X64529396Y-101411000D01*
X64549778Y-101669990D01*
X64610427Y-101922610D01*
X64709843Y-102162623D01*
X64709845Y-102162627D01*
X64709846Y-102162628D01*
X64845588Y-102384140D01*
X65014311Y-102581689D01*
X65211860Y-102750412D01*
X65410122Y-102871907D01*
X65456997Y-102923718D01*
X65468420Y-102992648D01*
X65467806Y-102997028D01*
X65464500Y-103017905D01*
X65464500Y-103254097D01*
X65488142Y-103403365D01*
X65489494Y-103416184D01*
X65492269Y-103468414D01*
X65492269Y-103468415D01*
X65510184Y-103561044D01*
X65536325Y-103696208D01*
X65580587Y-103813494D01*
X65618244Y-103913280D01*
X65618249Y-103913292D01*
X65735671Y-104113385D01*
X65736390Y-104114402D01*
X65736561Y-104114902D01*
X65738338Y-104117930D01*
X65737722Y-104118291D01*
X65759027Y-104180502D01*
X65742334Y-104248349D01*
X65736390Y-104257598D01*
X65735671Y-104258614D01*
X65618249Y-104458707D01*
X65618244Y-104458719D01*
X65582888Y-104552408D01*
X65536325Y-104675792D01*
X65536324Y-104675794D01*
X65536324Y-104675796D01*
X65492269Y-104903584D01*
X65492269Y-104903585D01*
X65489501Y-104955689D01*
X65489500Y-104955728D01*
X65489500Y-105516283D01*
X65491195Y-105548198D01*
X65475093Y-105616187D01*
X65473892Y-105618246D01*
X65382417Y-105771762D01*
X65382417Y-105771763D01*
X65295040Y-105995689D01*
X65295037Y-105995699D01*
X65245706Y-106230967D01*
X65245705Y-106230970D01*
X65239500Y-106330922D01*
X65239500Y-106891055D01*
X65239501Y-106891078D01*
X65245706Y-106991031D01*
X65295037Y-107226300D01*
X65295041Y-107226310D01*
X65359273Y-107390925D01*
X65365305Y-107460534D01*
X65359273Y-107481075D01*
X65295041Y-107645689D01*
X65295037Y-107645699D01*
X65245706Y-107880967D01*
X65245705Y-107880970D01*
X65239500Y-107980922D01*
X65239500Y-108541055D01*
X65239501Y-108541078D01*
X65245706Y-108641031D01*
X65295037Y-108876300D01*
X65295040Y-108876310D01*
X65382416Y-109100235D01*
X65382418Y-109100238D01*
X65447022Y-109208657D01*
X65464500Y-109272130D01*
X65464500Y-109405170D01*
X65462664Y-109424326D01*
X65462789Y-109424342D01*
X65462267Y-109428589D01*
X65459494Y-109480812D01*
X65458142Y-109493633D01*
X65434500Y-109642902D01*
X65434500Y-109879097D01*
X65458142Y-110028365D01*
X65459494Y-110041184D01*
X65462269Y-110093414D01*
X65462269Y-110093415D01*
X65490967Y-110241799D01*
X65506325Y-110321208D01*
X65556014Y-110452876D01*
X65588244Y-110538280D01*
X65588249Y-110538292D01*
X65705671Y-110738385D01*
X65706390Y-110739402D01*
X65706561Y-110739902D01*
X65708338Y-110742930D01*
X65707722Y-110743291D01*
X65729027Y-110805502D01*
X65712334Y-110873349D01*
X65706390Y-110882598D01*
X65705671Y-110883614D01*
X65588249Y-111083707D01*
X65588244Y-111083719D01*
X65568326Y-111136500D01*
X65506325Y-111300792D01*
X65506324Y-111300794D01*
X65506324Y-111300796D01*
X65462269Y-111528584D01*
X65462269Y-111528585D01*
X65459494Y-111580815D01*
X65458142Y-111593633D01*
X65434500Y-111742902D01*
X65434500Y-115638111D01*
X65414815Y-115705150D01*
X65398181Y-115725792D01*
X64440485Y-116683487D01*
X64440484Y-116683488D01*
X64301657Y-116874565D01*
X64222288Y-117030337D01*
X64194433Y-117085003D01*
X64121446Y-117309631D01*
X64084500Y-117542902D01*
X64084500Y-118410642D01*
X64064815Y-118477681D01*
X64012011Y-118523436D01*
X63942853Y-118533380D01*
X63914853Y-118525935D01*
X63723960Y-118450356D01*
X63416163Y-118371327D01*
X63100902Y-118331500D01*
X63100891Y-118331500D01*
X62783109Y-118331500D01*
X62783097Y-118331500D01*
X62467836Y-118371327D01*
X62160034Y-118450357D01*
X62160031Y-118450358D01*
X61864576Y-118567336D01*
X61864575Y-118567337D01*
X61586094Y-118720434D01*
X61586090Y-118720436D01*
X61329004Y-118907220D01*
X61329001Y-118907223D01*
X61097352Y-119124756D01*
X60894784Y-119369618D01*
X60724513Y-119637923D01*
X60724510Y-119637929D01*
X60589209Y-119925456D01*
X60589207Y-119925461D01*
X60491008Y-120227687D01*
X60431460Y-120539848D01*
X60431459Y-120539855D01*
X60411507Y-120856994D01*
X60411507Y-120857005D01*
X60431459Y-121174144D01*
X60431460Y-121174151D01*
X60491008Y-121486312D01*
X60589207Y-121788538D01*
X60589209Y-121788543D01*
X60724510Y-122076070D01*
X60724513Y-122076076D01*
X60894784Y-122344381D01*
X60894787Y-122344385D01*
X60894788Y-122344386D01*
X61097350Y-122589242D01*
X61329003Y-122806778D01*
X61586094Y-122993566D01*
X61864568Y-123146659D01*
X61864573Y-123146661D01*
X61864575Y-123146662D01*
X61864576Y-123146663D01*
X62160031Y-123263641D01*
X62160034Y-123263642D01*
X62467836Y-123342672D01*
X62783097Y-123382499D01*
X62783106Y-123382499D01*
X62783109Y-123382500D01*
X62783111Y-123382500D01*
X63100889Y-123382500D01*
X63100891Y-123382500D01*
X63100894Y-123382499D01*
X63100902Y-123382499D01*
X63416163Y-123342672D01*
X63416167Y-123342671D01*
X63723965Y-123263642D01*
X63724056Y-123263605D01*
X63724085Y-123263603D01*
X63727675Y-123262437D01*
X63727938Y-123263249D01*
X63793632Y-123257220D01*
X63855617Y-123289464D01*
X63890329Y-123350101D01*
X63886748Y-123419878D01*
X63857399Y-123466573D01*
X63345292Y-123978681D01*
X63283969Y-124012166D01*
X63257611Y-124015000D01*
X55161211Y-124015000D01*
X55137020Y-124012617D01*
X55121744Y-124009578D01*
X55096656Y-124004588D01*
X55051956Y-123986072D01*
X55028086Y-123970122D01*
X54993877Y-123935913D01*
X54977927Y-123912043D01*
X54959412Y-123867346D01*
X54951381Y-123826971D01*
X54949000Y-123802789D01*
X54949000Y-122191656D01*
X54968303Y-122125214D01*
X54974930Y-122114770D01*
X54999488Y-122076074D01*
X55134793Y-121788537D01*
X55232993Y-121486308D01*
X55292539Y-121174155D01*
X55312493Y-120857000D01*
X55292539Y-120539845D01*
X55232993Y-120227692D01*
X55134793Y-119925463D01*
X54999488Y-119637926D01*
X54999485Y-119637922D01*
X54999482Y-119637915D01*
X54968303Y-119588784D01*
X54949000Y-119522343D01*
X54949000Y-112307210D01*
X54951381Y-112283029D01*
X54959412Y-112242651D01*
X54977927Y-112197956D01*
X54993877Y-112174086D01*
X55028086Y-112139877D01*
X55051956Y-112123927D01*
X55096653Y-112105412D01*
X55137027Y-112097381D01*
X55161211Y-112095000D01*
X59835001Y-112095000D01*
X59835002Y-112094999D01*
X59854395Y-112091142D01*
X59911535Y-112079777D01*
X59911535Y-112079776D01*
X59911537Y-112079776D01*
X59976421Y-112036421D01*
X60019776Y-111971537D01*
X60019776Y-111971535D01*
X60019777Y-111971535D01*
X60034999Y-111895004D01*
X60035000Y-111895001D01*
X60035000Y-110672333D01*
X60054685Y-110605294D01*
X60086115Y-110572015D01*
X60170241Y-110510894D01*
X60250096Y-110452876D01*
X60474869Y-110241799D01*
X60671416Y-110004216D01*
X60836635Y-109743871D01*
X60967922Y-109464873D01*
X61063206Y-109171619D01*
X61120984Y-108868736D01*
X61126347Y-108783500D01*
X61140345Y-108561005D01*
X61140345Y-108560994D01*
X61120985Y-108253274D01*
X61120984Y-108253267D01*
X61120984Y-108253264D01*
X61063206Y-107950381D01*
X60967922Y-107657127D01*
X60967919Y-107657120D01*
X60836637Y-107378132D01*
X60836633Y-107378126D01*
X60671422Y-107117793D01*
X60671420Y-107117791D01*
X60671416Y-107117784D01*
X60474869Y-106880201D01*
X60250096Y-106669124D01*
X60209148Y-106639373D01*
X60086114Y-106549983D01*
X60043449Y-106494652D01*
X60035000Y-106449665D01*
X60035000Y-104402874D01*
X60054685Y-104335835D01*
X60107489Y-104290080D01*
X60176647Y-104280136D01*
X60178399Y-104280401D01*
X60216904Y-104286500D01*
X60216908Y-104286500D01*
X60453096Y-104286500D01*
X60518183Y-104276190D01*
X60602379Y-104262855D01*
X60615186Y-104261505D01*
X60615280Y-104261500D01*
X60667412Y-104258731D01*
X60895208Y-104214675D01*
X61112282Y-104132755D01*
X61183285Y-104091088D01*
X61312385Y-104015329D01*
X61312388Y-104015327D01*
X61489770Y-103865772D01*
X61489772Y-103865770D01*
X61639327Y-103688388D01*
X61639329Y-103688385D01*
X61756749Y-103488292D01*
X61756755Y-103488282D01*
X61838675Y-103271208D01*
X61882731Y-103043412D01*
X61885500Y-102991280D01*
X61885500Y-102580720D01*
X61882731Y-102528588D01*
X61881081Y-102520057D01*
X61887675Y-102450501D01*
X61888264Y-102449053D01*
X61909573Y-102397610D01*
X61970221Y-102144994D01*
X61990604Y-101886000D01*
X61970221Y-101627006D01*
X61909573Y-101374390D01*
X61875077Y-101291112D01*
X61867609Y-101221645D01*
X61867867Y-101220262D01*
X61882731Y-101143412D01*
X61885500Y-101091280D01*
X61885500Y-100680720D01*
X61882731Y-100628588D01*
X61838675Y-100400792D01*
X61756755Y-100183718D01*
X61756749Y-100183707D01*
X61639329Y-99983614D01*
X61639327Y-99983611D01*
X61489772Y-99806229D01*
X61489770Y-99806227D01*
X61312388Y-99656672D01*
X61312385Y-99656670D01*
X61112292Y-99539250D01*
X61112280Y-99539244D01*
X61065259Y-99521499D01*
X60895208Y-99457325D01*
X60895203Y-99457324D01*
X60667414Y-99413269D01*
X60615184Y-99410494D01*
X60602365Y-99409142D01*
X60453097Y-99385500D01*
X60453092Y-99385500D01*
X60216908Y-99385500D01*
X60216907Y-99385500D01*
X60178396Y-99391599D01*
X60109103Y-99382643D01*
X60055652Y-99337646D01*
X60035013Y-99270894D01*
X60035000Y-99269125D01*
X60035000Y-95751832D01*
X60053272Y-95687043D01*
X60160154Y-95512628D01*
X60259573Y-95272610D01*
X60320221Y-95019994D01*
X60340604Y-94761000D01*
X60320221Y-94502006D01*
X60259573Y-94249390D01*
X60160154Y-94009372D01*
X60117269Y-93939390D01*
X60053272Y-93834954D01*
X60035000Y-93770165D01*
X60035000Y-86235521D01*
X60037636Y-86210090D01*
X60037768Y-86209459D01*
X60046497Y-86167804D01*
X60066915Y-86121223D01*
X60092008Y-86086052D01*
X60108923Y-86066881D01*
X76219064Y-71221757D01*
X76237372Y-71207796D01*
X76270551Y-71187068D01*
X76313296Y-71170378D01*
X76331510Y-71166948D01*
X76351725Y-71163142D01*
X76374672Y-71161000D01*
X99485001Y-71161000D01*
X111209626Y-71161000D01*
X111217124Y-71179103D01*
G37*
%TD.AperFunction*%
%TD*%
%TA.AperFunction,Conductor*%
%TO.N,OUT_GND*%
G36*
X115178039Y-99580685D02*
G01*
X115223794Y-99633489D01*
X115235000Y-99685000D01*
X115235000Y-107687000D01*
X115215315Y-107754039D01*
X115162511Y-107799794D01*
X115111000Y-107811000D01*
X99409000Y-107811000D01*
X99341961Y-107791315D01*
X99296206Y-107738511D01*
X99285000Y-107687000D01*
X99285000Y-101362362D01*
X99304685Y-101295323D01*
X99321319Y-101274681D01*
X100998681Y-99597319D01*
X101060004Y-99563834D01*
X101086362Y-99561000D01*
X115111000Y-99561000D01*
X115178039Y-99580685D01*
G37*
%TD.AperFunction*%
%TD*%
%TA.AperFunction,Conductor*%
%TO.N,/PS/24V_O*%
G36*
X91693059Y-135762061D02*
G01*
X91798223Y-135775906D01*
X91829491Y-135784284D01*
X91919918Y-135821740D01*
X91947952Y-135837925D01*
X92025602Y-135897509D01*
X92048491Y-135920398D01*
X92108074Y-135998048D01*
X92124259Y-136026081D01*
X92161715Y-136116508D01*
X92170093Y-136147775D01*
X92183939Y-136252939D01*
X92185000Y-136269125D01*
X92185000Y-137060993D01*
X92185001Y-137061009D01*
X92202036Y-137190408D01*
X92202038Y-137190413D01*
X92251984Y-137310995D01*
X92251984Y-137310996D01*
X92251986Y-137310999D01*
X92251987Y-137311000D01*
X92331447Y-137414553D01*
X92435000Y-137494013D01*
X92435003Y-137494014D01*
X92435004Y-137494015D01*
X92495295Y-137518988D01*
X92555590Y-137543963D01*
X92685000Y-137561000D01*
X109676874Y-137561000D01*
X109693059Y-137562061D01*
X109798223Y-137575906D01*
X109829491Y-137584284D01*
X109919918Y-137621740D01*
X109947952Y-137637925D01*
X110025602Y-137697509D01*
X110048491Y-137720398D01*
X110108074Y-137798048D01*
X110124259Y-137826081D01*
X110161715Y-137916508D01*
X110170093Y-137947775D01*
X110183939Y-138052939D01*
X110185000Y-138069125D01*
X110185000Y-148052874D01*
X110183939Y-148069060D01*
X110170093Y-148174224D01*
X110161715Y-148205491D01*
X110124259Y-148295918D01*
X110108074Y-148323951D01*
X110048491Y-148401601D01*
X110025601Y-148424491D01*
X109947951Y-148484074D01*
X109919918Y-148500259D01*
X109829491Y-148537715D01*
X109798224Y-148546093D01*
X109704398Y-148558446D01*
X109693058Y-148559939D01*
X109676874Y-148561000D01*
X99685000Y-148561000D01*
X99684994Y-148561000D01*
X99684990Y-148561001D01*
X99555591Y-148578036D01*
X99555586Y-148578038D01*
X99435004Y-148627984D01*
X99435003Y-148627984D01*
X99331447Y-148707447D01*
X99251984Y-148811003D01*
X99251984Y-148811004D01*
X99202038Y-148931586D01*
X99202036Y-148931591D01*
X99185001Y-149060990D01*
X99185000Y-149061006D01*
X99185000Y-159102874D01*
X99183939Y-159119060D01*
X99170093Y-159224224D01*
X99161715Y-159255491D01*
X99124259Y-159345918D01*
X99108074Y-159373951D01*
X99048491Y-159451601D01*
X99025601Y-159474491D01*
X98947951Y-159534074D01*
X98919918Y-159550259D01*
X98829491Y-159587715D01*
X98798224Y-159596093D01*
X98704398Y-159608446D01*
X98693058Y-159609939D01*
X98676874Y-159611000D01*
X92843126Y-159611000D01*
X92826941Y-159609939D01*
X92813917Y-159608224D01*
X92721775Y-159596093D01*
X92690508Y-159587715D01*
X92600081Y-159550259D01*
X92572048Y-159534074D01*
X92494398Y-159474491D01*
X92471508Y-159451601D01*
X92411925Y-159373951D01*
X92395740Y-159345918D01*
X92358284Y-159255491D01*
X92349906Y-159224223D01*
X92336061Y-159119059D01*
X92335000Y-159102874D01*
X92335000Y-154311006D01*
X92335000Y-154311000D01*
X92317963Y-154181590D01*
X92268015Y-154061004D01*
X92268015Y-154061003D01*
X92268013Y-154061000D01*
X92188553Y-153957447D01*
X92085000Y-153877987D01*
X92084997Y-153877986D01*
X92084995Y-153877984D01*
X91964413Y-153828038D01*
X91964408Y-153828036D01*
X91835009Y-153811001D01*
X91835006Y-153811000D01*
X91835000Y-153811000D01*
X91834993Y-153811000D01*
X86693126Y-153811000D01*
X86676941Y-153809939D01*
X86663917Y-153808224D01*
X86571775Y-153796093D01*
X86540508Y-153787715D01*
X86450081Y-153750259D01*
X86422048Y-153734074D01*
X86344398Y-153674491D01*
X86321508Y-153651601D01*
X86261925Y-153573951D01*
X86245740Y-153545918D01*
X86208284Y-153455491D01*
X86199906Y-153424223D01*
X86186061Y-153319059D01*
X86185000Y-153302874D01*
X86185000Y-146061006D01*
X86185000Y-146061000D01*
X86167963Y-145931590D01*
X86118015Y-145811004D01*
X86118015Y-145811003D01*
X86118013Y-145811000D01*
X86038553Y-145707447D01*
X85935000Y-145627987D01*
X85934997Y-145627986D01*
X85934995Y-145627984D01*
X85814413Y-145578038D01*
X85814408Y-145578036D01*
X85685009Y-145561001D01*
X85685006Y-145561000D01*
X85685000Y-145561000D01*
X85684993Y-145561000D01*
X84599029Y-145561000D01*
X84531990Y-145541315D01*
X84511348Y-145524681D01*
X84436280Y-145449613D01*
X84436278Y-145449611D01*
X84250231Y-145314440D01*
X84045333Y-145210039D01*
X83826618Y-145138973D01*
X83599488Y-145103000D01*
X83599483Y-145103000D01*
X83274517Y-145103000D01*
X83274512Y-145103000D01*
X83047381Y-145138973D01*
X82828666Y-145210039D01*
X82623768Y-145314440D01*
X82437719Y-145449613D01*
X82362652Y-145524681D01*
X82301329Y-145558166D01*
X82274971Y-145561000D01*
X82193126Y-145561000D01*
X82176941Y-145559939D01*
X82163473Y-145558166D01*
X82071775Y-145546093D01*
X82040508Y-145537715D01*
X81950081Y-145500259D01*
X81922048Y-145484074D01*
X81844398Y-145424491D01*
X81821508Y-145401601D01*
X81761925Y-145323951D01*
X81745740Y-145295918D01*
X81708284Y-145205491D01*
X81699906Y-145174223D01*
X81686061Y-145069059D01*
X81685000Y-145052874D01*
X81685000Y-144061000D01*
X87521372Y-144061000D01*
X87541854Y-144321249D01*
X87602796Y-144575089D01*
X87602797Y-144575091D01*
X87702696Y-144816271D01*
X87839095Y-145038853D01*
X87839098Y-145038858D01*
X87893881Y-145103000D01*
X88008637Y-145237363D01*
X88098883Y-145314440D01*
X88207141Y-145406901D01*
X88207146Y-145406904D01*
X88429728Y-145543303D01*
X88513582Y-145578036D01*
X88670911Y-145643204D01*
X88924751Y-145704146D01*
X89185000Y-145724628D01*
X89445249Y-145704146D01*
X89699089Y-145643204D01*
X89940271Y-145543303D01*
X90162856Y-145406903D01*
X90361363Y-145237363D01*
X90530903Y-145038856D01*
X90667303Y-144816271D01*
X90767204Y-144575089D01*
X90828146Y-144321249D01*
X90848628Y-144061000D01*
X90828146Y-143800751D01*
X90767204Y-143546911D01*
X90667303Y-143305729D01*
X90667303Y-143305728D01*
X90530904Y-143083146D01*
X90530901Y-143083141D01*
X90415288Y-142947776D01*
X90361363Y-142884637D01*
X90252839Y-142791949D01*
X90162858Y-142715098D01*
X90162853Y-142715095D01*
X89940271Y-142578696D01*
X89699091Y-142478797D01*
X89699089Y-142478796D01*
X89525445Y-142437107D01*
X89445250Y-142417854D01*
X89185000Y-142397372D01*
X88924749Y-142417854D01*
X88764357Y-142456361D01*
X88670911Y-142478796D01*
X88670909Y-142478796D01*
X88670908Y-142478797D01*
X88429728Y-142578696D01*
X88207146Y-142715095D01*
X88207141Y-142715098D01*
X88008637Y-142884637D01*
X87839098Y-143083141D01*
X87839095Y-143083146D01*
X87702696Y-143305728D01*
X87611403Y-143526131D01*
X87602796Y-143546911D01*
X87541854Y-143800751D01*
X87521372Y-144061000D01*
X81685000Y-144061000D01*
X81685000Y-143069125D01*
X81686061Y-143052940D01*
X81699906Y-142947776D01*
X81708284Y-142916508D01*
X81720346Y-142887388D01*
X81745740Y-142826079D01*
X81761923Y-142798050D01*
X81819515Y-142722996D01*
X81875940Y-142681796D01*
X81945686Y-142677641D01*
X82006606Y-142711853D01*
X82017155Y-142724174D01*
X82073739Y-142799761D01*
X82190796Y-142887389D01*
X82327799Y-142938489D01*
X82355050Y-142941418D01*
X82388345Y-142944999D01*
X82388362Y-142945000D01*
X84485638Y-142945000D01*
X84485654Y-142944999D01*
X84512692Y-142942091D01*
X84546201Y-142938489D01*
X84683204Y-142887389D01*
X84800261Y-142799761D01*
X84887889Y-142682704D01*
X84903196Y-142641664D01*
X84945067Y-142585733D01*
X85010531Y-142561316D01*
X85019377Y-142561000D01*
X85684993Y-142561000D01*
X85685000Y-142561000D01*
X85814410Y-142543963D01*
X85934995Y-142494015D01*
X85934996Y-142494015D01*
X85934996Y-142494014D01*
X85935000Y-142494013D01*
X86038553Y-142414553D01*
X86118013Y-142311000D01*
X86167963Y-142190410D01*
X86185000Y-142061000D01*
X86185000Y-136269125D01*
X86186061Y-136252940D01*
X86199906Y-136147776D01*
X86208284Y-136116508D01*
X86245740Y-136026081D01*
X86261923Y-135998050D01*
X86321513Y-135920392D01*
X86344392Y-135897513D01*
X86422050Y-135837923D01*
X86450079Y-135821740D01*
X86540509Y-135784283D01*
X86571775Y-135775906D01*
X86676941Y-135762061D01*
X86693126Y-135761000D01*
X91676874Y-135761000D01*
X91693059Y-135762061D01*
G37*
%TD.AperFunction*%
%TD*%
%TA.AperFunction,Conductor*%
%TO.N,GND_DC_S*%
G36*
X76700677Y-91080685D02*
G01*
X76721319Y-91097319D01*
X80648681Y-95024681D01*
X80682166Y-95086004D01*
X80685000Y-95112362D01*
X80685000Y-105937000D01*
X80665315Y-106004039D01*
X80612511Y-106049794D01*
X80561000Y-106061000D01*
X77809000Y-106061000D01*
X77741961Y-106041315D01*
X77696206Y-105988511D01*
X77685000Y-105937000D01*
X77685000Y-94811000D01*
X76135000Y-93261000D01*
X71309000Y-93261000D01*
X71241961Y-93241315D01*
X71196206Y-93188511D01*
X71185000Y-93137000D01*
X71185000Y-91185000D01*
X71204685Y-91117961D01*
X71257489Y-91072206D01*
X71309000Y-91061000D01*
X76633638Y-91061000D01*
X76700677Y-91080685D01*
G37*
%TD.AperFunction*%
%TD*%
%TA.AperFunction,Conductor*%
%TO.N,DCR_GND*%
G36*
X112435000Y-82561000D02*
G01*
X107935000Y-82561000D01*
X107935000Y-87111000D01*
X115385000Y-87111000D01*
X116685000Y-85811000D01*
X116685000Y-87567525D01*
X116682617Y-87591716D01*
X116666976Y-87670348D01*
X116648461Y-87715048D01*
X116603916Y-87781714D01*
X116588495Y-87800504D01*
X110112504Y-94276495D01*
X110093714Y-94291916D01*
X110027048Y-94336461D01*
X109982348Y-94354976D01*
X109903716Y-94370617D01*
X109879525Y-94373000D01*
X101497211Y-94373000D01*
X101473020Y-94370617D01*
X101394387Y-94354976D01*
X101349689Y-94336462D01*
X101293373Y-94298833D01*
X101259166Y-94264626D01*
X101221535Y-94208308D01*
X101203024Y-94163618D01*
X101187381Y-94084971D01*
X101185000Y-94060789D01*
X101185000Y-81823210D01*
X101187381Y-81799029D01*
X101203025Y-81720379D01*
X101221534Y-81675693D01*
X101259168Y-81619370D01*
X101293370Y-81585168D01*
X101349693Y-81547534D01*
X101394379Y-81529025D01*
X101473028Y-81513381D01*
X101497211Y-81511000D01*
X112135001Y-81511000D01*
X112435000Y-81511000D01*
X112435000Y-82561000D01*
G37*
%TD.AperFunction*%
%TD*%
%TA.AperFunction,Conductor*%
%TO.N,/PS/24V_F*%
G36*
X112609064Y-108661316D02*
G01*
X112684999Y-108666747D01*
X112685000Y-108666747D01*
X112685001Y-108666747D01*
X112760936Y-108661316D01*
X112769782Y-108661000D01*
X114626874Y-108661000D01*
X114643059Y-108662061D01*
X114748223Y-108675906D01*
X114779491Y-108684284D01*
X114869918Y-108721740D01*
X114897952Y-108737925D01*
X114975602Y-108797509D01*
X114998491Y-108820398D01*
X115058074Y-108898048D01*
X115074259Y-108926081D01*
X115111715Y-109016508D01*
X115120093Y-109047775D01*
X115133939Y-109152939D01*
X115135000Y-109169125D01*
X115135000Y-119395767D01*
X115133939Y-119411953D01*
X115120093Y-119517117D01*
X115111715Y-119548383D01*
X115074260Y-119638808D01*
X115058075Y-119666842D01*
X114993496Y-119751003D01*
X114982801Y-119763198D01*
X110281451Y-124464547D01*
X110281445Y-124464554D01*
X110201987Y-124568106D01*
X110201984Y-124568111D01*
X110152038Y-124688693D01*
X110152036Y-124688698D01*
X110135001Y-124818097D01*
X110135000Y-124818113D01*
X110135000Y-132345767D01*
X110133939Y-132361953D01*
X110120093Y-132467117D01*
X110111715Y-132498383D01*
X110074260Y-132588808D01*
X110058075Y-132616842D01*
X109993496Y-132701003D01*
X109982801Y-132713198D01*
X106287198Y-136408801D01*
X106275003Y-136419496D01*
X106190842Y-136484075D01*
X106162808Y-136500260D01*
X106072383Y-136537715D01*
X106041117Y-136546093D01*
X105947291Y-136558446D01*
X105935951Y-136559939D01*
X105919767Y-136561000D01*
X95643126Y-136561000D01*
X95626941Y-136559939D01*
X95613917Y-136558224D01*
X95521775Y-136546093D01*
X95490508Y-136537715D01*
X95400081Y-136500259D01*
X95372048Y-136484074D01*
X95294398Y-136424491D01*
X95271508Y-136401601D01*
X95211925Y-136323951D01*
X95195740Y-136295918D01*
X95158284Y-136205491D01*
X95149906Y-136174223D01*
X95136061Y-136069059D01*
X95135000Y-136052874D01*
X95135000Y-119267529D01*
X95136119Y-119250910D01*
X95150716Y-119142980D01*
X95159544Y-119110938D01*
X95198984Y-119018507D01*
X95216008Y-118989962D01*
X95278583Y-118911330D01*
X95302575Y-118888333D01*
X95390605Y-118824184D01*
X95404679Y-118815310D01*
X99022653Y-116860774D01*
X99130974Y-116781838D01*
X99214434Y-116676963D01*
X99267036Y-116553685D01*
X99285000Y-116420863D01*
X99285000Y-109169125D01*
X99286061Y-109152940D01*
X99299906Y-109047776D01*
X99308284Y-109016508D01*
X99345740Y-108926081D01*
X99361923Y-108898050D01*
X99421513Y-108820392D01*
X99444392Y-108797513D01*
X99522050Y-108737923D01*
X99550079Y-108721740D01*
X99640509Y-108684283D01*
X99671775Y-108675906D01*
X99776941Y-108662061D01*
X99793126Y-108661000D01*
X112600218Y-108661000D01*
X112609064Y-108661316D01*
G37*
%TD.AperFunction*%
%TD*%
%TA.AperFunction,Conductor*%
%TO.N,GND_DC_P*%
G36*
X56300677Y-87430685D02*
G01*
X56321319Y-87447319D01*
X57898681Y-89024681D01*
X57932166Y-89086004D01*
X57935000Y-89112362D01*
X57935000Y-93537000D01*
X57915315Y-93604039D01*
X57862511Y-93649794D01*
X57811000Y-93661000D01*
X50809000Y-93661000D01*
X50741961Y-93641315D01*
X50696206Y-93588511D01*
X50685000Y-93537000D01*
X50685000Y-87535000D01*
X50704685Y-87467961D01*
X50757489Y-87422206D01*
X50809000Y-87411000D01*
X56233638Y-87411000D01*
X56300677Y-87430685D01*
G37*
%TD.AperFunction*%
%TD*%
%TA.AperFunction,Conductor*%
%TO.N,/PS/AC_R_I_1*%
G36*
X104313134Y-53562752D02*
G01*
X104316837Y-53563381D01*
X104337307Y-53566859D01*
X104685000Y-53586385D01*
X105032693Y-53566859D01*
X105053554Y-53563314D01*
X105056866Y-53562752D01*
X105077637Y-53561000D01*
X107372789Y-53561000D01*
X107396971Y-53563381D01*
X107475618Y-53579024D01*
X107520308Y-53597535D01*
X107576626Y-53635166D01*
X107610833Y-53669373D01*
X107648462Y-53725688D01*
X107666976Y-53770387D01*
X107682617Y-53849019D01*
X107685000Y-53873210D01*
X107685000Y-57748789D01*
X107682617Y-57772980D01*
X107666976Y-57851612D01*
X107648462Y-57896311D01*
X107610836Y-57952623D01*
X107576623Y-57986836D01*
X107520311Y-58024462D01*
X107475612Y-58042976D01*
X107396980Y-58058617D01*
X107372789Y-58061000D01*
X106446317Y-58061000D01*
X106379278Y-58041315D01*
X106374562Y-58038130D01*
X106337164Y-58011595D01*
X106032374Y-57843144D01*
X105965741Y-57815544D01*
X105710644Y-57709879D01*
X105543328Y-57661676D01*
X105376017Y-57613474D01*
X105376009Y-57613472D01*
X105032700Y-57555142D01*
X105032688Y-57555140D01*
X104685000Y-57535615D01*
X104337311Y-57555140D01*
X104337299Y-57555142D01*
X103993990Y-57613472D01*
X103993982Y-57613474D01*
X103659359Y-57709878D01*
X103659356Y-57709879D01*
X103565419Y-57748789D01*
X103337625Y-57843144D01*
X103032835Y-58011595D01*
X102995438Y-58038130D01*
X102929372Y-58060869D01*
X102923683Y-58061000D01*
X95497211Y-58061000D01*
X95473020Y-58058617D01*
X95394387Y-58042976D01*
X95349689Y-58024462D01*
X95293373Y-57986833D01*
X95259166Y-57952626D01*
X95221535Y-57896308D01*
X95203024Y-57851618D01*
X95187381Y-57772971D01*
X95185000Y-57748789D01*
X95185000Y-53873210D01*
X95187381Y-53849029D01*
X95203025Y-53770379D01*
X95221534Y-53725693D01*
X95259168Y-53669370D01*
X95293370Y-53635168D01*
X95349693Y-53597534D01*
X95394379Y-53579025D01*
X95473028Y-53563381D01*
X95497211Y-53561000D01*
X104292363Y-53561000D01*
X104313134Y-53562752D01*
G37*
%TD.AperFunction*%
%TD*%
%TA.AperFunction,Conductor*%
%TO.N,/PS/AC_R_I_2*%
G36*
X94028967Y-58830685D02*
G01*
X94056380Y-58854659D01*
X94194601Y-59017157D01*
X94194609Y-59017166D01*
X94194617Y-59017175D01*
X94194625Y-59017183D01*
X94228818Y-59051377D01*
X94266987Y-59088224D01*
X94266992Y-59088229D01*
X94410320Y-59201688D01*
X94456964Y-59238612D01*
X94513280Y-59276241D01*
X94557916Y-59304941D01*
X94773573Y-59415368D01*
X94818271Y-59433882D01*
X94867624Y-59453313D01*
X95100680Y-59519549D01*
X95100695Y-59519552D01*
X95100699Y-59519553D01*
X95179308Y-59535189D01*
X95179313Y-59535190D01*
X95325431Y-59556865D01*
X95349622Y-59559248D01*
X95497211Y-59566500D01*
X95497225Y-59566500D01*
X102923667Y-59566500D01*
X102923683Y-59566500D01*
X102958341Y-59566101D01*
X102964030Y-59565970D01*
X103184638Y-59544570D01*
X103419335Y-59484409D01*
X103485401Y-59461670D01*
X103658399Y-59389801D01*
X103747275Y-59336940D01*
X103750679Y-59334988D01*
X103761071Y-59329244D01*
X103761072Y-59329245D01*
X103985782Y-59205051D01*
X103998300Y-59199023D01*
X104141547Y-59139690D01*
X104141549Y-59139690D01*
X104150952Y-59135794D01*
X104164066Y-59131205D01*
X104322837Y-59085463D01*
X104336384Y-59082371D01*
X104499275Y-59054695D01*
X104513073Y-59053141D01*
X104678054Y-59043877D01*
X104691944Y-59043877D01*
X104856922Y-59053141D01*
X104870724Y-59054696D01*
X105001007Y-59076832D01*
X105033604Y-59082371D01*
X105047161Y-59085465D01*
X105126548Y-59108336D01*
X105126547Y-59108336D01*
X105177746Y-59123085D01*
X105205921Y-59131203D01*
X105205932Y-59131206D01*
X105219057Y-59135799D01*
X105371700Y-59199025D01*
X105384230Y-59205059D01*
X105554482Y-59299155D01*
X105556145Y-59300091D01*
X105728895Y-59399082D01*
X105955118Y-59485828D01*
X106022157Y-59505513D01*
X106204818Y-59547004D01*
X106446317Y-59566500D01*
X106446326Y-59566500D01*
X107372775Y-59566500D01*
X107372789Y-59566500D01*
X107520378Y-59559248D01*
X107544569Y-59556865D01*
X107544635Y-59556855D01*
X107545757Y-59556717D01*
X107545876Y-59556736D01*
X107546085Y-59556716D01*
X107546090Y-59556771D01*
X107614708Y-59568012D01*
X107666607Y-59614791D01*
X107685000Y-59679777D01*
X107685000Y-62248789D01*
X107682617Y-62272980D01*
X107666976Y-62351612D01*
X107648462Y-62396311D01*
X107610836Y-62452623D01*
X107576623Y-62486836D01*
X107520311Y-62524462D01*
X107475612Y-62542976D01*
X107396980Y-62558617D01*
X107372789Y-62561000D01*
X96484995Y-62561000D01*
X96370197Y-62583834D01*
X96370196Y-62583835D01*
X96272868Y-62648868D01*
X96207835Y-62746196D01*
X96207834Y-62746197D01*
X96185000Y-62860995D01*
X96185000Y-68498789D01*
X96182617Y-68522980D01*
X96166976Y-68601612D01*
X96148462Y-68646311D01*
X96110836Y-68702623D01*
X96076623Y-68736836D01*
X96020311Y-68774462D01*
X95975612Y-68792976D01*
X95896980Y-68808617D01*
X95872789Y-68811000D01*
X75997211Y-68811000D01*
X75973020Y-68808617D01*
X75894387Y-68792976D01*
X75849689Y-68774462D01*
X75793373Y-68736833D01*
X75759166Y-68702626D01*
X75721535Y-68646308D01*
X75703024Y-68601618D01*
X75687381Y-68522971D01*
X75685000Y-68498789D01*
X75685000Y-59123210D01*
X75687381Y-59099029D01*
X75703025Y-59020379D01*
X75721534Y-58975693D01*
X75759168Y-58919370D01*
X75793370Y-58885168D01*
X75849693Y-58847534D01*
X75894379Y-58829025D01*
X75973028Y-58813381D01*
X75997211Y-58811000D01*
X93961928Y-58811000D01*
X94028967Y-58830685D01*
G37*
%TD.AperFunction*%
%TD*%
%TA.AperFunction,Conductor*%
%TO.N,Net-(C11-Pad1)*%
G36*
X100396971Y-41063381D02*
G01*
X100475618Y-41079024D01*
X100520308Y-41097535D01*
X100576626Y-41135166D01*
X100610833Y-41169373D01*
X100648462Y-41225688D01*
X100666976Y-41270387D01*
X100682617Y-41349019D01*
X100685000Y-41373210D01*
X100685000Y-51748789D01*
X100682617Y-51772980D01*
X100666976Y-51851612D01*
X100648462Y-51896311D01*
X100610836Y-51952623D01*
X100576623Y-51986836D01*
X100520311Y-52024462D01*
X100475612Y-52042976D01*
X100396980Y-52058617D01*
X100372789Y-52061000D01*
X76997211Y-52061000D01*
X76973020Y-52058617D01*
X76894387Y-52042976D01*
X76849689Y-52024462D01*
X76793373Y-51986833D01*
X76759166Y-51952626D01*
X76721535Y-51896308D01*
X76703024Y-51851618D01*
X76687381Y-51772971D01*
X76685000Y-51748789D01*
X76685000Y-41373210D01*
X76687381Y-41349029D01*
X76703025Y-41270379D01*
X76721534Y-41225693D01*
X76759168Y-41169370D01*
X76793370Y-41135168D01*
X76849693Y-41097534D01*
X76894379Y-41079025D01*
X76973028Y-41063381D01*
X76997211Y-41061000D01*
X100372789Y-41061000D01*
X100396971Y-41063381D01*
G37*
%TD.AperFunction*%
%TD*%
%TA.AperFunction,Conductor*%
%TO.N,/PS/TR_SW*%
G36*
X40333182Y-101375990D02*
G01*
X40407896Y-101390852D01*
X40500038Y-101402983D01*
X40513032Y-101404694D01*
X40594814Y-101412750D01*
X40610999Y-101413811D01*
X40693126Y-101416500D01*
X43870333Y-101416500D01*
X43937372Y-101436185D01*
X43968708Y-101465013D01*
X43977638Y-101476651D01*
X43977647Y-101476661D01*
X44181838Y-101680852D01*
X44181844Y-101680857D01*
X44410953Y-101856658D01*
X44571689Y-101949459D01*
X44661039Y-102001046D01*
X44661044Y-102001048D01*
X44661047Y-102001050D01*
X44788421Y-102053810D01*
X44927846Y-102111562D01*
X44927847Y-102111562D01*
X44927849Y-102111563D01*
X45206794Y-102186306D01*
X45493108Y-102224000D01*
X45493115Y-102224000D01*
X45876885Y-102224000D01*
X45876892Y-102224000D01*
X46163206Y-102186306D01*
X46442151Y-102111563D01*
X46563547Y-102061278D01*
X46633016Y-102053810D01*
X46695496Y-102085085D01*
X46731148Y-102145174D01*
X46735000Y-102175840D01*
X46735000Y-102774000D01*
X46715315Y-102841039D01*
X46662511Y-102886794D01*
X46611000Y-102898000D01*
X44620791Y-102898000D01*
X44620776Y-102898001D01*
X44488586Y-102908404D01*
X44488579Y-102908405D01*
X44270321Y-102963402D01*
X44270318Y-102963403D01*
X44065377Y-103056491D01*
X44065367Y-103056497D01*
X43880354Y-103184674D01*
X43880342Y-103184684D01*
X43721184Y-103343842D01*
X43721174Y-103343854D01*
X43592997Y-103528867D01*
X43592991Y-103528877D01*
X43499903Y-103733818D01*
X43499902Y-103733821D01*
X43444905Y-103952079D01*
X43444904Y-103952086D01*
X43434500Y-104084277D01*
X43434500Y-106117708D01*
X43434501Y-106117723D01*
X43444904Y-106249913D01*
X43444905Y-106249920D01*
X43499902Y-106468178D01*
X43499903Y-106468181D01*
X43592991Y-106673122D01*
X43592997Y-106673132D01*
X43721174Y-106858145D01*
X43721178Y-106858150D01*
X43721181Y-106858154D01*
X43880346Y-107017319D01*
X43880350Y-107017322D01*
X43880354Y-107017325D01*
X44019603Y-107113797D01*
X44065374Y-107145507D01*
X44270317Y-107238596D01*
X44270321Y-107238597D01*
X44488579Y-107293594D01*
X44488581Y-107293594D01*
X44488588Y-107293596D01*
X44620783Y-107304000D01*
X46749216Y-107303999D01*
X46881412Y-107293596D01*
X47099683Y-107238596D01*
X47304626Y-107145507D01*
X47489654Y-107017319D01*
X47648819Y-106858154D01*
X47777007Y-106673126D01*
X47870096Y-106468183D01*
X47925096Y-106249912D01*
X47930342Y-106183250D01*
X47955224Y-106117966D01*
X47966271Y-106105308D01*
X48787787Y-105283792D01*
X48849108Y-105250309D01*
X48918800Y-105255293D01*
X48974733Y-105297165D01*
X48997083Y-105347284D01*
X49006517Y-105394714D01*
X49006521Y-105394729D01*
X49101349Y-105674080D01*
X49231825Y-105938660D01*
X49231829Y-105938667D01*
X49395725Y-106183955D01*
X49590241Y-106405758D01*
X49812044Y-106600274D01*
X50057332Y-106764170D01*
X50057339Y-106764174D01*
X50321922Y-106894652D01*
X50323105Y-106895142D01*
X50323638Y-106895498D01*
X50325564Y-106896448D01*
X50325438Y-106896701D01*
X50363336Y-106922023D01*
X51099828Y-107658515D01*
X51133313Y-107719838D01*
X51133508Y-107771642D01*
X51090919Y-107974757D01*
X51090918Y-107974764D01*
X51084500Y-108078149D01*
X51084500Y-110043850D01*
X51090918Y-110147235D01*
X51090919Y-110147238D01*
X51141950Y-110390615D01*
X51141952Y-110390621D01*
X51176517Y-110479200D01*
X51185000Y-110524276D01*
X51185000Y-118838540D01*
X51165315Y-118905579D01*
X51145884Y-118928932D01*
X50937352Y-119124756D01*
X50734784Y-119369618D01*
X50564513Y-119637923D01*
X50564510Y-119637929D01*
X50429209Y-119925456D01*
X50429207Y-119925461D01*
X50331008Y-120227687D01*
X50271460Y-120539848D01*
X50271459Y-120539855D01*
X50251507Y-120856994D01*
X50251507Y-120857005D01*
X50271459Y-121174144D01*
X50271460Y-121174151D01*
X50331008Y-121486312D01*
X50429207Y-121788538D01*
X50429209Y-121788543D01*
X50564510Y-122076070D01*
X50564513Y-122076076D01*
X50734784Y-122344381D01*
X50734787Y-122344385D01*
X50734788Y-122344386D01*
X50937350Y-122589242D01*
X51142406Y-122781801D01*
X51177799Y-122842041D01*
X51180460Y-122888378D01*
X51170093Y-122967117D01*
X51161715Y-122998383D01*
X51124260Y-123088808D01*
X51108075Y-123116842D01*
X51043496Y-123201003D01*
X51032801Y-123213198D01*
X50337198Y-123908801D01*
X50325003Y-123919496D01*
X50240842Y-123984075D01*
X50212808Y-124000260D01*
X50122383Y-124037715D01*
X50091117Y-124046093D01*
X49997291Y-124058446D01*
X49985951Y-124059939D01*
X49969767Y-124061000D01*
X45900233Y-124061000D01*
X45884048Y-124059939D01*
X45871024Y-124058224D01*
X45778882Y-124046093D01*
X45747616Y-124037715D01*
X45657191Y-124000260D01*
X45629157Y-123984075D01*
X45544996Y-123919496D01*
X45532801Y-123908801D01*
X44837198Y-123213198D01*
X44826503Y-123201003D01*
X44761924Y-123116842D01*
X44745739Y-123088808D01*
X44708284Y-122998383D01*
X44699906Y-122967116D01*
X44686061Y-122861952D01*
X44685000Y-122845767D01*
X44685000Y-122355534D01*
X44704303Y-122289092D01*
X44748501Y-122219445D01*
X44839488Y-122076074D01*
X44974793Y-121788537D01*
X45072993Y-121486308D01*
X45132539Y-121174155D01*
X45152493Y-120857000D01*
X45132539Y-120539845D01*
X45072993Y-120227692D01*
X44974793Y-119925463D01*
X44839488Y-119637926D01*
X44669212Y-119369614D01*
X44466650Y-119124758D01*
X44234997Y-118907222D01*
X44234995Y-118907220D01*
X43977909Y-118720436D01*
X43977908Y-118720435D01*
X43977906Y-118720434D01*
X43699432Y-118567341D01*
X43699429Y-118567339D01*
X43699424Y-118567337D01*
X43699423Y-118567336D01*
X43403969Y-118450359D01*
X43281277Y-118418857D01*
X43224434Y-118386434D01*
X40337198Y-115499198D01*
X40326503Y-115487003D01*
X40261924Y-115402842D01*
X40245739Y-115374808D01*
X40208284Y-115284383D01*
X40199906Y-115253116D01*
X40186061Y-115147952D01*
X40185000Y-115131767D01*
X40185000Y-101497609D01*
X40204685Y-101430570D01*
X40257489Y-101384815D01*
X40326647Y-101374871D01*
X40333182Y-101375990D01*
G37*
%TD.AperFunction*%
%TD*%
%TA.AperFunction,Conductor*%
%TO.N,/PS/AC_N*%
G36*
X71896971Y-61063381D02*
G01*
X71975618Y-61079024D01*
X72020308Y-61097535D01*
X72076626Y-61135166D01*
X72110833Y-61169373D01*
X72148462Y-61225688D01*
X72166976Y-61270387D01*
X72182617Y-61349019D01*
X72185000Y-61373210D01*
X72185000Y-67174525D01*
X72182617Y-67198716D01*
X72166976Y-67277348D01*
X72148461Y-67322048D01*
X72103916Y-67388714D01*
X72088495Y-67407504D01*
X54031504Y-85464495D01*
X54012714Y-85479916D01*
X53946048Y-85524461D01*
X53901348Y-85542976D01*
X53822716Y-85558617D01*
X53798525Y-85561000D01*
X35497211Y-85561000D01*
X35473020Y-85558617D01*
X35394387Y-85542976D01*
X35349689Y-85524462D01*
X35293373Y-85486833D01*
X35259166Y-85452626D01*
X35221535Y-85396308D01*
X35203024Y-85351618D01*
X35187381Y-85272971D01*
X35185000Y-85248789D01*
X35185000Y-79373210D01*
X35187381Y-79349029D01*
X35203025Y-79270379D01*
X35221534Y-79225693D01*
X35259168Y-79169370D01*
X35293370Y-79135168D01*
X35349693Y-79097534D01*
X35394379Y-79079025D01*
X35473028Y-79063381D01*
X35497211Y-79061000D01*
X45635001Y-79061000D01*
X45635002Y-79060999D01*
X45673612Y-79053319D01*
X45749802Y-79038165D01*
X45749802Y-79038164D01*
X45749805Y-79038164D01*
X45847132Y-78973132D01*
X45912164Y-78875805D01*
X45935000Y-78761000D01*
X45935000Y-71623210D01*
X45937381Y-71599029D01*
X45953025Y-71520379D01*
X45971534Y-71475693D01*
X46009168Y-71419370D01*
X46043370Y-71385168D01*
X46099693Y-71347534D01*
X46144379Y-71329025D01*
X46223028Y-71313381D01*
X46247211Y-71311000D01*
X55885001Y-71311000D01*
X55885002Y-71310999D01*
X55923612Y-71303319D01*
X55999802Y-71288165D01*
X55999802Y-71288164D01*
X55999805Y-71288164D01*
X56097132Y-71223132D01*
X56162164Y-71125805D01*
X56185000Y-71011000D01*
X56185000Y-61373210D01*
X56187381Y-61349029D01*
X56203025Y-61270379D01*
X56221534Y-61225693D01*
X56259168Y-61169370D01*
X56293370Y-61135168D01*
X56349693Y-61097534D01*
X56394379Y-61079025D01*
X56473028Y-61063381D01*
X56497211Y-61061000D01*
X71872789Y-61061000D01*
X71896971Y-61063381D01*
G37*
%TD.AperFunction*%
%TD*%
%TA.AperFunction,Conductor*%
%TO.N,Net-(F1-Pad2)*%
G36*
X45396971Y-47063381D02*
G01*
X45475618Y-47079024D01*
X45520308Y-47097535D01*
X45576626Y-47135166D01*
X45610833Y-47169373D01*
X45648462Y-47225688D01*
X45666976Y-47270387D01*
X45682617Y-47349019D01*
X45685000Y-47373210D01*
X45685000Y-61908525D01*
X45682617Y-61932716D01*
X45666976Y-62011348D01*
X45648461Y-62056048D01*
X45603916Y-62122714D01*
X45588495Y-62141504D01*
X42265504Y-65464495D01*
X42246714Y-65479916D01*
X42180048Y-65524461D01*
X42135348Y-65542976D01*
X42056716Y-65558617D01*
X42032525Y-65561000D01*
X35497211Y-65561000D01*
X35473020Y-65558617D01*
X35394387Y-65542976D01*
X35349689Y-65524462D01*
X35293373Y-65486833D01*
X35259166Y-65452626D01*
X35221535Y-65396308D01*
X35203024Y-65351618D01*
X35187381Y-65272971D01*
X35185000Y-65248789D01*
X35185000Y-47373210D01*
X35187381Y-47349029D01*
X35203025Y-47270379D01*
X35221534Y-47225693D01*
X35259168Y-47169370D01*
X35293370Y-47135168D01*
X35349693Y-47097534D01*
X35394379Y-47079025D01*
X35473028Y-47063381D01*
X35497211Y-47061000D01*
X45372789Y-47061000D01*
X45396971Y-47063381D01*
G37*
%TD.AperFunction*%
%TD*%
%TA.AperFunction,Conductor*%
%TO.N,/PS/AC_L_SW*%
G36*
X72388971Y-42071381D02*
G01*
X72467618Y-42087024D01*
X72512308Y-42105535D01*
X72568626Y-42143166D01*
X72602833Y-42177373D01*
X72640462Y-42233688D01*
X72658976Y-42278387D01*
X72674617Y-42357019D01*
X72677000Y-42381210D01*
X72677000Y-50748789D01*
X72674617Y-50772980D01*
X72658976Y-50851612D01*
X72640462Y-50896311D01*
X72602836Y-50952623D01*
X72568623Y-50986836D01*
X72512311Y-51024462D01*
X72467612Y-51042976D01*
X72388980Y-51058617D01*
X72364789Y-51061000D01*
X53984995Y-51061000D01*
X53870197Y-51083834D01*
X53870196Y-51083835D01*
X53772868Y-51148868D01*
X53707835Y-51246196D01*
X53707834Y-51246197D01*
X53685000Y-51360995D01*
X53685000Y-69248789D01*
X53682617Y-69272980D01*
X53666976Y-69351612D01*
X53648462Y-69396311D01*
X53610836Y-69452623D01*
X53576623Y-69486836D01*
X53520311Y-69524462D01*
X53475612Y-69542976D01*
X53396980Y-69558617D01*
X53372789Y-69561000D01*
X47497211Y-69561000D01*
X47473020Y-69558617D01*
X47394387Y-69542976D01*
X47349689Y-69524462D01*
X47293373Y-69486833D01*
X47259166Y-69452626D01*
X47221535Y-69396308D01*
X47203024Y-69351618D01*
X47187381Y-69272971D01*
X47185000Y-69248789D01*
X47185000Y-46220602D01*
X47186478Y-46201514D01*
X47196244Y-46138827D01*
X47207856Y-46102463D01*
X47231885Y-46054405D01*
X47254008Y-46023299D01*
X47298300Y-45977872D01*
X47312677Y-45965242D01*
X52419672Y-42134995D01*
X52436518Y-42124362D01*
X52438450Y-42123349D01*
X52494975Y-42093733D01*
X52532659Y-42081171D01*
X52574184Y-42074433D01*
X52597802Y-42070601D01*
X52617663Y-42069000D01*
X72364789Y-42069000D01*
X72388971Y-42071381D01*
G37*
%TD.AperFunction*%
%TD*%
%TA.AperFunction,Conductor*%
%TO.N,DCR_GND*%
G36*
X107322707Y-46563381D02*
G01*
X107401354Y-46579024D01*
X107446046Y-46597537D01*
X107512714Y-46642083D01*
X107531504Y-46657504D01*
X116588495Y-55714495D01*
X116603916Y-55733285D01*
X116648461Y-55799951D01*
X116666976Y-55844651D01*
X116682617Y-55923283D01*
X116685000Y-55947474D01*
X116685000Y-85811000D01*
X115385000Y-87111000D01*
X115260736Y-87111000D01*
X108235000Y-87111000D01*
X107935000Y-87111000D01*
X107935000Y-82561000D01*
X112135000Y-82561000D01*
X112249805Y-82538164D01*
X112347132Y-82473132D01*
X112412164Y-82375805D01*
X112435000Y-82261000D01*
X112435000Y-79747405D01*
X112440041Y-79712408D01*
X112455961Y-79658295D01*
X112463990Y-79617933D01*
X112482070Y-79496053D01*
X112484453Y-79471860D01*
X112490500Y-79348789D01*
X112490500Y-71234991D01*
X112483305Y-71100774D01*
X112480471Y-71074416D01*
X112475251Y-71032506D01*
X112438280Y-70874967D01*
X112435000Y-70846637D01*
X112435000Y-56185263D01*
X112434999Y-56185259D01*
X112412165Y-56070461D01*
X112412163Y-56070457D01*
X112347135Y-55973136D01*
X112347129Y-55973128D01*
X109022871Y-52648870D01*
X109022863Y-52648864D01*
X108925542Y-52583836D01*
X108925538Y-52583834D01*
X108810740Y-52561000D01*
X108810736Y-52561000D01*
X108680544Y-52561000D01*
X108613505Y-52541315D01*
X108603580Y-52534224D01*
X108413049Y-52383397D01*
X108413045Y-52383394D01*
X108356727Y-52345763D01*
X108338468Y-52334023D01*
X108312091Y-52317062D01*
X108096447Y-52206639D01*
X108096440Y-52206636D01*
X108096432Y-52206632D01*
X108051742Y-52188121D01*
X108051741Y-52188120D01*
X108051713Y-52188109D01*
X108002371Y-52168683D01*
X108002360Y-52168680D01*
X107769312Y-52102449D01*
X107690682Y-52086808D01*
X107690668Y-52086806D01*
X107544508Y-52065127D01*
X107544489Y-52065125D01*
X107520317Y-52062745D01*
X107465960Y-52060075D01*
X107372789Y-52055500D01*
X105077637Y-52055500D01*
X105077630Y-52055500D01*
X104951101Y-52060826D01*
X104930331Y-52062578D01*
X104904116Y-52065902D01*
X104895471Y-52066692D01*
X104691951Y-52078121D01*
X104678046Y-52078121D01*
X104474499Y-52066690D01*
X104465849Y-52065899D01*
X104439681Y-52062579D01*
X104418891Y-52060825D01*
X104292370Y-52055500D01*
X104292363Y-52055500D01*
X102559000Y-52055500D01*
X102491961Y-52035815D01*
X102446206Y-51983011D01*
X102435000Y-51931500D01*
X102435000Y-46947474D01*
X102437381Y-46923293D01*
X102453025Y-46844643D01*
X102471536Y-46799955D01*
X102516088Y-46733278D01*
X102531499Y-46714500D01*
X102588500Y-46657499D01*
X102607278Y-46642088D01*
X102673955Y-46597536D01*
X102718643Y-46579025D01*
X102797292Y-46563381D01*
X102821475Y-46561000D01*
X107298525Y-46561000D01*
X107322707Y-46563381D01*
G37*
%TD.AperFunction*%
%TD*%
%TA.AperFunction,Conductor*%
%TO.N,/PS/AC_L*%
G36*
X44396971Y-68563381D02*
G01*
X44475618Y-68579024D01*
X44520308Y-68597535D01*
X44576626Y-68635166D01*
X44610833Y-68669373D01*
X44648462Y-68725688D01*
X44666976Y-68770387D01*
X44682617Y-68849019D01*
X44685000Y-68873210D01*
X44685000Y-70665843D01*
X44671372Y-70722359D01*
X44580622Y-70899586D01*
X44562130Y-70944232D01*
X44542688Y-70993614D01*
X44476452Y-71226676D01*
X44476451Y-71226680D01*
X44460803Y-71305348D01*
X44439127Y-71451494D01*
X44436746Y-71475675D01*
X44436746Y-71475683D01*
X44429500Y-71623210D01*
X44429500Y-71623223D01*
X44429500Y-76937000D01*
X44409815Y-77004039D01*
X44357011Y-77049794D01*
X44305500Y-77061000D01*
X35497211Y-77061000D01*
X35473020Y-77058617D01*
X35394387Y-77042976D01*
X35349689Y-77024462D01*
X35293373Y-76986833D01*
X35259166Y-76952626D01*
X35221535Y-76896308D01*
X35203024Y-76851618D01*
X35187381Y-76772971D01*
X35185000Y-76748789D01*
X35185000Y-68873210D01*
X35187381Y-68849029D01*
X35203025Y-68770379D01*
X35221534Y-68725693D01*
X35259168Y-68669370D01*
X35293370Y-68635168D01*
X35349693Y-68597534D01*
X35394379Y-68579025D01*
X35473028Y-68563381D01*
X35497211Y-68561000D01*
X44372789Y-68561000D01*
X44396971Y-68563381D01*
G37*
%TD.AperFunction*%
%TD*%
M02*
