%TF.GenerationSoftware,KiCad,Pcbnew,7.99.0-3539-g7abe2e3ea0*%
%TF.CreationDate,2023-11-11T19:40:51+01:00*%
%TF.ProjectId,ACDC150V24,41434443-3135-4305-9632-342e6b696361,rev?*%
%TF.SameCoordinates,Original*%
%TF.FileFunction,Legend,Top*%
%TF.FilePolarity,Positive*%
%FSLAX46Y46*%
G04 Gerber Fmt 4.6, Leading zero omitted, Abs format (unit mm)*
G04 Created by KiCad (PCBNEW 7.99.0-3539-g7abe2e3ea0) date 2023-11-11 19:40:51*
%MOMM*%
%LPD*%
G01*
G04 APERTURE LIST*
G04 Aperture macros list*
%AMRoundRect*
0 Rectangle with rounded corners*
0 $1 Rounding radius*
0 $2 $3 $4 $5 $6 $7 $8 $9 X,Y pos of 4 corners*
0 Add a 4 corners polygon primitive as box body*
4,1,4,$2,$3,$4,$5,$6,$7,$8,$9,$2,$3,0*
0 Add four circle primitives for the rounded corners*
1,1,$1+$1,$2,$3*
1,1,$1+$1,$4,$5*
1,1,$1+$1,$6,$7*
1,1,$1+$1,$8,$9*
0 Add four rect primitives between the rounded corners*
20,1,$1+$1,$2,$3,$4,$5,0*
20,1,$1+$1,$4,$5,$6,$7,0*
20,1,$1+$1,$6,$7,$8,$9,0*
20,1,$1+$1,$8,$9,$2,$3,0*%
G04 Aperture macros list end*
%ADD10C,0.150000*%
%ADD11C,0.360000*%
%ADD12C,0.200000*%
%ADD13C,0.300000*%
%ADD14C,0.120000*%
%ADD15C,0.100000*%
%ADD16C,1.000000*%
%ADD17C,3.000000*%
%ADD18C,2.000000*%
%ADD19RoundRect,0.200000X-0.275000X0.200000X-0.275000X-0.200000X0.275000X-0.200000X0.275000X0.200000X0*%
%ADD20RoundRect,0.200000X-0.200000X-0.275000X0.200000X-0.275000X0.200000X0.275000X-0.200000X0.275000X0*%
%ADD21RoundRect,0.200000X0.275000X-0.200000X0.275000X0.200000X-0.275000X0.200000X-0.275000X-0.200000X0*%
%ADD22C,3.600000*%
%ADD23C,5.600000*%
%ADD24RoundRect,0.250000X-0.400000X-0.625000X0.400000X-0.625000X0.400000X0.625000X-0.400000X0.625000X0*%
%ADD25R,3.200000X3.200000*%
%ADD26C,3.200000*%
%ADD27C,3.000000*%
%ADD28C,1.800000*%
%ADD29RoundRect,0.250000X-0.337500X-0.475000X0.337500X-0.475000X0.337500X0.475000X-0.337500X0.475000X0*%
%ADD30RoundRect,0.225000X-0.250000X0.225000X-0.250000X-0.225000X0.250000X-0.225000X0.250000X0.225000X0*%
%ADD31C,2.000000*%
%ADD32RoundRect,0.225000X-0.225000X-0.250000X0.225000X-0.250000X0.225000X0.250000X-0.225000X0.250000X0*%
%ADD33RoundRect,0.250000X0.337500X0.475000X-0.337500X0.475000X-0.337500X-0.475000X0.337500X-0.475000X0*%
%ADD34RoundRect,0.225000X0.250000X-0.225000X0.250000X0.225000X-0.250000X0.225000X-0.250000X-0.225000X0*%
%ADD35R,2.400000X2.400000*%
%ADD36C,2.400000*%
%ADD37C,1.700000*%
%ADD38RoundRect,0.112500X-0.112500X0.187500X-0.112500X-0.187500X0.112500X-0.187500X0.112500X0.187500X0*%
%ADD39O,2.400000X2.400000*%
%ADD40RoundRect,0.249999X1.425001X-0.450001X1.425001X0.450001X-1.425001X0.450001X-1.425001X-0.450001X0*%
%ADD41R,2.400000X1.600000*%
%ADD42O,2.400000X1.600000*%
%ADD43C,1.600000*%
%ADD44RoundRect,0.150000X0.150000X-0.587500X0.150000X0.587500X-0.150000X0.587500X-0.150000X-0.587500X0*%
%ADD45C,2.300000*%
%ADD46RoundRect,0.250001X-1.099999X1.099999X-1.099999X-1.099999X1.099999X-1.099999X1.099999X1.099999X0*%
%ADD47C,2.700000*%
%ADD48RoundRect,0.200000X0.200000X0.275000X-0.200000X0.275000X-0.200000X-0.275000X0.200000X-0.275000X0*%
%ADD49RoundRect,0.250001X1.099999X1.099999X-1.099999X1.099999X-1.099999X-1.099999X1.099999X-1.099999X0*%
%ADD50RoundRect,0.250000X0.300000X0.300000X-0.300000X0.300000X-0.300000X-0.300000X0.300000X-0.300000X0*%
%ADD51RoundRect,0.225000X0.225000X0.250000X-0.225000X0.250000X-0.225000X-0.250000X0.225000X-0.250000X0*%
%ADD52R,2.000000X1.905000*%
%ADD53O,2.000000X1.905000*%
%ADD54RoundRect,0.250000X-0.900000X1.000000X-0.900000X-1.000000X0.900000X-1.000000X0.900000X1.000000X0*%
%ADD55RoundRect,0.150000X-0.825000X-0.150000X0.825000X-0.150000X0.825000X0.150000X-0.825000X0.150000X0*%
%ADD56R,4.500000X2.500000*%
%ADD57O,4.500000X2.500000*%
G04 APERTURE END LIST*
D10*
X68072000Y23241000D02*
X61341000Y23241000D01*
X64389000Y27305000D02*
X65659000Y27305000D01*
X65659000Y23749000D02*
X61849000Y23749000D01*
X40902000Y63119000D02*
X41902000Y63119000D01*
X61849000Y23749000D02*
X61849000Y25019000D01*
X68834000Y24638000D02*
X68834000Y29972000D01*
X41402000Y63619000D02*
X41402000Y62619000D01*
X64389000Y25019000D02*
X64389000Y27305000D01*
X68834000Y24638000D02*
X68834000Y24003000D01*
X73660000Y33401000D02*
X73660000Y26924000D01*
X73660000Y29972000D02*
X73660000Y33401000D01*
X68834000Y24003000D02*
X68072000Y23241000D01*
X68834000Y29972000D02*
X73660000Y29972000D01*
X65659000Y27305000D02*
X65659000Y23749000D01*
X61341000Y23241000D02*
X61341000Y30226000D01*
X61849000Y25019000D02*
X64389000Y25019000D01*
D11*
G36*
X56271535Y788873D02*
G01*
X54147024Y788873D01*
X54147024Y1816012D01*
X54347024Y1816012D01*
X54373900Y1751125D01*
X54423562Y1701463D01*
X54488449Y1674587D01*
X54523565Y1671128D01*
X55031405Y1672377D01*
X55032739Y1130298D01*
X55059615Y1065411D01*
X55109277Y1015749D01*
X55174164Y988873D01*
X55244396Y988873D01*
X55309283Y1015749D01*
X55358945Y1065411D01*
X55385821Y1130298D01*
X55389280Y1165414D01*
X55388031Y1673254D01*
X55930110Y1674587D01*
X55994997Y1701463D01*
X56044659Y1751125D01*
X56071535Y1816012D01*
X56071535Y1886244D01*
X56044659Y1951131D01*
X55994997Y2000793D01*
X55930110Y2027669D01*
X55894994Y2031128D01*
X55387154Y2029880D01*
X55385821Y2571958D01*
X55358945Y2636845D01*
X55309283Y2686507D01*
X55244396Y2713383D01*
X55174164Y2713383D01*
X55109277Y2686507D01*
X55059615Y2636845D01*
X55032739Y2571958D01*
X55029280Y2536842D01*
X55030528Y2029003D01*
X54488449Y2027669D01*
X54423562Y2000793D01*
X54373900Y1951131D01*
X54347024Y1886244D01*
X54347024Y1816012D01*
X54147024Y1816012D01*
X54147024Y2913383D01*
X56271535Y2913383D01*
X56271535Y788873D01*
G37*
D12*
X3163673Y109876591D02*
X3497006Y109876591D01*
X3639863Y109352781D02*
X3163673Y109352781D01*
X3163673Y109352781D02*
X3163673Y110352781D01*
X3163673Y110352781D02*
X3639863Y110352781D01*
X4020816Y109638496D02*
X4497006Y109638496D01*
X3925578Y109352781D02*
X4258911Y110352781D01*
X4258911Y110352781D02*
X4592244Y109352781D01*
X5497006Y109352781D02*
X5163673Y109828972D01*
X4925578Y109352781D02*
X4925578Y110352781D01*
X4925578Y110352781D02*
X5306530Y110352781D01*
X5306530Y110352781D02*
X5401768Y110305162D01*
X5401768Y110305162D02*
X5449387Y110257543D01*
X5449387Y110257543D02*
X5497006Y110162305D01*
X5497006Y110162305D02*
X5497006Y110019448D01*
X5497006Y110019448D02*
X5449387Y109924210D01*
X5449387Y109924210D02*
X5401768Y109876591D01*
X5401768Y109876591D02*
X5306530Y109828972D01*
X5306530Y109828972D02*
X4925578Y109828972D01*
X5782721Y110352781D02*
X6354149Y110352781D01*
X6068435Y109352781D02*
X6068435Y110352781D01*
X6687483Y109352781D02*
X6687483Y110352781D01*
X6687483Y109876591D02*
X7258911Y109876591D01*
X7258911Y109352781D02*
X7258911Y110352781D01*
D11*
G36*
X2823984Y69359445D02*
G01*
X1035413Y69359445D01*
X1035413Y71539006D01*
X1235413Y71539006D01*
X1238872Y69703890D01*
X1265748Y69639003D01*
X1315410Y69589341D01*
X1380297Y69562465D01*
X1450529Y69562465D01*
X1515416Y69589341D01*
X1565078Y69639003D01*
X1591954Y69703890D01*
X1595413Y69739006D01*
X1593286Y70867147D01*
X2285383Y69660577D01*
X2294319Y69639003D01*
X2302384Y69630938D01*
X2308126Y69620928D01*
X2327049Y69606273D01*
X2343981Y69589341D01*
X2354581Y69584951D01*
X2363654Y69577924D01*
X2386756Y69571624D01*
X2408868Y69562465D01*
X2420338Y69562465D01*
X2431412Y69559445D01*
X2455166Y69562465D01*
X2479100Y69562465D01*
X2489700Y69566856D01*
X2501084Y69568303D01*
X2521865Y69580179D01*
X2543987Y69589341D01*
X2552103Y69597458D01*
X2562062Y69603148D01*
X2576717Y69622072D01*
X2593649Y69639003D01*
X2598039Y69649604D01*
X2605066Y69658676D01*
X2611366Y69681780D01*
X2620525Y69703890D01*
X2622293Y69721845D01*
X2623545Y69726433D01*
X2623094Y69729977D01*
X2623984Y69739006D01*
X2620525Y71574122D01*
X2593649Y71639009D01*
X2543987Y71688671D01*
X2479100Y71715547D01*
X2408868Y71715547D01*
X2343981Y71688671D01*
X2294319Y71639009D01*
X2267443Y71574122D01*
X2263984Y71539006D01*
X2266110Y70410866D01*
X1574013Y71617436D01*
X1565078Y71639009D01*
X1557012Y71647075D01*
X1551271Y71657084D01*
X1532347Y71671740D01*
X1515416Y71688671D01*
X1504815Y71693062D01*
X1495743Y71700088D01*
X1472640Y71706389D01*
X1450529Y71715547D01*
X1439059Y71715547D01*
X1427985Y71718567D01*
X1404231Y71715547D01*
X1380297Y71715547D01*
X1369696Y71711157D01*
X1358313Y71709709D01*
X1337531Y71697834D01*
X1315410Y71688671D01*
X1307293Y71680555D01*
X1297335Y71674864D01*
X1282679Y71655941D01*
X1265748Y71639009D01*
X1261357Y71628409D01*
X1254331Y71619336D01*
X1248030Y71596234D01*
X1238872Y71574122D01*
X1237103Y71556167D01*
X1235852Y71551578D01*
X1236302Y71548036D01*
X1235413Y71539006D01*
X1035413Y71539006D01*
X1035413Y80232703D01*
X1235413Y80232703D01*
X1238872Y78397587D01*
X1265748Y78332700D01*
X1315410Y78283038D01*
X1380297Y78256162D01*
X1415413Y78252703D01*
X2307672Y78256162D01*
X2372559Y78283038D01*
X2422221Y78332700D01*
X2449097Y78397587D01*
X2449097Y78467819D01*
X2422221Y78532706D01*
X2372559Y78582368D01*
X2307672Y78609244D01*
X2272556Y78612703D01*
X1595078Y78610077D01*
X1591954Y80267819D01*
X1565078Y80332706D01*
X1515416Y80382368D01*
X1450529Y80409244D01*
X1380297Y80409244D01*
X1315410Y80382368D01*
X1265748Y80332706D01*
X1238872Y80267819D01*
X1235413Y80232703D01*
X1035413Y80232703D01*
X1035413Y80609244D01*
X2823984Y80609244D01*
X2823984Y69359445D01*
G37*
D13*
X29605653Y114245172D02*
X29105653Y114959458D01*
X28748510Y114245172D02*
X28748510Y115745172D01*
X28748510Y115745172D02*
X29319939Y115745172D01*
X29319939Y115745172D02*
X29462796Y115673743D01*
X29462796Y115673743D02*
X29534225Y115602315D01*
X29534225Y115602315D02*
X29605653Y115459458D01*
X29605653Y115459458D02*
X29605653Y115245172D01*
X29605653Y115245172D02*
X29534225Y115102315D01*
X29534225Y115102315D02*
X29462796Y115030886D01*
X29462796Y115030886D02*
X29319939Y114959458D01*
X29319939Y114959458D02*
X28748510Y114959458D01*
X31034225Y114245172D02*
X30177082Y114245172D01*
X30605653Y114245172D02*
X30605653Y115745172D01*
X30605653Y115745172D02*
X30462796Y115530886D01*
X30462796Y115530886D02*
X30319939Y115388029D01*
X30319939Y115388029D02*
X30177082Y115316600D01*
X31677081Y114388029D02*
X31748510Y114316600D01*
X31748510Y114316600D02*
X31677081Y114245172D01*
X31677081Y114245172D02*
X31605653Y114316600D01*
X31605653Y114316600D02*
X31677081Y114388029D01*
X31677081Y114388029D02*
X31677081Y114245172D01*
X32677082Y115745172D02*
X32819939Y115745172D01*
X32819939Y115745172D02*
X32962796Y115673743D01*
X32962796Y115673743D02*
X33034225Y115602315D01*
X33034225Y115602315D02*
X33105653Y115459458D01*
X33105653Y115459458D02*
X33177082Y115173743D01*
X33177082Y115173743D02*
X33177082Y114816600D01*
X33177082Y114816600D02*
X33105653Y114530886D01*
X33105653Y114530886D02*
X33034225Y114388029D01*
X33034225Y114388029D02*
X32962796Y114316600D01*
X32962796Y114316600D02*
X32819939Y114245172D01*
X32819939Y114245172D02*
X32677082Y114245172D01*
X32677082Y114245172D02*
X32534225Y114316600D01*
X32534225Y114316600D02*
X32462796Y114388029D01*
X32462796Y114388029D02*
X32391367Y114530886D01*
X32391367Y114530886D02*
X32319939Y114816600D01*
X32319939Y114816600D02*
X32319939Y115173743D01*
X32319939Y115173743D02*
X32391367Y115459458D01*
X32391367Y115459458D02*
X32462796Y115602315D01*
X32462796Y115602315D02*
X32534225Y115673743D01*
X32534225Y115673743D02*
X32677082Y115745172D01*
X28677082Y116959743D02*
X29391368Y116959743D01*
X28534225Y116531172D02*
X29034225Y118031172D01*
X29034225Y118031172D02*
X29534225Y116531172D01*
X30891367Y116674029D02*
X30819939Y116602600D01*
X30819939Y116602600D02*
X30605653Y116531172D01*
X30605653Y116531172D02*
X30462796Y116531172D01*
X30462796Y116531172D02*
X30248510Y116602600D01*
X30248510Y116602600D02*
X30105653Y116745458D01*
X30105653Y116745458D02*
X30034224Y116888315D01*
X30034224Y116888315D02*
X29962796Y117174029D01*
X29962796Y117174029D02*
X29962796Y117388315D01*
X29962796Y117388315D02*
X30034224Y117674029D01*
X30034224Y117674029D02*
X30105653Y117816886D01*
X30105653Y117816886D02*
X30248510Y117959743D01*
X30248510Y117959743D02*
X30462796Y118031172D01*
X30462796Y118031172D02*
X30605653Y118031172D01*
X30605653Y118031172D02*
X30819939Y117959743D01*
X30819939Y117959743D02*
X30891367Y117888315D01*
X31534224Y116531172D02*
X31534224Y118031172D01*
X31534224Y118031172D02*
X31891367Y118031172D01*
X31891367Y118031172D02*
X32105653Y117959743D01*
X32105653Y117959743D02*
X32248510Y117816886D01*
X32248510Y117816886D02*
X32319939Y117674029D01*
X32319939Y117674029D02*
X32391367Y117388315D01*
X32391367Y117388315D02*
X32391367Y117174029D01*
X32391367Y117174029D02*
X32319939Y116888315D01*
X32319939Y116888315D02*
X32248510Y116745458D01*
X32248510Y116745458D02*
X32105653Y116602600D01*
X32105653Y116602600D02*
X31891367Y116531172D01*
X31891367Y116531172D02*
X31534224Y116531172D01*
X33891367Y116674029D02*
X33819939Y116602600D01*
X33819939Y116602600D02*
X33605653Y116531172D01*
X33605653Y116531172D02*
X33462796Y116531172D01*
X33462796Y116531172D02*
X33248510Y116602600D01*
X33248510Y116602600D02*
X33105653Y116745458D01*
X33105653Y116745458D02*
X33034224Y116888315D01*
X33034224Y116888315D02*
X32962796Y117174029D01*
X32962796Y117174029D02*
X32962796Y117388315D01*
X32962796Y117388315D02*
X33034224Y117674029D01*
X33034224Y117674029D02*
X33105653Y117816886D01*
X33105653Y117816886D02*
X33248510Y117959743D01*
X33248510Y117959743D02*
X33462796Y118031172D01*
X33462796Y118031172D02*
X33605653Y118031172D01*
X33605653Y118031172D02*
X33819939Y117959743D01*
X33819939Y117959743D02*
X33891367Y117888315D01*
X34534224Y117102600D02*
X35677082Y117102600D01*
X37177082Y116531172D02*
X36319939Y116531172D01*
X36748510Y116531172D02*
X36748510Y118031172D01*
X36748510Y118031172D02*
X36605653Y117816886D01*
X36605653Y117816886D02*
X36462796Y117674029D01*
X36462796Y117674029D02*
X36319939Y117602600D01*
X37748510Y117888315D02*
X37819938Y117959743D01*
X37819938Y117959743D02*
X37962796Y118031172D01*
X37962796Y118031172D02*
X38319938Y118031172D01*
X38319938Y118031172D02*
X38462796Y117959743D01*
X38462796Y117959743D02*
X38534224Y117888315D01*
X38534224Y117888315D02*
X38605653Y117745458D01*
X38605653Y117745458D02*
X38605653Y117602600D01*
X38605653Y117602600D02*
X38534224Y117388315D01*
X38534224Y117388315D02*
X37677081Y116531172D01*
X37677081Y116531172D02*
X38605653Y116531172D01*
X39534224Y118031172D02*
X39677081Y118031172D01*
X39677081Y118031172D02*
X39819938Y117959743D01*
X39819938Y117959743D02*
X39891367Y117888315D01*
X39891367Y117888315D02*
X39962795Y117745458D01*
X39962795Y117745458D02*
X40034224Y117459743D01*
X40034224Y117459743D02*
X40034224Y117102600D01*
X40034224Y117102600D02*
X39962795Y116816886D01*
X39962795Y116816886D02*
X39891367Y116674029D01*
X39891367Y116674029D02*
X39819938Y116602600D01*
X39819938Y116602600D02*
X39677081Y116531172D01*
X39677081Y116531172D02*
X39534224Y116531172D01*
X39534224Y116531172D02*
X39391367Y116602600D01*
X39391367Y116602600D02*
X39319938Y116674029D01*
X39319938Y116674029D02*
X39248509Y116816886D01*
X39248509Y116816886D02*
X39177081Y117102600D01*
X39177081Y117102600D02*
X39177081Y117459743D01*
X39177081Y117459743D02*
X39248509Y117745458D01*
X39248509Y117745458D02*
X39319938Y117888315D01*
X39319938Y117888315D02*
X39391367Y117959743D01*
X39391367Y117959743D02*
X39534224Y118031172D01*
X40677080Y117102600D02*
X41819938Y117102600D01*
X42462795Y117888315D02*
X42534223Y117959743D01*
X42534223Y117959743D02*
X42677081Y118031172D01*
X42677081Y118031172D02*
X43034223Y118031172D01*
X43034223Y118031172D02*
X43177081Y117959743D01*
X43177081Y117959743D02*
X43248509Y117888315D01*
X43248509Y117888315D02*
X43319938Y117745458D01*
X43319938Y117745458D02*
X43319938Y117602600D01*
X43319938Y117602600D02*
X43248509Y117388315D01*
X43248509Y117388315D02*
X42391366Y116531172D01*
X42391366Y116531172D02*
X43319938Y116531172D01*
X44605652Y117531172D02*
X44605652Y116531172D01*
X44248509Y118102600D02*
X43891366Y117031172D01*
X43891366Y117031172D02*
X44819937Y117031172D01*
D10*
X67002819Y24249143D02*
X66526628Y23915810D01*
X67002819Y23677715D02*
X66002819Y23677715D01*
X66002819Y23677715D02*
X66002819Y24058667D01*
X66002819Y24058667D02*
X66050438Y24153905D01*
X66050438Y24153905D02*
X66098057Y24201524D01*
X66098057Y24201524D02*
X66193295Y24249143D01*
X66193295Y24249143D02*
X66336152Y24249143D01*
X66336152Y24249143D02*
X66431390Y24201524D01*
X66431390Y24201524D02*
X66479009Y24153905D01*
X66479009Y24153905D02*
X66526628Y24058667D01*
X66526628Y24058667D02*
X66526628Y23677715D01*
X67002819Y25201524D02*
X67002819Y24630096D01*
X67002819Y24915810D02*
X66002819Y24915810D01*
X66002819Y24915810D02*
X66145676Y24820572D01*
X66145676Y24820572D02*
X66240914Y24725334D01*
X66240914Y24725334D02*
X66288533Y24630096D01*
X66336152Y26058667D02*
X67002819Y26058667D01*
X65955200Y25820572D02*
X66669485Y25582477D01*
X66669485Y25582477D02*
X66669485Y26201524D01*
X68272819Y27043143D02*
X67796628Y26709810D01*
X68272819Y26471715D02*
X67272819Y26471715D01*
X67272819Y26471715D02*
X67272819Y26852667D01*
X67272819Y26852667D02*
X67320438Y26947905D01*
X67320438Y26947905D02*
X67368057Y26995524D01*
X67368057Y26995524D02*
X67463295Y27043143D01*
X67463295Y27043143D02*
X67606152Y27043143D01*
X67606152Y27043143D02*
X67701390Y26995524D01*
X67701390Y26995524D02*
X67749009Y26947905D01*
X67749009Y26947905D02*
X67796628Y26852667D01*
X67796628Y26852667D02*
X67796628Y26471715D01*
X68272819Y27995524D02*
X68272819Y27424096D01*
X68272819Y27709810D02*
X67272819Y27709810D01*
X67272819Y27709810D02*
X67415676Y27614572D01*
X67415676Y27614572D02*
X67510914Y27519334D01*
X67510914Y27519334D02*
X67558533Y27424096D01*
X68272819Y28471715D02*
X68272819Y28662191D01*
X68272819Y28662191D02*
X68225200Y28757429D01*
X68225200Y28757429D02*
X68177580Y28805048D01*
X68177580Y28805048D02*
X68034723Y28900286D01*
X68034723Y28900286D02*
X67844247Y28947905D01*
X67844247Y28947905D02*
X67463295Y28947905D01*
X67463295Y28947905D02*
X67368057Y28900286D01*
X67368057Y28900286D02*
X67320438Y28852667D01*
X67320438Y28852667D02*
X67272819Y28757429D01*
X67272819Y28757429D02*
X67272819Y28566953D01*
X67272819Y28566953D02*
X67320438Y28471715D01*
X67320438Y28471715D02*
X67368057Y28424096D01*
X67368057Y28424096D02*
X67463295Y28376477D01*
X67463295Y28376477D02*
X67701390Y28376477D01*
X67701390Y28376477D02*
X67796628Y28424096D01*
X67796628Y28424096D02*
X67844247Y28471715D01*
X67844247Y28471715D02*
X67891866Y28566953D01*
X67891866Y28566953D02*
X67891866Y28757429D01*
X67891866Y28757429D02*
X67844247Y28852667D01*
X67844247Y28852667D02*
X67796628Y28900286D01*
X67796628Y28900286D02*
X67701390Y28947905D01*
X62222142Y27993181D02*
X61888809Y28469372D01*
X61650714Y27993181D02*
X61650714Y28993181D01*
X61650714Y28993181D02*
X62031666Y28993181D01*
X62031666Y28993181D02*
X62126904Y28945562D01*
X62126904Y28945562D02*
X62174523Y28897943D01*
X62174523Y28897943D02*
X62222142Y28802705D01*
X62222142Y28802705D02*
X62222142Y28659848D01*
X62222142Y28659848D02*
X62174523Y28564610D01*
X62174523Y28564610D02*
X62126904Y28516991D01*
X62126904Y28516991D02*
X62031666Y28469372D01*
X62031666Y28469372D02*
X61650714Y28469372D01*
X63174523Y27993181D02*
X62603095Y27993181D01*
X62888809Y27993181D02*
X62888809Y28993181D01*
X62888809Y28993181D02*
X62793571Y28850324D01*
X62793571Y28850324D02*
X62698333Y28755086D01*
X62698333Y28755086D02*
X62603095Y28707467D01*
X64126904Y27993181D02*
X63555476Y27993181D01*
X63841190Y27993181D02*
X63841190Y28993181D01*
X63841190Y28993181D02*
X63745952Y28850324D01*
X63745952Y28850324D02*
X63650714Y28755086D01*
X63650714Y28755086D02*
X63555476Y28707467D01*
X66875819Y27043143D02*
X66399628Y26709810D01*
X66875819Y26471715D02*
X65875819Y26471715D01*
X65875819Y26471715D02*
X65875819Y26852667D01*
X65875819Y26852667D02*
X65923438Y26947905D01*
X65923438Y26947905D02*
X65971057Y26995524D01*
X65971057Y26995524D02*
X66066295Y27043143D01*
X66066295Y27043143D02*
X66209152Y27043143D01*
X66209152Y27043143D02*
X66304390Y26995524D01*
X66304390Y26995524D02*
X66352009Y26947905D01*
X66352009Y26947905D02*
X66399628Y26852667D01*
X66399628Y26852667D02*
X66399628Y26471715D01*
X66875819Y27995524D02*
X66875819Y27424096D01*
X66875819Y27709810D02*
X65875819Y27709810D01*
X65875819Y27709810D02*
X66018676Y27614572D01*
X66018676Y27614572D02*
X66113914Y27519334D01*
X66113914Y27519334D02*
X66161533Y27424096D01*
X65875819Y28852667D02*
X65875819Y28662191D01*
X65875819Y28662191D02*
X65923438Y28566953D01*
X65923438Y28566953D02*
X65971057Y28519334D01*
X65971057Y28519334D02*
X66113914Y28424096D01*
X66113914Y28424096D02*
X66304390Y28376477D01*
X66304390Y28376477D02*
X66685342Y28376477D01*
X66685342Y28376477D02*
X66780580Y28424096D01*
X66780580Y28424096D02*
X66828200Y28471715D01*
X66828200Y28471715D02*
X66875819Y28566953D01*
X66875819Y28566953D02*
X66875819Y28757429D01*
X66875819Y28757429D02*
X66828200Y28852667D01*
X66828200Y28852667D02*
X66780580Y28900286D01*
X66780580Y28900286D02*
X66685342Y28947905D01*
X66685342Y28947905D02*
X66447247Y28947905D01*
X66447247Y28947905D02*
X66352009Y28900286D01*
X66352009Y28900286D02*
X66304390Y28852667D01*
X66304390Y28852667D02*
X66256771Y28757429D01*
X66256771Y28757429D02*
X66256771Y28566953D01*
X66256771Y28566953D02*
X66304390Y28471715D01*
X66304390Y28471715D02*
X66352009Y28424096D01*
X66352009Y28424096D02*
X66447247Y28376477D01*
X54824333Y59743181D02*
X54491000Y60219372D01*
X54252905Y59743181D02*
X54252905Y60743181D01*
X54252905Y60743181D02*
X54633857Y60743181D01*
X54633857Y60743181D02*
X54729095Y60695562D01*
X54729095Y60695562D02*
X54776714Y60647943D01*
X54776714Y60647943D02*
X54824333Y60552705D01*
X54824333Y60552705D02*
X54824333Y60409848D01*
X54824333Y60409848D02*
X54776714Y60314610D01*
X54776714Y60314610D02*
X54729095Y60266991D01*
X54729095Y60266991D02*
X54633857Y60219372D01*
X54633857Y60219372D02*
X54252905Y60219372D01*
X55729095Y60743181D02*
X55252905Y60743181D01*
X55252905Y60743181D02*
X55205286Y60266991D01*
X55205286Y60266991D02*
X55252905Y60314610D01*
X55252905Y60314610D02*
X55348143Y60362229D01*
X55348143Y60362229D02*
X55586238Y60362229D01*
X55586238Y60362229D02*
X55681476Y60314610D01*
X55681476Y60314610D02*
X55729095Y60266991D01*
X55729095Y60266991D02*
X55776714Y60171753D01*
X55776714Y60171753D02*
X55776714Y59933658D01*
X55776714Y59933658D02*
X55729095Y59838420D01*
X55729095Y59838420D02*
X55681476Y59790800D01*
X55681476Y59790800D02*
X55586238Y59743181D01*
X55586238Y59743181D02*
X55348143Y59743181D01*
X55348143Y59743181D02*
X55252905Y59790800D01*
X55252905Y59790800D02*
X55205286Y59838420D01*
X69619905Y107622181D02*
X69619905Y108622181D01*
X69619905Y108622181D02*
X69858000Y108622181D01*
X69858000Y108622181D02*
X70000857Y108574562D01*
X70000857Y108574562D02*
X70096095Y108479324D01*
X70096095Y108479324D02*
X70143714Y108384086D01*
X70143714Y108384086D02*
X70191333Y108193610D01*
X70191333Y108193610D02*
X70191333Y108050753D01*
X70191333Y108050753D02*
X70143714Y107860277D01*
X70143714Y107860277D02*
X70096095Y107765039D01*
X70096095Y107765039D02*
X70000857Y107669800D01*
X70000857Y107669800D02*
X69858000Y107622181D01*
X69858000Y107622181D02*
X69619905Y107622181D01*
X71096095Y108622181D02*
X70619905Y108622181D01*
X70619905Y108622181D02*
X70572286Y108145991D01*
X70572286Y108145991D02*
X70619905Y108193610D01*
X70619905Y108193610D02*
X70715143Y108241229D01*
X70715143Y108241229D02*
X70953238Y108241229D01*
X70953238Y108241229D02*
X71048476Y108193610D01*
X71048476Y108193610D02*
X71096095Y108145991D01*
X71096095Y108145991D02*
X71143714Y108050753D01*
X71143714Y108050753D02*
X71143714Y107812658D01*
X71143714Y107812658D02*
X71096095Y107717420D01*
X71096095Y107717420D02*
X71048476Y107669800D01*
X71048476Y107669800D02*
X70953238Y107622181D01*
X70953238Y107622181D02*
X70715143Y107622181D01*
X70715143Y107622181D02*
X70619905Y107669800D01*
X70619905Y107669800D02*
X70572286Y107717420D01*
X47053269Y36994906D02*
X46053269Y36994906D01*
X46529459Y36994906D02*
X46529459Y37566334D01*
X47053269Y37566334D02*
X46053269Y37566334D01*
X47005650Y37994906D02*
X47053269Y38137763D01*
X47053269Y38137763D02*
X47053269Y38375858D01*
X47053269Y38375858D02*
X47005650Y38471096D01*
X47005650Y38471096D02*
X46958030Y38518715D01*
X46958030Y38518715D02*
X46862792Y38566334D01*
X46862792Y38566334D02*
X46767554Y38566334D01*
X46767554Y38566334D02*
X46672316Y38518715D01*
X46672316Y38518715D02*
X46624697Y38471096D01*
X46624697Y38471096D02*
X46577078Y38375858D01*
X46577078Y38375858D02*
X46529459Y38185382D01*
X46529459Y38185382D02*
X46481840Y38090144D01*
X46481840Y38090144D02*
X46434221Y38042525D01*
X46434221Y38042525D02*
X46338983Y37994906D01*
X46338983Y37994906D02*
X46243745Y37994906D01*
X46243745Y37994906D02*
X46148507Y38042525D01*
X46148507Y38042525D02*
X46100888Y38090144D01*
X46100888Y38090144D02*
X46053269Y38185382D01*
X46053269Y38185382D02*
X46053269Y38423477D01*
X46053269Y38423477D02*
X46100888Y38566334D01*
X47053269Y39518715D02*
X47053269Y38947287D01*
X47053269Y39233001D02*
X46053269Y39233001D01*
X46053269Y39233001D02*
X46196126Y39137763D01*
X46196126Y39137763D02*
X46291364Y39042525D01*
X46291364Y39042525D02*
X46338983Y38947287D01*
X2460666Y83253991D02*
X2127333Y83253991D01*
X2127333Y82730181D02*
X2127333Y83730181D01*
X2127333Y83730181D02*
X2603523Y83730181D01*
X3508285Y82730181D02*
X2936857Y82730181D01*
X3222571Y82730181D02*
X3222571Y83730181D01*
X3222571Y83730181D02*
X3127333Y83587324D01*
X3127333Y83587324D02*
X3032095Y83492086D01*
X3032095Y83492086D02*
X2936857Y83444467D01*
X65651142Y20849420D02*
X65603523Y20801800D01*
X65603523Y20801800D02*
X65460666Y20754181D01*
X65460666Y20754181D02*
X65365428Y20754181D01*
X65365428Y20754181D02*
X65222571Y20801800D01*
X65222571Y20801800D02*
X65127333Y20897039D01*
X65127333Y20897039D02*
X65079714Y20992277D01*
X65079714Y20992277D02*
X65032095Y21182753D01*
X65032095Y21182753D02*
X65032095Y21325610D01*
X65032095Y21325610D02*
X65079714Y21516086D01*
X65079714Y21516086D02*
X65127333Y21611324D01*
X65127333Y21611324D02*
X65222571Y21706562D01*
X65222571Y21706562D02*
X65365428Y21754181D01*
X65365428Y21754181D02*
X65460666Y21754181D01*
X65460666Y21754181D02*
X65603523Y21706562D01*
X65603523Y21706562D02*
X65651142Y21658943D01*
X66603523Y20754181D02*
X66032095Y20754181D01*
X66317809Y20754181D02*
X66317809Y21754181D01*
X66317809Y21754181D02*
X66222571Y21611324D01*
X66222571Y21611324D02*
X66127333Y21516086D01*
X66127333Y21516086D02*
X66032095Y21468467D01*
X67460666Y21754181D02*
X67270190Y21754181D01*
X67270190Y21754181D02*
X67174952Y21706562D01*
X67174952Y21706562D02*
X67127333Y21658943D01*
X67127333Y21658943D02*
X67032095Y21516086D01*
X67032095Y21516086D02*
X66984476Y21325610D01*
X66984476Y21325610D02*
X66984476Y20944658D01*
X66984476Y20944658D02*
X67032095Y20849420D01*
X67032095Y20849420D02*
X67079714Y20801800D01*
X67079714Y20801800D02*
X67174952Y20754181D01*
X67174952Y20754181D02*
X67365428Y20754181D01*
X67365428Y20754181D02*
X67460666Y20801800D01*
X67460666Y20801800D02*
X67508285Y20849420D01*
X67508285Y20849420D02*
X67555904Y20944658D01*
X67555904Y20944658D02*
X67555904Y21182753D01*
X67555904Y21182753D02*
X67508285Y21277991D01*
X67508285Y21277991D02*
X67460666Y21325610D01*
X67460666Y21325610D02*
X67365428Y21373229D01*
X67365428Y21373229D02*
X67174952Y21373229D01*
X67174952Y21373229D02*
X67079714Y21325610D01*
X67079714Y21325610D02*
X67032095Y21277991D01*
X67032095Y21277991D02*
X66984476Y21182753D01*
X13374761Y73840181D02*
X13041428Y74316372D01*
X12803333Y73840181D02*
X12803333Y74840181D01*
X12803333Y74840181D02*
X13184285Y74840181D01*
X13184285Y74840181D02*
X13279523Y74792562D01*
X13279523Y74792562D02*
X13327142Y74744943D01*
X13327142Y74744943D02*
X13374761Y74649705D01*
X13374761Y74649705D02*
X13374761Y74506848D01*
X13374761Y74506848D02*
X13327142Y74411610D01*
X13327142Y74411610D02*
X13279523Y74363991D01*
X13279523Y74363991D02*
X13184285Y74316372D01*
X13184285Y74316372D02*
X12803333Y74316372D01*
X13660476Y74840181D02*
X13993809Y73840181D01*
X13993809Y73840181D02*
X14327142Y74840181D01*
X15184285Y73840181D02*
X14612857Y73840181D01*
X14898571Y73840181D02*
X14898571Y74840181D01*
X14898571Y74840181D02*
X14803333Y74697324D01*
X14803333Y74697324D02*
X14708095Y74602086D01*
X14708095Y74602086D02*
X14612857Y74554467D01*
X23600580Y58380334D02*
X23648200Y58332715D01*
X23648200Y58332715D02*
X23695819Y58189858D01*
X23695819Y58189858D02*
X23695819Y58094620D01*
X23695819Y58094620D02*
X23648200Y57951763D01*
X23648200Y57951763D02*
X23552961Y57856525D01*
X23552961Y57856525D02*
X23457723Y57808906D01*
X23457723Y57808906D02*
X23267247Y57761287D01*
X23267247Y57761287D02*
X23124390Y57761287D01*
X23124390Y57761287D02*
X22933914Y57808906D01*
X22933914Y57808906D02*
X22838676Y57856525D01*
X22838676Y57856525D02*
X22743438Y57951763D01*
X22743438Y57951763D02*
X22695819Y58094620D01*
X22695819Y58094620D02*
X22695819Y58189858D01*
X22695819Y58189858D02*
X22743438Y58332715D01*
X22743438Y58332715D02*
X22791057Y58380334D01*
X22791057Y58761287D02*
X22743438Y58808906D01*
X22743438Y58808906D02*
X22695819Y58904144D01*
X22695819Y58904144D02*
X22695819Y59142239D01*
X22695819Y59142239D02*
X22743438Y59237477D01*
X22743438Y59237477D02*
X22791057Y59285096D01*
X22791057Y59285096D02*
X22886295Y59332715D01*
X22886295Y59332715D02*
X22981533Y59332715D01*
X22981533Y59332715D02*
X23124390Y59285096D01*
X23124390Y59285096D02*
X23695819Y58713668D01*
X23695819Y58713668D02*
X23695819Y59332715D01*
X17335667Y107923800D02*
X17478524Y107876181D01*
X17478524Y107876181D02*
X17716619Y107876181D01*
X17716619Y107876181D02*
X17811857Y107923800D01*
X17811857Y107923800D02*
X17859476Y107971420D01*
X17859476Y107971420D02*
X17907095Y108066658D01*
X17907095Y108066658D02*
X17907095Y108161896D01*
X17907095Y108161896D02*
X17859476Y108257134D01*
X17859476Y108257134D02*
X17811857Y108304753D01*
X17811857Y108304753D02*
X17716619Y108352372D01*
X17716619Y108352372D02*
X17526143Y108399991D01*
X17526143Y108399991D02*
X17430905Y108447610D01*
X17430905Y108447610D02*
X17383286Y108495229D01*
X17383286Y108495229D02*
X17335667Y108590467D01*
X17335667Y108590467D02*
X17335667Y108685705D01*
X17335667Y108685705D02*
X17383286Y108780943D01*
X17383286Y108780943D02*
X17430905Y108828562D01*
X17430905Y108828562D02*
X17526143Y108876181D01*
X17526143Y108876181D02*
X17764238Y108876181D01*
X17764238Y108876181D02*
X17907095Y108828562D01*
X18240429Y108876181D02*
X18478524Y107876181D01*
X18478524Y107876181D02*
X18669000Y108590467D01*
X18669000Y108590467D02*
X18859476Y107876181D01*
X18859476Y107876181D02*
X19097572Y108876181D01*
X20002333Y107876181D02*
X19430905Y107876181D01*
X19716619Y107876181D02*
X19716619Y108876181D01*
X19716619Y108876181D02*
X19621381Y108733324D01*
X19621381Y108733324D02*
X19526143Y108638086D01*
X19526143Y108638086D02*
X19430905Y108590467D01*
X38441333Y53742420D02*
X38393714Y53694800D01*
X38393714Y53694800D02*
X38250857Y53647181D01*
X38250857Y53647181D02*
X38155619Y53647181D01*
X38155619Y53647181D02*
X38012762Y53694800D01*
X38012762Y53694800D02*
X37917524Y53790039D01*
X37917524Y53790039D02*
X37869905Y53885277D01*
X37869905Y53885277D02*
X37822286Y54075753D01*
X37822286Y54075753D02*
X37822286Y54218610D01*
X37822286Y54218610D02*
X37869905Y54409086D01*
X37869905Y54409086D02*
X37917524Y54504324D01*
X37917524Y54504324D02*
X38012762Y54599562D01*
X38012762Y54599562D02*
X38155619Y54647181D01*
X38155619Y54647181D02*
X38250857Y54647181D01*
X38250857Y54647181D02*
X38393714Y54599562D01*
X38393714Y54599562D02*
X38441333Y54551943D01*
X39298476Y54313848D02*
X39298476Y53647181D01*
X39060381Y54694800D02*
X38822286Y53980515D01*
X38822286Y53980515D02*
X39441333Y53980515D01*
X75111780Y47998943D02*
X75159400Y47951324D01*
X75159400Y47951324D02*
X75207019Y47808467D01*
X75207019Y47808467D02*
X75207019Y47713229D01*
X75207019Y47713229D02*
X75159400Y47570372D01*
X75159400Y47570372D02*
X75064161Y47475134D01*
X75064161Y47475134D02*
X74968923Y47427515D01*
X74968923Y47427515D02*
X74778447Y47379896D01*
X74778447Y47379896D02*
X74635590Y47379896D01*
X74635590Y47379896D02*
X74445114Y47427515D01*
X74445114Y47427515D02*
X74349876Y47475134D01*
X74349876Y47475134D02*
X74254638Y47570372D01*
X74254638Y47570372D02*
X74207019Y47713229D01*
X74207019Y47713229D02*
X74207019Y47808467D01*
X74207019Y47808467D02*
X74254638Y47951324D01*
X74254638Y47951324D02*
X74302257Y47998943D01*
X74302257Y48379896D02*
X74254638Y48427515D01*
X74254638Y48427515D02*
X74207019Y48522753D01*
X74207019Y48522753D02*
X74207019Y48760848D01*
X74207019Y48760848D02*
X74254638Y48856086D01*
X74254638Y48856086D02*
X74302257Y48903705D01*
X74302257Y48903705D02*
X74397495Y48951324D01*
X74397495Y48951324D02*
X74492733Y48951324D01*
X74492733Y48951324D02*
X74635590Y48903705D01*
X74635590Y48903705D02*
X75207019Y48332277D01*
X75207019Y48332277D02*
X75207019Y48951324D01*
X74207019Y49284658D02*
X74207019Y49951324D01*
X74207019Y49951324D02*
X75207019Y49522753D01*
X69969142Y12086420D02*
X69921523Y12038800D01*
X69921523Y12038800D02*
X69778666Y11991181D01*
X69778666Y11991181D02*
X69683428Y11991181D01*
X69683428Y11991181D02*
X69540571Y12038800D01*
X69540571Y12038800D02*
X69445333Y12134039D01*
X69445333Y12134039D02*
X69397714Y12229277D01*
X69397714Y12229277D02*
X69350095Y12419753D01*
X69350095Y12419753D02*
X69350095Y12562610D01*
X69350095Y12562610D02*
X69397714Y12753086D01*
X69397714Y12753086D02*
X69445333Y12848324D01*
X69445333Y12848324D02*
X69540571Y12943562D01*
X69540571Y12943562D02*
X69683428Y12991181D01*
X69683428Y12991181D02*
X69778666Y12991181D01*
X69778666Y12991181D02*
X69921523Y12943562D01*
X69921523Y12943562D02*
X69969142Y12895943D01*
X70921523Y11991181D02*
X70350095Y11991181D01*
X70635809Y11991181D02*
X70635809Y12991181D01*
X70635809Y12991181D02*
X70540571Y12848324D01*
X70540571Y12848324D02*
X70445333Y12753086D01*
X70445333Y12753086D02*
X70350095Y12705467D01*
X71397714Y11991181D02*
X71588190Y11991181D01*
X71588190Y11991181D02*
X71683428Y12038800D01*
X71683428Y12038800D02*
X71731047Y12086420D01*
X71731047Y12086420D02*
X71826285Y12229277D01*
X71826285Y12229277D02*
X71873904Y12419753D01*
X71873904Y12419753D02*
X71873904Y12800705D01*
X71873904Y12800705D02*
X71826285Y12895943D01*
X71826285Y12895943D02*
X71778666Y12943562D01*
X71778666Y12943562D02*
X71683428Y12991181D01*
X71683428Y12991181D02*
X71492952Y12991181D01*
X71492952Y12991181D02*
X71397714Y12943562D01*
X71397714Y12943562D02*
X71350095Y12895943D01*
X71350095Y12895943D02*
X71302476Y12800705D01*
X71302476Y12800705D02*
X71302476Y12562610D01*
X71302476Y12562610D02*
X71350095Y12467372D01*
X71350095Y12467372D02*
X71397714Y12419753D01*
X71397714Y12419753D02*
X71492952Y12372134D01*
X71492952Y12372134D02*
X71683428Y12372134D01*
X71683428Y12372134D02*
X71778666Y12419753D01*
X71778666Y12419753D02*
X71826285Y12467372D01*
X71826285Y12467372D02*
X71873904Y12562610D01*
X49254580Y16248143D02*
X49302200Y16200524D01*
X49302200Y16200524D02*
X49349819Y16057667D01*
X49349819Y16057667D02*
X49349819Y15962429D01*
X49349819Y15962429D02*
X49302200Y15819572D01*
X49302200Y15819572D02*
X49206961Y15724334D01*
X49206961Y15724334D02*
X49111723Y15676715D01*
X49111723Y15676715D02*
X48921247Y15629096D01*
X48921247Y15629096D02*
X48778390Y15629096D01*
X48778390Y15629096D02*
X48587914Y15676715D01*
X48587914Y15676715D02*
X48492676Y15724334D01*
X48492676Y15724334D02*
X48397438Y15819572D01*
X48397438Y15819572D02*
X48349819Y15962429D01*
X48349819Y15962429D02*
X48349819Y16057667D01*
X48349819Y16057667D02*
X48397438Y16200524D01*
X48397438Y16200524D02*
X48445057Y16248143D01*
X48445057Y16629096D02*
X48397438Y16676715D01*
X48397438Y16676715D02*
X48349819Y16771953D01*
X48349819Y16771953D02*
X48349819Y17010048D01*
X48349819Y17010048D02*
X48397438Y17105286D01*
X48397438Y17105286D02*
X48445057Y17152905D01*
X48445057Y17152905D02*
X48540295Y17200524D01*
X48540295Y17200524D02*
X48635533Y17200524D01*
X48635533Y17200524D02*
X48778390Y17152905D01*
X48778390Y17152905D02*
X49349819Y16581477D01*
X49349819Y16581477D02*
X49349819Y17200524D01*
X48778390Y17771953D02*
X48730771Y17676715D01*
X48730771Y17676715D02*
X48683152Y17629096D01*
X48683152Y17629096D02*
X48587914Y17581477D01*
X48587914Y17581477D02*
X48540295Y17581477D01*
X48540295Y17581477D02*
X48445057Y17629096D01*
X48445057Y17629096D02*
X48397438Y17676715D01*
X48397438Y17676715D02*
X48349819Y17771953D01*
X48349819Y17771953D02*
X48349819Y17962429D01*
X48349819Y17962429D02*
X48397438Y18057667D01*
X48397438Y18057667D02*
X48445057Y18105286D01*
X48445057Y18105286D02*
X48540295Y18152905D01*
X48540295Y18152905D02*
X48587914Y18152905D01*
X48587914Y18152905D02*
X48683152Y18105286D01*
X48683152Y18105286D02*
X48730771Y18057667D01*
X48730771Y18057667D02*
X48778390Y17962429D01*
X48778390Y17962429D02*
X48778390Y17771953D01*
X48778390Y17771953D02*
X48826009Y17676715D01*
X48826009Y17676715D02*
X48873628Y17629096D01*
X48873628Y17629096D02*
X48968866Y17581477D01*
X48968866Y17581477D02*
X49159342Y17581477D01*
X49159342Y17581477D02*
X49254580Y17629096D01*
X49254580Y17629096D02*
X49302200Y17676715D01*
X49302200Y17676715D02*
X49349819Y17771953D01*
X49349819Y17771953D02*
X49349819Y17962429D01*
X49349819Y17962429D02*
X49302200Y18057667D01*
X49302200Y18057667D02*
X49254580Y18105286D01*
X49254580Y18105286D02*
X49159342Y18152905D01*
X49159342Y18152905D02*
X48968866Y18152905D01*
X48968866Y18152905D02*
X48873628Y18105286D01*
X48873628Y18105286D02*
X48826009Y18057667D01*
X48826009Y18057667D02*
X48778390Y17962429D01*
X20806580Y58412143D02*
X20854200Y58364524D01*
X20854200Y58364524D02*
X20901819Y58221667D01*
X20901819Y58221667D02*
X20901819Y58126429D01*
X20901819Y58126429D02*
X20854200Y57983572D01*
X20854200Y57983572D02*
X20758961Y57888334D01*
X20758961Y57888334D02*
X20663723Y57840715D01*
X20663723Y57840715D02*
X20473247Y57793096D01*
X20473247Y57793096D02*
X20330390Y57793096D01*
X20330390Y57793096D02*
X20139914Y57840715D01*
X20139914Y57840715D02*
X20044676Y57888334D01*
X20044676Y57888334D02*
X19949438Y57983572D01*
X19949438Y57983572D02*
X19901819Y58126429D01*
X19901819Y58126429D02*
X19901819Y58221667D01*
X19901819Y58221667D02*
X19949438Y58364524D01*
X19949438Y58364524D02*
X19997057Y58412143D01*
X20901819Y59364524D02*
X20901819Y58793096D01*
X20901819Y59078810D02*
X19901819Y59078810D01*
X19901819Y59078810D02*
X20044676Y58983572D01*
X20044676Y58983572D02*
X20139914Y58888334D01*
X20139914Y58888334D02*
X20187533Y58793096D01*
X19901819Y59983572D02*
X19901819Y60078810D01*
X19901819Y60078810D02*
X19949438Y60174048D01*
X19949438Y60174048D02*
X19997057Y60221667D01*
X19997057Y60221667D02*
X20092295Y60269286D01*
X20092295Y60269286D02*
X20282771Y60316905D01*
X20282771Y60316905D02*
X20520866Y60316905D01*
X20520866Y60316905D02*
X20711342Y60269286D01*
X20711342Y60269286D02*
X20806580Y60221667D01*
X20806580Y60221667D02*
X20854200Y60174048D01*
X20854200Y60174048D02*
X20901819Y60078810D01*
X20901819Y60078810D02*
X20901819Y59983572D01*
X20901819Y59983572D02*
X20854200Y59888334D01*
X20854200Y59888334D02*
X20806580Y59840715D01*
X20806580Y59840715D02*
X20711342Y59793096D01*
X20711342Y59793096D02*
X20520866Y59745477D01*
X20520866Y59745477D02*
X20282771Y59745477D01*
X20282771Y59745477D02*
X20092295Y59793096D01*
X20092295Y59793096D02*
X19997057Y59840715D01*
X19997057Y59840715D02*
X19949438Y59888334D01*
X19949438Y59888334D02*
X19901819Y59983572D01*
X12946142Y12594420D02*
X12898523Y12546800D01*
X12898523Y12546800D02*
X12755666Y12499181D01*
X12755666Y12499181D02*
X12660428Y12499181D01*
X12660428Y12499181D02*
X12517571Y12546800D01*
X12517571Y12546800D02*
X12422333Y12642039D01*
X12422333Y12642039D02*
X12374714Y12737277D01*
X12374714Y12737277D02*
X12327095Y12927753D01*
X12327095Y12927753D02*
X12327095Y13070610D01*
X12327095Y13070610D02*
X12374714Y13261086D01*
X12374714Y13261086D02*
X12422333Y13356324D01*
X12422333Y13356324D02*
X12517571Y13451562D01*
X12517571Y13451562D02*
X12660428Y13499181D01*
X12660428Y13499181D02*
X12755666Y13499181D01*
X12755666Y13499181D02*
X12898523Y13451562D01*
X12898523Y13451562D02*
X12946142Y13403943D01*
X13327095Y13403943D02*
X13374714Y13451562D01*
X13374714Y13451562D02*
X13469952Y13499181D01*
X13469952Y13499181D02*
X13708047Y13499181D01*
X13708047Y13499181D02*
X13803285Y13451562D01*
X13803285Y13451562D02*
X13850904Y13403943D01*
X13850904Y13403943D02*
X13898523Y13308705D01*
X13898523Y13308705D02*
X13898523Y13213467D01*
X13898523Y13213467D02*
X13850904Y13070610D01*
X13850904Y13070610D02*
X13279476Y12499181D01*
X13279476Y12499181D02*
X13898523Y12499181D01*
X14755666Y13165848D02*
X14755666Y12499181D01*
X14517571Y13546800D02*
X14279476Y12832515D01*
X14279476Y12832515D02*
X14898523Y12832515D01*
X21423333Y83968420D02*
X21375714Y83920800D01*
X21375714Y83920800D02*
X21232857Y83873181D01*
X21232857Y83873181D02*
X21137619Y83873181D01*
X21137619Y83873181D02*
X20994762Y83920800D01*
X20994762Y83920800D02*
X20899524Y84016039D01*
X20899524Y84016039D02*
X20851905Y84111277D01*
X20851905Y84111277D02*
X20804286Y84301753D01*
X20804286Y84301753D02*
X20804286Y84444610D01*
X20804286Y84444610D02*
X20851905Y84635086D01*
X20851905Y84635086D02*
X20899524Y84730324D01*
X20899524Y84730324D02*
X20994762Y84825562D01*
X20994762Y84825562D02*
X21137619Y84873181D01*
X21137619Y84873181D02*
X21232857Y84873181D01*
X21232857Y84873181D02*
X21375714Y84825562D01*
X21375714Y84825562D02*
X21423333Y84777943D01*
X21756667Y84873181D02*
X22423333Y84873181D01*
X22423333Y84873181D02*
X21994762Y83873181D01*
X29918819Y53554334D02*
X29442628Y53221001D01*
X29918819Y52982906D02*
X28918819Y52982906D01*
X28918819Y52982906D02*
X28918819Y53363858D01*
X28918819Y53363858D02*
X28966438Y53459096D01*
X28966438Y53459096D02*
X29014057Y53506715D01*
X29014057Y53506715D02*
X29109295Y53554334D01*
X29109295Y53554334D02*
X29252152Y53554334D01*
X29252152Y53554334D02*
X29347390Y53506715D01*
X29347390Y53506715D02*
X29395009Y53459096D01*
X29395009Y53459096D02*
X29442628Y53363858D01*
X29442628Y53363858D02*
X29442628Y52982906D01*
X29918819Y54506715D02*
X29918819Y53935287D01*
X29918819Y54221001D02*
X28918819Y54221001D01*
X28918819Y54221001D02*
X29061676Y54125763D01*
X29061676Y54125763D02*
X29156914Y54030525D01*
X29156914Y54030525D02*
X29204533Y53935287D01*
X38441333Y52472420D02*
X38393714Y52424800D01*
X38393714Y52424800D02*
X38250857Y52377181D01*
X38250857Y52377181D02*
X38155619Y52377181D01*
X38155619Y52377181D02*
X38012762Y52424800D01*
X38012762Y52424800D02*
X37917524Y52520039D01*
X37917524Y52520039D02*
X37869905Y52615277D01*
X37869905Y52615277D02*
X37822286Y52805753D01*
X37822286Y52805753D02*
X37822286Y52948610D01*
X37822286Y52948610D02*
X37869905Y53139086D01*
X37869905Y53139086D02*
X37917524Y53234324D01*
X37917524Y53234324D02*
X38012762Y53329562D01*
X38012762Y53329562D02*
X38155619Y53377181D01*
X38155619Y53377181D02*
X38250857Y53377181D01*
X38250857Y53377181D02*
X38393714Y53329562D01*
X38393714Y53329562D02*
X38441333Y53281943D01*
X39346095Y53377181D02*
X38869905Y53377181D01*
X38869905Y53377181D02*
X38822286Y52900991D01*
X38822286Y52900991D02*
X38869905Y52948610D01*
X38869905Y52948610D02*
X38965143Y52996229D01*
X38965143Y52996229D02*
X39203238Y52996229D01*
X39203238Y52996229D02*
X39298476Y52948610D01*
X39298476Y52948610D02*
X39346095Y52900991D01*
X39346095Y52900991D02*
X39393714Y52805753D01*
X39393714Y52805753D02*
X39393714Y52567658D01*
X39393714Y52567658D02*
X39346095Y52472420D01*
X39346095Y52472420D02*
X39298476Y52424800D01*
X39298476Y52424800D02*
X39203238Y52377181D01*
X39203238Y52377181D02*
X38965143Y52377181D01*
X38965143Y52377181D02*
X38869905Y52424800D01*
X38869905Y52424800D02*
X38822286Y52472420D01*
X13734819Y54760906D02*
X12734819Y54760906D01*
X12734819Y54760906D02*
X12734819Y54999001D01*
X12734819Y54999001D02*
X12782438Y55141858D01*
X12782438Y55141858D02*
X12877676Y55237096D01*
X12877676Y55237096D02*
X12972914Y55284715D01*
X12972914Y55284715D02*
X13163390Y55332334D01*
X13163390Y55332334D02*
X13306247Y55332334D01*
X13306247Y55332334D02*
X13496723Y55284715D01*
X13496723Y55284715D02*
X13591961Y55237096D01*
X13591961Y55237096D02*
X13687200Y55141858D01*
X13687200Y55141858D02*
X13734819Y54999001D01*
X13734819Y54999001D02*
X13734819Y54760906D01*
X12734819Y55665668D02*
X12734819Y56284715D01*
X12734819Y56284715D02*
X13115771Y55951382D01*
X13115771Y55951382D02*
X13115771Y56094239D01*
X13115771Y56094239D02*
X13163390Y56189477D01*
X13163390Y56189477D02*
X13211009Y56237096D01*
X13211009Y56237096D02*
X13306247Y56284715D01*
X13306247Y56284715D02*
X13544342Y56284715D01*
X13544342Y56284715D02*
X13639580Y56237096D01*
X13639580Y56237096D02*
X13687200Y56189477D01*
X13687200Y56189477D02*
X13734819Y56094239D01*
X13734819Y56094239D02*
X13734819Y55808525D01*
X13734819Y55808525D02*
X13687200Y55713287D01*
X13687200Y55713287D02*
X13639580Y55665668D01*
X27297142Y12848420D02*
X27249523Y12800800D01*
X27249523Y12800800D02*
X27106666Y12753181D01*
X27106666Y12753181D02*
X27011428Y12753181D01*
X27011428Y12753181D02*
X26868571Y12800800D01*
X26868571Y12800800D02*
X26773333Y12896039D01*
X26773333Y12896039D02*
X26725714Y12991277D01*
X26725714Y12991277D02*
X26678095Y13181753D01*
X26678095Y13181753D02*
X26678095Y13324610D01*
X26678095Y13324610D02*
X26725714Y13515086D01*
X26725714Y13515086D02*
X26773333Y13610324D01*
X26773333Y13610324D02*
X26868571Y13705562D01*
X26868571Y13705562D02*
X27011428Y13753181D01*
X27011428Y13753181D02*
X27106666Y13753181D01*
X27106666Y13753181D02*
X27249523Y13705562D01*
X27249523Y13705562D02*
X27297142Y13657943D01*
X27678095Y13657943D02*
X27725714Y13705562D01*
X27725714Y13705562D02*
X27820952Y13753181D01*
X27820952Y13753181D02*
X28059047Y13753181D01*
X28059047Y13753181D02*
X28154285Y13705562D01*
X28154285Y13705562D02*
X28201904Y13657943D01*
X28201904Y13657943D02*
X28249523Y13562705D01*
X28249523Y13562705D02*
X28249523Y13467467D01*
X28249523Y13467467D02*
X28201904Y13324610D01*
X28201904Y13324610D02*
X27630476Y12753181D01*
X27630476Y12753181D02*
X28249523Y12753181D01*
X28582857Y13753181D02*
X29201904Y13753181D01*
X29201904Y13753181D02*
X28868571Y13372229D01*
X28868571Y13372229D02*
X29011428Y13372229D01*
X29011428Y13372229D02*
X29106666Y13324610D01*
X29106666Y13324610D02*
X29154285Y13276991D01*
X29154285Y13276991D02*
X29201904Y13181753D01*
X29201904Y13181753D02*
X29201904Y12943658D01*
X29201904Y12943658D02*
X29154285Y12848420D01*
X29154285Y12848420D02*
X29106666Y12800800D01*
X29106666Y12800800D02*
X29011428Y12753181D01*
X29011428Y12753181D02*
X28725714Y12753181D01*
X28725714Y12753181D02*
X28630476Y12800800D01*
X28630476Y12800800D02*
X28582857Y12848420D01*
X67810142Y50091181D02*
X67476809Y50567372D01*
X67238714Y50091181D02*
X67238714Y51091181D01*
X67238714Y51091181D02*
X67619666Y51091181D01*
X67619666Y51091181D02*
X67714904Y51043562D01*
X67714904Y51043562D02*
X67762523Y50995943D01*
X67762523Y50995943D02*
X67810142Y50900705D01*
X67810142Y50900705D02*
X67810142Y50757848D01*
X67810142Y50757848D02*
X67762523Y50662610D01*
X67762523Y50662610D02*
X67714904Y50614991D01*
X67714904Y50614991D02*
X67619666Y50567372D01*
X67619666Y50567372D02*
X67238714Y50567372D01*
X68762523Y50091181D02*
X68191095Y50091181D01*
X68476809Y50091181D02*
X68476809Y51091181D01*
X68476809Y51091181D02*
X68381571Y50948324D01*
X68381571Y50948324D02*
X68286333Y50853086D01*
X68286333Y50853086D02*
X68191095Y50805467D01*
X69333952Y50662610D02*
X69238714Y50710229D01*
X69238714Y50710229D02*
X69191095Y50757848D01*
X69191095Y50757848D02*
X69143476Y50853086D01*
X69143476Y50853086D02*
X69143476Y50900705D01*
X69143476Y50900705D02*
X69191095Y50995943D01*
X69191095Y50995943D02*
X69238714Y51043562D01*
X69238714Y51043562D02*
X69333952Y51091181D01*
X69333952Y51091181D02*
X69524428Y51091181D01*
X69524428Y51091181D02*
X69619666Y51043562D01*
X69619666Y51043562D02*
X69667285Y50995943D01*
X69667285Y50995943D02*
X69714904Y50900705D01*
X69714904Y50900705D02*
X69714904Y50853086D01*
X69714904Y50853086D02*
X69667285Y50757848D01*
X69667285Y50757848D02*
X69619666Y50710229D01*
X69619666Y50710229D02*
X69524428Y50662610D01*
X69524428Y50662610D02*
X69333952Y50662610D01*
X69333952Y50662610D02*
X69238714Y50614991D01*
X69238714Y50614991D02*
X69191095Y50567372D01*
X69191095Y50567372D02*
X69143476Y50472134D01*
X69143476Y50472134D02*
X69143476Y50281658D01*
X69143476Y50281658D02*
X69191095Y50186420D01*
X69191095Y50186420D02*
X69238714Y50138800D01*
X69238714Y50138800D02*
X69333952Y50091181D01*
X69333952Y50091181D02*
X69524428Y50091181D01*
X69524428Y50091181D02*
X69619666Y50138800D01*
X69619666Y50138800D02*
X69667285Y50186420D01*
X69667285Y50186420D02*
X69714904Y50281658D01*
X69714904Y50281658D02*
X69714904Y50472134D01*
X69714904Y50472134D02*
X69667285Y50567372D01*
X69667285Y50567372D02*
X69619666Y50614991D01*
X69619666Y50614991D02*
X69524428Y50662610D01*
X63065819Y44791334D02*
X62589628Y44458001D01*
X63065819Y44219906D02*
X62065819Y44219906D01*
X62065819Y44219906D02*
X62065819Y44600858D01*
X62065819Y44600858D02*
X62113438Y44696096D01*
X62113438Y44696096D02*
X62161057Y44743715D01*
X62161057Y44743715D02*
X62256295Y44791334D01*
X62256295Y44791334D02*
X62399152Y44791334D01*
X62399152Y44791334D02*
X62494390Y44743715D01*
X62494390Y44743715D02*
X62542009Y44696096D01*
X62542009Y44696096D02*
X62589628Y44600858D01*
X62589628Y44600858D02*
X62589628Y44219906D01*
X62399152Y45648477D02*
X63065819Y45648477D01*
X62018200Y45410382D02*
X62732485Y45172287D01*
X62732485Y45172287D02*
X62732485Y45791334D01*
X35252819Y64666906D02*
X34252819Y64666906D01*
X34252819Y64666906D02*
X34252819Y64905001D01*
X34252819Y64905001D02*
X34300438Y65047858D01*
X34300438Y65047858D02*
X34395676Y65143096D01*
X34395676Y65143096D02*
X34490914Y65190715D01*
X34490914Y65190715D02*
X34681390Y65238334D01*
X34681390Y65238334D02*
X34824247Y65238334D01*
X34824247Y65238334D02*
X35014723Y65190715D01*
X35014723Y65190715D02*
X35109961Y65143096D01*
X35109961Y65143096D02*
X35205200Y65047858D01*
X35205200Y65047858D02*
X35252819Y64905001D01*
X35252819Y64905001D02*
X35252819Y64666906D01*
X34348057Y65619287D02*
X34300438Y65666906D01*
X34300438Y65666906D02*
X34252819Y65762144D01*
X34252819Y65762144D02*
X34252819Y66000239D01*
X34252819Y66000239D02*
X34300438Y66095477D01*
X34300438Y66095477D02*
X34348057Y66143096D01*
X34348057Y66143096D02*
X34443295Y66190715D01*
X34443295Y66190715D02*
X34538533Y66190715D01*
X34538533Y66190715D02*
X34681390Y66143096D01*
X34681390Y66143096D02*
X35252819Y65571668D01*
X35252819Y65571668D02*
X35252819Y66190715D01*
X71374095Y34200181D02*
X71374095Y33390658D01*
X71374095Y33390658D02*
X71421714Y33295420D01*
X71421714Y33295420D02*
X71469333Y33247800D01*
X71469333Y33247800D02*
X71564571Y33200181D01*
X71564571Y33200181D02*
X71755047Y33200181D01*
X71755047Y33200181D02*
X71850285Y33247800D01*
X71850285Y33247800D02*
X71897904Y33295420D01*
X71897904Y33295420D02*
X71945523Y33390658D01*
X71945523Y33390658D02*
X71945523Y34200181D01*
X72374095Y34104943D02*
X72421714Y34152562D01*
X72421714Y34152562D02*
X72516952Y34200181D01*
X72516952Y34200181D02*
X72755047Y34200181D01*
X72755047Y34200181D02*
X72850285Y34152562D01*
X72850285Y34152562D02*
X72897904Y34104943D01*
X72897904Y34104943D02*
X72945523Y34009705D01*
X72945523Y34009705D02*
X72945523Y33914467D01*
X72945523Y33914467D02*
X72897904Y33771610D01*
X72897904Y33771610D02*
X72326476Y33200181D01*
X72326476Y33200181D02*
X72945523Y33200181D01*
X50411142Y84603420D02*
X50363523Y84555800D01*
X50363523Y84555800D02*
X50220666Y84508181D01*
X50220666Y84508181D02*
X50125428Y84508181D01*
X50125428Y84508181D02*
X49982571Y84555800D01*
X49982571Y84555800D02*
X49887333Y84651039D01*
X49887333Y84651039D02*
X49839714Y84746277D01*
X49839714Y84746277D02*
X49792095Y84936753D01*
X49792095Y84936753D02*
X49792095Y85079610D01*
X49792095Y85079610D02*
X49839714Y85270086D01*
X49839714Y85270086D02*
X49887333Y85365324D01*
X49887333Y85365324D02*
X49982571Y85460562D01*
X49982571Y85460562D02*
X50125428Y85508181D01*
X50125428Y85508181D02*
X50220666Y85508181D01*
X50220666Y85508181D02*
X50363523Y85460562D01*
X50363523Y85460562D02*
X50411142Y85412943D01*
X51363523Y84508181D02*
X50792095Y84508181D01*
X51077809Y84508181D02*
X51077809Y85508181D01*
X51077809Y85508181D02*
X50982571Y85365324D01*
X50982571Y85365324D02*
X50887333Y85270086D01*
X50887333Y85270086D02*
X50792095Y85222467D01*
X52315904Y84508181D02*
X51744476Y84508181D01*
X52030190Y84508181D02*
X52030190Y85508181D01*
X52030190Y85508181D02*
X51934952Y85365324D01*
X51934952Y85365324D02*
X51839714Y85270086D01*
X51839714Y85270086D02*
X51744476Y85222467D01*
X57650142Y22373420D02*
X57602523Y22325800D01*
X57602523Y22325800D02*
X57459666Y22278181D01*
X57459666Y22278181D02*
X57364428Y22278181D01*
X57364428Y22278181D02*
X57221571Y22325800D01*
X57221571Y22325800D02*
X57126333Y22421039D01*
X57126333Y22421039D02*
X57078714Y22516277D01*
X57078714Y22516277D02*
X57031095Y22706753D01*
X57031095Y22706753D02*
X57031095Y22849610D01*
X57031095Y22849610D02*
X57078714Y23040086D01*
X57078714Y23040086D02*
X57126333Y23135324D01*
X57126333Y23135324D02*
X57221571Y23230562D01*
X57221571Y23230562D02*
X57364428Y23278181D01*
X57364428Y23278181D02*
X57459666Y23278181D01*
X57459666Y23278181D02*
X57602523Y23230562D01*
X57602523Y23230562D02*
X57650142Y23182943D01*
X58031095Y23182943D02*
X58078714Y23230562D01*
X58078714Y23230562D02*
X58173952Y23278181D01*
X58173952Y23278181D02*
X58412047Y23278181D01*
X58412047Y23278181D02*
X58507285Y23230562D01*
X58507285Y23230562D02*
X58554904Y23182943D01*
X58554904Y23182943D02*
X58602523Y23087705D01*
X58602523Y23087705D02*
X58602523Y22992467D01*
X58602523Y22992467D02*
X58554904Y22849610D01*
X58554904Y22849610D02*
X57983476Y22278181D01*
X57983476Y22278181D02*
X58602523Y22278181D01*
X59459666Y23278181D02*
X59269190Y23278181D01*
X59269190Y23278181D02*
X59173952Y23230562D01*
X59173952Y23230562D02*
X59126333Y23182943D01*
X59126333Y23182943D02*
X59031095Y23040086D01*
X59031095Y23040086D02*
X58983476Y22849610D01*
X58983476Y22849610D02*
X58983476Y22468658D01*
X58983476Y22468658D02*
X59031095Y22373420D01*
X59031095Y22373420D02*
X59078714Y22325800D01*
X59078714Y22325800D02*
X59173952Y22278181D01*
X59173952Y22278181D02*
X59364428Y22278181D01*
X59364428Y22278181D02*
X59459666Y22325800D01*
X59459666Y22325800D02*
X59507285Y22373420D01*
X59507285Y22373420D02*
X59554904Y22468658D01*
X59554904Y22468658D02*
X59554904Y22706753D01*
X59554904Y22706753D02*
X59507285Y22801991D01*
X59507285Y22801991D02*
X59459666Y22849610D01*
X59459666Y22849610D02*
X59364428Y22897229D01*
X59364428Y22897229D02*
X59173952Y22897229D01*
X59173952Y22897229D02*
X59078714Y22849610D01*
X59078714Y22849610D02*
X59031095Y22801991D01*
X59031095Y22801991D02*
X58983476Y22706753D01*
X42998333Y57679420D02*
X42950714Y57631800D01*
X42950714Y57631800D02*
X42807857Y57584181D01*
X42807857Y57584181D02*
X42712619Y57584181D01*
X42712619Y57584181D02*
X42569762Y57631800D01*
X42569762Y57631800D02*
X42474524Y57727039D01*
X42474524Y57727039D02*
X42426905Y57822277D01*
X42426905Y57822277D02*
X42379286Y58012753D01*
X42379286Y58012753D02*
X42379286Y58155610D01*
X42379286Y58155610D02*
X42426905Y58346086D01*
X42426905Y58346086D02*
X42474524Y58441324D01*
X42474524Y58441324D02*
X42569762Y58536562D01*
X42569762Y58536562D02*
X42712619Y58584181D01*
X42712619Y58584181D02*
X42807857Y58584181D01*
X42807857Y58584181D02*
X42950714Y58536562D01*
X42950714Y58536562D02*
X42998333Y58488943D01*
X43855476Y58584181D02*
X43665000Y58584181D01*
X43665000Y58584181D02*
X43569762Y58536562D01*
X43569762Y58536562D02*
X43522143Y58488943D01*
X43522143Y58488943D02*
X43426905Y58346086D01*
X43426905Y58346086D02*
X43379286Y58155610D01*
X43379286Y58155610D02*
X43379286Y57774658D01*
X43379286Y57774658D02*
X43426905Y57679420D01*
X43426905Y57679420D02*
X43474524Y57631800D01*
X43474524Y57631800D02*
X43569762Y57584181D01*
X43569762Y57584181D02*
X43760238Y57584181D01*
X43760238Y57584181D02*
X43855476Y57631800D01*
X43855476Y57631800D02*
X43903095Y57679420D01*
X43903095Y57679420D02*
X43950714Y57774658D01*
X43950714Y57774658D02*
X43950714Y58012753D01*
X43950714Y58012753D02*
X43903095Y58107991D01*
X43903095Y58107991D02*
X43855476Y58155610D01*
X43855476Y58155610D02*
X43760238Y58203229D01*
X43760238Y58203229D02*
X43569762Y58203229D01*
X43569762Y58203229D02*
X43474524Y58155610D01*
X43474524Y58155610D02*
X43426905Y58107991D01*
X43426905Y58107991D02*
X43379286Y58012753D01*
X67810142Y48567181D02*
X67476809Y49043372D01*
X67238714Y48567181D02*
X67238714Y49567181D01*
X67238714Y49567181D02*
X67619666Y49567181D01*
X67619666Y49567181D02*
X67714904Y49519562D01*
X67714904Y49519562D02*
X67762523Y49471943D01*
X67762523Y49471943D02*
X67810142Y49376705D01*
X67810142Y49376705D02*
X67810142Y49233848D01*
X67810142Y49233848D02*
X67762523Y49138610D01*
X67762523Y49138610D02*
X67714904Y49090991D01*
X67714904Y49090991D02*
X67619666Y49043372D01*
X67619666Y49043372D02*
X67238714Y49043372D01*
X68762523Y48567181D02*
X68191095Y48567181D01*
X68476809Y48567181D02*
X68476809Y49567181D01*
X68476809Y49567181D02*
X68381571Y49424324D01*
X68381571Y49424324D02*
X68286333Y49329086D01*
X68286333Y49329086D02*
X68191095Y49281467D01*
X69095857Y49567181D02*
X69762523Y49567181D01*
X69762523Y49567181D02*
X69333952Y48567181D01*
X70284693Y24056170D02*
X70284693Y23988826D01*
X70284693Y23988826D02*
X70217349Y23854139D01*
X70217349Y23854139D02*
X70150006Y23786796D01*
X70150006Y23786796D02*
X70015319Y23719452D01*
X70015319Y23719452D02*
X69880632Y23719452D01*
X69880632Y23719452D02*
X69779617Y23753124D01*
X69779617Y23753124D02*
X69611258Y23854139D01*
X69611258Y23854139D02*
X69510243Y23955154D01*
X69510243Y23955154D02*
X69409227Y24123513D01*
X69409227Y24123513D02*
X69375556Y24224528D01*
X69375556Y24224528D02*
X69375556Y24359215D01*
X69375556Y24359215D02*
X69442899Y24493902D01*
X69442899Y24493902D02*
X69510243Y24561246D01*
X69510243Y24561246D02*
X69644930Y24628589D01*
X69644930Y24628589D02*
X69712273Y24628589D01*
X69981647Y24897963D02*
X69981647Y24965307D01*
X69981647Y24965307D02*
X70015319Y25066322D01*
X70015319Y25066322D02*
X70183678Y25234681D01*
X70183678Y25234681D02*
X70284693Y25268353D01*
X70284693Y25268353D02*
X70352036Y25268353D01*
X70352036Y25268353D02*
X70453052Y25234681D01*
X70453052Y25234681D02*
X70520395Y25167337D01*
X70520395Y25167337D02*
X70587739Y25032650D01*
X70587739Y25032650D02*
X70587739Y24224528D01*
X70587739Y24224528D02*
X71025471Y24662261D01*
X70655082Y25571399D02*
X70655082Y25638742D01*
X70655082Y25638742D02*
X70688754Y25739757D01*
X70688754Y25739757D02*
X70857113Y25908116D01*
X70857113Y25908116D02*
X70958128Y25941788D01*
X70958128Y25941788D02*
X71025472Y25941788D01*
X71025472Y25941788D02*
X71126487Y25908116D01*
X71126487Y25908116D02*
X71193830Y25840773D01*
X71193830Y25840773D02*
X71261174Y25706086D01*
X71261174Y25706086D02*
X71261174Y24897964D01*
X71261174Y24897964D02*
X71698907Y25335696D01*
X79248095Y37375181D02*
X79248095Y36565658D01*
X79248095Y36565658D02*
X79295714Y36470420D01*
X79295714Y36470420D02*
X79343333Y36422800D01*
X79343333Y36422800D02*
X79438571Y36375181D01*
X79438571Y36375181D02*
X79629047Y36375181D01*
X79629047Y36375181D02*
X79724285Y36422800D01*
X79724285Y36422800D02*
X79771904Y36470420D01*
X79771904Y36470420D02*
X79819523Y36565658D01*
X79819523Y36565658D02*
X79819523Y37375181D01*
X80200476Y37375181D02*
X80819523Y37375181D01*
X80819523Y37375181D02*
X80486190Y36994229D01*
X80486190Y36994229D02*
X80629047Y36994229D01*
X80629047Y36994229D02*
X80724285Y36946610D01*
X80724285Y36946610D02*
X80771904Y36898991D01*
X80771904Y36898991D02*
X80819523Y36803753D01*
X80819523Y36803753D02*
X80819523Y36565658D01*
X80819523Y36565658D02*
X80771904Y36470420D01*
X80771904Y36470420D02*
X80724285Y36422800D01*
X80724285Y36422800D02*
X80629047Y36375181D01*
X80629047Y36375181D02*
X80343333Y36375181D01*
X80343333Y36375181D02*
X80248095Y36422800D01*
X80248095Y36422800D02*
X80200476Y36470420D01*
X33551904Y86682991D02*
X33218571Y86682991D01*
X33218571Y86159181D02*
X33218571Y87159181D01*
X33218571Y87159181D02*
X33694761Y87159181D01*
X34551904Y86159181D02*
X34075714Y86159181D01*
X34075714Y86159181D02*
X34075714Y87159181D01*
X35409047Y86159181D02*
X34837619Y86159181D01*
X35123333Y86159181D02*
X35123333Y87159181D01*
X35123333Y87159181D02*
X35028095Y87016324D01*
X35028095Y87016324D02*
X34932857Y86921086D01*
X34932857Y86921086D02*
X34837619Y86873467D01*
X79621142Y38375420D02*
X79573523Y38327800D01*
X79573523Y38327800D02*
X79430666Y38280181D01*
X79430666Y38280181D02*
X79335428Y38280181D01*
X79335428Y38280181D02*
X79192571Y38327800D01*
X79192571Y38327800D02*
X79097333Y38423039D01*
X79097333Y38423039D02*
X79049714Y38518277D01*
X79049714Y38518277D02*
X79002095Y38708753D01*
X79002095Y38708753D02*
X79002095Y38851610D01*
X79002095Y38851610D02*
X79049714Y39042086D01*
X79049714Y39042086D02*
X79097333Y39137324D01*
X79097333Y39137324D02*
X79192571Y39232562D01*
X79192571Y39232562D02*
X79335428Y39280181D01*
X79335428Y39280181D02*
X79430666Y39280181D01*
X79430666Y39280181D02*
X79573523Y39232562D01*
X79573523Y39232562D02*
X79621142Y39184943D01*
X80573523Y38280181D02*
X80002095Y38280181D01*
X80287809Y38280181D02*
X80287809Y39280181D01*
X80287809Y39280181D02*
X80192571Y39137324D01*
X80192571Y39137324D02*
X80097333Y39042086D01*
X80097333Y39042086D02*
X80002095Y38994467D01*
X80906857Y39280181D02*
X81525904Y39280181D01*
X81525904Y39280181D02*
X81192571Y38899229D01*
X81192571Y38899229D02*
X81335428Y38899229D01*
X81335428Y38899229D02*
X81430666Y38851610D01*
X81430666Y38851610D02*
X81478285Y38803991D01*
X81478285Y38803991D02*
X81525904Y38708753D01*
X81525904Y38708753D02*
X81525904Y38470658D01*
X81525904Y38470658D02*
X81478285Y38375420D01*
X81478285Y38375420D02*
X81430666Y38327800D01*
X81430666Y38327800D02*
X81335428Y38280181D01*
X81335428Y38280181D02*
X81049714Y38280181D01*
X81049714Y38280181D02*
X80954476Y38327800D01*
X80954476Y38327800D02*
X80906857Y38375420D01*
X63619142Y62759420D02*
X63571523Y62711800D01*
X63571523Y62711800D02*
X63428666Y62664181D01*
X63428666Y62664181D02*
X63333428Y62664181D01*
X63333428Y62664181D02*
X63190571Y62711800D01*
X63190571Y62711800D02*
X63095333Y62807039D01*
X63095333Y62807039D02*
X63047714Y62902277D01*
X63047714Y62902277D02*
X63000095Y63092753D01*
X63000095Y63092753D02*
X63000095Y63235610D01*
X63000095Y63235610D02*
X63047714Y63426086D01*
X63047714Y63426086D02*
X63095333Y63521324D01*
X63095333Y63521324D02*
X63190571Y63616562D01*
X63190571Y63616562D02*
X63333428Y63664181D01*
X63333428Y63664181D02*
X63428666Y63664181D01*
X63428666Y63664181D02*
X63571523Y63616562D01*
X63571523Y63616562D02*
X63619142Y63568943D01*
X64000095Y63568943D02*
X64047714Y63616562D01*
X64047714Y63616562D02*
X64142952Y63664181D01*
X64142952Y63664181D02*
X64381047Y63664181D01*
X64381047Y63664181D02*
X64476285Y63616562D01*
X64476285Y63616562D02*
X64523904Y63568943D01*
X64523904Y63568943D02*
X64571523Y63473705D01*
X64571523Y63473705D02*
X64571523Y63378467D01*
X64571523Y63378467D02*
X64523904Y63235610D01*
X64523904Y63235610D02*
X63952476Y62664181D01*
X63952476Y62664181D02*
X64571523Y62664181D01*
X65190571Y63664181D02*
X65285809Y63664181D01*
X65285809Y63664181D02*
X65381047Y63616562D01*
X65381047Y63616562D02*
X65428666Y63568943D01*
X65428666Y63568943D02*
X65476285Y63473705D01*
X65476285Y63473705D02*
X65523904Y63283229D01*
X65523904Y63283229D02*
X65523904Y63045134D01*
X65523904Y63045134D02*
X65476285Y62854658D01*
X65476285Y62854658D02*
X65428666Y62759420D01*
X65428666Y62759420D02*
X65381047Y62711800D01*
X65381047Y62711800D02*
X65285809Y62664181D01*
X65285809Y62664181D02*
X65190571Y62664181D01*
X65190571Y62664181D02*
X65095333Y62711800D01*
X65095333Y62711800D02*
X65047714Y62759420D01*
X65047714Y62759420D02*
X65000095Y62854658D01*
X65000095Y62854658D02*
X64952476Y63045134D01*
X64952476Y63045134D02*
X64952476Y63283229D01*
X64952476Y63283229D02*
X65000095Y63473705D01*
X65000095Y63473705D02*
X65047714Y63568943D01*
X65047714Y63568943D02*
X65095333Y63616562D01*
X65095333Y63616562D02*
X65190571Y63664181D01*
X44774333Y59743181D02*
X44441000Y60219372D01*
X44202905Y59743181D02*
X44202905Y60743181D01*
X44202905Y60743181D02*
X44583857Y60743181D01*
X44583857Y60743181D02*
X44679095Y60695562D01*
X44679095Y60695562D02*
X44726714Y60647943D01*
X44726714Y60647943D02*
X44774333Y60552705D01*
X44774333Y60552705D02*
X44774333Y60409848D01*
X44774333Y60409848D02*
X44726714Y60314610D01*
X44726714Y60314610D02*
X44679095Y60266991D01*
X44679095Y60266991D02*
X44583857Y60219372D01*
X44583857Y60219372D02*
X44202905Y60219372D01*
X45107667Y60743181D02*
X45774333Y60743181D01*
X45774333Y60743181D02*
X45345762Y59743181D01*
X8977334Y118131421D02*
X8929715Y118083801D01*
X8929715Y118083801D02*
X8786858Y118036182D01*
X8786858Y118036182D02*
X8691620Y118036182D01*
X8691620Y118036182D02*
X8548763Y118083801D01*
X8548763Y118083801D02*
X8453525Y118179040D01*
X8453525Y118179040D02*
X8405906Y118274278D01*
X8405906Y118274278D02*
X8358287Y118464754D01*
X8358287Y118464754D02*
X8358287Y118607611D01*
X8358287Y118607611D02*
X8405906Y118798087D01*
X8405906Y118798087D02*
X8453525Y118893325D01*
X8453525Y118893325D02*
X8548763Y118988563D01*
X8548763Y118988563D02*
X8691620Y119036182D01*
X8691620Y119036182D02*
X8786858Y119036182D01*
X8786858Y119036182D02*
X8929715Y118988563D01*
X8929715Y118988563D02*
X8977334Y118940944D01*
X9453525Y118036182D02*
X9644001Y118036182D01*
X9644001Y118036182D02*
X9739239Y118083801D01*
X9739239Y118083801D02*
X9786858Y118131421D01*
X9786858Y118131421D02*
X9882096Y118274278D01*
X9882096Y118274278D02*
X9929715Y118464754D01*
X9929715Y118464754D02*
X9929715Y118845706D01*
X9929715Y118845706D02*
X9882096Y118940944D01*
X9882096Y118940944D02*
X9834477Y118988563D01*
X9834477Y118988563D02*
X9739239Y119036182D01*
X9739239Y119036182D02*
X9548763Y119036182D01*
X9548763Y119036182D02*
X9453525Y118988563D01*
X9453525Y118988563D02*
X9405906Y118940944D01*
X9405906Y118940944D02*
X9358287Y118845706D01*
X9358287Y118845706D02*
X9358287Y118607611D01*
X9358287Y118607611D02*
X9405906Y118512373D01*
X9405906Y118512373D02*
X9453525Y118464754D01*
X9453525Y118464754D02*
X9548763Y118417135D01*
X9548763Y118417135D02*
X9739239Y118417135D01*
X9739239Y118417135D02*
X9834477Y118464754D01*
X9834477Y118464754D02*
X9882096Y118512373D01*
X9882096Y118512373D02*
X9929715Y118607611D01*
X57650142Y23770420D02*
X57602523Y23722800D01*
X57602523Y23722800D02*
X57459666Y23675181D01*
X57459666Y23675181D02*
X57364428Y23675181D01*
X57364428Y23675181D02*
X57221571Y23722800D01*
X57221571Y23722800D02*
X57126333Y23818039D01*
X57126333Y23818039D02*
X57078714Y23913277D01*
X57078714Y23913277D02*
X57031095Y24103753D01*
X57031095Y24103753D02*
X57031095Y24246610D01*
X57031095Y24246610D02*
X57078714Y24437086D01*
X57078714Y24437086D02*
X57126333Y24532324D01*
X57126333Y24532324D02*
X57221571Y24627562D01*
X57221571Y24627562D02*
X57364428Y24675181D01*
X57364428Y24675181D02*
X57459666Y24675181D01*
X57459666Y24675181D02*
X57602523Y24627562D01*
X57602523Y24627562D02*
X57650142Y24579943D01*
X58031095Y24579943D02*
X58078714Y24627562D01*
X58078714Y24627562D02*
X58173952Y24675181D01*
X58173952Y24675181D02*
X58412047Y24675181D01*
X58412047Y24675181D02*
X58507285Y24627562D01*
X58507285Y24627562D02*
X58554904Y24579943D01*
X58554904Y24579943D02*
X58602523Y24484705D01*
X58602523Y24484705D02*
X58602523Y24389467D01*
X58602523Y24389467D02*
X58554904Y24246610D01*
X58554904Y24246610D02*
X57983476Y23675181D01*
X57983476Y23675181D02*
X58602523Y23675181D01*
X59507285Y24675181D02*
X59031095Y24675181D01*
X59031095Y24675181D02*
X58983476Y24198991D01*
X58983476Y24198991D02*
X59031095Y24246610D01*
X59031095Y24246610D02*
X59126333Y24294229D01*
X59126333Y24294229D02*
X59364428Y24294229D01*
X59364428Y24294229D02*
X59459666Y24246610D01*
X59459666Y24246610D02*
X59507285Y24198991D01*
X59507285Y24198991D02*
X59554904Y24103753D01*
X59554904Y24103753D02*
X59554904Y23865658D01*
X59554904Y23865658D02*
X59507285Y23770420D01*
X59507285Y23770420D02*
X59459666Y23722800D01*
X59459666Y23722800D02*
X59364428Y23675181D01*
X59364428Y23675181D02*
X59126333Y23675181D01*
X59126333Y23675181D02*
X59031095Y23722800D01*
X59031095Y23722800D02*
X58983476Y23770420D01*
X23074333Y60600420D02*
X23026714Y60552800D01*
X23026714Y60552800D02*
X22883857Y60505181D01*
X22883857Y60505181D02*
X22788619Y60505181D01*
X22788619Y60505181D02*
X22645762Y60552800D01*
X22645762Y60552800D02*
X22550524Y60648039D01*
X22550524Y60648039D02*
X22502905Y60743277D01*
X22502905Y60743277D02*
X22455286Y60933753D01*
X22455286Y60933753D02*
X22455286Y61076610D01*
X22455286Y61076610D02*
X22502905Y61267086D01*
X22502905Y61267086D02*
X22550524Y61362324D01*
X22550524Y61362324D02*
X22645762Y61457562D01*
X22645762Y61457562D02*
X22788619Y61505181D01*
X22788619Y61505181D02*
X22883857Y61505181D01*
X22883857Y61505181D02*
X23026714Y61457562D01*
X23026714Y61457562D02*
X23074333Y61409943D01*
X24026714Y60505181D02*
X23455286Y60505181D01*
X23741000Y60505181D02*
X23741000Y61505181D01*
X23741000Y61505181D02*
X23645762Y61362324D01*
X23645762Y61362324D02*
X23550524Y61267086D01*
X23550524Y61267086D02*
X23455286Y61219467D01*
X49014142Y14150181D02*
X48680809Y14626372D01*
X48442714Y14150181D02*
X48442714Y15150181D01*
X48442714Y15150181D02*
X48823666Y15150181D01*
X48823666Y15150181D02*
X48918904Y15102562D01*
X48918904Y15102562D02*
X48966523Y15054943D01*
X48966523Y15054943D02*
X49014142Y14959705D01*
X49014142Y14959705D02*
X49014142Y14816848D01*
X49014142Y14816848D02*
X48966523Y14721610D01*
X48966523Y14721610D02*
X48918904Y14673991D01*
X48918904Y14673991D02*
X48823666Y14626372D01*
X48823666Y14626372D02*
X48442714Y14626372D01*
X49395095Y15054943D02*
X49442714Y15102562D01*
X49442714Y15102562D02*
X49537952Y15150181D01*
X49537952Y15150181D02*
X49776047Y15150181D01*
X49776047Y15150181D02*
X49871285Y15102562D01*
X49871285Y15102562D02*
X49918904Y15054943D01*
X49918904Y15054943D02*
X49966523Y14959705D01*
X49966523Y14959705D02*
X49966523Y14864467D01*
X49966523Y14864467D02*
X49918904Y14721610D01*
X49918904Y14721610D02*
X49347476Y14150181D01*
X49347476Y14150181D02*
X49966523Y14150181D01*
X50585571Y15150181D02*
X50680809Y15150181D01*
X50680809Y15150181D02*
X50776047Y15102562D01*
X50776047Y15102562D02*
X50823666Y15054943D01*
X50823666Y15054943D02*
X50871285Y14959705D01*
X50871285Y14959705D02*
X50918904Y14769229D01*
X50918904Y14769229D02*
X50918904Y14531134D01*
X50918904Y14531134D02*
X50871285Y14340658D01*
X50871285Y14340658D02*
X50823666Y14245420D01*
X50823666Y14245420D02*
X50776047Y14197800D01*
X50776047Y14197800D02*
X50680809Y14150181D01*
X50680809Y14150181D02*
X50585571Y14150181D01*
X50585571Y14150181D02*
X50490333Y14197800D01*
X50490333Y14197800D02*
X50442714Y14245420D01*
X50442714Y14245420D02*
X50395095Y14340658D01*
X50395095Y14340658D02*
X50347476Y14531134D01*
X50347476Y14531134D02*
X50347476Y14769229D01*
X50347476Y14769229D02*
X50395095Y14959705D01*
X50395095Y14959705D02*
X50442714Y15054943D01*
X50442714Y15054943D02*
X50490333Y15102562D01*
X50490333Y15102562D02*
X50585571Y15150181D01*
X68272819Y24249143D02*
X67796628Y23915810D01*
X68272819Y23677715D02*
X67272819Y23677715D01*
X67272819Y23677715D02*
X67272819Y24058667D01*
X67272819Y24058667D02*
X67320438Y24153905D01*
X67320438Y24153905D02*
X67368057Y24201524D01*
X67368057Y24201524D02*
X67463295Y24249143D01*
X67463295Y24249143D02*
X67606152Y24249143D01*
X67606152Y24249143D02*
X67701390Y24201524D01*
X67701390Y24201524D02*
X67749009Y24153905D01*
X67749009Y24153905D02*
X67796628Y24058667D01*
X67796628Y24058667D02*
X67796628Y23677715D01*
X68272819Y25201524D02*
X68272819Y24630096D01*
X68272819Y24915810D02*
X67272819Y24915810D01*
X67272819Y24915810D02*
X67415676Y24820572D01*
X67415676Y24820572D02*
X67510914Y24725334D01*
X67510914Y24725334D02*
X67558533Y24630096D01*
X67272819Y26106286D02*
X67272819Y25630096D01*
X67272819Y25630096D02*
X67749009Y25582477D01*
X67749009Y25582477D02*
X67701390Y25630096D01*
X67701390Y25630096D02*
X67653771Y25725334D01*
X67653771Y25725334D02*
X67653771Y25963429D01*
X67653771Y25963429D02*
X67701390Y26058667D01*
X67701390Y26058667D02*
X67749009Y26106286D01*
X67749009Y26106286D02*
X67844247Y26153905D01*
X67844247Y26153905D02*
X68082342Y26153905D01*
X68082342Y26153905D02*
X68177580Y26106286D01*
X68177580Y26106286D02*
X68225200Y26058667D01*
X68225200Y26058667D02*
X68272819Y25963429D01*
X68272819Y25963429D02*
X68272819Y25725334D01*
X68272819Y25725334D02*
X68225200Y25630096D01*
X68225200Y25630096D02*
X68177580Y25582477D01*
X61706287Y107098182D02*
X62277715Y107098182D01*
X61992001Y106098182D02*
X61992001Y107098182D01*
X62611049Y106098182D02*
X62611049Y107098182D01*
X62611049Y106621992D02*
X63182477Y106621992D01*
X63182477Y106098182D02*
X63182477Y107098182D01*
X64182477Y106098182D02*
X63611049Y106098182D01*
X63896763Y106098182D02*
X63896763Y107098182D01*
X63896763Y107098182D02*
X63801525Y106955325D01*
X63801525Y106955325D02*
X63706287Y106860087D01*
X63706287Y106860087D02*
X63611049Y106812468D01*
X22298819Y58380334D02*
X21822628Y58047001D01*
X22298819Y57808906D02*
X21298819Y57808906D01*
X21298819Y57808906D02*
X21298819Y58189858D01*
X21298819Y58189858D02*
X21346438Y58285096D01*
X21346438Y58285096D02*
X21394057Y58332715D01*
X21394057Y58332715D02*
X21489295Y58380334D01*
X21489295Y58380334D02*
X21632152Y58380334D01*
X21632152Y58380334D02*
X21727390Y58332715D01*
X21727390Y58332715D02*
X21775009Y58285096D01*
X21775009Y58285096D02*
X21822628Y58189858D01*
X21822628Y58189858D02*
X21822628Y57808906D01*
X21394057Y58761287D02*
X21346438Y58808906D01*
X21346438Y58808906D02*
X21298819Y58904144D01*
X21298819Y58904144D02*
X21298819Y59142239D01*
X21298819Y59142239D02*
X21346438Y59237477D01*
X21346438Y59237477D02*
X21394057Y59285096D01*
X21394057Y59285096D02*
X21489295Y59332715D01*
X21489295Y59332715D02*
X21584533Y59332715D01*
X21584533Y59332715D02*
X21727390Y59285096D01*
X21727390Y59285096D02*
X22298819Y58713668D01*
X22298819Y58713668D02*
X22298819Y59332715D01*
X2460666Y68744181D02*
X2460666Y68029896D01*
X2460666Y68029896D02*
X2413047Y67887039D01*
X2413047Y67887039D02*
X2317809Y67791800D01*
X2317809Y67791800D02*
X2174952Y67744181D01*
X2174952Y67744181D02*
X2079714Y67744181D01*
X3460666Y67744181D02*
X2889238Y67744181D01*
X3174952Y67744181D02*
X3174952Y68744181D01*
X3174952Y68744181D02*
X3079714Y68601324D01*
X3079714Y68601324D02*
X2984476Y68506086D01*
X2984476Y68506086D02*
X2889238Y68458467D01*
X66413142Y29358420D02*
X66365523Y29310800D01*
X66365523Y29310800D02*
X66222666Y29263181D01*
X66222666Y29263181D02*
X66127428Y29263181D01*
X66127428Y29263181D02*
X65984571Y29310800D01*
X65984571Y29310800D02*
X65889333Y29406039D01*
X65889333Y29406039D02*
X65841714Y29501277D01*
X65841714Y29501277D02*
X65794095Y29691753D01*
X65794095Y29691753D02*
X65794095Y29834610D01*
X65794095Y29834610D02*
X65841714Y30025086D01*
X65841714Y30025086D02*
X65889333Y30120324D01*
X65889333Y30120324D02*
X65984571Y30215562D01*
X65984571Y30215562D02*
X66127428Y30263181D01*
X66127428Y30263181D02*
X66222666Y30263181D01*
X66222666Y30263181D02*
X66365523Y30215562D01*
X66365523Y30215562D02*
X66413142Y30167943D01*
X67365523Y29263181D02*
X66794095Y29263181D01*
X67079809Y29263181D02*
X67079809Y30263181D01*
X67079809Y30263181D02*
X66984571Y30120324D01*
X66984571Y30120324D02*
X66889333Y30025086D01*
X66889333Y30025086D02*
X66794095Y29977467D01*
X68222666Y29929848D02*
X68222666Y29263181D01*
X67984571Y30310800D02*
X67746476Y29596515D01*
X67746476Y29596515D02*
X68365523Y29596515D01*
X38443819Y49157096D02*
X38443819Y49728524D01*
X39443819Y49442810D02*
X38443819Y49442810D01*
X39443819Y50633286D02*
X38967628Y50299953D01*
X39443819Y50061858D02*
X38443819Y50061858D01*
X38443819Y50061858D02*
X38443819Y50442810D01*
X38443819Y50442810D02*
X38491438Y50538048D01*
X38491438Y50538048D02*
X38539057Y50585667D01*
X38539057Y50585667D02*
X38634295Y50633286D01*
X38634295Y50633286D02*
X38777152Y50633286D01*
X38777152Y50633286D02*
X38872390Y50585667D01*
X38872390Y50585667D02*
X38920009Y50538048D01*
X38920009Y50538048D02*
X38967628Y50442810D01*
X38967628Y50442810D02*
X38967628Y50061858D01*
X39443819Y51585667D02*
X39443819Y51014239D01*
X39443819Y51299953D02*
X38443819Y51299953D01*
X38443819Y51299953D02*
X38586676Y51204715D01*
X38586676Y51204715D02*
X38681914Y51109477D01*
X38681914Y51109477D02*
X38729533Y51014239D01*
X49824333Y59743181D02*
X49491000Y60219372D01*
X49252905Y59743181D02*
X49252905Y60743181D01*
X49252905Y60743181D02*
X49633857Y60743181D01*
X49633857Y60743181D02*
X49729095Y60695562D01*
X49729095Y60695562D02*
X49776714Y60647943D01*
X49776714Y60647943D02*
X49824333Y60552705D01*
X49824333Y60552705D02*
X49824333Y60409848D01*
X49824333Y60409848D02*
X49776714Y60314610D01*
X49776714Y60314610D02*
X49729095Y60266991D01*
X49729095Y60266991D02*
X49633857Y60219372D01*
X49633857Y60219372D02*
X49252905Y60219372D01*
X50681476Y60743181D02*
X50491000Y60743181D01*
X50491000Y60743181D02*
X50395762Y60695562D01*
X50395762Y60695562D02*
X50348143Y60647943D01*
X50348143Y60647943D02*
X50252905Y60505086D01*
X50252905Y60505086D02*
X50205286Y60314610D01*
X50205286Y60314610D02*
X50205286Y59933658D01*
X50205286Y59933658D02*
X50252905Y59838420D01*
X50252905Y59838420D02*
X50300524Y59790800D01*
X50300524Y59790800D02*
X50395762Y59743181D01*
X50395762Y59743181D02*
X50586238Y59743181D01*
X50586238Y59743181D02*
X50681476Y59790800D01*
X50681476Y59790800D02*
X50729095Y59838420D01*
X50729095Y59838420D02*
X50776714Y59933658D01*
X50776714Y59933658D02*
X50776714Y60171753D01*
X50776714Y60171753D02*
X50729095Y60266991D01*
X50729095Y60266991D02*
X50681476Y60314610D01*
X50681476Y60314610D02*
X50586238Y60362229D01*
X50586238Y60362229D02*
X50395762Y60362229D01*
X50395762Y60362229D02*
X50300524Y60314610D01*
X50300524Y60314610D02*
X50252905Y60266991D01*
X50252905Y60266991D02*
X50205286Y60171753D01*
X69842142Y10689420D02*
X69794523Y10641800D01*
X69794523Y10641800D02*
X69651666Y10594181D01*
X69651666Y10594181D02*
X69556428Y10594181D01*
X69556428Y10594181D02*
X69413571Y10641800D01*
X69413571Y10641800D02*
X69318333Y10737039D01*
X69318333Y10737039D02*
X69270714Y10832277D01*
X69270714Y10832277D02*
X69223095Y11022753D01*
X69223095Y11022753D02*
X69223095Y11165610D01*
X69223095Y11165610D02*
X69270714Y11356086D01*
X69270714Y11356086D02*
X69318333Y11451324D01*
X69318333Y11451324D02*
X69413571Y11546562D01*
X69413571Y11546562D02*
X69556428Y11594181D01*
X69556428Y11594181D02*
X69651666Y11594181D01*
X69651666Y11594181D02*
X69794523Y11546562D01*
X69794523Y11546562D02*
X69842142Y11498943D01*
X70794523Y10594181D02*
X70223095Y10594181D01*
X70508809Y10594181D02*
X70508809Y11594181D01*
X70508809Y11594181D02*
X70413571Y11451324D01*
X70413571Y11451324D02*
X70318333Y11356086D01*
X70318333Y11356086D02*
X70223095Y11308467D01*
X71365952Y11165610D02*
X71270714Y11213229D01*
X71270714Y11213229D02*
X71223095Y11260848D01*
X71223095Y11260848D02*
X71175476Y11356086D01*
X71175476Y11356086D02*
X71175476Y11403705D01*
X71175476Y11403705D02*
X71223095Y11498943D01*
X71223095Y11498943D02*
X71270714Y11546562D01*
X71270714Y11546562D02*
X71365952Y11594181D01*
X71365952Y11594181D02*
X71556428Y11594181D01*
X71556428Y11594181D02*
X71651666Y11546562D01*
X71651666Y11546562D02*
X71699285Y11498943D01*
X71699285Y11498943D02*
X71746904Y11403705D01*
X71746904Y11403705D02*
X71746904Y11356086D01*
X71746904Y11356086D02*
X71699285Y11260848D01*
X71699285Y11260848D02*
X71651666Y11213229D01*
X71651666Y11213229D02*
X71556428Y11165610D01*
X71556428Y11165610D02*
X71365952Y11165610D01*
X71365952Y11165610D02*
X71270714Y11117991D01*
X71270714Y11117991D02*
X71223095Y11070372D01*
X71223095Y11070372D02*
X71175476Y10975134D01*
X71175476Y10975134D02*
X71175476Y10784658D01*
X71175476Y10784658D02*
X71223095Y10689420D01*
X71223095Y10689420D02*
X71270714Y10641800D01*
X71270714Y10641800D02*
X71365952Y10594181D01*
X71365952Y10594181D02*
X71556428Y10594181D01*
X71556428Y10594181D02*
X71651666Y10641800D01*
X71651666Y10641800D02*
X71699285Y10689420D01*
X71699285Y10689420D02*
X71746904Y10784658D01*
X71746904Y10784658D02*
X71746904Y10975134D01*
X71746904Y10975134D02*
X71699285Y11070372D01*
X71699285Y11070372D02*
X71651666Y11117991D01*
X71651666Y11117991D02*
X71556428Y11165610D01*
X16597333Y112543420D02*
X16549714Y112495800D01*
X16549714Y112495800D02*
X16406857Y112448181D01*
X16406857Y112448181D02*
X16311619Y112448181D01*
X16311619Y112448181D02*
X16168762Y112495800D01*
X16168762Y112495800D02*
X16073524Y112591039D01*
X16073524Y112591039D02*
X16025905Y112686277D01*
X16025905Y112686277D02*
X15978286Y112876753D01*
X15978286Y112876753D02*
X15978286Y113019610D01*
X15978286Y113019610D02*
X16025905Y113210086D01*
X16025905Y113210086D02*
X16073524Y113305324D01*
X16073524Y113305324D02*
X16168762Y113400562D01*
X16168762Y113400562D02*
X16311619Y113448181D01*
X16311619Y113448181D02*
X16406857Y113448181D01*
X16406857Y113448181D02*
X16549714Y113400562D01*
X16549714Y113400562D02*
X16597333Y113352943D01*
X17168762Y113019610D02*
X17073524Y113067229D01*
X17073524Y113067229D02*
X17025905Y113114848D01*
X17025905Y113114848D02*
X16978286Y113210086D01*
X16978286Y113210086D02*
X16978286Y113257705D01*
X16978286Y113257705D02*
X17025905Y113352943D01*
X17025905Y113352943D02*
X17073524Y113400562D01*
X17073524Y113400562D02*
X17168762Y113448181D01*
X17168762Y113448181D02*
X17359238Y113448181D01*
X17359238Y113448181D02*
X17454476Y113400562D01*
X17454476Y113400562D02*
X17502095Y113352943D01*
X17502095Y113352943D02*
X17549714Y113257705D01*
X17549714Y113257705D02*
X17549714Y113210086D01*
X17549714Y113210086D02*
X17502095Y113114848D01*
X17502095Y113114848D02*
X17454476Y113067229D01*
X17454476Y113067229D02*
X17359238Y113019610D01*
X17359238Y113019610D02*
X17168762Y113019610D01*
X17168762Y113019610D02*
X17073524Y112971991D01*
X17073524Y112971991D02*
X17025905Y112924372D01*
X17025905Y112924372D02*
X16978286Y112829134D01*
X16978286Y112829134D02*
X16978286Y112638658D01*
X16978286Y112638658D02*
X17025905Y112543420D01*
X17025905Y112543420D02*
X17073524Y112495800D01*
X17073524Y112495800D02*
X17168762Y112448181D01*
X17168762Y112448181D02*
X17359238Y112448181D01*
X17359238Y112448181D02*
X17454476Y112495800D01*
X17454476Y112495800D02*
X17502095Y112543420D01*
X17502095Y112543420D02*
X17549714Y112638658D01*
X17549714Y112638658D02*
X17549714Y112829134D01*
X17549714Y112829134D02*
X17502095Y112924372D01*
X17502095Y112924372D02*
X17454476Y112971991D01*
X17454476Y112971991D02*
X17359238Y113019610D01*
X31315819Y53554334D02*
X30839628Y53221001D01*
X31315819Y52982906D02*
X30315819Y52982906D01*
X30315819Y52982906D02*
X30315819Y53363858D01*
X30315819Y53363858D02*
X30363438Y53459096D01*
X30363438Y53459096D02*
X30411057Y53506715D01*
X30411057Y53506715D02*
X30506295Y53554334D01*
X30506295Y53554334D02*
X30649152Y53554334D01*
X30649152Y53554334D02*
X30744390Y53506715D01*
X30744390Y53506715D02*
X30792009Y53459096D01*
X30792009Y53459096D02*
X30839628Y53363858D01*
X30839628Y53363858D02*
X30839628Y52982906D01*
X30315819Y53887668D02*
X30315819Y54506715D01*
X30315819Y54506715D02*
X30696771Y54173382D01*
X30696771Y54173382D02*
X30696771Y54316239D01*
X30696771Y54316239D02*
X30744390Y54411477D01*
X30744390Y54411477D02*
X30792009Y54459096D01*
X30792009Y54459096D02*
X30887247Y54506715D01*
X30887247Y54506715D02*
X31125342Y54506715D01*
X31125342Y54506715D02*
X31220580Y54459096D01*
X31220580Y54459096D02*
X31268200Y54411477D01*
X31268200Y54411477D02*
X31315819Y54316239D01*
X31315819Y54316239D02*
X31315819Y54030525D01*
X31315819Y54030525D02*
X31268200Y53935287D01*
X31268200Y53935287D02*
X31220580Y53887668D01*
X25900142Y62283181D02*
X25566809Y62759372D01*
X25328714Y62283181D02*
X25328714Y63283181D01*
X25328714Y63283181D02*
X25709666Y63283181D01*
X25709666Y63283181D02*
X25804904Y63235562D01*
X25804904Y63235562D02*
X25852523Y63187943D01*
X25852523Y63187943D02*
X25900142Y63092705D01*
X25900142Y63092705D02*
X25900142Y62949848D01*
X25900142Y62949848D02*
X25852523Y62854610D01*
X25852523Y62854610D02*
X25804904Y62806991D01*
X25804904Y62806991D02*
X25709666Y62759372D01*
X25709666Y62759372D02*
X25328714Y62759372D01*
X26852523Y62283181D02*
X26281095Y62283181D01*
X26566809Y62283181D02*
X26566809Y63283181D01*
X26566809Y63283181D02*
X26471571Y63140324D01*
X26471571Y63140324D02*
X26376333Y63045086D01*
X26376333Y63045086D02*
X26281095Y62997467D01*
X27471571Y63283181D02*
X27566809Y63283181D01*
X27566809Y63283181D02*
X27662047Y63235562D01*
X27662047Y63235562D02*
X27709666Y63187943D01*
X27709666Y63187943D02*
X27757285Y63092705D01*
X27757285Y63092705D02*
X27804904Y62902229D01*
X27804904Y62902229D02*
X27804904Y62664134D01*
X27804904Y62664134D02*
X27757285Y62473658D01*
X27757285Y62473658D02*
X27709666Y62378420D01*
X27709666Y62378420D02*
X27662047Y62330800D01*
X27662047Y62330800D02*
X27566809Y62283181D01*
X27566809Y62283181D02*
X27471571Y62283181D01*
X27471571Y62283181D02*
X27376333Y62330800D01*
X27376333Y62330800D02*
X27328714Y62378420D01*
X27328714Y62378420D02*
X27281095Y62473658D01*
X27281095Y62473658D02*
X27233476Y62664134D01*
X27233476Y62664134D02*
X27233476Y62902229D01*
X27233476Y62902229D02*
X27281095Y63092705D01*
X27281095Y63092705D02*
X27328714Y63187943D01*
X27328714Y63187943D02*
X27376333Y63235562D01*
X27376333Y63235562D02*
X27471571Y63283181D01*
X70431066Y2424781D02*
X70431066Y1710496D01*
X70431066Y1710496D02*
X70383447Y1567639D01*
X70383447Y1567639D02*
X70288209Y1472400D01*
X70288209Y1472400D02*
X70145352Y1424781D01*
X70145352Y1424781D02*
X70050114Y1424781D01*
X70859638Y2329543D02*
X70907257Y2377162D01*
X70907257Y2377162D02*
X71002495Y2424781D01*
X71002495Y2424781D02*
X71240590Y2424781D01*
X71240590Y2424781D02*
X71335828Y2377162D01*
X71335828Y2377162D02*
X71383447Y2329543D01*
X71383447Y2329543D02*
X71431066Y2234305D01*
X71431066Y2234305D02*
X71431066Y2139067D01*
X71431066Y2139067D02*
X71383447Y1996210D01*
X71383447Y1996210D02*
X70812019Y1424781D01*
X70812019Y1424781D02*
X71431066Y1424781D01*
X61618905Y25453181D02*
X61618905Y26453181D01*
X61618905Y26453181D02*
X61857000Y26453181D01*
X61857000Y26453181D02*
X61999857Y26405562D01*
X61999857Y26405562D02*
X62095095Y26310324D01*
X62095095Y26310324D02*
X62142714Y26215086D01*
X62142714Y26215086D02*
X62190333Y26024610D01*
X62190333Y26024610D02*
X62190333Y25881753D01*
X62190333Y25881753D02*
X62142714Y25691277D01*
X62142714Y25691277D02*
X62095095Y25596039D01*
X62095095Y25596039D02*
X61999857Y25500800D01*
X61999857Y25500800D02*
X61857000Y25453181D01*
X61857000Y25453181D02*
X61618905Y25453181D01*
X63047476Y26119848D02*
X63047476Y25453181D01*
X62809381Y26500800D02*
X62571286Y25786515D01*
X62571286Y25786515D02*
X63190333Y25786515D01*
X62222142Y26818420D02*
X62174523Y26770800D01*
X62174523Y26770800D02*
X62031666Y26723181D01*
X62031666Y26723181D02*
X61936428Y26723181D01*
X61936428Y26723181D02*
X61793571Y26770800D01*
X61793571Y26770800D02*
X61698333Y26866039D01*
X61698333Y26866039D02*
X61650714Y26961277D01*
X61650714Y26961277D02*
X61603095Y27151753D01*
X61603095Y27151753D02*
X61603095Y27294610D01*
X61603095Y27294610D02*
X61650714Y27485086D01*
X61650714Y27485086D02*
X61698333Y27580324D01*
X61698333Y27580324D02*
X61793571Y27675562D01*
X61793571Y27675562D02*
X61936428Y27723181D01*
X61936428Y27723181D02*
X62031666Y27723181D01*
X62031666Y27723181D02*
X62174523Y27675562D01*
X62174523Y27675562D02*
X62222142Y27627943D01*
X63174523Y26723181D02*
X62603095Y26723181D01*
X62888809Y26723181D02*
X62888809Y27723181D01*
X62888809Y27723181D02*
X62793571Y27580324D01*
X62793571Y27580324D02*
X62698333Y27485086D01*
X62698333Y27485086D02*
X62603095Y27437467D01*
X63555476Y27627943D02*
X63603095Y27675562D01*
X63603095Y27675562D02*
X63698333Y27723181D01*
X63698333Y27723181D02*
X63936428Y27723181D01*
X63936428Y27723181D02*
X64031666Y27675562D01*
X64031666Y27675562D02*
X64079285Y27627943D01*
X64079285Y27627943D02*
X64126904Y27532705D01*
X64126904Y27532705D02*
X64126904Y27437467D01*
X64126904Y27437467D02*
X64079285Y27294610D01*
X64079285Y27294610D02*
X63507857Y26723181D01*
X63507857Y26723181D02*
X64126904Y26723181D01*
X62222142Y29263181D02*
X61888809Y29739372D01*
X61650714Y29263181D02*
X61650714Y30263181D01*
X61650714Y30263181D02*
X62031666Y30263181D01*
X62031666Y30263181D02*
X62126904Y30215562D01*
X62126904Y30215562D02*
X62174523Y30167943D01*
X62174523Y30167943D02*
X62222142Y30072705D01*
X62222142Y30072705D02*
X62222142Y29929848D01*
X62222142Y29929848D02*
X62174523Y29834610D01*
X62174523Y29834610D02*
X62126904Y29786991D01*
X62126904Y29786991D02*
X62031666Y29739372D01*
X62031666Y29739372D02*
X61650714Y29739372D01*
X63174523Y29263181D02*
X62603095Y29263181D01*
X62888809Y29263181D02*
X62888809Y30263181D01*
X62888809Y30263181D02*
X62793571Y30120324D01*
X62793571Y30120324D02*
X62698333Y30025086D01*
X62698333Y30025086D02*
X62603095Y29977467D01*
X63555476Y30167943D02*
X63603095Y30215562D01*
X63603095Y30215562D02*
X63698333Y30263181D01*
X63698333Y30263181D02*
X63936428Y30263181D01*
X63936428Y30263181D02*
X64031666Y30215562D01*
X64031666Y30215562D02*
X64079285Y30167943D01*
X64079285Y30167943D02*
X64126904Y30072705D01*
X64126904Y30072705D02*
X64126904Y29977467D01*
X64126904Y29977467D02*
X64079285Y29834610D01*
X64079285Y29834610D02*
X63507857Y29263181D01*
X63507857Y29263181D02*
X64126904Y29263181D01*
X33474819Y65238334D02*
X32998628Y64905001D01*
X33474819Y64666906D02*
X32474819Y64666906D01*
X32474819Y64666906D02*
X32474819Y65047858D01*
X32474819Y65047858D02*
X32522438Y65143096D01*
X32522438Y65143096D02*
X32570057Y65190715D01*
X32570057Y65190715D02*
X32665295Y65238334D01*
X32665295Y65238334D02*
X32808152Y65238334D01*
X32808152Y65238334D02*
X32903390Y65190715D01*
X32903390Y65190715D02*
X32951009Y65143096D01*
X32951009Y65143096D02*
X32998628Y65047858D01*
X32998628Y65047858D02*
X32998628Y64666906D01*
X32903390Y65809763D02*
X32855771Y65714525D01*
X32855771Y65714525D02*
X32808152Y65666906D01*
X32808152Y65666906D02*
X32712914Y65619287D01*
X32712914Y65619287D02*
X32665295Y65619287D01*
X32665295Y65619287D02*
X32570057Y65666906D01*
X32570057Y65666906D02*
X32522438Y65714525D01*
X32522438Y65714525D02*
X32474819Y65809763D01*
X32474819Y65809763D02*
X32474819Y66000239D01*
X32474819Y66000239D02*
X32522438Y66095477D01*
X32522438Y66095477D02*
X32570057Y66143096D01*
X32570057Y66143096D02*
X32665295Y66190715D01*
X32665295Y66190715D02*
X32712914Y66190715D01*
X32712914Y66190715D02*
X32808152Y66143096D01*
X32808152Y66143096D02*
X32855771Y66095477D01*
X32855771Y66095477D02*
X32903390Y66000239D01*
X32903390Y66000239D02*
X32903390Y65809763D01*
X32903390Y65809763D02*
X32951009Y65714525D01*
X32951009Y65714525D02*
X32998628Y65666906D01*
X32998628Y65666906D02*
X33093866Y65619287D01*
X33093866Y65619287D02*
X33284342Y65619287D01*
X33284342Y65619287D02*
X33379580Y65666906D01*
X33379580Y65666906D02*
X33427200Y65714525D01*
X33427200Y65714525D02*
X33474819Y65809763D01*
X33474819Y65809763D02*
X33474819Y66000239D01*
X33474819Y66000239D02*
X33427200Y66095477D01*
X33427200Y66095477D02*
X33379580Y66143096D01*
X33379580Y66143096D02*
X33284342Y66190715D01*
X33284342Y66190715D02*
X33093866Y66190715D01*
X33093866Y66190715D02*
X32998628Y66143096D01*
X32998628Y66143096D02*
X32951009Y66095477D01*
X32951009Y66095477D02*
X32903390Y66000239D01*
X23836333Y62283181D02*
X23503000Y62759372D01*
X23264905Y62283181D02*
X23264905Y63283181D01*
X23264905Y63283181D02*
X23645857Y63283181D01*
X23645857Y63283181D02*
X23741095Y63235562D01*
X23741095Y63235562D02*
X23788714Y63187943D01*
X23788714Y63187943D02*
X23836333Y63092705D01*
X23836333Y63092705D02*
X23836333Y62949848D01*
X23836333Y62949848D02*
X23788714Y62854610D01*
X23788714Y62854610D02*
X23741095Y62806991D01*
X23741095Y62806991D02*
X23645857Y62759372D01*
X23645857Y62759372D02*
X23264905Y62759372D01*
X24312524Y62283181D02*
X24503000Y62283181D01*
X24503000Y62283181D02*
X24598238Y62330800D01*
X24598238Y62330800D02*
X24645857Y62378420D01*
X24645857Y62378420D02*
X24741095Y62521277D01*
X24741095Y62521277D02*
X24788714Y62711753D01*
X24788714Y62711753D02*
X24788714Y63092705D01*
X24788714Y63092705D02*
X24741095Y63187943D01*
X24741095Y63187943D02*
X24693476Y63235562D01*
X24693476Y63235562D02*
X24598238Y63283181D01*
X24598238Y63283181D02*
X24407762Y63283181D01*
X24407762Y63283181D02*
X24312524Y63235562D01*
X24312524Y63235562D02*
X24264905Y63187943D01*
X24264905Y63187943D02*
X24217286Y63092705D01*
X24217286Y63092705D02*
X24217286Y62854610D01*
X24217286Y62854610D02*
X24264905Y62759372D01*
X24264905Y62759372D02*
X24312524Y62711753D01*
X24312524Y62711753D02*
X24407762Y62664134D01*
X24407762Y62664134D02*
X24598238Y62664134D01*
X24598238Y62664134D02*
X24693476Y62711753D01*
X24693476Y62711753D02*
X24741095Y62759372D01*
X24741095Y62759372D02*
X24788714Y62854610D01*
X50873819Y16533906D02*
X49873819Y16533906D01*
X49873819Y16533906D02*
X49873819Y16772001D01*
X49873819Y16772001D02*
X49921438Y16914858D01*
X49921438Y16914858D02*
X50016676Y17010096D01*
X50016676Y17010096D02*
X50111914Y17057715D01*
X50111914Y17057715D02*
X50302390Y17105334D01*
X50302390Y17105334D02*
X50445247Y17105334D01*
X50445247Y17105334D02*
X50635723Y17057715D01*
X50635723Y17057715D02*
X50730961Y17010096D01*
X50730961Y17010096D02*
X50826200Y16914858D01*
X50826200Y16914858D02*
X50873819Y16772001D01*
X50873819Y16772001D02*
X50873819Y16533906D01*
X49873819Y17438668D02*
X49873819Y18105334D01*
X49873819Y18105334D02*
X50873819Y17676763D01*
X38568333Y55012420D02*
X38520714Y54964800D01*
X38520714Y54964800D02*
X38377857Y54917181D01*
X38377857Y54917181D02*
X38282619Y54917181D01*
X38282619Y54917181D02*
X38139762Y54964800D01*
X38139762Y54964800D02*
X38044524Y55060039D01*
X38044524Y55060039D02*
X37996905Y55155277D01*
X37996905Y55155277D02*
X37949286Y55345753D01*
X37949286Y55345753D02*
X37949286Y55488610D01*
X37949286Y55488610D02*
X37996905Y55679086D01*
X37996905Y55679086D02*
X38044524Y55774324D01*
X38044524Y55774324D02*
X38139762Y55869562D01*
X38139762Y55869562D02*
X38282619Y55917181D01*
X38282619Y55917181D02*
X38377857Y55917181D01*
X38377857Y55917181D02*
X38520714Y55869562D01*
X38520714Y55869562D02*
X38568333Y55821943D01*
X38901667Y55917181D02*
X39520714Y55917181D01*
X39520714Y55917181D02*
X39187381Y55536229D01*
X39187381Y55536229D02*
X39330238Y55536229D01*
X39330238Y55536229D02*
X39425476Y55488610D01*
X39425476Y55488610D02*
X39473095Y55440991D01*
X39473095Y55440991D02*
X39520714Y55345753D01*
X39520714Y55345753D02*
X39520714Y55107658D01*
X39520714Y55107658D02*
X39473095Y55012420D01*
X39473095Y55012420D02*
X39425476Y54964800D01*
X39425476Y54964800D02*
X39330238Y54917181D01*
X39330238Y54917181D02*
X39044524Y54917181D01*
X39044524Y54917181D02*
X38949286Y54964800D01*
X38949286Y54964800D02*
X38901667Y55012420D01*
X52270819Y15525906D02*
X51270819Y15525906D01*
X51747009Y15525906D02*
X51747009Y16097334D01*
X52270819Y16097334D02*
X51270819Y16097334D01*
X52223200Y16525906D02*
X52270819Y16668763D01*
X52270819Y16668763D02*
X52270819Y16906858D01*
X52270819Y16906858D02*
X52223200Y17002096D01*
X52223200Y17002096D02*
X52175580Y17049715D01*
X52175580Y17049715D02*
X52080342Y17097334D01*
X52080342Y17097334D02*
X51985104Y17097334D01*
X51985104Y17097334D02*
X51889866Y17049715D01*
X51889866Y17049715D02*
X51842247Y17002096D01*
X51842247Y17002096D02*
X51794628Y16906858D01*
X51794628Y16906858D02*
X51747009Y16716382D01*
X51747009Y16716382D02*
X51699390Y16621144D01*
X51699390Y16621144D02*
X51651771Y16573525D01*
X51651771Y16573525D02*
X51556533Y16525906D01*
X51556533Y16525906D02*
X51461295Y16525906D01*
X51461295Y16525906D02*
X51366057Y16573525D01*
X51366057Y16573525D02*
X51318438Y16621144D01*
X51318438Y16621144D02*
X51270819Y16716382D01*
X51270819Y16716382D02*
X51270819Y16954477D01*
X51270819Y16954477D02*
X51318438Y17097334D01*
X51366057Y17478287D02*
X51318438Y17525906D01*
X51318438Y17525906D02*
X51270819Y17621144D01*
X51270819Y17621144D02*
X51270819Y17859239D01*
X51270819Y17859239D02*
X51318438Y17954477D01*
X51318438Y17954477D02*
X51366057Y18002096D01*
X51366057Y18002096D02*
X51461295Y18049715D01*
X51461295Y18049715D02*
X51556533Y18049715D01*
X51556533Y18049715D02*
X51699390Y18002096D01*
X51699390Y18002096D02*
X52270819Y17430668D01*
X52270819Y17430668D02*
X52270819Y18049715D01*
X1654819Y4238096D02*
X654819Y4238096D01*
X1131009Y4238096D02*
X1131009Y4809524D01*
X1654819Y4809524D02*
X654819Y4809524D01*
X654819Y5190477D02*
X654819Y5809524D01*
X654819Y5809524D02*
X1035771Y5476191D01*
X1035771Y5476191D02*
X1035771Y5619048D01*
X1035771Y5619048D02*
X1083390Y5714286D01*
X1083390Y5714286D02*
X1131009Y5761905D01*
X1131009Y5761905D02*
X1226247Y5809524D01*
X1226247Y5809524D02*
X1464342Y5809524D01*
X1464342Y5809524D02*
X1559580Y5761905D01*
X1559580Y5761905D02*
X1607200Y5714286D01*
X1607200Y5714286D02*
X1654819Y5619048D01*
X1654819Y5619048D02*
X1654819Y5333334D01*
X1654819Y5333334D02*
X1607200Y5238096D01*
X1607200Y5238096D02*
X1559580Y5190477D01*
X65651142Y19452420D02*
X65603523Y19404800D01*
X65603523Y19404800D02*
X65460666Y19357181D01*
X65460666Y19357181D02*
X65365428Y19357181D01*
X65365428Y19357181D02*
X65222571Y19404800D01*
X65222571Y19404800D02*
X65127333Y19500039D01*
X65127333Y19500039D02*
X65079714Y19595277D01*
X65079714Y19595277D02*
X65032095Y19785753D01*
X65032095Y19785753D02*
X65032095Y19928610D01*
X65032095Y19928610D02*
X65079714Y20119086D01*
X65079714Y20119086D02*
X65127333Y20214324D01*
X65127333Y20214324D02*
X65222571Y20309562D01*
X65222571Y20309562D02*
X65365428Y20357181D01*
X65365428Y20357181D02*
X65460666Y20357181D01*
X65460666Y20357181D02*
X65603523Y20309562D01*
X65603523Y20309562D02*
X65651142Y20261943D01*
X66603523Y19357181D02*
X66032095Y19357181D01*
X66317809Y19357181D02*
X66317809Y20357181D01*
X66317809Y20357181D02*
X66222571Y20214324D01*
X66222571Y20214324D02*
X66127333Y20119086D01*
X66127333Y20119086D02*
X66032095Y20071467D01*
X66936857Y20357181D02*
X67603523Y20357181D01*
X67603523Y20357181D02*
X67174952Y19357181D01*
X50919142Y656420D02*
X50871523Y608800D01*
X50871523Y608800D02*
X50728666Y561181D01*
X50728666Y561181D02*
X50633428Y561181D01*
X50633428Y561181D02*
X50490571Y608800D01*
X50490571Y608800D02*
X50395333Y704039D01*
X50395333Y704039D02*
X50347714Y799277D01*
X50347714Y799277D02*
X50300095Y989753D01*
X50300095Y989753D02*
X50300095Y1132610D01*
X50300095Y1132610D02*
X50347714Y1323086D01*
X50347714Y1323086D02*
X50395333Y1418324D01*
X50395333Y1418324D02*
X50490571Y1513562D01*
X50490571Y1513562D02*
X50633428Y1561181D01*
X50633428Y1561181D02*
X50728666Y1561181D01*
X50728666Y1561181D02*
X50871523Y1513562D01*
X50871523Y1513562D02*
X50919142Y1465943D01*
X51300095Y1465943D02*
X51347714Y1513562D01*
X51347714Y1513562D02*
X51442952Y1561181D01*
X51442952Y1561181D02*
X51681047Y1561181D01*
X51681047Y1561181D02*
X51776285Y1513562D01*
X51776285Y1513562D02*
X51823904Y1465943D01*
X51823904Y1465943D02*
X51871523Y1370705D01*
X51871523Y1370705D02*
X51871523Y1275467D01*
X51871523Y1275467D02*
X51823904Y1132610D01*
X51823904Y1132610D02*
X51252476Y561181D01*
X51252476Y561181D02*
X51871523Y561181D01*
X52823904Y561181D02*
X52252476Y561181D01*
X52538190Y561181D02*
X52538190Y1561181D01*
X52538190Y1561181D02*
X52442952Y1418324D01*
X52442952Y1418324D02*
X52347714Y1323086D01*
X52347714Y1323086D02*
X52252476Y1275467D01*
X65478819Y28313143D02*
X65002628Y27979810D01*
X65478819Y27741715D02*
X64478819Y27741715D01*
X64478819Y27741715D02*
X64478819Y28122667D01*
X64478819Y28122667D02*
X64526438Y28217905D01*
X64526438Y28217905D02*
X64574057Y28265524D01*
X64574057Y28265524D02*
X64669295Y28313143D01*
X64669295Y28313143D02*
X64812152Y28313143D01*
X64812152Y28313143D02*
X64907390Y28265524D01*
X64907390Y28265524D02*
X64955009Y28217905D01*
X64955009Y28217905D02*
X65002628Y28122667D01*
X65002628Y28122667D02*
X65002628Y27741715D01*
X65478819Y29265524D02*
X65478819Y28694096D01*
X65478819Y28979810D02*
X64478819Y28979810D01*
X64478819Y28979810D02*
X64621676Y28884572D01*
X64621676Y28884572D02*
X64716914Y28789334D01*
X64716914Y28789334D02*
X64764533Y28694096D01*
X64478819Y29598858D02*
X64478819Y30217905D01*
X64478819Y30217905D02*
X64859771Y29884572D01*
X64859771Y29884572D02*
X64859771Y30027429D01*
X64859771Y30027429D02*
X64907390Y30122667D01*
X64907390Y30122667D02*
X64955009Y30170286D01*
X64955009Y30170286D02*
X65050247Y30217905D01*
X65050247Y30217905D02*
X65288342Y30217905D01*
X65288342Y30217905D02*
X65383580Y30170286D01*
X65383580Y30170286D02*
X65431200Y30122667D01*
X65431200Y30122667D02*
X65478819Y30027429D01*
X65478819Y30027429D02*
X65478819Y29741715D01*
X65478819Y29741715D02*
X65431200Y29646477D01*
X65431200Y29646477D02*
X65383580Y29598858D01*
X57808905Y60632181D02*
X57808905Y61632181D01*
X57808905Y61632181D02*
X58047000Y61632181D01*
X58047000Y61632181D02*
X58189857Y61584562D01*
X58189857Y61584562D02*
X58285095Y61489324D01*
X58285095Y61489324D02*
X58332714Y61394086D01*
X58332714Y61394086D02*
X58380333Y61203610D01*
X58380333Y61203610D02*
X58380333Y61060753D01*
X58380333Y61060753D02*
X58332714Y60870277D01*
X58332714Y60870277D02*
X58285095Y60775039D01*
X58285095Y60775039D02*
X58189857Y60679800D01*
X58189857Y60679800D02*
X58047000Y60632181D01*
X58047000Y60632181D02*
X57808905Y60632181D01*
X59237476Y61632181D02*
X59047000Y61632181D01*
X59047000Y61632181D02*
X58951762Y61584562D01*
X58951762Y61584562D02*
X58904143Y61536943D01*
X58904143Y61536943D02*
X58808905Y61394086D01*
X58808905Y61394086D02*
X58761286Y61203610D01*
X58761286Y61203610D02*
X58761286Y60822658D01*
X58761286Y60822658D02*
X58808905Y60727420D01*
X58808905Y60727420D02*
X58856524Y60679800D01*
X58856524Y60679800D02*
X58951762Y60632181D01*
X58951762Y60632181D02*
X59142238Y60632181D01*
X59142238Y60632181D02*
X59237476Y60679800D01*
X59237476Y60679800D02*
X59285095Y60727420D01*
X59285095Y60727420D02*
X59332714Y60822658D01*
X59332714Y60822658D02*
X59332714Y61060753D01*
X59332714Y61060753D02*
X59285095Y61155991D01*
X59285095Y61155991D02*
X59237476Y61203610D01*
X59237476Y61203610D02*
X59142238Y61251229D01*
X59142238Y61251229D02*
X58951762Y61251229D01*
X58951762Y61251229D02*
X58856524Y61203610D01*
X58856524Y61203610D02*
X58808905Y61155991D01*
X58808905Y61155991D02*
X58761286Y61060753D01*
X28013819Y52855906D02*
X27013819Y52855906D01*
X27013819Y52855906D02*
X27013819Y53094001D01*
X27013819Y53094001D02*
X27061438Y53236858D01*
X27061438Y53236858D02*
X27156676Y53332096D01*
X27156676Y53332096D02*
X27251914Y53379715D01*
X27251914Y53379715D02*
X27442390Y53427334D01*
X27442390Y53427334D02*
X27585247Y53427334D01*
X27585247Y53427334D02*
X27775723Y53379715D01*
X27775723Y53379715D02*
X27870961Y53332096D01*
X27870961Y53332096D02*
X27966200Y53236858D01*
X27966200Y53236858D02*
X28013819Y53094001D01*
X28013819Y53094001D02*
X28013819Y52855906D01*
X28013819Y54379715D02*
X28013819Y53808287D01*
X28013819Y54094001D02*
X27013819Y54094001D01*
X27013819Y54094001D02*
X27156676Y53998763D01*
X27156676Y53998763D02*
X27251914Y53903525D01*
X27251914Y53903525D02*
X27299533Y53808287D01*
X62063332Y21135182D02*
X61587142Y21135182D01*
X61587142Y21135182D02*
X61587142Y22135182D01*
X62920475Y21135182D02*
X62349047Y21135182D01*
X62634761Y21135182D02*
X62634761Y22135182D01*
X62634761Y22135182D02*
X62539523Y21992325D01*
X62539523Y21992325D02*
X62444285Y21897087D01*
X62444285Y21897087D02*
X62349047Y21849468D01*
X24765095Y54393181D02*
X24765095Y53583658D01*
X24765095Y53583658D02*
X24812714Y53488420D01*
X24812714Y53488420D02*
X24860333Y53440800D01*
X24860333Y53440800D02*
X24955571Y53393181D01*
X24955571Y53393181D02*
X25146047Y53393181D01*
X25146047Y53393181D02*
X25241285Y53440800D01*
X25241285Y53440800D02*
X25288904Y53488420D01*
X25288904Y53488420D02*
X25336523Y53583658D01*
X25336523Y53583658D02*
X25336523Y54393181D01*
X26336523Y53393181D02*
X25765095Y53393181D01*
X26050809Y53393181D02*
X26050809Y54393181D01*
X26050809Y54393181D02*
X25955571Y54250324D01*
X25955571Y54250324D02*
X25860333Y54155086D01*
X25860333Y54155086D02*
X25765095Y54107467D01*
X49000057Y45154762D02*
X48952438Y45059524D01*
X48952438Y45059524D02*
X48857200Y44964286D01*
X48857200Y44964286D02*
X48714342Y44821429D01*
X48714342Y44821429D02*
X48666723Y44726191D01*
X48666723Y44726191D02*
X48666723Y44630953D01*
X48904819Y44678572D02*
X48857200Y44583334D01*
X48857200Y44583334D02*
X48761961Y44488096D01*
X48761961Y44488096D02*
X48571485Y44440477D01*
X48571485Y44440477D02*
X48238152Y44440477D01*
X48238152Y44440477D02*
X48047676Y44488096D01*
X48047676Y44488096D02*
X47952438Y44583334D01*
X47952438Y44583334D02*
X47904819Y44678572D01*
X47904819Y44678572D02*
X47904819Y44869048D01*
X47904819Y44869048D02*
X47952438Y44964286D01*
X47952438Y44964286D02*
X48047676Y45059524D01*
X48047676Y45059524D02*
X48238152Y45107143D01*
X48238152Y45107143D02*
X48571485Y45107143D01*
X48571485Y45107143D02*
X48761961Y45059524D01*
X48761961Y45059524D02*
X48857200Y44964286D01*
X48857200Y44964286D02*
X48904819Y44869048D01*
X48904819Y44869048D02*
X48904819Y44678572D01*
X48904819Y46059524D02*
X48904819Y45488096D01*
X48904819Y45773810D02*
X47904819Y45773810D01*
X47904819Y45773810D02*
X48047676Y45678572D01*
X48047676Y45678572D02*
X48142914Y45583334D01*
X48142914Y45583334D02*
X48190533Y45488096D01*
D14*
%TO.C,R14*%
X79477500Y27237258D02*
X79477500Y26762742D01*
X80522500Y27237258D02*
X80522500Y26762742D01*
%TO.C,R19*%
X80977500Y30209258D02*
X80977500Y29734742D01*
X82022500Y30209258D02*
X82022500Y29734742D01*
%TO.C,R11*%
X75262742Y32022500D02*
X75737258Y32022500D01*
X75262742Y30977500D02*
X75737258Y30977500D01*
%TO.C,R16*%
X79477500Y29734742D02*
X79477500Y30209258D01*
X80522500Y29734742D02*
X80522500Y30209258D01*
%TO.C,R5*%
X54272936Y62910000D02*
X55727064Y62910000D01*
X54272936Y61090000D02*
X55727064Y61090000D01*
%TO.C,D5*%
X70300000Y107140000D02*
X73900000Y107140000D01*
X70300000Y105140000D02*
X70300000Y107140000D01*
X70300000Y100040000D02*
X70300000Y102040000D01*
X70300000Y95040000D02*
X70300000Y96940000D01*
X70300000Y90340000D02*
X70300000Y91840000D01*
X70300000Y84840000D02*
X70300000Y86340000D01*
X73900000Y107140000D02*
X73900000Y84840000D01*
X73900000Y88040000D02*
X73400000Y88040000D01*
X73900000Y84840000D02*
X70300000Y84840000D01*
D15*
%TO.C,HS1*%
X40499000Y56426000D02*
X40499000Y55689400D01*
X40499000Y56426000D02*
X40499000Y55689400D01*
X40499000Y34810600D02*
X40499000Y34074000D01*
X40499000Y34810600D02*
X40499000Y34074000D01*
X41007000Y55181400D02*
X47611000Y55181400D01*
X41007000Y55181400D02*
X47611000Y55181400D01*
X41007000Y33566000D02*
X55993000Y33566000D01*
X41007000Y33566000D02*
X55993000Y33566000D01*
X47611000Y55181400D02*
X47611000Y35318600D01*
X47611000Y55181400D02*
X47611000Y35318600D01*
X47611000Y35318600D02*
X41007000Y35318600D01*
X47611000Y35318600D02*
X41007000Y35318600D01*
X50100200Y46342200D02*
X50100200Y49707700D01*
X50100200Y46342200D02*
X50100200Y49707700D01*
X50100200Y40792300D02*
X50100200Y44157800D01*
X50100200Y40792300D02*
X50100200Y44157800D01*
X50608200Y50215700D02*
X55993000Y50215700D01*
X50608200Y50215700D02*
X55993000Y50215700D01*
X50608200Y44665800D02*
X55993000Y44665800D01*
X50608200Y44665800D02*
X55993000Y44665800D01*
X51700400Y51892100D02*
X51700400Y55257600D01*
X51700400Y51892100D02*
X51700400Y55257600D01*
X51700400Y35242400D02*
X51700400Y38607900D01*
X51700400Y35242400D02*
X51700400Y38607900D01*
X52208400Y55765600D02*
X55993000Y55765600D01*
X52208400Y55765600D02*
X55993000Y55765600D01*
X52208400Y39115900D02*
X55993000Y39115900D01*
X52208400Y39115900D02*
X55993000Y39115900D01*
X55993000Y56934000D02*
X41007000Y56934000D01*
X55993000Y56934000D02*
X41007000Y56934000D01*
X55993000Y51384100D02*
X52208400Y51384100D01*
X55993000Y51384100D02*
X52208400Y51384100D01*
X55993000Y45834200D02*
X50608200Y45834200D01*
X55993000Y45834200D02*
X50608200Y45834200D01*
X55993000Y40284300D02*
X50608200Y40284300D01*
X55993000Y40284300D02*
X50608200Y40284300D01*
X55993000Y34734400D02*
X52208400Y34734400D01*
X55993000Y34734400D02*
X52208400Y34734400D01*
X56501000Y56273600D02*
X56501000Y56426000D01*
X56501000Y56273600D02*
X56501000Y56426000D01*
X56501000Y50723700D02*
X56501000Y50876100D01*
X56501000Y50723700D02*
X56501000Y50876100D01*
X56501000Y45173800D02*
X56501000Y45326200D01*
X56501000Y45173800D02*
X56501000Y45326200D01*
X56501000Y39623900D02*
X56501000Y39776300D01*
X56501000Y39623900D02*
X56501000Y39776300D01*
X56501000Y34074000D02*
X56501000Y34226400D01*
X56501000Y34074000D02*
X56501000Y34226400D01*
X40499000Y56426000D02*
G75*
G02*
X41007000Y56933950I507950J0D01*
G01*
X40499000Y56426000D02*
G75*
G02*
X41007000Y56933950I507950J0D01*
G01*
X40499000Y34810600D02*
G75*
G02*
X41007000Y35318600I508001J-1D01*
G01*
X40499000Y34810600D02*
G75*
G02*
X41007000Y35318600I508001J-1D01*
G01*
X41007000Y55181400D02*
G75*
G02*
X40498950Y55689400I50J508100D01*
G01*
X41007000Y55181400D02*
G75*
G02*
X40498950Y55689400I50J508100D01*
G01*
X41007000Y33566000D02*
G75*
G02*
X40499000Y34074000I1J508001D01*
G01*
X41007000Y33566000D02*
G75*
G02*
X40499000Y34074000I1J508001D01*
G01*
X50100200Y49707700D02*
G75*
G02*
X50608200Y50215650I507950J0D01*
G01*
X50100200Y49707700D02*
G75*
G02*
X50608200Y50215650I507950J0D01*
G01*
X50100200Y44157800D02*
G75*
G02*
X50608200Y44665750I507950J0D01*
G01*
X50100200Y44157800D02*
G75*
G02*
X50608200Y44665750I507950J0D01*
G01*
X50608200Y45834200D02*
G75*
G02*
X50100200Y46342200I0J508000D01*
G01*
X50608200Y45834200D02*
G75*
G02*
X50100200Y46342200I0J508000D01*
G01*
X50608200Y40284300D02*
G75*
G02*
X50100200Y40792300I0J508000D01*
G01*
X50608200Y40284300D02*
G75*
G02*
X50100200Y40792300I0J508000D01*
G01*
X51700400Y55257600D02*
G75*
G02*
X52208400Y55765550I507950J0D01*
G01*
X51700400Y55257600D02*
G75*
G02*
X52208400Y55765550I507950J0D01*
G01*
X51700400Y38607900D02*
G75*
G02*
X52208400Y39115900I508000J0D01*
G01*
X51700400Y38607900D02*
G75*
G02*
X52208400Y39115900I508000J0D01*
G01*
X52208400Y51384100D02*
G75*
G02*
X51700400Y51892100I0J508000D01*
G01*
X52208400Y51384100D02*
G75*
G02*
X51700400Y51892100I0J508000D01*
G01*
X52208400Y34734400D02*
G75*
G02*
X51700400Y35242400I1J508001D01*
G01*
X52208400Y34734400D02*
G75*
G02*
X51700400Y35242400I1J508001D01*
G01*
X55993000Y56934000D02*
G75*
G02*
X56501050Y56426000I-50J-508100D01*
G01*
X55993000Y56934000D02*
G75*
G02*
X56501050Y56426000I-50J-508100D01*
G01*
X55993000Y51384100D02*
G75*
G02*
X56501000Y50876100I0J-508000D01*
G01*
X55993000Y51384100D02*
G75*
G02*
X56501000Y50876100I0J-508000D01*
G01*
X55993000Y45834200D02*
G75*
G02*
X56501000Y45326200I0J-508000D01*
G01*
X55993000Y45834200D02*
G75*
G02*
X56501000Y45326200I0J-508000D01*
G01*
X55993000Y40284300D02*
G75*
G02*
X56501000Y39776300I0J-508000D01*
G01*
X55993000Y40284300D02*
G75*
G02*
X56501000Y39776300I0J-508000D01*
G01*
X55993000Y34734400D02*
G75*
G02*
X56501000Y34226400I-1J-508001D01*
G01*
X55993000Y34734400D02*
G75*
G02*
X56501000Y34226400I-1J-508001D01*
G01*
X56501000Y56273600D02*
G75*
G02*
X55993000Y55765650I-507950J0D01*
G01*
X56501000Y56273600D02*
G75*
G02*
X55993000Y55765650I-507950J0D01*
G01*
X56501000Y50723700D02*
G75*
G02*
X55993000Y50215750I-507950J0D01*
G01*
X56501000Y50723700D02*
G75*
G02*
X55993000Y50215750I-507950J0D01*
G01*
X56501000Y45173800D02*
G75*
G02*
X55993000Y44665850I-507950J0D01*
G01*
X56501000Y45173800D02*
G75*
G02*
X55993000Y44665850I-507950J0D01*
G01*
X56501000Y39623900D02*
G75*
G02*
X55993000Y39115900I-507960J-40D01*
G01*
X56501000Y39623900D02*
G75*
G02*
X55993000Y39115900I-507960J-40D01*
G01*
X56501000Y34074000D02*
G75*
G02*
X55993000Y33566000I-508001J1D01*
G01*
X56501000Y34074000D02*
G75*
G02*
X55993000Y33566000I-508001J1D01*
G01*
D14*
%TO.C,F1*%
X11700000Y87000000D02*
G75*
G02*
X11700000Y87000000I-4500000J0D01*
G01*
%TO.C,C16*%
X66540748Y18536500D02*
X67063252Y18536500D01*
X66540748Y17066500D02*
X67063252Y17066500D01*
D10*
%TO.C,RV1*%
X12850000Y92150000D02*
X12850000Y75350000D01*
X19850000Y92150000D02*
X12850000Y92150000D01*
X19850000Y92150000D02*
X19850000Y75350000D01*
X19850000Y75350000D02*
X12850000Y75350000D01*
D14*
%TO.C,C2*%
X22665000Y56140580D02*
X22665000Y55859420D01*
X23685000Y56140580D02*
X23685000Y55859420D01*
%TO.C,SW1*%
X20000000Y107400000D02*
X-11500000Y107400000D01*
X-11500000Y92600000D01*
X20000000Y92600000D01*
X20000000Y107400000D01*
%TO.C,C4*%
X33609420Y58760000D02*
X33890580Y58760000D01*
X33609420Y57740000D02*
X33890580Y57740000D01*
%TO.C,C27*%
X75561200Y48624800D02*
X76925200Y48624800D01*
X75561200Y40884800D02*
X75561200Y48624800D01*
X75561200Y40884800D02*
X76925200Y40884800D01*
X79437200Y48624800D02*
X80801200Y48624800D01*
X79437200Y40884800D02*
X80801200Y40884800D01*
X80801200Y40884800D02*
X80801200Y48624800D01*
%TO.C,C19*%
X67063252Y14451000D02*
X66540748Y14451000D01*
X67063252Y12981000D02*
X66540748Y12981000D01*
%TO.C,C28*%
X38782000Y28448000D02*
X40146000Y28448000D01*
X38782000Y20708000D02*
X38782000Y28448000D01*
X38782000Y20708000D02*
X40146000Y20708000D01*
X42658000Y28448000D02*
X44022000Y28448000D01*
X42658000Y20708000D02*
X44022000Y20708000D01*
X44022000Y20708000D02*
X44022000Y28448000D01*
%TO.C,C10*%
X19690000Y55859420D02*
X19690000Y56140580D01*
X20710000Y55859420D02*
X20710000Y56140580D01*
%TO.C,C24*%
X18118000Y6044459D02*
X13320000Y6044459D01*
X18118000Y6004459D02*
X13327000Y6004459D01*
X18118000Y5964459D02*
X13334000Y5964459D01*
X18118000Y5924459D02*
X13342000Y5924459D01*
X18118000Y5884459D02*
X13349000Y5884459D01*
X18118000Y5844459D02*
X13357000Y5844459D01*
X18118000Y5804459D02*
X13366000Y5804459D01*
X18118000Y5764459D02*
X13374000Y5764459D01*
X18118000Y5724459D02*
X13383000Y5724459D01*
X18118000Y5684459D02*
X13392000Y5684459D01*
X18118000Y5644459D02*
X13402000Y5644459D01*
X18118000Y5604459D02*
X13412000Y5604459D01*
X18118000Y5564459D02*
X13421000Y5564459D01*
X18118000Y5524459D02*
X13432000Y5524459D01*
X18118000Y5484459D02*
X13442000Y5484459D01*
X18118000Y5444459D02*
X13453000Y5444459D01*
X18118000Y5404459D02*
X13464000Y5404459D01*
X18118000Y5364459D02*
X13475000Y5364459D01*
X18118000Y5324459D02*
X13487000Y5324459D01*
X18118000Y5284459D02*
X13499000Y5284459D01*
X18118000Y5244459D02*
X13511000Y5244459D01*
X18118000Y5204459D02*
X13524000Y5204459D01*
X18118000Y5164459D02*
X13537000Y5164459D01*
X18118000Y5124459D02*
X13550000Y5124459D01*
X18118000Y5084459D02*
X13563000Y5084459D01*
X18118000Y5044459D02*
X13577000Y5044459D01*
X18118000Y5004459D02*
X13591000Y5004459D01*
X18118000Y4964459D02*
X13605000Y4964459D01*
X18118000Y4924459D02*
X13619000Y4924459D01*
X18118000Y4884459D02*
X13634000Y4884459D01*
X18118000Y4844459D02*
X13650000Y4844459D01*
X18118000Y4804459D02*
X13665000Y4804459D01*
X18118000Y4764459D02*
X13681000Y4764459D01*
X18118000Y4724459D02*
X13697000Y4724459D01*
X18118000Y4684459D02*
X13713000Y4684459D01*
X18118000Y4644459D02*
X13730000Y4644459D01*
X18118000Y4604459D02*
X13747000Y4604459D01*
X18118000Y4564459D02*
X13765000Y4564459D01*
X18118000Y4524459D02*
X13782000Y4524459D01*
X18118000Y4484459D02*
X13800000Y4484459D01*
X18118000Y4444459D02*
X13819000Y4444459D01*
X18118000Y4404459D02*
X13837000Y4404459D01*
X18118000Y4364459D02*
X13856000Y4364459D01*
X18118000Y4324459D02*
X13876000Y4324459D01*
X18118000Y4284459D02*
X13896000Y4284459D01*
X18118000Y4244459D02*
X13916000Y4244459D01*
X18118000Y4204459D02*
X13936000Y4204459D01*
X18118000Y4164459D02*
X13957000Y4164459D01*
X18118000Y4124459D02*
X13978000Y4124459D01*
X18118000Y4084459D02*
X14000000Y4084459D01*
X18118000Y4044459D02*
X14022000Y4044459D01*
X18118000Y4004459D02*
X14044000Y4004459D01*
X18118000Y3964459D02*
X14067000Y3964459D01*
X18118000Y3924459D02*
X14090000Y3924459D01*
X18118000Y3884459D02*
X14113000Y3884459D01*
X18118000Y3844459D02*
X14137000Y3844459D01*
X18118000Y3804459D02*
X14161000Y3804459D01*
X18118000Y3764459D02*
X14186000Y3764459D01*
X18118000Y3724459D02*
X14211000Y3724459D01*
X18118000Y3684459D02*
X14236000Y3684459D01*
X18118000Y3644459D02*
X14262000Y3644459D01*
X18118000Y3604459D02*
X14288000Y3604459D01*
X18118000Y3564459D02*
X14315000Y3564459D01*
X18118000Y3524459D02*
X14342000Y3524459D01*
X18118000Y3484459D02*
X14370000Y3484459D01*
X18118000Y3444459D02*
X14398000Y3444459D01*
X18118000Y3404459D02*
X14427000Y3404459D01*
X18118000Y3364459D02*
X14456000Y3364459D01*
X18118000Y3324459D02*
X14485000Y3324459D01*
X18118000Y3284459D02*
X14515000Y3284459D01*
X18118000Y3244459D02*
X14546000Y3244459D01*
X18118000Y3204459D02*
X14576000Y3204459D01*
X19875000Y764459D02*
X19241000Y764459D01*
X20315000Y804459D02*
X18801000Y804459D01*
X20586000Y844459D02*
X18530000Y844459D01*
X20799000Y884459D02*
X18317000Y884459D01*
X20980000Y924459D02*
X18136000Y924459D01*
X21141000Y964459D02*
X17975000Y964459D01*
X21286000Y1004459D02*
X17830000Y1004459D01*
X21419000Y1044459D02*
X17697000Y1044459D01*
X21542000Y1084459D02*
X17574000Y1084459D01*
X21658000Y1124459D02*
X17458000Y1124459D01*
X21767000Y1164459D02*
X17349000Y1164459D01*
X21870000Y1204459D02*
X17246000Y1204459D01*
X21968000Y1244459D02*
X17148000Y1244459D01*
X22062000Y1284459D02*
X17054000Y1284459D01*
X22152000Y1324459D02*
X16964000Y1324459D01*
X22239000Y1364459D02*
X16877000Y1364459D01*
X22322000Y1404459D02*
X16794000Y1404459D01*
X22402000Y1444459D02*
X16714000Y1444459D01*
X22479000Y1484459D02*
X16637000Y1484459D01*
X22554000Y1524459D02*
X16562000Y1524459D01*
X22627000Y1564459D02*
X16489000Y1564459D01*
X22698000Y1604459D02*
X16418000Y1604459D01*
X22766000Y1644459D02*
X16350000Y1644459D01*
X22833000Y1684459D02*
X16283000Y1684459D01*
X22897000Y1724459D02*
X16219000Y1724459D01*
X22960000Y1764459D02*
X16156000Y1764459D01*
X23022000Y1804459D02*
X16094000Y1804459D01*
X23082000Y1844459D02*
X16034000Y1844459D01*
X23141000Y1884459D02*
X15975000Y1884459D01*
X23198000Y1924459D02*
X15918000Y1924459D01*
X23254000Y1964459D02*
X15862000Y1964459D01*
X23308000Y2004459D02*
X15808000Y2004459D01*
X23362000Y2044459D02*
X15754000Y2044459D01*
X23414000Y2084459D02*
X15702000Y2084459D01*
X23465000Y2124459D02*
X15651000Y2124459D01*
X23515000Y2164459D02*
X15601000Y2164459D01*
X23565000Y2204459D02*
X15551000Y2204459D01*
X23613000Y2244459D02*
X15503000Y2244459D01*
X23660000Y2284459D02*
X15456000Y2284459D01*
X23706000Y2324459D02*
X15410000Y2324459D01*
X23752000Y2364459D02*
X15364000Y2364459D01*
X23796000Y2404459D02*
X15320000Y2404459D01*
X23840000Y2444459D02*
X15276000Y2444459D01*
X23883000Y2484459D02*
X15233000Y2484459D01*
X23925000Y2524459D02*
X15191000Y2524459D01*
X23933000Y13942541D02*
X23933000Y12692541D01*
X23966000Y2564459D02*
X15150000Y2564459D01*
X24007000Y2604459D02*
X15109000Y2604459D01*
X24047000Y2644459D02*
X15069000Y2644459D01*
X24086000Y2684459D02*
X15030000Y2684459D01*
X24125000Y2724459D02*
X14991000Y2724459D01*
X24163000Y2764459D02*
X14953000Y2764459D01*
X24200000Y2804459D02*
X14916000Y2804459D01*
X24236000Y2844459D02*
X14880000Y2844459D01*
X24272000Y2884459D02*
X14844000Y2884459D01*
X24308000Y2924459D02*
X14808000Y2924459D01*
X24343000Y2964459D02*
X14773000Y2964459D01*
X24377000Y3004459D02*
X14739000Y3004459D01*
X24410000Y3044459D02*
X14706000Y3044459D01*
X24443000Y3084459D02*
X14673000Y3084459D01*
X24476000Y3124459D02*
X14640000Y3124459D01*
X24508000Y3164459D02*
X14608000Y3164459D01*
X24540000Y3204459D02*
X20998000Y3204459D01*
X24558000Y13317541D02*
X23308000Y13317541D01*
X24570000Y3244459D02*
X20998000Y3244459D01*
X24601000Y3284459D02*
X20998000Y3284459D01*
X24631000Y3324459D02*
X20998000Y3324459D01*
X24660000Y3364459D02*
X20998000Y3364459D01*
X24689000Y3404459D02*
X20998000Y3404459D01*
X24718000Y3444459D02*
X20998000Y3444459D01*
X24746000Y3484459D02*
X20998000Y3484459D01*
X24774000Y3524459D02*
X20998000Y3524459D01*
X24801000Y3564459D02*
X20998000Y3564459D01*
X24828000Y3604459D02*
X20998000Y3604459D01*
X24854000Y3644459D02*
X20998000Y3644459D01*
X24880000Y3684459D02*
X20998000Y3684459D01*
X24905000Y3724459D02*
X20998000Y3724459D01*
X24930000Y3764459D02*
X20998000Y3764459D01*
X24955000Y3804459D02*
X20998000Y3804459D01*
X24979000Y3844459D02*
X20998000Y3844459D01*
X25003000Y3884459D02*
X20998000Y3884459D01*
X25026000Y3924459D02*
X20998000Y3924459D01*
X25049000Y3964459D02*
X20998000Y3964459D01*
X25072000Y4004459D02*
X20998000Y4004459D01*
X25094000Y4044459D02*
X20998000Y4044459D01*
X25116000Y4084459D02*
X20998000Y4084459D01*
X25138000Y4124459D02*
X20998000Y4124459D01*
X25159000Y4164459D02*
X20998000Y4164459D01*
X25180000Y4204459D02*
X20998000Y4204459D01*
X25200000Y4244459D02*
X20998000Y4244459D01*
X25220000Y4284459D02*
X20998000Y4284459D01*
X25240000Y4324459D02*
X20998000Y4324459D01*
X25260000Y4364459D02*
X20998000Y4364459D01*
X25279000Y4404459D02*
X20998000Y4404459D01*
X25297000Y4444459D02*
X20998000Y4444459D01*
X25316000Y4484459D02*
X20998000Y4484459D01*
X25334000Y4524459D02*
X20998000Y4524459D01*
X25351000Y4564459D02*
X20998000Y4564459D01*
X25369000Y4604459D02*
X20998000Y4604459D01*
X25386000Y4644459D02*
X20998000Y4644459D01*
X25403000Y4684459D02*
X20998000Y4684459D01*
X25419000Y4724459D02*
X20998000Y4724459D01*
X25435000Y4764459D02*
X20998000Y4764459D01*
X25451000Y4804459D02*
X20998000Y4804459D01*
X25466000Y4844459D02*
X20998000Y4844459D01*
X25482000Y4884459D02*
X20998000Y4884459D01*
X25497000Y4924459D02*
X20998000Y4924459D01*
X25511000Y4964459D02*
X20998000Y4964459D01*
X25525000Y5004459D02*
X20998000Y5004459D01*
X25539000Y5044459D02*
X20998000Y5044459D01*
X25553000Y5084459D02*
X20998000Y5084459D01*
X25566000Y5124459D02*
X20998000Y5124459D01*
X25579000Y5164459D02*
X20998000Y5164459D01*
X25592000Y5204459D02*
X20998000Y5204459D01*
X25605000Y5244459D02*
X20998000Y5244459D01*
X25617000Y5284459D02*
X20998000Y5284459D01*
X25629000Y5324459D02*
X20998000Y5324459D01*
X25641000Y5364459D02*
X20998000Y5364459D01*
X25652000Y5404459D02*
X20998000Y5404459D01*
X25663000Y5444459D02*
X20998000Y5444459D01*
X25674000Y5484459D02*
X20998000Y5484459D01*
X25684000Y5524459D02*
X20998000Y5524459D01*
X25695000Y5564459D02*
X20998000Y5564459D01*
X25704000Y5604459D02*
X20998000Y5604459D01*
X25714000Y5644459D02*
X20998000Y5644459D01*
X25724000Y5684459D02*
X20998000Y5684459D01*
X25733000Y5724459D02*
X20998000Y5724459D01*
X25742000Y5764459D02*
X20998000Y5764459D01*
X25750000Y5804459D02*
X20998000Y5804459D01*
X25759000Y5844459D02*
X20998000Y5844459D01*
X25767000Y5884459D02*
X20998000Y5884459D01*
X25774000Y5924459D02*
X20998000Y5924459D01*
X25782000Y5964459D02*
X20998000Y5964459D01*
X25789000Y6004459D02*
X20998000Y6004459D01*
X25796000Y6044459D02*
X20998000Y6044459D01*
X25803000Y6084459D02*
X13313000Y6084459D01*
X25810000Y6124459D02*
X13306000Y6124459D01*
X25816000Y6164459D02*
X13300000Y6164459D01*
X25822000Y6204459D02*
X13294000Y6204459D01*
X25827000Y6244459D02*
X13289000Y6244459D01*
X25833000Y6284459D02*
X13283000Y6284459D01*
X25838000Y6324459D02*
X13278000Y6324459D01*
X25843000Y6364459D02*
X13273000Y6364459D01*
X25848000Y6404459D02*
X13268000Y6404459D01*
X25852000Y6445459D02*
X13264000Y6445459D01*
X25856000Y6485459D02*
X13260000Y6485459D01*
X25860000Y6525459D02*
X13256000Y6525459D01*
X25864000Y6565459D02*
X13252000Y6565459D01*
X25867000Y6605459D02*
X13249000Y6605459D01*
X25870000Y6645459D02*
X13246000Y6645459D01*
X25873000Y6685459D02*
X13243000Y6685459D01*
X25876000Y6725459D02*
X13240000Y6725459D01*
X25878000Y6765459D02*
X13238000Y6765459D01*
X25880000Y6805459D02*
X13236000Y6805459D01*
X25882000Y6845459D02*
X13234000Y6845459D01*
X25884000Y6885459D02*
X13232000Y6885459D01*
X25885000Y6925459D02*
X13231000Y6925459D01*
X25886000Y6965459D02*
X13230000Y6965459D01*
X25887000Y7005459D02*
X13229000Y7005459D01*
X25888000Y7125459D02*
X13228000Y7125459D01*
X25888000Y7085459D02*
X13228000Y7085459D01*
X25888000Y7045459D02*
X13228000Y7045459D01*
D13*
X26058000Y7125459D02*
G75*
G02*
X26058000Y7125459I-6500000J0D01*
G01*
%TO.C,C7*%
D14*
X32000000Y111250000D02*
X21000000Y111250000D01*
X21000000Y85250000D01*
X32000000Y85250000D01*
X32000000Y111250000D01*
%TO.C,R1*%
X34021500Y54118742D02*
X34021500Y54593258D01*
X35066500Y54118742D02*
X35066500Y54593258D01*
%TO.C,C5*%
X33584420Y60260000D02*
X33865580Y60260000D01*
X33584420Y59240000D02*
X33865580Y59240000D01*
%TO.C,D3*%
X10580000Y57109000D02*
X10580000Y54449000D01*
X12280000Y57109000D02*
X10580000Y57109000D01*
X12280000Y57109000D02*
X12280000Y54449000D01*
%TO.C,C23*%
X31580000Y6044459D02*
X26782000Y6044459D01*
X31580000Y6004459D02*
X26789000Y6004459D01*
X31580000Y5964459D02*
X26796000Y5964459D01*
X31580000Y5924459D02*
X26804000Y5924459D01*
X31580000Y5884459D02*
X26811000Y5884459D01*
X31580000Y5844459D02*
X26819000Y5844459D01*
X31580000Y5804459D02*
X26828000Y5804459D01*
X31580000Y5764459D02*
X26836000Y5764459D01*
X31580000Y5724459D02*
X26845000Y5724459D01*
X31580000Y5684459D02*
X26854000Y5684459D01*
X31580000Y5644459D02*
X26864000Y5644459D01*
X31580000Y5604459D02*
X26874000Y5604459D01*
X31580000Y5564459D02*
X26883000Y5564459D01*
X31580000Y5524459D02*
X26894000Y5524459D01*
X31580000Y5484459D02*
X26904000Y5484459D01*
X31580000Y5444459D02*
X26915000Y5444459D01*
X31580000Y5404459D02*
X26926000Y5404459D01*
X31580000Y5364459D02*
X26937000Y5364459D01*
X31580000Y5324459D02*
X26949000Y5324459D01*
X31580000Y5284459D02*
X26961000Y5284459D01*
X31580000Y5244459D02*
X26973000Y5244459D01*
X31580000Y5204459D02*
X26986000Y5204459D01*
X31580000Y5164459D02*
X26999000Y5164459D01*
X31580000Y5124459D02*
X27012000Y5124459D01*
X31580000Y5084459D02*
X27025000Y5084459D01*
X31580000Y5044459D02*
X27039000Y5044459D01*
X31580000Y5004459D02*
X27053000Y5004459D01*
X31580000Y4964459D02*
X27067000Y4964459D01*
X31580000Y4924459D02*
X27081000Y4924459D01*
X31580000Y4884459D02*
X27096000Y4884459D01*
X31580000Y4844459D02*
X27112000Y4844459D01*
X31580000Y4804459D02*
X27127000Y4804459D01*
X31580000Y4764459D02*
X27143000Y4764459D01*
X31580000Y4724459D02*
X27159000Y4724459D01*
X31580000Y4684459D02*
X27175000Y4684459D01*
X31580000Y4644459D02*
X27192000Y4644459D01*
X31580000Y4604459D02*
X27209000Y4604459D01*
X31580000Y4564459D02*
X27227000Y4564459D01*
X31580000Y4524459D02*
X27244000Y4524459D01*
X31580000Y4484459D02*
X27262000Y4484459D01*
X31580000Y4444459D02*
X27281000Y4444459D01*
X31580000Y4404459D02*
X27299000Y4404459D01*
X31580000Y4364459D02*
X27318000Y4364459D01*
X31580000Y4324459D02*
X27338000Y4324459D01*
X31580000Y4284459D02*
X27358000Y4284459D01*
X31580000Y4244459D02*
X27378000Y4244459D01*
X31580000Y4204459D02*
X27398000Y4204459D01*
X31580000Y4164459D02*
X27419000Y4164459D01*
X31580000Y4124459D02*
X27440000Y4124459D01*
X31580000Y4084459D02*
X27462000Y4084459D01*
X31580000Y4044459D02*
X27484000Y4044459D01*
X31580000Y4004459D02*
X27506000Y4004459D01*
X31580000Y3964459D02*
X27529000Y3964459D01*
X31580000Y3924459D02*
X27552000Y3924459D01*
X31580000Y3884459D02*
X27575000Y3884459D01*
X31580000Y3844459D02*
X27599000Y3844459D01*
X31580000Y3804459D02*
X27623000Y3804459D01*
X31580000Y3764459D02*
X27648000Y3764459D01*
X31580000Y3724459D02*
X27673000Y3724459D01*
X31580000Y3684459D02*
X27698000Y3684459D01*
X31580000Y3644459D02*
X27724000Y3644459D01*
X31580000Y3604459D02*
X27750000Y3604459D01*
X31580000Y3564459D02*
X27777000Y3564459D01*
X31580000Y3524459D02*
X27804000Y3524459D01*
X31580000Y3484459D02*
X27832000Y3484459D01*
X31580000Y3444459D02*
X27860000Y3444459D01*
X31580000Y3404459D02*
X27889000Y3404459D01*
X31580000Y3364459D02*
X27918000Y3364459D01*
X31580000Y3324459D02*
X27947000Y3324459D01*
X31580000Y3284459D02*
X27977000Y3284459D01*
X31580000Y3244459D02*
X28008000Y3244459D01*
X31580000Y3204459D02*
X28038000Y3204459D01*
X33337000Y764459D02*
X32703000Y764459D01*
X33777000Y804459D02*
X32263000Y804459D01*
X34048000Y844459D02*
X31992000Y844459D01*
X34261000Y884459D02*
X31779000Y884459D01*
X34442000Y924459D02*
X31598000Y924459D01*
X34603000Y964459D02*
X31437000Y964459D01*
X34748000Y1004459D02*
X31292000Y1004459D01*
X34881000Y1044459D02*
X31159000Y1044459D01*
X35004000Y1084459D02*
X31036000Y1084459D01*
X35120000Y1124459D02*
X30920000Y1124459D01*
X35229000Y1164459D02*
X30811000Y1164459D01*
X35332000Y1204459D02*
X30708000Y1204459D01*
X35430000Y1244459D02*
X30610000Y1244459D01*
X35524000Y1284459D02*
X30516000Y1284459D01*
X35614000Y1324459D02*
X30426000Y1324459D01*
X35701000Y1364459D02*
X30339000Y1364459D01*
X35784000Y1404459D02*
X30256000Y1404459D01*
X35864000Y1444459D02*
X30176000Y1444459D01*
X35941000Y1484459D02*
X30099000Y1484459D01*
X36016000Y1524459D02*
X30024000Y1524459D01*
X36089000Y1564459D02*
X29951000Y1564459D01*
X36160000Y1604459D02*
X29880000Y1604459D01*
X36228000Y1644459D02*
X29812000Y1644459D01*
X36295000Y1684459D02*
X29745000Y1684459D01*
X36359000Y1724459D02*
X29681000Y1724459D01*
X36422000Y1764459D02*
X29618000Y1764459D01*
X36484000Y1804459D02*
X29556000Y1804459D01*
X36544000Y1844459D02*
X29496000Y1844459D01*
X36603000Y1884459D02*
X29437000Y1884459D01*
X36660000Y1924459D02*
X29380000Y1924459D01*
X36716000Y1964459D02*
X29324000Y1964459D01*
X36770000Y2004459D02*
X29270000Y2004459D01*
X36824000Y2044459D02*
X29216000Y2044459D01*
X36876000Y2084459D02*
X29164000Y2084459D01*
X36927000Y2124459D02*
X29113000Y2124459D01*
X36977000Y2164459D02*
X29063000Y2164459D01*
X37027000Y2204459D02*
X29013000Y2204459D01*
X37075000Y2244459D02*
X28965000Y2244459D01*
X37122000Y2284459D02*
X28918000Y2284459D01*
X37168000Y2324459D02*
X28872000Y2324459D01*
X37214000Y2364459D02*
X28826000Y2364459D01*
X37258000Y2404459D02*
X28782000Y2404459D01*
X37302000Y2444459D02*
X28738000Y2444459D01*
X37345000Y2484459D02*
X28695000Y2484459D01*
X37387000Y2524459D02*
X28653000Y2524459D01*
X37395000Y13942541D02*
X37395000Y12692541D01*
X37428000Y2564459D02*
X28612000Y2564459D01*
X37469000Y2604459D02*
X28571000Y2604459D01*
X37509000Y2644459D02*
X28531000Y2644459D01*
X37548000Y2684459D02*
X28492000Y2684459D01*
X37587000Y2724459D02*
X28453000Y2724459D01*
X37625000Y2764459D02*
X28415000Y2764459D01*
X37662000Y2804459D02*
X28378000Y2804459D01*
X37698000Y2844459D02*
X28342000Y2844459D01*
X37734000Y2884459D02*
X28306000Y2884459D01*
X37770000Y2924459D02*
X28270000Y2924459D01*
X37805000Y2964459D02*
X28235000Y2964459D01*
X37839000Y3004459D02*
X28201000Y3004459D01*
X37872000Y3044459D02*
X28168000Y3044459D01*
X37905000Y3084459D02*
X28135000Y3084459D01*
X37938000Y3124459D02*
X28102000Y3124459D01*
X37970000Y3164459D02*
X28070000Y3164459D01*
X38002000Y3204459D02*
X34460000Y3204459D01*
X38020000Y13317541D02*
X36770000Y13317541D01*
X38032000Y3244459D02*
X34460000Y3244459D01*
X38063000Y3284459D02*
X34460000Y3284459D01*
X38093000Y3324459D02*
X34460000Y3324459D01*
X38122000Y3364459D02*
X34460000Y3364459D01*
X38151000Y3404459D02*
X34460000Y3404459D01*
X38180000Y3444459D02*
X34460000Y3444459D01*
X38208000Y3484459D02*
X34460000Y3484459D01*
X38236000Y3524459D02*
X34460000Y3524459D01*
X38263000Y3564459D02*
X34460000Y3564459D01*
X38290000Y3604459D02*
X34460000Y3604459D01*
X38316000Y3644459D02*
X34460000Y3644459D01*
X38342000Y3684459D02*
X34460000Y3684459D01*
X38367000Y3724459D02*
X34460000Y3724459D01*
X38392000Y3764459D02*
X34460000Y3764459D01*
X38417000Y3804459D02*
X34460000Y3804459D01*
X38441000Y3844459D02*
X34460000Y3844459D01*
X38465000Y3884459D02*
X34460000Y3884459D01*
X38488000Y3924459D02*
X34460000Y3924459D01*
X38511000Y3964459D02*
X34460000Y3964459D01*
X38534000Y4004459D02*
X34460000Y4004459D01*
X38556000Y4044459D02*
X34460000Y4044459D01*
X38578000Y4084459D02*
X34460000Y4084459D01*
X38600000Y4124459D02*
X34460000Y4124459D01*
X38621000Y4164459D02*
X34460000Y4164459D01*
X38642000Y4204459D02*
X34460000Y4204459D01*
X38662000Y4244459D02*
X34460000Y4244459D01*
X38682000Y4284459D02*
X34460000Y4284459D01*
X38702000Y4324459D02*
X34460000Y4324459D01*
X38722000Y4364459D02*
X34460000Y4364459D01*
X38741000Y4404459D02*
X34460000Y4404459D01*
X38759000Y4444459D02*
X34460000Y4444459D01*
X38778000Y4484459D02*
X34460000Y4484459D01*
X38796000Y4524459D02*
X34460000Y4524459D01*
X38813000Y4564459D02*
X34460000Y4564459D01*
X38831000Y4604459D02*
X34460000Y4604459D01*
X38848000Y4644459D02*
X34460000Y4644459D01*
X38865000Y4684459D02*
X34460000Y4684459D01*
X38881000Y4724459D02*
X34460000Y4724459D01*
X38897000Y4764459D02*
X34460000Y4764459D01*
X38913000Y4804459D02*
X34460000Y4804459D01*
X38928000Y4844459D02*
X34460000Y4844459D01*
X38944000Y4884459D02*
X34460000Y4884459D01*
X38959000Y4924459D02*
X34460000Y4924459D01*
X38973000Y4964459D02*
X34460000Y4964459D01*
X38987000Y5004459D02*
X34460000Y5004459D01*
X39001000Y5044459D02*
X34460000Y5044459D01*
X39015000Y5084459D02*
X34460000Y5084459D01*
X39028000Y5124459D02*
X34460000Y5124459D01*
X39041000Y5164459D02*
X34460000Y5164459D01*
X39054000Y5204459D02*
X34460000Y5204459D01*
X39067000Y5244459D02*
X34460000Y5244459D01*
X39079000Y5284459D02*
X34460000Y5284459D01*
X39091000Y5324459D02*
X34460000Y5324459D01*
X39103000Y5364459D02*
X34460000Y5364459D01*
X39114000Y5404459D02*
X34460000Y5404459D01*
X39125000Y5444459D02*
X34460000Y5444459D01*
X39136000Y5484459D02*
X34460000Y5484459D01*
X39146000Y5524459D02*
X34460000Y5524459D01*
X39157000Y5564459D02*
X34460000Y5564459D01*
X39166000Y5604459D02*
X34460000Y5604459D01*
X39176000Y5644459D02*
X34460000Y5644459D01*
X39186000Y5684459D02*
X34460000Y5684459D01*
X39195000Y5724459D02*
X34460000Y5724459D01*
X39204000Y5764459D02*
X34460000Y5764459D01*
X39212000Y5804459D02*
X34460000Y5804459D01*
X39221000Y5844459D02*
X34460000Y5844459D01*
X39229000Y5884459D02*
X34460000Y5884459D01*
X39236000Y5924459D02*
X34460000Y5924459D01*
X39244000Y5964459D02*
X34460000Y5964459D01*
X39251000Y6004459D02*
X34460000Y6004459D01*
X39258000Y6044459D02*
X34460000Y6044459D01*
X39265000Y6084459D02*
X26775000Y6084459D01*
X39272000Y6124459D02*
X26768000Y6124459D01*
X39278000Y6164459D02*
X26762000Y6164459D01*
X39284000Y6204459D02*
X26756000Y6204459D01*
X39289000Y6244459D02*
X26751000Y6244459D01*
X39295000Y6284459D02*
X26745000Y6284459D01*
X39300000Y6324459D02*
X26740000Y6324459D01*
X39305000Y6364459D02*
X26735000Y6364459D01*
X39310000Y6404459D02*
X26730000Y6404459D01*
X39314000Y6445459D02*
X26726000Y6445459D01*
X39318000Y6485459D02*
X26722000Y6485459D01*
X39322000Y6525459D02*
X26718000Y6525459D01*
X39326000Y6565459D02*
X26714000Y6565459D01*
X39329000Y6605459D02*
X26711000Y6605459D01*
X39332000Y6645459D02*
X26708000Y6645459D01*
X39335000Y6685459D02*
X26705000Y6685459D01*
X39338000Y6725459D02*
X26702000Y6725459D01*
X39340000Y6765459D02*
X26700000Y6765459D01*
X39342000Y6805459D02*
X26698000Y6805459D01*
X39344000Y6845459D02*
X26696000Y6845459D01*
X39346000Y6885459D02*
X26694000Y6885459D01*
X39347000Y6925459D02*
X26693000Y6925459D01*
X39348000Y6965459D02*
X26692000Y6965459D01*
X39349000Y7005459D02*
X26691000Y7005459D01*
X39350000Y7125459D02*
X26690000Y7125459D01*
X39350000Y7085459D02*
X26690000Y7085459D01*
X39350000Y7045459D02*
X26690000Y7045459D01*
D13*
X39520000Y7125459D02*
G75*
G02*
X39520000Y7125459I-6500000J0D01*
G01*
D14*
%TO.C,R18*%
X72470000Y59690000D02*
X73430000Y59690000D01*
X72470000Y59690000D02*
G75*
G02*
X72470000Y59690000I-2620000J0D01*
G01*
%TO.C,R4*%
X58107000Y44177936D02*
X58107000Y48532064D01*
X61527000Y44177936D02*
X61527000Y48532064D01*
%TO.C,D2*%
X33925500Y63690500D02*
X33925500Y61030500D01*
X35625500Y63690500D02*
X33925500Y63690500D01*
X35625500Y63690500D02*
X35625500Y61030500D01*
%TO.C,U2*%
X66765000Y42305000D02*
X66765000Y34565000D01*
X66765000Y34565000D02*
X68015000Y34565000D01*
X70015000Y34565000D02*
X71265000Y34565000D01*
X71265000Y42305000D02*
X66765000Y42305000D01*
X71265000Y34565000D02*
X71265000Y42305000D01*
X68015000Y34565000D02*
G75*
G02*
X70015000Y34565000I1000000J0D01*
G01*
%TO.C,C11*%
X61000000Y111750000D02*
X50000000Y111750000D01*
X50000000Y85750000D01*
X61000000Y85750000D01*
X61000000Y111750000D01*
%TO.C,C15*%
X71850000Y79000000D02*
X73650000Y79000000D01*
X72750000Y78100000D02*
X72750000Y79900000D01*
D13*
X74000000Y77000000D02*
X71000000Y77000000D01*
X74000000Y69500000D02*
X71000000Y69500000D01*
X21000000Y64250000D02*
X71000000Y64250000D01*
X71000000Y82250000D01*
X21000000Y82250000D01*
X21000000Y64250000D01*
D14*
%TO.C,C26*%
X59189252Y28675000D02*
X58666748Y28675000D01*
X59189252Y27205000D02*
X58666748Y27205000D01*
%TO.C,C6*%
X42386000Y60000000D02*
G75*
G02*
X42386000Y60000000I-3270000J0D01*
G01*
%TO.C,R17*%
X72485000Y54102000D02*
X73445000Y54102000D01*
X72485000Y54102000D02*
G75*
G02*
X72485000Y54102000I-2620000J0D01*
G01*
%TO.C,C22*%
X68607459Y23271459D02*
X69857459Y23271459D01*
X69232459Y23896459D02*
X69232459Y22646459D01*
X75424541Y25226459D02*
X75424541Y12566459D01*
X75464541Y25226459D02*
X75464541Y12566459D01*
X75504541Y25226459D02*
X75504541Y12566459D01*
X75544541Y25225459D02*
X75544541Y12567459D01*
X75584541Y25224459D02*
X75584541Y12568459D01*
X75624541Y25223459D02*
X75624541Y12569459D01*
X75664541Y25222459D02*
X75664541Y12570459D01*
X75704541Y25220459D02*
X75704541Y12572459D01*
X75744541Y25218459D02*
X75744541Y12574459D01*
X75784541Y25216459D02*
X75784541Y12576459D01*
X75824541Y25214459D02*
X75824541Y12578459D01*
X75864541Y25211459D02*
X75864541Y12581459D01*
X75904541Y25208459D02*
X75904541Y12584459D01*
X75944541Y25205459D02*
X75944541Y12587459D01*
X75984541Y25202459D02*
X75984541Y12590459D01*
X76024541Y25198459D02*
X76024541Y12594459D01*
X76064541Y25194459D02*
X76064541Y12598459D01*
X76104541Y25190459D02*
X76104541Y12602459D01*
X76145541Y25186459D02*
X76145541Y12606459D01*
X76185541Y25181459D02*
X76185541Y12611459D01*
X76225541Y25176459D02*
X76225541Y12616459D01*
X76265541Y25171459D02*
X76265541Y12621459D01*
X76305541Y25165459D02*
X76305541Y12627459D01*
X76345541Y25160459D02*
X76345541Y12632459D01*
X76385541Y25154459D02*
X76385541Y12638459D01*
X76425541Y25148459D02*
X76425541Y12644459D01*
X76465541Y25141459D02*
X76465541Y12651459D01*
X76505541Y25134459D02*
X76505541Y20336459D01*
X76505541Y17456459D02*
X76505541Y12658459D01*
X76545541Y25127459D02*
X76545541Y20336459D01*
X76545541Y17456459D02*
X76545541Y12665459D01*
X76585541Y25120459D02*
X76585541Y20336459D01*
X76585541Y17456459D02*
X76585541Y12672459D01*
X76625541Y25112459D02*
X76625541Y20336459D01*
X76625541Y17456459D02*
X76625541Y12680459D01*
X76665541Y25105459D02*
X76665541Y20336459D01*
X76665541Y17456459D02*
X76665541Y12687459D01*
X76705541Y25097459D02*
X76705541Y20336459D01*
X76705541Y17456459D02*
X76705541Y12695459D01*
X76745541Y25088459D02*
X76745541Y20336459D01*
X76745541Y17456459D02*
X76745541Y12704459D01*
X76785541Y25080459D02*
X76785541Y20336459D01*
X76785541Y17456459D02*
X76785541Y12712459D01*
X76825541Y25071459D02*
X76825541Y20336459D01*
X76825541Y17456459D02*
X76825541Y12721459D01*
X76865541Y25062459D02*
X76865541Y20336459D01*
X76865541Y17456459D02*
X76865541Y12730459D01*
X76905541Y25052459D02*
X76905541Y20336459D01*
X76905541Y17456459D02*
X76905541Y12740459D01*
X76945541Y25042459D02*
X76945541Y20336459D01*
X76945541Y17456459D02*
X76945541Y12750459D01*
X76985541Y25033459D02*
X76985541Y20336459D01*
X76985541Y17456459D02*
X76985541Y12759459D01*
X77025541Y25022459D02*
X77025541Y20336459D01*
X77025541Y17456459D02*
X77025541Y12770459D01*
X77065541Y25012459D02*
X77065541Y20336459D01*
X77065541Y17456459D02*
X77065541Y12780459D01*
X77105541Y25001459D02*
X77105541Y20336459D01*
X77105541Y17456459D02*
X77105541Y12791459D01*
X77145541Y24990459D02*
X77145541Y20336459D01*
X77145541Y17456459D02*
X77145541Y12802459D01*
X77185541Y24979459D02*
X77185541Y20336459D01*
X77185541Y17456459D02*
X77185541Y12813459D01*
X77225541Y24967459D02*
X77225541Y20336459D01*
X77225541Y17456459D02*
X77225541Y12825459D01*
X77265541Y24955459D02*
X77265541Y20336459D01*
X77265541Y17456459D02*
X77265541Y12837459D01*
X77305541Y24943459D02*
X77305541Y20336459D01*
X77305541Y17456459D02*
X77305541Y12849459D01*
X77345541Y24930459D02*
X77345541Y20336459D01*
X77345541Y17456459D02*
X77345541Y12862459D01*
X77385541Y24917459D02*
X77385541Y20336459D01*
X77385541Y17456459D02*
X77385541Y12875459D01*
X77425541Y24904459D02*
X77425541Y20336459D01*
X77425541Y17456459D02*
X77425541Y12888459D01*
X77465541Y24891459D02*
X77465541Y20336459D01*
X77465541Y17456459D02*
X77465541Y12901459D01*
X77505541Y24877459D02*
X77505541Y20336459D01*
X77505541Y17456459D02*
X77505541Y12915459D01*
X77545541Y24863459D02*
X77545541Y20336459D01*
X77545541Y17456459D02*
X77545541Y12929459D01*
X77585541Y24849459D02*
X77585541Y20336459D01*
X77585541Y17456459D02*
X77585541Y12943459D01*
X77625541Y24835459D02*
X77625541Y20336459D01*
X77625541Y17456459D02*
X77625541Y12957459D01*
X77665541Y24820459D02*
X77665541Y20336459D01*
X77665541Y17456459D02*
X77665541Y12972459D01*
X77705541Y24804459D02*
X77705541Y20336459D01*
X77705541Y17456459D02*
X77705541Y12988459D01*
X77745541Y24789459D02*
X77745541Y20336459D01*
X77745541Y17456459D02*
X77745541Y13003459D01*
X77785541Y24773459D02*
X77785541Y20336459D01*
X77785541Y17456459D02*
X77785541Y13019459D01*
X77825541Y24757459D02*
X77825541Y20336459D01*
X77825541Y17456459D02*
X77825541Y13035459D01*
X77865541Y24741459D02*
X77865541Y20336459D01*
X77865541Y17456459D02*
X77865541Y13051459D01*
X77905541Y24724459D02*
X77905541Y20336459D01*
X77905541Y17456459D02*
X77905541Y13068459D01*
X77945541Y24707459D02*
X77945541Y20336459D01*
X77945541Y17456459D02*
X77945541Y13085459D01*
X77985541Y24689459D02*
X77985541Y20336459D01*
X77985541Y17456459D02*
X77985541Y13103459D01*
X78025541Y24672459D02*
X78025541Y20336459D01*
X78025541Y17456459D02*
X78025541Y13120459D01*
X78065541Y24654459D02*
X78065541Y20336459D01*
X78065541Y17456459D02*
X78065541Y13138459D01*
X78105541Y24635459D02*
X78105541Y20336459D01*
X78105541Y17456459D02*
X78105541Y13157459D01*
X78145541Y24617459D02*
X78145541Y20336459D01*
X78145541Y17456459D02*
X78145541Y13175459D01*
X78185541Y24598459D02*
X78185541Y20336459D01*
X78185541Y17456459D02*
X78185541Y13194459D01*
X78225541Y24578459D02*
X78225541Y20336459D01*
X78225541Y17456459D02*
X78225541Y13214459D01*
X78265541Y24558459D02*
X78265541Y20336459D01*
X78265541Y17456459D02*
X78265541Y13234459D01*
X78305541Y24538459D02*
X78305541Y20336459D01*
X78305541Y17456459D02*
X78305541Y13254459D01*
X78345541Y24518459D02*
X78345541Y20336459D01*
X78345541Y17456459D02*
X78345541Y13274459D01*
X78385541Y24497459D02*
X78385541Y20336459D01*
X78385541Y17456459D02*
X78385541Y13295459D01*
X78425541Y24476459D02*
X78425541Y20336459D01*
X78425541Y17456459D02*
X78425541Y13316459D01*
X78465541Y24454459D02*
X78465541Y20336459D01*
X78465541Y17456459D02*
X78465541Y13338459D01*
X78505541Y24432459D02*
X78505541Y20336459D01*
X78505541Y17456459D02*
X78505541Y13360459D01*
X78545541Y24410459D02*
X78545541Y20336459D01*
X78545541Y17456459D02*
X78545541Y13382459D01*
X78585541Y24387459D02*
X78585541Y20336459D01*
X78585541Y17456459D02*
X78585541Y13405459D01*
X78625541Y24364459D02*
X78625541Y20336459D01*
X78625541Y17456459D02*
X78625541Y13428459D01*
X78665541Y24341459D02*
X78665541Y20336459D01*
X78665541Y17456459D02*
X78665541Y13451459D01*
X78705541Y24317459D02*
X78705541Y20336459D01*
X78705541Y17456459D02*
X78705541Y13475459D01*
X78745541Y24293459D02*
X78745541Y20336459D01*
X78745541Y17456459D02*
X78745541Y13499459D01*
X78785541Y24268459D02*
X78785541Y20336459D01*
X78785541Y17456459D02*
X78785541Y13524459D01*
X78825541Y24243459D02*
X78825541Y20336459D01*
X78825541Y17456459D02*
X78825541Y13549459D01*
X78865541Y24218459D02*
X78865541Y20336459D01*
X78865541Y17456459D02*
X78865541Y13574459D01*
X78905541Y24192459D02*
X78905541Y20336459D01*
X78905541Y17456459D02*
X78905541Y13600459D01*
X78945541Y24166459D02*
X78945541Y20336459D01*
X78945541Y17456459D02*
X78945541Y13626459D01*
X78985541Y24139459D02*
X78985541Y20336459D01*
X78985541Y17456459D02*
X78985541Y13653459D01*
X79025541Y24112459D02*
X79025541Y20336459D01*
X79025541Y17456459D02*
X79025541Y13680459D01*
X79065541Y24084459D02*
X79065541Y20336459D01*
X79065541Y17456459D02*
X79065541Y13708459D01*
X79105541Y24056459D02*
X79105541Y20336459D01*
X79105541Y17456459D02*
X79105541Y13736459D01*
X79145541Y24027459D02*
X79145541Y20336459D01*
X79145541Y17456459D02*
X79145541Y13765459D01*
X79185541Y23998459D02*
X79185541Y20336459D01*
X79185541Y17456459D02*
X79185541Y13794459D01*
X79225541Y23969459D02*
X79225541Y20336459D01*
X79225541Y17456459D02*
X79225541Y13823459D01*
X79265541Y23939459D02*
X79265541Y20336459D01*
X79265541Y17456459D02*
X79265541Y13853459D01*
X79305541Y23908459D02*
X79305541Y20336459D01*
X79305541Y17456459D02*
X79305541Y13884459D01*
X79345541Y23878459D02*
X79345541Y20336459D01*
X79345541Y17456459D02*
X79345541Y13914459D01*
X79385541Y23846459D02*
X79385541Y13946459D01*
X79425541Y23814459D02*
X79425541Y13978459D01*
X79465541Y23781459D02*
X79465541Y14011459D01*
X79505541Y23748459D02*
X79505541Y14044459D01*
X79545541Y23715459D02*
X79545541Y14077459D01*
X79585541Y23681459D02*
X79585541Y14111459D01*
X79625541Y23646459D02*
X79625541Y14146459D01*
X79665541Y23610459D02*
X79665541Y14182459D01*
X79705541Y23574459D02*
X79705541Y14218459D01*
X79745541Y23538459D02*
X79745541Y14254459D01*
X79785541Y23501459D02*
X79785541Y14291459D01*
X79825541Y23463459D02*
X79825541Y14329459D01*
X79865541Y23424459D02*
X79865541Y14368459D01*
X79905541Y23385459D02*
X79905541Y14407459D01*
X79945541Y23345459D02*
X79945541Y14447459D01*
X79985541Y23304459D02*
X79985541Y14488459D01*
X80025541Y23263459D02*
X80025541Y14529459D01*
X80065541Y23221459D02*
X80065541Y14571459D01*
X80105541Y23178459D02*
X80105541Y14614459D01*
X80145541Y23134459D02*
X80145541Y14658459D01*
X80185541Y23090459D02*
X80185541Y14702459D01*
X80225541Y23044459D02*
X80225541Y14748459D01*
X80265541Y22998459D02*
X80265541Y14794459D01*
X80305541Y22951459D02*
X80305541Y14841459D01*
X80345541Y22903459D02*
X80345541Y14889459D01*
X80385541Y22853459D02*
X80385541Y14939459D01*
X80425541Y22803459D02*
X80425541Y14989459D01*
X80465541Y22752459D02*
X80465541Y15040459D01*
X80505541Y22700459D02*
X80505541Y15092459D01*
X80545541Y22646459D02*
X80545541Y15146459D01*
X80585541Y22592459D02*
X80585541Y15200459D01*
X80625541Y22536459D02*
X80625541Y15256459D01*
X80665541Y22479459D02*
X80665541Y15313459D01*
X80705541Y22420459D02*
X80705541Y15372459D01*
X80745541Y22360459D02*
X80745541Y15432459D01*
X80785541Y22298459D02*
X80785541Y15494459D01*
X80825541Y22235459D02*
X80825541Y15557459D01*
X80865541Y22171459D02*
X80865541Y15621459D01*
X80905541Y22104459D02*
X80905541Y15688459D01*
X80945541Y22036459D02*
X80945541Y15756459D01*
X80985541Y21965459D02*
X80985541Y15827459D01*
X81025541Y21892459D02*
X81025541Y15900459D01*
X81065541Y21817459D02*
X81065541Y15975459D01*
X81105541Y21740459D02*
X81105541Y16052459D01*
X81145541Y21660459D02*
X81145541Y16132459D01*
X81185541Y21577459D02*
X81185541Y16215459D01*
X81225541Y21490459D02*
X81225541Y16302459D01*
X81265541Y21400459D02*
X81265541Y16392459D01*
X81305541Y21306459D02*
X81305541Y16486459D01*
X81345541Y21208459D02*
X81345541Y16584459D01*
X81385541Y21105459D02*
X81385541Y16687459D01*
X81425541Y20996459D02*
X81425541Y16796459D01*
X81465541Y20880459D02*
X81465541Y16912459D01*
X81505541Y20757459D02*
X81505541Y17035459D01*
X81545541Y20624459D02*
X81545541Y17168459D01*
X81585541Y20479459D02*
X81585541Y17313459D01*
X81625541Y20318459D02*
X81625541Y17474459D01*
X81665541Y20137459D02*
X81665541Y17655459D01*
X81705541Y19924459D02*
X81705541Y17868459D01*
X81745541Y19653459D02*
X81745541Y18139459D01*
X81785541Y19213459D02*
X81785541Y18579459D01*
D13*
X81924541Y18896459D02*
G75*
G02*
X81924541Y18896459I-6500000J0D01*
G01*
D14*
%TO.C,U3*%
X75690000Y35750000D02*
X75690000Y36400000D01*
X75690000Y35750000D02*
X75690000Y34075000D01*
X78810000Y35750000D02*
X78810000Y36400000D01*
X78810000Y35750000D02*
X78810000Y35100000D01*
%TO.C,FL1*%
X35500000Y106000000D02*
X36000000Y106500000D01*
X35750000Y92750000D02*
X36250000Y92750000D01*
X36000000Y106500000D02*
X36000000Y105500000D01*
X36000000Y106500000D02*
X36500000Y106000000D01*
X36000000Y105500000D02*
X46000000Y105500000D01*
X36000000Y93750000D02*
X36000000Y92750000D01*
X36000000Y92250000D02*
X35750000Y92750000D01*
X36250000Y92750000D02*
X36000000Y92250000D01*
X36500000Y106000000D02*
X35500000Y106000000D01*
X46000000Y105500000D02*
X46000000Y106500000D01*
X46000000Y93750000D02*
X36000000Y93750000D01*
X46000000Y92750000D02*
X46000000Y93750000D01*
X48750000Y112000000D02*
X33250000Y112000000D01*
X33250000Y87500000D01*
X48750000Y87500000D01*
X48750000Y112000000D01*
%TO.C,C13*%
X77109420Y39260000D02*
X77390580Y39260000D01*
X77109420Y38240000D02*
X77390580Y38240000D01*
%TO.C,C20*%
X61630000Y61370000D02*
X62994000Y61370000D01*
X61630000Y53630000D02*
X61630000Y61370000D01*
X61630000Y53630000D02*
X62994000Y53630000D01*
X65506000Y61370000D02*
X66870000Y61370000D01*
X65506000Y53630000D02*
X66870000Y53630000D01*
X66870000Y53630000D02*
X66870000Y61370000D01*
%TO.C,R7*%
X44222936Y62910000D02*
X45677064Y62910000D01*
X44222936Y61090000D02*
X45677064Y61090000D01*
%TO.C,C9*%
X10380000Y118870000D02*
X15620000Y118870000D01*
X10380000Y108130000D02*
X10380000Y118870000D01*
X10380000Y108130000D02*
X15620000Y108130000D01*
X15620000Y108130000D02*
X15620000Y118870000D01*
%TO.C,C25*%
X58666748Y26643000D02*
X59189252Y26643000D01*
X58666748Y25173000D02*
X59189252Y25173000D01*
%TO.C,C1*%
X25509420Y61570000D02*
X25790580Y61570000D01*
X25509420Y60550000D02*
X25790580Y60550000D01*
%TO.C,R20*%
X44037000Y16764000D02*
X44997000Y16764000D01*
X44037000Y16764000D02*
G75*
G02*
X44037000Y16764000I-2620000J0D01*
G01*
%TO.C,R15*%
X80977500Y27237258D02*
X80977500Y26762742D01*
X82022500Y27237258D02*
X82022500Y26762742D01*
D10*
%TO.C,TH1*%
X61800000Y105650000D02*
X68200000Y105650000D01*
X61800000Y96350000D02*
X61800000Y105650000D01*
X61800000Y96350000D02*
X68200000Y96350000D01*
X68200000Y96350000D02*
X68200000Y105650000D01*
D14*
%TO.C,R2*%
X21177500Y55762742D02*
X21177500Y56237258D01*
X22222500Y55762742D02*
X22222500Y56237258D01*
%TO.C,J1*%
X2840000Y81560000D02*
X9860000Y81560000D01*
X2840000Y69520000D02*
X2840000Y81560000D01*
X7450000Y82360000D02*
X8050000Y82360000D01*
X7750000Y81760000D02*
X7450000Y82360000D01*
X8050000Y82360000D02*
X7750000Y81760000D01*
X9860000Y81560000D02*
X9860000Y80360000D01*
X9860000Y80360000D02*
X11560000Y80360000D01*
X9860000Y70720000D02*
X9860000Y69520000D01*
X9860000Y69520000D02*
X2840000Y69520000D01*
X11560000Y80360000D02*
X11560000Y70720000D01*
X11560000Y70720000D02*
X9860000Y70720000D01*
%TO.C,C14*%
X80504420Y32895000D02*
X80785580Y32895000D01*
X80504420Y31875000D02*
X80785580Y31875000D01*
%TO.C,TR1*%
X37970000Y51675000D02*
X2410000Y51675000D01*
X2410000Y14337000D01*
X37970000Y14337000D01*
X37970000Y51675000D01*
X37970000Y50913000D02*
X37208000Y51675000D01*
X37970000Y51675000D01*
X37970000Y50913000D01*
G36*
X37970000Y50913000D02*
G01*
X37208000Y51675000D01*
X37970000Y51675000D01*
X37970000Y50913000D01*
G37*
%TO.C,R6*%
X49272936Y62910000D02*
X50727064Y62910000D01*
X49272936Y61090000D02*
X50727064Y61090000D01*
%TO.C,C18*%
X66540748Y12292000D02*
X67063252Y12292000D01*
X66540748Y10822000D02*
X67063252Y10822000D01*
%TO.C,C8*%
X16130000Y113880000D02*
X16130000Y119120000D01*
X26870000Y119120000D02*
X16130000Y119120000D01*
X26870000Y113880000D02*
X16130000Y113880000D01*
X26870000Y113880000D02*
X26870000Y119120000D01*
%TO.C,R3*%
X35545500Y54118742D02*
X35545500Y54593258D01*
X36590500Y54118742D02*
X36590500Y54593258D01*
%TO.C,R10*%
X30162258Y61582500D02*
X29687742Y61582500D01*
X30162258Y60537500D02*
X29687742Y60537500D01*
%TO.C,J2*%
X55020000Y9910000D02*
X71020000Y9910000D01*
X55020000Y2890000D02*
X55020000Y9910000D01*
X56220000Y2890000D02*
X55020000Y2890000D01*
X56220000Y1190000D02*
X56220000Y2890000D01*
X69820000Y2890000D02*
X69820000Y1190000D01*
X69820000Y1190000D02*
X56220000Y1190000D01*
X71020000Y9910000D02*
X71020000Y2890000D01*
X71020000Y2890000D02*
X69820000Y2890000D01*
X71220000Y5000000D02*
X71820000Y5300000D01*
X71820000Y5300000D02*
X71820000Y4700000D01*
X71820000Y4700000D02*
X71220000Y5000000D01*
%TO.C,D4*%
X78460000Y29000000D02*
X74600000Y29000000D01*
X78460000Y27000000D02*
X74600000Y27000000D01*
X78460000Y27000000D02*
X78460000Y29000000D01*
%TO.C,C12*%
X75640580Y30510000D02*
X75359420Y30510000D01*
X75640580Y29490000D02*
X75359420Y29490000D01*
%TO.C,R12*%
X75737258Y33522500D02*
X75262742Y33522500D01*
X75737258Y32477500D02*
X75262742Y32477500D01*
%TO.C,R8*%
X32497500Y62277258D02*
X32497500Y61802742D01*
X33542500Y62277258D02*
X33542500Y61802742D01*
%TO.C,R9*%
X30162258Y63082500D02*
X29687742Y63082500D01*
X30162258Y62037500D02*
X29687742Y62037500D01*
%TO.C,D7*%
X44443000Y29922000D02*
X44443000Y19682000D01*
X47574000Y29922000D02*
X47574000Y19682000D01*
X49084000Y29922000D02*
X44443000Y29922000D01*
X49084000Y29922000D02*
X49084000Y19682000D01*
X49084000Y26652000D02*
X47574000Y26652000D01*
X49084000Y22951000D02*
X47574000Y22951000D01*
X49084000Y19682000D02*
X44443000Y19682000D01*
%TO.C,C3*%
X33609420Y57260000D02*
X33890580Y57260000D01*
X33609420Y56240000D02*
X33890580Y56240000D01*
%TO.C,HS2*%
X54262000Y30765000D02*
X47662000Y30765000D01*
X47662000Y18765000D01*
X54262000Y18765000D01*
X54262000Y30765000D01*
%TO.C,C17*%
X67063252Y16483000D02*
X66540748Y16483000D01*
X67063252Y15013000D02*
X66540748Y15013000D01*
%TO.C,C21*%
X40007459Y6795000D02*
X40007459Y7429000D01*
X40047459Y6355000D02*
X40047459Y7869000D01*
X40087459Y6084000D02*
X40087459Y8140000D01*
X40127459Y5871000D02*
X40127459Y8353000D01*
X40167459Y5690000D02*
X40167459Y8534000D01*
X40207459Y5529000D02*
X40207459Y8695000D01*
X40247459Y5384000D02*
X40247459Y8840000D01*
X40287459Y5251000D02*
X40287459Y8973000D01*
X40327459Y5128000D02*
X40327459Y9096000D01*
X40367459Y5012000D02*
X40367459Y9212000D01*
X40407459Y4903000D02*
X40407459Y9321000D01*
X40447459Y4800000D02*
X40447459Y9424000D01*
X40487459Y4702000D02*
X40487459Y9522000D01*
X40527459Y4608000D02*
X40527459Y9616000D01*
X40567459Y4518000D02*
X40567459Y9706000D01*
X40607459Y4431000D02*
X40607459Y9793000D01*
X40647459Y4348000D02*
X40647459Y9876000D01*
X40687459Y4268000D02*
X40687459Y9956000D01*
X40727459Y4191000D02*
X40727459Y10033000D01*
X40767459Y4116000D02*
X40767459Y10108000D01*
X40807459Y4043000D02*
X40807459Y10181000D01*
X40847459Y3972000D02*
X40847459Y10252000D01*
X40887459Y3904000D02*
X40887459Y10320000D01*
X40927459Y3837000D02*
X40927459Y10387000D01*
X40967459Y3773000D02*
X40967459Y10451000D01*
X41007459Y3710000D02*
X41007459Y10514000D01*
X41047459Y3648000D02*
X41047459Y10576000D01*
X41087459Y3588000D02*
X41087459Y10636000D01*
X41127459Y3529000D02*
X41127459Y10695000D01*
X41167459Y3472000D02*
X41167459Y10752000D01*
X41207459Y3416000D02*
X41207459Y10808000D01*
X41247459Y3362000D02*
X41247459Y10862000D01*
X41287459Y3308000D02*
X41287459Y10916000D01*
X41327459Y3256000D02*
X41327459Y10968000D01*
X41367459Y3205000D02*
X41367459Y11019000D01*
X41407459Y3155000D02*
X41407459Y11069000D01*
X41447459Y3105000D02*
X41447459Y11119000D01*
X41487459Y3057000D02*
X41487459Y11167000D01*
X41527459Y3010000D02*
X41527459Y11214000D01*
X41567459Y2964000D02*
X41567459Y11260000D01*
X41607459Y2918000D02*
X41607459Y11306000D01*
X41647459Y2874000D02*
X41647459Y11350000D01*
X41687459Y2830000D02*
X41687459Y11394000D01*
X41727459Y2787000D02*
X41727459Y11437000D01*
X41767459Y2745000D02*
X41767459Y11479000D01*
X41807459Y2704000D02*
X41807459Y11520000D01*
X41847459Y2663000D02*
X41847459Y11561000D01*
X41887459Y2623000D02*
X41887459Y11601000D01*
X41927459Y2584000D02*
X41927459Y11640000D01*
X41967459Y2545000D02*
X41967459Y11679000D01*
X42007459Y2507000D02*
X42007459Y11717000D01*
X42047459Y2470000D02*
X42047459Y11754000D01*
X42087459Y2434000D02*
X42087459Y11790000D01*
X42127459Y2398000D02*
X42127459Y11826000D01*
X42167459Y2362000D02*
X42167459Y11862000D01*
X42207459Y2327000D02*
X42207459Y11897000D01*
X42247459Y2293000D02*
X42247459Y11931000D01*
X42287459Y2260000D02*
X42287459Y11964000D01*
X42327459Y2227000D02*
X42327459Y11997000D01*
X42367459Y2194000D02*
X42367459Y12030000D01*
X42407459Y2162000D02*
X42407459Y12062000D01*
X42447459Y8552000D02*
X42447459Y12094000D01*
X42447459Y2130000D02*
X42447459Y5672000D01*
X42487459Y8552000D02*
X42487459Y12124000D01*
X42487459Y2100000D02*
X42487459Y5672000D01*
X42527459Y8552000D02*
X42527459Y12155000D01*
X42527459Y2069000D02*
X42527459Y5672000D01*
X42567459Y8552000D02*
X42567459Y12185000D01*
X42567459Y2039000D02*
X42567459Y5672000D01*
X42607459Y8552000D02*
X42607459Y12214000D01*
X42607459Y2010000D02*
X42607459Y5672000D01*
X42647459Y8552000D02*
X42647459Y12243000D01*
X42647459Y1981000D02*
X42647459Y5672000D01*
X42687459Y8552000D02*
X42687459Y12272000D01*
X42687459Y1952000D02*
X42687459Y5672000D01*
X42727459Y8552000D02*
X42727459Y12300000D01*
X42727459Y1924000D02*
X42727459Y5672000D01*
X42767459Y8552000D02*
X42767459Y12328000D01*
X42767459Y1896000D02*
X42767459Y5672000D01*
X42807459Y8552000D02*
X42807459Y12355000D01*
X42807459Y1869000D02*
X42807459Y5672000D01*
X42847459Y8552000D02*
X42847459Y12382000D01*
X42847459Y1842000D02*
X42847459Y5672000D01*
X42887459Y8552000D02*
X42887459Y12408000D01*
X42887459Y1816000D02*
X42887459Y5672000D01*
X42927459Y8552000D02*
X42927459Y12434000D01*
X42927459Y1790000D02*
X42927459Y5672000D01*
X42967459Y8552000D02*
X42967459Y12459000D01*
X42967459Y1765000D02*
X42967459Y5672000D01*
X43007459Y8552000D02*
X43007459Y12484000D01*
X43007459Y1740000D02*
X43007459Y5672000D01*
X43047459Y8552000D02*
X43047459Y12509000D01*
X43047459Y1715000D02*
X43047459Y5672000D01*
X43087459Y8552000D02*
X43087459Y12533000D01*
X43087459Y1691000D02*
X43087459Y5672000D01*
X43127459Y8552000D02*
X43127459Y12557000D01*
X43127459Y1667000D02*
X43127459Y5672000D01*
X43167459Y8552000D02*
X43167459Y12580000D01*
X43167459Y1644000D02*
X43167459Y5672000D01*
X43207459Y8552000D02*
X43207459Y12603000D01*
X43207459Y1621000D02*
X43207459Y5672000D01*
X43247459Y8552000D02*
X43247459Y12626000D01*
X43247459Y1598000D02*
X43247459Y5672000D01*
X43287459Y8552000D02*
X43287459Y12648000D01*
X43287459Y1576000D02*
X43287459Y5672000D01*
X43327459Y8552000D02*
X43327459Y12670000D01*
X43327459Y1554000D02*
X43327459Y5672000D01*
X43367459Y8552000D02*
X43367459Y12692000D01*
X43367459Y1532000D02*
X43367459Y5672000D01*
X43407459Y8552000D02*
X43407459Y12713000D01*
X43407459Y1511000D02*
X43407459Y5672000D01*
X43447459Y8552000D02*
X43447459Y12734000D01*
X43447459Y1490000D02*
X43447459Y5672000D01*
X43487459Y8552000D02*
X43487459Y12754000D01*
X43487459Y1470000D02*
X43487459Y5672000D01*
X43527459Y8552000D02*
X43527459Y12774000D01*
X43527459Y1450000D02*
X43527459Y5672000D01*
X43567459Y8552000D02*
X43567459Y12794000D01*
X43567459Y1430000D02*
X43567459Y5672000D01*
X43607459Y8552000D02*
X43607459Y12814000D01*
X43607459Y1410000D02*
X43607459Y5672000D01*
X43647459Y8552000D02*
X43647459Y12833000D01*
X43647459Y1391000D02*
X43647459Y5672000D01*
X43687459Y8552000D02*
X43687459Y12851000D01*
X43687459Y1373000D02*
X43687459Y5672000D01*
X43727459Y8552000D02*
X43727459Y12870000D01*
X43727459Y1354000D02*
X43727459Y5672000D01*
X43767459Y8552000D02*
X43767459Y12888000D01*
X43767459Y1336000D02*
X43767459Y5672000D01*
X43807459Y8552000D02*
X43807459Y12905000D01*
X43807459Y1319000D02*
X43807459Y5672000D01*
X43847459Y8552000D02*
X43847459Y12923000D01*
X43847459Y1301000D02*
X43847459Y5672000D01*
X43887459Y8552000D02*
X43887459Y12940000D01*
X43887459Y1284000D02*
X43887459Y5672000D01*
X43927459Y8552000D02*
X43927459Y12957000D01*
X43927459Y1267000D02*
X43927459Y5672000D01*
X43967459Y8552000D02*
X43967459Y12973000D01*
X43967459Y1251000D02*
X43967459Y5672000D01*
X44007459Y8552000D02*
X44007459Y12989000D01*
X44007459Y1235000D02*
X44007459Y5672000D01*
X44047459Y8552000D02*
X44047459Y13005000D01*
X44047459Y1219000D02*
X44047459Y5672000D01*
X44087459Y8552000D02*
X44087459Y13020000D01*
X44087459Y1204000D02*
X44087459Y5672000D01*
X44127459Y8552000D02*
X44127459Y13036000D01*
X44127459Y1188000D02*
X44127459Y5672000D01*
X44167459Y8552000D02*
X44167459Y13051000D01*
X44167459Y1173000D02*
X44167459Y5672000D01*
X44207459Y8552000D02*
X44207459Y13065000D01*
X44207459Y1159000D02*
X44207459Y5672000D01*
X44247459Y8552000D02*
X44247459Y13079000D01*
X44247459Y1145000D02*
X44247459Y5672000D01*
X44287459Y8552000D02*
X44287459Y13093000D01*
X44287459Y1131000D02*
X44287459Y5672000D01*
X44327459Y8552000D02*
X44327459Y13107000D01*
X44327459Y1117000D02*
X44327459Y5672000D01*
X44367459Y8552000D02*
X44367459Y13120000D01*
X44367459Y1104000D02*
X44367459Y5672000D01*
X44407459Y8552000D02*
X44407459Y13133000D01*
X44407459Y1091000D02*
X44407459Y5672000D01*
X44447459Y8552000D02*
X44447459Y13146000D01*
X44447459Y1078000D02*
X44447459Y5672000D01*
X44487459Y8552000D02*
X44487459Y13159000D01*
X44487459Y1065000D02*
X44487459Y5672000D01*
X44527459Y8552000D02*
X44527459Y13171000D01*
X44527459Y1053000D02*
X44527459Y5672000D01*
X44567459Y8552000D02*
X44567459Y13183000D01*
X44567459Y1041000D02*
X44567459Y5672000D01*
X44607459Y8552000D02*
X44607459Y13195000D01*
X44607459Y1029000D02*
X44607459Y5672000D01*
X44647459Y8552000D02*
X44647459Y13206000D01*
X44647459Y1018000D02*
X44647459Y5672000D01*
X44687459Y8552000D02*
X44687459Y13217000D01*
X44687459Y1007000D02*
X44687459Y5672000D01*
X44727459Y8552000D02*
X44727459Y13228000D01*
X44727459Y996000D02*
X44727459Y5672000D01*
X44767459Y8552000D02*
X44767459Y13238000D01*
X44767459Y986000D02*
X44767459Y5672000D01*
X44807459Y8552000D02*
X44807459Y13249000D01*
X44807459Y975000D02*
X44807459Y5672000D01*
X44847459Y8552000D02*
X44847459Y13258000D01*
X44847459Y966000D02*
X44847459Y5672000D01*
X44887459Y8552000D02*
X44887459Y13268000D01*
X44887459Y956000D02*
X44887459Y5672000D01*
X44927459Y8552000D02*
X44927459Y13278000D01*
X44927459Y946000D02*
X44927459Y5672000D01*
X44967459Y8552000D02*
X44967459Y13287000D01*
X44967459Y937000D02*
X44967459Y5672000D01*
X45007459Y8552000D02*
X45007459Y13296000D01*
X45007459Y928000D02*
X45007459Y5672000D01*
X45047459Y8552000D02*
X45047459Y13304000D01*
X45047459Y920000D02*
X45047459Y5672000D01*
X45087459Y8552000D02*
X45087459Y13313000D01*
X45087459Y911000D02*
X45087459Y5672000D01*
X45127459Y8552000D02*
X45127459Y13321000D01*
X45127459Y903000D02*
X45127459Y5672000D01*
X45167459Y8552000D02*
X45167459Y13328000D01*
X45167459Y896000D02*
X45167459Y5672000D01*
X45207459Y8552000D02*
X45207459Y13336000D01*
X45207459Y888000D02*
X45207459Y5672000D01*
X45247459Y8552000D02*
X45247459Y13343000D01*
X45247459Y881000D02*
X45247459Y5672000D01*
X45287459Y8552000D02*
X45287459Y13350000D01*
X45287459Y874000D02*
X45287459Y5672000D01*
X45327459Y867000D02*
X45327459Y13357000D01*
X45367459Y860000D02*
X45367459Y13364000D01*
X45407459Y854000D02*
X45407459Y13370000D01*
X45447459Y848000D02*
X45447459Y13376000D01*
X45487459Y843000D02*
X45487459Y13381000D01*
X45527459Y837000D02*
X45527459Y13387000D01*
X45567459Y832000D02*
X45567459Y13392000D01*
X45607459Y827000D02*
X45607459Y13397000D01*
X45647459Y822000D02*
X45647459Y13402000D01*
X45688459Y818000D02*
X45688459Y13406000D01*
X45728459Y814000D02*
X45728459Y13410000D01*
X45768459Y810000D02*
X45768459Y13414000D01*
X45808459Y806000D02*
X45808459Y13418000D01*
X45848459Y803000D02*
X45848459Y13421000D01*
X45888459Y800000D02*
X45888459Y13424000D01*
X45928459Y797000D02*
X45928459Y13427000D01*
X45968459Y794000D02*
X45968459Y13430000D01*
X46008459Y792000D02*
X46008459Y13432000D01*
X46048459Y790000D02*
X46048459Y13434000D01*
X46088459Y788000D02*
X46088459Y13436000D01*
X46128459Y786000D02*
X46128459Y13438000D01*
X46168459Y785000D02*
X46168459Y13439000D01*
X46208459Y784000D02*
X46208459Y13440000D01*
X46248459Y783000D02*
X46248459Y13441000D01*
X46288459Y782000D02*
X46288459Y13442000D01*
X46328459Y782000D02*
X46328459Y13442000D01*
X46368459Y782000D02*
X46368459Y13442000D01*
X52560541Y2112000D02*
X52560541Y3362000D01*
X53185541Y2737000D02*
X51935541Y2737000D01*
D13*
X52868459Y7112000D02*
G75*
G02*
X52868459Y7112000I-6500000J0D01*
G01*
D14*
%TO.C,R13*%
X77201500Y32020742D02*
X77201500Y32495258D01*
X78246500Y32020742D02*
X78246500Y32495258D01*
%TO.C,D6*%
X57100000Y60410000D02*
X57100000Y54600000D01*
X61400000Y60410000D02*
X57100000Y60410000D01*
X61400000Y60410000D02*
X61400000Y54600000D01*
%TO.C,D1*%
X31916000Y55839000D02*
X31916000Y53179000D01*
X33616000Y55839000D02*
X31916000Y55839000D01*
X33616000Y55839000D02*
X33616000Y53179000D01*
%TO.C,L1*%
X64682000Y15748000D02*
G75*
G02*
X64682000Y15748000I-5500000J0D01*
G01*
%TO.C,U1*%
X27875000Y59965000D02*
X24425000Y59965000D01*
X27875000Y59965000D02*
X29825000Y59965000D01*
X27875000Y54845000D02*
X25925000Y54845000D01*
X27875000Y54845000D02*
X29825000Y54845000D01*
%TO.C,Q1*%
X42180000Y53320000D02*
X42180000Y37180000D01*
X47451000Y53320000D02*
X42180000Y53320000D01*
X47451000Y53320000D02*
X47451000Y37180000D01*
X47451000Y47054000D02*
X42180000Y47054000D01*
X47451000Y43445000D02*
X42180000Y43445000D01*
X47451000Y37180000D02*
X42180000Y37180000D01*
%TD*%
%LPC*%
D16*
X76707107Y11707107D02*
X73292893Y8292893D01*
X0Y118000000D02*
G75*
G02*
X2000000Y120000000I2000000J0D01*
G01*
X76707107Y11707107D02*
G75*
G02*
X77414214Y11999961I707093J-707207D01*
G01*
X75000000Y4000000D02*
X75000000Y6585786D01*
X11707107Y8292893D02*
G75*
G02*
X11999961Y7585786I-707207J-707093D01*
G01*
X81000000Y110000000D02*
G75*
G02*
X82000000Y109000000I0J-1000000D01*
G01*
D17*
X69000000Y41500000D02*
G75*
G02*
X72000000Y44500000I3000000J0D01*
G01*
D16*
X7292893Y9707107D02*
X9707107Y7292893D01*
X77414214Y108000000D02*
X81000000Y108000000D01*
X82000000Y11000000D02*
X82000000Y11000000D01*
D18*
X3000000Y87000000D02*
X11000000Y87000000D01*
D16*
X85000000Y118000000D02*
X85000000Y2000000D01*
X82000000Y109000000D02*
X82000000Y109000000D01*
X74000000Y3000000D02*
G75*
G02*
X73000000Y4000000I0J1000000D01*
G01*
X12000000Y4000000D02*
G75*
G02*
X11000000Y3000000I-1000000J0D01*
G01*
X74000000Y3000000D02*
X74000000Y3000000D01*
X85000000Y2000000D02*
G75*
G02*
X83000000Y0I-2000000J0D01*
G01*
D17*
X84836000Y44500000D02*
X72000000Y44500000D01*
D16*
X75000000Y6585786D02*
G75*
G02*
X75292886Y7292900I1000000J14D01*
G01*
X73000000Y116000000D02*
X73000000Y112414214D01*
X75000000Y4000000D02*
G75*
G02*
X74000000Y3000000I-1000000J0D01*
G01*
X77707107Y9707107D02*
G75*
G02*
X78414214Y9999990I707093J-707107D01*
G01*
X73000000Y7585786D02*
G75*
G02*
X73292907Y8292879I999900J14D01*
G01*
X6585786Y10000000D02*
G75*
G02*
X7292900Y9707114I14J-1000000D01*
G01*
X12000000Y4000000D02*
X12000000Y7585786D01*
X4000000Y10000000D02*
G75*
G02*
X3000000Y11000000I0J1000000D01*
G01*
X77414214Y108000000D02*
G75*
G02*
X76707100Y108292886I-14J1000000D01*
G01*
X73000000Y116000000D02*
G75*
G02*
X74000000Y117000000I1000000J0D01*
G01*
X3000000Y11000000D02*
G75*
G02*
X4000000Y12000000I1000000J0D01*
G01*
X82000000Y109000000D02*
G75*
G02*
X81000000Y108000000I-1000000J0D01*
G01*
X77707107Y110292893D02*
X75292893Y112707107D01*
D17*
X66000000Y32026000D02*
X0Y32026000D01*
D16*
X75000000Y113414214D02*
X75000000Y116000000D01*
X2000000Y0D02*
G75*
G02*
X0Y2000000I0J2000000D01*
G01*
X73292893Y111707107D02*
G75*
G02*
X73000039Y112414214I707207J707093D01*
G01*
X4000000Y10000000D02*
X6585786Y10000000D01*
X9707107Y7292893D02*
G75*
G02*
X9999990Y6585786I-707107J-707093D01*
G01*
X78414214Y10000000D02*
X81000000Y10000000D01*
X7585786Y12000000D02*
X4000000Y12000000D01*
X74000000Y117000000D02*
X74000000Y117000000D01*
X11707107Y8292893D02*
X8292893Y11707107D01*
X11000000Y3000000D02*
X11000000Y3000000D01*
X73000000Y7585786D02*
X73000000Y4000000D01*
X83000000Y0D02*
X2000000Y0D01*
X81000000Y12000000D02*
X77414214Y12000000D01*
X82000000Y11000000D02*
G75*
G02*
X81000000Y10000000I-1000000J0D01*
G01*
X0Y2000000D02*
X0Y118000000D01*
X81000000Y12000000D02*
G75*
G02*
X82000000Y11000000I0J-1000000D01*
G01*
X11000000Y3000000D02*
G75*
G02*
X10000000Y4000000I0J1000000D01*
G01*
X74000000Y117000000D02*
G75*
G02*
X75000000Y116000000I0J-1000000D01*
G01*
X78414214Y110000000D02*
G75*
G02*
X77707121Y110292907I-14J999900D01*
G01*
X7585786Y12000000D02*
G75*
G02*
X8292879Y11707093I14J-999900D01*
G01*
X73292893Y111707107D02*
X76707107Y108292893D01*
D17*
X69000000Y41500000D02*
X69000000Y35026000D01*
D16*
X75292893Y7292893D02*
X77707107Y9707107D01*
X3000000Y11000000D02*
X3000000Y11000000D01*
D17*
X69000000Y35026000D02*
G75*
G02*
X66000000Y32026000I-3000000J0D01*
G01*
D16*
X81000000Y110000000D02*
X78414214Y110000000D01*
X75292893Y112707107D02*
G75*
G02*
X75000010Y113414214I707107J707093D01*
G01*
X83000000Y120000000D02*
G75*
G02*
X85000000Y118000000I0J-2000000D01*
G01*
X10000000Y6585786D02*
X10000000Y4000000D01*
X2000000Y120000000D02*
X83000000Y120000000D01*
D19*
%TO.C,R14*%
X80000000Y27825000D03*
X80000000Y26175000D03*
%TD*%
%TO.C,R19*%
X81500000Y30797000D03*
X81500000Y29147000D03*
%TD*%
D20*
%TO.C,R11*%
X74675000Y31500000D03*
X76325000Y31500000D03*
%TD*%
D21*
%TO.C,R16*%
X80000000Y29147000D03*
X80000000Y30797000D03*
%TD*%
D22*
%TO.C,H2*%
X80000000Y5000000D03*
D23*
X80000000Y5000000D03*
%TD*%
D24*
%TO.C,R5*%
X53450000Y62000000D03*
X56550000Y62000000D03*
%TD*%
D25*
%TO.C,D5*%
X71500000Y88340000D03*
D26*
X71500000Y93420000D03*
X71500000Y98500000D03*
X71500000Y103580000D03*
%TD*%
D27*
%TO.C,HS1*%
X49598450Y36233000D03*
X49598450Y54233000D03*
%TD*%
D28*
%TO.C,F1*%
X7200000Y84460000D03*
X7200000Y89540000D03*
%TD*%
D29*
%TO.C,C16*%
X65764500Y17801500D03*
X67839500Y17801500D03*
%TD*%
D28*
%TO.C,RV1*%
X17000000Y87500000D03*
X15700000Y80000000D03*
%TD*%
D30*
%TO.C,C2*%
X23175000Y56775000D03*
X23175000Y55225000D03*
%TD*%
D31*
%TO.C,SW1*%
X10000000Y105000000D03*
X16000000Y106000000D03*
X10000000Y95000000D03*
X16000000Y94000000D03*
%TD*%
D32*
%TO.C,C4*%
X32975000Y58250000D03*
X34525000Y58250000D03*
%TD*%
D31*
%TO.C,C27*%
X78181200Y41004800D03*
X78181200Y48504800D03*
%TD*%
D33*
%TO.C,C19*%
X67839500Y13716000D03*
X65764500Y13716000D03*
%TD*%
D31*
%TO.C,C28*%
X41402000Y20828000D03*
X41402000Y28328000D03*
%TD*%
D34*
%TO.C,C10*%
X20200000Y55225000D03*
X20200000Y56775000D03*
%TD*%
D35*
%TO.C,C24*%
X19558000Y9625459D03*
D36*
X19558000Y4625459D03*
%TD*%
D37*
%TO.C,C7*%
X26500000Y109500000D03*
X26500000Y87000000D03*
%TD*%
D21*
%TO.C,R1*%
X34544000Y53531000D03*
X34544000Y55181000D03*
%TD*%
D32*
%TO.C,C5*%
X32950000Y59750000D03*
X34500000Y59750000D03*
%TD*%
D38*
%TO.C,D3*%
X11430000Y56549000D03*
X11430000Y54449000D03*
%TD*%
D35*
%TO.C,C23*%
X33020000Y9625459D03*
D36*
X33020000Y4625459D03*
%TD*%
%TO.C,R18*%
X69850000Y59690000D03*
D39*
X74930000Y59690000D03*
%TD*%
D40*
%TO.C,R4*%
X59817000Y43305000D03*
X59817000Y49405000D03*
%TD*%
D38*
%TO.C,D2*%
X34775500Y63130500D03*
X34775500Y61030500D03*
%TD*%
D41*
%TO.C,U2*%
X72825000Y35895000D03*
D42*
X72825000Y38435000D03*
X72825000Y40975000D03*
X65205000Y40975000D03*
X65205000Y38435000D03*
X65205000Y35895000D03*
%TD*%
D37*
%TO.C,C11*%
X55500000Y110000000D03*
X55500000Y87500000D03*
%TD*%
D35*
%TO.C,C15*%
X76500000Y77000000D03*
D36*
X76500000Y69500000D03*
%TD*%
D33*
%TO.C,C26*%
X59965500Y27940000D03*
X57890500Y27940000D03*
%TD*%
D43*
%TO.C,C6*%
X39116000Y61250000D03*
X39116000Y58750000D03*
%TD*%
D36*
%TO.C,R17*%
X69865000Y54102000D03*
D39*
X74945000Y54102000D03*
%TD*%
D35*
%TO.C,C22*%
X72924541Y18896459D03*
D36*
X77924541Y18896459D03*
%TD*%
D44*
%TO.C,U3*%
X76300000Y34812500D03*
X78200000Y34812500D03*
X77250000Y36687500D03*
%TD*%
D45*
%TO.C,FL1*%
X36000000Y90250000D03*
X46000000Y90250000D03*
X36000000Y109000000D03*
X46000000Y109000000D03*
%TD*%
D32*
%TO.C,C13*%
X76475000Y38750000D03*
X78025000Y38750000D03*
%TD*%
D31*
%TO.C,C20*%
X64250000Y53750000D03*
X64250000Y61250000D03*
%TD*%
D24*
%TO.C,R7*%
X43400000Y62000000D03*
X46500000Y62000000D03*
%TD*%
D22*
%TO.C,H4*%
X80000000Y115200000D03*
D23*
X80000000Y115200000D03*
%TD*%
D31*
%TO.C,C9*%
X13000000Y111000000D03*
X13000000Y116000000D03*
%TD*%
D29*
%TO.C,C25*%
X57890500Y25908000D03*
X59965500Y25908000D03*
%TD*%
D32*
%TO.C,C1*%
X24875000Y61060000D03*
X26425000Y61060000D03*
%TD*%
D36*
%TO.C,R20*%
X41417000Y16764000D03*
D39*
X46497000Y16764000D03*
%TD*%
D19*
%TO.C,R15*%
X81500000Y27825000D03*
X81500000Y26175000D03*
%TD*%
D43*
%TO.C,TH1*%
X64250000Y98500000D03*
X65750000Y103500000D03*
%TD*%
D21*
%TO.C,R2*%
X21700000Y55175000D03*
X21700000Y56825000D03*
%TD*%
D46*
%TO.C,J1*%
X7750000Y79500000D03*
D47*
X7750000Y71580000D03*
%TD*%
D32*
%TO.C,C14*%
X79870000Y32385000D03*
X81420000Y32385000D03*
%TD*%
D45*
%TO.C,TR1*%
X34160000Y48500000D03*
X29080000Y48500000D03*
X24000000Y48500000D03*
X16507000Y48500000D03*
X11427000Y48500000D03*
X6347000Y48500000D03*
X6347000Y18020000D03*
X11427000Y18020000D03*
X16507000Y18020000D03*
X24000000Y18020000D03*
X29080000Y18020000D03*
X34160000Y18020000D03*
%TD*%
D24*
%TO.C,R6*%
X48450000Y62000000D03*
X51550000Y62000000D03*
%TD*%
D29*
%TO.C,C18*%
X65764500Y11557000D03*
X67839500Y11557000D03*
%TD*%
D31*
%TO.C,C8*%
X24000000Y116500000D03*
X19000000Y116500000D03*
%TD*%
D21*
%TO.C,R3*%
X36068000Y53531000D03*
X36068000Y55181000D03*
%TD*%
D48*
%TO.C,R10*%
X30750000Y61060000D03*
X29100000Y61060000D03*
%TD*%
D49*
%TO.C,J2*%
X68960000Y5000000D03*
D47*
X65000000Y5000000D03*
X61040000Y5000000D03*
X57080000Y5000000D03*
%TD*%
D50*
%TO.C,D4*%
X77650000Y28000000D03*
X74850000Y28000000D03*
%TD*%
D51*
%TO.C,C12*%
X76275000Y30000000D03*
X74725000Y30000000D03*
%TD*%
D48*
%TO.C,R12*%
X76325000Y33000000D03*
X74675000Y33000000D03*
%TD*%
D19*
%TO.C,R8*%
X33020000Y62865000D03*
X33020000Y61215000D03*
%TD*%
D48*
%TO.C,R9*%
X30750000Y62560000D03*
X29100000Y62560000D03*
%TD*%
D52*
%TO.C,D7*%
X45814000Y27342000D03*
D53*
X45814000Y24802000D03*
X45814000Y22262000D03*
%TD*%
D32*
%TO.C,C3*%
X32975000Y56750000D03*
X34525000Y56750000D03*
%TD*%
D45*
%TO.C,HS2*%
X51562000Y24765000D03*
%TD*%
D22*
%TO.C,H3*%
X5000000Y5000000D03*
D23*
X5000000Y5000000D03*
%TD*%
D33*
%TO.C,C17*%
X67839500Y15748000D03*
X65764500Y15748000D03*
%TD*%
D35*
%TO.C,C21*%
X48868459Y7112000D03*
D36*
X43868459Y7112000D03*
%TD*%
D21*
%TO.C,R13*%
X77724000Y31433000D03*
X77724000Y33083000D03*
%TD*%
D54*
%TO.C,D6*%
X59250000Y58900000D03*
X59250000Y54600000D03*
%TD*%
D38*
%TO.C,D1*%
X32766000Y55279000D03*
X32766000Y53179000D03*
%TD*%
D31*
%TO.C,L1*%
X63182000Y15748000D03*
X55182000Y15748000D03*
%TD*%
D55*
%TO.C,U1*%
X25400000Y59310000D03*
X25400000Y58040000D03*
X25400000Y56770000D03*
X25400000Y55500000D03*
X30350000Y55500000D03*
X30350000Y56770000D03*
X30350000Y58040000D03*
X30350000Y59310000D03*
%TD*%
D56*
%TO.C,Q1*%
X45000000Y50700000D03*
D57*
X45000000Y45250000D03*
X45000000Y39800000D03*
%TD*%
D22*
%TO.C,H1*%
X5000000Y115000000D03*
D23*
X5000000Y115000000D03*
%TD*%
%LPD*%
M02*
