%TF.GenerationSoftware,KiCad,Pcbnew,7.99.0-3539-g7abe2e3ea0*%
%TF.CreationDate,2023-11-11T19:40:51+01:00*%
%TF.ProjectId,ACDC150V24,41434443-3135-4305-9632-342e6b696361,rev?*%
%TF.SameCoordinates,Original*%
%TF.FileFunction,Profile,NP*%
%FSLAX46Y46*%
G04 Gerber Fmt 4.6, Leading zero omitted, Abs format (unit mm)*
G04 Created by KiCad (PCBNEW 7.99.0-3539-g7abe2e3ea0) date 2023-11-11 19:40:51*
%MOMM*%
%LPD*%
G01*
G04 APERTURE LIST*
%TA.AperFunction,Profile*%
%ADD10C,0.100000*%
%TD*%
G04 APERTURE END LIST*
D10*
X11707107Y8292893D02*
G75*
G02*
X11999961Y7585786I-707207J-707093D01*
G01*
X7585786Y12000000D02*
X4000000Y12000000D01*
X74000000Y3000000D02*
G75*
G02*
X73000000Y4000000I0J1000000D01*
G01*
X80750000Y45500000D02*
G75*
G02*
X81750000Y44500000I0J-1000000D01*
G01*
X74000000Y3000000D02*
X74000000Y3000000D01*
X3000000Y11000000D02*
G75*
G02*
X4000000Y12000000I1000000J0D01*
G01*
X76707107Y11707107D02*
G75*
G02*
X77414214Y11999961I707093J-707207D01*
G01*
X85000000Y118000000D02*
X85000000Y2000000D01*
X11707107Y8292893D02*
X8292893Y11707107D01*
X81000000Y12000000D02*
G75*
G02*
X82000000Y11000000I0J-1000000D01*
G01*
X82000000Y11000000D02*
X82000000Y11000000D01*
X73292893Y111707107D02*
G75*
G02*
X73000039Y112414214I707207J707093D01*
G01*
X6585786Y10000000D02*
G75*
G02*
X7292879Y9707093I14J-999900D01*
G01*
X18500000Y32000000D02*
G75*
G02*
X19500000Y33000000I1000000J0D01*
G01*
X78414214Y10000000D02*
X81000000Y10000000D01*
X11000000Y3000000D02*
X11000000Y3000000D01*
X9707107Y7292893D02*
G75*
G02*
X9999961Y6585786I-707207J-707093D01*
G01*
X4700000Y86300000D02*
X9300000Y86300000D01*
X75292893Y7292893D02*
X77707107Y9707107D01*
X75000000Y113414214D02*
X75000000Y116000000D01*
X9300000Y87800000D02*
X4700000Y87800000D01*
X75292893Y112707107D02*
G75*
G02*
X75000010Y113414214I707107J707093D01*
G01*
X77414214Y108000000D02*
G75*
G02*
X76707121Y108292907I-14J999900D01*
G01*
X68000000Y41500000D02*
X68000000Y35000000D01*
X70000000Y35000000D02*
X70000000Y41500000D01*
X82000000Y109000000D02*
G75*
G02*
X81000000Y108000000I-1000000J0D01*
G01*
X82000000Y109000000D02*
X82000000Y109000000D01*
X10000000Y87000000D02*
G75*
G02*
X9300000Y86300000I-700000J0D01*
G01*
X81000000Y12000000D02*
X77414214Y12000000D01*
X19500000Y31000000D02*
X66000000Y31000000D01*
X83000000Y0D02*
X2000000Y0D01*
X11000000Y3000000D02*
G75*
G02*
X10000000Y4000000I0J1000000D01*
G01*
X4000000Y87100000D02*
X4000000Y87000000D01*
X18500000Y32000000D02*
X18500000Y32000000D01*
X68000000Y41500000D02*
G75*
G02*
X72000000Y45500000I4000000J0D01*
G01*
X81000000Y110000000D02*
G75*
G02*
X82000000Y109000000I0J-1000000D01*
G01*
X4000000Y10000000D02*
G75*
G02*
X3000000Y11000000I0J1000000D01*
G01*
X73000000Y116000000D02*
G75*
G02*
X74000000Y117000000I1000000J0D01*
G01*
X82000000Y11000000D02*
G75*
G02*
X81000000Y10000000I-1000000J0D01*
G01*
X77414214Y108000000D02*
X81000000Y108000000D01*
X10000000Y6585786D02*
X10000000Y4000000D01*
X0Y2000000D02*
X0Y118000000D01*
X7292893Y9707107D02*
X9707107Y7292893D01*
X19500000Y31000000D02*
G75*
G02*
X18500000Y32000000I0J1000000D01*
G01*
X10000000Y87000000D02*
X10000000Y87100000D01*
X4000000Y87100000D02*
G75*
G02*
X4700000Y87800000I700000J0D01*
G01*
X7585786Y12000000D02*
G75*
G02*
X8292900Y11707114I14J-1000000D01*
G01*
X76707107Y11707107D02*
X73292893Y8292893D01*
X2000000Y120000000D02*
X83000000Y120000000D01*
X80750000Y43500000D02*
X72000000Y43500000D01*
X73000000Y7585786D02*
G75*
G02*
X73292886Y8292900I1000000J14D01*
G01*
X12000000Y4000000D02*
G75*
G02*
X11000000Y3000000I-1000000J0D01*
G01*
X0Y118000000D02*
G75*
G02*
X2000000Y120000000I2000000J0D01*
G01*
X2000000Y0D02*
G75*
G02*
X0Y2000000I0J2000000D01*
G01*
X70000000Y35000000D02*
G75*
G02*
X66000000Y31000000I-4000000J0D01*
G01*
X9300000Y87800000D02*
G75*
G02*
X10000000Y87100000I0J-700000D01*
G01*
X74000000Y117000000D02*
X74000000Y117000000D01*
X66000000Y33000000D02*
X19500000Y33000000D01*
X70000000Y41500000D02*
G75*
G02*
X72000000Y43500000I2000000J0D01*
G01*
X68000000Y35000000D02*
G75*
G02*
X66000000Y33000000I-2000000J0D01*
G01*
X81750000Y44500000D02*
G75*
G02*
X80750000Y43500000I-1000000J0D01*
G01*
X3000000Y11000000D02*
X3000000Y11000000D01*
X81000000Y110000000D02*
X78414214Y110000000D01*
X75000000Y4000000D02*
G75*
G02*
X74000000Y3000000I-1000000J0D01*
G01*
X73000000Y116000000D02*
X73000000Y112414214D01*
X80750000Y45500000D02*
X72000000Y45500000D01*
X12000000Y4000000D02*
X12000000Y7585786D01*
X74000000Y117000000D02*
G75*
G02*
X75000000Y116000000I0J-1000000D01*
G01*
X78414214Y110000000D02*
G75*
G02*
X77707100Y110292886I-14J1000000D01*
G01*
X75000000Y6585786D02*
G75*
G02*
X75292907Y7292879I999900J14D01*
G01*
X77707107Y9707107D02*
G75*
G02*
X78414214Y9999990I707093J-707107D01*
G01*
X73000000Y7585786D02*
X73000000Y4000000D01*
X77707107Y110292893D02*
X75292893Y112707107D01*
X4700000Y86300000D02*
G75*
G02*
X4000000Y87000000I0J700000D01*
G01*
X85000000Y2000000D02*
G75*
G02*
X83000000Y0I-2000000J0D01*
G01*
X4000000Y10000000D02*
X6585786Y10000000D01*
X73292893Y111707107D02*
X76707107Y108292893D01*
X75000000Y4000000D02*
X75000000Y6585786D01*
X83000000Y120000000D02*
G75*
G02*
X85000000Y118000000I0J-2000000D01*
G01*
M02*
