M48
INCH
T1C0.0157
T2C0.0276
T3C0.0315
T4C0.0354
T5C0.0394
T6C0.0433
T7C0.0472
T8C0.0512
T9C0.0591
T10C0.0630
T11C0.0669
T12C0.0787
T13C0.1260
%
G90
G05
T1
X0.7185Y2.0965
X0.8189Y2.126
X1.122Y2.1378
X1.122Y2.0945
X1.59Y2.635
X2.015Y2.31
X2.065Y2.313
X2.115Y2.31
X2.205Y2.14
X2.2343Y1.7224
X2.2343Y1.6535
X2.2441Y2.185
X2.2539Y2.1063
X2.2835Y1.624
X2.313Y1.998
X2.3327Y1.624
X2.3524Y2.1063
X2.3819Y1.998
X2.384Y1.1
X2.384Y1.02
X2.4508Y1.998
X2.4508Y1.9488
X2.4508Y1.8898
X2.51Y1.995
X2.51Y1.945
X2.51Y1.89
X2.945Y1.07
X2.985Y2.51
X3.0217Y2.5098
X3.0413Y1.3878
X3.06Y2.51
X3.065Y2.415
X3.065Y2.345
X3.065Y2.28
X3.1102Y1.1516
X3.15Y2.415
X3.15Y2.34
X3.15Y2.275
T2
X2.5295Y3.878
X2.5886Y4.0748
T3
X1.54Y2.4114
X1.54Y2.313
X2.5671Y1.6132
X2.5671Y1.5132
X2.5671Y1.4132
X2.8671Y1.6132
X2.8671Y1.5132
X2.8671Y1.4132
T4
X0.6181Y3.1496
X0.6693Y3.4449
T5
X0.5118Y4.5669
X0.5118Y4.3701
X0.748Y4.5866
X0.9449Y4.5866
X1.0433Y4.311
X1.0433Y3.4252
X1.63Y1.1153
X1.63Y0.82
X2.185Y4.3307
X2.185Y3.4449
X2.5295Y2.4114
X2.5295Y2.1161
X3.078Y1.9096
X3.078Y1.6144
T6
X0.2835Y3.5252
X0.2835Y3.3252
X1.8037Y1.0765
X1.8037Y0.9765
X1.8037Y0.8765
T7
X0.3937Y4.1339
X0.3937Y3.7402
X0.6299Y4.1732
X0.6299Y3.7008
X0.77Y0.379
X0.77Y0.1821
X1.3Y0.379
X1.3Y0.1821
X1.6306Y0.66
X1.7271Y0.28
X1.8306Y0.66
X1.924Y0.28
X2.75Y2.35
X2.7506Y2.13
X2.871Y0.744
X2.95Y2.35
X2.9506Y2.13
X3.0118Y3.0315
X3.0118Y2.7362
X3.0679Y0.744
T8
X2.1725Y0.62
X2.4875Y0.62
T9
X1.7717Y1.9961
X1.7717Y1.7815
X1.7717Y1.5669
T10
X0.2499Y1.9094
X0.2499Y0.7094
X0.4499Y1.9094
X0.4499Y0.7094
X0.6499Y1.9094
X0.6499Y0.7094
X0.9449Y1.9094
X0.9449Y0.7094
X1.1449Y1.9094
X1.1449Y0.7094
X1.3449Y1.9094
X1.3449Y0.7094
X1.4173Y4.2913
X1.4173Y3.5531
X1.811Y4.2913
X1.811Y3.5531
X2.815Y4.078
X2.815Y3.878
X2.815Y3.678
X2.815Y3.478
T11
X0.3051Y3.1299
X0.3051Y2.8181
X2.2472Y0.1969
X2.4031Y0.1969
X2.5591Y0.1969
X2.715Y0.1969
T12
X1.9527Y2.1352
X1.9527Y1.4265
T13
X0.1969Y4.5276
X0.1969Y0.1969
X3.1496Y4.5354
X3.1496Y0.1969
T0
M30
