%TF.GenerationSoftware,KiCad,Pcbnew,7.99.0-3539-g7abe2e3ea0*%
%TF.CreationDate,2023-11-11T19:40:51+01:00*%
%TF.ProjectId,ACDC150V24,41434443-3135-4305-9632-342e6b696361,rev?*%
%TF.SameCoordinates,Original*%
%TF.FileFunction,Legend,Bot*%
%TF.FilePolarity,Positive*%
%FSLAX46Y46*%
G04 Gerber Fmt 4.6, Leading zero omitted, Abs format (unit mm)*
G04 Created by KiCad (PCBNEW 7.99.0-3539-g7abe2e3ea0) date 2023-11-11 19:40:51*
%MOMM*%
%LPD*%
G01*
G04 APERTURE LIST*
G04 Aperture macros list*
%AMRoundRect*
0 Rectangle with rounded corners*
0 $1 Rounding radius*
0 $2 $3 $4 $5 $6 $7 $8 $9 X,Y pos of 4 corners*
0 Add a 4 corners polygon primitive as box body*
4,1,4,$2,$3,$4,$5,$6,$7,$8,$9,$2,$3,0*
0 Add four circle primitives for the rounded corners*
1,1,$1+$1,$2,$3*
1,1,$1+$1,$4,$5*
1,1,$1+$1,$6,$7*
1,1,$1+$1,$8,$9*
0 Add four rect primitives between the rounded corners*
20,1,$1+$1,$2,$3,$4,$5,0*
20,1,$1+$1,$4,$5,$6,$7,0*
20,1,$1+$1,$6,$7,$8,$9,0*
20,1,$1+$1,$8,$9,$2,$3,0*%
G04 Aperture macros list end*
%ADD10C,0.150000*%
%ADD11C,1.000000*%
%ADD12C,3.000000*%
%ADD13C,2.000000*%
%ADD14C,3.600000*%
%ADD15C,5.600000*%
%ADD16R,3.200000X3.200000*%
%ADD17C,3.200000*%
%ADD18C,3.000000*%
%ADD19C,1.800000*%
%ADD20C,2.000000*%
%ADD21R,2.400000X2.400000*%
%ADD22C,2.400000*%
%ADD23C,1.700000*%
%ADD24O,2.400000X2.400000*%
%ADD25R,2.400000X1.600000*%
%ADD26O,2.400000X1.600000*%
%ADD27C,1.600000*%
%ADD28C,2.300000*%
%ADD29RoundRect,0.250001X-1.099999X1.099999X-1.099999X-1.099999X1.099999X-1.099999X1.099999X1.099999X0*%
%ADD30C,2.700000*%
%ADD31RoundRect,0.250001X1.099999X1.099999X-1.099999X1.099999X-1.099999X-1.099999X1.099999X-1.099999X0*%
%ADD32R,2.000000X1.905000*%
%ADD33O,2.000000X1.905000*%
%ADD34R,4.500000X2.500000*%
%ADD35O,4.500000X2.500000*%
G04 APERTURE END LIST*
D10*
X5761904Y118345181D02*
X5761904Y119345181D01*
X5761904Y118868991D02*
X5190476Y118868991D01*
X5190476Y118345181D02*
X5190476Y119345181D01*
X4190476Y118345181D02*
X4761904Y118345181D01*
X4476190Y118345181D02*
X4476190Y119345181D01*
X4476190Y119345181D02*
X4571428Y119202324D01*
X4571428Y119202324D02*
X4666666Y119107086D01*
X4666666Y119107086D02*
X4761904Y119059467D01*
%LPC*%
D11*
X74000000Y3000000D02*
X74000000Y3000000D01*
X4000000Y10000000D02*
X6585786Y10000000D01*
X7292893Y9707107D02*
X9707107Y7292893D01*
X75000000Y113414214D02*
X75000000Y116000000D01*
X7585786Y12000000D02*
G75*
G02*
X8292900Y11707114I14J-1000000D01*
G01*
X75000000Y4000000D02*
X75000000Y6585786D01*
X74000000Y117000000D02*
G75*
G02*
X75000000Y116000000I0J-1000000D01*
G01*
X7585786Y12000000D02*
X4000000Y12000000D01*
X77707107Y9707107D02*
G75*
G02*
X78414214Y9999961I707093J-707207D01*
G01*
X11707107Y8292893D02*
X8292893Y11707107D01*
X73292893Y111707107D02*
X76707107Y108292893D01*
X74000000Y3000000D02*
G75*
G02*
X73000000Y4000000I0J1000000D01*
G01*
X78414214Y110000000D02*
G75*
G02*
X77707100Y110292886I-14J1000000D01*
G01*
X73000000Y7585786D02*
X73000000Y4000000D01*
X76707107Y11707107D02*
X73292893Y8292893D01*
X0Y118000000D02*
G75*
G02*
X2000000Y120000000I2000000J0D01*
G01*
X12000000Y4000000D02*
G75*
G02*
X11000000Y3000000I-1000000J0D01*
G01*
X3000000Y11000000D02*
X3000000Y11000000D01*
X75000000Y6585786D02*
G75*
G02*
X75292886Y7292900I1000000J14D01*
G01*
X11707107Y8292893D02*
G75*
G02*
X11999961Y7585786I-707207J-707093D01*
G01*
X4000000Y10000000D02*
G75*
G02*
X3000000Y11000000I0J1000000D01*
G01*
X76707107Y11707107D02*
G75*
G02*
X77414214Y11999990I707093J-707107D01*
G01*
X85000000Y2000000D02*
G75*
G02*
X83000000Y0I-2000000J0D01*
G01*
X82000000Y109000000D02*
X82000000Y109000000D01*
D12*
X69000000Y35026000D02*
G75*
G02*
X66000000Y32026000I-3000000J0D01*
G01*
D11*
X77414214Y108000000D02*
X81000000Y108000000D01*
X11000000Y3000000D02*
G75*
G02*
X10000000Y4000000I0J1000000D01*
G01*
X77414214Y108000000D02*
G75*
G02*
X76707100Y108292886I-14J1000000D01*
G01*
X73292893Y111707107D02*
G75*
G02*
X73000039Y112414214I707207J707093D01*
G01*
X73000000Y116000000D02*
X73000000Y112414214D01*
X73000000Y7585786D02*
G75*
G02*
X73292907Y8292879I999900J14D01*
G01*
D12*
X69000000Y41500000D02*
G75*
G02*
X72000000Y44500000I3000000J0D01*
G01*
D11*
X75292893Y112707107D02*
G75*
G02*
X75000039Y113414214I707207J707093D01*
G01*
X75292893Y7292893D02*
X77707107Y9707107D01*
X82000000Y109000000D02*
G75*
G02*
X81000000Y108000000I-1000000J0D01*
G01*
X2000000Y120000000D02*
X83000000Y120000000D01*
X3000000Y11000000D02*
G75*
G02*
X4000000Y12000000I1000000J0D01*
G01*
X81000000Y110000000D02*
G75*
G02*
X82000000Y109000000I0J-1000000D01*
G01*
X81000000Y12000000D02*
G75*
G02*
X82000000Y11000000I0J-1000000D01*
G01*
X78414214Y10000000D02*
X81000000Y10000000D01*
X82000000Y11000000D02*
G75*
G02*
X81000000Y10000000I-1000000J0D01*
G01*
X85000000Y118000000D02*
X85000000Y2000000D01*
X9707107Y7292893D02*
G75*
G02*
X9999961Y6585786I-707207J-707093D01*
G01*
X81000000Y110000000D02*
X78414214Y110000000D01*
X74000000Y117000000D02*
X74000000Y117000000D01*
X10000000Y6585786D02*
X10000000Y4000000D01*
X0Y2000000D02*
X0Y118000000D01*
X83000000Y120000000D02*
G75*
G02*
X85000000Y118000000I0J-2000000D01*
G01*
X77707107Y110292893D02*
X75292893Y112707107D01*
X6585786Y10000000D02*
G75*
G02*
X7292900Y9707114I14J-1000000D01*
G01*
D12*
X66000000Y32026000D02*
X0Y32026000D01*
D11*
X82000000Y11000000D02*
X82000000Y11000000D01*
D12*
X84836000Y44500000D02*
X72000000Y44500000D01*
D11*
X81000000Y12000000D02*
X77414214Y12000000D01*
X83000000Y0D02*
X2000000Y0D01*
X11000000Y3000000D02*
X11000000Y3000000D01*
X73000000Y116000000D02*
G75*
G02*
X74000000Y117000000I1000000J0D01*
G01*
X75000000Y4000000D02*
G75*
G02*
X74000000Y3000000I-1000000J0D01*
G01*
D13*
X3000000Y87000000D02*
X11000000Y87000000D01*
D12*
X69000000Y41500000D02*
X69000000Y35026000D01*
D11*
X12000000Y4000000D02*
X12000000Y7585786D01*
X2000000Y0D02*
G75*
G02*
X0Y2000000I0J2000000D01*
G01*
D14*
%TO.C,H2*%
X80000000Y5000000D03*
D15*
X80000000Y5000000D03*
%TD*%
D16*
%TO.C,D5*%
X71500000Y88340000D03*
D17*
X71500000Y93420000D03*
X71500000Y98500000D03*
X71500000Y103580000D03*
%TD*%
D18*
%TO.C,HS1*%
X49598450Y36233000D03*
X49598450Y54233000D03*
%TD*%
D19*
%TO.C,F1*%
X7200000Y84460000D03*
X7200000Y89540000D03*
%TD*%
%TO.C,RV1*%
X17000000Y87500000D03*
X15700000Y80000000D03*
%TD*%
D20*
%TO.C,SW1*%
X10000000Y105000000D03*
X16000000Y106000000D03*
X10000000Y95000000D03*
X16000000Y94000000D03*
%TD*%
%TO.C,C27*%
X78181200Y41004800D03*
X78181200Y48504800D03*
%TD*%
%TO.C,C28*%
X41402000Y20828000D03*
X41402000Y28328000D03*
%TD*%
D21*
%TO.C,C24*%
X19558000Y9625459D03*
D22*
X19558000Y4625459D03*
%TD*%
D23*
%TO.C,C7*%
X26500000Y109500000D03*
X26500000Y87000000D03*
%TD*%
D21*
%TO.C,C23*%
X33020000Y9625459D03*
D22*
X33020000Y4625459D03*
%TD*%
%TO.C,R18*%
X69850000Y59690000D03*
D24*
X74930000Y59690000D03*
%TD*%
D25*
%TO.C,U2*%
X72825000Y35895000D03*
D26*
X72825000Y38435000D03*
X72825000Y40975000D03*
X65205000Y40975000D03*
X65205000Y38435000D03*
X65205000Y35895000D03*
%TD*%
D23*
%TO.C,C11*%
X55500000Y110000000D03*
X55500000Y87500000D03*
%TD*%
D21*
%TO.C,C15*%
X76500000Y77000000D03*
D22*
X76500000Y69500000D03*
%TD*%
D27*
%TO.C,C6*%
X39116000Y61250000D03*
X39116000Y58750000D03*
%TD*%
D22*
%TO.C,R17*%
X69865000Y54102000D03*
D24*
X74945000Y54102000D03*
%TD*%
D21*
%TO.C,C22*%
X72924541Y18896459D03*
D22*
X77924541Y18896459D03*
%TD*%
D28*
%TO.C,FL1*%
X36000000Y90250000D03*
X46000000Y90250000D03*
X36000000Y109000000D03*
X46000000Y109000000D03*
%TD*%
D20*
%TO.C,C20*%
X64250000Y53750000D03*
X64250000Y61250000D03*
%TD*%
D14*
%TO.C,H4*%
X80000000Y115200000D03*
D15*
X80000000Y115200000D03*
%TD*%
D20*
%TO.C,C9*%
X13000000Y111000000D03*
X13000000Y116000000D03*
%TD*%
D22*
%TO.C,R20*%
X41417000Y16764000D03*
D24*
X46497000Y16764000D03*
%TD*%
D27*
%TO.C,TH1*%
X64250000Y98500000D03*
X65750000Y103500000D03*
%TD*%
D29*
%TO.C,J1*%
X7750000Y79500000D03*
D30*
X7750000Y71580000D03*
%TD*%
D28*
%TO.C,TR1*%
X34160000Y48500000D03*
X29080000Y48500000D03*
X24000000Y48500000D03*
X16507000Y48500000D03*
X11427000Y48500000D03*
X6347000Y48500000D03*
X6347000Y18020000D03*
X11427000Y18020000D03*
X16507000Y18020000D03*
X24000000Y18020000D03*
X29080000Y18020000D03*
X34160000Y18020000D03*
%TD*%
D20*
%TO.C,C8*%
X24000000Y116500000D03*
X19000000Y116500000D03*
%TD*%
D31*
%TO.C,J2*%
X68960000Y5000000D03*
D30*
X65000000Y5000000D03*
X61040000Y5000000D03*
X57080000Y5000000D03*
%TD*%
D32*
%TO.C,D7*%
X45814000Y27342000D03*
D33*
X45814000Y24802000D03*
X45814000Y22262000D03*
%TD*%
D28*
%TO.C,HS2*%
X51562000Y24765000D03*
%TD*%
D14*
%TO.C,H3*%
X5000000Y5000000D03*
D15*
X5000000Y5000000D03*
%TD*%
D21*
%TO.C,C21*%
X48868459Y7112000D03*
D22*
X43868459Y7112000D03*
%TD*%
D20*
%TO.C,L1*%
X63182000Y15748000D03*
X55182000Y15748000D03*
%TD*%
D34*
%TO.C,Q1*%
X45000000Y50700000D03*
D35*
X45000000Y45250000D03*
X45000000Y39800000D03*
%TD*%
D14*
%TO.C,H1*%
X5000000Y115000000D03*
D15*
X5000000Y115000000D03*
%TD*%
%LPD*%
M02*
