%TF.GenerationSoftware,KiCad,Pcbnew,7.99.0-3539-g7abe2e3ea0*%
%TF.CreationDate,2023-11-11T19:40:51+01:00*%
%TF.ProjectId,ACDC150V24,41434443-3135-4305-9632-342e6b696361,rev?*%
%TF.SameCoordinates,Original*%
%TF.FileFunction,Paste,Top*%
%TF.FilePolarity,Positive*%
%FSLAX46Y46*%
G04 Gerber Fmt 4.6, Leading zero omitted, Abs format (unit mm)*
G04 Created by KiCad (PCBNEW 7.99.0-3539-g7abe2e3ea0) date 2023-11-11 19:40:51*
%MOMM*%
%LPD*%
G01*
G04 APERTURE LIST*
G04 Aperture macros list*
%AMRoundRect*
0 Rectangle with rounded corners*
0 $1 Rounding radius*
0 $2 $3 $4 $5 $6 $7 $8 $9 X,Y pos of 4 corners*
0 Add a 4 corners polygon primitive as box body*
4,1,4,$2,$3,$4,$5,$6,$7,$8,$9,$2,$3,0*
0 Add four circle primitives for the rounded corners*
1,1,$1+$1,$2,$3*
1,1,$1+$1,$4,$5*
1,1,$1+$1,$6,$7*
1,1,$1+$1,$8,$9*
0 Add four rect primitives between the rounded corners*
20,1,$1+$1,$2,$3,$4,$5,0*
20,1,$1+$1,$4,$5,$6,$7,0*
20,1,$1+$1,$6,$7,$8,$9,0*
20,1,$1+$1,$8,$9,$2,$3,0*%
G04 Aperture macros list end*
%ADD10RoundRect,0.200000X-0.275000X0.200000X-0.275000X-0.200000X0.275000X-0.200000X0.275000X0.200000X0*%
%ADD11RoundRect,0.200000X-0.200000X-0.275000X0.200000X-0.275000X0.200000X0.275000X-0.200000X0.275000X0*%
%ADD12RoundRect,0.200000X0.275000X-0.200000X0.275000X0.200000X-0.275000X0.200000X-0.275000X-0.200000X0*%
%ADD13RoundRect,0.250000X-0.400000X-0.625000X0.400000X-0.625000X0.400000X0.625000X-0.400000X0.625000X0*%
%ADD14RoundRect,0.250000X-0.337500X-0.475000X0.337500X-0.475000X0.337500X0.475000X-0.337500X0.475000X0*%
%ADD15RoundRect,0.225000X-0.250000X0.225000X-0.250000X-0.225000X0.250000X-0.225000X0.250000X0.225000X0*%
%ADD16RoundRect,0.225000X-0.225000X-0.250000X0.225000X-0.250000X0.225000X0.250000X-0.225000X0.250000X0*%
%ADD17RoundRect,0.250000X0.337500X0.475000X-0.337500X0.475000X-0.337500X-0.475000X0.337500X-0.475000X0*%
%ADD18RoundRect,0.225000X0.250000X-0.225000X0.250000X0.225000X-0.250000X0.225000X-0.250000X-0.225000X0*%
%ADD19RoundRect,0.112500X-0.112500X0.187500X-0.112500X-0.187500X0.112500X-0.187500X0.112500X0.187500X0*%
%ADD20RoundRect,0.249999X1.425001X-0.450001X1.425001X0.450001X-1.425001X0.450001X-1.425001X-0.450001X0*%
%ADD21RoundRect,0.150000X0.150000X-0.587500X0.150000X0.587500X-0.150000X0.587500X-0.150000X-0.587500X0*%
%ADD22RoundRect,0.200000X0.200000X0.275000X-0.200000X0.275000X-0.200000X-0.275000X0.200000X-0.275000X0*%
%ADD23RoundRect,0.250000X0.300000X0.300000X-0.300000X0.300000X-0.300000X-0.300000X0.300000X-0.300000X0*%
%ADD24RoundRect,0.225000X0.225000X0.250000X-0.225000X0.250000X-0.225000X-0.250000X0.225000X-0.250000X0*%
%ADD25RoundRect,0.250000X-0.900000X1.000000X-0.900000X-1.000000X0.900000X-1.000000X0.900000X1.000000X0*%
%ADD26RoundRect,0.150000X-0.825000X-0.150000X0.825000X-0.150000X0.825000X0.150000X-0.825000X0.150000X0*%
G04 APERTURE END LIST*
D10*
%TO.C,R14*%
X80000000Y27825000D03*
X80000000Y26175000D03*
%TD*%
%TO.C,R19*%
X81500000Y30797000D03*
X81500000Y29147000D03*
%TD*%
D11*
%TO.C,R11*%
X74675000Y31500000D03*
X76325000Y31500000D03*
%TD*%
D12*
%TO.C,R16*%
X80000000Y29147000D03*
X80000000Y30797000D03*
%TD*%
D13*
%TO.C,R5*%
X53450000Y62000000D03*
X56550000Y62000000D03*
%TD*%
D14*
%TO.C,C16*%
X65764500Y17801500D03*
X67839500Y17801500D03*
%TD*%
D15*
%TO.C,C2*%
X23175000Y56775000D03*
X23175000Y55225000D03*
%TD*%
D16*
%TO.C,C4*%
X32975000Y58250000D03*
X34525000Y58250000D03*
%TD*%
D17*
%TO.C,C19*%
X67839500Y13716000D03*
X65764500Y13716000D03*
%TD*%
D18*
%TO.C,C10*%
X20200000Y55225000D03*
X20200000Y56775000D03*
%TD*%
D12*
%TO.C,R1*%
X34544000Y53531000D03*
X34544000Y55181000D03*
%TD*%
D16*
%TO.C,C5*%
X32950000Y59750000D03*
X34500000Y59750000D03*
%TD*%
D19*
%TO.C,D3*%
X11430000Y56549000D03*
X11430000Y54449000D03*
%TD*%
D20*
%TO.C,R4*%
X59817000Y43305000D03*
X59817000Y49405000D03*
%TD*%
D19*
%TO.C,D2*%
X34775500Y63130500D03*
X34775500Y61030500D03*
%TD*%
D17*
%TO.C,C26*%
X59965500Y27940000D03*
X57890500Y27940000D03*
%TD*%
D21*
%TO.C,U3*%
X76300000Y34812500D03*
X78200000Y34812500D03*
X77250000Y36687500D03*
%TD*%
D16*
%TO.C,C13*%
X76475000Y38750000D03*
X78025000Y38750000D03*
%TD*%
D13*
%TO.C,R7*%
X43400000Y62000000D03*
X46500000Y62000000D03*
%TD*%
D14*
%TO.C,C25*%
X57890500Y25908000D03*
X59965500Y25908000D03*
%TD*%
D16*
%TO.C,C1*%
X24875000Y61060000D03*
X26425000Y61060000D03*
%TD*%
D10*
%TO.C,R15*%
X81500000Y27825000D03*
X81500000Y26175000D03*
%TD*%
D12*
%TO.C,R2*%
X21700000Y55175000D03*
X21700000Y56825000D03*
%TD*%
D16*
%TO.C,C14*%
X79870000Y32385000D03*
X81420000Y32385000D03*
%TD*%
D13*
%TO.C,R6*%
X48450000Y62000000D03*
X51550000Y62000000D03*
%TD*%
D14*
%TO.C,C18*%
X65764500Y11557000D03*
X67839500Y11557000D03*
%TD*%
D12*
%TO.C,R3*%
X36068000Y53531000D03*
X36068000Y55181000D03*
%TD*%
D22*
%TO.C,R10*%
X30750000Y61060000D03*
X29100000Y61060000D03*
%TD*%
D23*
%TO.C,D4*%
X77650000Y28000000D03*
X74850000Y28000000D03*
%TD*%
D24*
%TO.C,C12*%
X76275000Y30000000D03*
X74725000Y30000000D03*
%TD*%
D22*
%TO.C,R12*%
X76325000Y33000000D03*
X74675000Y33000000D03*
%TD*%
D10*
%TO.C,R8*%
X33020000Y62865000D03*
X33020000Y61215000D03*
%TD*%
D22*
%TO.C,R9*%
X30750000Y62560000D03*
X29100000Y62560000D03*
%TD*%
D16*
%TO.C,C3*%
X32975000Y56750000D03*
X34525000Y56750000D03*
%TD*%
D17*
%TO.C,C17*%
X67839500Y15748000D03*
X65764500Y15748000D03*
%TD*%
D12*
%TO.C,R13*%
X77724000Y31433000D03*
X77724000Y33083000D03*
%TD*%
D25*
%TO.C,D6*%
X59250000Y58900000D03*
X59250000Y54600000D03*
%TD*%
D19*
%TO.C,D1*%
X32766000Y55279000D03*
X32766000Y53179000D03*
%TD*%
D26*
%TO.C,U1*%
X25400000Y59310000D03*
X25400000Y58040000D03*
X25400000Y56770000D03*
X25400000Y55500000D03*
X30350000Y55500000D03*
X30350000Y56770000D03*
X30350000Y58040000D03*
X30350000Y59310000D03*
%TD*%
M02*
